[[<meta message time_signature numerator=2 denominator=4 clocks_per_click=24 notated_32nd_notes_per_beat=8 time=0>, 0], [<meta message set_tempo tempo=769230 time=0>, 0], [<message control_change channel=0 control=121 value=0 time=160>, 160], [<message control_change channel=1 control=121 value=0 time=162>, 162], [<message control_change channel=2 control=121 value=0 time=164>, 164], [<message control_change channel=3 control=121 value=0 time=166>, 166], [<message control_change channel=4 control=121 value=0 time=168>, 168], [<message control_change channel=5 control=121 value=0 time=170>, 170], [<message control_change channel=6 control=121 value=0 time=172>, 172], [<message control_change channel=7 control=121 value=0 time=174>, 174], [<message control_change channel=8 control=121 value=0 time=176>, 176], [<message control_change channel=9 control=121 value=0 time=178>, 178], [<message control_change channel=10 control=121 value=0 time=180>, 180], [<message control_change channel=11 control=121 value=0 time=182>, 182], [<message control_change channel=12 control=121 value=0 time=184>, 184], [<message control_change channel=0 control=0 value=0 time=32>, 192], [<message control_change channel=0 control=32 value=0 time=2>, 194], [<message program_change channel=0 program=0 time=2>, 196], [<message control_change channel=0 control=7 value=123 time=2>, 198], [<message control_change channel=0 control=10 value=64 time=0>, 198], [<message control_change channel=0 control=11 value=110 time=0>, 198], [<message control_change channel=0 control=91 value=127 time=2>, 200], [<message control_change channel=0 control=93 value=0 time=0>, 200], [<message control_change channel=1 control=0 value=0 time=40>, 202], [<message control_change channel=1 control=32 value=0 time=2>, 204], [<message program_change channel=1 program=33 time=2>, 206], [<message control_change channel=1 control=7 value=123 time=2>, 208], [<message control_change channel=1 control=10 value=64 time=0>, 208], [<message control_change channel=1 control=11 value=110 time=0>, 208], [<message control_change channel=1 control=91 value=0 time=2>, 210], [<message control_change channel=1 control=93 value=60 time=0>, 210], [<message control_change channel=2 control=0 value=0 time=48>, 212], [<message control_change channel=2 control=32 value=0 time=2>, 214], [<message program_change channel=2 program=48 time=2>, 216], [<message control_change channel=2 control=7 value=123 time=2>, 218], [<message control_change channel=2 control=10 value=100 time=0>, 218], [<message control_change channel=2 control=11 value=80 time=0>, 218], [<message control_change channel=2 control=91 value=127 time=2>, 220], [<message control_change channel=2 control=93 value=20 time=0>, 220], [<message control_change channel=3 control=0 value=0 time=56>, 222], [<message control_change channel=3 control=32 value=0 time=2>, 224], [<message program_change channel=3 program=52 time=2>, 226], [<message control_change channel=3 control=7 value=123 time=2>, 228], [<message control_change channel=3 control=10 value=20 time=0>, 228], [<message control_change channel=3 control=11 value=95 time=0>, 228], [<message control_change channel=3 control=91 value=127 time=2>, 230], [<message control_change channel=3 control=93 value=0 time=0>, 230], [<message control_change channel=4 control=0 value=0 time=64>, 232], [<message control_change channel=4 control=32 value=0 time=2>, 234], [<message program_change channel=4 program=65 time=2>, 236], [<message control_change channel=4 control=7 value=123 time=2>, 238], [<message control_change channel=4 control=10 value=64 time=0>, 238], [<message control_change channel=4 control=11 value=110 time=0>, 238], [<message control_change channel=4 control=91 value=127 time=2>, 240], [<message control_change channel=4 control=93 value=20 time=0>, 240], [<message control_change channel=5 control=0 value=0 time=72>, 242], [<message control_change channel=5 control=32 value=0 time=2>, 244], [<message program_change channel=5 program=60 time=2>, 246], [<message control_change channel=5 control=7 value=123 time=2>, 248], [<message control_change channel=5 control=10 value=64 time=0>, 248], [<message control_change channel=5 control=11 value=100 time=0>, 248], [<message control_change channel=5 control=91 value=127 time=2>, 250], [<message control_change channel=5 control=93 value=60 time=0>, 250], [<message control_change channel=6 control=0 value=0 time=80>, 252], [<message control_change channel=6 control=32 value=0 time=2>, 254], [<message program_change channel=6 program=62 time=2>, 256], [<message control_change channel=6 control=7 value=123 time=2>, 258], [<message control_change channel=6 control=10 value=110 time=0>, 258], [<message control_change channel=6 control=11 value=110 time=0>, 258], [<message control_change channel=6 control=91 value=127 time=2>, 260], [<message control_change channel=6 control=93 value=60 time=0>, 260], [<message control_change channel=7 control=0 value=0 time=88>, 262], [<message control_change channel=7 control=32 value=0 time=2>, 264], [<message program_change channel=7 program=69 time=2>, 266], [<message control_change channel=7 control=7 value=123 time=2>, 268], [<message control_change channel=7 control=10 value=10 time=0>, 268], [<message control_change channel=7 control=11 value=90 time=0>, 268], [<message control_change channel=7 control=91 value=127 time=2>, 270], [<message control_change channel=7 control=93 value=40 time=0>, 270], [<message control_change channel=8 control=0 value=0 time=96>, 272], [<message control_change channel=8 control=32 value=0 time=2>, 274], [<message program_change channel=8 program=30 time=2>, 276], [<message control_change channel=8 control=7 value=123 time=2>, 278], [<message control_change channel=8 control=10 value=127 time=0>, 278], [<message control_change channel=8 control=11 value=90 time=0>, 278], [<message control_change channel=8 control=91 value=127 time=2>, 280], [<message control_change channel=8 control=93 value=50 time=0>, 280], [<message control_change channel=9 control=0 value=0 time=104>, 282], [<message control_change channel=9 control=32 value=0 time=2>, 284], [<message program_change channel=9 program=0 time=2>, 286], [<message control_change channel=9 control=7 value=123 time=2>, 288], [<message control_change channel=9 control=10 value=64 time=0>, 288], [<message control_change channel=9 control=11 value=110 time=0>, 288], [<message control_change channel=9 control=91 value=127 time=2>, 290], [<message control_change channel=9 control=93 value=0 time=0>, 290], [<message control_change channel=10 control=0 value=0 time=112>, 292], [<message control_change channel=10 control=32 value=0 time=2>, 294], [<message program_change channel=10 program=47 time=2>, 296], [<message control_change channel=10 control=7 value=123 time=2>, 298], [<message control_change channel=10 control=10 value=64 time=0>, 298], [<message control_change channel=10 control=11 value=110 time=0>, 298], [<message control_change channel=10 control=91 value=127 time=2>, 300], [<message control_change channel=10 control=93 value=20 time=0>, 300], [<message control_change channel=11 control=0 value=0 time=120>, 302], [<message control_change channel=11 control=32 value=0 time=2>, 304], [<message program_change channel=11 program=30 time=2>, 306], [<message control_change channel=11 control=7 value=123 time=2>, 308], [<message control_change channel=11 control=10 value=0 time=0>, 308], [<message control_change channel=11 control=11 value=90 time=0>, 308], [<message control_change channel=11 control=91 value=127 time=2>, 310], [<message control_change channel=11 control=93 value=0 time=0>, 310], [<message control_change channel=12 control=0 value=0 time=128>, 312], [<message control_change channel=12 control=32 value=0 time=2>, 314], [<message program_change channel=12 program=55 time=2>, 316], [<message control_change channel=12 control=7 value=123 time=2>, 318], [<message control_change channel=12 control=10 value=64 time=0>, 318], [<message control_change channel=12 control=11 value=110 time=0>, 318], [<message control_change channel=12 control=91 value=126 time=2>, 320], [<message control_change channel=12 control=93 value=0 time=0>, 320], [<message note_on channel=3 note=65 velocity=113 time=442>, 672], [<message note_on channel=3 note=68 velocity=113 time=0>, 672], [<message note_on channel=3 note=70 velocity=113 time=0>, 672], [<message note_on channel=3 note=73 velocity=113 time=0>, 672], [<message note_off channel=3 note=73 velocity=113 time=76>, 748], [<message note_off channel=3 note=65 velocity=113 time=4>, 752], [<message note_off channel=3 note=70 velocity=113 time=14>, 766], [<message note_off channel=3 note=68 velocity=113 time=0>, 766], [<message note_on channel=3 note=65 velocity=113 time=2>, 768], [<message note_on channel=3 note=68 velocity=113 time=0>, 768], [<message note_on channel=3 note=70 velocity=113 time=0>, 768], [<message note_on channel=3 note=73 velocity=113 time=0>, 768], [<message note_off channel=3 note=68 velocity=113 time=54>, 822], [<message note_off channel=3 note=70 velocity=113 time=2>, 824], [<message note_off channel=3 note=73 velocity=113 time=14>, 838], [<message note_off channel=3 note=65 velocity=113 time=6>, 844], [<message note_on channel=3 note=65 velocity=113 time=20>, 864], [<message note_on channel=3 note=68 velocity=113 time=0>, 864], [<message note_on channel=3 note=70 velocity=113 time=0>, 864], [<message note_on channel=3 note=73 velocity=113 time=0>, 864], [<message note_off channel=3 note=73 velocity=113 time=82>, 946], [<message note_off channel=3 note=68 velocity=113 time=4>, 950], [<message note_off channel=3 note=65 velocity=113 time=0>, 950], [<message note_off channel=3 note=70 velocity=113 time=4>, 954], [<message note_on channel=3 note=65 velocity=113 time=6>, 960], [<message note_on channel=3 note=68 velocity=113 time=0>, 960], [<message note_on channel=3 note=70 velocity=113 time=0>, 960], [<message note_on channel=3 note=73 velocity=113 time=0>, 960], [<message note_off channel=3 note=73 velocity=113 time=164>, 1124], [<message note_off channel=3 note=65 velocity=113 time=6>, 1130], [<message note_off channel=3 note=68 velocity=113 time=6>, 1136], [<message note_off channel=3 note=70 velocity=113 time=4>, 1140], [<message note_on channel=3 note=65 velocity=113 time=12>, 1152], [<message note_on channel=3 note=68 velocity=113 time=0>, 1152], [<message note_on channel=3 note=70 velocity=113 time=0>, 1152], [<message note_on channel=3 note=73 velocity=113 time=0>, 1152], [<message note_off channel=3 note=68 velocity=113 time=158>, 1310], [<message note_off channel=3 note=70 velocity=113 time=4>, 1314], [<message note_off channel=3 note=73 velocity=113 time=6>, 1320], [<message note_off channel=3 note=65 velocity=113 time=4>, 1324], [<message note_on channel=3 note=63 velocity=113 time=116>, 1440], [<message note_on channel=3 note=67 velocity=113 time=0>, 1440], [<message note_on channel=3 note=70 velocity=113 time=0>, 1440], [<message note_on channel=3 note=73 velocity=113 time=0>, 1440], [<message note_off channel=3 note=70 velocity=113 time=74>, 1514], [<message note_off channel=3 note=67 velocity=113 time=0>, 1514], [<message note_off channel=3 note=73 velocity=113 time=2>, 1516], [<message note_off channel=3 note=63 velocity=113 time=4>, 1520], [<message note_on channel=3 note=63 velocity=113 time=16>, 1536], [<message note_on channel=3 note=67 velocity=113 time=0>, 1536], [<message note_on channel=3 note=70 velocity=113 time=0>, 1536], [<message note_on channel=3 note=73 velocity=113 time=0>, 1536], [<message note_off channel=3 note=67 velocity=113 time=82>, 1618], [<message note_off channel=3 note=70 velocity=113 time=4>, 1622], [<message note_off channel=3 note=73 velocity=113 time=8>, 1630], [<message note_off channel=3 note=63 velocity=113 time=0>, 1630], [<message note_on channel=3 note=65 velocity=113 time=2>, 1632], [<message note_on channel=3 note=68 velocity=113 time=0>, 1632], [<message note_on channel=3 note=70 velocity=113 time=0>, 1632], [<message note_off channel=3 note=70 velocity=113 time=80>, 1712], [<message note_off channel=3 note=68 velocity=113 time=8>, 1720], [<message note_off channel=3 note=65 velocity=113 time=6>, 1726], [<message note_on channel=3 note=67 velocity=113 time=2>, 1728], [<message note_on channel=3 note=70 velocity=113 time=0>, 1728], [<message note_on channel=3 note=73 velocity=113 time=0>, 1728], [<message note_off channel=3 note=73 velocity=113 time=94>, 1822], [<message note_off channel=3 note=70 velocity=113 time=0>, 1822], [<message note_off channel=3 note=67 velocity=113 time=0>, 1822], [<message note_on channel=3 note=65 velocity=113 time=2>, 1824], [<message note_on channel=3 note=68 velocity=113 time=0>, 1824], [<message note_off channel=3 note=68 velocity=113 time=46>, 1870], [<message note_off channel=3 note=65 velocity=113 time=0>, 1870], [<message note_on channel=3 note=63 velocity=113 time=2>, 1872], [<message note_on channel=3 note=67 velocity=113 time=0>, 1872], [<message note_off channel=3 note=67 velocity=113 time=172>, 2044], [<message note_off channel=3 note=63 velocity=113 time=28>, 2072], [<message note_on channel=3 note=63 velocity=113 time=40>, 2112], [<message note_on channel=3 note=66 velocity=113 time=0>, 2112], [<message note_on channel=3 note=68 velocity=113 time=0>, 2112], [<message note_on channel=3 note=72 velocity=113 time=0>, 2112], [<message note_off channel=3 note=66 velocity=113 time=72>, 2184], [<message note_off channel=3 note=72 velocity=113 time=8>, 2192], [<message note_off channel=3 note=63 velocity=113 time=8>, 2200], [<message note_off channel=3 note=68 velocity=113 time=2>, 2202], [<message note_on channel=3 note=63 velocity=113 time=6>, 2208], [<message note_on channel=3 note=66 velocity=113 time=0>, 2208], [<message note_on channel=3 note=68 velocity=113 time=0>, 2208], [<message note_on channel=3 note=72 velocity=113 time=0>, 2208], [<message note_off channel=3 note=66 velocity=113 time=72>, 2280], [<message note_off channel=3 note=63 velocity=113 time=8>, 2288], [<message note_off channel=3 note=68 velocity=113 time=2>, 2290], [<message note_off channel=3 note=72 velocity=113 time=2>, 2292], [<message note_on channel=3 note=63 velocity=113 time=12>, 2304], [<message note_on channel=3 note=66 velocity=113 time=0>, 2304], [<message note_on channel=3 note=68 velocity=113 time=0>, 2304], [<message note_on channel=3 note=72 velocity=113 time=0>, 2304], [<message note_off channel=3 note=66 velocity=113 time=74>, 2378], [<message note_off channel=3 note=72 velocity=113 time=14>, 2392], [<message note_off channel=3 note=63 velocity=113 time=0>, 2392], [<message note_off channel=3 note=68 velocity=113 time=6>, 2398], [<message note_on channel=3 note=63 velocity=113 time=2>, 2400], [<message note_on channel=3 note=66 velocity=113 time=0>, 2400], [<message note_on channel=3 note=70 velocity=113 time=0>, 2400], [<message note_on channel=3 note=73 velocity=113 time=0>, 2400], [<message note_off channel=3 note=73 velocity=113 time=190>, 2590], [<message note_off channel=3 note=70 velocity=113 time=0>, 2590], [<message note_off channel=3 note=66 velocity=113 time=0>, 2590], [<message note_off channel=3 note=63 velocity=113 time=0>, 2590], [<message note_on channel=3 note=63 velocity=113 time=2>, 2592], [<message note_on channel=3 note=66 velocity=113 time=0>, 2592], [<message note_on channel=3 note=68 velocity=113 time=0>, 2592], [<message note_on channel=3 note=72 velocity=113 time=0>, 2592], [<message note_off channel=3 note=66 velocity=113 time=48>, 2640], [<message note_off channel=3 note=63 velocity=113 time=6>, 2646], [<message note_off channel=3 note=68 velocity=113 time=112>, 2758], [<message note_off channel=3 note=72 velocity=113 time=24>, 2782], [<message note_on channel=3 note=68 velocity=113 time=2>, 2784], [<message note_off channel=3 note=68 velocity=113 time=78>, 2862], [<message note_on channel=3 note=61 velocity=113 time=18>, 2880], [<message note_on channel=3 note=65 velocity=113 time=0>, 2880], [<message note_on channel=3 note=68 velocity=113 time=0>, 2880], [<message note_on channel=3 note=73 velocity=113 time=0>, 2880], [<message note_off channel=3 note=65 velocity=113 time=42>, 2922], [<message note_off channel=3 note=68 velocity=113 time=2>, 2924], [<message note_off channel=3 note=61 velocity=113 time=0>, 2924], [<message note_off channel=3 note=73 velocity=113 time=8>, 2932], [<message note_on channel=3 note=61 velocity=113 time=44>, 2976], [<message note_on channel=3 note=65 velocity=113 time=0>, 2976], [<message note_on channel=3 note=68 velocity=113 time=0>, 2976], [<message note_on channel=3 note=73 velocity=113 time=0>, 2976], [<message note_off channel=3 note=65 velocity=113 time=46>, 3022], [<message note_off channel=3 note=68 velocity=113 time=40>, 3062], [<message note_off channel=3 note=73 velocity=113 time=8>, 3070], [<message note_off channel=3 note=61 velocity=113 time=0>, 3070], [<message note_on channel=3 note=66 velocity=113 time=2>, 3072], [<message note_on channel=3 note=70 velocity=113 time=0>, 3072], [<message note_off channel=3 note=66 velocity=113 time=74>, 3146], [<message note_off channel=3 note=70 velocity=113 time=20>, 3166], [<message note_on channel=3 note=65 velocity=113 time=2>, 3168], [<message note_on channel=3 note=68 velocity=113 time=0>, 3168], [<message note_off channel=3 note=68 velocity=113 time=94>, 3262], [<message note_off channel=3 note=65 velocity=113 time=0>, 3262], [<message note_on channel=3 note=63 velocity=113 time=2>, 3264], [<message note_on channel=3 note=66 velocity=113 time=0>, 3264], [<message note_off channel=3 note=66 velocity=113 time=94>, 3358], [<message note_off channel=3 note=63 velocity=113 time=0>, 3358], [<message note_on channel=3 note=61 velocity=113 time=2>, 3360], [<message note_on channel=3 note=65 velocity=113 time=0>, 3360], [<message note_off channel=3 note=65 velocity=113 time=352>, 3712], [<message note_off channel=3 note=61 velocity=113 time=12>, 3724], [<message note_on channel=0 note=46 velocity=120 time=3640>, 3840], [<message note_on channel=0 note=53 velocity=123 time=0>, 3840], [<message note_on channel=0 note=58 velocity=123 time=0>, 3840], [<message note_on channel=0 note=61 velocity=123 time=0>, 3840], [<message note_on channel=0 note=65 velocity=122 time=0>, 3840], [<message note_on channel=2 note=65 velocity=104 time=3620>, 3840], [<message note_on channel=3 note=46 velocity=113 time=116>, 3840], [<message note_on channel=3 note=53 velocity=113 time=0>, 3840], [<message note_on channel=3 note=58 velocity=113 time=0>, 3840], [<message note_on channel=3 note=61 velocity=113 time=0>, 3840], [<message note_on channel=3 note=65 velocity=113 time=0>, 3840], [<message note_off channel=0 note=58 velocity=123 time=82>, 3922], [<message note_on channel=0 note=58 velocity=95 time=14>, 3936], [<message note_off channel=0 note=65 velocity=122 time=8>, 3944], [<message note_off channel=0 note=61 velocity=123 time=16>, 3960], [<message note_off channel=2 note=65 velocity=104 time=160>, 4000], [<message note_on channel=0 note=61 velocity=121 time=72>, 4032], [<message note_on channel=0 note=65 velocity=122 time=0>, 4032], [<message note_on channel=2 note=65 velocity=111 time=32>, 4032], [<message note_off channel=0 note=58 velocity=95 time=10>, 4042], [<message note_off channel=2 note=65 velocity=111 time=82>, 4114], [<message note_off channel=0 note=65 velocity=122 time=78>, 4120], [<message note_on channel=0 note=58 velocity=104 time=8>, 4128], [<message note_on channel=2 note=65 velocity=110 time=14>, 4128], [<message note_off channel=0 note=61 velocity=121 time=16>, 4144], [<message note_on channel=0 note=61 velocity=121 time=80>, 4224], [<message note_on channel=0 note=65 velocity=122 time=0>, 4224], [<message note_off channel=0 note=58 velocity=104 time=12>, 4236], [<message note_off channel=0 note=65 velocity=122 time=84>, 4320], [<message note_on channel=0 note=58 velocity=109 time=0>, 4320], [<message note_off channel=0 note=61 velocity=121 time=18>, 4338], [<message note_on channel=0 note=61 velocity=120 time=78>, 4416], [<message note_on channel=0 note=65 velocity=120 time=0>, 4416], [<message note_off channel=0 note=58 velocity=109 time=20>, 4436], [<message note_off channel=2 note=65 velocity=110 time=366>, 4494], [<message note_off channel=0 note=53 velocity=123 time=66>, 4502], [<message note_on channel=0 note=58 velocity=116 time=10>, 4512], [<message note_on channel=2 note=65 velocity=111 time=18>, 4512], [<message note_off channel=0 note=65 velocity=120 time=8>, 4520], [<message note_off channel=0 note=61 velocity=120 time=8>, 4528], [<message note_off channel=0 note=58 velocity=116 time=24>, 4552], [<message note_off channel=3 note=58 velocity=113 time=738>, 4578], [<message note_off channel=2 note=65 velocity=111 time=84>, 4596], [<message note_off channel=3 note=53 velocity=113 time=20>, 4598], [<message note_off channel=3 note=46 velocity=113 time=0>, 4598], [<message note_off channel=0 note=46 velocity=120 time=48>, 4600], [<message note_off channel=3 note=65 velocity=113 time=8>, 4606], [<message note_off channel=3 note=61 velocity=113 time=0>, 4606], [<message note_on channel=0 note=49 velocity=123 time=8>, 4608], [<message note_on channel=0 note=56 velocity=122 time=0>, 4608], [<message note_on channel=0 note=59 velocity=123 time=0>, 4608], [<message note_on channel=0 note=61 velocity=123 time=0>, 4608], [<message note_on channel=0 note=65 velocity=123 time=0>, 4608], [<message note_on channel=2 note=65 velocity=117 time=12>, 4608], [<message note_on channel=3 note=59 velocity=113 time=2>, 4608], [<message note_off channel=0 note=59 velocity=123 time=72>, 4680], [<message note_off channel=2 note=65 velocity=117 time=82>, 4690], [<message note_on channel=0 note=59 velocity=118 time=24>, 4704], [<message note_on channel=2 note=65 velocity=116 time=14>, 4704], [<message note_off channel=0 note=61 velocity=123 time=4>, 4708], [<message note_off channel=0 note=65 velocity=123 time=12>, 4720], [<message note_off channel=3 note=59 velocity=113 time=190>, 4798], [<message note_on channel=0 note=61 velocity=122 time=80>, 4800], [<message note_on channel=0 note=65 velocity=123 time=0>, 4800], [<message note_off channel=2 note=65 velocity=116 time=96>, 4800], [<message note_on channel=2 note=66 velocity=115 time=0>, 4800], [<message note_on channel=3 note=66 velocity=113 time=2>, 4800], [<message note_off channel=0 note=59 velocity=118 time=20>, 4820], [<message note_off channel=3 note=66 velocity=113 time=94>, 4894], [<message note_on channel=0 note=59 velocity=110 time=76>, 4896], [<message note_on channel=2 note=68 velocity=113 time=96>, 4896], [<message note_on channel=3 note=68 velocity=113 time=2>, 4896], [<message note_off channel=0 note=65 velocity=123 time=6>, 4902], [<message note_off channel=2 note=66 velocity=115 time=10>, 4906], [<message note_off channel=0 note=61 velocity=122 time=10>, 4912], [<message note_on channel=0 note=61 velocity=121 time=80>, 4992], [<message note_on channel=0 note=65 velocity=118 time=0>, 4992], [<message note_off channel=0 note=59 velocity=110 time=10>, 5002], [<message note_off channel=3 note=68 velocity=113 time=190>, 5086], [<message note_on channel=0 note=59 velocity=117 time=86>, 5088], [<message note_on channel=2 note=61 velocity=103 time=182>, 5088], [<message note_on channel=3 note=61 velocity=113 time=2>, 5088], [<message note_off channel=0 note=65 velocity=118 time=8>, 5096], [<message note_off channel=2 note=68 velocity=113 time=8>, 5096], [<message note_off channel=0 note=61 velocity=121 time=8>, 5104], [<message note_on channel=0 note=61 velocity=120 time=80>, 5184], [<message note_on channel=0 note=65 velocity=122 time=0>, 5184], [<message note_off channel=0 note=59 velocity=117 time=12>, 5196], [<message note_off channel=0 note=65 velocity=122 time=78>, 5274], [<message note_off channel=3 note=61 velocity=113 time=190>, 5278], [<message note_on channel=0 note=59 velocity=117 time=6>, 5280], [<message note_on channel=2 note=70 velocity=101 time=184>, 5280], [<message note_on channel=3 note=66 velocity=113 time=2>, 5280], [<message note_on channel=3 note=70 velocity=113 time=0>, 5280], [<message note_off channel=2 note=61 velocity=103 time=20>, 5300], [<message note_off channel=0 note=61 velocity=120 time=32>, 5312], [<message note_off channel=0 note=56 velocity=122 time=2>, 5314], [<message note_off channel=0 note=59 velocity=117 time=10>, 5324], [<message note_on channel=0 note=42 velocity=121 time=52>, 5376], [<message note_on channel=0 note=54 velocity=118 time=0>, 5376], [<message note_on channel=0 note=61 velocity=123 time=0>, 5376], [<message note_on channel=0 note=66 velocity=118 time=0>, 5376], [<message note_on channel=0 note=70 velocity=121 time=0>, 5376], [<message note_on channel=0 note=58 velocity=116 time=96>, 5472], [<message note_off channel=0 note=70 velocity=121 time=12>, 5484], [<message note_off channel=0 note=66 velocity=118 time=10>, 5494], [<message note_off channel=0 note=61 velocity=123 time=2>, 5496], [<message note_on channel=0 note=61 velocity=122 time=72>, 5568], [<message note_on channel=0 note=66 velocity=121 time=0>, 5568], [<message note_on channel=0 note=70 velocity=121 time=0>, 5568], [<message note_off channel=0 note=58 velocity=116 time=10>, 5578], [<message note_off channel=0 note=70 velocity=121 time=82>, 5660], [<message note_off channel=0 note=66 velocity=121 time=4>, 5664], [<message note_on channel=0 note=58 velocity=117 time=0>, 5664], [<message note_off channel=0 note=61 velocity=122 time=8>, 5672], [<message note_on channel=0 note=61 velocity=121 time=88>, 5760], [<message note_on channel=0 note=66 velocity=122 time=0>, 5760], [<message note_on channel=0 note=70 velocity=123 time=0>, 5760], [<message note_off channel=0 note=58 velocity=117 time=12>, 5772], [<message note_on channel=0 note=58 velocity=116 time=84>, 5856], [<message note_off channel=0 note=70 velocity=123 time=6>, 5862], [<message note_off channel=0 note=66 velocity=122 time=12>, 5874], [<message note_off channel=0 note=61 velocity=121 time=2>, 5876], [<message note_on channel=0 note=61 velocity=120 time=76>, 5952], [<message note_on channel=0 note=66 velocity=119 time=0>, 5952], [<message note_on channel=0 note=70 velocity=121 time=0>, 5952], [<message note_off channel=0 note=58 velocity=116 time=14>, 5966], [<message note_off channel=2 note=70 velocity=101 time=698>, 5998], [<message note_on channel=0 note=58 velocity=115 time=82>, 6048], [<message note_off channel=0 note=70 velocity=121 time=4>, 6052], [<message note_off channel=0 note=66 velocity=119 time=6>, 6058], [<message note_off channel=0 note=61 velocity=120 time=0>, 6058], [<message note_off channel=0 note=54 velocity=118 time=80>, 6138], [<message note_off channel=0 note=49 velocity=123 time=4>, 6142], [<message note_off channel=3 note=70 velocity=113 time=862>, 6142], [<message note_off channel=3 note=66 velocity=113 time=0>, 6142], [<message note_on channel=0 note=51 velocity=123 time=2>, 6144], [<message note_on channel=0 note=63 velocity=123 time=0>, 6144], [<message note_on channel=0 note=66 velocity=122 time=0>, 6144], [<message note_on channel=0 note=70 velocity=123 time=0>, 6144], [<message note_on channel=2 note=70 velocity=107 time=146>, 6144], [<message note_on channel=2 note=82 velocity=47 time=0>, 6144], [<message note_on channel=3 note=58 velocity=113 time=2>, 6144], [<message note_on channel=3 note=63 velocity=113 time=0>, 6144], [<message note_off channel=0 note=42 velocity=121 time=2>, 6146], [<message note_off channel=0 note=58 velocity=115 time=6>, 6152], [<message note_off channel=0 note=70 velocity=123 time=84>, 6236], [<message note_on channel=0 note=58 velocity=109 time=4>, 6240], [<message note_off channel=0 note=66 velocity=122 time=8>, 6248], [<message note_off channel=0 note=63 velocity=123 time=14>, 6262], [<message note_off channel=2 note=82 velocity=47 time=184>, 6328], [<message note_on channel=0 note=63 velocity=122 time=74>, 6336], [<message note_on channel=0 note=66 velocity=119 time=0>, 6336], [<message note_on channel=0 note=70 velocity=122 time=0>, 6336], [<message note_on channel=2 note=82 velocity=104 time=8>, 6336], [<message note_off channel=0 note=58 velocity=109 time=10>, 6346], [<message note_off channel=2 note=70 velocity=107 time=90>, 6426], [<message note_off channel=0 note=70 velocity=122 time=82>, 6428], [<message note_on channel=0 note=58 velocity=115 time=4>, 6432], [<message note_on channel=2 note=70 velocity=117 time=6>, 6432], [<message note_off channel=0 note=66 velocity=119 time=6>, 6438], [<message note_off channel=0 note=63 velocity=122 time=6>, 6444], [<message note_on channel=0 note=63 velocity=122 time=84>, 6528], [<message note_on channel=0 note=66 velocity=120 time=0>, 6528], [<message note_on channel=0 note=70 velocity=120 time=0>, 6528], [<message note_off channel=0 note=58 velocity=115 time=12>, 6540], [<message note_off channel=0 note=70 velocity=120 time=60>, 6600], [<message note_off channel=2 note=70 velocity=117 time=180>, 6612], [<message note_off channel=0 note=66 velocity=120 time=24>, 6624], [<message note_on channel=0 note=58 velocity=108 time=0>, 6624], [<message note_on channel=2 note=70 velocity=115 time=12>, 6624], [<message note_off channel=0 note=63 velocity=122 time=12>, 6636], [<message note_on channel=0 note=63 velocity=121 time=84>, 6720], [<message note_on channel=0 note=66 velocity=117 time=0>, 6720], [<message note_on channel=0 note=70 velocity=122 time=0>, 6720], [<message note_off channel=0 note=58 velocity=108 time=10>, 6730], [<message note_off channel=0 note=66 velocity=117 time=58>, 6788], [<message note_on channel=0 note=58 velocity=115 time=28>, 6816], [<message note_off channel=0 note=63 velocity=121 time=8>, 6824], [<message note_off channel=0 note=58 velocity=115 time=38>, 6862], [<message note_off channel=0 note=70 velocity=122 time=42>, 6904], [<message note_off channel=3 note=63 velocity=113 time=766>, 6910], [<message note_off channel=3 note=58 velocity=113 time=0>, 6910], [<message note_on channel=0 note=44 velocity=109 time=8>, 6912], [<message note_on channel=0 note=56 velocity=122 time=0>, 6912], [<message note_on channel=0 note=60 velocity=119 time=0>, 6912], [<message note_on channel=0 note=63 velocity=122 time=0>, 6912], [<message note_on channel=0 note=68 velocity=123 time=0>, 6912], [<message note_off channel=2 note=70 velocity=115 time=288>, 6912], [<message note_on channel=2 note=68 velocity=111 time=0>, 6912], [<message note_on channel=2 note=80 velocity=76 time=0>, 6912], [<message note_on channel=3 note=56 velocity=113 time=2>, 6912], [<message note_on channel=3 note=60 velocity=113 time=0>, 6912], [<message note_on channel=3 note=68 velocity=113 time=0>, 6912], [<message note_off channel=2 note=82 velocity=104 time=4>, 6916], [<message note_off channel=0 note=51 velocity=123 time=12>, 6924], [<message note_off channel=0 note=60 velocity=119 time=48>, 6972], [<message note_off channel=2 note=68 velocity=111 time=72>, 6988], [<message note_off channel=2 note=80 velocity=76 time=2>, 6990], [<message note_off channel=0 note=68 velocity=123 time=36>, 7008], [<message note_on channel=0 note=51 velocity=120 time=0>, 7008], [<message note_on channel=0 note=60 velocity=119 time=0>, 7008], [<message note_on channel=2 note=68 velocity=116 time=18>, 7008], [<message note_on channel=2 note=80 velocity=110 time=0>, 7008], [<message note_off channel=0 note=63 velocity=122 time=6>, 7014], [<message note_off channel=0 note=56 velocity=122 time=8>, 7022], [<message note_off channel=0 note=51 velocity=120 time=80>, 7102], [<message note_off channel=3 note=68 velocity=113 time=190>, 7102], [<message note_off channel=3 note=60 velocity=113 time=0>, 7102], [<message note_off channel=3 note=56 velocity=113 time=0>, 7102], [<message note_on channel=0 note=56 velocity=123 time=2>, 7104], [<message note_on channel=0 note=63 velocity=122 time=0>, 7104], [<message note_on channel=0 note=70 velocity=123 time=0>, 7104], [<message note_on channel=2 note=70 velocity=117 time=96>, 7104], [<message note_on channel=2 note=82 velocity=112 time=0>, 7104], [<message note_on channel=3 note=58 velocity=113 time=2>, 7104], [<message note_on channel=3 note=70 velocity=113 time=0>, 7104], [<message note_off channel=2 note=68 velocity=116 time=10>, 7114], [<message note_off channel=2 note=80 velocity=110 time=2>, 7116], [<message note_off channel=0 note=60 velocity=119 time=14>, 7118], [<message note_off channel=0 note=63 velocity=122 time=74>, 7192], [<message note_off channel=3 note=70 velocity=113 time=94>, 7198], [<message note_off channel=3 note=58 velocity=113 time=0>, 7198], [<message note_on channel=0 note=51 velocity=119 time=8>, 7200], [<message note_on channel=0 note=60 velocity=114 time=0>, 7200], [<message note_on channel=0 note=68 velocity=119 time=0>, 7200], [<message note_off channel=2 note=70 velocity=117 time=84>, 7200], [<message note_on channel=2 note=68 velocity=111 time=0>, 7200], [<message note_on channel=2 note=80 velocity=112 time=0>, 7200], [<message note_on channel=3 note=56 velocity=113 time=2>, 7200], [<message note_on channel=3 note=68 velocity=113 time=0>, 7200], [<message note_off channel=0 note=56 velocity=123 time=6>, 7206], [<message note_off channel=0 note=70 velocity=123 time=4>, 7210], [<message note_off channel=2 note=82 velocity=112 time=16>, 7216], [<message note_off channel=3 note=68 velocity=113 time=46>, 7246], [<message note_off channel=3 note=56 velocity=113 time=0>, 7246], [<message note_on channel=0 note=66 velocity=113 time=38>, 7248], [<message note_on channel=2 note=66 velocity=113 time=32>, 7248], [<message note_on channel=2 note=78 velocity=108 time=0>, 7248], [<message note_on channel=3 note=66 velocity=113 time=2>, 7248], [<message note_off channel=2 note=80 velocity=112 time=8>, 7256], [<message note_off channel=2 note=68 velocity=111 time=2>, 7258], [<message note_off channel=0 note=68 velocity=119 time=14>, 7262], [<message note_off channel=2 note=78 velocity=108 time=36>, 7294], [<message note_off channel=2 note=66 velocity=113 time=0>, 7294], [<message note_off channel=3 note=66 velocity=113 time=46>, 7294], [<message note_on channel=0 note=63 velocity=115 time=34>, 7296], [<message note_on channel=2 note=63 velocity=116 time=2>, 7296], [<message note_on channel=2 note=75 velocity=118 time=0>, 7296], [<message note_on channel=3 note=63 velocity=113 time=2>, 7296], [<message note_off channel=0 note=66 velocity=113 time=18>, 7314], [<message note_off channel=3 note=63 velocity=113 time=40>, 7336], [<message note_off channel=0 note=44 velocity=109 time=32>, 7346], [<message note_off channel=2 note=75 velocity=118 time=76>, 7372], [<message note_off channel=2 note=63 velocity=116 time=6>, 7378], [<message note_off channel=0 note=63 velocity=115 time=104>, 7450], [<message note_off channel=0 note=51 velocity=119 time=10>, 7460], [<message note_off channel=0 note=60 velocity=114 time=2>, 7462], [<message note_on channel=0 note=65 velocity=121 time=26>, 7488], [<message note_on channel=2 note=65 velocity=83 time=110>, 7488], [<message note_on channel=3 note=65 velocity=113 time=152>, 7488], [<message note_off channel=0 note=65 velocity=121 time=92>, 7580], [<message note_off channel=3 note=65 velocity=113 time=94>, 7582], [<message note_on channel=0 note=66 velocity=117 time=4>, 7584], [<message note_on channel=2 note=66 velocity=112 time=96>, 7584], [<message note_on channel=3 note=66 velocity=113 time=2>, 7584], [<message note_off channel=2 note=65 velocity=83 time=26>, 7610], [<message note_off channel=0 note=66 velocity=117 time=94>, 7678], [<message note_off channel=3 note=66 velocity=113 time=94>, 7678], [<message note_on channel=0 note=47 velocity=117 time=2>, 7680], [<message note_on channel=0 note=54 velocity=122 time=0>, 7680], [<message note_on channel=0 note=59 velocity=123 time=0>, 7680], [<message note_on channel=0 note=63 velocity=121 time=0>, 7680], [<message note_on channel=0 note=66 velocity=122 time=0>, 7680], [<message note_on channel=0 note=71 velocity=123 time=0>, 7680], [<message note_on channel=2 note=71 velocity=115 time=70>, 7680], [<message note_on channel=3 note=59 velocity=113 time=2>, 7680], [<message note_on channel=3 note=63 velocity=113 time=0>, 7680], [<message note_on channel=3 note=71 velocity=113 time=0>, 7680], [<message note_off channel=0 note=66 velocity=122 time=2>, 7682], [<message note_off channel=2 note=66 velocity=112 time=12>, 7692], [<message note_off channel=0 note=71 velocity=123 time=60>, 7742], [<message note_off channel=3 note=59 velocity=113 time=64>, 7744], [<message note_off channel=0 note=63 velocity=121 time=4>, 7746], [<message note_off channel=0 note=47 velocity=117 time=2>, 7748], [<message note_off channel=0 note=59 velocity=123 time=2>, 7750], [<message note_off channel=3 note=71 velocity=113 time=6>, 7750], [<message note_off channel=3 note=63 velocity=113 time=0>, 7750], [<message note_off channel=2 note=71 velocity=115 time=64>, 7756], [<message note_on channel=0 note=47 velocity=113 time=26>, 7776], [<message note_on channel=0 note=59 velocity=122 time=0>, 7776], [<message note_on channel=0 note=63 velocity=123 time=0>, 7776], [<message note_on channel=0 note=66 velocity=122 time=0>, 7776], [<message note_on channel=0 note=71 velocity=122 time=0>, 7776], [<message note_on channel=2 note=71 velocity=114 time=20>, 7776], [<message note_on channel=3 note=59 velocity=113 time=26>, 7776], [<message note_on channel=3 note=63 velocity=113 time=0>, 7776], [<message note_on channel=3 note=71 velocity=113 time=0>, 7776], [<message note_off channel=0 note=59 velocity=122 time=52>, 7828], [<message note_off channel=0 note=47 velocity=113 time=2>, 7830], [<message note_off channel=0 note=54 velocity=122 time=2>, 7832], [<message note_off channel=0 note=66 velocity=122 time=10>, 7842], [<message note_off channel=3 note=63 velocity=113 time=70>, 7846], [<message note_off channel=0 note=63 velocity=123 time=12>, 7854], [<message note_off channel=0 note=71 velocity=122 time=8>, 7862], [<message note_off channel=3 note=71 velocity=113 time=16>, 7862], [<message note_off channel=3 note=59 velocity=113 time=8>, 7870], [<message note_on channel=0 note=46 velocity=117 time=10>, 7872], [<message note_on channel=0 note=53 velocity=123 time=0>, 7872], [<message note_on channel=0 note=58 velocity=123 time=0>, 7872], [<message note_on channel=0 note=62 velocity=123 time=0>, 7872], [<message note_on channel=0 note=65 velocity=123 time=0>, 7872], [<message note_on channel=0 note=70 velocity=123 time=0>, 7872], [<message note_on channel=2 note=70 velocity=116 time=96>, 7872], [<message note_on channel=3 note=58 velocity=113 time=2>, 7872], [<message note_on channel=3 note=65 velocity=113 time=0>, 7872], [<message note_on channel=3 note=70 velocity=113 time=0>, 7872], [<message note_off channel=2 note=71 velocity=114 time=6>, 7878], [<message note_off channel=0 note=70 velocity=123 time=54>, 7926], [<message note_off channel=0 note=62 velocity=123 time=4>, 7930], [<message note_off channel=3 note=70 velocity=113 time=66>, 7938], [<message note_off channel=0 note=58 velocity=123 time=12>, 7942], [<message note_off channel=0 note=53 velocity=123 time=0>, 7942], [<message note_off channel=0 note=65 velocity=123 time=2>, 7944], [<message note_off channel=2 note=70 velocity=116 time=66>, 7944], [<message note_off channel=3 note=65 velocity=113 time=14>, 7952], [<message note_off channel=3 note=58 velocity=113 time=8>, 7960], [<message note_off channel=0 note=46 velocity=117 time=18>, 7962], [<message note_on channel=0 note=45 velocity=120 time=102>, 8064], [<message note_on channel=0 note=52 velocity=123 time=0>, 8064], [<message note_on channel=0 note=57 velocity=123 time=0>, 8064], [<message note_on channel=0 note=61 velocity=113 time=0>, 8064], [<message note_on channel=0 note=64 velocity=123 time=0>, 8064], [<message note_on channel=0 note=69 velocity=117 time=0>, 8064], [<message note_on channel=2 note=69 velocity=111 time=120>, 8064], [<message note_on channel=3 note=57 velocity=113 time=104>, 8064], [<message note_on channel=3 note=64 velocity=113 time=0>, 8064], [<message note_on channel=3 note=69 velocity=113 time=0>, 8064], [<message note_off channel=3 note=69 velocity=113 time=64>, 8128], [<message note_off channel=0 note=69 velocity=117 time=66>, 8130], [<message note_off channel=0 note=61 velocity=113 time=0>, 8130], [<message note_off channel=3 note=57 velocity=113 time=2>, 8130], [<message note_off channel=0 note=57 velocity=123 time=2>, 8132], [<message note_off channel=0 note=45 velocity=120 time=4>, 8136], [<message note_off channel=3 note=64 velocity=113 time=8>, 8138], [<message note_off channel=0 note=64 velocity=123 time=4>, 8140], [<message note_off channel=2 note=69 velocity=111 time=76>, 8140], [<message note_off channel=0 note=52 velocity=123 time=8>, 8148], [<message note_on channel=0 note=45 velocity=117 time=12>, 8160], [<message note_on channel=0 note=52 velocity=117 time=0>, 8160], [<message note_on channel=0 note=57 velocity=122 time=0>, 8160], [<message note_on channel=0 note=61 velocity=123 time=0>, 8160], [<message note_on channel=0 note=64 velocity=123 time=0>, 8160], [<message note_on channel=0 note=69 velocity=120 time=0>, 8160], [<message note_on channel=2 note=69 velocity=118 time=20>, 8160], [<message note_on channel=3 note=57 velocity=113 time=22>, 8160], [<message note_on channel=3 note=64 velocity=113 time=0>, 8160], [<message note_on channel=3 note=69 velocity=113 time=0>, 8160], [<message note_off channel=0 note=45 velocity=117 time=36>, 8196], [<message note_off channel=0 note=64 velocity=123 time=6>, 8202], [<message note_off channel=0 note=57 velocity=122 time=8>, 8210], [<message note_off channel=0 note=52 velocity=117 time=12>, 8222], [<message note_off channel=0 note=69 velocity=120 time=4>, 8226], [<message note_off channel=0 note=61 velocity=123 time=8>, 8234], [<message note_off channel=3 note=69 velocity=113 time=90>, 8250], [<message note_off channel=3 note=57 velocity=113 time=0>, 8250], [<message note_off channel=3 note=64 velocity=113 time=4>, 8254], [<message note_on channel=0 note=46 velocity=118 time=22>, 8256], [<message note_on channel=0 note=53 velocity=123 time=0>, 8256], [<message note_on channel=0 note=58 velocity=123 time=0>, 8256], [<message note_on channel=0 note=62 velocity=123 time=0>, 8256], [<message note_on channel=0 note=65 velocity=123 time=0>, 8256], [<message note_on channel=0 note=70 velocity=123 time=0>, 8256], [<message note_off channel=2 note=69 velocity=118 time=96>, 8256], [<message note_on channel=2 note=70 velocity=117 time=0>, 8256], [<message note_on channel=3 note=58 velocity=113 time=2>, 8256], [<message note_on channel=3 note=65 velocity=113 time=0>, 8256], [<message note_on channel=3 note=70 velocity=113 time=0>, 8256], [<message note_off channel=0 note=62 velocity=123 time=58>, 8314], [<message note_off channel=0 note=46 velocity=118 time=18>, 8332], [<message note_off channel=0 note=65 velocity=123 time=2>, 8334], [<message note_off channel=0 note=53 velocity=123 time=2>, 8336], [<message note_off channel=3 note=65 velocity=113 time=80>, 8336], [<message note_off channel=0 note=70 velocity=123 time=4>, 8340], [<message note_off channel=3 note=58 velocity=113 time=6>, 8342], [<message note_off channel=2 note=70 velocity=117 time=88>, 8344], [<message note_off channel=0 note=58 velocity=123 time=8>, 8348], [<message note_off channel=3 note=70 velocity=113 time=12>, 8354], [<message note_on channel=0 note=47 velocity=119 time=100>, 8448], [<message note_on channel=0 note=54 velocity=121 time=0>, 8448], [<message note_on channel=0 note=59 velocity=123 time=0>, 8448], [<message note_on channel=0 note=63 velocity=122 time=0>, 8448], [<message note_on channel=0 note=66 velocity=119 time=0>, 8448], [<message note_on channel=0 note=71 velocity=123 time=0>, 8448], [<message note_on channel=2 note=71 velocity=110 time=104>, 8448], [<message note_on channel=3 note=59 velocity=113 time=94>, 8448], [<message note_on channel=3 note=66 velocity=113 time=0>, 8448], [<message note_on channel=3 note=71 velocity=113 time=0>, 8448], [<message note_off channel=0 note=63 velocity=122 time=58>, 8506], [<message note_off channel=3 note=59 velocity=113 time=60>, 8508], [<message note_off channel=0 note=71 velocity=123 time=8>, 8514], [<message note_off channel=0 note=59 velocity=123 time=0>, 8514], [<message note_off channel=0 note=47 velocity=119 time=4>, 8518], [<message note_off channel=3 note=71 velocity=113 time=12>, 8520], [<message note_off channel=3 note=66 velocity=113 time=4>, 8524], [<message note_off channel=2 note=71 velocity=110 time=78>, 8526], [<message note_off channel=0 note=66 velocity=119 time=10>, 8528], [<message note_on channel=0 note=47 velocity=117 time=16>, 8544], [<message note_on channel=0 note=59 velocity=123 time=0>, 8544], [<message note_on channel=0 note=63 velocity=121 time=0>, 8544], [<message note_on channel=0 note=66 velocity=119 time=0>, 8544], [<message note_on channel=0 note=71 velocity=123 time=0>, 8544], [<message note_on channel=2 note=71 velocity=118 time=18>, 8544], [<message note_on channel=3 note=59 velocity=113 time=20>, 8544], [<message note_on channel=3 note=66 velocity=113 time=0>, 8544], [<message note_on channel=3 note=71 velocity=113 time=0>, 8544], [<message note_off channel=0 note=59 velocity=123 time=50>, 8594], [<message note_off channel=0 note=47 velocity=117 time=0>, 8594], [<message note_off channel=0 note=66 velocity=119 time=6>, 8600], [<message note_off channel=0 note=54 velocity=121 time=0>, 8600], [<message note_off channel=0 note=63 velocity=121 time=8>, 8608], [<message note_off channel=0 note=71 velocity=123 time=12>, 8620], [<message note_off channel=3 note=66 velocity=113 time=90>, 8634], [<message note_off channel=3 note=71 velocity=113 time=4>, 8638], [<message note_off channel=3 note=59 velocity=113 time=0>, 8638], [<message note_on channel=0 note=46 velocity=18 time=20>, 8640], [<message note_on channel=0 note=53 velocity=121 time=0>, 8640], [<message note_on channel=0 note=58 velocity=123 time=0>, 8640], [<message note_on channel=0 note=62 velocity=123 time=0>, 8640], [<message note_on channel=0 note=65 velocity=123 time=0>, 8640], [<message note_on channel=0 note=70 velocity=121 time=0>, 8640], [<message note_off channel=2 note=71 velocity=118 time=96>, 8640], [<message note_on channel=2 note=70 velocity=117 time=0>, 8640], [<message note_on channel=3 note=58 velocity=113 time=2>, 8640], [<message note_on channel=3 note=65 velocity=113 time=0>, 8640], [<message note_on channel=3 note=70 velocity=113 time=0>, 8640], [<message note_off channel=0 note=62 velocity=123 time=58>, 8698], [<message note_off channel=0 note=70 velocity=121 time=14>, 8712], [<message note_off channel=0 note=53 velocity=121 time=16>, 8728], [<message note_off channel=3 note=70 velocity=113 time=92>, 8732], [<message note_off channel=0 note=58 velocity=123 time=6>, 8734], [<message note_off channel=0 note=65 velocity=123 time=4>, 8738], [<message note_off channel=3 note=65 velocity=113 time=6>, 8738], [<message note_off channel=3 note=58 velocity=113 time=2>, 8740], [<message note_off channel=0 note=46 velocity=18 time=12>, 8750], [<message note_off channel=2 note=70 velocity=117 time=110>, 8750], [<message note_on channel=0 note=45 velocity=117 time=82>, 8832], [<message note_on channel=0 note=52 velocity=121 time=0>, 8832], [<message note_on channel=0 note=57 velocity=120 time=0>, 8832], [<message note_on channel=0 note=61 velocity=122 time=0>, 8832], [<message note_on channel=0 note=64 velocity=123 time=0>, 8832], [<message note_on channel=0 note=69 velocity=117 time=0>, 8832], [<message note_on channel=2 note=69 velocity=115 time=82>, 8832], [<message note_on channel=3 note=57 velocity=113 time=92>, 8832], [<message note_on channel=3 note=64 velocity=113 time=0>, 8832], [<message note_on channel=3 note=69 velocity=113 time=0>, 8832], [<message note_off channel=0 note=61 velocity=122 time=50>, 8882], [<message note_off channel=0 note=57 velocity=120 time=8>, 8890], [<message note_off channel=0 note=69 velocity=117 time=6>, 8896], [<message note_off channel=0 note=64 velocity=123 time=2>, 8898], [<message note_off channel=3 note=57 velocity=113 time=72>, 8904], [<message note_off channel=2 note=69 velocity=115 time=74>, 8906], [<message note_off channel=3 note=69 velocity=113 time=22>, 8926], [<message note_off channel=3 note=64 velocity=113 time=0>, 8926], [<message note_on channel=0 note=57 velocity=116 time=30>, 8928], [<message note_on channel=0 note=61 velocity=120 time=0>, 8928], [<message note_on channel=0 note=64 velocity=119 time=0>, 8928], [<message note_on channel=0 note=69 velocity=116 time=0>, 8928], [<message note_on channel=2 note=69 velocity=115 time=22>, 8928], [<message note_on channel=3 note=57 velocity=113 time=2>, 8928], [<message note_off channel=0 note=45 velocity=117 time=26>, 8954], [<message note_off channel=0 note=64 velocity=119 time=12>, 8966], [<message note_off channel=0 note=52 velocity=121 time=14>, 8980], [<message note_off channel=0 note=57 velocity=116 time=2>, 8982], [<message note_off channel=2 note=69 velocity=115 time=56>, 8984], [<message note_off channel=0 note=69 velocity=116 time=26>, 9008], [<message note_off channel=0 note=61 velocity=120 time=0>, 9008], [<message note_off channel=3 note=57 velocity=113 time=94>, 9022], [<message note_on channel=0 note=46 velocity=112 time=16>, 9024], [<message note_on channel=0 note=53 velocity=122 time=0>, 9024], [<message note_on channel=0 note=58 velocity=122 time=0>, 9024], [<message note_on channel=0 note=62 velocity=121 time=0>, 9024], [<message note_on channel=0 note=65 velocity=122 time=0>, 9024], [<message note_on channel=0 note=70 velocity=122 time=0>, 9024], [<message note_on channel=2 note=70 velocity=113 time=40>, 9024], [<message note_on channel=3 note=58 velocity=113 time=2>, 9024], [<message note_on channel=3 note=65 velocity=113 time=0>, 9024], [<message note_on channel=3 note=70 velocity=113 time=0>, 9024], [<message note_off channel=3 note=70 velocity=113 time=78>, 9102], [<message note_off channel=3 note=65 velocity=113 time=20>, 9122], [<message note_off channel=3 note=58 velocity=113 time=10>, 9132], [<message note_off channel=0 note=62 velocity=121 time=128>, 9152], [<message note_off channel=0 note=58 velocity=122 time=10>, 9162], [<message note_off channel=0 note=46 velocity=112 time=34>, 9196], [<message note_off channel=0 note=65 velocity=122 time=14>, 9210], [<message note_off channel=0 note=53 velocity=122 time=0>, 9210], [<message note_on channel=0 note=51 velocity=123 time=6>, 9216], [<message note_on channel=0 note=58 velocity=123 time=0>, 9216], [<message note_on channel=0 note=63 velocity=122 time=0>, 9216], [<message note_on channel=0 note=67 velocity=123 time=0>, 9216], [<message note_on channel=3 note=63 velocity=113 time=84>, 9216], [<message note_on channel=3 note=67 velocity=113 time=0>, 9216], [<message note_on channel=3 note=70 velocity=113 time=0>, 9216], [<message note_off channel=0 note=70 velocity=122 time=10>, 9226], [<message note_off channel=2 note=70 velocity=113 time=240>, 9264], [<message note_off channel=0 note=63 velocity=122 time=54>, 9280], [<message note_on channel=0 note=63 velocity=118 time=32>, 9312], [<message note_on channel=2 note=67 velocity=76 time=48>, 9312], [<message note_off channel=0 note=67 velocity=123 time=26>, 9338], [<message note_off channel=0 note=58 velocity=123 time=12>, 9350], [<message note_off channel=2 note=67 velocity=76 time=70>, 9382], [<message note_on channel=0 note=58 velocity=123 time=58>, 9408], [<message note_on channel=0 note=67 velocity=122 time=0>, 9408], [<message note_on channel=0 note=70 velocity=122 time=0>, 9408], [<message note_on channel=2 note=67 velocity=117 time=26>, 9408], [<message note_off channel=0 note=63 velocity=118 time=10>, 9418], [<message note_off channel=0 note=51 velocity=123 time=4>, 9422], [<message note_off channel=2 note=67 velocity=117 time=80>, 9488], [<message note_off channel=0 note=70 velocity=122 time=74>, 9496], [<message note_on channel=0 note=51 velocity=122 time=8>, 9504], [<message note_on channel=0 note=63 velocity=118 time=0>, 9504], [<message note_on channel=2 note=67 velocity=118 time=16>, 9504], [<message note_off channel=0 note=58 velocity=123 time=6>, 9510], [<message note_off channel=0 note=63 velocity=118 time=78>, 9588], [<message note_off channel=3 note=63 velocity=113 time=376>, 9592], [<message note_off channel=3 note=67 velocity=113 time=2>, 9594], [<message note_off channel=0 note=67 velocity=122 time=10>, 9598], [<message note_off channel=3 note=70 velocity=113 time=4>, 9598], [<message note_on channel=0 note=50 velocity=121 time=2>, 9600], [<message note_on channel=0 note=58 velocity=121 time=0>, 9600], [<message note_on channel=0 note=62 velocity=122 time=0>, 9600], [<message note_on channel=0 note=65 velocity=123 time=0>, 9600], [<message note_on channel=2 note=65 velocity=115 time=96>, 9600], [<message note_on channel=3 note=62 velocity=113 time=2>, 9600], [<message note_on channel=3 note=65 velocity=113 time=0>, 9600], [<message note_off channel=0 note=51 velocity=122 time=4>, 9604], [<message note_off channel=2 note=67 velocity=118 time=24>, 9624], [<message note_off channel=0 note=62 velocity=122 time=58>, 9662], [<message note_on channel=0 note=62 velocity=121 time=34>, 9696], [<message note_off channel=0 note=65 velocity=123 time=18>, 9714], [<message note_off channel=0 note=58 velocity=121 time=34>, 9748], [<message note_off channel=2 note=65 velocity=115 time=166>, 9790], [<message note_on channel=0 note=58 velocity=122 time=44>, 9792], [<message note_on channel=0 note=65 velocity=123 time=0>, 9792], [<message note_on channel=0 note=70 velocity=120 time=0>, 9792], [<message note_on channel=2 note=70 velocity=112 time=2>, 9792], [<message note_off channel=0 note=50 velocity=121 time=2>, 9794], [<message note_off channel=0 note=62 velocity=121 time=10>, 9804], [<message note_off channel=3 note=65 velocity=113 time=238>, 9838], [<message note_off channel=3 note=62 velocity=113 time=0>, 9838], [<message note_on channel=3 note=70 velocity=113 time=2>, 9840], [<message note_on channel=0 note=50 velocity=120 time=84>, 9888], [<message note_on channel=0 note=62 velocity=121 time=0>, 9888], [<message note_off channel=0 note=58 velocity=122 time=8>, 9896], [<message note_off channel=0 note=65 velocity=123 time=2>, 9898], [<message note_off channel=0 note=62 velocity=121 time=32>, 9930], [<message note_off channel=0 note=70 velocity=120 time=42>, 9972], [<message note_off channel=3 note=70 velocity=113 time=142>, 9982], [<message note_on channel=0 note=49 velocity=122 time=12>, 9984], [<message note_on channel=0 note=58 velocity=123 time=0>, 9984], [<message note_on channel=0 note=61 velocity=123 time=0>, 9984], [<message note_on channel=0 note=64 velocity=123 time=0>, 9984], [<message note_on channel=0 note=67 velocity=123 time=0>, 9984], [<message note_on channel=2 note=64 velocity=115 time=192>, 9984], [<message note_on channel=3 note=61 velocity=113 time=2>, 9984], [<message note_on channel=3 note=64 velocity=113 time=0>, 9984], [<message note_off channel=2 note=70 velocity=112 time=8>, 9992], [<message note_off channel=0 note=50 velocity=120 time=10>, 9994], [<message note_off channel=0 note=61 velocity=123 time=48>, 10042], [<message note_off channel=2 note=64 velocity=115 time=74>, 10066], [<message note_off channel=3 note=64 velocity=113 time=94>, 10078], [<message note_off channel=3 note=61 velocity=113 time=0>, 10078], [<message note_on channel=0 note=61 velocity=120 time=38>, 10080], [<message note_on channel=2 note=64 velocity=117 time=14>, 10080], [<message note_on channel=3 note=67 velocity=113 time=2>, 10080], [<message note_off channel=0 note=64 velocity=123 time=22>, 10102], [<message note_off channel=0 note=67 velocity=123 time=2>, 10104], [<message note_off channel=2 note=64 velocity=117 time=78>, 10158], [<message note_off channel=0 note=58 velocity=123 time=60>, 10164], [<message note_off channel=3 note=67 velocity=113 time=94>, 10174], [<message note_on channel=0 note=64 velocity=123 time=12>, 10176], [<message note_on channel=0 note=67 velocity=122 time=0>, 10176], [<message note_on channel=2 note=64 velocity=117 time=18>, 10176], [<message note_on channel=3 note=70 velocity=113 time=2>, 10176], [<message note_off channel=0 note=61 velocity=120 time=72>, 10248], [<message note_off channel=2 note=64 velocity=117 time=82>, 10258], [<message note_off channel=0 note=64 velocity=123 time=18>, 10266], [<message note_on channel=0 note=58 velocity=122 time=6>, 10272], [<message note_on channel=0 note=61 velocity=118 time=0>, 10272], [<message note_on channel=0 note=70 velocity=122 time=0>, 10272], [<message note_on channel=2 note=65 velocity=110 time=14>, 10272], [<message note_off channel=0 note=67 velocity=122 time=70>, 10342], [<message note_off channel=0 note=58 velocity=122 time=2>, 10344], [<message note_off channel=0 note=61 velocity=118 time=4>, 10348], [<message note_off channel=0 note=70 velocity=122 time=8>, 10356], [<message note_off channel=2 note=65 velocity=110 time=94>, 10366], [<message note_off channel=3 note=70 velocity=113 time=190>, 10366], [<message note_on channel=0 note=48 velocity=117 time=12>, 10368], [<message note_on channel=0 note=57 velocity=123 time=0>, 10368], [<message note_on channel=0 note=60 velocity=123 time=0>, 10368], [<message note_on channel=0 note=65 velocity=123 time=0>, 10368], [<message note_on channel=0 note=69 velocity=123 time=0>, 10368], [<message note_on channel=2 note=65 velocity=117 time=2>, 10368], [<message note_on channel=3 note=60 velocity=113 time=2>, 10368], [<message note_on channel=3 note=65 velocity=113 time=0>, 10368], [<message note_on channel=3 note=69 velocity=113 time=0>, 10368], [<message note_off channel=0 note=49 velocity=122 time=18>, 10386], [<message note_off channel=0 note=60 velocity=123 time=40>, 10426], [<message note_on channel=0 note=60 velocity=112 time=38>, 10464], [<message note_off channel=0 note=65 velocity=123 time=26>, 10490], [<message note_off channel=0 note=69 velocity=123 time=6>, 10496], [<message note_off channel=3 note=69 velocity=113 time=190>, 10558], [<message note_off channel=3 note=65 velocity=113 time=0>, 10558], [<message note_off channel=3 note=60 velocity=113 time=0>, 10558], [<message note_on channel=0 note=65 velocity=123 time=64>, 10560], [<message note_on channel=0 note=69 velocity=122 time=0>, 10560], [<message note_on channel=2 note=60 velocity=113 time=192>, 10560], [<message note_on channel=3 note=63 velocity=113 time=2>, 10560], [<message note_off channel=2 note=65 velocity=117 time=12>, 10572], [<message note_off channel=0 note=60 velocity=112 time=26>, 10586], [<message note_off channel=0 note=57 velocity=123 time=46>, 10632], [<message note_off channel=2 note=60 velocity=113 time=80>, 10652], [<message note_on channel=0 note=60 velocity=117 time=24>, 10656], [<message note_on channel=2 note=63 velocity=110 time=4>, 10656], [<message note_off channel=0 note=48 velocity=117 time=6>, 10662], [<message note_off channel=0 note=65 velocity=123 time=14>, 10676], [<message note_off channel=3 note=63 velocity=113 time=190>, 10750], [<message note_on channel=0 note=41 velocity=120 time=76>, 10752], [<message note_on channel=0 note=63 velocity=123 time=0>, 10752], [<message note_on channel=0 note=67 velocity=123 time=0>, 10752], [<message note_on channel=0 note=72 velocity=122 time=0>, 10752], [<message note_on channel=2 note=65 velocity=103 time=96>, 10752], [<message note_on channel=2 note=69 velocity=104 time=0>, 10752], [<message note_on channel=3 note=72 velocity=113 time=2>, 10752], [<message note_on channel=0 note=48 velocity=119 time=96>, 10848], [<message note_on channel=0 note=57 velocity=123 time=96>, 10944], [<message note_off channel=0 note=60 velocity=117 time=20>, 10964], [<message note_off channel=0 note=69 velocity=122 time=76>, 11040], [<message note_on channel=0 note=60 velocity=119 time=0>, 11040], [<message note_off channel=0 note=63 velocity=123 time=60>, 11100], [<message note_off channel=0 note=72 velocity=122 time=18>, 11118], [<message note_off channel=0 note=67 velocity=123 time=10>, 11128], [<message note_on channel=0 note=63 velocity=18 time=8>, 11136], [<message note_on channel=0 note=69 velocity=117 time=0>, 11136], [<message note_on channel=0 note=72 velocity=121 time=0>, 11136], [<message note_off channel=0 note=69 velocity=117 time=8>, 11144], [<message note_off channel=2 note=65 velocity=103 time=408>, 11160], [<message note_off channel=3 note=72 velocity=113 time=408>, 11160], [<message note_off channel=2 note=69 velocity=104 time=6>, 11166], [<message note_off channel=2 note=63 velocity=110 time=18>, 11184], [<message note_off channel=0 note=57 velocity=123 time=110>, 11254], [<message note_off channel=0 note=60 velocity=119 time=18>, 11272], [<message note_off channel=0 note=72 velocity=121 time=16>, 11288], [<message note_off channel=0 note=41 velocity=120 time=28>, 11316], [<message note_off channel=0 note=63 velocity=18 time=2>, 11318], [<message note_on channel=0 note=57 velocity=122 time=10>, 11328], [<message note_on channel=2 note=57 velocity=98 time=144>, 11328], [<message note_on channel=3 note=57 velocity=113 time=168>, 11328], [<message note_off channel=0 note=48 velocity=119 time=2>, 11330], [<message note_off channel=0 note=57 velocity=122 time=174>, 11504], [<message note_off channel=3 note=57 velocity=113 time=190>, 11518], [<message note_on channel=0 note=34 velocity=121 time=16>, 11520], [<message note_on channel=0 note=46 velocity=123 time=0>, 11520], [<message note_on channel=0 note=58 velocity=119 time=0>, 11520], [<message note_on channel=2 note=58 velocity=89 time=192>, 11520], [<message note_on channel=3 note=58 velocity=113 time=2>, 11520], [<message note_off channel=2 note=57 velocity=98 time=6>, 11526], [<message note_on channel=0 note=53 velocity=115 time=96>, 11616], [<message note_off channel=0 note=58 velocity=119 time=34>, 11650], [<message note_on channel=0 note=58 velocity=117 time=62>, 11712], [<message note_on channel=0 note=62 velocity=115 time=96>, 11808], [<message note_on channel=0 note=67 velocity=116 time=96>, 11904], [<message note_on channel=0 note=79 velocity=116 time=0>, 11904], [<message note_off channel=0 note=53 velocity=115 time=30>, 11934], [<message note_on channel=0 note=53 velocity=101 time=66>, 12000], [<message note_on channel=0 note=65 velocity=117 time=96>, 12096], [<message note_on channel=0 note=77 velocity=118 time=0>, 12096], [<message note_off channel=0 note=53 velocity=101 time=12>, 12108], [<message note_off channel=0 note=62 velocity=115 time=22>, 12130], [<message note_on channel=0 note=53 velocity=107 time=62>, 12192], [<message note_off channel=0 note=58 velocity=117 time=6>, 12198], [<message note_off channel=0 note=34 velocity=121 time=36>, 12234], [<message note_off channel=0 note=65 velocity=117 time=36>, 12270], [<message note_off channel=0 note=77 velocity=118 time=8>, 12278], [<message note_on channel=0 note=34 velocity=123 time=10>, 12288], [<message note_on channel=0 note=58 velocity=118 time=0>, 12288], [<message note_on channel=0 note=62 velocity=123 time=0>, 12288], [<message note_off channel=0 note=53 velocity=107 time=12>, 12300], [<message note_off channel=0 note=79 velocity=116 time=6>, 12306], [<message note_on channel=0 note=53 velocity=104 time=78>, 12384], [<message note_off channel=0 note=62 velocity=123 time=16>, 12400], [<message note_off channel=0 note=58 velocity=118 time=2>, 12402], [<message note_on channel=0 note=58 velocity=113 time=78>, 12480], [<message note_on channel=0 note=62 velocity=116 time=96>, 12576], [<message note_off channel=0 note=67 velocity=116 time=8>, 12584], [<message note_on channel=0 note=67 velocity=116 time=88>, 12672], [<message note_on channel=0 note=79 velocity=116 time=0>, 12672], [<message note_off channel=0 note=53 velocity=104 time=22>, 12694], [<message note_on channel=0 note=53 velocity=108 time=74>, 12768], [<message note_off channel=0 note=62 velocity=116 time=30>, 12798], [<message note_on channel=0 note=65 velocity=118 time=66>, 12864], [<message note_on channel=0 note=77 velocity=118 time=0>, 12864], [<message note_off channel=0 note=53 velocity=108 time=24>, 12888], [<message note_off channel=2 note=58 velocity=89 time=1418>, 12944], [<message note_off channel=3 note=58 velocity=113 time=1428>, 12948], [<message note_off channel=0 note=58 velocity=113 time=68>, 12956], [<message note_on channel=0 note=53 velocity=115 time=4>, 12960], [<message note_off channel=0 note=34 velocity=123 time=26>, 12986], [<message note_off channel=0 note=46 velocity=123 time=2>, 12988], [<message note_off channel=0 note=77 velocity=118 time=58>, 13046], [<message note_off channel=0 note=65 velocity=118 time=0>, 13046], [<message note_on channel=5 note=72 velocity=121 time=12806>, 13056], [<message note_on channel=5 note=74 velocity=119 time=0>, 13056], [<message note_on channel=0 note=34 velocity=123 time=10>, 13056], [<message note_on channel=0 note=46 velocity=123 time=0>, 13056], [<message note_on channel=0 note=58 velocity=122 time=0>, 13056], [<message note_on channel=0 note=62 velocity=122 time=0>, 13056], [<message note_off channel=0 note=53 velocity=115 time=6>, 13062], [<message note_off channel=0 note=79 velocity=116 time=12>, 13074], [<message note_off channel=0 note=67 velocity=116 time=0>, 13074], [<message note_off channel=5 note=72 velocity=121 time=22>, 13078], [<message note_off channel=0 note=58 velocity=122 time=64>, 13138], [<message note_on channel=0 note=53 velocity=113 time=14>, 13152], [<message note_on channel=0 note=58 velocity=115 time=96>, 13248], [<message note_off channel=0 note=62 velocity=122 time=2>, 13250], [<message note_on channel=0 note=62 velocity=115 time=94>, 13344], [<message note_on channel=0 note=67 velocity=117 time=96>, 13440], [<message note_on channel=0 note=79 velocity=116 time=0>, 13440], [<message note_off channel=0 note=53 velocity=113 time=10>, 13450], [<message note_on channel=0 note=53 velocity=115 time=86>, 13536], [<message note_on channel=0 note=65 velocity=120 time=96>, 13632], [<message note_on channel=0 note=77 velocity=118 time=0>, 13632], [<message note_off channel=0 note=62 velocity=115 time=8>, 13640], [<message note_off channel=0 note=53 velocity=115 time=46>, 13686], [<message note_off channel=5 note=74 velocity=119 time=638>, 13716], [<message note_on channel=5 note=70 velocity=121 time=12>, 13728], [<message note_on channel=0 note=53 velocity=114 time=42>, 13728], [<message note_off channel=0 note=58 velocity=115 time=6>, 13734], [<message note_off channel=0 note=77 velocity=118 time=80>, 13814], [<message note_off channel=0 note=46 velocity=123 time=6>, 13820], [<message note_off channel=5 note=70 velocity=121 time=96>, 13824], [<message note_on channel=5 note=72 velocity=122 time=0>, 13824], [<message note_on channel=0 note=43 velocity=122 time=4>, 13824], [<message note_on channel=0 note=58 velocity=120 time=0>, 13824], [<message note_on channel=0 note=62 velocity=123 time=0>, 13824], [<message note_off channel=0 note=34 velocity=123 time=2>, 13826], [<message note_off channel=0 note=53 velocity=114 time=2>, 13828], [<message note_off channel=0 note=65 velocity=120 time=4>, 13832], [<message note_off channel=0 note=67 velocity=117 time=8>, 13840], [<message note_off channel=0 note=79 velocity=116 time=2>, 13842], [<message note_off channel=5 note=72 velocity=122 time=90>, 13914], [<message note_on channel=5 note=74 velocity=117 time=6>, 13920], [<message note_on channel=0 note=55 velocity=116 time=78>, 13920], [<message note_off channel=0 note=58 velocity=120 time=14>, 13934], [<message note_on channel=5 note=73 velocity=118 time=48>, 13968], [<message note_off channel=5 note=73 velocity=118 time=36>, 14004], [<message note_on channel=0 note=58 velocity=117 time=82>, 14016], [<message note_off channel=0 note=62 velocity=123 time=20>, 14036], [<message note_on channel=0 note=62 velocity=118 time=76>, 14112], [<message note_on channel=0 note=69 velocity=117 time=96>, 14208], [<message note_on channel=0 note=81 velocity=116 time=0>, 14208], [<message note_off channel=0 note=55 velocity=116 time=42>, 14250], [<message note_on channel=0 note=55 velocity=117 time=54>, 14304], [<message note_off channel=0 note=69 velocity=117 time=8>, 14312], [<message note_on channel=0 note=67 velocity=121 time=88>, 14400], [<message note_on channel=0 note=79 velocity=118 time=0>, 14400], [<message note_off channel=0 note=62 velocity=118 time=4>, 14404], [<message note_off channel=5 note=74 velocity=117 time=450>, 14454], [<message note_on channel=5 note=74 velocity=123 time=42>, 14496], [<message note_on channel=0 note=62 velocity=117 time=92>, 14496], [<message note_off channel=0 note=58 velocity=117 time=22>, 14518], [<message note_off channel=0 note=62 velocity=117 time=10>, 14528], [<message note_off channel=0 note=79 velocity=118 time=54>, 14582], [<message note_off channel=0 note=55 velocity=117 time=2>, 14584], [<message note_off channel=5 note=74 velocity=123 time=94>, 14590], [<message note_on channel=5 note=75 velocity=123 time=2>, 14592], [<message note_on channel=0 note=36 velocity=123 time=8>, 14592], [<message note_on channel=0 note=48 velocity=123 time=0>, 14592], [<message note_on channel=0 note=60 velocity=123 time=0>, 14592], [<message note_on channel=0 note=63 velocity=123 time=0>, 14592], [<message note_off channel=0 note=43 velocity=122 time=4>, 14596], [<message note_off channel=0 note=81 velocity=116 time=14>, 14610], [<message note_off channel=0 note=67 velocity=121 time=2>, 14612], [<message note_off channel=0 note=60 velocity=123 time=68>, 14680], [<message note_off channel=5 note=75 velocity=123 time=96>, 14688], [<message note_on channel=5 note=77 velocity=122 time=0>, 14688], [<message note_on channel=0 note=60 velocity=119 time=8>, 14688], [<message note_off channel=0 note=63 velocity=123 time=40>, 14728], [<message note_on channel=5 note=75 velocity=121 time=48>, 14736], [<message note_off channel=5 note=77 velocity=122 time=2>, 14738], [<message note_on channel=0 note=63 velocity=117 time=56>, 14784], [<message note_off channel=5 note=75 velocity=121 time=94>, 14832], [<message note_on channel=5 note=74 velocity=120 time=0>, 14832], [<message note_on channel=0 note=67 velocity=109 time=96>, 14880], [<message note_off channel=5 note=74 velocity=120 time=84>, 14916], [<message note_on channel=5 note=72 velocity=120 time=12>, 14928], [<message note_on channel=0 note=74 velocity=116 time=96>, 14976], [<message note_on channel=0 note=86 velocity=116 time=0>, 14976], [<message note_off channel=0 note=60 velocity=119 time=28>, 15004], [<message note_on channel=0 note=60 velocity=119 time=68>, 15072], [<message note_off channel=0 note=74 velocity=116 time=14>, 15086], [<message note_on channel=0 note=72 velocity=121 time=82>, 15168], [<message note_on channel=0 note=84 velocity=118 time=0>, 15168], [<message note_off channel=0 note=67 velocity=109 time=16>, 15184], [<message note_off channel=0 note=63 velocity=117 time=46>, 15230], [<message note_off channel=5 note=72 velocity=120 time=310>, 15238], [<message note_on channel=5 note=72 velocity=120 time=26>, 15264], [<message note_on channel=0 note=63 velocity=121 time=34>, 15264], [<message note_off channel=0 note=48 velocity=123 time=40>, 15304], [<message note_on channel=5 note=74 velocity=122 time=48>, 15312], [<message note_off channel=0 note=36 velocity=123 time=10>, 15314], [<message note_off channel=5 note=72 velocity=120 time=16>, 15328], [<message note_off channel=0 note=84 velocity=118 time=36>, 15350], [<message note_on channel=5 note=75 velocity=121 time=32>, 15360], [<message note_on channel=0 note=36 velocity=123 time=10>, 15360], [<message note_on channel=0 note=48 velocity=123 time=0>, 15360], [<message note_on channel=0 note=67 velocity=123 time=0>, 15360], [<message note_off channel=0 note=60 velocity=119 time=12>, 15372], [<message note_off channel=0 note=86 velocity=116 time=6>, 15378], [<message note_off channel=5 note=74 velocity=122 time=22>, 15382], [<message note_off channel=0 note=63 velocity=121 time=68>, 15446], [<message note_off channel=5 note=75 velocity=121 time=70>, 15452], [<message note_on channel=5 note=77 velocity=121 time=4>, 15456], [<message note_on channel=0 note=60 velocity=114 time=10>, 15456], [<message note_off channel=0 note=36 velocity=123 time=16>, 15472], [<message note_on channel=5 note=75 velocity=120 time=48>, 15504], [<message note_on channel=0 note=36 velocity=99 time=32>, 15504], [<message note_off channel=5 note=77 velocity=121 time=20>, 15524], [<message note_off channel=0 note=67 velocity=123 time=38>, 15542], [<message note_on channel=0 note=63 velocity=118 time=10>, 15552], [<message note_off channel=0 note=36 velocity=99 time=10>, 15562], [<message note_off channel=5 note=75 velocity=120 time=60>, 15584], [<message note_on channel=5 note=74 velocity=120 time=16>, 15600], [<message note_off channel=0 note=60 velocity=114 time=80>, 15642], [<message note_on channel=5 note=72 velocity=118 time=48>, 15648], [<message note_off channel=0 note=63 velocity=118 time=6>, 15648], [<message note_on channel=0 note=67 velocity=117 time=0>, 15648], [<message note_off channel=5 note=74 velocity=120 time=28>, 15676], [<message note_off channel=0 note=72 velocity=121 time=80>, 15728], [<message note_off channel=0 note=48 velocity=123 time=8>, 15736], [<message note_off channel=0 note=67 velocity=117 time=2>, 15738], [<message note_on channel=0 note=41 velocity=113 time=6>, 15744], [<message note_on channel=0 note=53 velocity=121 time=0>, 15744], [<message note_on channel=0 note=69 velocity=123 time=0>, 15744], [<message note_on channel=0 note=63 velocity=117 time=96>, 15840], [<message note_on channel=0 note=65 velocity=119 time=96>, 15936], [<message note_off channel=0 note=63 velocity=117 time=84>, 16020], [<message note_off channel=0 note=69 velocity=123 time=0>, 16020], [<message note_on channel=0 note=72 velocity=119 time=12>, 16032], [<message note_off channel=0 note=65 velocity=119 time=10>, 16042], [<message note_off channel=0 note=72 velocity=119 time=18>, 16060], [<message note_off channel=5 note=72 velocity=118 time=430>, 16106], [<message note_on channel=5 note=73 velocity=122 time=22>, 16128], [<message note_on channel=5 note=74 velocity=123 time=0>, 16128], [<message note_off channel=0 note=53 velocity=121 time=68>, 16128], [<message note_on channel=0 note=46 velocity=121 time=0>, 16128], [<message note_on channel=0 note=58 velocity=119 time=0>, 16128], [<message note_on channel=0 note=62 velocity=122 time=0>, 16128], [<message note_off channel=0 note=41 velocity=113 time=8>, 16136], [<message note_off channel=5 note=73 velocity=122 time=10>, 16138], [<message note_off channel=5 note=74 velocity=123 time=66>, 16204], [<message note_on channel=5 note=74 velocity=122 time=20>, 16224], [<message note_on channel=0 note=53 velocity=113 time=88>, 16224], [<message note_off channel=0 note=58 velocity=119 time=18>, 16242], [<message note_on channel=0 note=58 velocity=118 time=78>, 16320], [<message note_off channel=0 note=62 velocity=122 time=20>, 16340], [<message note_on channel=5 note=72 velocity=120 time=192>, 16416], [<message note_on channel=0 note=62 velocity=120 time=76>, 16416], [<message note_off channel=5 note=74 velocity=122 time=12>, 16428], [<message note_off channel=5 note=72 velocity=120 time=34>, 16462], [<message note_on channel=5 note=70 velocity=120 time=2>, 16464], [<message note_off channel=5 note=70 velocity=120 time=42>, 16506], [<message note_on channel=5 note=72 velocity=118 time=6>, 16512], [<message note_on channel=0 note=67 velocity=120 time=96>, 16512], [<message note_on channel=0 note=79 velocity=116 time=0>, 16512], [<message note_off channel=0 note=53 velocity=113 time=14>, 16526], [<message note_on channel=5 note=74 velocity=118 time=48>, 16560], [<message note_off channel=5 note=72 velocity=118 time=16>, 16576], [<message note_on channel=0 note=53 velocity=116 time=82>, 16608], [<message note_off channel=5 note=74 velocity=118 time=42>, 16618], [<message note_off channel=0 note=62 velocity=120 time=92>, 16700], [<message note_on channel=0 note=65 velocity=119 time=4>, 16704], [<message note_on channel=0 note=77 velocity=118 time=0>, 16704], [<message note_off channel=0 note=53 velocity=116 time=12>, 16716], [<message note_on channel=5 note=77 velocity=123 time=182>, 16800], [<message note_on channel=0 note=53 velocity=112 time=84>, 16800], [<message note_off channel=0 note=58 velocity=118 time=4>, 16804], [<message note_off channel=5 note=77 velocity=123 time=76>, 16876], [<message note_off channel=0 note=53 velocity=112 time=82>, 16886], [<message note_off channel=0 note=77 velocity=118 time=0>, 16886], [<message note_off channel=0 note=65 velocity=119 time=6>, 16892], [<message note_on channel=5 note=80 velocity=122 time=20>, 16896], [<message note_on channel=5 note=81 velocity=122 time=0>, 16896], [<message note_on channel=0 note=43 velocity=120 time=4>, 16896], [<message note_on channel=0 note=58 velocity=122 time=0>, 16896], [<message note_on channel=0 note=62 velocity=123 time=0>, 16896], [<message note_off channel=0 note=46 velocity=121 time=2>, 16898], [<message note_off channel=5 note=80 velocity=122 time=14>, 16910], [<message note_off channel=0 note=79 velocity=116 time=16>, 16914], [<message note_off channel=0 note=67 velocity=120 time=0>, 16914], [<message note_on channel=0 note=55 velocity=117 time=78>, 16992], [<message note_off channel=0 note=58 velocity=122 time=16>, 17008], [<message note_off channel=5 note=81 velocity=122 time=120>, 17030], [<message note_on channel=5 note=79 velocity=120 time=10>, 17040], [<message note_on channel=0 note=58 velocity=121 time=80>, 17088], [<message note_off channel=0 note=62 velocity=123 time=34>, 17122], [<message note_on channel=0 note=62 velocity=120 time=62>, 17184], [<message note_on channel=0 note=69 velocity=117 time=96>, 17280], [<message note_on channel=0 note=81 velocity=116 time=0>, 17280], [<message note_off channel=0 note=55 velocity=117 time=10>, 17290], [<message note_on channel=0 note=55 velocity=121 time=86>, 17376], [<message note_off channel=0 note=69 velocity=117 time=6>, 17382], [<message note_on channel=0 note=67 velocity=120 time=90>, 17472], [<message note_on channel=0 note=79 velocity=118 time=0>, 17472], [<message note_off channel=0 note=55 velocity=121 time=8>, 17480], [<message note_off channel=0 note=62 velocity=120 time=26>, 17506], [<message note_off channel=0 note=58 velocity=121 time=46>, 17552], [<message note_on channel=5 note=78 velocity=122 time=528>, 17568], [<message note_on channel=0 note=55 velocity=117 time=16>, 17568], [<message note_off channel=5 note=79 velocity=120 time=8>, 17576], [<message note_off channel=5 note=78 velocity=122 time=32>, 17608], [<message note_on channel=5 note=79 velocity=122 time=8>, 17616], [<message note_off channel=0 note=55 velocity=117 time=86>, 17654], [<message note_off channel=0 note=79 velocity=118 time=0>, 17654], [<message note_off channel=5 note=79 velocity=122 time=48>, 17664], [<message note_on channel=5 note=82 velocity=123 time=0>, 17664], [<message note_on channel=0 note=48 velocity=123 time=10>, 17664], [<message note_on channel=0 note=60 velocity=123 time=0>, 17664], [<message note_on channel=0 note=63 velocity=122 time=0>, 17664], [<message note_off channel=0 note=43 velocity=120 time=4>, 17668], [<message note_off channel=0 note=81 velocity=116 time=14>, 17682], [<message note_off channel=5 note=82 velocity=123 time=80>, 17744], [<message note_on channel=5 note=82 velocity=122 time=16>, 17760], [<message note_on channel=0 note=55 velocity=117 time=78>, 17760], [<message note_off channel=0 note=60 velocity=123 time=16>, 17776], [<message note_off channel=0 note=63 velocity=122 time=6>, 17782], [<message note_off channel=5 note=82 velocity=122 time=44>, 17804], [<message note_on channel=5 note=82 velocity=122 time=4>, 17808], [<message note_on channel=0 note=60 velocity=118 time=74>, 17856], [<message note_off channel=0 note=55 velocity=117 time=90>, 17946], [<message note_on channel=0 note=47 velocity=122 time=6>, 17952], [<message note_on channel=0 note=55 velocity=119 time=0>, 17952], [<message note_on channel=0 note=63 velocity=121 time=0>, 17952], [<message note_off channel=0 note=60 velocity=118 time=26>, 17978], [<message note_off channel=5 note=82 velocity=122 time=188>, 17996], [<message note_on channel=5 note=81 velocity=120 time=4>, 18000], [<message note_on channel=5 note=82 velocity=119 time=0>, 18000], [<message note_off channel=0 note=48 velocity=123 time=32>, 18010], [<message note_off channel=0 note=47 velocity=122 time=2>, 18012], [<message note_off channel=0 note=63 velocity=121 time=2>, 18014], [<message note_off channel=5 note=81 velocity=120 time=18>, 18018], [<message note_off channel=0 note=55 velocity=119 time=26>, 18040], [<message note_on channel=0 note=46 velocity=123 time=8>, 18048], [<message note_on channel=0 note=58 velocity=123 time=0>, 18048], [<message note_on channel=0 note=63 velocity=122 time=0>, 18048], [<message note_off channel=0 note=67 velocity=120 time=18>, 18066], [<message note_on channel=0 note=67 velocity=18 time=30>, 18096], [<message note_off channel=0 note=58 velocity=123 time=44>, 18140], [<message note_off channel=5 note=82 velocity=119 time=124>, 18142], [<message note_on channel=5 note=79 velocity=123 time=2>, 18144], [<message note_on channel=0 note=55 velocity=117 time=4>, 18144], [<message note_off channel=0 note=63 velocity=122 time=18>, 18162], [<message note_off channel=5 note=79 velocity=123 time=86>, 18230], [<message note_off channel=0 note=46 velocity=123 time=70>, 18232], [<message note_on channel=5 note=74 velocity=123 time=10>, 18240], [<message note_on channel=5 note=75 velocity=123 time=0>, 18240], [<message note_on channel=0 note=45 velocity=123 time=8>, 18240], [<message note_on channel=0 note=57 velocity=123 time=0>, 18240], [<message note_on channel=0 note=63 velocity=123 time=0>, 18240], [<message note_off channel=0 note=67 velocity=18 time=10>, 18250], [<message note_off channel=0 note=55 velocity=117 time=4>, 18254], [<message note_off channel=5 note=75 velocity=123 time=24>, 18264], [<message note_off channel=0 note=57 velocity=123 time=78>, 18332], [<message note_on channel=5 note=72 velocity=123 time=72>, 18336], [<message note_on channel=0 note=55 velocity=118 time=4>, 18336], [<message note_off channel=5 note=74 velocity=123 time=32>, 18368], [<message note_off channel=0 note=63 velocity=123 time=38>, 18374], [<message note_off channel=0 note=55 velocity=118 time=58>, 18432], [<message note_on channel=0 note=44 velocity=123 time=0>, 18432], [<message note_on channel=0 note=58 velocity=123 time=0>, 18432], [<message note_on channel=0 note=63 velocity=123 time=0>, 18432], [<message note_off channel=0 note=45 velocity=123 time=2>, 18434], [<message note_off channel=0 note=58 velocity=123 time=94>, 18528], [<message note_on channel=0 note=56 velocity=120 time=0>, 18528], [<message note_off channel=0 note=63 velocity=123 time=48>, 18576], [<message note_off channel=0 note=56 velocity=120 time=38>, 18614], [<message note_on channel=9 note=35 velocity=111 time=18332>, 18622], [<message note_on channel=9 note=45 velocity=111 time=0>, 18622], [<message note_on channel=0 note=60 velocity=121 time=10>, 18624], [<message note_on channel=0 note=63 velocity=120 time=0>, 18624], [<message note_off channel=9 note=35 velocity=111 time=12>, 18634], [<message note_off channel=9 note=45 velocity=111 time=8>, 18642], [<message note_on channel=9 note=35 velocity=113 time=28>, 18670], [<message note_on channel=9 note=45 velocity=113 time=0>, 18670], [<message note_off channel=9 note=35 velocity=113 time=12>, 18682], [<message note_off channel=9 note=45 velocity=113 time=6>, 18688], [<message note_on channel=9 note=35 velocity=114 time=30>, 18718], [<message note_on channel=9 note=45 velocity=114 time=0>, 18718], [<message note_on channel=0 note=56 velocity=116 time=96>, 18720], [<message note_off channel=9 note=35 velocity=114 time=12>, 18730], [<message note_off channel=9 note=45 velocity=114 time=8>, 18738], [<message note_off channel=0 note=63 velocity=120 time=26>, 18746], [<message note_on channel=9 note=35 velocity=115 time=28>, 18766], [<message note_on channel=9 note=45 velocity=115 time=0>, 18766], [<message note_off channel=9 note=45 velocity=115 time=20>, 18786], [<message note_off channel=9 note=35 velocity=115 time=2>, 18788], [<message note_off channel=0 note=44 velocity=123 time=60>, 18806], [<message note_off channel=0 note=56 velocity=116 time=4>, 18810], [<message note_on channel=9 note=35 velocity=116 time=26>, 18814], [<message note_on channel=9 note=45 velocity=116 time=0>, 18814], [<message note_off channel=0 note=60 velocity=121 time=6>, 18816], [<message note_on channel=0 note=43 velocity=122 time=0>, 18816], [<message note_on channel=0 note=58 velocity=123 time=0>, 18816], [<message note_on channel=0 note=63 velocity=123 time=0>, 18816], [<message note_off channel=5 note=72 velocity=123 time=456>, 18824], [<message note_off channel=9 note=45 velocity=116 time=20>, 18834], [<message note_off channel=9 note=35 velocity=116 time=2>, 18836], [<message note_on channel=9 note=35 velocity=117 time=26>, 18862], [<message note_on channel=9 note=45 velocity=117 time=0>, 18862], [<message note_off channel=9 note=45 velocity=117 time=18>, 18880], [<message note_off channel=9 note=35 velocity=117 time=0>, 18880], [<message note_on channel=9 note=35 velocity=118 time=30>, 18910], [<message note_on channel=9 note=45 velocity=118 time=0>, 18910], [<message note_on channel=0 note=55 velocity=113 time=96>, 18912], [<message note_off channel=0 note=58 velocity=123 time=2>, 18914], [<message note_off channel=9 note=45 velocity=118 time=20>, 18930], [<message note_off channel=9 note=35 velocity=118 time=0>, 18930], [<message note_on channel=9 note=35 velocity=119 time=28>, 18958], [<message note_on channel=9 note=45 velocity=119 time=0>, 18958], [<message note_off channel=9 note=45 velocity=119 time=20>, 18978], [<message note_off channel=9 note=35 velocity=119 time=0>, 18978], [<message note_off channel=0 note=55 velocity=113 time=66>, 18980], [<message note_off channel=0 note=63 velocity=123 time=0>, 18980], [<message note_on channel=9 note=35 velocity=121 time=28>, 19006], [<message note_on channel=9 note=43 velocity=121 time=0>, 19006], [<message note_on channel=0 note=41 velocity=122 time=28>, 19008], [<message note_on channel=0 note=56 velocity=123 time=0>, 19008], [<message note_on channel=0 note=63 velocity=123 time=0>, 19008], [<message note_off channel=0 note=43 velocity=122 time=8>, 19016], [<message note_off channel=9 note=43 velocity=121 time=20>, 19026], [<message note_off channel=9 note=35 velocity=121 time=0>, 19026], [<message note_on channel=9 note=35 velocity=122 time=28>, 19054], [<message note_on channel=9 note=43 velocity=122 time=0>, 19054], [<message note_off channel=9 note=43 velocity=122 time=20>, 19074], [<message note_off channel=9 note=35 velocity=122 time=0>, 19074], [<message note_on channel=9 note=35 velocity=123 time=28>, 19102], [<message note_on channel=9 note=43 velocity=123 time=0>, 19102], [<message note_on channel=0 note=53 velocity=117 time=88>, 19104], [<message note_off channel=0 note=56 velocity=123 time=8>, 19112], [<message note_off channel=9 note=43 velocity=123 time=18>, 19120], [<message note_off channel=9 note=35 velocity=123 time=2>, 19122], [<message note_off channel=0 note=63 velocity=123 time=32>, 19144], [<message note_on channel=9 note=35 velocity=123 time=28>, 19150], [<message note_on channel=9 note=43 velocity=123 time=0>, 19150], [<message note_off channel=9 note=43 velocity=123 time=24>, 19174], [<message note_off channel=9 note=35 velocity=123 time=0>, 19174], [<message note_off channel=0 note=53 velocity=117 time=50>, 19194], [<message note_off channel=0 note=41 velocity=122 time=4>, 19198], [<message note_on channel=9 note=35 velocity=124 time=24>, 19198], [<message note_on channel=9 note=49 velocity=124 time=0>, 19198], [<message note_on channel=5 note=78 velocity=123 time=376>, 19200], [<message note_on channel=5 note=79 velocity=123 time=0>, 19200], [<message note_on channel=0 note=39 velocity=123 time=2>, 19200], [<message note_on channel=0 note=51 velocity=122 time=0>, 19200], [<message note_on channel=0 note=58 velocity=123 time=0>, 19200], [<message note_on channel=0 note=63 velocity=123 time=0>, 19200], [<message note_on channel=0 note=67 velocity=123 time=0>, 19200], [<message note_on channel=2 note=75 velocity=80 time=6256>, 19200], [<message note_on channel=2 note=82 velocity=92 time=0>, 19200], [<message note_on channel=1 note=39 velocity=125 time=19002>, 19212], [<message note_off channel=5 note=78 velocity=123 time=16>, 19216], [<message note_on channel=9 note=51 velocity=120 time=96>, 19294], [<message note_on channel=0 note=55 velocity=93 time=96>, 19296], [<message note_off channel=0 note=67 velocity=123 time=16>, 19312], [<message note_off channel=0 note=58 velocity=123 time=4>, 19316], [<message note_off channel=0 note=63 velocity=123 time=8>, 19324], [<message note_off channel=9 note=51 velocity=120 time=46>, 19340], [<message note_on channel=9 note=40 velocity=124 time=50>, 19390], [<message note_on channel=9 note=42 velocity=122 time=0>, 19390], [<message note_on channel=9 note=51 velocity=122 time=0>, 19390], [<message note_on channel=0 note=58 velocity=123 time=68>, 19392], [<message note_on channel=0 note=63 velocity=122 time=0>, 19392], [<message note_on channel=0 note=67 velocity=123 time=0>, 19392], [<message note_off channel=0 note=55 velocity=93 time=18>, 19410], [<message note_off channel=9 note=51 velocity=122 time=46>, 19436], [<message note_off channel=9 note=42 velocity=122 time=20>, 19456], [<message note_off channel=9 note=35 velocity=124 time=0>, 19456], [<message note_off channel=1 note=39 velocity=125 time=246>, 19458], [<message note_on channel=9 note=35 velocity=117 time=30>, 19486], [<message note_on channel=9 note=51 velocity=120 time=0>, 19486], [<message note_on channel=0 note=55 velocity=117 time=78>, 19488], [<message note_off channel=0 note=67 velocity=123 time=4>, 19492], [<message note_on channel=1 note=39 velocity=125 time=42>, 19500], [<message note_off channel=0 note=58 velocity=123 time=18>, 19510], [<message note_off channel=9 note=51 velocity=120 time=26>, 19512], [<message note_off channel=9 note=35 velocity=117 time=4>, 19516], [<message note_off channel=0 note=63 velocity=122 time=8>, 19518], [<message note_off channel=1 note=39 velocity=125 time=30>, 19530], [<message note_on channel=9 note=35 velocity=123 time=66>, 19582], [<message note_on channel=9 note=51 velocity=122 time=0>, 19582], [<message note_on channel=0 note=58 velocity=122 time=66>, 19584], [<message note_on channel=0 note=63 velocity=121 time=0>, 19584], [<message note_on channel=0 note=67 velocity=123 time=0>, 19584], [<message note_on channel=1 note=39 velocity=125 time=66>, 19596], [<message note_off channel=0 note=55 velocity=117 time=16>, 19600], [<message note_off channel=9 note=51 velocity=122 time=46>, 19628], [<message note_off channel=0 note=67 velocity=123 time=78>, 19678], [<message note_on channel=9 note=51 velocity=117 time=50>, 19678], [<message note_on channel=0 note=55 velocity=118 time=2>, 19680], [<message note_off channel=0 note=58 velocity=122 time=16>, 19696], [<message note_off channel=9 note=51 velocity=117 time=20>, 19698], [<message note_off channel=9 note=40 velocity=124 time=6>, 19704], [<message note_off channel=0 note=63 velocity=121 time=38>, 19734], [<message note_off channel=0 note=55 velocity=118 time=24>, 19758], [<message note_off channel=0 note=51 velocity=122 time=6>, 19764], [<message note_off channel=5 note=79 velocity=123 time=556>, 19772], [<message note_on channel=9 note=40 velocity=124 time=70>, 19774], [<message note_on channel=9 note=42 velocity=123 time=0>, 19774], [<message note_on channel=9 note=51 velocity=123 time=0>, 19774], [<message note_on channel=5 note=77 velocity=123 time=4>, 19776], [<message note_on channel=0 note=38 velocity=122 time=12>, 19776], [<message note_on channel=0 note=50 velocity=123 time=0>, 19776], [<message note_on channel=0 note=58 velocity=123 time=0>, 19776], [<message note_on channel=0 note=62 velocity=123 time=0>, 19776], [<message note_on channel=0 note=65 velocity=123 time=0>, 19776], [<message note_on channel=2 note=74 velocity=101 time=576>, 19776], [<message note_off channel=0 note=39 velocity=123 time=10>, 19786], [<message note_off channel=1 note=39 velocity=125 time=192>, 19788], [<message note_on channel=1 note=34 velocity=125 time=0>, 19788], [<message note_off channel=2 note=75 velocity=80 time=20>, 19796], [<message note_off channel=9 note=51 velocity=123 time=46>, 19820], [<message note_off channel=9 note=42 velocity=123 time=6>, 19826], [<message note_off channel=0 note=62 velocity=123 time=76>, 19862], [<message note_on channel=9 note=51 velocity=118 time=44>, 19870], [<message note_on channel=5 note=79 velocity=122 time=96>, 19872], [<message note_off channel=0 note=58 velocity=123 time=10>, 19872], [<message note_on channel=0 note=53 velocity=117 time=0>, 19872], [<message note_off channel=5 note=77 velocity=123 time=10>, 19882], [<message note_off channel=9 note=35 velocity=123 time=20>, 19890], [<message note_off channel=9 note=51 velocity=118 time=14>, 19904], [<message note_on channel=5 note=80 velocity=121 time=38>, 19920], [<message note_off channel=5 note=79 velocity=122 time=8>, 19928], [<message note_off channel=0 note=50 velocity=123 time=68>, 19940], [<message note_off channel=0 note=53 velocity=117 time=14>, 19954], [<message note_off channel=0 note=38 velocity=122 time=10>, 19964], [<message note_on channel=9 note=35 velocity=124 time=62>, 19966], [<message note_on channel=9 note=51 velocity=122 time=0>, 19966], [<message note_on channel=5 note=79 velocity=122 time=40>, 19968], [<message note_on channel=0 note=36 velocity=123 time=4>, 19968], [<message note_on channel=0 note=48 velocity=123 time=0>, 19968], [<message note_on channel=0 note=60 velocity=123 time=0>, 19968], [<message note_on channel=0 note=63 velocity=123 time=0>, 19968], [<message note_off channel=2 note=74 velocity=101 time=172>, 19968], [<message note_on channel=2 note=72 velocity=91 time=0>, 19968], [<message note_on channel=2 note=75 velocity=80 time=0>, 19968], [<message note_on channel=2 note=79 velocity=69 time=0>, 19968], [<message note_on channel=2 note=84 velocity=91 time=0>, 19968], [<message note_off channel=5 note=80 velocity=121 time=4>, 19972], [<message note_off channel=2 note=82 velocity=92 time=6>, 19974], [<message note_off channel=0 note=65 velocity=123 time=10>, 19978], [<message note_on channel=1 note=36 velocity=125 time=192>, 19980], [<message note_off channel=1 note=34 velocity=125 time=6>, 19986], [<message note_off channel=9 note=51 velocity=122 time=28>, 19994], [<message note_off channel=0 note=60 velocity=123 time=54>, 20032], [<message note_on channel=9 note=51 velocity=119 time=68>, 20062], [<message note_on channel=0 note=60 velocity=116 time=32>, 20064], [<message note_off channel=9 note=40 velocity=124 time=4>, 20066], [<message note_off channel=0 note=63 velocity=123 time=16>, 20080], [<message note_off channel=9 note=51 velocity=119 time=16>, 20082], [<message note_on channel=9 note=40 velocity=124 time=76>, 20158], [<message note_on channel=9 note=42 velocity=123 time=0>, 20158], [<message note_on channel=9 note=51 velocity=123 time=0>, 20158], [<message note_on channel=0 note=63 velocity=121 time=80>, 20160], [<message note_off channel=0 note=60 velocity=116 time=16>, 20176], [<message note_off channel=9 note=35 velocity=124 time=28>, 20186], [<message note_off channel=1 note=36 velocity=125 time=210>, 20196], [<message note_off channel=9 note=51 velocity=123 time=18>, 20204], [<message note_off channel=9 note=42 velocity=123 time=10>, 20214], [<message note_on channel=9 note=35 velocity=121 time=40>, 20254], [<message note_on channel=9 note=51 velocity=120 time=0>, 20254], [<message note_on channel=0 note=67 velocity=117 time=80>, 20256], [<message note_on channel=1 note=36 velocity=125 time=72>, 20268], [<message note_off channel=9 note=35 velocity=121 time=18>, 20272], [<message note_off channel=9 note=51 velocity=120 time=16>, 20288], [<message note_off channel=1 note=36 velocity=125 time=32>, 20300], [<message note_off channel=0 note=63 velocity=121 time=66>, 20322], [<message note_off channel=9 note=49 velocity=124 time=62>, 20350], [<message note_on channel=9 note=35 velocity=124 time=0>, 20350], [<message note_on channel=9 note=51 velocity=122 time=0>, 20350], [<message note_on channel=0 note=62 velocity=119 time=30>, 20352], [<message note_on channel=0 note=74 velocity=118 time=0>, 20352], [<message note_on channel=2 note=77 velocity=100 time=378>, 20352], [<message note_off channel=0 note=67 velocity=117 time=6>, 20358], [<message note_on channel=1 note=36 velocity=125 time=64>, 20364], [<message note_off channel=9 note=51 velocity=122 time=32>, 20382], [<message note_on channel=9 note=51 velocity=120 time=64>, 20446], [<message note_on channel=0 note=63 velocity=119 time=90>, 20448], [<message note_off channel=0 note=62 velocity=119 time=4>, 20452], [<message note_off channel=9 note=40 velocity=124 time=8>, 20454], [<message note_off channel=9 note=51 velocity=120 time=18>, 20472], [<message note_off channel=0 note=74 velocity=118 time=30>, 20482], [<message note_off channel=2 note=77 velocity=100 time=172>, 20524], [<message note_off channel=5 note=79 velocity=122 time=566>, 20538], [<message note_on channel=9 note=40 velocity=124 time=70>, 20542], [<message note_on channel=9 note=42 velocity=124 time=0>, 20542], [<message note_on channel=9 note=51 velocity=123 time=0>, 20542], [<message note_on channel=0 note=60 velocity=116 time=62>, 20544], [<message note_on channel=0 note=72 velocity=122 time=0>, 20544], [<message note_on channel=2 note=82 velocity=95 time=20>, 20544], [<message note_on channel=1 note=31 velocity=125 time=192>, 20556], [<message note_off channel=1 note=36 velocity=125 time=8>, 20564], [<message note_off channel=9 note=51 velocity=123 time=30>, 20572], [<message note_off channel=9 note=35 velocity=124 time=4>, 20576], [<message note_off channel=0 note=36 velocity=123 time=60>, 20604], [<message note_off channel=9 note=42 velocity=124 time=28>, 20604], [<message note_off channel=0 note=48 velocity=123 time=22>, 20626], [<message note_on channel=9 note=35 velocity=116 time=34>, 20638], [<message note_on channel=9 note=51 velocity=113 time=0>, 20638], [<message note_on channel=5 note=79 velocity=123 time=102>, 20640], [<message note_on channel=0 note=67 velocity=114 time=14>, 20640], [<message note_on channel=1 note=30 velocity=125 time=88>, 20652], [<message note_off channel=9 note=35 velocity=116 time=18>, 20656], [<message note_off channel=1 note=31 velocity=125 time=6>, 20658], [<message note_off channel=9 note=51 velocity=113 time=16>, 20672], [<message note_off channel=0 note=63 velocity=119 time=72>, 20712], [<message note_off channel=0 note=67 velocity=114 time=8>, 20720], [<message note_off channel=5 note=79 velocity=123 time=84>, 20724], [<message note_off channel=2 note=82 velocity=95 time=188>, 20732], [<message note_off channel=2 note=79 velocity=69 time=0>, 20732], [<message note_on channel=9 note=35 velocity=124 time=62>, 20734], [<message note_on channel=9 note=49 velocity=122 time=0>, 20734], [<message note_on channel=5 note=79 velocity=123 time=12>, 20736], [<message note_on channel=5 note=80 velocity=119 time=0>, 20736], [<message note_on channel=0 note=41 velocity=120 time=16>, 20736], [<message note_on channel=0 note=53 velocity=123 time=0>, 20736], [<message note_on channel=0 note=65 velocity=122 time=0>, 20736], [<message note_on channel=0 note=68 velocity=123 time=0>, 20736], [<message note_off channel=2 note=75 velocity=80 time=4>, 20736], [<message note_on channel=2 note=77 velocity=98 time=0>, 20736], [<message note_on channel=2 note=80 velocity=96 time=0>, 20736], [<message note_on channel=1 note=29 velocity=125 time=90>, 20748], [<message note_off channel=1 note=30 velocity=125 time=12>, 20760], [<message note_off channel=5 note=79 velocity=123 time=30>, 20766], [<message note_off channel=0 note=60 velocity=116 time=40>, 20776], [<message note_off channel=9 note=49 velocity=122 time=96>, 20830], [<message note_on channel=9 note=51 velocity=118 time=0>, 20830], [<message note_on channel=0 note=60 velocity=120 time=56>, 20832], [<message note_off channel=0 note=68 velocity=123 time=4>, 20836], [<message note_off channel=9 note=40 velocity=124 time=6>, 20836], [<message note_off channel=0 note=72 velocity=122 time=8>, 20844], [<message note_off channel=9 note=51 velocity=118 time=20>, 20856], [<message note_off channel=5 note=80 velocity=119 time=104>, 20870], [<message note_on channel=5 note=79 velocity=123 time=10>, 20880], [<message note_off channel=0 note=65 velocity=122 time=36>, 20880], [<message note_on channel=9 note=40 velocity=124 time=70>, 20926], [<message note_on channel=9 note=42 velocity=123 time=0>, 20926], [<message note_on channel=9 note=51 velocity=123 time=0>, 20926], [<message note_on channel=0 note=65 velocity=123 time=48>, 20928], [<message note_on channel=0 note=68 velocity=121 time=0>, 20928], [<message note_on channel=0 note=72 velocity=120 time=0>, 20928], [<message note_on channel=2 note=76 velocity=96 time=192>, 20928], [<message note_off channel=0 note=60 velocity=120 time=10>, 20938], [<message note_off channel=5 note=79 velocity=123 time=66>, 20946], [<message note_off channel=2 note=77 velocity=98 time=28>, 20956], [<message note_off channel=9 note=35 velocity=124 time=30>, 20956], [<message note_off channel=9 note=51 velocity=123 time=6>, 20962], [<message note_on channel=5 note=79 velocity=123 time=30>, 20976], [<message note_off channel=0 note=53 velocity=123 time=42>, 20980], [<message note_off channel=9 note=42 velocity=123 time=22>, 20984], [<message note_off channel=0 note=65 velocity=123 time=24>, 21004], [<message note_on channel=9 note=35 velocity=118 time=38>, 21022], [<message note_on channel=9 note=49 velocity=120 time=0>, 21022], [<message note_on channel=5 note=77 velocity=122 time=48>, 21024], [<message note_on channel=0 note=40 velocity=121 time=20>, 21024], [<message note_on channel=0 note=52 velocity=115 time=0>, 21024], [<message note_on channel=0 note=60 velocity=112 time=0>, 21024], [<message note_on channel=0 note=64 velocity=122 time=0>, 21024], [<message note_off channel=5 note=79 velocity=123 time=8>, 21032], [<message note_off channel=1 note=29 velocity=125 time=272>, 21032], [<message note_off channel=0 note=41 velocity=120 time=12>, 21036], [<message note_on channel=1 note=40 velocity=125 time=4>, 21036], [<message note_off channel=9 note=35 velocity=118 time=22>, 21044], [<message note_off channel=0 note=52 velocity=115 time=42>, 21078], [<message note_off channel=5 note=77 velocity=122 time=48>, 21080], [<message note_off channel=0 note=64 velocity=122 time=10>, 21088], [<message note_off channel=0 note=68 velocity=121 time=2>, 21090], [<message note_off channel=2 note=76 velocity=96 time=146>, 21102], [<message note_off channel=9 note=49 velocity=123 time=74>, 21118], [<message note_on channel=9 note=35 velocity=123 time=0>, 21118], [<message note_on channel=9 note=49 velocity=123 time=0>, 21118], [<message note_on channel=5 note=77 velocity=123 time=40>, 21120], [<message note_on channel=0 note=39 velocity=122 time=30>, 21120], [<message note_on channel=0 note=51 velocity=123 time=0>, 21120], [<message note_on channel=0 note=63 velocity=123 time=0>, 21120], [<message note_on channel=0 note=68 velocity=123 time=0>, 21120], [<message note_on channel=2 note=75 velocity=92 time=18>, 21120], [<message note_off channel=0 note=40 velocity=121 time=6>, 21126], [<message note_on channel=1 note=39 velocity=125 time=96>, 21132], [<message note_off channel=1 note=40 velocity=125 time=12>, 21144], [<message note_off channel=0 note=60 velocity=112 time=60>, 21186], [<message note_off channel=9 note=40 velocity=124 time=70>, 21188], [<message note_off channel=9 note=49 velocity=120 time=26>, 21214], [<message note_on channel=9 note=51 velocity=119 time=0>, 21214], [<message note_on channel=0 note=60 velocity=95 time=30>, 21216], [<message note_off channel=0 note=63 velocity=123 time=14>, 21230], [<message note_off channel=9 note=51 velocity=119 time=22>, 21236], [<message note_off channel=0 note=68 velocity=123 time=22>, 21252], [<message note_off channel=0 note=72 velocity=120 time=10>, 21262], [<message note_off channel=0 note=51 velocity=123 time=26>, 21288], [<message note_on channel=9 note=40 velocity=124 time=74>, 21310], [<message note_on channel=9 note=42 velocity=123 time=0>, 21310], [<message note_on channel=9 note=51 velocity=123 time=0>, 21310], [<message note_on channel=0 note=38 velocity=122 time=24>, 21312], [<message note_on channel=0 note=50 velocity=123 time=0>, 21312], [<message note_on channel=0 note=62 velocity=123 time=0>, 21312], [<message note_on channel=0 note=68 velocity=123 time=0>, 21312], [<message note_on channel=0 note=72 velocity=123 time=0>, 21312], [<message note_on channel=2 note=74 velocity=99 time=192>, 21312], [<message note_off channel=9 note=35 velocity=123 time=2>, 21312], [<message note_off channel=0 note=60 velocity=95 time=10>, 21322], [<message note_on channel=1 note=38 velocity=125 time=180>, 21324], [<message note_off channel=2 note=75 velocity=92 time=16>, 21328], [<message note_off channel=0 note=39 velocity=122 time=12>, 21334], [<message note_off channel=1 note=39 velocity=125 time=10>, 21334], [<message note_off channel=9 note=51 velocity=123 time=38>, 21350], [<message note_off channel=9 note=42 velocity=123 time=18>, 21368], [<message note_off channel=0 note=50 velocity=123 time=58>, 21392], [<message note_off channel=0 note=68 velocity=123 time=14>, 21406], [<message note_on channel=9 note=35 velocity=117 time=38>, 21406], [<message note_on channel=9 note=51 velocity=120 time=0>, 21406], [<message note_on channel=0 note=60 velocity=110 time=2>, 21408], [<message note_off channel=0 note=72 velocity=123 time=2>, 21410], [<message note_off channel=2 note=72 velocity=91 time=96>, 21424], [<message note_off channel=9 note=35 velocity=117 time=20>, 21426], [<message note_off channel=9 note=51 velocity=120 time=6>, 21432], [<message note_off channel=0 note=62 velocity=123 time=24>, 21434], [<message note_off channel=1 note=38 velocity=125 time=112>, 21446], [<message note_on channel=5 note=70 velocity=123 time=336>, 21456], [<message note_on channel=1 note=36 velocity=119 time=22>, 21468], [<message note_off channel=5 note=77 velocity=123 time=18>, 21474], [<message note_off channel=0 note=60 velocity=110 time=52>, 21486], [<message note_off channel=0 note=38 velocity=122 time=8>, 21494], [<message note_off channel=5 note=70 velocity=123 time=26>, 21500], [<message note_off channel=2 note=74 velocity=99 time=78>, 21502], [<message note_on channel=9 note=35 velocity=123 time=70>, 21502], [<message note_on channel=9 note=51 velocity=123 time=0>, 21502], [<message note_on channel=5 note=70 velocity=123 time=4>, 21504], [<message note_on channel=0 note=34 velocity=121 time=10>, 21504], [<message note_on channel=0 note=46 velocity=123 time=0>, 21504], [<message note_on channel=0 note=62 velocity=123 time=0>, 21504], [<message note_on channel=0 note=66 velocity=18 time=0>, 21504], [<message note_on channel=0 note=70 velocity=122 time=0>, 21504], [<message note_on channel=2 note=70 velocity=92 time=2>, 21504], [<message note_on channel=2 note=74 velocity=86 time=0>, 21504], [<message note_on channel=2 note=77 velocity=74 time=0>, 21504], [<message note_on channel=2 note=82 velocity=88 time=0>, 21504], [<message note_on channel=1 note=34 velocity=125 time=48>, 21516], [<message note_off channel=2 note=74 velocity=86 time=16>, 21520], [<message note_off channel=2 note=84 velocity=91 time=0>, 21520], [<message note_off channel=2 note=80 velocity=96 time=6>, 21526], [<message note_off channel=9 note=51 velocity=123 time=32>, 21534], [<message note_off channel=1 note=36 velocity=119 time=24>, 21540], [<message note_off channel=0 note=66 velocity=18 time=60>, 21564], [<message note_off channel=5 note=70 velocity=123 time=82>, 21586], [<message note_on channel=9 note=51 velocity=119 time=64>, 21598], [<message note_on channel=5 note=77 velocity=122 time=14>, 21600], [<message note_on channel=0 note=58 velocity=107 time=36>, 21600], [<message note_off channel=9 note=40 velocity=124 time=14>, 21612], [<message note_off channel=0 note=62 velocity=123 time=20>, 21620], [<message note_off channel=9 note=51 velocity=119 time=8>, 21620], [<message note_off channel=5 note=77 velocity=122 time=58>, 21658], [<message note_on channel=9 note=40 velocity=124 time=74>, 21694], [<message note_on channel=9 note=42 velocity=121 time=0>, 21694], [<message note_on channel=9 note=51 velocity=124 time=0>, 21694], [<message note_on channel=5 note=77 velocity=123 time=38>, 21696], [<message note_on channel=0 note=62 velocity=123 time=76>, 21696], [<message note_on channel=0 note=65 velocity=123 time=0>, 21696], [<message note_off channel=0 note=58 velocity=107 time=14>, 21710], [<message note_off channel=9 note=35 velocity=123 time=28>, 21722], [<message note_off channel=9 note=51 velocity=124 time=6>, 21728], [<message note_off channel=9 note=42 velocity=121 time=10>, 21738], [<message note_off channel=1 note=34 velocity=125 time=222>, 21762], [<message note_off channel=5 note=77 velocity=123 time=90>, 21786], [<message note_on channel=9 note=35 velocity=122 time=52>, 21790], [<message note_on channel=9 note=51 velocity=120 time=0>, 21790], [<message note_on channel=5 note=79 velocity=123 time=6>, 21792], [<message note_on channel=0 note=58 velocity=105 time=82>, 21792], [<message note_off channel=0 note=65 velocity=123 time=12>, 21804], [<message note_on channel=1 note=34 velocity=121 time=42>, 21804], [<message note_off channel=0 note=70 velocity=122 time=4>, 21808], [<message note_off channel=9 note=35 velocity=122 time=18>, 21808], [<message note_off channel=0 note=62 velocity=123 time=2>, 21810], [<message note_off channel=9 note=51 velocity=120 time=12>, 21820], [<message note_off channel=5 note=79 velocity=123 time=56>, 21848], [<message note_off channel=1 note=34 velocity=121 time=46>, 21850], [<message note_on channel=9 note=35 velocity=124 time=66>, 21886], [<message note_on channel=9 note=51 velocity=122 time=0>, 21886], [<message note_on channel=5 note=79 velocity=123 time=40>, 21888], [<message note_on channel=0 note=62 velocity=122 time=78>, 21888], [<message note_on channel=0 note=65 velocity=122 time=0>, 21888], [<message note_on channel=0 note=70 velocity=120 time=0>, 21888], [<message note_off channel=0 note=58 velocity=105 time=6>, 21894], [<message note_on channel=1 note=34 velocity=125 time=50>, 21900], [<message note_off channel=9 note=40 velocity=124 time=18>, 21904], [<message note_off channel=9 note=51 velocity=122 time=10>, 21914], [<message note_off channel=1 note=34 velocity=125 time=58>, 21958], [<message note_on channel=9 note=40 velocity=124 time=68>, 21982], [<message note_on channel=9 note=51 velocity=120 time=0>, 21982], [<message note_on channel=5 note=80 velocity=122 time=96>, 21984], [<message note_on channel=0 note=58 velocity=117 time=90>, 21984], [<message note_off channel=5 note=79 velocity=123 time=8>, 21992], [<message note_on channel=1 note=34 velocity=125 time=38>, 21996], [<message note_off channel=9 note=51 velocity=120 time=18>, 22000], [<message note_off channel=0 note=62 velocity=122 time=22>, 22006], [<message note_off channel=9 note=40 velocity=124 time=10>, 22010], [<message note_off channel=0 note=65 velocity=122 time=6>, 22012], [<message note_off channel=0 note=70 velocity=120 time=16>, 22028], [<message note_off channel=5 note=80 velocity=122 time=66>, 22058], [<message note_off channel=1 note=34 velocity=125 time=76>, 22072], [<message note_on channel=9 note=40 velocity=124 time=68>, 22078], [<message note_on channel=9 note=42 velocity=121 time=0>, 22078], [<message note_on channel=5 note=80 velocity=122 time=22>, 22080], [<message note_on channel=0 note=62 velocity=122 time=52>, 22080], [<message note_on channel=0 note=65 velocity=122 time=0>, 22080], [<message note_on channel=0 note=70 velocity=117 time=0>, 22080], [<message note_on channel=2 note=80 velocity=90 time=554>, 22080], [<message note_on channel=1 note=34 velocity=125 time=20>, 22092], [<message note_off channel=9 note=35 velocity=124 time=22>, 22100], [<message note_off channel=9 note=40 velocity=124 time=4>, 22104], [<message note_off channel=9 note=42 velocity=121 time=12>, 22116], [<message note_on channel=9 note=43 velocity=123 time=10>, 22126], [<message note_off channel=0 note=70 velocity=117 time=50>, 22130], [<message note_off channel=1 note=34 velocity=125 time=48>, 22140], [<message note_on channel=1 note=36 velocity=125 time=0>, 22140], [<message note_off channel=0 note=62 velocity=122 time=28>, 22158], [<message note_off channel=0 note=65 velocity=122 time=4>, 22162], [<message note_off channel=9 note=43 velocity=123 time=44>, 22170], [<message note_on channel=9 note=35 velocity=124 time=4>, 22174], [<message note_on channel=9 note=45 velocity=122 time=0>, 22174], [<message note_on channel=5 note=82 velocity=122 time=96>, 22176], [<message note_off channel=5 note=80 velocity=122 time=4>, 22180], [<message note_off channel=0 note=34 velocity=121 time=20>, 22182], [<message note_off channel=1 note=36 velocity=125 time=48>, 22188], [<message note_on channel=1 note=38 velocity=125 time=0>, 22188], [<message note_off channel=0 note=46 velocity=123 time=12>, 22194], [<message note_off channel=9 note=45 velocity=122 time=32>, 22206], [<message note_off channel=9 note=35 velocity=124 time=0>, 22206], [<message note_on channel=9 note=35 velocity=123 time=64>, 22270], [<message note_on channel=9 note=49 velocity=124 time=0>, 22270], [<message note_on channel=5 note=80 velocity=119 time=92>, 22272], [<message note_on channel=0 note=39 velocity=121 time=78>, 22272], [<message note_on channel=0 note=51 velocity=122 time=0>, 22272], [<message note_on channel=0 note=63 velocity=122 time=0>, 22272], [<message note_on channel=0 note=67 velocity=123 time=0>, 22272], [<message note_on channel=2 note=75 velocity=90 time=192>, 22272], [<message note_on channel=2 note=79 velocity=92 time=0>, 22272], [<message note_off channel=5 note=82 velocity=122 time=6>, 22278], [<message note_off channel=2 note=80 velocity=90 time=6>, 22278], [<message note_on channel=1 note=39 velocity=125 time=92>, 22280], [<message note_off channel=1 note=38 velocity=125 time=2>, 22282], [<message note_off channel=2 note=77 velocity=74 time=12>, 22290], [<message note_off channel=0 note=58 velocity=117 time=46>, 22318], [<message note_off channel=1 note=39 velocity=125 time=76>, 22358], [<message note_off channel=5 note=80 velocity=119 time=84>, 22362], [<message note_off channel=0 note=67 velocity=123 time=44>, 22362], [<message note_off channel=2 note=75 velocity=90 time=76>, 22366], [<message note_on channel=9 note=51 velocity=122 time=96>, 22366], [<message note_on channel=5 note=79 velocity=118 time=6>, 22368], [<message note_on channel=0 note=58 velocity=102 time=6>, 22368], [<message note_on channel=2 note=75 velocity=18 time=2>, 22368], [<message note_on channel=1 note=39 velocity=125 time=18>, 22376], [<message note_off channel=9 note=51 velocity=122 time=22>, 22388], [<message note_off channel=1 note=39 velocity=125 time=44>, 22420], [<message note_on channel=9 note=40 velocity=124 time=74>, 22462], [<message note_on channel=9 note=42 velocity=123 time=0>, 22462], [<message note_on channel=9 note=51 velocity=123 time=0>, 22462], [<message note_on channel=0 note=67 velocity=117 time=96>, 22464], [<message note_on channel=1 note=39 velocity=125 time=52>, 22472], [<message note_off channel=9 note=51 velocity=123 time=32>, 22494], [<message note_off channel=9 note=35 velocity=123 time=2>, 22496], [<message note_off channel=9 note=42 velocity=123 time=16>, 22512], [<message note_off channel=1 note=39 velocity=125 time=62>, 22534], [<message note_off channel=5 note=79 velocity=118 time=172>, 22540], [<message note_off channel=0 note=63 velocity=122 time=90>, 22554], [<message note_on channel=9 note=35 velocity=120 time=46>, 22558], [<message note_on channel=9 note=51 velocity=119 time=0>, 22558], [<message note_on channel=5 note=77 velocity=123 time=20>, 22560], [<message note_on channel=0 note=65 velocity=114 time=6>, 22560], [<message note_on channel=1 note=39 velocity=125 time=34>, 22568], [<message note_off channel=0 note=67 velocity=117 time=22>, 22582], [<message note_off channel=9 note=35 velocity=120 time=28>, 22586], [<message note_off channel=9 note=51 velocity=119 time=4>, 22590], [<message note_off channel=0 note=65 velocity=114 time=24>, 22606], [<message note_off channel=5 note=77 velocity=123 time=48>, 22608], [<message note_on channel=5 note=75 velocity=122 time=0>, 22608], [<message note_on channel=0 note=63 velocity=115 time=2>, 22608], [<message note_off channel=0 note=58 velocity=102 time=12>, 22620], [<message note_off channel=0 note=51 velocity=122 time=2>, 22622], [<message note_off channel=2 note=75 velocity=18 time=270>, 22638], [<message note_off channel=5 note=75 velocity=122 time=38>, 22646], [<message note_off channel=2 note=79 velocity=92 time=8>, 22646], [<message note_on channel=9 note=35 velocity=124 time=64>, 22654], [<message note_on channel=9 note=51 velocity=122 time=0>, 22654], [<message note_on channel=5 note=77 velocity=119 time=10>, 22656], [<message note_on channel=0 note=38 velocity=119 time=34>, 22656], [<message note_on channel=0 note=50 velocity=119 time=0>, 22656], [<message note_on channel=0 note=58 velocity=123 time=0>, 22656], [<message note_on channel=0 note=62 velocity=123 time=0>, 22656], [<message note_on channel=0 note=65 velocity=123 time=0>, 22656], [<message note_on channel=2 note=74 velocity=98 time=10>, 22656], [<message note_on channel=2 note=77 velocity=73 time=0>, 22656], [<message note_off channel=0 note=39 velocity=121 time=6>, 22662], [<message note_off channel=1 note=39 velocity=125 time=94>, 22662], [<message note_on channel=1 note=38 velocity=125 time=2>, 22664], [<message note_off channel=0 note=63 velocity=115 time=6>, 22668], [<message note_off channel=9 note=51 velocity=122 time=36>, 22690], [<message note_off channel=1 note=38 velocity=125 time=50>, 22714], [<message note_off channel=0 note=58 velocity=123 time=48>, 22716], [<message note_off channel=9 note=49 velocity=124 time=60>, 22750], [<message note_on channel=9 note=51 velocity=117 time=0>, 22750], [<message note_on channel=0 note=58 velocity=93 time=36>, 22752], [<message note_on channel=1 note=38 velocity=125 time=46>, 22760], [<message note_off channel=9 note=51 velocity=117 time=18>, 22768], [<message note_off channel=9 note=40 velocity=124 time=2>, 22770], [<message note_off channel=0 note=65 velocity=123 time=24>, 22776], [<message note_off channel=0 note=62 velocity=123 time=4>, 22780], [<message note_off channel=1 note=38 velocity=125 time=56>, 22816], [<message note_on channel=9 note=40 velocity=124 time=76>, 22846], [<message note_on channel=9 note=42 velocity=122 time=0>, 22846], [<message note_on channel=9 note=51 velocity=123 time=0>, 22846], [<message note_on channel=0 note=62 velocity=117 time=68>, 22848], [<message note_on channel=0 note=65 velocity=117 time=0>, 22848], [<message note_on channel=1 note=38 velocity=125 time=40>, 22856], [<message note_off channel=9 note=35 velocity=124 time=20>, 22866], [<message note_off channel=9 note=51 velocity=123 time=18>, 22884], [<message note_off channel=9 note=42 velocity=122 time=10>, 22894], [<message note_off channel=1 note=38 velocity=125 time=50>, 22906], [<message note_off channel=0 note=62 velocity=117 time=80>, 22928], [<message note_on channel=9 note=35 velocity=122 time=48>, 22942], [<message note_on channel=9 note=51 velocity=115 time=0>, 22942], [<message note_on channel=5 note=75 velocity=123 time=288>, 22944], [<message note_on channel=0 note=63 velocity=107 time=16>, 22944], [<message note_off channel=5 note=77 velocity=119 time=8>, 22952], [<message note_on channel=1 note=38 velocity=125 time=46>, 22952], [<message note_off channel=0 note=65 velocity=117 time=22>, 22966], [<message note_off channel=9 note=51 velocity=115 time=30>, 22972], [<message note_off channel=9 note=35 velocity=122 time=6>, 22978], [<message note_off channel=0 note=58 velocity=93 time=20>, 22986], [<message note_on channel=5 note=74 velocity=116 time=40>, 22992], [<message note_on channel=0 note=62 velocity=115 time=6>, 22992], [<message note_off channel=0 note=63 velocity=107 time=6>, 22998], [<message note_off channel=5 note=75 velocity=123 time=12>, 23004], [<message note_off channel=0 note=50 velocity=119 time=14>, 23012], [<message note_off channel=2 note=70 velocity=92 time=374>, 23030], [<message note_on channel=9 note=35 velocity=124 time=60>, 23038], [<message note_on channel=9 note=51 velocity=122 time=0>, 23038], [<message note_off channel=5 note=74 velocity=116 time=36>, 23040], [<message note_on channel=5 note=75 velocity=119 time=0>, 23040], [<message note_off channel=0 note=62 velocity=115 time=28>, 23040], [<message note_on channel=0 note=36 velocity=119 time=0>, 23040], [<message note_on channel=0 note=48 velocity=121 time=0>, 23040], [<message note_on channel=0 note=60 velocity=122 time=0>, 23040], [<message note_on channel=0 note=63 velocity=118 time=0>, 23040], [<message note_on channel=2 note=72 velocity=91 time=10>, 23040], [<message note_on channel=2 note=75 velocity=83 time=0>, 23040], [<message note_off channel=2 note=74 velocity=98 time=2>, 23042], [<message note_off channel=0 note=38 velocity=119 time=8>, 23048], [<message note_off channel=1 note=38 velocity=125 time=96>, 23048], [<message note_off channel=2 note=82 velocity=88 time=6>, 23048], [<message note_on channel=1 note=36 velocity=125 time=4>, 23052], [<message note_off channel=2 note=77 velocity=73 time=14>, 23062], [<message note_off channel=9 note=51 velocity=122 time=38>, 23076], [<message note_off channel=1 note=36 velocity=125 time=68>, 23120], [<message note_on channel=9 note=51 velocity=119 time=58>, 23134], [<message note_on channel=0 note=55 velocity=63 time=88>, 23136], [<message note_on channel=1 note=36 velocity=125 time=28>, 23148], [<message note_off channel=0 note=60 velocity=122 time=20>, 23156], [<message note_off channel=0 note=63 velocity=118 time=2>, 23158], [<message note_off channel=9 note=51 velocity=119 time=26>, 23160], [<message note_off channel=9 note=40 velocity=124 time=2>, 23162], [<message note_off channel=1 note=36 velocity=125 time=64>, 23212], [<message note_on channel=9 note=40 velocity=124 time=68>, 23230], [<message note_on channel=9 note=42 velocity=121 time=0>, 23230], [<message note_on channel=9 note=51 velocity=124 time=0>, 23230], [<message note_on channel=0 note=60 velocity=117 time=74>, 23232], [<message note_on channel=0 note=63 velocity=117 time=0>, 23232], [<message note_on channel=1 note=36 velocity=125 time=32>, 23244], [<message note_off channel=0 note=55 velocity=63 time=16>, 23248], [<message note_off channel=9 note=35 velocity=124 time=26>, 23256], [<message note_off channel=9 note=51 velocity=124 time=2>, 23258], [<message note_off channel=9 note=42 velocity=121 time=6>, 23264], [<message note_off channel=0 note=60 velocity=117 time=78>, 23326], [<message note_on channel=9 note=35 velocity=121 time=62>, 23326], [<message note_on channel=9 note=42 velocity=120 time=0>, 23326], [<message note_on channel=5 note=70 velocity=121 time=288>, 23328], [<message note_on channel=0 note=55 velocity=112 time=2>, 23328], [<message note_off channel=1 note=36 velocity=125 time=90>, 23334], [<message note_off channel=5 note=75 velocity=119 time=12>, 23340], [<message note_on channel=1 note=31 velocity=125 time=6>, 23340], [<message note_off channel=0 note=63 velocity=117 time=16>, 23344], [<message note_off channel=9 note=42 velocity=120 time=24>, 23350], [<message note_off channel=9 note=35 velocity=121 time=2>, 23352], [<message note_off channel=5 note=70 velocity=121 time=16>, 23356], [<message note_on channel=5 note=70 velocity=122 time=20>, 23376], [<message note_off channel=9 note=40 velocity=124 time=26>, 23378], [<message note_off channel=5 note=70 velocity=122 time=42>, 23418], [<message note_off channel=0 note=55 velocity=112 time=74>, 23418], [<message note_on channel=9 note=35 velocity=124 time=44>, 23422], [<message note_on channel=9 note=49 velocity=123 time=0>, 23422], [<message note_on channel=5 note=71 velocity=122 time=6>, 23424], [<message note_on channel=0 note=44 velocity=122 time=6>, 23424], [<message note_on channel=0 note=59 velocity=122 time=0>, 23424], [<message note_on channel=0 note=63 velocity=117 time=0>, 23424], [<message note_on channel=2 note=68 velocity=67 time=362>, 23424], [<message note_on channel=2 note=71 velocity=92 time=0>, 23424], [<message note_off channel=0 note=48 velocity=121 time=2>, 23426], [<message note_off channel=0 note=36 velocity=119 time=2>, 23428], [<message note_off channel=1 note=31 velocity=125 time=94>, 23434], [<message note_on channel=1 note=32 velocity=125 time=2>, 23436], [<message note_off channel=2 note=72 velocity=91 time=14>, 23438], [<message note_off channel=5 note=71 velocity=122 time=84>, 23508], [<message note_on channel=5 note=73 velocity=119 time=12>, 23520], [<message note_on channel=0 note=56 velocity=107 time=92>, 23520], [<message note_off channel=0 note=63 velocity=117 time=18>, 23538], [<message note_off channel=0 note=59 velocity=122 time=2>, 23540], [<message note_on channel=5 note=71 velocity=120 time=48>, 23568], [<message note_off channel=5 note=73 velocity=119 time=14>, 23582], [<message note_on channel=5 note=73 velocity=119 time=34>, 23616], [<message note_on channel=0 note=59 velocity=121 time=76>, 23616], [<message note_on channel=0 note=63 velocity=117 time=0>, 23616], [<message note_off channel=0 note=56 velocity=107 time=8>, 23624], [<message note_off channel=5 note=71 velocity=120 time=14>, 23630], [<message note_off channel=5 note=73 velocity=119 time=28>, 23658], [<message note_on channel=5 note=71 velocity=119 time=6>, 23664], [<message note_off channel=9 note=35 velocity=124 time=272>, 23694], [<message note_off channel=5 note=71 velocity=119 time=34>, 23698], [<message note_on channel=5 note=73 velocity=119 time=14>, 23712], [<message note_on channel=0 note=56 velocity=109 time=88>, 23712], [<message note_off channel=5 note=73 velocity=119 time=34>, 23746], [<message note_off channel=2 note=71 velocity=92 time=308>, 23746], [<message note_on channel=5 note=71 velocity=121 time=14>, 23760], [<message note_off channel=9 note=49 velocity=123 time=68>, 23762], [<message note_off channel=0 note=44 velocity=122 time=74>, 23786], [<message note_off channel=0 note=56 velocity=109 time=4>, 23790], [<message note_off channel=5 note=71 velocity=121 time=34>, 23794], [<message note_off channel=0 note=59 velocity=121 time=12>, 23802], [<message note_on channel=9 note=35 velocity=124 time=44>, 23806], [<message note_on channel=9 note=49 velocity=123 time=0>, 23806], [<message note_on channel=5 note=70 velocity=120 time=14>, 23808], [<message note_on channel=0 note=39 velocity=121 time=6>, 23808], [<message note_on channel=0 note=51 velocity=117 time=0>, 23808], [<message note_on channel=2 note=63 velocity=63 time=62>, 23808], [<message note_on channel=2 note=70 velocity=77 time=0>, 23808], [<message note_on channel=1 note=27 velocity=125 time=384>, 23820], [<message note_on channel=1 note=39 velocity=125 time=0>, 23820], [<message note_off channel=2 note=75 velocity=83 time=16>, 23824], [<message note_off channel=0 note=63 velocity=117 time=18>, 23826], [<message note_off channel=1 note=32 velocity=125 time=10>, 23830], [<message note_off channel=2 note=68 velocity=67 time=14>, 23838], [<message note_on channel=0 note=63 velocity=114 time=78>, 23904], [<message note_on channel=0 note=67 velocity=117 time=96>, 24000], [<message note_off channel=0 note=67 velocity=117 time=90>, 24090], [<message note_on channel=0 note=70 velocity=120 time=6>, 24096], [<message note_off channel=2 note=63 velocity=63 time=332>, 24170], [<message note_off channel=0 note=70 velocity=120 time=94>, 24190], [<message note_off channel=2 note=70 velocity=77 time=20>, 24190], [<message note_on channel=0 note=68 velocity=121 time=2>, 24192], [<message note_on channel=0 note=72 velocity=116 time=0>, 24192], [<message note_on channel=2 note=68 velocity=76 time=2>, 24192], [<message note_on channel=2 note=72 velocity=60 time=0>, 24192], [<message note_on channel=2 note=75 velocity=18 time=0>, 24192], [<message note_on channel=2 note=80 velocity=51 time=0>, 24192], [<message note_off channel=5 note=70 velocity=120 time=432>, 24240], [<message note_on channel=0 note=75 velocity=112 time=96>, 24288], [<message note_off channel=0 note=72 velocity=116 time=4>, 24292], [<message note_off channel=0 note=68 velocity=121 time=18>, 24310], [<message note_off channel=2 note=75 velocity=18 time=186>, 24378], [<message note_off channel=2 note=80 velocity=51 time=4>, 24382], [<message note_on channel=0 note=67 velocity=116 time=74>, 24384], [<message note_on channel=0 note=70 velocity=118 time=0>, 24384], [<message note_on channel=2 note=67 velocity=96 time=2>, 24384], [<message note_on channel=2 note=70 velocity=90 time=0>, 24384], [<message note_off channel=2 note=68 velocity=76 time=6>, 24390], [<message note_off channel=0 note=75 velocity=112 time=8>, 24392], [<message note_off channel=2 note=72 velocity=60 time=2>, 24392], [<message note_on channel=0 note=75 velocity=116 time=88>, 24480], [<message note_off channel=0 note=67 velocity=116 time=14>, 24494], [<message note_off channel=0 note=70 velocity=118 time=10>, 24504], [<message note_on channel=0 note=66 velocity=108 time=72>, 24576], [<message note_on channel=0 note=69 velocity=118 time=0>, 24576], [<message note_on channel=2 note=66 velocity=63 time=184>, 24576], [<message note_on channel=2 note=69 velocity=63 time=0>, 24576], [<message note_off channel=0 note=75 velocity=116 time=10>, 24586], [<message note_off channel=2 note=70 velocity=90 time=12>, 24588], [<message note_off channel=2 note=67 velocity=96 time=10>, 24598], [<message note_on channel=9 note=42 velocity=121 time=864>, 24670], [<message note_on channel=0 note=75 velocity=119 time=86>, 24672], [<message note_off channel=0 note=69 velocity=118 time=2>, 24674], [<message note_off channel=0 note=66 velocity=108 time=18>, 24692], [<message note_off channel=9 note=49 velocity=123 time=22>, 24692], [<message note_off channel=2 note=69 velocity=63 time=110>, 24708], [<message note_on channel=9 note=40 velocity=122 time=74>, 24766], [<message note_on channel=0 note=65 velocity=119 time=76>, 24768], [<message note_on channel=0 note=68 velocity=120 time=0>, 24768], [<message note_on channel=2 note=65 velocity=97 time=60>, 24768], [<message note_on channel=2 note=68 velocity=88 time=0>, 24768], [<message note_off channel=0 note=75 velocity=119 time=4>, 24772], [<message note_off channel=2 note=66 velocity=63 time=8>, 24776], [<message note_off channel=9 note=40 velocity=122 time=48>, 24814], [<message note_on channel=9 note=43 velocity=119 time=0>, 24814], [<message note_off channel=1 note=39 velocity=125 time=1010>, 24840], [<message note_off channel=1 note=27 velocity=125 time=4>, 24844], [<message note_off channel=9 note=35 velocity=124 time=40>, 24854], [<message note_off channel=9 note=43 velocity=119 time=6>, 24860], [<message note_on channel=9 note=45 velocity=117 time=2>, 24862], [<message note_on channel=0 note=75 velocity=121 time=92>, 24864], [<message note_off channel=0 note=68 velocity=120 time=28>, 24892], [<message note_off channel=2 note=68 velocity=88 time=134>, 24910], [<message note_off channel=0 note=65 velocity=119 time=28>, 24920], [<message note_off channel=0 note=63 velocity=114 time=10>, 24930], [<message note_off channel=0 note=75 velocity=121 time=4>, 24934], [<message note_off channel=9 note=45 velocity=117 time=78>, 24940], [<message note_off channel=0 note=39 velocity=121 time=16>, 24950], [<message note_off channel=2 note=65 velocity=97 time=42>, 24952], [<message note_off channel=0 note=51 velocity=117 time=4>, 24954], [<message note_on channel=9 note=35 velocity=124 time=18>, 24958], [<message note_on channel=9 note=49 velocity=124 time=0>, 24958], [<message note_on channel=0 note=34 velocity=121 time=6>, 24960], [<message note_on channel=0 note=46 velocity=123 time=0>, 24960], [<message note_on channel=0 note=58 velocity=119 time=0>, 24960], [<message note_on channel=1 note=34 velocity=125 time=116>, 24960], [<message note_off channel=9 note=42 velocity=121 time=86>, 25044], [<message note_on channel=0 note=53 velocity=115 time=96>, 25056], [<message note_off channel=0 note=58 velocity=119 time=34>, 25090], [<message note_off channel=9 note=35 velocity=124 time=96>, 25140], [<message note_on channel=9 note=42 velocity=122 time=8>, 25148], [<message note_on channel=9 note=40 velocity=124 time=2>, 25150], [<message note_on channel=0 note=58 velocity=117 time=62>, 25152], [<message note_off channel=9 note=42 velocity=122 time=44>, 25194], [<message note_off channel=1 note=34 velocity=125 time=238>, 25198], [<message note_on channel=9 note=35 velocity=119 time=50>, 25244], [<message note_on channel=9 note=42 velocity=116 time=2>, 25246], [<message note_on channel=0 note=62 velocity=115 time=96>, 25248], [<message note_on channel=1 note=34 velocity=122 time=54>, 25252], [<message note_off channel=9 note=35 velocity=119 time=20>, 25266], [<message note_off channel=9 note=42 velocity=116 time=6>, 25272], [<message note_off channel=1 note=34 velocity=122 time=38>, 25290], [<message note_on channel=1 note=34 velocity=124 time=52>, 25342], [<message note_on channel=9 note=35 velocity=124 time=70>, 25342], [<message note_on channel=9 note=42 velocity=122 time=0>, 25342], [<message note_on channel=0 note=67 velocity=116 time=96>, 25344], [<message note_on channel=0 note=79 velocity=116 time=0>, 25344], [<message note_off channel=0 note=53 velocity=115 time=30>, 25374], [<message note_off channel=9 note=42 velocity=122 time=36>, 25378], [<message note_on channel=9 note=42 velocity=114 time=60>, 25438], [<message note_on channel=0 note=53 velocity=101 time=66>, 25440], [<message note_off channel=9 note=40 velocity=124 time=16>, 25454], [<message note_off channel=9 note=42 velocity=114 time=10>, 25464], [<message note_on channel=9 note=40 velocity=124 time=70>, 25534], [<message note_on channel=9 note=42 velocity=123 time=0>, 25534], [<message note_on channel=0 note=65 velocity=117 time=96>, 25536], [<message note_on channel=0 note=77 velocity=118 time=0>, 25536], [<message note_off channel=0 note=53 velocity=101 time=12>, 25548], [<message note_off channel=0 note=62 velocity=115 time=22>, 25570], [<message note_off channel=9 note=42 velocity=123 time=48>, 25582], [<message note_on channel=9 note=42 velocity=114 time=48>, 25630], [<message note_on channel=0 note=53 velocity=107 time=62>, 25632], [<message note_off channel=0 note=58 velocity=117 time=6>, 25638], [<message note_off channel=9 note=42 velocity=114 time=28>, 25658], [<message note_off channel=9 note=35 velocity=124 time=2>, 25660], [<message note_off channel=0 note=34 velocity=121 time=36>, 25674], [<message note_off channel=1 note=34 velocity=124 time=332>, 25674], [<message note_off channel=0 note=65 velocity=117 time=36>, 25710], [<message note_off channel=0 note=77 velocity=118 time=8>, 25718], [<message note_on channel=1 note=34 velocity=125 time=52>, 25726], [<message note_on channel=9 note=35 velocity=123 time=66>, 25726], [<message note_on channel=9 note=42 velocity=122 time=0>, 25726], [<message note_on channel=0 note=34 velocity=123 time=10>, 25728], [<message note_on channel=0 note=58 velocity=118 time=0>, 25728], [<message note_on channel=0 note=62 velocity=123 time=0>, 25728], [<message note_off channel=0 note=53 velocity=107 time=12>, 25740], [<message note_off channel=0 note=79 velocity=116 time=6>, 25746], [<message note_off channel=9 note=49 velocity=124 time=24>, 25750], [<message note_off channel=9 note=42 velocity=122 time=18>, 25768], [<message note_on channel=9 note=42 velocity=113 time=54>, 25822], [<message note_on channel=0 note=53 velocity=104 time=78>, 25824], [<message note_off channel=0 note=62 velocity=123 time=16>, 25840], [<message note_off channel=0 note=58 velocity=118 time=2>, 25842], [<message note_off channel=9 note=40 velocity=124 time=22>, 25844], [<message note_off channel=9 note=42 velocity=113 time=8>, 25852], [<message note_on channel=9 note=40 velocity=124 time=66>, 25918], [<message note_on channel=9 note=42 velocity=122 time=0>, 25918], [<message note_on channel=0 note=58 velocity=113 time=78>, 25920], [<message note_off channel=1 note=34 velocity=125 time=226>, 25952], [<message note_off channel=9 note=35 velocity=123 time=34>, 25952], [<message note_off channel=9 note=42 velocity=122 time=6>, 25958], [<message note_on channel=1 note=34 velocity=125 time=62>, 26014], [<message note_on channel=9 note=35 velocity=121 time=56>, 26014], [<message note_on channel=9 note=42 velocity=116 time=0>, 26014], [<message note_on channel=0 note=62 velocity=116 time=96>, 26016], [<message note_off channel=0 note=67 velocity=116 time=8>, 26024], [<message note_off channel=9 note=42 velocity=116 time=26>, 26040], [<message note_off channel=9 note=35 velocity=121 time=2>, 26042], [<message note_off channel=1 note=34 velocity=125 time=38>, 26052], [<message note_on channel=1 note=34 velocity=125 time=58>, 26110], [<message note_on channel=9 note=35 velocity=123 time=68>, 26110], [<message note_on channel=9 note=42 velocity=120 time=0>, 26110], [<message note_on channel=0 note=67 velocity=116 time=88>, 26112], [<message note_on channel=0 note=79 velocity=116 time=0>, 26112], [<message note_off channel=0 note=53 velocity=104 time=22>, 26134], [<message note_off channel=9 note=42 velocity=120 time=36>, 26146], [<message note_on channel=9 note=42 velocity=115 time=60>, 26206], [<message note_on channel=0 note=53 velocity=108 time=74>, 26208], [<message note_off channel=9 note=40 velocity=124 time=4>, 26210], [<message note_off channel=9 note=42 velocity=115 time=26>, 26236], [<message note_off channel=0 note=62 velocity=116 time=30>, 26238], [<message note_on channel=1 note=29 velocity=123 time=192>, 26302], [<message note_on channel=9 note=40 velocity=124 time=66>, 26302], [<message note_on channel=9 note=42 velocity=121 time=0>, 26302], [<message note_on channel=0 note=65 velocity=118 time=66>, 26304], [<message note_on channel=0 note=77 velocity=118 time=0>, 26304], [<message note_off channel=1 note=34 velocity=125 time=8>, 26310], [<message note_off channel=9 note=42 velocity=121 time=22>, 26324], [<message note_off channel=0 note=53 velocity=108 time=24>, 26328], [<message note_on channel=9 note=42 velocity=120 time=26>, 26350], [<message note_off channel=0 note=58 velocity=113 time=68>, 26396], [<message note_off channel=9 note=42 velocity=120 time=48>, 26398], [<message note_on channel=9 note=46 velocity=120 time=0>, 26398], [<message note_on channel=0 note=53 velocity=115 time=4>, 26400], [<message note_off channel=9 note=35 velocity=123 time=20>, 26418], [<message note_off channel=0 note=34 velocity=123 time=26>, 26426], [<message note_off channel=0 note=46 velocity=123 time=2>, 26428], [<message note_off channel=0 note=77 velocity=118 time=58>, 26486], [<message note_off channel=0 note=65 velocity=118 time=0>, 26486], [<message note_on channel=4 note=62 velocity=122 time=26254>, 26494], [<message note_off channel=1 note=29 velocity=123 time=184>, 26494], [<message note_on channel=1 note=34 velocity=125 time=0>, 26494], [<message note_on channel=9 note=35 velocity=123 time=76>, 26494], [<message note_on channel=9 note=49 velocity=123 time=0>, 26494], [<message note_on channel=0 note=34 velocity=123 time=10>, 26496], [<message note_on channel=0 note=46 velocity=123 time=0>, 26496], [<message note_on channel=0 note=58 velocity=122 time=0>, 26496], [<message note_on channel=0 note=62 velocity=122 time=0>, 26496], [<message note_off channel=9 note=46 velocity=120 time=6>, 26500], [<message note_off channel=0 note=53 velocity=115 time=6>, 26502], [<message note_off channel=0 note=79 velocity=116 time=12>, 26514], [<message note_off channel=0 note=67 velocity=116 time=0>, 26514], [<message pitchwheel channel=4 pitch=-1792 time=70>, 26564], [<message pitchwheel channel=4 pitch=-6400 time=8>, 26572], [<message note_off channel=0 note=58 velocity=122 time=64>, 26578], [<message pitchwheel channel=4 pitch=-7680 time=8>, 26580], [<message pitchwheel channel=4 pitch=0 time=8>, 26588], [<message note_on channel=9 note=42 velocity=113 time=90>, 26590], [<message note_on channel=0 note=53 velocity=113 time=14>, 26592], [<message note_off channel=9 note=40 velocity=124 time=10>, 26600], [<message note_off channel=9 note=42 velocity=113 time=20>, 26620], [<message note_on channel=9 note=40 velocity=124 time=66>, 26686], [<message note_on channel=9 note=42 velocity=123 time=0>, 26686], [<message note_on channel=0 note=58 velocity=115 time=96>, 26688], [<message note_off channel=0 note=62 velocity=122 time=2>, 26690], [<message note_off channel=1 note=34 velocity=125 time=222>, 26716], [<message note_off channel=9 note=35 velocity=123 time=32>, 26718], [<message note_off channel=9 note=42 velocity=123 time=16>, 26734], [<message note_on channel=1 note=34 velocity=122 time=66>, 26782], [<message note_on channel=9 note=35 velocity=120 time=48>, 26782], [<message note_on channel=9 note=42 velocity=117 time=0>, 26782], [<message note_on channel=0 note=62 velocity=115 time=94>, 26784], [<message note_off channel=9 note=35 velocity=120 time=28>, 26810], [<message note_off channel=9 note=42 velocity=117 time=6>, 26816], [<message note_off channel=1 note=34 velocity=122 time=40>, 26822], [<message note_on channel=1 note=34 velocity=125 time=56>, 26878], [<message note_on channel=9 note=35 velocity=123 time=62>, 26878], [<message note_on channel=9 note=42 velocity=115 time=0>, 26878], [<message note_on channel=0 note=67 velocity=117 time=96>, 26880], [<message note_on channel=0 note=79 velocity=116 time=0>, 26880], [<message note_off channel=0 note=53 velocity=113 time=10>, 26890], [<message note_off channel=9 note=42 velocity=115 time=44>, 26922], [<message note_off channel=9 note=49 velocity=123 time=4>, 26926], [<message pitchwheel channel=4 pitch=-384 time=362>, 26950], [<message pitchwheel channel=4 pitch=0 time=12>, 26962], [<message note_on channel=9 note=42 velocity=114 time=48>, 26974], [<message note_on channel=0 note=53 velocity=115 time=86>, 26976], [<message note_off channel=9 note=40 velocity=124 time=6>, 26980], [<message note_off channel=9 note=42 velocity=114 time=24>, 27004], [<message control_change channel=4 control=1 value=20 time=80>, 27042], [<message control_change channel=4 control=1 value=60 time=16>, 27058], [<message note_on channel=9 note=40 velocity=124 time=66>, 27070], [<message note_on channel=9 note=42 velocity=123 time=0>, 27070], [<message note_on channel=0 note=65 velocity=120 time=96>, 27072], [<message note_on channel=0 note=77 velocity=118 time=0>, 27072], [<message control_change channel=4 control=1 value=76 time=16>, 27074], [<message note_off channel=0 note=62 velocity=115 time=8>, 27080], [<message control_change channel=4 control=1 value=82 time=16>, 27090], [<message control_change channel=4 control=1 value=100 time=16>, 27106], [<message note_off channel=9 note=42 velocity=123 time=46>, 27116], [<message control_change channel=4 control=1 value=73 time=16>, 27122], [<message note_off channel=0 note=53 velocity=115 time=46>, 27126], [<message control_change channel=4 control=0 value=40 time=8>, 27130], [<message control_change channel=4 control=1 value=0 time=8>, 27138], [<message note_on channel=9 note=42 velocity=114 time=50>, 27166], [<message note_off channel=4 note=62 velocity=122 time=30>, 27168], [<message note_on channel=0 note=53 velocity=114 time=42>, 27168], [<message note_on channel=4 note=58 velocity=123 time=4>, 27172], [<message note_off channel=0 note=58 velocity=115 time=6>, 27174], [<message note_off channel=9 note=35 velocity=123 time=18>, 27184], [<message note_off channel=9 note=42 velocity=114 time=16>, 27200], [<message note_off channel=4 note=58 velocity=123 time=70>, 27242], [<message note_off channel=0 note=77 velocity=118 time=80>, 27254], [<message note_on channel=4 note=60 velocity=123 time=18>, 27260], [<message note_off channel=0 note=46 velocity=123 time=6>, 27260], [<message note_off channel=1 note=34 velocity=125 time=382>, 27260], [<message note_on channel=1 note=31 velocity=125 time=2>, 27262], [<message note_on channel=9 note=35 velocity=123 time=62>, 27262], [<message note_on channel=9 note=42 velocity=120 time=0>, 27262], [<message note_on channel=0 note=43 velocity=122 time=4>, 27264], [<message note_on channel=0 note=58 velocity=120 time=0>, 27264], [<message note_on channel=0 note=62 velocity=123 time=0>, 27264], [<message note_off channel=0 note=34 velocity=123 time=2>, 27266], [<message note_off channel=0 note=53 velocity=114 time=2>, 27268], [<message note_off channel=0 note=65 velocity=120 time=4>, 27272], [<message note_off channel=0 note=67 velocity=117 time=8>, 27280], [<message note_off channel=0 note=79 velocity=116 time=2>, 27282], [<message note_off channel=9 note=42 velocity=120 time=36>, 27298], [<message note_off channel=4 note=60 velocity=123 time=84>, 27344], [<message note_on channel=4 note=62 velocity=123 time=6>, 27350], [<message note_off channel=9 note=40 velocity=124 time=54>, 27352], [<message note_on channel=9 note=42 velocity=115 time=6>, 27358], [<message note_on channel=0 note=55 velocity=116 time=78>, 27360], [<message note_off channel=0 note=58 velocity=120 time=14>, 27374], [<message note_off channel=9 note=42 velocity=115 time=26>, 27384], [<message pitchwheel channel=4 pitch=-2816 time=42>, 27392], [<message pitchwheel channel=4 pitch=-4736 time=8>, 27400], [<message pitchwheel channel=4 pitch=-3072 time=10>, 27410], [<message pitchwheel channel=4 pitch=0 time=8>, 27418], [<message note_on channel=9 note=40 velocity=124 time=70>, 27454], [<message note_on channel=9 note=42 velocity=123 time=0>, 27454], [<message note_on channel=0 note=58 velocity=117 time=82>, 27456], [<message note_off channel=0 note=62 velocity=123 time=20>, 27476], [<message note_off channel=9 note=35 velocity=123 time=26>, 27480], [<message note_off channel=1 note=31 velocity=125 time=220>, 27482], [<message note_off channel=9 note=42 velocity=123 time=22>, 27502], [<message note_on channel=1 note=31 velocity=123 time=68>, 27550], [<message note_on channel=9 note=35 velocity=121 time=48>, 27550], [<message note_on channel=9 note=42 velocity=116 time=0>, 27550], [<message note_on channel=0 note=62 velocity=118 time=76>, 27552], [<message note_off channel=9 note=35 velocity=121 time=26>, 27576], [<message note_off channel=9 note=42 velocity=116 time=8>, 27584], [<message control_change channel=4 control=1 value=11 time=170>, 27588], [<message note_off channel=1 note=31 velocity=123 time=46>, 27596], [<message control_change channel=4 control=1 value=28 time=16>, 27604], [<message control_change channel=4 control=1 value=41 time=16>, 27620], [<message control_change channel=4 control=1 value=53 time=16>, 27636], [<message note_on channel=1 note=31 velocity=124 time=50>, 27646], [<message note_on channel=9 note=35 velocity=123 time=62>, 27646], [<message note_on channel=9 note=42 velocity=121 time=0>, 27646], [<message note_on channel=0 note=69 velocity=117 time=96>, 27648], [<message note_on channel=0 note=81 velocity=116 time=0>, 27648], [<message control_change channel=4 control=1 value=75 time=16>, 27652], [<message control_change channel=4 control=1 value=77 time=18>, 27670], [<message note_off channel=9 note=42 velocity=121 time=30>, 27676], [<message note_off channel=0 note=55 velocity=116 time=42>, 27690], [<message control_change channel=4 control=1 value=86 time=32>, 27702], [<message control_change channel=4 control=1 value=96 time=16>, 27718], [<message note_on channel=9 note=42 velocity=116 time=66>, 27742], [<message note_on channel=0 note=55 velocity=117 time=54>, 27744], [<message control_change channel=4 control=1 value=101 time=34>, 27752], [<message note_off channel=0 note=69 velocity=117 time=8>, 27752], [<message note_off channel=9 note=40 velocity=124 time=14>, 27756], [<message note_off channel=9 note=42 velocity=116 time=4>, 27760], [<message control_change channel=4 control=1 value=97 time=18>, 27770], [<message control_change channel=4 control=1 value=61 time=16>, 27786], [<message control_change channel=4 control=1 value=0 time=16>, 27802], [<message note_off channel=4 note=62 velocity=123 time=4>, 27806], [<message note_on channel=9 note=40 velocity=124 time=78>, 27838], [<message note_on channel=9 note=42 velocity=123 time=0>, 27838], [<message note_on channel=0 note=67 velocity=121 time=88>, 27840], [<message note_on channel=0 note=79 velocity=118 time=0>, 27840], [<message note_off channel=0 note=62 velocity=118 time=4>, 27844], [<message note_off channel=9 note=42 velocity=123 time=40>, 27878], [<message note_on channel=9 note=42 velocity=116 time=56>, 27934], [<message note_on channel=0 note=62 velocity=117 time=92>, 27936], [<message note_on channel=4 note=62 velocity=122 time=132>, 27938], [<message note_off channel=9 note=35 velocity=123 time=20>, 27954], [<message note_off channel=0 note=58 velocity=117 time=22>, 27958], [<message note_off channel=9 note=42 velocity=116 time=12>, 27966], [<message note_off channel=0 note=62 velocity=117 time=10>, 27968], [<message note_off channel=4 note=62 velocity=122 time=84>, 28022], [<message note_off channel=0 note=79 velocity=118 time=54>, 28022], [<message note_off channel=0 note=55 velocity=117 time=2>, 28024], [<message note_on channel=1 note=36 velocity=124 time=384>, 28030], [<message note_on channel=9 note=35 velocity=124 time=64>, 28030], [<message note_on channel=9 note=42 velocity=120 time=0>, 28030], [<message note_on channel=4 note=63 velocity=122 time=10>, 28032], [<message note_on channel=0 note=36 velocity=123 time=8>, 28032], [<message note_on channel=0 note=48 velocity=123 time=0>, 28032], [<message note_on channel=0 note=60 velocity=123 time=0>, 28032], [<message note_on channel=0 note=63 velocity=123 time=0>, 28032], [<message note_off channel=0 note=43 velocity=122 time=4>, 28036], [<message note_off channel=1 note=31 velocity=124 time=10>, 28040], [<message note_off channel=0 note=81 velocity=116 time=14>, 28050], [<message note_off channel=0 note=67 velocity=121 time=2>, 28052], [<message note_off channel=9 note=42 velocity=120 time=38>, 28068], [<message note_off channel=0 note=60 velocity=123 time=68>, 28120], [<message note_off channel=4 note=63 velocity=122 time=90>, 28122], [<message note_on channel=9 note=42 velocity=116 time=58>, 28126], [<message note_on channel=0 note=60 velocity=119 time=8>, 28128], [<message note_on channel=4 note=65 velocity=122 time=8>, 28130], [<message note_off channel=9 note=40 velocity=124 time=6>, 28132], [<message note_off channel=9 note=42 velocity=116 time=20>, 28152], [<message note_off channel=0 note=63 velocity=123 time=40>, 28168], [<message note_on channel=4 note=63 velocity=123 time=46>, 28176], [<message note_off channel=4 note=65 velocity=122 time=22>, 28198], [<message note_on channel=9 note=40 velocity=124 time=70>, 28222], [<message note_on channel=9 note=42 velocity=123 time=0>, 28222], [<message note_on channel=0 note=63 velocity=117 time=56>, 28224], [<message note_off channel=1 note=36 velocity=124 time=204>, 28244], [<message note_off channel=9 note=35 velocity=124 time=38>, 28260], [<message note_off channel=9 note=42 velocity=123 time=8>, 28268], [<message note_off channel=4 note=63 velocity=123 time=74>, 28272], [<message note_on channel=4 note=62 velocity=122 time=0>, 28272], [<message note_on channel=1 note=36 velocity=122 time=74>, 28318], [<message note_on channel=9 note=35 velocity=120 time=50>, 28318], [<message note_on channel=9 note=42 velocity=117 time=0>, 28318], [<message note_on channel=0 note=67 velocity=109 time=96>, 28320], [<message note_off channel=4 note=62 velocity=122 time=54>, 28326], [<message note_on channel=4 note=60 velocity=122 time=2>, 28328], [<message note_off channel=9 note=42 velocity=117 time=32>, 28350], [<message note_off channel=9 note=35 velocity=120 time=0>, 28350], [<message note_off channel=1 note=36 velocity=122 time=38>, 28356], [<message note_on channel=1 note=36 velocity=125 time=58>, 28414], [<message note_on channel=9 note=35 velocity=123 time=64>, 28414], [<message note_on channel=9 note=42 velocity=120 time=0>, 28414], [<message note_on channel=0 note=74 velocity=116 time=96>, 28416], [<message note_on channel=0 note=86 velocity=116 time=0>, 28416], [<message note_off channel=0 note=60 velocity=119 time=28>, 28444], [<message note_off channel=9 note=42 velocity=120 time=32>, 28446], [<message control_change channel=4 control=1 value=1 time=142>, 28470], [<message control_change channel=4 control=1 value=33 time=16>, 28486], [<message control_change channel=4 control=1 value=51 time=16>, 28502], [<message note_on channel=9 note=42 velocity=113 time=64>, 28510], [<message note_on channel=0 note=60 velocity=119 time=68>, 28512], [<message control_change channel=4 control=1 value=76 time=18>, 28520], [<message note_off channel=0 note=74 velocity=116 time=14>, 28526], [<message note_off channel=9 note=40 velocity=124 time=16>, 28526], [<message control_change channel=4 control=1 value=103 time=16>, 28536], [<message note_off channel=9 note=42 velocity=113 time=10>, 28536], [<message control_change channel=4 control=1 value=121 time=16>, 28552], [<message control_change channel=4 control=1 value=107 time=16>, 28568], [<message control_change channel=4 control=1 value=65 time=16>, 28584], [<message note_off channel=4 note=60 velocity=122 time=2>, 28586], [<message control_change channel=4 control=1 value=0 time=14>, 28600], [<message note_on channel=9 note=40 velocity=124 time=70>, 28606], [<message note_on channel=9 note=42 velocity=122 time=0>, 28606], [<message note_on channel=0 note=72 velocity=121 time=82>, 28608], [<message note_on channel=0 note=84 velocity=118 time=0>, 28608], [<message note_off channel=0 note=67 velocity=109 time=16>, 28624], [<message note_off channel=9 note=42 velocity=122 time=42>, 28648], [<message note_off channel=0 note=63 velocity=117 time=46>, 28670], [<message note_on channel=4 note=60 velocity=122 time=98>, 28698], [<message note_off channel=1 note=36 velocity=125 time=286>, 28700], [<message note_on channel=1 note=31 velocity=123 time=2>, 28702], [<message note_on channel=9 note=42 velocity=118 time=54>, 28702], [<message note_on channel=0 note=63 velocity=121 time=34>, 28704], [<message note_off channel=9 note=35 velocity=123 time=26>, 28728], [<message note_off channel=9 note=42 velocity=118 time=2>, 28730], [<message note_off channel=0 note=48 velocity=123 time=40>, 28744], [<message note_on channel=4 note=62 velocity=122 time=50>, 28748], [<message note_off channel=0 note=36 velocity=123 time=10>, 28754], [<message note_off channel=4 note=60 velocity=122 time=12>, 28760], [<message note_off channel=0 note=84 velocity=118 time=36>, 28790], [<message note_off channel=4 note=62 velocity=122 time=38>, 28798], [<message note_on channel=1 note=36 velocity=125 time=96>, 28798], [<message note_on channel=9 note=35 velocity=123 time=68>, 28798], [<message note_on channel=9 note=42 velocity=120 time=0>, 28798], [<message note_on channel=0 note=36 velocity=123 time=10>, 28800], [<message note_on channel=0 note=48 velocity=123 time=0>, 28800], [<message note_on channel=0 note=67 velocity=123 time=0>, 28800], [<message note_on channel=4 note=63 velocity=122 time=4>, 28802], [<message note_off channel=1 note=31 velocity=123 time=10>, 28808], [<message note_off channel=0 note=60 velocity=119 time=12>, 28812], [<message note_off channel=0 note=86 velocity=116 time=6>, 28818], [<message note_off channel=9 note=42 velocity=120 time=38>, 28836], [<message note_off channel=4 note=63 velocity=122 time=78>, 28880], [<message note_off channel=0 note=63 velocity=121 time=68>, 28886], [<message note_on channel=4 note=65 velocity=122 time=8>, 28888], [<message note_on channel=9 note=42 velocity=113 time=58>, 28894], [<message note_on channel=0 note=60 velocity=114 time=10>, 28896], [<message note_off channel=9 note=40 velocity=124 time=2>, 28896], [<message note_off channel=0 note=36 velocity=123 time=16>, 28912], [<message note_off channel=9 note=42 velocity=113 time=18>, 28914], [<message note_on channel=0 note=36 velocity=99 time=32>, 28944], [<message note_on channel=4 note=63 velocity=122 time=60>, 28948], [<message note_off channel=4 note=65 velocity=122 time=10>, 28958], [<message note_off channel=0 note=67 velocity=123 time=38>, 28982], [<message note_on channel=9 note=40 velocity=124 time=76>, 28990], [<message note_on channel=9 note=42 velocity=122 time=0>, 28990], [<message note_on channel=0 note=63 velocity=118 time=10>, 28992], [<message note_off channel=0 note=36 velocity=99 time=10>, 29002], [<message note_off channel=9 note=35 velocity=123 time=30>, 29020], [<message note_on channel=4 note=62 velocity=122 time=64>, 29022], [<message note_off channel=9 note=42 velocity=122 time=2>, 29022], [<message note_off channel=4 note=63 velocity=122 time=4>, 29026], [<message note_off channel=4 note=62 velocity=122 time=44>, 29070], [<message pitchwheel channel=4 pitch=-256 time=2>, 29072], [<message pitchwheel channel=4 pitch=-1792 time=8>, 29080], [<message note_off channel=1 note=36 velocity=125 time=272>, 29080], [<message note_off channel=0 note=60 velocity=114 time=80>, 29082], [<message note_on channel=1 note=31 velocity=123 time=6>, 29086], [<message note_on channel=9 note=35 velocity=121 time=64>, 29086], [<message note_on channel=9 note=46 velocity=120 time=0>, 29086], [<message pitchwheel channel=4 pitch=-2944 time=8>, 29088], [<message note_off channel=0 note=63 velocity=118 time=6>, 29088], [<message note_on channel=0 note=67 velocity=117 time=0>, 29088], [<message note_on channel=4 note=62 velocity=122 time=2>, 29090], [<message pitchwheel channel=4 pitch=-4608 time=6>, 29096], [<message pitchwheel channel=4 pitch=-4480 time=10>, 29106], [<message pitchwheel channel=4 pitch=0 time=8>, 29114], [<message note_off channel=9 note=35 velocity=121 time=30>, 29116], [<message note_on channel=1 note=30 velocity=120 time=48>, 29134], [<message note_off channel=1 note=31 velocity=123 time=6>, 29140], [<message note_off channel=0 note=72 velocity=121 time=80>, 29168], [<message note_off channel=0 note=48 velocity=123 time=8>, 29176], [<message note_off channel=9 note=46 velocity=120 time=60>, 29176], [<message note_off channel=4 note=62 velocity=122 time=64>, 29178], [<message note_on channel=4 note=60 velocity=122 time=0>, 29178], [<message note_off channel=0 note=67 velocity=117 time=2>, 29178], [<message note_on channel=1 note=29 velocity=125 time=42>, 29182], [<message note_on channel=9 note=35 velocity=123 time=6>, 29182], [<message note_on channel=9 note=42 velocity=121 time=0>, 29182], [<message note_on channel=0 note=41 velocity=113 time=6>, 29184], [<message note_on channel=0 note=53 velocity=121 time=0>, 29184], [<message note_on channel=0 note=69 velocity=123 time=0>, 29184], [<message note_off channel=1 note=30 velocity=120 time=12>, 29194], [<message note_off channel=9 note=40 velocity=124 time=14>, 29196], [<message note_off channel=9 note=42 velocity=121 time=16>, 29212], [<message note_on channel=9 note=40 velocity=124 time=66>, 29278], [<message note_on channel=0 note=63 velocity=117 time=96>, 29280], [<message note_off channel=9 note=40 velocity=124 time=40>, 29318], [<message note_off channel=1 note=29 velocity=125 time=178>, 29372], [<message note_on channel=1 note=29 velocity=125 time=2>, 29374], [<message note_on channel=9 note=42 velocity=116 time=56>, 29374], [<message note_on channel=9 note=43 velocity=124 time=0>, 29374], [<message note_on channel=0 note=65 velocity=119 time=96>, 29376], [<message note_off channel=9 note=35 velocity=123 time=38>, 29412], [<message note_off channel=9 note=43 velocity=124 time=2>, 29414], [<message note_off channel=9 note=42 velocity=116 time=8>, 29422], [<message note_on channel=9 note=45 velocity=122 time=0>, 29422], [<message note_off channel=0 note=63 velocity=117 time=84>, 29460], [<message note_off channel=0 note=69 velocity=123 time=0>, 29460], [<message note_on channel=9 note=35 velocity=123 time=48>, 29470], [<message note_on channel=0 note=72 velocity=119 time=12>, 29472], [<message note_off channel=0 note=65 velocity=119 time=10>, 29482], [<message note_off channel=9 note=45 velocity=122 time=22>, 29492], [<message note_off channel=0 note=72 velocity=119 time=18>, 29500], [<message note_off channel=9 note=35 velocity=123 time=32>, 29524], [<message note_off channel=4 note=60 velocity=122 time=382>, 29560], [<message note_off channel=1 note=29 velocity=125 time=192>, 29566], [<message note_on channel=1 note=34 velocity=125 time=0>, 29566], [<message note_on channel=9 note=35 velocity=123 time=42>, 29566], [<message note_on channel=9 note=49 velocity=122 time=0>, 29566], [<message note_off channel=0 note=53 velocity=121 time=68>, 29568], [<message note_on channel=0 note=46 velocity=121 time=0>, 29568], [<message note_on channel=0 note=58 velocity=119 time=0>, 29568], [<message note_on channel=0 note=62 velocity=122 time=0>, 29568], [<message note_on channel=4 note=62 velocity=122 time=10>, 29570], [<message note_off channel=0 note=41 velocity=113 time=8>, 29576], [<message pitchwheel channel=4 pitch=-1408 time=74>, 29644], [<message pitchwheel channel=4 pitch=-3200 time=8>, 29652], [<message pitchwheel channel=4 pitch=-3584 time=8>, 29660], [<message note_on channel=9 note=42 velocity=111 time=96>, 29662], [<message note_on channel=0 note=53 velocity=113 time=88>, 29664], [<message pitchwheel channel=4 pitch=0 time=8>, 29668], [<message note_off channel=0 note=58 velocity=119 time=18>, 29682], [<message note_off channel=9 note=42 velocity=111 time=48>, 29710], [<message note_on channel=9 note=40 velocity=123 time=48>, 29758], [<message note_on channel=9 note=42 velocity=122 time=0>, 29758], [<message note_on channel=0 note=58 velocity=118 time=78>, 29760], [<message note_off channel=0 note=62 velocity=122 time=20>, 29780], [<message note_off channel=9 note=35 velocity=123 time=24>, 29782], [<message note_off channel=9 note=42 velocity=122 time=16>, 29798], [<message note_off channel=1 note=34 velocity=125 time=242>, 29808], [<message note_on channel=1 note=34 velocity=121 time=46>, 29854], [<message note_on channel=9 note=35 velocity=121 time=56>, 29854], [<message note_on channel=9 note=42 velocity=113 time=0>, 29854], [<message note_on channel=4 note=60 velocity=122 time=188>, 29856], [<message note_on channel=0 note=62 velocity=120 time=76>, 29856], [<message note_off channel=4 note=62 velocity=122 time=8>, 29864], [<message note_off channel=9 note=42 velocity=113 time=28>, 29882], [<message note_off channel=9 note=35 velocity=121 time=8>, 29890], [<message note_off channel=4 note=60 velocity=122 time=38>, 29902], [<message note_on channel=4 note=58 velocity=122 time=0>, 29902], [<message note_off channel=1 note=34 velocity=121 time=72>, 29926], [<message note_off channel=4 note=58 velocity=122 time=36>, 29938], [<message note_on channel=4 note=60 velocity=122 time=10>, 29948], [<message note_on channel=1 note=34 velocity=125 time=24>, 29950], [<message note_on channel=9 note=35 velocity=124 time=60>, 29950], [<message note_on channel=9 note=42 velocity=120 time=0>, 29950], [<message note_on channel=0 note=67 velocity=120 time=96>, 29952], [<message note_on channel=0 note=79 velocity=116 time=0>, 29952], [<message note_off channel=0 note=53 velocity=113 time=14>, 29966], [<message note_off channel=9 note=42 velocity=120 time=36>, 29986], [<message note_off channel=4 note=60 velocity=122 time=54>, 30002], [<message note_on channel=4 note=62 velocity=122 time=2>, 30004], [<message note_off channel=4 note=62 velocity=122 time=34>, 30038], [<message note_on channel=9 note=42 velocity=115 time=60>, 30046], [<message note_on channel=0 note=53 velocity=116 time=82>, 30048], [<message note_off channel=9 note=40 velocity=123 time=16>, 30062], [<message note_off channel=9 note=42 velocity=115 time=16>, 30078], [<message note_off channel=0 note=62 velocity=120 time=92>, 30140], [<message note_on channel=9 note=40 velocity=124 time=64>, 30142], [<message note_on channel=9 note=42 velocity=123 time=0>, 30142], [<message note_on channel=0 note=65 velocity=119 time=4>, 30144], [<message note_on channel=0 note=77 velocity=118 time=0>, 30144], [<message note_off channel=0 note=53 velocity=116 time=12>, 30156], [<message note_off channel=9 note=42 velocity=123 time=40>, 30182], [<message note_off channel=9 note=49 velocity=122 time=8>, 30190], [<message note_on channel=4 note=65 velocity=122 time=198>, 30236], [<message note_on channel=9 note=42 velocity=116 time=48>, 30238], [<message note_on channel=0 note=53 velocity=112 time=84>, 30240], [<message note_off channel=0 note=58 velocity=118 time=4>, 30244], [<message note_off channel=9 note=42 velocity=116 time=28>, 30266], [<message note_off channel=9 note=35 velocity=124 time=0>, 30266], [<message note_off channel=4 note=65 velocity=122 time=32>, 30268], [<message note_off channel=1 note=34 velocity=125 time=374>, 30324], [<message note_off channel=0 note=53 velocity=112 time=82>, 30326], [<message note_off channel=0 note=77 velocity=118 time=0>, 30326], [<message note_on channel=4 note=67 velocity=122 time=64>, 30332], [<message note_off channel=0 note=65 velocity=119 time=6>, 30332], [<message note_on channel=1 note=31 velocity=125 time=10>, 30334], [<message note_on channel=9 note=35 velocity=124 time=68>, 30334], [<message note_on channel=9 note=42 velocity=121 time=0>, 30334], [<message note_on channel=0 note=43 velocity=120 time=4>, 30336], [<message note_on channel=0 note=58 velocity=122 time=0>, 30336], [<message note_on channel=0 note=62 velocity=123 time=0>, 30336], [<message note_off channel=0 note=46 velocity=121 time=2>, 30338], [<message pitchwheel channel=4 pitch=2730 time=18>, 30350], [<message note_off channel=0 note=79 velocity=116 time=16>, 30354], [<message note_off channel=0 note=67 velocity=120 time=0>, 30354], [<message pitchwheel channel=4 pitch=5850 time=8>, 30358], [<message note_on channel=0 note=60 velocity=109 time=4>, 30358], [<message note_off channel=0 note=60 velocity=109 time=2>, 30360], [<message pitchwheel channel=4 pitch=8190 time=8>, 30366], [<message note_off channel=9 note=42 velocity=121 time=38>, 30372], [<message note_on channel=9 note=42 velocity=116 time=58>, 30430], [<message note_on channel=0 note=55 velocity=117 time=72>, 30432], [<message note_off channel=9 note=40 velocity=124 time=10>, 30440], [<message note_off channel=0 note=58 velocity=122 time=16>, 30448], [<message note_off channel=9 note=42 velocity=116 time=20>, 30460], [<message pitchwheel channel=4 pitch=7410 time=96>, 30462], [<message pitchwheel channel=4 pitch=4550 time=8>, 30470], [<message pitchwheel channel=4 pitch=0 time=8>, 30478], [<message note_off channel=4 note=67 velocity=122 time=20>, 30498], [<message note_on channel=4 note=65 velocity=122 time=0>, 30498], [<message note_on channel=4 note=67 velocity=122 time=20>, 30518], [<message note_off channel=1 note=31 velocity=125 time=186>, 30520], [<message note_off channel=4 note=65 velocity=122 time=8>, 30526], [<message note_on channel=1 note=34 velocity=124 time=6>, 30526], [<message note_on channel=9 note=40 velocity=124 time=66>, 30526], [<message note_on channel=9 note=42 velocity=122 time=0>, 30526], [<message note_on channel=0 note=58 velocity=121 time=80>, 30528], [<message note_off channel=9 note=35 velocity=124 time=26>, 30552], [<message note_off channel=0 note=62 velocity=123 time=34>, 30562], [<message note_off channel=9 note=42 velocity=122 time=14>, 30566], [<message note_on channel=1 note=38 velocity=122 time=96>, 30622], [<message note_on channel=9 note=35 velocity=118 time=56>, 30622], [<message note_on channel=9 note=42 velocity=115 time=0>, 30622], [<message note_on channel=0 note=62 velocity=120 time=62>, 30624], [<message note_off channel=1 note=34 velocity=124 time=6>, 30628], [<message note_off channel=9 note=42 velocity=115 time=34>, 30656], [<message note_off channel=9 note=35 velocity=118 time=2>, 30658], [<message note_on channel=1 note=43 velocity=125 time=90>, 30718], [<message note_on channel=9 note=35 velocity=124 time=60>, 30718], [<message note_on channel=9 note=42 velocity=121 time=0>, 30718], [<message note_on channel=0 note=69 velocity=117 time=96>, 30720], [<message note_on channel=0 note=81 velocity=116 time=0>, 30720], [<message note_off channel=1 note=38 velocity=122 time=4>, 30722], [<message control_change channel=4 control=1 value=9 time=202>, 30728], [<message note_off channel=0 note=55 velocity=117 time=10>, 30730], [<message control_change channel=4 control=1 value=27 time=16>, 30744], [<message note_off channel=9 note=42 velocity=121 time=36>, 30754], [<message control_change channel=4 control=1 value=51 time=16>, 30760], [<message control_change channel=4 control=1 value=74 time=16>, 30776], [<message control_change channel=4 control=1 value=80 time=16>, 30792], [<message control_change channel=4 control=1 value=91 time=16>, 30808], [<message note_on channel=9 note=42 velocity=113 time=60>, 30814], [<message note_on channel=0 note=55 velocity=121 time=86>, 30816], [<message note_off channel=0 note=69 velocity=117 time=6>, 30822], [<message control_change channel=4 control=1 value=115 time=16>, 30824], [<message note_off channel=9 note=40 velocity=124 time=24>, 30838], [<message control_change channel=4 control=1 value=126 time=16>, 30840], [<message note_off channel=9 note=42 velocity=113 time=2>, 30840], [<message control_change channel=4 control=1 value=116 time=16>, 30856], [<message control_change channel=4 control=1 value=78 time=16>, 30872], [<message control_change channel=4 control=1 value=0 time=16>, 30888], [<message note_off channel=4 note=67 velocity=122 time=2>, 30890], [<message note_on channel=9 note=40 velocity=124 time=70>, 30910], [<message note_on channel=9 note=42 velocity=122 time=0>, 30910], [<message note_on channel=0 note=67 velocity=120 time=90>, 30912], [<message note_on channel=0 note=79 velocity=118 time=0>, 30912], [<message note_off channel=0 note=55 velocity=121 time=8>, 30920], [<message note_off channel=0 note=62 velocity=120 time=26>, 30946], [<message note_off channel=9 note=42 velocity=122 time=40>, 30950], [<message note_off channel=9 note=35 velocity=124 time=16>, 30966], [<message note_off channel=0 note=58 velocity=121 time=46>, 30992], [<message note_on channel=4 note=65 velocity=122 time=104>, 30994], [<message note_off channel=1 note=43 velocity=125 time=282>, 31004], [<message note_on channel=1 note=38 velocity=125 time=2>, 31006], [<message note_on channel=9 note=35 velocity=120 time=40>, 31006], [<message note_on channel=9 note=43 velocity=121 time=0>, 31006], [<message note_on channel=0 note=55 velocity=117 time=16>, 31008], [<message note_off channel=9 note=43 velocity=121 time=30>, 31036], [<message note_off channel=9 note=35 velocity=120 time=4>, 31040], [<message note_on channel=4 note=67 velocity=122 time=50>, 31044], [<message note_off channel=4 note=65 velocity=122 time=16>, 31060], [<message note_off channel=0 note=55 velocity=117 time=86>, 31094], [<message note_off channel=0 note=79 velocity=118 time=0>, 31094], [<message note_off channel=4 note=67 velocity=122 time=38>, 31098], [<message note_on channel=1 note=36 velocity=124 time=96>, 31102], [<message note_on channel=9 note=35 velocity=123 time=62>, 31102], [<message note_on channel=9 note=49 velocity=123 time=0>, 31102], [<message note_on channel=0 note=48 velocity=123 time=10>, 31104], [<message note_on channel=0 note=60 velocity=123 time=0>, 31104], [<message note_on channel=0 note=63 velocity=122 time=0>, 31104], [<message note_off channel=0 note=43 velocity=120 time=4>, 31108], [<message note_on channel=4 note=70 velocity=122 time=16>, 31114], [<message note_off channel=0 note=81 velocity=116 time=14>, 31122], [<message note_off channel=1 note=38 velocity=125 time=20>, 31122], [<message note_off channel=4 note=70 velocity=122 time=78>, 31192], [<message note_on channel=9 note=46 velocity=120 time=96>, 31198], [<message note_on channel=0 note=55 velocity=117 time=78>, 31200], [<message note_off channel=9 note=40 velocity=124 time=12>, 31210], [<message note_off channel=0 note=60 velocity=123 time=16>, 31216], [<message note_on channel=4 note=70 velocity=122 time=26>, 31218], [<message note_off channel=0 note=63 velocity=122 time=6>, 31222], [<message note_off channel=4 note=70 velocity=122 time=46>, 31264], [<message note_off channel=9 note=46 velocity=121 time=84>, 31294], [<message note_on channel=9 note=40 velocity=124 time=0>, 31294], [<message note_on channel=9 note=46 velocity=121 time=0>, 31294], [<message note_on channel=0 note=60 velocity=118 time=74>, 31296], [<message note_on channel=4 note=70 velocity=122 time=42>, 31306], [<message note_off channel=9 note=35 velocity=123 time=26>, 31320], [<message note_off channel=4 note=70 velocity=122 time=46>, 31352], [<message note_on channel=4 note=70 velocity=122 time=18>, 31370], [<message note_off channel=0 note=55 velocity=117 time=90>, 31386], [<message note_on channel=1 note=35 velocity=125 time=268>, 31390], [<message note_off channel=9 note=49 velocity=124 time=70>, 31390], [<message note_off channel=9 note=46 velocity=120 time=0>, 31390], [<message note_on channel=9 note=35 velocity=123 time=0>, 31390], [<message note_on channel=9 note=49 velocity=124 time=0>, 31390], [<message note_on channel=0 note=47 velocity=122 time=6>, 31392], [<message note_on channel=0 note=55 velocity=119 time=0>, 31392], [<message note_on channel=0 note=63 velocity=121 time=0>, 31392], [<message note_off channel=1 note=36 velocity=124 time=2>, 31392], [<message note_off channel=0 note=60 velocity=118 time=26>, 31418], [<message note_off channel=4 note=70 velocity=122 time=50>, 31420], [<message note_off channel=9 note=35 velocity=123 time=36>, 31426], [<message note_on channel=4 note=70 velocity=122 time=28>, 31448], [<message note_off channel=0 note=48 velocity=123 time=32>, 31450], [<message note_off channel=0 note=47 velocity=122 time=2>, 31452], [<message note_off channel=0 note=63 velocity=121 time=2>, 31454], [<message pitchwheel channel=4 pitch=-1664 time=8>, 31456], [<message pitchwheel channel=4 pitch=-2688 time=8>, 31464], [<message pitchwheel channel=4 pitch=-2432 time=12>, 31476], [<message note_off channel=0 note=55 velocity=119 time=26>, 31480], [<message note_off channel=1 note=35 velocity=125 time=90>, 31482], [<message pitchwheel channel=4 pitch=372 time=8>, 31484], [<message note_on channel=1 note=34 velocity=125 time=4>, 31486], [<message note_off channel=9 note=49 velocity=124 time=60>, 31486], [<message note_on channel=9 note=35 velocity=124 time=0>, 31486], [<message note_on channel=9 note=49 velocity=124 time=0>, 31486], [<message note_on channel=0 note=46 velocity=123 time=8>, 31488], [<message note_on channel=0 note=58 velocity=123 time=0>, 31488], [<message note_on channel=0 note=63 velocity=122 time=0>, 31488], [<message note_off channel=0 note=67 velocity=120 time=18>, 31506], [<message note_on channel=0 note=67 velocity=18 time=30>, 31536], [<message note_off channel=9 note=35 velocity=124 time=84>, 31570], [<message note_off channel=0 note=58 velocity=123 time=44>, 31580], [<message note_on channel=9 note=46 velocity=119 time=12>, 31582], [<message note_on channel=0 note=55 velocity=117 time=4>, 31584], [<message note_off channel=0 note=63 velocity=122 time=18>, 31602], [<message note_on channel=4 note=67 velocity=122 time=130>, 31614], [<message note_off channel=9 note=40 velocity=124 time=40>, 31622], [<message note_off channel=4 note=70 velocity=122 time=12>, 31626], [<message note_on channel=9 note=35 velocity=120 time=8>, 31630], [<message note_off channel=0 note=46 velocity=123 time=70>, 31672], [<message note_off channel=4 note=67 velocity=122 time=52>, 31678], [<message note_on channel=1 note=33 velocity=125 time=192>, 31678], [<message note_off channel=9 note=49 velocity=124 time=48>, 31678], [<message note_off channel=9 note=46 velocity=119 time=0>, 31678], [<message note_off channel=9 note=49 velocity=123 time=0>, 31678], [<message note_on channel=9 note=40 velocity=124 time=0>, 31678], [<message note_on channel=9 note=49 velocity=124 time=0>, 31678], [<message note_on channel=0 note=45 velocity=123 time=8>, 31680], [<message note_on channel=0 note=57 velocity=123 time=0>, 31680], [<message note_on channel=0 note=63 velocity=123 time=0>, 31680], [<message note_on channel=4 note=62 velocity=122 time=4>, 31682], [<message note_off channel=1 note=34 velocity=125 time=4>, 31682], [<message note_off channel=0 note=67 velocity=18 time=10>, 31690], [<message note_off channel=0 note=55 velocity=117 time=4>, 31694], [<message pitchwheel channel=4 pitch=4467 time=46>, 31728], [<message note_off channel=9 note=35 velocity=120 time=80>, 31758], [<message note_off channel=0 note=57 velocity=123 time=78>, 31772], [<message note_on channel=9 note=35 velocity=123 time=16>, 31774], [<message note_on channel=9 note=46 velocity=119 time=0>, 31774], [<message pitchwheel channel=4 pitch=744 time=48>, 31776], [<message note_on channel=0 note=55 velocity=118 time=4>, 31776], [<message pitchwheel channel=4 pitch=442 time=38>, 31814], [<message note_off channel=0 note=63 velocity=123 time=38>, 31814], [<message note_off channel=9 note=35 velocity=123 time=48>, 31822], [<message pitchwheel channel=4 pitch=372 time=10>, 31824], [<message note_on channel=4 note=60 velocity=122 time=2>, 31826], [<message note_off channel=4 note=62 velocity=122 time=12>, 31838], [<message note_off channel=1 note=33 velocity=125 time=184>, 31866], [<message note_on channel=1 note=32 velocity=125 time=4>, 31870], [<message note_off channel=9 note=46 velocity=119 time=48>, 31870], [<message note_on channel=9 note=35 velocity=124 time=0>, 31870], [<message note_on channel=9 note=49 velocity=124 time=0>, 31870], [<message note_off channel=0 note=55 velocity=118 time=58>, 31872], [<message note_on channel=0 note=44 velocity=123 time=0>, 31872], [<message note_on channel=0 note=58 velocity=123 time=0>, 31872], [<message note_on channel=0 note=63 velocity=123 time=0>, 31872], [<message note_off channel=0 note=45 velocity=123 time=2>, 31874], [<message note_on channel=9 note=46 velocity=121 time=96>, 31966], [<message note_off channel=0 note=58 velocity=123 time=94>, 31968], [<message note_on channel=0 note=56 velocity=120 time=0>, 31968], [<message note_off channel=9 note=35 velocity=124 time=30>, 31996], [<message note_off channel=0 note=63 velocity=123 time=48>, 32016], [<message note_off channel=9 note=40 velocity=124 time=24>, 32020], [<message note_off channel=0 note=56 velocity=120 time=38>, 32054], [<message note_off channel=9 note=46 velocity=120 time=42>, 32062], [<message note_on channel=9 note=40 velocity=124 time=0>, 32062], [<message note_on channel=9 note=46 velocity=120 time=0>, 32062], [<message note_on channel=0 note=60 velocity=121 time=10>, 32064], [<message note_on channel=0 note=63 velocity=120 time=0>, 32064], [<message note_off channel=9 note=46 velocity=120 time=96>, 32158], [<message note_off channel=9 note=46 velocity=121 time=0>, 32158], [<message note_on channel=9 note=35 velocity=124 time=0>, 32158], [<message note_on channel=9 note=46 velocity=120 time=0>, 32158], [<message note_on channel=0 note=56 velocity=116 time=96>, 32160], [<message control_change channel=4 control=1 value=12 time=326>, 32164], [<message note_off channel=9 note=40 velocity=124 time=14>, 32172], [<message control_change channel=4 control=1 value=38 time=16>, 32180], [<message note_off channel=0 note=63 velocity=120 time=26>, 32186], [<message control_change channel=4 control=1 value=55 time=16>, 32196], [<message control_change channel=4 control=1 value=71 time=16>, 32212], [<message control_change channel=4 control=1 value=83 time=16>, 32228], [<message control_change channel=4 control=1 value=97 time=16>, 32244], [<message note_off channel=0 note=44 velocity=123 time=60>, 32246], [<message note_off channel=0 note=56 velocity=116 time=4>, 32250], [<message note_on channel=1 note=31 velocity=124 time=384>, 32254], [<message note_off channel=9 note=46 velocity=123 time=82>, 32254], [<message note_off channel=9 note=49 velocity=124 time=0>, 32254], [<message note_on channel=9 note=40 velocity=124 time=0>, 32254], [<message note_on channel=9 note=46 velocity=123 time=0>, 32254], [<message note_off channel=0 note=60 velocity=121 time=6>, 32256], [<message note_on channel=0 note=43 velocity=122 time=0>, 32256], [<message note_on channel=0 note=58 velocity=123 time=0>, 32256], [<message note_on channel=0 note=63 velocity=123 time=0>, 32256], [<message control_change channel=4 control=1 value=109 time=16>, 32260], [<message note_off channel=9 note=35 velocity=124 time=6>, 32260], [<message note_off channel=1 note=32 velocity=125 time=10>, 32264], [<message control_change channel=4 control=1 value=119 time=16>, 32276], [<message control_change channel=4 control=1 value=127 time=16>, 32292], [<message note_on channel=9 note=35 velocity=124 time=90>, 32350], [<message note_on channel=0 note=55 velocity=113 time=96>, 32352], [<message note_off channel=4 note=60 velocity=122 time=62>, 32354], [<message note_off channel=0 note=58 velocity=123 time=2>, 32354], [<message control_change channel=4 control=1 value=126 time=8>, 32362], [<message note_off channel=9 note=40 velocity=124 time=14>, 32364], [<message control_change channel=4 control=1 value=68 time=16>, 32378], [<message control_change channel=4 control=1 value=0 time=16>, 32394], [<message note_off channel=0 note=55 velocity=113 time=66>, 32420], [<message note_off channel=0 note=63 velocity=123 time=0>, 32420], [<message note_off channel=1 note=31 velocity=124 time=176>, 32440], [<message note_off channel=9 note=35 velocity=124 time=76>, 32440], [<message note_on channel=1 note=34 velocity=121 time=6>, 32446], [<message note_on channel=9 note=40 velocity=124 time=6>, 32446], [<message note_on channel=9 note=42 velocity=120 time=0>, 32446], [<message note_on channel=0 note=41 velocity=122 time=28>, 32448], [<message note_on channel=0 note=56 velocity=123 time=0>, 32448], [<message note_on channel=0 note=63 velocity=123 time=0>, 32448], [<message note_off channel=0 note=43 velocity=122 time=8>, 32456], [<message note_off channel=9 note=40 velocity=124 time=30>, 32476], [<message note_off channel=9 note=42 velocity=120 time=18>, 32494], [<message note_on channel=9 note=43 velocity=123 time=0>, 32494], [<message note_off channel=9 note=43 velocity=123 time=32>, 32526], [<message note_on channel=9 note=35 velocity=123 time=16>, 32542], [<message note_on channel=9 note=45 velocity=124 time=0>, 32542], [<message note_on channel=0 note=53 velocity=117 time=88>, 32544], [<message note_off channel=0 note=56 velocity=123 time=8>, 32552], [<message note_off channel=9 note=35 velocity=123 time=40>, 32582], [<message note_off channel=0 note=63 velocity=123 time=32>, 32584], [<message note_off channel=9 note=45 velocity=124 time=8>, 32590], [<message note_off channel=0 note=53 velocity=117 time=50>, 32634], [<message note_off channel=0 note=41 velocity=122 time=4>, 32638], [<message note_on channel=1 note=39 velocity=125 time=192>, 32638], [<message note_on channel=9 note=35 velocity=124 time=48>, 32638], [<message note_on channel=9 note=49 velocity=123 time=0>, 32638], [<message note_on channel=0 note=39 velocity=123 time=2>, 32640], [<message note_on channel=0 note=51 velocity=122 time=0>, 32640], [<message note_on channel=0 note=58 velocity=123 time=0>, 32640], [<message note_on channel=0 note=63 velocity=123 time=0>, 32640], [<message note_on channel=0 note=67 velocity=123 time=0>, 32640], [<message note_on channel=2 note=70 velocity=97 time=7688>, 32640], [<message note_on channel=2 note=75 velocity=86 time=0>, 32640], [<message note_on channel=4 note=67 velocity=123 time=248>, 32642], [<message note_off channel=1 note=34 velocity=121 time=6>, 32644], [<message pitchwheel channel=4 pitch=-1920 time=78>, 32720], [<message pitchwheel channel=4 pitch=-3724 time=8>, 32728], [<message note_off channel=9 note=49 velocity=123 time=96>, 32734], [<message note_on channel=9 note=51 velocity=120 time=0>, 32734], [<message note_on channel=0 note=55 velocity=93 time=96>, 32736], [<message pitchwheel channel=4 pitch=-3166 time=14>, 32742], [<message pitchwheel channel=4 pitch=-2868 time=8>, 32750], [<message note_off channel=0 note=67 velocity=123 time=16>, 32752], [<message note_off channel=0 note=58 velocity=123 time=4>, 32756], [<message pitchwheel channel=4 pitch=372 time=8>, 32758], [<message note_off channel=0 note=63 velocity=123 time=8>, 32764], [<message note_off channel=9 note=51 velocity=120 time=46>, 32780], [<message note_off channel=1 note=39 velocity=125 time=164>, 32808], [<message note_on channel=1 note=39 velocity=123 time=22>, 32830], [<message note_on channel=9 note=40 velocity=124 time=50>, 32830], [<message note_on channel=9 note=42 velocity=122 time=0>, 32830], [<message note_on channel=9 note=51 velocity=122 time=0>, 32830], [<message note_on channel=0 note=58 velocity=123 time=68>, 32832], [<message note_on channel=0 note=63 velocity=122 time=0>, 32832], [<message note_on channel=0 note=67 velocity=123 time=0>, 32832], [<message note_off channel=0 note=55 velocity=93 time=18>, 32850], [<message note_off channel=1 note=39 velocity=123 time=46>, 32876], [<message note_off channel=9 note=51 velocity=122 time=46>, 32876], [<message note_off channel=9 note=42 velocity=122 time=20>, 32896], [<message note_off channel=9 note=35 velocity=124 time=0>, 32896], [<message note_on channel=1 note=39 velocity=123 time=50>, 32926], [<message note_on channel=9 note=35 velocity=117 time=30>, 32926], [<message note_on channel=9 note=51 velocity=120 time=0>, 32926], [<message note_on channel=0 note=55 velocity=117 time=78>, 32928], [<message note_off channel=0 note=67 velocity=123 time=4>, 32932], [<message control_change channel=4 control=1 value=12 time=192>, 32950], [<message note_off channel=0 note=58 velocity=123 time=18>, 32950], [<message note_off channel=9 note=51 velocity=120 time=26>, 32952], [<message note_off channel=9 note=35 velocity=117 time=4>, 32956], [<message note_off channel=0 note=63 velocity=122 time=8>, 32958], [<message control_change channel=4 control=1 value=32 time=16>, 32966], [<message note_off channel=1 note=39 velocity=123 time=46>, 32972], [<message control_change channel=4 control=1 value=45 time=16>, 32982], [<message control_change channel=4 control=1 value=53 time=16>, 32998], [<message control_change channel=4 control=1 value=65 time=16>, 33014], [<message note_on channel=1 note=39 velocity=124 time=50>, 33022], [<message note_on channel=9 note=35 velocity=123 time=66>, 33022], [<message note_on channel=9 note=51 velocity=122 time=0>, 33022], [<message note_on channel=0 note=58 velocity=122 time=66>, 33024], [<message note_on channel=0 note=63 velocity=121 time=0>, 33024], [<message note_on channel=0 note=67 velocity=123 time=0>, 33024], [<message control_change channel=4 control=1 value=77 time=16>, 33030], [<message note_off channel=0 note=55 velocity=117 time=16>, 33040], [<message control_change channel=4 control=1 value=88 time=16>, 33046], [<message control_change channel=4 control=1 value=96 time=16>, 33062], [<message note_off channel=9 note=51 velocity=122 time=46>, 33068], [<message note_off channel=1 note=39 velocity=124 time=50>, 33072], [<message control_change channel=4 control=1 value=101 time=16>, 33078], [<message control_change channel=4 control=1 value=101 time=16>, 33094], [<message note_off channel=0 note=67 velocity=123 time=78>, 33118], [<message note_on channel=1 note=39 velocity=123 time=46>, 33118], [<message note_on channel=9 note=51 velocity=117 time=50>, 33118], [<message note_on channel=0 note=55 velocity=118 time=2>, 33120], [<message control_change channel=4 control=1 value=103 time=40>, 33134], [<message note_off channel=0 note=58 velocity=122 time=16>, 33136], [<message note_off channel=9 note=51 velocity=117 time=20>, 33138], [<message note_off channel=9 note=40 velocity=124 time=6>, 33144], [<message control_change channel=4 control=1 value=101 time=20>, 33154], [<message control_change channel=4 control=1 value=94 time=16>, 33170], [<message note_off channel=0 note=63 velocity=121 time=38>, 33174], [<message control_change channel=4 control=1 value=86 time=16>, 33186], [<message note_off channel=0 note=55 velocity=118 time=24>, 33198], [<message note_off channel=1 note=39 velocity=123 time=82>, 33200], [<message control_change channel=4 control=1 value=65 time=16>, 33202], [<message note_off channel=0 note=51 velocity=122 time=6>, 33204], [<message note_off channel=4 note=67 velocity=123 time=12>, 33214], [<message note_on channel=1 note=38 velocity=124 time=14>, 33214], [<message note_on channel=9 note=40 velocity=124 time=70>, 33214], [<message note_on channel=9 note=42 velocity=123 time=0>, 33214], [<message note_on channel=9 note=51 velocity=123 time=0>, 33214], [<message note_on channel=0 note=38 velocity=122 time=12>, 33216], [<message note_on channel=0 note=50 velocity=123 time=0>, 33216], [<message note_on channel=0 note=58 velocity=123 time=0>, 33216], [<message note_on channel=0 note=62 velocity=123 time=0>, 33216], [<message note_on channel=0 note=65 velocity=123 time=0>, 33216], [<message note_off channel=2 note=70 velocity=97 time=576>, 33216], [<message note_on channel=2 note=74 velocity=100 time=0>, 33216], [<message note_on channel=2 note=77 velocity=102 time=0>, 33216], [<message note_on channel=4 note=65 velocity=123 time=4>, 33218], [<message control_change channel=4 control=1 value=0 time=0>, 33218], [<message note_off channel=2 note=75 velocity=86 time=4>, 33220], [<message note_off channel=0 note=39 velocity=123 time=10>, 33226], [<message note_off channel=9 note=51 velocity=123 time=46>, 33260], [<message note_off channel=9 note=42 velocity=123 time=6>, 33266], [<message note_off channel=1 note=38 velocity=124 time=68>, 33282], [<message note_off channel=0 note=62 velocity=123 time=76>, 33302], [<message note_on channel=1 note=38 velocity=123 time=28>, 33310], [<message note_on channel=9 note=51 velocity=118 time=44>, 33310], [<message note_off channel=0 note=58 velocity=123 time=10>, 33312], [<message note_on channel=0 note=53 velocity=117 time=0>, 33312], [<message note_on channel=4 note=67 velocity=123 time=96>, 33314], [<message note_off channel=4 note=65 velocity=123 time=8>, 33322], [<message note_off channel=9 note=35 velocity=123 time=20>, 33330], [<message note_off channel=9 note=51 velocity=118 time=14>, 33344], [<message pitchwheel channel=4 pitch=1170 time=26>, 33348], [<message pitchwheel channel=4 pitch=2080 time=8>, 33356], [<message pitchwheel channel=4 pitch=2730 time=8>, 33364], [<message pitchwheel channel=4 pitch=3640 time=8>, 33372], [<message pitchwheel channel=4 pitch=4550 time=8>, 33380], [<message note_off channel=0 note=50 velocity=123 time=68>, 33380], [<message pitchwheel channel=4 pitch=5330 time=8>, 33388], [<message note_off channel=1 note=38 velocity=123 time=78>, 33388], [<message note_off channel=0 note=53 velocity=117 time=14>, 33394], [<message pitchwheel channel=4 pitch=5200 time=8>, 33396], [<message pitchwheel channel=4 pitch=2470 time=8>, 33404], [<message note_off channel=0 note=38 velocity=122 time=10>, 33404], [<message note_on channel=1 note=36 velocity=123 time=18>, 33406], [<message note_on channel=9 note=35 velocity=124 time=62>, 33406], [<message note_on channel=9 note=51 velocity=122 time=0>, 33406], [<message note_on channel=0 note=36 velocity=123 time=4>, 33408], [<message note_on channel=0 note=48 velocity=123 time=0>, 33408], [<message note_on channel=0 note=60 velocity=123 time=0>, 33408], [<message note_on channel=0 note=63 velocity=123 time=0>, 33408], [<message note_on channel=2 note=72 velocity=98 time=188>, 33408], [<message note_on channel=2 note=75 velocity=92 time=0>, 33408], [<message pitchwheel channel=4 pitch=0 time=8>, 33412], [<message note_off channel=0 note=65 velocity=123 time=10>, 33418], [<message note_off channel=2 note=77 velocity=102 time=10>, 33418], [<message note_off channel=2 note=74 velocity=100 time=2>, 33420], [<message note_off channel=9 note=51 velocity=122 time=28>, 33434], [<message note_off channel=1 note=36 velocity=123 time=54>, 33460], [<message note_off channel=0 note=60 velocity=123 time=54>, 33472], [<message note_on channel=1 note=36 velocity=122 time=42>, 33502], [<message note_on channel=9 note=51 velocity=119 time=68>, 33502], [<message note_on channel=0 note=60 velocity=116 time=32>, 33504], [<message note_off channel=9 note=40 velocity=124 time=4>, 33506], [<message note_off channel=0 note=63 velocity=123 time=16>, 33520], [<message note_off channel=9 note=51 velocity=119 time=16>, 33522], [<message note_off channel=1 note=36 velocity=122 time=38>, 33540], [<message note_on channel=1 note=36 velocity=123 time=58>, 33598], [<message note_on channel=9 note=40 velocity=124 time=76>, 33598], [<message note_on channel=9 note=42 velocity=123 time=0>, 33598], [<message note_on channel=9 note=51 velocity=123 time=0>, 33598], [<message note_on channel=0 note=63 velocity=121 time=80>, 33600], [<message note_on channel=2 note=79 velocity=98 time=180>, 33600], [<message note_off channel=0 note=60 velocity=116 time=16>, 33616], [<message control_change channel=4 control=1 value=1 time=208>, 33620], [<message note_off channel=9 note=35 velocity=124 time=28>, 33626], [<message control_change channel=4 control=1 value=7 time=18>, 33638], [<message note_off channel=9 note=51 velocity=123 time=18>, 33644], [<message control_change channel=4 control=1 value=15 time=16>, 33654], [<message note_off channel=9 note=42 velocity=123 time=10>, 33654], [<message control_change channel=4 control=1 value=22 time=18>, 33672], [<message note_off channel=1 note=36 velocity=123 time=84>, 33682], [<message control_change channel=4 control=1 value=28 time=18>, 33690], [<message note_on channel=1 note=31 velocity=125 time=12>, 33694], [<message note_on channel=9 note=35 velocity=121 time=40>, 33694], [<message note_on channel=9 note=51 velocity=120 time=0>, 33694], [<message note_on channel=0 note=67 velocity=117 time=80>, 33696], [<message control_change channel=4 control=1 value=36 time=18>, 33708], [<message note_off channel=9 note=35 velocity=121 time=18>, 33712], [<message control_change channel=4 control=1 value=46 time=16>, 33724], [<message note_off channel=9 note=51 velocity=120 time=16>, 33728], [<message control_change channel=4 control=1 value=60 time=16>, 33740], [<message control_change channel=4 control=1 value=65 time=16>, 33756], [<message note_off channel=1 note=31 velocity=125 time=64>, 33758], [<message note_off channel=0 note=63 velocity=121 time=66>, 33762], [<message control_change channel=4 control=1 value=68 time=16>, 33772], [<message control_change channel=4 control=1 value=78 time=16>, 33788], [<message note_on channel=1 note=36 velocity=123 time=32>, 33790], [<message note_on channel=9 note=35 velocity=124 time=62>, 33790], [<message note_on channel=9 note=51 velocity=122 time=0>, 33790], [<message note_on channel=0 note=62 velocity=119 time=30>, 33792], [<message note_on channel=0 note=74 velocity=118 time=0>, 33792], [<message note_on channel=2 note=69 velocity=92 time=192>, 33792], [<message note_on channel=2 note=71 velocity=77 time=0>, 33792], [<message note_on channel=2 note=74 velocity=95 time=0>, 33792], [<message note_off channel=0 note=67 velocity=117 time=6>, 33798], [<message note_off channel=2 note=72 velocity=98 time=6>, 33798], [<message note_off channel=2 note=75 velocity=92 time=2>, 33800], [<message control_change channel=4 control=1 value=94 time=16>, 33804], [<message note_off channel=2 note=69 velocity=92 time=4>, 33804], [<message control_change channel=4 control=1 value=109 time=16>, 33820], [<message note_off channel=9 note=51 velocity=122 time=32>, 33822], [<message control_change channel=4 control=1 value=114 time=16>, 33836], [<message control_change channel=4 control=1 value=108 time=24>, 33860], [<message note_off channel=1 note=36 velocity=123 time=76>, 33866], [<message control_change channel=4 control=1 value=94 time=16>, 33876], [<message note_on channel=1 note=36 velocity=121 time=20>, 33886], [<message note_on channel=9 note=51 velocity=120 time=64>, 33886], [<message note_on channel=0 note=63 velocity=119 time=90>, 33888], [<message control_change channel=4 control=1 value=83 time=16>, 33892], [<message note_off channel=0 note=62 velocity=119 time=4>, 33892], [<message note_off channel=9 note=40 velocity=124 time=8>, 33894], [<message control_change channel=4 control=1 value=51 time=18>, 33910], [<message note_off channel=9 note=51 velocity=120 time=18>, 33912], [<message note_off channel=0 note=74 velocity=118 time=30>, 33922], [<message control_change channel=4 control=1 value=0 time=16>, 33926], [<message note_off channel=4 note=67 velocity=123 time=24>, 33950], [<message note_off channel=1 note=36 velocity=121 time=66>, 33952], [<message note_off channel=2 note=71 velocity=77 time=162>, 33966], [<message note_off channel=2 note=74 velocity=95 time=4>, 33970], [<message note_on channel=1 note=36 velocity=123 time=30>, 33982], [<message note_on channel=9 note=40 velocity=124 time=70>, 33982], [<message note_on channel=9 note=42 velocity=124 time=0>, 33982], [<message note_on channel=9 note=51 velocity=123 time=0>, 33982], [<message note_on channel=0 note=60 velocity=116 time=62>, 33984], [<message note_on channel=0 note=72 velocity=122 time=0>, 33984], [<message note_on channel=2 note=72 velocity=99 time=14>, 33984], [<message note_on channel=2 note=75 velocity=92 time=0>, 33984], [<message note_off channel=1 note=36 velocity=123 time=26>, 34008], [<message note_off channel=9 note=51 velocity=123 time=30>, 34012], [<message note_off channel=9 note=35 velocity=124 time=4>, 34016], [<message note_on channel=1 note=36 velocity=122 time=22>, 34030], [<message note_off channel=0 note=36 velocity=123 time=60>, 34044], [<message note_off channel=9 note=42 velocity=124 time=28>, 34044], [<message note_off channel=0 note=48 velocity=123 time=22>, 34066], [<message note_on channel=4 note=67 velocity=112 time=124>, 34074], [<message note_off channel=1 note=36 velocity=122 time=46>, 34076], [<message note_on channel=1 note=31 velocity=122 time=2>, 34078], [<message note_on channel=9 note=35 velocity=116 time=34>, 34078], [<message note_on channel=9 note=51 velocity=113 time=0>, 34078], [<message note_on channel=0 note=67 velocity=114 time=14>, 34080], [<message note_off channel=9 note=35 velocity=116 time=18>, 34096], [<message note_on channel=4 note=72 velocity=117 time=24>, 34098], [<message note_off channel=4 note=67 velocity=112 time=14>, 34112], [<message note_off channel=9 note=51 velocity=113 time=16>, 34112], [<message note_on channel=4 note=75 velocity=123 time=10>, 34122], [<message note_on channel=1 note=30 velocity=125 time=48>, 34126], [<message note_off channel=1 note=31 velocity=122 time=2>, 34128], [<message note_off channel=4 note=72 velocity=117 time=10>, 34132], [<message note_on channel=4 note=79 velocity=123 time=14>, 34146], [<message note_off channel=0 note=63 velocity=119 time=72>, 34152], [<message note_off channel=4 note=75 velocity=123 time=10>, 34156], [<message note_off channel=0 note=67 velocity=114 time=8>, 34160], [<message note_off channel=1 note=30 velocity=125 time=44>, 34172], [<message note_on channel=1 note=29 velocity=123 time=2>, 34174], [<message note_on channel=9 note=35 velocity=124 time=62>, 34174], [<message note_on channel=9 note=51 velocity=122 time=0>, 34174], [<message note_on channel=0 note=41 velocity=120 time=16>, 34176], [<message note_on channel=0 note=53 velocity=123 time=0>, 34176], [<message note_on channel=0 note=65 velocity=122 time=0>, 34176], [<message note_on channel=0 note=68 velocity=123 time=0>, 34176], [<message note_on channel=2 note=68 velocity=99 time=192>, 34176], [<message note_on channel=2 note=77 velocity=98 time=0>, 34176], [<message note_off channel=2 note=79 velocity=98 time=10>, 34186], [<message note_off channel=2 note=75 velocity=92 time=2>, 34188], [<message note_off channel=2 note=72 velocity=99 time=8>, 34196], [<message pitchwheel channel=4 pitch=910 time=42>, 34198], [<message pitchwheel channel=4 pitch=2512 time=8>, 34206], [<message note_off channel=9 note=51 velocity=122 time=34>, 34208], [<message pitchwheel channel=4 pitch=2931 time=8>, 34214], [<message note_off channel=0 note=60 velocity=116 time=40>, 34216], [<message pitchwheel channel=4 pitch=3350 time=10>, 34224], [<message pitchwheel channel=4 pitch=3250 time=8>, 34232], [<message pitchwheel channel=4 pitch=3379 time=8>, 34240], [<message pitchwheel channel=4 pitch=3723 time=8>, 34248], [<message note_off channel=1 note=29 velocity=123 time=82>, 34256], [<message note_on channel=1 note=29 velocity=122 time=14>, 34270], [<message note_on channel=9 note=51 velocity=118 time=62>, 34270], [<message note_on channel=0 note=60 velocity=120 time=56>, 34272], [<message note_off channel=0 note=68 velocity=123 time=4>, 34276], [<message note_off channel=9 note=40 velocity=124 time=6>, 34276], [<message note_off channel=0 note=72 velocity=122 time=8>, 34284], [<message note_off channel=9 note=51 velocity=118 time=20>, 34296], [<message pitchwheel channel=4 pitch=2600 time=72>, 34320], [<message note_off channel=0 note=65 velocity=122 time=36>, 34320], [<message note_off channel=1 note=29 velocity=122 time=54>, 34324], [<message pitchwheel channel=4 pitch=0 time=8>, 34328], [<message note_on channel=1 note=29 velocity=120 time=42>, 34366], [<message note_on channel=9 note=40 velocity=124 time=70>, 34366], [<message note_on channel=9 note=42 velocity=123 time=0>, 34366], [<message note_on channel=9 note=51 velocity=123 time=0>, 34366], [<message note_on channel=0 note=65 velocity=123 time=48>, 34368], [<message note_on channel=0 note=68 velocity=121 time=0>, 34368], [<message note_on channel=0 note=72 velocity=120 time=0>, 34368], [<message note_off channel=0 note=60 velocity=120 time=10>, 34378], [<message note_off channel=4 note=79 velocity=123 time=56>, 34384], [<message note_off channel=9 note=35 velocity=124 time=30>, 34396], [<message note_off channel=9 note=51 velocity=123 time=6>, 34402], [<message note_on channel=4 note=79 velocity=123 time=20>, 34404], [<message note_off channel=0 note=53 velocity=123 time=42>, 34420], [<message note_off channel=9 note=42 velocity=123 time=22>, 34424], [<message note_off channel=0 note=65 velocity=123 time=24>, 34444], [<message note_off channel=1 note=29 velocity=120 time=80>, 34446], [<message note_on channel=4 note=77 velocity=123 time=58>, 34462], [<message note_on channel=1 note=41 velocity=125 time=16>, 34462], [<message note_on channel=9 note=35 velocity=118 time=38>, 34462], [<message note_on channel=9 note=51 velocity=120 time=0>, 34462], [<message note_on channel=0 note=40 velocity=121 time=20>, 34464], [<message note_on channel=0 note=52 velocity=115 time=0>, 34464], [<message note_on channel=0 note=60 velocity=112 time=0>, 34464], [<message note_on channel=0 note=64 velocity=122 time=0>, 34464], [<message note_off channel=4 note=79 velocity=123 time=4>, 34466], [<message note_off channel=0 note=41 velocity=120 time=12>, 34476], [<message note_off channel=9 note=35 velocity=118 time=22>, 34484], [<message note_off channel=9 note=51 velocity=120 time=6>, 34490], [<message note_off channel=1 note=41 velocity=125 time=40>, 34502], [<message note_off channel=4 note=77 velocity=123 time=42>, 34508], [<message note_on channel=1 note=40 velocity=125 time=8>, 34510], [<message note_off channel=0 note=52 velocity=115 time=42>, 34518], [<message note_on channel=4 note=77 velocity=123 time=20>, 34528], [<message note_off channel=0 note=64 velocity=122 time=10>, 34528], [<message note_off channel=0 note=68 velocity=121 time=2>, 34530], [<message note_on channel=1 note=39 velocity=125 time=48>, 34558], [<message note_on channel=9 note=35 velocity=123 time=68>, 34558], [<message note_on channel=9 note=51 velocity=123 time=0>, 34558], [<message note_on channel=0 note=39 velocity=122 time=30>, 34560], [<message note_on channel=0 note=51 velocity=123 time=0>, 34560], [<message note_on channel=0 note=63 velocity=123 time=0>, 34560], [<message note_on channel=0 note=68 velocity=123 time=0>, 34560], [<message note_off channel=2 note=68 velocity=99 time=364>, 34560], [<message note_on channel=2 note=67 velocity=104 time=0>, 34560], [<message note_off channel=1 note=40 velocity=125 time=6>, 34564], [<message note_off channel=0 note=40 velocity=121 time=6>, 34566], [<message note_off channel=9 note=51 velocity=123 time=38>, 34596], [<message note_off channel=0 note=60 velocity=112 time=60>, 34626], [<message note_off channel=9 note=40 velocity=124 time=32>, 34628], [<message note_off channel=1 note=39 velocity=125 time=72>, 34636], [<message control_change channel=4 control=1 value=33 time=112>, 34640], [<message note_on channel=1 note=39 velocity=120 time=18>, 34654], [<message note_on channel=9 note=51 velocity=119 time=26>, 34654], [<message control_change channel=4 control=1 value=59 time=16>, 34656], [<message note_on channel=0 note=60 velocity=95 time=30>, 34656], [<message note_off channel=0 note=63 velocity=123 time=14>, 34670], [<message control_change channel=4 control=1 value=74 time=16>, 34672], [<message note_off channel=9 note=51 velocity=119 time=22>, 34676], [<message control_change channel=4 control=1 value=85 time=16>, 34688], [<message note_off channel=0 note=68 velocity=123 time=22>, 34692], [<message note_off channel=0 note=72 velocity=120 time=10>, 34702], [<message control_change channel=4 control=1 value=99 time=16>, 34704], [<message control_change channel=4 control=1 value=112 time=16>, 34720], [<message note_off channel=0 note=51 velocity=123 time=26>, 34728], [<message control_change channel=4 control=1 value=120 time=16>, 34736], [<message note_on channel=1 note=38 velocity=125 time=96>, 34750], [<message note_on channel=9 note=40 velocity=124 time=74>, 34750], [<message note_on channel=9 note=42 velocity=123 time=0>, 34750], [<message note_on channel=9 note=51 velocity=123 time=0>, 34750], [<message note_on channel=0 note=38 velocity=122 time=24>, 34752], [<message note_on channel=0 note=50 velocity=123 time=0>, 34752], [<message note_on channel=0 note=62 velocity=123 time=0>, 34752], [<message note_on channel=0 note=68 velocity=123 time=0>, 34752], [<message note_on channel=0 note=72 velocity=123 time=0>, 34752], [<message note_off channel=1 note=39 velocity=120 time=2>, 34752], [<message note_on channel=2 note=68 velocity=100 time=192>, 34752], [<message note_off channel=9 note=35 velocity=123 time=2>, 34752], [<message note_off channel=2 note=67 velocity=104 time=8>, 34760], [<message note_off channel=0 note=60 velocity=95 time=10>, 34762], [<message control_change channel=4 control=1 value=126 time=30>, 34766], [<message note_off channel=0 note=39 velocity=122 time=12>, 34774], [<message control_change channel=4 control=1 value=125 time=18>, 34784], [<message note_off channel=9 note=51 velocity=123 time=38>, 34790], [<message control_change channel=4 control=1 value=96 time=16>, 34800], [<message note_off channel=9 note=42 velocity=123 time=18>, 34808], [<message control_change channel=4 control=1 value=50 time=16>, 34816], [<message note_off channel=1 note=38 velocity=125 time=66>, 34818], [<message control_change channel=4 control=1 value=0 time=16>, 34832], [<message note_off channel=0 note=50 velocity=123 time=58>, 34832], [<message note_off channel=4 note=77 velocity=123 time=12>, 34844], [<message note_off channel=0 note=68 velocity=123 time=14>, 34846], [<message note_on channel=1 note=38 velocity=125 time=28>, 34846], [<message note_on channel=9 note=35 velocity=117 time=38>, 34846], [<message note_on channel=9 note=51 velocity=120 time=0>, 34846], [<message note_on channel=0 note=60 velocity=110 time=2>, 34848], [<message note_off channel=0 note=72 velocity=123 time=2>, 34850], [<message note_off channel=9 note=35 velocity=117 time=20>, 34866], [<message note_off channel=9 note=51 velocity=120 time=6>, 34872], [<message note_off channel=0 note=62 velocity=123 time=24>, 34874], [<message note_on channel=4 note=70 velocity=123 time=40>, 34884], [<message note_on channel=1 note=36 velocity=121 time=48>, 34894], [<message note_off channel=1 note=38 velocity=125 time=10>, 34904], [<message note_off channel=0 note=60 velocity=110 time=52>, 34926], [<message note_off channel=4 note=70 velocity=123 time=46>, 34930], [<message note_off channel=0 note=38 velocity=122 time=8>, 34934], [<message note_off channel=1 note=36 velocity=121 time=38>, 34942], [<message note_on channel=1 note=34 velocity=125 time=0>, 34942], [<message note_on channel=9 note=35 velocity=123 time=70>, 34942], [<message note_on channel=9 note=51 velocity=123 time=0>, 34942], [<message note_on channel=0 note=34 velocity=121 time=10>, 34944], [<message note_on channel=0 note=46 velocity=123 time=0>, 34944], [<message note_on channel=0 note=62 velocity=123 time=0>, 34944], [<message note_on channel=0 note=66 velocity=18 time=0>, 34944], [<message note_on channel=0 note=70 velocity=122 time=0>, 34944], [<message note_on channel=2 note=70 velocity=95 time=184>, 34944], [<message note_on channel=2 note=74 velocity=96 time=0>, 34944], [<message note_off channel=2 note=68 velocity=100 time=4>, 34948], [<message note_on channel=4 note=70 velocity=123 time=22>, 34952], [<message note_off channel=2 note=77 velocity=98 time=4>, 34952], [<message note_off channel=9 note=51 velocity=123 time=32>, 34974], [<message note_off channel=0 note=66 velocity=18 time=60>, 35004], [<message note_off channel=1 note=34 velocity=125 time=82>, 35024], [<message note_off channel=4 note=70 velocity=123 time=78>, 35030], [<message note_on channel=1 note=34 velocity=121 time=14>, 35038], [<message note_on channel=9 note=51 velocity=119 time=64>, 35038], [<message note_on channel=4 note=77 velocity=123 time=10>, 35040], [<message note_on channel=0 note=58 velocity=107 time=36>, 35040], [<message note_off channel=9 note=40 velocity=124 time=14>, 35052], [<message note_off channel=0 note=62 velocity=123 time=20>, 35060], [<message note_off channel=9 note=51 velocity=119 time=8>, 35060], [<message note_off channel=1 note=34 velocity=121 time=48>, 35086], [<message note_off channel=4 note=77 velocity=123 time=74>, 35114], [<message note_on channel=1 note=34 velocity=122 time=48>, 35134], [<message note_on channel=9 note=40 velocity=124 time=74>, 35134], [<message note_on channel=9 note=42 velocity=121 time=0>, 35134], [<message note_on channel=9 note=51 velocity=124 time=0>, 35134], [<message note_on channel=0 note=62 velocity=123 time=76>, 35136], [<message note_on channel=0 note=65 velocity=123 time=0>, 35136], [<message note_on channel=4 note=77 velocity=123 time=24>, 35138], [<message note_off channel=0 note=58 velocity=107 time=14>, 35150], [<message note_off channel=9 note=35 velocity=123 time=28>, 35162], [<message note_off channel=9 note=51 velocity=124 time=6>, 35168], [<message note_off channel=9 note=42 velocity=121 time=10>, 35178], [<message note_off channel=1 note=34 velocity=122 time=54>, 35188], [<message note_off channel=4 note=77 velocity=123 time=88>, 35226], [<message note_on channel=1 note=34 velocity=123 time=42>, 35230], [<message note_on channel=9 note=35 velocity=122 time=52>, 35230], [<message note_on channel=9 note=51 velocity=120 time=0>, 35230], [<message note_on channel=0 note=58 velocity=105 time=82>, 35232], [<message note_on channel=4 note=79 velocity=123 time=10>, 35236], [<message note_off channel=0 note=65 velocity=123 time=12>, 35244], [<message note_off channel=0 note=70 velocity=122 time=4>, 35248], [<message note_off channel=9 note=35 velocity=122 time=18>, 35248], [<message note_off channel=0 note=62 velocity=123 time=2>, 35250], [<message note_off channel=9 note=51 velocity=120 time=12>, 35260], [<message note_off channel=1 note=34 velocity=123 time=48>, 35278], [<message note_off channel=4 note=79 velocity=123 time=78>, 35314], [<message note_on channel=1 note=34 velocity=125 time=48>, 35326], [<message note_on channel=9 note=35 velocity=124 time=66>, 35326], [<message note_on channel=9 note=51 velocity=122 time=0>, 35326], [<message note_on channel=0 note=62 velocity=122 time=78>, 35328], [<message note_on channel=0 note=65 velocity=122 time=0>, 35328], [<message note_on channel=0 note=70 velocity=120 time=0>, 35328], [<message note_on channel=2 note=72 velocity=100 time=376>, 35328], [<message note_on channel=2 note=75 velocity=96 time=0>, 35328], [<message note_off channel=0 note=58 velocity=105 time=6>, 35334], [<message note_on channel=4 note=79 velocity=123 time=22>, 35336], [<message note_off channel=9 note=40 velocity=124 time=18>, 35344], [<message note_off channel=2 note=70 velocity=95 time=18>, 35346], [<message note_off channel=2 note=74 velocity=96 time=2>, 35348], [<message note_off channel=9 note=51 velocity=122 time=10>, 35354], [<message note_off channel=1 note=34 velocity=125 time=60>, 35386], [<message note_off channel=4 note=79 velocity=123 time=84>, 35420], [<message note_on channel=1 note=34 velocity=125 time=36>, 35422], [<message note_on channel=9 note=40 velocity=124 time=68>, 35422], [<message note_on channel=9 note=51 velocity=120 time=0>, 35422], [<message note_on channel=0 note=58 velocity=117 time=90>, 35424], [<message note_on channel=4 note=80 velocity=123 time=10>, 35430], [<message note_off channel=9 note=51 velocity=120 time=18>, 35440], [<message note_off channel=0 note=62 velocity=122 time=22>, 35446], [<message note_off channel=9 note=40 velocity=124 time=10>, 35450], [<message note_off channel=0 note=65 velocity=122 time=6>, 35452], [<message note_off channel=0 note=70 velocity=120 time=16>, 35468], [<message note_off channel=1 note=34 velocity=125 time=54>, 35476], [<message note_off channel=4 note=80 velocity=123 time=72>, 35502], [<message note_on channel=1 note=34 velocity=123 time=42>, 35518], [<message note_off channel=2 note=72 velocity=100 time=170>, 35518], [<message note_on channel=9 note=40 velocity=124 time=68>, 35518], [<message note_on channel=9 note=42 velocity=121 time=0>, 35518], [<message note_on channel=0 note=62 velocity=122 time=52>, 35520], [<message note_on channel=0 note=65 velocity=122 time=0>, 35520], [<message note_on channel=0 note=70 velocity=117 time=0>, 35520], [<message note_on channel=2 note=74 velocity=95 time=2>, 35520], [<message note_on channel=2 note=77 velocity=96 time=0>, 35520], [<message note_off channel=2 note=75 velocity=96 time=4>, 35524], [<message note_on channel=4 note=80 velocity=123 time=24>, 35526], [<message note_off channel=9 note=35 velocity=124 time=22>, 35540], [<message note_off channel=9 note=40 velocity=124 time=4>, 35544], [<message note_off channel=9 note=42 velocity=121 time=12>, 35556], [<message note_off channel=1 note=34 velocity=123 time=46>, 35564], [<message note_on channel=1 note=36 velocity=124 time=2>, 35566], [<message note_on channel=9 note=43 velocity=123 time=10>, 35566], [<message note_off channel=0 note=70 velocity=117 time=50>, 35570], [<message note_off channel=0 note=62 velocity=122 time=28>, 35598], [<message note_off channel=0 note=65 velocity=122 time=4>, 35602], [<message pitchwheel channel=4 pitch=390 time=80>, 35606], [<message note_off channel=9 note=43 velocity=123 time=44>, 35610], [<message pitchwheel channel=4 pitch=2600 time=8>, 35614], [<message note_on channel=1 note=38 velocity=125 time=48>, 35614], [<message note_on channel=9 note=35 velocity=124 time=4>, 35614], [<message note_on channel=9 note=45 velocity=122 time=0>, 35614], [<message note_off channel=1 note=36 velocity=124 time=4>, 35618], [<message pitchwheel channel=4 pitch=5330 time=8>, 35622], [<message note_off channel=0 note=34 velocity=121 time=20>, 35622], [<message pitchwheel channel=4 pitch=8190 time=8>, 35630], [<message note_off channel=0 note=46 velocity=123 time=12>, 35634], [<message note_off channel=9 note=45 velocity=122 time=32>, 35646], [<message note_off channel=9 note=35 velocity=124 time=0>, 35646], [<message pitchwheel channel=4 pitch=7800 time=52>, 35682], [<message pitchwheel channel=4 pitch=7150 time=8>, 35690], [<message note_off channel=1 note=38 velocity=125 time=72>, 35690], [<message pitchwheel channel=4 pitch=6370 time=8>, 35698], [<message pitchwheel channel=4 pitch=4030 time=8>, 35706], [<message note_off channel=0 note=58 velocity=117 time=76>, 35710], [<message note_on channel=1 note=39 velocity=122 time=20>, 35710], [<message note_on channel=9 note=35 velocity=123 time=64>, 35710], [<message note_on channel=9 note=49 velocity=122 time=0>, 35710], [<message note_on channel=0 note=39 velocity=122 time=2>, 35712], [<message note_on channel=0 note=51 velocity=123 time=0>, 35712], [<message note_on channel=0 note=58 velocity=123 time=0>, 35712], [<message note_on channel=0 note=63 velocity=122 time=0>, 35712], [<message note_on channel=0 note=67 velocity=122 time=0>, 35712], [<message note_on channel=2 note=75 velocity=98 time=188>, 35712], [<message note_on channel=2 note=79 velocity=102 time=0>, 35712], [<message pitchwheel channel=4 pitch=0 time=8>, 35714], [<message note_off channel=2 note=74 velocity=95 time=2>, 35714], [<message note_off channel=2 note=77 velocity=96 time=6>, 35720], [<message note_off channel=0 note=58 velocity=123 time=46>, 35758], [<message note_on channel=4 note=79 velocity=123 time=84>, 35798], [<message note_off channel=9 note=49 velocity=122 time=88>, 35798], [<message note_off channel=4 note=80 velocity=123 time=6>, 35804], [<message note_on channel=9 note=51 velocity=120 time=8>, 35806], [<message note_off channel=0 note=51 velocity=123 time=88>, 35846], [<message control_change channel=4 control=1 value=2 time=46>, 35850], [<message note_off channel=9 note=51 velocity=120 time=52>, 35858], [<message control_change channel=4 control=1 value=17 time=16>, 35866], [<message control_change channel=4 control=1 value=24 time=16>, 35882], [<message note_off channel=0 note=67 velocity=122 time=44>, 35890], [<message control_change channel=4 control=1 value=31 time=16>, 35898], [<message note_on channel=8 note=67 velocity=122 time=35618>, 35898], [<message note_off channel=2 note=75 velocity=98 time=182>, 35902], [<message note_on channel=9 note=40 velocity=124 time=44>, 35902], [<message note_on channel=9 note=42 velocity=122 time=0>, 35902], [<message note_on channel=9 note=51 velocity=122 time=0>, 35902], [<message note_on channel=0 note=51 velocity=123 time=14>, 35904], [<message note_on channel=0 note=58 velocity=122 time=0>, 35904], [<message note_on channel=0 note=67 velocity=122 time=0>, 35904], [<message note_on channel=2 note=70 velocity=87 time=2>, 35904], [<message note_on channel=2 note=75 velocity=74 time=0>, 35904], [<message control_change channel=4 control=1 value=45 time=18>, 35916], [<message control_change channel=4 control=1 value=62 time=16>, 35932], [<message note_off channel=9 note=51 velocity=122 time=42>, 35944], [<message note_off channel=1 note=39 velocity=122 time=236>, 35946], [<message control_change channel=4 control=1 value=86 time=16>, 35948], [<message control_change channel=4 control=1 value=98 time=16>, 35964], [<message note_off channel=9 note=35 velocity=123 time=20>, 35964], [<message control_change channel=4 control=1 value=106 time=18>, 35982], [<message note_on channel=8 note=65 velocity=124 time=94>, 35992], [<message note_on channel=11 note=67 velocity=117 time=35684>, 35994], [<message control_change channel=4 control=1 value=120 time=16>, 35998], [<message note_on channel=1 note=39 velocity=120 time=52>, 35998], [<message note_off channel=8 note=67 velocity=122 time=6>, 35998], [<message note_on channel=9 note=35 velocity=118 time=34>, 35998], [<message note_on channel=9 note=51 velocity=120 time=0>, 35998], [<message note_off channel=0 note=63 velocity=122 time=96>, 36000], [<message note_on channel=0 note=65 velocity=122 time=0>, 36000], [<message note_off channel=9 note=42 velocity=122 time=8>, 36006], [<message note_off channel=0 note=67 velocity=122 time=8>, 36008], [<message control_change channel=4 control=1 value=127 time=16>, 36014], [<message note_off channel=9 note=35 velocity=118 time=16>, 36022], [<message note_off channel=9 note=51 velocity=120 time=8>, 36030], [<message note_off channel=8 note=65 velocity=124 time=44>, 36042], [<message note_on channel=8 note=63 velocity=124 time=2>, 36044], [<message note_on channel=0 note=63 velocity=112 time=40>, 36048], [<message note_off channel=0 note=65 velocity=122 time=4>, 36052], [<message note_off channel=0 note=39 velocity=122 time=22>, 36074], [<message note_off channel=0 note=58 velocity=122 time=8>, 36082], [<message note_off channel=2 note=75 velocity=74 time=178>, 36082], [<message note_off channel=8 note=63 velocity=124 time=40>, 36084], [<message note_off channel=1 note=39 velocity=120 time=90>, 36088], [<message note_on channel=11 note=65 velocity=119 time=94>, 36088], [<message note_off channel=0 note=63 velocity=112 time=8>, 36090], [<message note_on channel=8 note=70 velocity=124 time=6>, 36090], [<message note_off channel=0 note=51 velocity=123 time=4>, 36094], [<message note_on channel=1 note=38 velocity=123 time=6>, 36094], [<message note_off channel=11 note=67 velocity=117 time=6>, 36094], [<message note_on channel=9 note=35 velocity=123 time=64>, 36094], [<message note_on channel=9 note=51 velocity=123 time=0>, 36094], [<message note_on channel=0 note=38 velocity=123 time=2>, 36096], [<message note_on channel=0 note=58 velocity=102 time=0>, 36096], [<message note_on channel=0 note=62 velocity=123 time=0>, 36096], [<message note_on channel=0 note=65 velocity=123 time=0>, 36096], [<message note_on channel=0 note=70 velocity=122 time=0>, 36096], [<message note_on channel=2 note=77 velocity=89 time=14>, 36096], [<message note_off channel=2 note=79 velocity=102 time=12>, 36108], [<message note_off channel=9 note=51 velocity=123 time=24>, 36118], [<message note_off channel=11 note=65 velocity=119 time=44>, 36138], [<message note_on channel=11 note=63 velocity=119 time=2>, 36140], [<message note_off channel=4 note=79 velocity=123 time=154>, 36168], [<message note_off channel=11 note=63 velocity=119 time=40>, 36180], [<message note_on channel=11 note=70 velocity=119 time=6>, 36186], [<message note_on channel=9 note=51 velocity=119 time=72>, 36190], [<message note_off channel=9 note=40 velocity=124 time=2>, 36192], [<message note_off channel=9 note=51 velocity=119 time=12>, 36204], [<message control_change channel=8 control=1 value=14 time=116>, 36206], [<message control_change channel=8 control=1 value=52 time=16>, 36222], [<message control_change channel=8 control=1 value=84 time=16>, 36238], [<message control_change channel=8 control=1 value=95 time=16>, 36254], [<message control_change channel=8 control=1 value=101 time=16>, 36270], [<message note_on channel=9 note=40 velocity=124 time=82>, 36286], [<message note_on channel=9 note=42 velocity=123 time=0>, 36286], [<message note_on channel=9 note=51 velocity=123 time=0>, 36286], [<message note_on channel=0 note=50 velocity=122 time=192>, 36288], [<message note_on channel=2 note=65 velocity=82 time=180>, 36288], [<message note_on channel=2 note=74 velocity=89 time=0>, 36288], [<message control_change channel=8 control=1 value=114 time=18>, 36288], [<message control_change channel=11 control=1 value=14 time=116>, 36302], [<message control_change channel=8 control=1 value=127 time=16>, 36304], [<message note_off channel=2 note=77 velocity=89 time=20>, 36308], [<message note_off channel=2 note=70 velocity=87 time=0>, 36308], [<message note_off channel=9 note=35 velocity=123 time=22>, 36308], [<message note_off channel=9 note=51 velocity=123 time=6>, 36314], [<message control_change channel=11 control=1 value=52 time=16>, 36318], [<message note_off channel=1 note=38 velocity=123 time=226>, 36320], [<message control_change channel=8 control=1 value=111 time=30>, 36334], [<message control_change channel=11 control=1 value=84 time=16>, 36334], [<message note_off channel=0 note=62 velocity=123 time=50>, 36338], [<message note_off channel=9 note=42 velocity=123 time=26>, 36340], [<message control_change channel=8 control=1 value=75 time=16>, 36350], [<message control_change channel=11 control=1 value=95 time=16>, 36350], [<message note_off channel=0 note=58 velocity=102 time=14>, 36352], [<message note_off channel=0 note=65 velocity=123 time=10>, 36362], [<message control_change channel=8 control=1 value=0 time=16>, 36366], [<message control_change channel=11 control=1 value=101 time=16>, 36366], [<message control_change channel=4 control=1 value=119 time=204>, 36372], [<message note_off channel=0 note=70 velocity=122 time=14>, 36376], [<message note_on channel=1 note=38 velocity=124 time=62>, 36382], [<message note_off channel=8 note=70 velocity=124 time=16>, 36382], [<message note_on channel=8 note=67 velocity=124 time=0>, 36382], [<message note_on channel=9 note=35 velocity=114 time=42>, 36382], [<message note_on channel=9 note=51 velocity=118 time=0>, 36382], [<message note_on channel=0 note=67 velocity=122 time=8>, 36384], [<message control_change channel=11 control=1 value=114 time=18>, 36384], [<message control_change channel=11 control=1 value=127 time=16>, 36400], [<message note_off channel=9 note=51 velocity=118 time=30>, 36412], [<message note_off channel=9 note=35 velocity=114 time=4>, 36416], [<message control_change channel=11 control=1 value=111 time=30>, 36430], [<message note_off channel=0 note=38 velocity=123 time=58>, 36442], [<message control_change channel=11 control=1 value=75 time=16>, 36446], [<message control_change channel=11 control=1 value=0 time=16>, 36462], [<message note_off channel=0 note=67 velocity=122 time=22>, 36464], [<message note_off channel=2 note=74 velocity=89 time=164>, 36472], [<message note_off channel=8 note=67 velocity=124 time=94>, 36476], [<message note_off channel=1 note=38 velocity=124 time=96>, 36478], [<message note_on channel=1 note=36 velocity=122 time=0>, 36478], [<message note_off channel=2 note=65 velocity=82 time=6>, 36478], [<message note_on channel=8 note=72 velocity=124 time=2>, 36478], [<message note_off channel=11 note=70 velocity=119 time=16>, 36478], [<message note_on channel=11 note=67 velocity=119 time=0>, 36478], [<message note_on channel=9 note=35 velocity=124 time=62>, 36478], [<message note_on channel=9 note=51 velocity=123 time=0>, 36478], [<message note_on channel=0 note=36 velocity=123 time=16>, 36480], [<message note_on channel=0 note=60 velocity=122 time=0>, 36480], [<message note_on channel=0 note=63 velocity=122 time=0>, 36480], [<message note_on channel=0 note=67 velocity=123 time=0>, 36480], [<message note_on channel=0 note=72 velocity=122 time=0>, 36480], [<message note_on channel=2 note=67 velocity=89 time=2>, 36480], [<message note_on channel=2 note=75 velocity=77 time=0>, 36480], [<message note_off channel=0 note=50 velocity=122 time=6>, 36486], [<message note_off channel=9 note=51 velocity=123 time=26>, 36504], [<message control_change channel=4 control=1 value=123 time=188>, 36560], [<message note_off channel=11 note=67 velocity=119 time=94>, 36572], [<message note_on channel=11 note=72 velocity=119 time=2>, 36574], [<message note_on channel=9 note=51 velocity=114 time=70>, 36574], [<message note_off channel=9 note=40 velocity=124 time=6>, 36580], [<message control_change channel=8 control=1 value=5 time=116>, 36594], [<message note_off channel=9 note=51 velocity=114 time=18>, 36598], [<message control_change channel=8 control=1 value=14 time=16>, 36610], [<message control_change channel=8 control=1 value=23 time=16>, 36626], [<message control_change channel=8 control=1 value=31 time=16>, 36642], [<message control_change channel=8 control=1 value=41 time=16>, 36658], [<message note_on channel=9 note=40 velocity=124 time=72>, 36670], [<message note_on channel=9 note=42 velocity=122 time=0>, 36670], [<message note_on channel=9 note=51 velocity=123 time=0>, 36670], [<message note_on channel=0 note=48 velocity=121 time=186>, 36672], [<message note_on channel=2 note=72 velocity=77 time=192>, 36672], [<message note_on channel=2 note=79 velocity=92 time=0>, 36672], [<message control_change channel=8 control=1 value=51 time=16>, 36674], [<message note_off channel=2 note=75 velocity=77 time=10>, 36682], [<message control_change channel=4 control=1 value=125 time=124>, 36684], [<message note_off channel=2 note=67 velocity=89 time=2>, 36684], [<message control_change channel=8 control=1 value=60 time=16>, 36690], [<message control_change channel=11 control=1 value=5 time=116>, 36690], [<message note_off channel=9 note=51 velocity=123 time=30>, 36700], [<message note_off channel=9 note=35 velocity=124 time=4>, 36704], [<message control_change channel=8 control=1 value=72 time=16>, 36706], [<message control_change channel=11 control=1 value=14 time=16>, 36706], [<message control_change channel=4 control=1 value=127 time=34>, 36718], [<message control_change channel=8 control=1 value=86 time=16>, 36722], [<message control_change channel=11 control=1 value=23 time=16>, 36722], [<message note_off channel=1 note=36 velocity=122 time=246>, 36724], [<message note_off channel=9 note=42 velocity=122 time=22>, 36726], [<message control_change channel=8 control=1 value=100 time=16>, 36738], [<message control_change channel=11 control=1 value=31 time=16>, 36738], [<message control_change channel=11 control=1 value=41 time=16>, 36754], [<message control_change channel=8 control=1 value=98 time=18>, 36756], [<message note_on channel=1 note=36 velocity=119 time=42>, 36766], [<message note_on channel=9 note=35 velocity=114 time=40>, 36766], [<message note_on channel=9 note=51 velocity=115 time=0>, 36766], [<message control_change channel=11 control=1 value=51 time=16>, 36770], [<message control_change channel=8 control=1 value=66 time=16>, 36772], [<message control_change channel=11 control=1 value=60 time=16>, 36786], [<message control_change channel=4 control=1 value=124 time=70>, 36788], [<message control_change channel=8 control=1 value=0 time=16>, 36788], [<message note_off channel=9 note=51 velocity=115 time=26>, 36792], [<message note_off channel=9 note=35 velocity=114 time=2>, 36794], [<message note_off channel=1 note=36 velocity=119 time=36>, 36802], [<message control_change channel=11 control=1 value=72 time=16>, 36802], [<message control_change channel=4 control=1 value=120 time=18>, 36806], [<message control_change channel=11 control=1 value=86 time=16>, 36818], [<message control_change channel=4 control=1 value=107 time=18>, 36824], [<message note_off channel=0 note=60 velocity=122 time=152>, 36824], [<message note_off channel=8 note=72 velocity=124 time=38>, 36826], [<message note_off channel=0 note=72 velocity=122 time=6>, 36830], [<message note_off channel=0 note=36 velocity=123 time=2>, 36832], [<message note_off channel=0 note=63 velocity=122 time=2>, 36834], [<message control_change channel=11 control=1 value=100 time=16>, 36834], [<message note_off channel=0 note=67 velocity=123 time=2>, 36836], [<message control_change channel=4 control=1 value=66 time=16>, 36840], [<message control_change channel=11 control=1 value=98 time=18>, 36852], [<message control_change channel=4 control=1 value=0 time=16>, 36856], [<message note_on channel=8 note=72 velocity=124 time=32>, 36858], [<message note_on channel=1 note=36 velocity=122 time=60>, 36862], [<message note_on channel=9 note=35 velocity=124 time=68>, 36862], [<message note_on channel=9 note=51 velocity=122 time=0>, 36862], [<message note_on channel=0 note=36 velocity=123 time=28>, 36864], [<message note_on channel=0 note=60 velocity=123 time=0>, 36864], [<message note_on channel=0 note=63 velocity=123 time=0>, 36864], [<message note_on channel=0 note=67 velocity=123 time=0>, 36864], [<message note_on channel=0 note=72 velocity=123 time=0>, 36864], [<message note_on channel=2 note=75 velocity=86 time=180>, 36864], [<message note_on channel=2 note=84 velocity=78 time=0>, 36864], [<message note_off channel=2 note=79 velocity=92 time=4>, 36868], [<message control_change channel=11 control=1 value=66 time=16>, 36868], [<message note_off channel=2 note=72 velocity=77 time=8>, 36876], [<message control_change channel=11 control=1 value=0 time=16>, 36884], [<message note_off channel=9 note=51 velocity=122 time=28>, 36890], [<message note_off channel=11 note=72 velocity=119 time=38>, 36922], [<message note_off channel=0 note=60 velocity=123 time=64>, 36928], [<message note_off channel=9 note=40 velocity=124 time=46>, 36936], [<message note_off channel=0 note=63 velocity=123 time=24>, 36952], [<message note_on channel=11 note=72 velocity=119 time=32>, 36954], [<message note_on channel=9 note=51 velocity=115 time=22>, 36958], [<message note_on channel=0 note=62 velocity=122 time=8>, 36960], [<message note_on channel=8 note=74 velocity=124 time=102>, 36960], [<message note_off channel=8 note=72 velocity=124 time=12>, 36972], [<message note_off channel=9 note=51 velocity=115 time=20>, 36978], [<message note_off channel=0 note=67 velocity=123 time=20>, 36980], [<message note_off channel=0 note=62 velocity=122 time=26>, 37006], [<message note_on channel=8 note=75 velocity=124 time=34>, 37006], [<message note_on channel=0 note=63 velocity=119 time=2>, 37008], [<message note_off channel=8 note=74 velocity=124 time=2>, 37008], [<message note_off channel=0 note=48 velocity=121 time=8>, 37016], [<message note_off channel=0 note=72 velocity=123 time=8>, 37024], [<message note_off channel=2 note=84 velocity=78 time=176>, 37052], [<message note_off channel=1 note=36 velocity=122 time=192>, 37054], [<message note_on channel=1 note=31 velocity=122 time=0>, 37054], [<message note_on channel=9 note=40 velocity=123 time=76>, 37054], [<message note_on channel=9 note=42 velocity=124 time=0>, 37054], [<message note_on channel=9 note=51 velocity=122 time=0>, 37054], [<message note_on channel=0 note=48 velocity=121 time=32>, 37056], [<message note_on channel=0 note=60 velocity=123 time=0>, 37056], [<message note_on channel=0 note=67 velocity=123 time=0>, 37056], [<message note_on channel=0 note=72 velocity=122 time=0>, 37056], [<message note_on channel=2 note=79 velocity=84 time=4>, 37056], [<message note_on channel=11 note=74 velocity=119 time=102>, 37056], [<message note_on channel=8 note=72 velocity=124 time=58>, 37066], [<message note_off channel=11 note=72 velocity=119 time=12>, 37068], [<message note_off channel=8 note=75 velocity=124 time=4>, 37070], [<message note_off channel=9 note=35 velocity=124 time=24>, 37078], [<message note_off channel=9 note=51 velocity=122 time=14>, 37092], [<message note_on channel=11 note=75 velocity=119 time=34>, 37102], [<message note_off channel=11 note=74 velocity=119 time=2>, 37104], [<message note_off channel=0 note=60 velocity=123 time=56>, 37112], [<message note_off channel=9 note=42 velocity=124 time=30>, 37122], [<message note_off channel=0 note=63 velocity=119 time=22>, 37134], [<message note_on channel=1 note=30 velocity=120 time=96>, 37150], [<message note_on channel=9 note=35 velocity=118 time=28>, 37150], [<message note_on channel=9 note=51 velocity=121 time=0>, 37150], [<message note_on channel=0 note=62 velocity=119 time=18>, 37152], [<message note_off channel=1 note=31 velocity=122 time=4>, 37154], [<message note_on channel=8 note=74 velocity=124 time=84>, 37154], [<message note_off channel=0 note=67 velocity=123 time=10>, 37162], [<message note_off channel=8 note=72 velocity=124 time=8>, 37162], [<message note_on channel=11 note=72 velocity=119 time=58>, 37162], [<message note_off channel=11 note=75 velocity=119 time=4>, 37166], [<message note_off channel=9 note=35 velocity=118 time=32>, 37182], [<message note_off channel=9 note=51 velocity=121 time=2>, 37184], [<message note_off channel=0 note=36 velocity=123 time=34>, 37196], [<message note_on channel=0 note=43 velocity=118 time=4>, 37200], [<message note_on channel=0 note=63 velocity=114 time=0>, 37200], [<message note_on channel=8 note=75 velocity=124 time=38>, 37200], [<message note_off channel=8 note=74 velocity=124 time=6>, 37206], [<message note_off channel=0 note=62 velocity=119 time=14>, 37214], [<message note_off channel=0 note=43 velocity=118 time=10>, 37224], [<message note_off channel=0 note=63 velocity=114 time=8>, 37232], [<message note_off channel=0 note=48 velocity=121 time=2>, 37234], [<message note_off channel=2 note=79 velocity=84 time=188>, 37244], [<message note_off channel=2 note=75 velocity=86 time=0>, 37244], [<message note_on channel=1 note=29 velocity=123 time=92>, 37246], [<message note_on channel=9 note=35 velocity=124 time=62>, 37246], [<message note_on channel=9 note=49 velocity=123 time=0>, 37246], [<message note_on channel=0 note=41 velocity=122 time=14>, 37248], [<message note_on channel=0 note=65 velocity=121 time=0>, 37248], [<message note_on channel=0 note=68 velocity=121 time=0>, 37248], [<message note_on channel=2 note=77 velocity=89 time=4>, 37248], [<message note_on channel=2 note=80 velocity=84 time=0>, 37248], [<message note_off channel=1 note=30 velocity=120 time=4>, 37250], [<message note_on channel=11 note=74 velocity=119 time=84>, 37250], [<message note_off channel=8 note=75 velocity=124 time=48>, 37254], [<message note_on channel=8 note=77 velocity=124 time=4>, 37258], [<message note_off channel=11 note=72 velocity=119 time=8>, 37258], [<message note_on channel=11 note=75 velocity=119 time=38>, 37296], [<message note_off channel=11 note=74 velocity=119 time=6>, 37302], [<message control_change channel=8 control=1 value=1 time=78>, 37336], [<message note_off channel=9 note=49 velocity=123 time=92>, 37338], [<message note_on channel=9 note=51 velocity=120 time=4>, 37342], [<message note_off channel=11 note=75 velocity=119 time=48>, 37350], [<message control_change channel=8 control=1 value=13 time=16>, 37352], [<message note_on channel=11 note=77 velocity=119 time=4>, 37354], [<message note_off channel=9 note=40 velocity=123 time=14>, 37356], [<message control_change channel=8 control=1 value=31 time=16>, 37368], [<message note_off channel=9 note=51 velocity=120 time=14>, 37370], [<message control_change channel=8 control=1 value=43 time=16>, 37384], [<message control_change channel=8 control=1 value=47 time=18>, 37402], [<message control_change channel=8 control=1 value=52 time=16>, 37418], [<message control_change channel=11 control=1 value=1 time=78>, 37432], [<message control_change channel=8 control=1 value=59 time=18>, 37436], [<message note_on channel=9 note=40 velocity=124 time=68>, 37438], [<message note_on channel=9 note=42 velocity=123 time=0>, 37438], [<message note_on channel=9 note=51 velocity=124 time=0>, 37438], [<message note_on channel=0 note=53 velocity=122 time=192>, 37440], [<message note_on channel=2 note=76 velocity=94 time=192>, 37440], [<message control_change channel=11 control=1 value=13 time=16>, 37448], [<message note_off channel=2 note=77 velocity=89 time=12>, 37452], [<message control_change channel=8 control=1 value=69 time=16>, 37452], [<message control_change channel=11 control=1 value=31 time=16>, 37464], [<message control_change channel=8 control=1 value=80 time=16>, 37468], [<message note_off channel=9 note=35 velocity=124 time=32>, 37470], [<message control_change channel=11 control=1 value=43 time=16>, 37480], [<message control_change channel=8 control=1 value=86 time=16>, 37484], [<message control_change channel=11 control=1 value=47 time=18>, 37498], [<message note_off channel=0 note=72 velocity=122 time=62>, 37502], [<message control_change channel=8 control=1 value=83 time=22>, 37506], [<message note_off channel=9 note=42 velocity=123 time=40>, 37510], [<message note_off channel=0 note=53 velocity=122 time=10>, 37512], [<message note_off channel=0 note=65 velocity=121 time=2>, 37514], [<message note_off channel=0 note=41 velocity=122 time=0>, 37514], [<message control_change channel=11 control=1 value=52 time=16>, 37514], [<message control_change channel=8 control=1 value=50 time=16>, 37522], [<message note_off channel=1 note=29 velocity=123 time=280>, 37530], [<message control_change channel=11 control=1 value=59 time=18>, 37532], [<message note_on channel=1 note=41 velocity=122 time=4>, 37534], [<message note_on channel=9 note=35 velocity=120 time=24>, 37534], [<message note_on channel=0 note=40 velocity=123 time=22>, 37536], [<message note_on channel=0 note=52 velocity=122 time=0>, 37536], [<message note_on channel=0 note=60 velocity=123 time=0>, 37536], [<message note_on channel=0 note=64 velocity=123 time=0>, 37536], [<message note_on channel=0 note=72 velocity=123 time=0>, 37536], [<message control_change channel=8 control=1 value=0 time=16>, 37538], [<message note_off channel=8 note=77 velocity=124 time=2>, 37540], [<message note_off channel=9 note=51 velocity=124 time=6>, 37540], [<message note_on channel=8 note=72 velocity=124 time=2>, 37542], [<message control_change channel=11 control=1 value=69 time=16>, 37548], [<message note_off channel=9 note=35 velocity=120 time=20>, 37560], [<message control_change channel=11 control=1 value=80 time=16>, 37564], [<message control_change channel=11 control=1 value=86 time=16>, 37580], [<message note_on channel=1 note=40 velocity=121 time=48>, 37582], [<message note_off channel=1 note=41 velocity=122 time=6>, 37588], [<message note_off channel=0 note=64 velocity=123 time=66>, 37602], [<message control_change channel=11 control=1 value=83 time=22>, 37602], [<message note_off channel=8 note=72 velocity=124 time=70>, 37612], [<message control_change channel=11 control=1 value=50 time=16>, 37618], [<message note_off channel=0 note=72 velocity=123 time=18>, 37620], [<message note_on channel=8 note=77 velocity=124 time=10>, 37622], [<message note_off channel=0 note=68 velocity=121 time=6>, 37626], [<message note_on channel=1 note=39 velocity=123 time=42>, 37630], [<message note_on channel=9 note=35 velocity=123 time=70>, 37630], [<message note_on channel=9 note=51 velocity=123 time=0>, 37630], [<message note_on channel=0 note=39 velocity=123 time=6>, 37632], [<message note_on channel=0 note=63 velocity=123 time=0>, 37632], [<message note_on channel=0 note=68 velocity=123 time=0>, 37632], [<message note_on channel=0 note=72 velocity=123 time=0>, 37632], [<message note_on channel=2 note=75 velocity=84 time=180>, 37632], [<message note_off channel=2 note=76 velocity=94 time=2>, 37634], [<message control_change channel=11 control=1 value=0 time=16>, 37634], [<message note_off channel=0 note=52 velocity=122 time=4>, 37636], [<message note_off channel=11 note=77 velocity=119 time=2>, 37636], [<message note_off channel=0 note=40 velocity=123 time=2>, 37638], [<message note_on channel=11 note=72 velocity=119 time=2>, 37638], [<message note_off channel=1 note=40 velocity=121 time=14>, 37644], [<message note_off channel=9 note=51 velocity=123 time=20>, 37650], [<message note_off channel=8 note=77 velocity=124 time=58>, 37680], [<message note_on channel=8 note=79 velocity=123 time=0>, 37680], [<message note_off channel=11 note=72 velocity=119 time=70>, 37708], [<message note_off channel=9 note=40 velocity=124 time=58>, 37708], [<message note_off channel=8 note=79 velocity=123 time=36>, 37716], [<message note_on channel=11 note=77 velocity=119 time=10>, 37718], [<message note_on channel=8 note=80 velocity=124 time=20>, 37736], [<message note_off channel=8 note=80 velocity=124 time=28>, 37764], [<message note_on channel=8 note=82 velocity=124 time=12>, 37776], [<message note_off channel=11 note=77 velocity=119 time=58>, 37776], [<message note_on channel=11 note=79 velocity=118 time=0>, 37776], [<message note_off channel=0 note=72 velocity=123 time=144>, 37782], [<message note_off channel=0 note=63 velocity=123 time=2>, 37784], [<message note_off channel=8 note=82 velocity=124 time=22>, 37798], [<message note_off channel=0 note=60 velocity=123 time=22>, 37806], [<message note_off channel=1 note=39 velocity=123 time=168>, 37812], [<message note_off channel=11 note=79 velocity=118 time=36>, 37812], [<message note_on channel=8 note=82 velocity=124 time=22>, 37820], [<message note_on channel=1 note=38 velocity=125 time=10>, 37822], [<message note_on channel=9 note=40 velocity=124 time=114>, 37822], [<message note_on channel=9 note=42 velocity=123 time=0>, 37822], [<message note_on channel=9 note=51 velocity=123 time=0>, 37822], [<message note_on channel=0 note=50 velocity=123 time=18>, 37824], [<message note_on channel=0 note=60 velocity=123 time=0>, 37824], [<message note_on channel=0 note=62 velocity=123 time=0>, 37824], [<message note_on channel=0 note=72 velocity=123 time=0>, 37824], [<message note_on channel=2 note=74 velocity=87 time=190>, 37824], [<message note_on channel=11 note=80 velocity=119 time=20>, 37832], [<message note_off channel=0 note=39 velocity=123 time=12>, 37836], [<message note_off channel=2 note=75 velocity=84 time=12>, 37836], [<message pitchwheel channel=8 pitch=1300 time=18>, 37838], [<message pitchwheel channel=8 pitch=4290 time=8>, 37846], [<message pitchwheel channel=8 pitch=8190 time=8>, 37854], [<message note_off channel=11 note=80 velocity=119 time=28>, 37860], [<message note_off channel=9 note=51 velocity=123 time=42>, 37864], [<message note_on channel=11 note=82 velocity=119 time=12>, 37872], [<message note_off channel=11 note=82 velocity=119 time=22>, 37894], [<message note_off channel=9 note=42 velocity=123 time=32>, 37896], [<message note_off channel=0 note=72 velocity=123 time=66>, 37902], [<message note_on channel=11 note=82 velocity=119 time=22>, 37916], [<message note_off channel=9 note=35 velocity=123 time=20>, 37916], [<message note_on channel=9 note=51 velocity=120 time=2>, 37918], [<message note_off channel=0 note=50 velocity=123 time=20>, 37922], [<message note_off channel=0 note=60 velocity=123 time=2>, 37924], [<message pitchwheel channel=11 pitch=1300 time=18>, 37934], [<message pitchwheel channel=11 pitch=4290 time=8>, 37942], [<message note_off channel=9 note=51 velocity=120 time=26>, 37944], [<message pitchwheel channel=11 pitch=8190 time=8>, 37950], [<message note_off channel=0 note=68 velocity=123 time=38>, 37962], [<message note_off channel=0 note=62 velocity=123 time=34>, 37996], [<message note_off channel=2 note=74 velocity=87 time=172>, 38008], [<message note_on channel=1 note=34 velocity=125 time=192>, 38014], [<message note_on channel=9 note=35 velocity=124 time=70>, 38014], [<message note_on channel=9 note=49 velocity=123 time=0>, 38014], [<message note_on channel=0 note=34 velocity=123 time=20>, 38016], [<message note_on channel=0 note=46 velocity=123 time=0>, 38016], [<message note_on channel=0 note=58 velocity=123 time=0>, 38016], [<message note_on channel=0 note=62 velocity=123 time=0>, 38016], [<message note_on channel=0 note=65 velocity=123 time=0>, 38016], [<message note_on channel=0 note=70 velocity=123 time=0>, 38016], [<message note_on channel=2 note=70 velocity=84 time=8>, 38016], [<message note_on channel=2 note=82 velocity=83 time=0>, 38016], [<message note_off channel=1 note=38 velocity=125 time=10>, 38024], [<message note_off channel=2 note=80 velocity=84 time=8>, 38024], [<message note_off channel=9 note=49 velocity=123 time=46>, 38060], [<message pitchwheel channel=8 pitch=7930 time=216>, 38070], [<message pitchwheel channel=8 pitch=3640 time=8>, 38078], [<message pitchwheel channel=8 pitch=0 time=8>, 38086], [<message note_on channel=9 note=51 velocity=117 time=50>, 38110], [<message note_off channel=9 note=40 velocity=124 time=6>, 38116], [<message note_on channel=8 note=80 velocity=124 time=42>, 38128], [<message note_off channel=8 note=82 velocity=124 time=4>, 38132], [<message note_off channel=9 note=51 velocity=117 time=26>, 38142], [<message note_off channel=0 note=46 velocity=123 time=142>, 38158], [<message note_off channel=8 note=80 velocity=124 time=28>, 38160], [<message note_on channel=8 note=82 velocity=124 time=2>, 38162], [<message pitchwheel channel=11 pitch=7930 time=216>, 38166], [<message pitchwheel channel=11 pitch=3640 time=8>, 38174], [<message pitchwheel channel=11 pitch=0 time=8>, 38182], [<message note_on channel=8 note=80 velocity=124 time=34>, 38196], [<message note_off channel=8 note=82 velocity=124 time=8>, 38204], [<message note_on channel=9 note=40 velocity=123 time=64>, 38206], [<message note_on channel=9 note=42 velocity=124 time=0>, 38206], [<message note_on channel=9 note=51 velocity=123 time=0>, 38206], [<message note_on channel=0 note=46 velocity=120 time=50>, 38208], [<message note_on channel=2 note=72 velocity=97 time=184>, 38208], [<message note_on channel=2 note=75 velocity=89 time=0>, 38208], [<message note_on channel=2 note=76 velocity=89 time=0>, 38208], [<message note_off channel=0 note=34 velocity=123 time=4>, 38212], [<message note_on channel=11 note=80 velocity=119 time=42>, 38224], [<message note_off channel=8 note=80 velocity=124 time=22>, 38226], [<message note_on channel=8 note=79 velocity=124 time=0>, 38226], [<message note_off channel=11 note=82 velocity=119 time=4>, 38228], [<message note_off channel=9 note=35 velocity=124 time=24>, 38230], [<message note_off channel=2 note=76 velocity=89 time=32>, 38240], [<message note_off channel=9 note=51 velocity=123 time=16>, 38246], [<message note_off channel=2 note=75 velocity=89 time=8>, 38248], [<message note_off channel=2 note=70 velocity=84 time=2>, 38250], [<message note_on channel=2 note=75 velocity=42 time=6>, 38256], [<message note_off channel=11 note=80 velocity=119 time=28>, 38256], [<message note_on channel=11 note=82 velocity=119 time=2>, 38258], [<message note_off channel=8 note=79 velocity=124 time=34>, 38260], [<message note_on channel=8 note=80 velocity=124 time=0>, 38260], [<message note_off channel=0 note=58 velocity=123 time=52>, 38264], [<message note_off channel=1 note=34 velocity=125 time=248>, 38272], [<message note_off channel=9 note=42 velocity=124 time=28>, 38274], [<message note_on channel=8 note=79 velocity=124 time=26>, 38286], [<message note_off channel=8 note=80 velocity=124 time=4>, 38290], [<message note_on channel=11 note=80 velocity=119 time=34>, 38292], [<message note_off channel=11 note=82 velocity=119 time=8>, 38300], [<message note_on channel=1 note=34 velocity=119 time=30>, 38302], [<message note_on channel=9 note=35 velocity=119 time=28>, 38302], [<message note_on channel=9 note=51 velocity=120 time=0>, 38302], [<message note_on channel=0 note=34 velocity=119 time=40>, 38304], [<message note_on channel=0 note=58 velocity=118 time=0>, 38304], [<message note_on channel=8 note=77 velocity=124 time=28>, 38318], [<message note_off channel=8 note=79 velocity=124 time=2>, 38320], [<message note_off channel=11 note=80 velocity=119 time=22>, 38322], [<message note_on channel=11 note=79 velocity=119 time=0>, 38322], [<message note_off channel=9 note=51 velocity=120 time=26>, 38328], [<message note_on channel=8 note=79 velocity=124 time=20>, 38340], [<message note_off channel=9 note=35 velocity=119 time=16>, 38344], [<message note_off channel=1 note=34 velocity=119 time=44>, 38346], [<message note_off channel=8 note=77 velocity=124 time=6>, 38346], [<message note_off channel=11 note=79 velocity=119 time=34>, 38356], [<message note_on channel=11 note=80 velocity=119 time=0>, 38356], [<message note_off channel=2 note=75 velocity=42 time=104>, 38360], [<message note_on channel=8 note=77 velocity=124 time=20>, 38366], [<message note_off channel=8 note=79 velocity=124 time=12>, 38378], [<message note_off channel=0 note=34 velocity=119 time=78>, 38382], [<message note_off channel=2 note=72 velocity=97 time=22>, 38382], [<message note_on channel=11 note=79 velocity=119 time=26>, 38382], [<message note_off channel=0 note=62 velocity=123 time=4>, 38386], [<message note_off channel=11 note=80 velocity=119 time=4>, 38386], [<message note_on channel=1 note=34 velocity=123 time=52>, 38398], [<message note_on channel=8 note=75 velocity=124 time=20>, 38398], [<message note_on channel=9 note=35 velocity=122 time=54>, 38398], [<message note_on channel=9 note=51 velocity=123 time=0>, 38398], [<message note_on channel=0 note=34 velocity=117 time=14>, 38400], [<message note_on channel=0 note=62 velocity=120 time=0>, 38400], [<message note_on channel=2 note=74 velocity=92 time=18>, 38400], [<message note_on channel=2 note=77 velocity=89 time=0>, 38400], [<message note_off channel=8 note=77 velocity=124 time=2>, 38400], [<message note_on channel=11 note=77 velocity=119 time=28>, 38414], [<message note_off channel=11 note=79 velocity=119 time=2>, 38416], [<message note_off channel=0 note=65 velocity=123 time=30>, 38430], [<message note_off channel=9 note=51 velocity=123 time=32>, 38430], [<message note_off channel=8 note=75 velocity=124 time=32>, 38432], [<message note_on channel=8 note=77 velocity=124 time=0>, 38432], [<message note_on channel=11 note=79 velocity=119 time=20>, 38436], [<message note_off channel=11 note=77 velocity=119 time=6>, 38442], [<message note_on channel=8 note=75 velocity=124 time=22>, 38454], [<message note_off channel=8 note=77 velocity=124 time=4>, 38458], [<message note_off channel=9 note=40 velocity=123 time=30>, 38460], [<message note_on channel=11 note=77 velocity=119 time=20>, 38462], [<message note_off channel=11 note=79 velocity=119 time=12>, 38474], [<message note_on channel=8 note=74 velocity=124 time=24>, 38482], [<message note_off channel=8 note=75 velocity=124 time=4>, 38486], [<message note_on channel=11 note=75 velocity=119 time=20>, 38494], [<message note_on channel=9 note=40 velocity=123 time=34>, 38494], [<message note_on channel=9 note=42 velocity=123 time=0>, 38494], [<message note_on channel=9 note=51 velocity=122 time=0>, 38494], [<message note_on channel=0 note=65 velocity=120 time=66>, 38496], [<message note_off channel=11 note=77 velocity=119 time=2>, 38496], [<message note_off channel=8 note=74 velocity=124 time=16>, 38502], [<message note_on channel=8 note=75 velocity=124 time=0>, 38502], [<message note_off channel=9 note=40 velocity=123 time=24>, 38518], [<message note_off channel=0 note=70 velocity=123 time=26>, 38522], [<message note_off channel=9 note=51 velocity=122 time=6>, 38524], [<message note_on channel=8 note=74 velocity=124 time=24>, 38526], [<message note_off channel=11 note=75 velocity=119 time=32>, 38528], [<message note_on channel=11 note=77 velocity=119 time=0>, 38528], [<message note_off channel=8 note=75 velocity=124 time=4>, 38530], [<message note_off channel=0 note=46 velocity=120 time=18>, 38540], [<message note_off channel=8 note=74 velocity=124 time=20>, 38550], [<message note_on channel=11 note=75 velocity=119 time=22>, 38550], [<message note_on channel=8 note=72 velocity=124 time=2>, 38552], [<message note_off channel=9 note=42 velocity=123 time=28>, 38552], [<message note_off channel=11 note=77 velocity=119 time=4>, 38554], [<message note_off channel=0 note=58 velocity=118 time=38>, 38578], [<message note_on channel=11 note=74 velocity=119 time=24>, 38578], [<message note_off channel=11 note=75 velocity=119 time=4>, 38582], [<message note_on channel=8 note=70 velocity=124 time=32>, 38584], [<message note_on channel=9 note=40 velocity=123 time=38>, 38590], [<message note_on channel=0 note=46 velocity=122 time=14>, 38592], [<message note_on channel=0 note=58 velocity=120 time=0>, 38592], [<message note_on channel=0 note=70 velocity=120 time=0>, 38592], [<message note_on channel=2 note=80 velocity=82 time=192>, 38592], [<message note_off channel=8 note=72 velocity=124 time=8>, 38592], [<message note_off channel=11 note=74 velocity=119 time=16>, 38598], [<message note_on channel=11 note=75 velocity=119 time=0>, 38598], [<message note_off channel=9 note=35 velocity=122 time=12>, 38602], [<message note_off channel=0 note=65 velocity=120 time=12>, 38604], [<message note_off channel=0 note=34 velocity=117 time=2>, 38606], [<message note_off channel=2 note=82 velocity=83 time=16>, 38608], [<message note_on channel=11 note=74 velocity=119 time=24>, 38622], [<message note_off channel=9 note=40 velocity=123 time=22>, 38624], [<message note_off channel=11 note=75 velocity=119 time=4>, 38626], [<message note_off channel=0 note=62 velocity=120 time=26>, 38632], [<message note_on channel=1 note=36 velocity=121 time=240>, 38638], [<message note_on channel=9 note=43 velocity=122 time=14>, 38638], [<message note_on channel=9 note=51 velocity=123 time=0>, 38638], [<message note_on channel=0 note=65 velocity=107 time=8>, 38640], [<message note_off channel=1 note=34 velocity=123 time=4>, 38642], [<message note_off channel=11 note=74 velocity=119 time=20>, 38646], [<message note_on channel=11 note=72 velocity=119 time=2>, 38648], [<message control_change channel=8 control=1 value=4 time=64>, 38656], [<message note_off channel=9 note=51 velocity=123 time=28>, 38666], [<message control_change channel=8 control=1 value=38 time=16>, 38672], [<message note_on channel=11 note=70 velocity=119 time=32>, 38680], [<message note_off channel=9 note=43 velocity=122 time=18>, 38684], [<message note_on channel=1 note=38 velocity=124 time=44>, 38686], [<message note_on channel=9 note=35 velocity=123 time=2>, 38686], [<message note_on channel=9 note=42 velocity=123 time=0>, 38686], [<message note_on channel=9 note=45 velocity=122 time=0>, 38686], [<message note_on channel=0 note=34 velocity=116 time=48>, 38688], [<message note_off channel=1 note=36 velocity=121 time=2>, 38688], [<message control_change channel=8 control=1 value=59 time=16>, 38688], [<message note_off channel=11 note=72 velocity=119 time=8>, 38688], [<message control_change channel=8 control=1 value=84 time=16>, 38704], [<message note_off channel=9 note=42 velocity=123 time=22>, 38708], [<message note_off channel=0 note=34 velocity=116 time=30>, 38718], [<message control_change channel=8 control=1 value=107 time=16>, 38720], [<message note_off channel=9 note=35 velocity=123 time=16>, 38724], [<message control_change channel=8 control=1 value=120 time=16>, 38736], [<message note_off channel=0 note=46 velocity=122 time=22>, 38740], [<message note_off channel=0 note=70 velocity=120 time=10>, 38750], [<message control_change channel=8 control=1 value=117 time=16>, 38752], [<message control_change channel=11 control=1 value=4 time=64>, 38752], [<message note_off channel=0 note=58 velocity=120 time=6>, 38756], [<message control_change channel=8 control=1 value=85 time=16>, 38768], [<message control_change channel=11 control=1 value=38 time=16>, 38768], [<message note_off channel=8 note=70 velocity=124 time=6>, 38774], [<message note_off channel=9 note=45 velocity=122 time=52>, 38776], [<message note_off channel=0 note=65 velocity=107 time=22>, 38778], [<message note_off channel=2 note=77 velocity=89 time=172>, 38780], [<message note_on channel=1 note=39 velocity=123 time=94>, 38782], [<message note_off channel=2 note=74 velocity=92 time=2>, 38782], [<message note_on channel=9 note=35 velocity=123 time=6>, 38782], [<message note_on channel=9 note=49 velocity=123 time=0>, 38782], [<message note_on channel=0 note=39 velocity=123 time=6>, 38784], [<message note_on channel=0 note=58 velocity=123 time=0>, 38784], [<message note_on channel=0 note=63 velocity=123 time=0>, 38784], [<message note_on channel=0 note=67 velocity=123 time=0>, 38784], [<message note_on channel=0 note=70 velocity=123 time=0>, 38784], [<message note_on channel=2 note=75 velocity=83 time=2>, 38784], [<message note_on channel=2 note=79 velocity=88 time=0>, 38784], [<message control_change channel=11 control=1 value=59 time=16>, 38784], [<message note_off channel=2 note=80 velocity=82 time=2>, 38786], [<message control_change channel=8 control=1 value=0 time=12>, 38786], [<message note_off channel=1 note=38 velocity=124 time=6>, 38788], [<message control_change channel=11 control=1 value=84 time=16>, 38800], [<message control_change channel=11 control=1 value=107 time=16>, 38816], [<message control_change channel=11 control=1 value=120 time=16>, 38832], [<message note_on channel=8 note=70 velocity=124 time=60>, 38846], [<message control_change channel=11 control=1 value=114 time=18>, 38850], [<message control_change channel=11 control=1 value=80 time=16>, 38866], [<message note_off channel=11 note=70 velocity=119 time=4>, 38870], [<message control_change channel=11 control=1 value=0 time=12>, 38882], [<message note_off channel=8 note=70 velocity=124 time=40>, 38886], [<message note_on channel=8 note=72 velocity=124 time=4>, 38890], [<message note_off channel=9 note=49 velocity=123 time=128>, 38910], [<message note_on channel=8 note=74 velocity=124 time=40>, 38930], [<message note_off channel=8 note=72 velocity=124 time=10>, 38940], [<message note_on channel=11 note=70 velocity=119 time=60>, 38942], [<message note_off channel=1 note=39 velocity=123 time=156>, 38944], [<message note_off channel=8 note=74 velocity=124 time=22>, 38962], [<message note_on channel=8 note=75 velocity=124 time=8>, 38970], [<message note_on channel=1 note=39 velocity=119 time=30>, 38974], [<message note_on channel=9 note=40 velocity=124 time=64>, 38974], [<message note_on channel=9 note=42 velocity=123 time=0>, 38974], [<message note_on channel=9 note=51 velocity=123 time=0>, 38974], [<message note_on channel=0 note=51 velocity=120 time=192>, 38976], [<message note_on channel=2 note=82 velocity=90 time=190>, 38976], [<message note_off channel=11 note=70 velocity=119 time=40>, 38982], [<message note_on channel=11 note=72 velocity=119 time=4>, 38986], [<message note_off channel=2 note=79 velocity=88 time=16>, 38992], [<message note_off channel=9 note=35 velocity=123 time=22>, 38996], [<message note_off channel=8 note=75 velocity=124 time=28>, 38998], [<message note_on channel=8 note=77 velocity=124 time=8>, 39006], [<message note_on channel=11 note=74 velocity=119 time=40>, 39026], [<message note_off channel=1 note=39 velocity=119 time=54>, 39028], [<message note_off channel=0 note=58 velocity=123 time=54>, 39030], [<message note_off channel=9 note=51 velocity=123 time=34>, 39030], [<message note_off channel=0 note=39 velocity=123 time=6>, 39036], [<message note_off channel=11 note=72 velocity=119 time=10>, 39036], [<message note_off channel=0 note=70 velocity=123 time=2>, 39038], [<message note_on channel=8 note=79 velocity=124 time=32>, 39038], [<message note_off channel=0 note=67 velocity=123 time=4>, 39042], [<message note_off channel=8 note=77 velocity=124 time=6>, 39044], [<message note_off channel=0 note=63 velocity=123 time=12>, 39054], [<message note_off channel=11 note=74 velocity=119 time=22>, 39058], [<message note_off channel=9 note=42 velocity=123 time=32>, 39062], [<message note_on channel=11 note=75 velocity=119 time=8>, 39066], [<message note_off channel=8 note=79 velocity=124 time=24>, 39068], [<message note_on channel=1 note=39 velocity=122 time=42>, 39070], [<message note_on channel=9 note=35 velocity=116 time=8>, 39070], [<message note_on channel=9 note=51 velocity=121 time=0>, 39070], [<message note_on channel=0 note=39 velocity=122 time=18>, 39072], [<message note_on channel=0 note=58 velocity=123 time=0>, 39072], [<message note_on channel=0 note=63 velocity=120 time=0>, 39072], [<message note_on channel=0 note=67 velocity=120 time=0>, 39072], [<message note_on channel=0 note=70 velocity=122 time=0>, 39072], [<message note_on channel=8 note=80 velocity=124 time=4>, 39072], [<message note_off channel=11 note=75 velocity=119 time=28>, 39094], [<message note_off channel=9 note=51 velocity=121 time=26>, 39096], [<message note_on channel=8 note=82 velocity=124 time=30>, 39102], [<message note_on channel=11 note=77 velocity=119 time=8>, 39102], [<message note_off channel=8 note=80 velocity=124 time=2>, 39104], [<message note_off channel=9 note=35 velocity=116 time=12>, 39108], [<message note_on channel=11 note=79 velocity=119 time=32>, 39134], [<message note_off channel=11 note=77 velocity=119 time=6>, 39140], [<message control_change channel=8 control=1 value=6 time=38>, 39142], [<message note_off channel=0 note=39 velocity=122 time=76>, 39148], [<message note_off channel=0 note=63 velocity=120 time=10>, 39158], [<message control_change channel=8 control=1 value=18 time=16>, 39158], [<message note_off channel=0 note=67 velocity=120 time=4>, 39162], [<message note_off channel=11 note=79 velocity=119 time=24>, 39164], [<message note_on channel=1 note=38 velocity=125 time=96>, 39166], [<message note_on channel=9 note=35 velocity=123 time=58>, 39166], [<message note_on channel=9 note=49 velocity=123 time=0>, 39166], [<message note_on channel=0 note=38 velocity=121 time=6>, 39168], [<message note_on channel=0 note=62 velocity=123 time=0>, 39168], [<message note_on channel=0 note=65 velocity=123 time=0>, 39168], [<message note_off channel=1 note=39 velocity=122 time=2>, 39168], [<message note_off channel=2 note=82 velocity=90 time=176>, 39168], [<message note_off channel=2 note=75 velocity=83 time=0>, 39168], [<message note_on channel=2 note=74 velocity=92 time=0>, 39168], [<message note_on channel=2 note=77 velocity=78 time=0>, 39168], [<message note_on channel=11 note=80 velocity=119 time=4>, 39168], [<message note_off channel=0 note=51 velocity=120 time=2>, 39170], [<message control_change channel=8 control=1 value=38 time=16>, 39174], [<message control_change channel=8 control=1 value=65 time=16>, 39190], [<message note_on channel=11 note=82 velocity=119 time=30>, 39198], [<message note_off channel=11 note=80 velocity=119 time=2>, 39200], [<message control_change channel=8 control=1 value=84 time=16>, 39206], [<message note_off channel=9 note=49 velocity=123 time=48>, 39214], [<message control_change channel=8 control=1 value=68 time=16>, 39222], [<message note_on channel=8 note=70 velocity=124 time=8>, 39230], [<message note_off channel=8 note=82 velocity=124 time=2>, 39232], [<message control_change channel=8 control=1 value=0 time=6>, 39238], [<message control_change channel=11 control=1 value=6 time=38>, 39238], [<message note_off channel=0 note=58 velocity=123 time=80>, 39250], [<message control_change channel=11 control=1 value=18 time=16>, 39254], [<message note_off channel=8 note=70 velocity=124 time=18>, 39256], [<message note_on channel=8 note=72 velocity=124 time=6>, 39262], [<message note_on channel=9 note=51 velocity=120 time=48>, 39262], [<message note_on channel=0 note=58 velocity=117 time=14>, 39264], [<message control_change channel=11 control=1 value=38 time=16>, 39270], [<message note_off channel=9 note=40 velocity=124 time=8>, 39270], [<message note_off channel=0 note=62 velocity=123 time=8>, 39272], [<message control_change channel=11 control=1 value=65 time=16>, 39286], [<message note_off channel=9 note=51 velocity=120 time=22>, 39292], [<message note_on channel=8 note=74 velocity=124 time=38>, 39300], [<message control_change channel=11 control=1 value=84 time=16>, 39302], [<message note_off channel=8 note=72 velocity=124 time=8>, 39308], [<message note_on channel=0 note=62 velocity=110 time=40>, 39312], [<message control_change channel=11 control=1 value=68 time=16>, 39318], [<message note_off channel=0 note=65 velocity=123 time=14>, 39326], [<message note_on channel=11 note=70 velocity=119 time=8>, 39326], [<message note_off channel=11 note=82 velocity=119 time=2>, 39328], [<message note_off channel=8 note=74 velocity=124 time=24>, 39332], [<message control_change channel=11 control=1 value=0 time=6>, 39334], [<message note_on channel=8 note=75 velocity=124 time=4>, 39336], [<message note_off channel=1 note=38 velocity=125 time=178>, 39346], [<message note_off channel=11 note=70 velocity=119 time=18>, 39352], [<message note_on channel=1 note=38 velocity=121 time=12>, 39358], [<message note_on channel=11 note=72 velocity=119 time=6>, 39358], [<message note_on channel=9 note=40 velocity=124 time=66>, 39358], [<message note_on channel=9 note=42 velocity=123 time=0>, 39358], [<message note_on channel=9 note=51 velocity=123 time=0>, 39358], [<message note_on channel=0 note=50 velocity=123 time=34>, 39360], [<message note_on channel=2 note=82 velocity=78 time=192>, 39360], [<message note_off channel=8 note=75 velocity=124 time=30>, 39366], [<message note_on channel=8 note=77 velocity=124 time=4>, 39370], [<message note_off channel=0 note=58 velocity=117 time=18>, 39378], [<message note_off channel=0 note=38 velocity=121 time=2>, 39380], [<message note_off channel=9 note=35 velocity=123 time=28>, 39386], [<message note_off channel=1 note=38 velocity=121 time=30>, 39388], [<message note_off channel=0 note=70 velocity=122 time=14>, 39394], [<message note_on channel=11 note=74 velocity=119 time=38>, 39396], [<message note_off channel=9 note=51 velocity=123 time=10>, 39396], [<message note_off channel=11 note=72 velocity=119 time=8>, 39404], [<message note_on channel=0 note=58 velocity=122 time=14>, 39408], [<message note_on channel=0 note=65 velocity=123 time=0>, 39408], [<message note_on channel=0 note=70 velocity=122 time=0>, 39408], [<message note_on channel=8 note=79 velocity=124 time=38>, 39408], [<message note_off channel=8 note=77 velocity=124 time=8>, 39416], [<message note_off channel=11 note=74 velocity=119 time=24>, 39428], [<message note_on channel=11 note=75 velocity=119 time=4>, 39432], [<message note_off channel=9 note=42 velocity=123 time=42>, 39438], [<message note_off channel=8 note=79 velocity=124 time=24>, 39440], [<message note_on channel=8 note=80 velocity=124 time=6>, 39446], [<message note_on channel=1 note=38 velocity=125 time=66>, 39454], [<message note_on channel=9 note=35 velocity=121 time=16>, 39454], [<message note_on channel=9 note=51 velocity=122 time=0>, 39454], [<message note_on channel=0 note=43 velocity=116 time=48>, 39456], [<message note_off channel=0 note=62 velocity=110 time=4>, 39460], [<message note_off channel=11 note=75 velocity=119 time=30>, 39462], [<message note_on channel=11 note=77 velocity=119 time=4>, 39466], [<message note_off channel=0 note=65 velocity=123 time=12>, 39472], [<message note_off channel=8 note=80 velocity=124 time=30>, 39476], [<message note_off channel=9 note=51 velocity=122 time=24>, 39478], [<message note_on channel=8 note=82 velocity=124 time=4>, 39480], [<message note_off channel=9 note=35 velocity=121 time=20>, 39498], [<message note_off channel=0 note=70 velocity=122 time=28>, 39500], [<message note_on channel=0 note=67 velocity=112 time=4>, 39504], [<message note_on channel=11 note=79 velocity=119 time=38>, 39504], [<message note_off channel=11 note=77 velocity=119 time=8>, 39512], [<message note_off channel=0 note=67 velocity=112 time=12>, 39516], [<message note_off channel=0 note=58 velocity=122 time=0>, 39516], [<message pitchwheel channel=8 pitch=650 time=56>, 39536], [<message note_off channel=11 note=79 velocity=119 time=24>, 39536], [<message note_off channel=2 note=82 velocity=78 time=182>, 39542], [<message note_on channel=11 note=80 velocity=119 time=6>, 39542], [<message pitchwheel channel=8 pitch=2600 time=8>, 39544], [<message note_on channel=1 note=36 velocity=125 time=96>, 39550], [<message note_on channel=9 note=35 velocity=124 time=52>, 39550], [<message note_on channel=9 note=49 velocity=123 time=0>, 39550], [<message note_off channel=0 note=50 velocity=123 time=36>, 39552], [<message note_on channel=0 note=36 velocity=123 time=0>, 39552], [<message note_on channel=0 note=60 velocity=123 time=0>, 39552], [<message note_on channel=0 note=63 velocity=123 time=0>, 39552], [<message note_on channel=0 note=67 velocity=123 time=0>, 39552], [<message note_on channel=0 note=72 velocity=123 time=0>, 39552], [<message note_on channel=2 note=72 velocity=89 time=10>, 39552], [<message note_on channel=2 note=75 velocity=86 time=0>, 39552], [<message pitchwheel channel=8 pitch=5460 time=8>, 39552], [<message note_off channel=0 note=43 velocity=116 time=2>, 39554], [<message pitchwheel channel=8 pitch=8190 time=8>, 39560], [<message note_off channel=2 note=77 velocity=78 time=10>, 39562], [<message note_off channel=1 note=38 velocity=125 time=16>, 39566], [<message note_off channel=2 note=74 velocity=92 time=10>, 39572], [<message note_off channel=11 note=80 velocity=119 time=30>, 39572], [<message note_on channel=11 note=82 velocity=119 time=4>, 39576], [<message note_off channel=9 note=49 velocity=123 time=56>, 39606], [<message pitchwheel channel=11 pitch=650 time=56>, 39632], [<message pitchwheel channel=11 pitch=2600 time=8>, 39640], [<message note_on channel=9 note=51 velocity=118 time=40>, 39646], [<message pitchwheel channel=11 pitch=5460 time=8>, 39648], [<message note_off channel=9 note=40 velocity=124 time=8>, 39654], [<message pitchwheel channel=11 pitch=8190 time=8>, 39656], [<message note_off channel=9 note=51 velocity=118 time=20>, 39674], [<message note_on channel=9 note=40 velocity=124 time=68>, 39742], [<message note_on channel=9 note=42 velocity=123 time=0>, 39742], [<message note_on channel=9 note=51 velocity=123 time=0>, 39742], [<message note_on channel=0 note=48 velocity=122 time=190>, 39744], [<message note_on channel=2 note=82 velocity=87 time=172>, 39744], [<message note_off channel=0 note=60 velocity=123 time=12>, 39756], [<message control_change channel=8 control=1 value=6 time=198>, 39758], [<message control_change channel=8 control=1 value=28 time=16>, 39774], [<message note_off channel=9 note=35 velocity=124 time=36>, 39778], [<message note_off channel=9 note=51 velocity=123 time=4>, 39782], [<message control_change channel=8 control=1 value=79 time=16>, 39790], [<message control_change channel=8 control=1 value=100 time=16>, 39806], [<message note_off channel=9 note=42 velocity=123 time=30>, 39812], [<message note_off channel=0 note=63 velocity=123 time=60>, 39816], [<message note_off channel=1 note=36 velocity=125 time=256>, 39822], [<message control_change channel=8 control=1 value=112 time=16>, 39822], [<message note_on channel=1 note=31 velocity=121 time=16>, 39838], [<message note_on channel=9 note=35 velocity=121 time=26>, 39838], [<message note_on channel=9 note=51 velocity=120 time=0>, 39838], [<message note_on channel=0 note=62 velocity=117 time=24>, 39840], [<message note_off channel=8 note=82 velocity=124 time=18>, 39840], [<message pitchwheel channel=8 pitch=0 time=0>, 39840], [<message note_on channel=8 note=74 velocity=124 time=0>, 39840], [<message control_change channel=8 control=1 value=82 time=4>, 39844], [<message note_off channel=0 note=67 velocity=123 time=6>, 39846], [<message control_change channel=11 control=1 value=6 time=198>, 39854], [<message control_change channel=8 control=1 value=0 time=16>, 39860], [<message note_off channel=9 note=51 velocity=120 time=30>, 39868], [<message control_change channel=11 control=1 value=28 time=16>, 39870], [<message note_off channel=9 note=35 velocity=121 time=4>, 39872], [<message note_off channel=8 note=74 velocity=124 time=24>, 39884], [<message note_off channel=0 note=62 velocity=117 time=40>, 39886], [<message note_on channel=1 note=34 velocity=122 time=48>, 39886], [<message control_change channel=11 control=1 value=79 time=16>, 39886], [<message note_on channel=0 note=63 velocity=116 time=2>, 39888], [<message note_on channel=8 note=75 velocity=124 time=4>, 39888], [<message pitchwheel channel=8 pitch=372 time=0>, 39888], [<message note_off channel=0 note=72 velocity=123 time=4>, 39892], [<message note_off channel=1 note=31 velocity=121 time=16>, 39902], [<message control_change channel=11 control=1 value=100 time=16>, 39902], [<message note_off channel=0 note=36 velocity=123 time=24>, 39916], [<message control_change channel=11 control=1 value=112 time=16>, 39918], [<message note_off channel=1 note=34 velocity=122 time=28>, 39930], [<message note_off channel=2 note=75 velocity=86 time=188>, 39932], [<message note_on channel=1 note=36 velocity=124 time=4>, 39934], [<message note_on channel=9 note=35 velocity=124 time=62>, 39934], [<message note_on channel=9 note=51 velocity=123 time=0>, 39934], [<message note_on channel=0 note=36 velocity=121 time=20>, 39936], [<message note_on channel=0 note=60 velocity=122 time=0>, 39936], [<message note_on channel=0 note=67 velocity=122 time=0>, 39936], [<message note_on channel=0 note=72 velocity=123 time=0>, 39936], [<message note_off channel=2 note=82 velocity=87 time=4>, 39936], [<message note_on channel=2 note=70 velocity=81 time=0>, 39936], [<message note_on channel=2 note=74 velocity=74 time=0>, 39936], [<message note_on channel=2 note=77 velocity=78 time=0>, 39936], [<message note_off channel=8 note=75 velocity=124 time=48>, 39936], [<message note_on channel=8 note=72 velocity=124 time=0>, 39936], [<message note_off channel=11 note=82 velocity=119 time=18>, 39936], [<message pitchwheel channel=11 pitch=0 time=0>, 39936], [<message note_on channel=11 note=74 velocity=119 time=0>, 39936], [<message note_off channel=2 note=72 velocity=89 time=2>, 39938], [<message control_change channel=11 control=1 value=82 time=4>, 39940], [<message note_off channel=0 note=63 velocity=116 time=18>, 39954], [<message control_change channel=11 control=1 value=0 time=16>, 39956], [<message note_off channel=9 note=51 velocity=123 time=42>, 39976], [<message note_off channel=11 note=74 velocity=119 time=24>, 39980], [<message note_on channel=11 note=75 velocity=119 time=4>, 39984], [<message pitchwheel channel=11 pitch=372 time=0>, 39984], [<message note_off channel=0 note=60 velocity=122 time=50>, 40004], [<message note_off channel=9 note=40 velocity=124 time=48>, 40024], [<message note_off channel=8 note=72 velocity=124 time=90>, 40026], [<message note_on channel=9 note=51 velocity=120 time=6>, 40030], [<message note_on channel=0 note=62 velocity=120 time=28>, 40032], [<message note_on channel=8 note=74 velocity=124 time=6>, 40032], [<message note_off channel=11 note=75 velocity=119 time=48>, 40032], [<message note_on channel=11 note=72 velocity=119 time=0>, 40032], [<message note_off channel=0 note=48 velocity=122 time=24>, 40056], [<message note_off channel=9 note=51 velocity=120 time=28>, 40058], [<message note_on channel=8 note=75 velocity=124 time=42>, 40074], [<message note_off channel=0 note=62 velocity=120 time=24>, 40080], [<message note_on channel=0 note=63 velocity=122 time=0>, 40080], [<message note_off channel=8 note=74 velocity=124 time=6>, 40080], [<message note_off channel=0 note=67 velocity=122 time=16>, 40096], [<message note_off channel=0 note=72 velocity=123 time=4>, 40100], [<message note_off channel=11 note=72 velocity=119 time=90>, 40122], [<message note_on channel=1 note=31 velocity=122 time=192>, 40126], [<message note_off channel=2 note=70 velocity=81 time=188>, 40126], [<message note_on channel=9 note=40 velocity=124 time=68>, 40126], [<message note_on channel=9 note=42 velocity=123 time=0>, 40126], [<message note_on channel=9 note=51 velocity=124 time=0>, 40126], [<message note_on channel=0 note=48 velocity=122 time=28>, 40128], [<message note_on channel=0 note=60 velocity=123 time=0>, 40128], [<message note_on channel=0 note=67 velocity=123 time=0>, 40128], [<message note_on channel=0 note=72 velocity=123 time=0>, 40128], [<message note_off channel=1 note=36 velocity=124 time=2>, 40128], [<message note_on channel=2 note=72 velocity=74 time=2>, 40128], [<message note_on channel=2 note=75 velocity=90 time=0>, 40128], [<message note_on channel=2 note=82 velocity=74 time=0>, 40128], [<message note_on channel=11 note=74 velocity=119 time=6>, 40128], [<message note_off channel=0 note=63 velocity=122 time=2>, 40130], [<message note_on channel=8 note=72 velocity=124 time=52>, 40132], [<message note_off channel=8 note=75 velocity=124 time=2>, 40134], [<message note_off channel=2 note=77 velocity=78 time=16>, 40144], [<message note_off channel=2 note=82 velocity=74 time=10>, 40154], [<message note_off channel=9 note=35 velocity=124 time=32>, 40158], [<message note_off channel=2 note=74 velocity=74 time=6>, 40160], [<message note_off channel=9 note=51 velocity=124 time=8>, 40166], [<message note_on channel=11 note=75 velocity=119 time=42>, 40170], [<message note_off channel=11 note=74 velocity=119 time=6>, 40176], [<message note_off channel=0 note=60 velocity=123 time=48>, 40178], [<message note_off channel=0 note=36 velocity=121 time=12>, 40190], [<message note_on channel=1 note=30 velocity=122 time=94>, 40222], [<message note_on channel=8 note=74 velocity=124 time=88>, 40222], [<message note_on channel=9 note=35 velocity=123 time=56>, 40222], [<message note_on channel=9 note=51 velocity=122 time=0>, 40222], [<message note_on channel=0 note=62 velocity=114 time=34>, 40224], [<message note_off channel=9 note=42 velocity=123 time=4>, 40226], [<message note_on channel=11 note=72 velocity=119 time=52>, 40228], [<message note_off channel=1 note=31 velocity=122 time=8>, 40230], [<message note_off channel=11 note=75 velocity=119 time=2>, 40230], [<message note_off channel=8 note=72 velocity=124 time=14>, 40236], [<message note_off channel=0 note=67 velocity=123 time=18>, 40242], [<message note_off channel=9 note=51 velocity=122 time=30>, 40256], [<message note_off channel=9 note=35 velocity=123 time=4>, 40260], [<message note_on channel=8 note=75 velocity=124 time=30>, 40266], [<message note_off channel=0 note=48 velocity=122 time=28>, 40270], [<message note_off channel=8 note=74 velocity=124 time=4>, 40270], [<message note_on channel=0 note=43 velocity=119 time=2>, 40272], [<message note_on channel=0 note=63 velocity=117 time=0>, 40272], [<message note_off channel=0 note=72 velocity=123 time=8>, 40280], [<message note_off channel=0 note=62 velocity=114 time=4>, 40284], [<message note_off channel=0 note=43 velocity=119 time=12>, 40296], [<message note_off channel=0 note=63 velocity=117 time=8>, 40304], [<message note_off channel=1 note=30 velocity=122 time=82>, 40312], [<message note_on channel=1 note=29 velocity=124 time=6>, 40318], [<message note_off channel=8 note=75 velocity=124 time=48>, 40318], [<message note_on channel=11 note=74 velocity=119 time=88>, 40318], [<message note_on channel=9 note=35 velocity=123 time=58>, 40318], [<message note_on channel=9 note=49 velocity=123 time=0>, 40318], [<message note_on channel=0 note=41 velocity=119 time=16>, 40320], [<message note_on channel=0 note=60 velocity=123 time=0>, 40320], [<message note_on channel=0 note=65 velocity=123 time=0>, 40320], [<message note_on channel=0 note=68 velocity=122 time=0>, 40320], [<message note_on channel=0 note=72 velocity=123 time=0>, 40320], [<message note_off channel=2 note=72 velocity=81 time=160>, 40320], [<message note_off channel=2 note=75 velocity=90 time=0>, 40320], [<message note_on channel=2 note=65 velocity=81 time=0>, 40320], [<message note_on channel=2 note=72 velocity=81 time=0>, 40320], [<message note_on channel=2 note=77 velocity=81 time=0>, 40320], [<message note_on channel=2 note=80 velocity=81 time=0>, 40320], [<message note_on channel=8 note=77 velocity=124 time=6>, 40324], [<message note_off channel=11 note=72 velocity=119 time=14>, 40332], [<message note_on channel=11 note=75 velocity=119 time=30>, 40362], [<message note_off channel=11 note=74 velocity=119 time=4>, 40366], [<message note_off channel=9 note=49 velocity=123 time=50>, 40368], [<message note_off channel=11 note=75 velocity=119 time=48>, 40414], [<message note_on channel=9 note=51 velocity=121 time=46>, 40414], [<message pitchwheel channel=8 pitch=372 time=92>, 40416], [<message note_on channel=11 note=77 velocity=119 time=6>, 40420], [<message note_off channel=9 note=40 velocity=124 time=12>, 40426], [<message note_off channel=9 note=51 velocity=121 time=16>, 40442], [<message note_off channel=0 note=60 velocity=123 time=160>, 40480], [<message pitchwheel channel=8 pitch=264 time=78>, 40494], [<message pitchwheel channel=8 pitch=109 time=10>, 40504], [<message note_off channel=0 note=65 velocity=123 time=28>, 40508], [<message note_on channel=9 note=40 velocity=123 time=68>, 40510], [<message note_on channel=9 note=42 velocity=123 time=0>, 40510], [<message note_on channel=9 note=51 velocity=123 time=0>, 40510], [<message note_on channel=0 note=53 velocity=123 time=4>, 40512], [<message note_off channel=2 note=72 velocity=74 time=192>, 40512], [<message pitchwheel channel=8 pitch=0 time=8>, 40512], [<message pitchwheel channel=11 pitch=372 time=92>, 40512], [<message note_off channel=0 note=72 velocity=123 time=2>, 40514], [<message note_off channel=0 note=68 velocity=122 time=4>, 40518], [<message note_off channel=9 note=35 velocity=123 time=26>, 40536], [<message pitchwheel channel=8 pitch=341 time=34>, 40546], [<message note_off channel=2 note=77 velocity=81 time=48>, 40560], [<message note_off channel=2 note=65 velocity=81 time=0>, 40560], [<message note_off channel=9 note=51 velocity=123 time=32>, 40568], [<message pitchwheel channel=8 pitch=266 time=24>, 40570], [<message note_off channel=2 note=80 velocity=81 time=24>, 40584], [<message note_off channel=8 note=77 velocity=124 time=18>, 40588], [<message note_on channel=8 note=65 velocity=124 time=2>, 40590], [<message pitchwheel channel=11 pitch=264 time=78>, 40590], [<message note_off channel=9 note=42 velocity=123 time=22>, 40590], [<message pitchwheel channel=8 pitch=192 time=4>, 40594], [<message pitchwheel channel=11 pitch=109 time=10>, 40600], [<message note_off channel=1 note=29 velocity=124 time=284>, 40602], [<message note_on channel=1 note=41 velocity=125 time=4>, 40606], [<message note_off channel=9 note=40 velocity=122 time=16>, 40606], [<message note_on channel=9 note=40 velocity=122 time=0>, 40606], [<message note_off channel=0 note=41 velocity=119 time=90>, 40608], [<message note_on channel=0 note=65 velocity=122 time=0>, 40608], [<message note_on channel=0 note=77 velocity=121 time=0>, 40608], [<message note_on channel=2 note=53 velocity=100 time=24>, 40608], [<message note_on channel=2 note=65 velocity=100 time=0>, 40608], [<message note_on channel=2 note=77 velocity=100 time=0>, 40608], [<message note_on channel=2 note=89 velocity=92 time=0>, 40608], [<message pitchwheel channel=11 pitch=0 time=8>, 40608], [<message note_off channel=0 note=53 velocity=123 time=6>, 40614], [<message pitchwheel channel=8 pitch=117 time=24>, 40618], [<message note_off channel=0 note=65 velocity=122 time=16>, 40630], [<message note_off channel=0 note=77 velocity=121 time=2>, 40632], [<message note_off channel=2 note=77 velocity=100 time=24>, 40632], [<message note_off channel=2 note=65 velocity=100 time=0>, 40632], [<message note_off channel=2 note=53 velocity=100 time=0>, 40632], [<message note_off channel=2 note=89 velocity=92 time=6>, 40638], [<message pitchwheel channel=8 pitch=43 time=24>, 40642], [<message pitchwheel channel=11 pitch=341 time=34>, 40642], [<message note_on channel=8 note=67 velocity=124 time=10>, 40652], [<message note_on channel=1 note=40 velocity=121 time=48>, 40654], [<message note_on channel=9 note=40 velocity=124 time=48>, 40654], [<message note_on channel=0 note=52 velocity=120 time=24>, 40656], [<message note_on channel=0 note=67 velocity=123 time=0>, 40656], [<message note_on channel=0 note=79 velocity=123 time=0>, 40656], [<message note_on channel=2 note=52 velocity=100 time=18>, 40656], [<message note_on channel=2 note=64 velocity=100 time=0>, 40656], [<message note_on channel=2 note=79 velocity=100 time=0>, 40656], [<message note_on channel=2 note=91 velocity=100 time=0>, 40656], [<message note_off channel=1 note=41 velocity=125 time=8>, 40662], [<message note_off channel=0 note=52 velocity=120 time=8>, 40664], [<message pitchwheel channel=11 pitch=266 time=24>, 40666], [<message note_off channel=8 note=65 velocity=124 time=16>, 40668], [<message note_off channel=0 note=67 velocity=123 time=10>, 40674], [<message note_off channel=2 note=91 velocity=100 time=24>, 40680], [<message note_off channel=2 note=79 velocity=100 time=0>, 40680], [<message note_off channel=2 note=64 velocity=100 time=0>, 40680], [<message note_off channel=2 note=52 velocity=100 time=0>, 40680], [<message note_off channel=9 note=40 velocity=124 time=26>, 40680], [<message note_off channel=0 note=79 velocity=123 time=8>, 40682], [<message note_off channel=11 note=77 velocity=119 time=18>, 40684], [<message note_on channel=11 note=65 velocity=119 time=2>, 40686], [<message pitchwheel channel=11 pitch=192 time=4>, 40690], [<message note_on channel=1 note=39 velocity=125 time=40>, 40702], [<message note_off channel=9 note=40 velocity=123 time=22>, 40702], [<message note_on channel=9 note=35 velocity=124 time=0>, 40702], [<message note_on channel=9 note=49 velocity=120 time=0>, 40702], [<message note_on channel=0 note=51 velocity=122 time=22>, 40704], [<message note_on channel=0 note=63 velocity=123 time=0>, 40704], [<message note_on channel=0 note=68 velocity=122 time=0>, 40704], [<message note_on channel=0 note=80 velocity=123 time=0>, 40704], [<message note_on channel=2 note=51 velocity=100 time=24>, 40704], [<message note_on channel=2 note=63 velocity=100 time=0>, 40704], [<message note_on channel=2 note=68 velocity=100 time=0>, 40704], [<message note_on channel=2 note=75 velocity=100 time=0>, 40704], [<message note_on channel=2 note=80 velocity=100 time=0>, 40704], [<message note_on channel=2 note=92 velocity=100 time=0>, 40704], [<message note_off channel=1 note=40 velocity=121 time=10>, 40712], [<message note_off channel=8 note=67 velocity=124 time=46>, 40714], [<message pitchwheel channel=11 pitch=117 time=24>, 40714], [<message note_on channel=8 note=68 velocity=124 time=2>, 40716], [<message pitchwheel channel=11 pitch=43 time=24>, 40738], [<message note_on channel=11 note=67 velocity=119 time=10>, 40748], [<message note_off channel=11 note=65 velocity=119 time=16>, 40764], [<message note_off channel=9 note=49 velocity=120 time=76>, 40778], [<message note_off channel=0 note=68 velocity=122 time=86>, 40790], [<message note_off channel=2 note=51 velocity=100 time=96>, 40800], [<message note_off channel=11 note=67 velocity=119 time=46>, 40810], [<message note_off channel=0 note=80 velocity=123 time=22>, 40812], [<message note_on channel=11 note=68 velocity=119 time=2>, 40812], [<message note_off channel=2 note=68 velocity=100 time=14>, 40814], [<message note_off channel=0 note=63 velocity=123 time=4>, 40816], [<message note_off channel=0 note=51 velocity=122 time=8>, 40824], [<message note_off channel=2 note=80 velocity=100 time=10>, 40824], [<message note_off channel=2 note=63 velocity=100 time=6>, 40830], [<message note_off channel=2 note=75 velocity=100 time=32>, 40862], [<message note_off channel=2 note=92 velocity=100 time=2>, 40864], [<message note_off channel=8 note=68 velocity=124 time=164>, 40880], [<message note_off channel=1 note=39 velocity=125 time=174>, 40886], [<message note_on channel=8 note=77 velocity=124 time=6>, 40886], [<message note_on channel=1 note=38 velocity=125 time=8>, 40894], [<message note_on channel=9 note=40 velocity=124 time=116>, 40894], [<message note_on channel=9 note=57 velocity=121 time=0>, 40894], [<message note_on channel=0 note=50 velocity=121 time=72>, 40896], [<message note_on channel=0 note=62 velocity=123 time=0>, 40896], [<message note_on channel=0 note=77 velocity=123 time=0>, 40896], [<message note_on channel=0 note=89 velocity=122 time=0>, 40896], [<message note_on channel=2 note=50 velocity=95 time=32>, 40896], [<message note_on channel=2 note=62 velocity=90 time=0>, 40896], [<message note_on channel=2 note=77 velocity=104 time=0>, 40896], [<message note_on channel=2 note=89 velocity=103 time=0>, 40896], [<message note_off channel=9 note=57 velocity=121 time=44>, 40938], [<message note_off channel=11 note=68 velocity=119 time=164>, 40976], [<message note_on channel=11 note=77 velocity=119 time=6>, 40982], [<message note_off channel=0 note=89 velocity=122 time=90>, 40986], [<message note_off channel=0 note=77 velocity=123 time=2>, 40988], [<message note_off channel=0 note=50 velocity=121 time=10>, 40998], [<message note_off channel=0 note=62 velocity=123 time=2>, 41000], [<message note_off channel=2 note=89 velocity=103 time=108>, 41004], [<message note_off channel=9 note=35 velocity=124 time=72>, 41010], [<message note_off channel=2 note=77 velocity=104 time=10>, 41014], [<message note_off channel=2 note=50 velocity=95 time=10>, 41024], [<message note_off channel=2 note=62 velocity=90 time=6>, 41030], [<message note_off channel=1 note=38 velocity=125 time=192>, 41086], [<message note_on channel=1 note=37 velocity=125 time=0>, 41086], [<message note_on channel=8 note=68 velocity=124 time=200>, 41086], [<message note_on channel=9 note=35 velocity=124 time=76>, 41086], [<message note_on channel=9 note=49 velocity=121 time=0>, 41086], [<message note_on channel=0 note=49 velocity=123 time=88>, 41088], [<message note_on channel=0 note=61 velocity=123 time=0>, 41088], [<message note_on channel=0 note=68 velocity=123 time=0>, 41088], [<message note_on channel=0 note=80 velocity=122 time=0>, 41088], [<message note_on channel=2 note=49 velocity=97 time=58>, 41088], [<message note_on channel=2 note=61 velocity=104 time=0>, 41088], [<message note_on channel=2 note=68 velocity=103 time=0>, 41088], [<message note_on channel=2 note=80 velocity=98 time=0>, 41088], [<message note_off channel=8 note=77 velocity=124 time=2>, 41088], [<message note_off channel=9 note=49 velocity=121 time=52>, 41138], [<message note_on channel=11 note=68 velocity=119 time=200>, 41182], [<message note_off channel=11 note=77 velocity=119 time=2>, 41184], [<message note_off channel=9 note=40 velocity=124 time=84>, 41222], [<message note_on channel=9 note=40 velocity=124 time=56>, 41278], [<message note_on channel=9 note=51 velocity=122 time=0>, 41278], [<message note_off channel=2 note=68 velocity=103 time=200>, 41288], [<message note_off channel=0 note=68 velocity=123 time=202>, 41290], [<message note_off channel=2 note=80 velocity=98 time=4>, 41292], [<message note_off channel=9 note=35 velocity=124 time=18>, 41296], [<message note_off channel=0 note=80 velocity=122 time=8>, 41298], [<message note_off channel=9 note=51 velocity=122 time=16>, 41312], [<message note_off channel=1 note=37 velocity=123 time=240>, 41326], [<message note_on channel=1 note=37 velocity=123 time=0>, 41326], [<message note_on channel=9 note=35 velocity=123 time=14>, 41326], [<message note_on channel=9 note=52 velocity=122 time=0>, 41326], [<message note_off channel=0 note=61 velocity=118 time=30>, 41328], [<message note_on channel=0 note=61 velocity=118 time=0>, 41328], [<message note_on channel=0 note=73 velocity=118 time=0>, 41328], [<message note_on channel=0 note=85 velocity=118 time=0>, 41328], [<message note_on channel=2 note=73 velocity=100 time=36>, 41328], [<message note_on channel=2 note=85 velocity=102 time=0>, 41328], [<message note_off channel=9 note=40 velocity=124 time=10>, 41336], [<message note_on channel=8 note=73 velocity=124 time=254>, 41342], [<message note_off channel=8 note=68 velocity=124 time=2>, 41344], [<message note_off channel=2 note=61 velocity=104 time=28>, 41356], [<message note_off channel=0 note=85 velocity=118 time=30>, 41358], [<message note_off channel=0 note=73 velocity=118 time=0>, 41358], [<message note_off channel=9 note=52 velocity=122 time=22>, 41358], [<message note_off channel=2 note=85 velocity=102 time=6>, 41362], [<message note_off channel=2 note=73 velocity=100 time=0>, 41362], [<message note_off channel=2 note=49 velocity=97 time=2>, 41364], [<message note_off channel=9 note=35 velocity=123 time=10>, 41368], [<message note_off channel=8 note=73 velocity=124 time=38>, 41382], [<message note_off channel=0 note=49 velocity=123 time=34>, 41392], [<message note_on channel=1 note=36 velocity=125 time=72>, 41398], [<message note_on channel=9 note=35 velocity=124 time=30>, 41398], [<message note_on channel=9 note=49 velocity=120 time=0>, 41398], [<message note_on channel=0 note=48 velocity=117 time=8>, 41400], [<message note_on channel=0 note=60 velocity=121 time=0>, 41400], [<message note_on channel=0 note=73 velocity=123 time=0>, 41400], [<message note_on channel=0 note=85 velocity=123 time=0>, 41400], [<message note_on channel=8 note=73 velocity=124 time=18>, 41400], [<message note_on channel=2 note=48 velocity=92 time=60>, 41424], [<message note_on channel=2 note=60 velocity=89 time=0>, 41424], [<message note_on channel=2 note=73 velocity=100 time=0>, 41424], [<message note_on channel=2 note=85 velocity=100 time=0>, 41424], [<message note_on channel=11 note=73 velocity=119 time=254>, 41438], [<message note_off channel=9 note=35 velocity=124 time=40>, 41438], [<message note_off channel=0 note=85 velocity=123 time=40>, 41440], [<message note_off channel=0 note=73 velocity=123 time=0>, 41440], [<message note_off channel=11 note=68 velocity=119 time=2>, 41440], [<message note_off channel=9 note=49 velocity=120 time=2>, 41440], [<message note_off channel=0 note=60 velocity=121 time=12>, 41452], [<message note_off channel=0 note=48 velocity=117 time=0>, 41452], [<message note_off channel=8 note=73 velocity=124 time=56>, 41456], [<message note_off channel=2 note=85 velocity=100 time=34>, 41458], [<message note_off channel=2 note=60 velocity=89 time=4>, 41462], [<message note_off channel=2 note=73 velocity=100 time=2>, 41464], [<message note_off channel=2 note=48 velocity=92 time=4>, 41468], [<message note_on channel=1 note=35 velocity=125 time=72>, 41470], [<message note_on channel=9 note=35 velocity=124 time=30>, 41470], [<message note_on channel=9 note=57 velocity=121 time=0>, 41470], [<message note_on channel=0 note=47 velocity=123 time=20>, 41472], [<message note_on channel=0 note=59 velocity=123 time=0>, 41472], [<message note_on channel=0 note=73 velocity=123 time=0>, 41472], [<message note_on channel=0 note=85 velocity=122 time=0>, 41472], [<message note_on channel=2 note=47 velocity=95 time=4>, 41472], [<message note_on channel=2 note=59 velocity=100 time=0>, 41472], [<message note_on channel=2 note=73 velocity=104 time=0>, 41472], [<message note_on channel=2 note=85 velocity=103 time=0>, 41472], [<message note_off channel=1 note=36 velocity=125 time=8>, 41478], [<message note_off channel=11 note=73 velocity=119 time=38>, 41478], [<message note_on channel=8 note=73 velocity=124 time=24>, 41480], [<message note_on channel=11 note=73 velocity=119 time=18>, 41496], [<message note_off channel=9 note=57 velocity=121 time=74>, 41544], [<message note_off channel=11 note=73 velocity=119 time=56>, 41552], [<message note_off channel=0 note=85 velocity=122 time=92>, 41564], [<message note_off channel=1 note=37 velocity=125 time=88>, 41566], [<message note_off channel=2 note=85 velocity=103 time=94>, 41566], [<message note_off channel=0 note=61 velocity=123 time=4>, 41568], [<message note_off channel=0 note=73 velocity=123 time=8>, 41576], [<message note_on channel=11 note=73 velocity=119 time=24>, 41576], [<message note_off channel=2 note=73 velocity=104 time=14>, 41580], [<message note_off channel=2 note=47 velocity=95 time=4>, 41584], [<message note_off channel=2 note=59 velocity=100 time=8>, 41592], [<message note_off channel=0 note=47 velocity=123 time=24>, 41600], [<message note_off channel=0 note=59 velocity=123 time=6>, 41606], [<message note_off channel=8 note=73 velocity=124 time=176>, 41656], [<message note_on channel=8 note=61 velocity=124 time=4>, 41660], [<message note_off channel=1 note=35 velocity=125 time=96>, 41662], [<message note_on channel=1 note=34 velocity=125 time=0>, 41662], [<message note_on channel=9 note=40 velocity=124 time=118>, 41662], [<message note_on channel=9 note=43 velocity=124 time=0>, 41662], [<message note_on channel=9 note=49 velocity=123 time=0>, 41662], [<message note_on channel=0 note=46 velocity=120 time=58>, 41664], [<message note_on channel=0 note=58 velocity=123 time=0>, 41664], [<message note_on channel=0 note=61 velocity=123 time=0>, 41664], [<message note_on channel=0 note=73 velocity=123 time=0>, 41664], [<message note_on channel=2 note=46 velocity=102 time=72>, 41664], [<message note_on channel=2 note=58 velocity=102 time=0>, 41664], [<message note_on channel=2 note=61 velocity=104 time=0>, 41664], [<message note_on channel=2 note=73 velocity=100 time=0>, 41664], [<message note_off channel=9 note=49 velocity=123 time=40>, 41702], [<message note_off channel=11 note=73 velocity=119 time=176>, 41752], [<message note_on channel=11 note=61 velocity=119 time=4>, 41756], [<message note_off channel=0 note=73 velocity=123 time=98>, 41762], [<message note_off channel=0 note=58 velocity=123 time=0>, 41762], [<message note_off channel=9 note=35 velocity=124 time=64>, 41766], [<message note_off channel=0 note=61 velocity=123 time=8>, 41770], [<message note_off channel=0 note=46 velocity=120 time=6>, 41776], [<message note_off channel=2 note=61 velocity=104 time=116>, 41780], [<message note_off channel=2 note=46 velocity=102 time=0>, 41780], [<message note_off channel=9 note=40 velocity=124 time=14>, 41780], [<message note_off channel=9 note=43 velocity=124 time=2>, 41782], [<message note_off channel=2 note=73 velocity=100 time=4>, 41784], [<message note_off channel=2 note=58 velocity=102 time=4>, 41788], [<message note_off channel=8 note=61 velocity=124 time=142>, 41802], [<message note_off channel=1 note=34 velocity=125 time=184>, 41846], [<message note_on channel=1 note=33 velocity=125 time=8>, 41854], [<message note_on channel=0 note=33 velocity=123 time=80>, 41856], [<message note_on channel=0 note=45 velocity=123 time=0>, 41856], [<message note_on channel=0 note=69 velocity=123 time=0>, 41856], [<message note_on channel=0 note=76 velocity=123 time=0>, 41856], [<message note_on channel=0 note=81 velocity=123 time=0>, 41856], [<message note_on channel=2 note=33 velocity=119 time=68>, 41856], [<message note_on channel=2 note=45 velocity=122 time=0>, 41856], [<message note_on channel=2 note=57 velocity=121 time=0>, 41856], [<message note_on channel=9 note=40 velocity=124 time=74>, 41856], [<message note_off channel=9 note=40 velocity=124 time=8>, 41864], [<message note_on channel=9 note=40 velocity=123 time=2>, 41866], [<message note_off channel=0 note=69 velocity=123 time=28>, 41884], [<message note_off channel=0 note=76 velocity=123 time=2>, 41886], [<message note_off channel=0 note=81 velocity=123 time=2>, 41888], [<message note_off channel=11 note=61 velocity=119 time=142>, 41898], [<message note_off channel=0 note=33 velocity=123 time=14>, 41902], [<message note_off channel=0 note=45 velocity=123 time=2>, 41904], [<message note_off channel=2 note=57 velocity=121 time=56>, 41912], [<message note_off channel=2 note=33 velocity=119 time=0>, 41912], [<message note_off channel=2 note=45 velocity=122 time=8>, 41920], [<message note_off channel=1 note=33 velocity=125 time=68>, 41922], [<message note_on channel=0 note=57 velocity=120 time=48>, 41952], [<message note_on channel=0 note=61 velocity=122 time=0>, 41952], [<message note_on channel=0 note=64 velocity=122 time=0>, 41952], [<message note_off channel=9 note=40 velocity=123 time=86>, 41952], [<message note_on channel=9 note=81 velocity=103 time=4>, 41956], [<message note_off channel=0 note=57 velocity=120 time=16>, 41968], [<message note_off channel=0 note=64 velocity=122 time=6>, 41974], [<message note_off channel=0 note=61 velocity=122 time=0>, 41974], [<message note_off channel=9 note=81 velocity=103 time=28>, 41984], [<message note_on channel=9 note=81 velocity=103 time=62>, 42046], [<message note_on channel=0 note=57 velocity=121 time=74>, 42048], [<message note_on channel=0 note=61 velocity=119 time=0>, 42048], [<message note_on channel=0 note=64 velocity=122 time=0>, 42048], [<message note_off channel=0 note=61 velocity=119 time=18>, 42066], [<message note_off channel=0 note=57 velocity=121 time=0>, 42066], [<message note_off channel=9 note=81 velocity=103 time=24>, 42070], [<message note_off channel=0 note=64 velocity=122 time=6>, 42072], [<message note_on channel=9 note=81 velocity=104 time=68>, 42138], [<message note_on channel=0 note=57 velocity=121 time=72>, 42144], [<message note_on channel=0 note=61 velocity=121 time=0>, 42144], [<message note_on channel=0 note=64 velocity=123 time=0>, 42144], [<message note_off channel=9 note=81 velocity=104 time=24>, 42162], [<message note_off channel=0 note=57 velocity=121 time=22>, 42166], [<message note_off channel=0 note=61 velocity=121 time=2>, 42168], [<message note_off channel=0 note=64 velocity=123 time=4>, 42172], [<message note_on channel=9 note=81 velocity=103 time=70>, 42232], [<message note_on channel=0 note=57 velocity=120 time=68>, 42240], [<message note_on channel=0 note=61 velocity=120 time=0>, 42240], [<message note_on channel=0 note=64 velocity=120 time=0>, 42240], [<message note_off channel=9 note=81 velocity=103 time=26>, 42258], [<message note_off channel=0 note=57 velocity=120 time=22>, 42262], [<message note_off channel=0 note=61 velocity=120 time=4>, 42266], [<message note_off channel=0 note=64 velocity=120 time=2>, 42268], [<message note_on channel=9 note=81 velocity=104 time=72>, 42330], [<message note_on channel=0 note=57 velocity=121 time=68>, 42336], [<message note_on channel=0 note=61 velocity=119 time=0>, 42336], [<message note_on channel=0 note=64 velocity=118 time=0>, 42336], [<message note_off channel=0 note=61 velocity=119 time=22>, 42358], [<message note_off channel=0 note=57 velocity=121 time=0>, 42358], [<message note_off channel=9 note=81 velocity=104 time=28>, 42358], [<message note_off channel=0 note=64 velocity=118 time=6>, 42364], [<message note_on channel=9 note=81 velocity=104 time=68>, 42426], [<message note_on channel=0 note=57 velocity=115 time=68>, 42432], [<message note_on channel=0 note=61 velocity=118 time=0>, 42432], [<message note_on channel=0 note=64 velocity=119 time=0>, 42432], [<message note_off channel=0 note=57 velocity=115 time=18>, 42450], [<message note_off channel=9 note=81 velocity=104 time=28>, 42454], [<message note_off channel=0 note=64 velocity=119 time=6>, 42456], [<message note_off channel=0 note=61 velocity=118 time=0>, 42456], [<message note_on channel=9 note=81 velocity=104 time=68>, 42522], [<message note_on channel=0 note=57 velocity=118 time=72>, 42528], [<message note_on channel=0 note=61 velocity=118 time=0>, 42528], [<message note_on channel=0 note=64 velocity=120 time=0>, 42528], [<message note_off channel=0 note=57 velocity=118 time=20>, 42548], [<message note_off channel=9 note=81 velocity=104 time=28>, 42550], [<message note_off channel=0 note=61 velocity=118 time=4>, 42552], [<message note_off channel=0 note=64 velocity=120 time=2>, 42554], [<message note_on channel=9 note=81 velocity=104 time=72>, 42622], [<message note_on channel=0 note=57 velocity=122 time=70>, 42624], [<message note_on channel=0 note=62 velocity=123 time=0>, 42624], [<message note_on channel=0 note=66 velocity=122 time=0>, 42624], [<message note_on channel=7 note=74 velocity=119 time=42354>, 42624], [<message note_off channel=0 note=57 velocity=122 time=22>, 42646], [<message note_off channel=9 note=81 velocity=104 time=24>, 42646], [<message note_off channel=0 note=62 velocity=123 time=10>, 42656], [<message note_off channel=0 note=66 velocity=122 time=4>, 42660], [<message note_off channel=7 note=74 velocity=119 time=78>, 42702], [<message note_on channel=9 note=81 velocity=104 time=68>, 42714], [<message note_on channel=0 note=57 velocity=122 time=60>, 42720], [<message note_on channel=0 note=61 velocity=121 time=0>, 42720], [<message note_on channel=0 note=64 velocity=123 time=0>, 42720], [<message note_on channel=7 note=73 velocity=118 time=18>, 42720], [<message note_off channel=0 note=57 velocity=122 time=18>, 42738], [<message note_off channel=7 note=73 velocity=118 time=18>, 42738], [<message note_off channel=9 note=81 velocity=104 time=24>, 42738], [<message note_off channel=0 note=64 velocity=123 time=4>, 42742], [<message note_off channel=0 note=61 velocity=121 time=0>, 42742], [<message note_on channel=0 note=57 velocity=117 time=26>, 42768], [<message note_on channel=0 note=61 velocity=121 time=0>, 42768], [<message note_on channel=0 note=64 velocity=118 time=0>, 42768], [<message note_on channel=7 note=73 velocity=119 time=30>, 42768], [<message note_off channel=0 note=57 velocity=117 time=12>, 42780], [<message note_off channel=0 note=64 velocity=118 time=10>, 42790], [<message note_off channel=0 note=61 velocity=121 time=0>, 42790], [<message note_off channel=7 note=73 velocity=119 time=22>, 42790], [<message note_on channel=9 note=81 velocity=104 time=72>, 42810], [<message note_on channel=0 note=57 velocity=122 time=26>, 42816], [<message note_on channel=0 note=60 velocity=122 time=0>, 42816], [<message note_on channel=0 note=63 velocity=122 time=0>, 42816], [<message note_on channel=7 note=71 velocity=113 time=26>, 42816], [<message note_on channel=7 note=72 velocity=117 time=0>, 42816], [<message note_off channel=7 note=71 velocity=113 time=8>, 42824], [<message note_off channel=7 note=72 velocity=117 time=12>, 42836], [<message note_off channel=9 note=81 velocity=104 time=28>, 42838], [<message note_off channel=0 note=60 velocity=122 time=28>, 42844], [<message note_off channel=0 note=57 velocity=122 time=0>, 42844], [<message note_off channel=0 note=63 velocity=122 time=12>, 42856], [<message note_on channel=7 note=72 velocity=118 time=28>, 42864], [<message note_off channel=7 note=72 velocity=118 time=20>, 42884], [<message note_on channel=9 note=81 velocity=106 time=70>, 42908], [<message note_on channel=0 note=57 velocity=123 time=56>, 42912], [<message note_on channel=0 note=61 velocity=123 time=0>, 42912], [<message note_on channel=0 note=64 velocity=123 time=0>, 42912], [<message note_on channel=7 note=73 velocity=119 time=28>, 42912], [<message note_off channel=7 note=73 velocity=119 time=18>, 42930], [<message note_off channel=9 note=81 velocity=106 time=24>, 42932], [<message note_off channel=0 note=57 velocity=123 time=26>, 42938], [<message note_off channel=0 note=64 velocity=123 time=6>, 42944], [<message note_off channel=0 note=61 velocity=123 time=2>, 42946], [<message note_on channel=7 note=73 velocity=118 time=30>, 42960], [<message note_off channel=7 note=73 velocity=118 time=16>, 42976], [<message note_on channel=9 note=81 velocity=102 time=70>, 43002], [<message note_on channel=0 note=57 velocity=123 time=62>, 43008], [<message note_on channel=0 note=62 velocity=123 time=0>, 43008], [<message note_on channel=0 note=66 velocity=122 time=0>, 43008], [<message note_on channel=7 note=74 velocity=118 time=32>, 43008], [<message note_off channel=7 note=74 velocity=118 time=18>, 43026], [<message note_off channel=0 note=57 velocity=123 time=22>, 43030], [<message note_off channel=9 note=81 velocity=102 time=28>, 43030], [<message note_off channel=0 note=62 velocity=123 time=6>, 43036], [<message note_off channel=0 note=66 velocity=122 time=6>, 43042], [<message note_on channel=7 note=74 velocity=119 time=30>, 43056], [<message note_off channel=7 note=74 velocity=119 time=22>, 43078], [<message note_on channel=9 note=81 velocity=104 time=66>, 43096], [<message note_on channel=0 note=57 velocity=122 time=62>, 43104], [<message note_on channel=0 note=61 velocity=123 time=0>, 43104], [<message note_on channel=0 note=64 velocity=122 time=0>, 43104], [<message note_on channel=7 note=73 velocity=119 time=26>, 43104], [<message note_off channel=9 note=81 velocity=104 time=24>, 43120], [<message note_off channel=0 note=61 velocity=123 time=18>, 43122], [<message note_off channel=0 note=57 velocity=122 time=0>, 43122], [<message note_off channel=7 note=73 velocity=119 time=20>, 43124], [<message note_off channel=0 note=64 velocity=122 time=4>, 43126], [<message note_on channel=0 note=57 velocity=118 time=26>, 43152], [<message note_on channel=0 note=61 velocity=119 time=0>, 43152], [<message note_on channel=0 note=64 velocity=122 time=0>, 43152], [<message note_on channel=7 note=73 velocity=118 time=28>, 43152], [<message note_off channel=0 note=57 velocity=118 time=12>, 43164], [<message note_off channel=0 note=64 velocity=122 time=6>, 43170], [<message note_off channel=0 note=61 velocity=119 time=0>, 43170], [<message note_off channel=7 note=73 velocity=118 time=20>, 43172], [<message note_on channel=9 note=81 velocity=102 time=76>, 43196], [<message note_on channel=0 note=57 velocity=121 time=30>, 43200], [<message note_on channel=0 note=60 velocity=123 time=0>, 43200], [<message note_on channel=0 note=63 velocity=123 time=0>, 43200], [<message note_on channel=7 note=72 velocity=118 time=28>, 43200], [<message note_off channel=9 note=81 velocity=102 time=24>, 43220], [<message note_off channel=0 note=60 velocity=123 time=52>, 43252], [<message note_off channel=0 note=57 velocity=121 time=2>, 43254], [<message note_off channel=0 note=63 velocity=123 time=6>, 43260], [<message note_off channel=7 note=72 velocity=118 time=76>, 43276], [<message note_on channel=9 note=81 velocity=103 time=72>, 43292], [<message note_on channel=1 note=37 velocity=125 time=1372>, 43294], [<message note_on channel=5 note=88 velocity=121 time=19056>, 43296], [<message note_on channel=0 note=57 velocity=120 time=36>, 43296], [<message note_on channel=0 note=61 velocity=121 time=0>, 43296], [<message note_on channel=0 note=64 velocity=123 time=0>, 43296], [<message note_on channel=2 note=64 velocity=119 time=1376>, 43296], [<message note_on channel=2 note=69 velocity=114 time=0>, 43296], [<message note_on channel=2 note=73 velocity=112 time=0>, 43296], [<message note_on channel=2 note=76 velocity=115 time=0>, 43296], [<message note_on channel=2 note=81 velocity=96 time=0>, 43296], [<message note_on channel=6 note=76 velocity=120 time=43036>, 43296], [<message note_off channel=0 note=64 velocity=123 time=16>, 43312], [<message note_off channel=2 note=81 velocity=96 time=16>, 43312], [<message note_off channel=5 note=88 velocity=121 time=18>, 43314], [<message note_off channel=6 note=76 velocity=120 time=18>, 43314], [<message note_off channel=0 note=61 velocity=121 time=4>, 43316], [<message note_off channel=0 note=57 velocity=120 time=0>, 43316], [<message note_off channel=2 note=76 velocity=115 time=4>, 43316], [<message note_off channel=9 note=81 velocity=103 time=24>, 43316], [<message note_off channel=2 note=73 velocity=112 time=2>, 43318], [<message note_off channel=2 note=69 velocity=114 time=0>, 43318], [<message note_off channel=1 note=37 velocity=125 time=28>, 43322], [<message note_off channel=2 note=64 velocity=119 time=10>, 43328], [<message note_on channel=1 note=37 velocity=124 time=20>, 43342], [<message note_on channel=5 note=88 velocity=120 time=30>, 43344], [<message note_on channel=0 note=57 velocity=118 time=28>, 43344], [<message note_on channel=0 note=61 velocity=121 time=0>, 43344], [<message note_on channel=0 note=64 velocity=123 time=0>, 43344], [<message note_on channel=2 note=64 velocity=119 time=16>, 43344], [<message note_on channel=2 note=69 velocity=115 time=0>, 43344], [<message note_on channel=2 note=73 velocity=112 time=0>, 43344], [<message note_on channel=2 note=76 velocity=117 time=0>, 43344], [<message note_on channel=2 note=81 velocity=112 time=0>, 43344], [<message note_on channel=6 note=76 velocity=119 time=30>, 43344], [<message note_off channel=5 note=88 velocity=120 time=20>, 43364], [<message note_off channel=6 note=76 velocity=119 time=20>, 43364], [<message note_off channel=0 note=57 velocity=118 time=22>, 43366], [<message note_off channel=0 note=64 velocity=123 time=2>, 43368], [<message note_off channel=2 note=69 velocity=115 time=24>, 43368], [<message note_off channel=0 note=61 velocity=121 time=2>, 43370], [<message note_off channel=2 note=81 velocity=112 time=2>, 43370], [<message note_off channel=2 note=73 velocity=112 time=8>, 43378], [<message note_off channel=1 note=37 velocity=124 time=38>, 43380], [<message note_off channel=2 note=76 velocity=117 time=2>, 43380], [<message note_off channel=2 note=64 velocity=119 time=8>, 43388], [<message note_on channel=1 note=38 velocity=125 time=10>, 43390], [<message note_on channel=9 note=81 velocity=103 time=74>, 43390], [<message note_on channel=5 note=93 velocity=122 time=28>, 43392], [<message note_on channel=0 note=57 velocity=123 time=22>, 43392], [<message note_on channel=0 note=62 velocity=123 time=0>, 43392], [<message note_on channel=0 note=66 velocity=123 time=0>, 43392], [<message note_on channel=0 note=69 velocity=123 time=0>, 43392], [<message note_on channel=2 note=62 velocity=119 time=4>, 43392], [<message note_on channel=2 note=66 velocity=110 time=0>, 43392], [<message note_on channel=2 note=69 velocity=121 time=0>, 43392], [<message note_on channel=2 note=74 velocity=121 time=0>, 43392], [<message note_on channel=2 note=78 velocity=118 time=0>, 43392], [<message note_on channel=2 note=81 velocity=118 time=0>, 43392], [<message note_on channel=6 note=81 velocity=121 time=28>, 43392], [<message note_off channel=9 note=81 velocity=103 time=22>, 43412], [<message note_off channel=0 note=57 velocity=123 time=50>, 43442], [<message note_off channel=0 note=69 velocity=123 time=6>, 43448], [<message note_off channel=0 note=62 velocity=123 time=6>, 43454], [<message note_off channel=2 note=74 velocity=121 time=64>, 43456], [<message note_off channel=0 note=66 velocity=123 time=6>, 43460], [<message note_off channel=2 note=62 velocity=119 time=10>, 43466], [<message note_off channel=5 note=93 velocity=122 time=80>, 43472], [<message note_off channel=1 note=38 velocity=125 time=82>, 43472], [<message note_off channel=6 note=81 velocity=121 time=80>, 43472], [<message note_off channel=2 note=78 velocity=118 time=12>, 43478], [<message note_off channel=2 note=81 velocity=118 time=4>, 43482], [<message note_off channel=2 note=66 velocity=110 time=0>, 43482], [<message note_off channel=2 note=69 velocity=121 time=2>, 43484], [<message note_on channel=1 note=37 velocity=124 time=14>, 43486], [<message note_on channel=5 note=88 velocity=120 time=16>, 43488], [<message note_on channel=0 note=57 velocity=115 time=28>, 43488], [<message note_on channel=0 note=61 velocity=118 time=0>, 43488], [<message note_on channel=0 note=64 velocity=118 time=0>, 43488], [<message note_on channel=2 note=61 velocity=108 time=4>, 43488], [<message note_on channel=2 note=64 velocity=112 time=0>, 43488], [<message note_on channel=2 note=69 velocity=114 time=0>, 43488], [<message note_on channel=2 note=73 velocity=115 time=0>, 43488], [<message note_on channel=2 note=76 velocity=116 time=0>, 43488], [<message note_on channel=2 note=81 velocity=18 time=0>, 43488], [<message note_on channel=6 note=76 velocity=119 time=16>, 43488], [<message note_off channel=2 note=81 velocity=18 time=6>, 43494], [<message note_on channel=9 note=81 velocity=104 time=82>, 43494], [<message note_off channel=0 note=64 velocity=118 time=12>, 43500], [<message note_off channel=0 note=57 velocity=115 time=2>, 43502], [<message note_off channel=0 note=61 velocity=118 time=4>, 43506], [<message note_off channel=5 note=88 velocity=120 time=20>, 43508], [<message note_off channel=2 note=73 velocity=115 time=14>, 43508], [<message note_off channel=2 note=69 velocity=114 time=0>, 43508], [<message note_off channel=2 note=64 velocity=112 time=0>, 43508], [<message note_off channel=6 note=76 velocity=119 time=20>, 43508], [<message note_off channel=1 note=37 velocity=124 time=24>, 43510], [<message note_off channel=2 note=76 velocity=116 time=4>, 43512], [<message note_off channel=9 note=81 velocity=104 time=20>, 43514], [<message note_off channel=2 note=61 velocity=108 time=8>, 43520], [<message note_on channel=1 note=37 velocity=125 time=24>, 43534], [<message note_on channel=5 note=88 velocity=122 time=28>, 43536], [<message note_on channel=0 note=57 velocity=113 time=30>, 43536], [<message note_on channel=0 note=61 velocity=118 time=0>, 43536], [<message note_on channel=0 note=64 velocity=123 time=0>, 43536], [<message note_on channel=2 note=61 velocity=118 time=16>, 43536], [<message note_on channel=2 note=64 velocity=108 time=0>, 43536], [<message note_on channel=2 note=69 velocity=117 time=0>, 43536], [<message note_on channel=2 note=73 velocity=115 time=0>, 43536], [<message note_on channel=2 note=76 velocity=108 time=0>, 43536], [<message note_on channel=2 note=81 velocity=114 time=0>, 43536], [<message note_on channel=6 note=76 velocity=120 time=28>, 43536], [<message note_off channel=5 note=88 velocity=122 time=22>, 43558], [<message note_off channel=0 note=57 velocity=113 time=22>, 43558], [<message note_off channel=6 note=76 velocity=120 time=22>, 43558], [<message note_off channel=2 note=81 velocity=114 time=24>, 43560], [<message note_off channel=1 note=37 velocity=125 time=28>, 43562], [<message note_off channel=2 note=69 velocity=117 time=2>, 43562], [<message note_off channel=0 note=61 velocity=118 time=8>, 43566], [<message note_off channel=2 note=76 velocity=108 time=6>, 43568], [<message note_off channel=2 note=73 velocity=115 time=0>, 43568], [<message note_off channel=0 note=64 velocity=123 time=4>, 43570], [<message note_off channel=2 note=61 velocity=118 time=4>, 43572], [<message note_on channel=1 note=38 velocity=125 time=20>, 43582], [<message note_on channel=5 note=93 velocity=122 time=26>, 43584], [<message note_on channel=0 note=57 velocity=123 time=14>, 43584], [<message note_on channel=0 note=62 velocity=123 time=0>, 43584], [<message note_on channel=0 note=66 velocity=123 time=0>, 43584], [<message note_on channel=0 note=69 velocity=123 time=0>, 43584], [<message note_on channel=2 note=62 velocity=123 time=12>, 43584], [<message note_on channel=2 note=66 velocity=119 time=0>, 43584], [<message note_on channel=2 note=69 velocity=119 time=0>, 43584], [<message note_on channel=2 note=74 velocity=120 time=0>, 43584], [<message note_on channel=2 note=78 velocity=119 time=0>, 43584], [<message note_on channel=2 note=81 velocity=119 time=0>, 43584], [<message note_on channel=6 note=81 velocity=121 time=26>, 43584], [<message note_off channel=2 note=64 velocity=108 time=6>, 43590], [<message note_on channel=9 note=81 velocity=103 time=78>, 43592], [<message note_off channel=9 note=81 velocity=103 time=22>, 43614], [<message note_off channel=2 note=74 velocity=120 time=44>, 43634], [<message note_off channel=0 note=57 velocity=123 time=66>, 43650], [<message note_off channel=0 note=69 velocity=123 time=2>, 43652], [<message note_off channel=0 note=62 velocity=123 time=0>, 43652], [<message note_off channel=1 note=38 velocity=125 time=78>, 43660], [<message note_off channel=0 note=66 velocity=123 time=10>, 43662], [<message note_off channel=2 note=81 velocity=119 time=30>, 43664], [<message note_off channel=2 note=78 velocity=119 time=0>, 43664], [<message note_off channel=2 note=62 velocity=123 time=2>, 43666], [<message note_off channel=2 note=66 velocity=119 time=2>, 43668], [<message note_off channel=5 note=93 velocity=122 time=86>, 43670], [<message note_off channel=6 note=81 velocity=121 time=86>, 43670], [<message note_on channel=1 note=37 velocity=125 time=18>, 43678], [<message note_on channel=5 note=88 velocity=121 time=10>, 43680], [<message note_on channel=0 note=57 velocity=117 time=18>, 43680], [<message note_on channel=0 note=61 velocity=121 time=0>, 43680], [<message note_on channel=0 note=64 velocity=122 time=0>, 43680], [<message note_on channel=2 note=61 velocity=113 time=12>, 43680], [<message note_on channel=2 note=64 velocity=117 time=0>, 43680], [<message note_on channel=2 note=73 velocity=114 time=0>, 43680], [<message note_on channel=2 note=76 velocity=112 time=0>, 43680], [<message note_on channel=6 note=76 velocity=120 time=10>, 43680], [<message note_on channel=9 note=81 velocity=105 time=74>, 43688], [<message note_off channel=0 note=57 velocity=117 time=16>, 43696], [<message note_off channel=0 note=64 velocity=122 time=2>, 43698], [<message note_off channel=0 note=61 velocity=121 time=2>, 43700], [<message note_off channel=2 note=76 velocity=112 time=20>, 43700], [<message note_off channel=2 note=69 velocity=119 time=0>, 43700], [<message note_off channel=5 note=88 velocity=121 time=22>, 43702], [<message note_off channel=1 note=37 velocity=125 time=24>, 43702], [<message note_off channel=6 note=76 velocity=120 time=22>, 43702], [<message note_off channel=2 note=61 velocity=113 time=4>, 43704], [<message note_off channel=2 note=73 velocity=114 time=2>, 43706], [<message note_off channel=2 note=64 velocity=117 time=4>, 43710], [<message note_off channel=9 note=81 velocity=105 time=22>, 43710], [<message note_on channel=1 note=37 velocity=125 time=24>, 43726], [<message note_on channel=5 note=88 velocity=120 time=26>, 43728], [<message note_on channel=0 note=57 velocity=117 time=28>, 43728], [<message note_on channel=0 note=61 velocity=121 time=0>, 43728], [<message note_on channel=0 note=64 velocity=122 time=0>, 43728], [<message note_on channel=0 note=69 velocity=122 time=0>, 43728], [<message note_on channel=2 note=61 velocity=107 time=18>, 43728], [<message note_on channel=2 note=64 velocity=120 time=0>, 43728], [<message note_on channel=2 note=69 velocity=115 time=0>, 43728], [<message note_on channel=2 note=73 velocity=116 time=0>, 43728], [<message note_on channel=2 note=76 velocity=114 time=0>, 43728], [<message note_on channel=2 note=81 velocity=101 time=0>, 43728], [<message note_on channel=6 note=76 velocity=119 time=26>, 43728], [<message note_off channel=2 note=81 velocity=101 time=8>, 43736], [<message note_off channel=2 note=76 velocity=114 time=10>, 43746], [<message note_off channel=2 note=69 velocity=115 time=0>, 43746], [<message note_off channel=0 note=64 velocity=122 time=22>, 43750], [<message note_off channel=0 note=57 velocity=117 time=2>, 43752], [<message note_off channel=0 note=61 velocity=121 time=2>, 43754], [<message note_off channel=2 note=73 velocity=116 time=8>, 43754], [<message note_off channel=2 note=64 velocity=120 time=0>, 43754], [<message note_off channel=5 note=88 velocity=120 time=28>, 43756], [<message note_off channel=2 note=61 velocity=107 time=2>, 43756], [<message note_off channel=6 note=76 velocity=119 time=28>, 43756], [<message note_off channel=0 note=69 velocity=122 time=4>, 43758], [<message note_off channel=1 note=37 velocity=125 time=36>, 43762], [<message note_on channel=1 note=36 velocity=123 time=12>, 43774], [<message note_on channel=5 note=87 velocity=121 time=20>, 43776], [<message note_on channel=0 note=57 velocity=121 time=18>, 43776], [<message note_on channel=0 note=60 velocity=121 time=0>, 43776], [<message note_on channel=0 note=63 velocity=123 time=0>, 43776], [<message note_on channel=0 note=69 velocity=123 time=0>, 43776], [<message note_on channel=2 note=60 velocity=113 time=20>, 43776], [<message note_on channel=2 note=63 velocity=116 time=0>, 43776], [<message note_on channel=2 note=69 velocity=111 time=0>, 43776], [<message note_on channel=2 note=72 velocity=118 time=0>, 43776], [<message note_on channel=2 note=75 velocity=118 time=0>, 43776], [<message note_on channel=6 note=75 velocity=120 time=20>, 43776], [<message note_on channel=9 note=81 velocity=103 time=74>, 43784], [<message note_off channel=0 note=57 velocity=121 time=18>, 43794], [<message note_off channel=2 note=69 velocity=111 time=18>, 43794], [<message note_off channel=0 note=69 velocity=123 time=4>, 43798], [<message note_off channel=2 note=75 velocity=118 time=4>, 43798], [<message note_off channel=5 note=87 velocity=121 time=24>, 43800], [<message note_off channel=0 note=60 velocity=121 time=2>, 43800], [<message note_off channel=2 note=72 velocity=118 time=2>, 43800], [<message note_off channel=2 note=63 velocity=116 time=0>, 43800], [<message note_off channel=6 note=75 velocity=120 time=24>, 43800], [<message note_off channel=0 note=63 velocity=123 time=2>, 43802], [<message note_off channel=2 note=60 velocity=113 time=2>, 43802], [<message note_off channel=1 note=36 velocity=123 time=30>, 43804], [<message note_off channel=9 note=81 velocity=103 time=26>, 43810], [<message note_on channel=1 note=36 velocity=122 time=18>, 43822], [<message note_on channel=5 note=87 velocity=119 time=24>, 43824], [<message note_on channel=0 note=57 velocity=122 time=22>, 43824], [<message note_on channel=0 note=60 velocity=117 time=0>, 43824], [<message note_on channel=0 note=63 velocity=122 time=0>, 43824], [<message note_on channel=0 note=69 velocity=122 time=0>, 43824], [<message note_on channel=2 note=60 velocity=112 time=22>, 43824], [<message note_on channel=2 note=63 velocity=115 time=0>, 43824], [<message note_on channel=2 note=69 velocity=113 time=0>, 43824], [<message note_on channel=2 note=72 velocity=115 time=0>, 43824], [<message note_on channel=2 note=75 velocity=114 time=0>, 43824], [<message note_on channel=6 note=75 velocity=118 time=24>, 43824], [<message note_off channel=2 note=69 velocity=113 time=14>, 43838], [<message note_off channel=2 note=72 velocity=115 time=6>, 43844], [<message note_off channel=0 note=60 velocity=117 time=22>, 43846], [<message note_off channel=0 note=57 velocity=122 time=0>, 43846], [<message note_off channel=0 note=69 velocity=122 time=2>, 43848], [<message note_off channel=2 note=75 velocity=114 time=4>, 43848], [<message note_off channel=5 note=87 velocity=119 time=28>, 43852], [<message note_off channel=0 note=63 velocity=122 time=4>, 43852], [<message note_off channel=6 note=75 velocity=118 time=28>, 43852], [<message note_off channel=2 note=60 velocity=112 time=6>, 43854], [<message note_off channel=2 note=63 velocity=115 time=4>, 43858], [<message note_off channel=1 note=36 velocity=122 time=38>, 43860], [<message note_on channel=1 note=37 velocity=125 time=10>, 43870], [<message note_on channel=5 note=88 velocity=121 time=20>, 43872], [<message note_on channel=0 note=57 velocity=123 time=20>, 43872], [<message note_on channel=0 note=61 velocity=123 time=0>, 43872], [<message note_on channel=0 note=64 velocity=123 time=0>, 43872], [<message note_on channel=0 note=69 velocity=121 time=0>, 43872], [<message note_on channel=2 note=61 velocity=116 time=14>, 43872], [<message note_on channel=2 note=64 velocity=112 time=0>, 43872], [<message note_on channel=2 note=69 velocity=119 time=0>, 43872], [<message note_on channel=2 note=73 velocity=116 time=0>, 43872], [<message note_on channel=2 note=76 velocity=118 time=0>, 43872], [<message note_on channel=6 note=76 velocity=119 time=20>, 43872], [<message note_on channel=9 note=81 velocity=102 time=68>, 43878], [<message note_off channel=0 note=69 velocity=121 time=24>, 43896], [<message note_off channel=9 note=81 velocity=102 time=24>, 43902], [<message note_off channel=0 note=57 velocity=123 time=8>, 43904], [<message note_off channel=2 note=69 velocity=119 time=34>, 43906], [<message note_off channel=0 note=64 velocity=123 time=4>, 43908], [<message note_off channel=5 note=88 velocity=121 time=38>, 43910], [<message note_off channel=0 note=61 velocity=123 time=2>, 43910], [<message note_off channel=6 note=76 velocity=119 time=38>, 43910], [<message note_off channel=2 note=76 velocity=118 time=6>, 43912], [<message note_off channel=1 note=37 velocity=125 time=44>, 43914], [<message note_off channel=2 note=73 velocity=116 time=2>, 43914], [<message note_off channel=2 note=61 velocity=116 time=10>, 43924], [<message note_off channel=2 note=64 velocity=112 time=4>, 43928], [<message note_on channel=1 note=38 velocity=125 time=52>, 43966], [<message note_on channel=5 note=90 velocity=121 time=58>, 43968], [<message note_on channel=0 note=57 velocity=123 time=58>, 43968], [<message note_on channel=0 note=62 velocity=122 time=0>, 43968], [<message note_on channel=0 note=66 velocity=122 time=0>, 43968], [<message note_on channel=0 note=69 velocity=123 time=0>, 43968], [<message note_on channel=2 note=62 velocity=119 time=40>, 43968], [<message note_on channel=2 note=66 velocity=111 time=0>, 43968], [<message note_on channel=2 note=69 velocity=120 time=0>, 43968], [<message note_on channel=2 note=74 velocity=119 time=0>, 43968], [<message note_on channel=2 note=78 velocity=119 time=0>, 43968], [<message note_on channel=6 note=78 velocity=120 time=58>, 43968], [<message note_on channel=9 note=81 velocity=103 time=72>, 43974], [<message note_off channel=2 note=69 velocity=120 time=24>, 43992], [<message note_off channel=9 note=81 velocity=103 time=24>, 43998], [<message note_off channel=2 note=74 velocity=119 time=8>, 44000], [<message note_off channel=0 note=57 velocity=123 time=36>, 44004], [<message note_off channel=0 note=62 velocity=122 time=4>, 44008], [<message note_off channel=2 note=78 velocity=119 time=10>, 44010], [<message note_off channel=2 note=66 velocity=111 time=2>, 44012], [<message note_off channel=0 note=69 velocity=123 time=6>, 44014], [<message note_off channel=5 note=90 velocity=121 time=48>, 44016], [<message note_off channel=6 note=78 velocity=120 time=48>, 44016], [<message note_off channel=2 note=62 velocity=119 time=6>, 44018], [<message note_off channel=0 note=66 velocity=122 time=8>, 44022], [<message note_off channel=1 note=38 velocity=125 time=62>, 44028], [<message note_on channel=1 note=37 velocity=125 time=34>, 44062], [<message note_on channel=5 note=88 velocity=122 time=48>, 44064], [<message note_on channel=0 note=57 velocity=123 time=42>, 44064], [<message note_on channel=0 note=61 velocity=123 time=0>, 44064], [<message note_on channel=0 note=64 velocity=123 time=0>, 44064], [<message note_on channel=0 note=69 velocity=123 time=0>, 44064], [<message note_on channel=2 note=61 velocity=119 time=46>, 44064], [<message note_on channel=2 note=64 velocity=120 time=0>, 44064], [<message note_on channel=2 note=69 velocity=122 time=0>, 44064], [<message note_on channel=2 note=73 velocity=118 time=0>, 44064], [<message note_on channel=2 note=76 velocity=122 time=0>, 44064], [<message note_on channel=6 note=76 velocity=121 time=48>, 44064], [<message note_on channel=9 note=81 velocity=104 time=74>, 44072], [<message note_off channel=2 note=69 velocity=122 time=32>, 44096], [<message note_off channel=9 note=81 velocity=104 time=28>, 44100], [<message note_off channel=2 note=73 velocity=118 time=6>, 44102], [<message note_off channel=5 note=88 velocity=122 time=40>, 44104], [<message note_off channel=6 note=76 velocity=121 time=40>, 44104], [<message note_off channel=0 note=64 velocity=123 time=44>, 44108], [<message note_off channel=0 note=61 velocity=123 time=0>, 44108], [<message note_off channel=0 note=57 velocity=123 time=0>, 44108], [<message note_off channel=1 note=37 velocity=125 time=46>, 44108], [<message note_off channel=2 note=76 velocity=122 time=6>, 44108], [<message note_off channel=2 note=64 velocity=120 time=4>, 44112], [<message note_off channel=0 note=69 velocity=123 time=6>, 44114], [<message note_off channel=2 note=61 velocity=119 time=2>, 44114], [<message note_on channel=1 note=36 velocity=125 time=50>, 44158], [<message note_on channel=9 note=35 velocity=123 time=58>, 44158], [<message note_on channel=9 note=45 velocity=123 time=0>, 44158], [<message note_on channel=9 note=47 velocity=118 time=0>, 44158], [<message note_on channel=0 note=48 velocity=120 time=46>, 44160], [<message note_on channel=0 note=55 velocity=123 time=0>, 44160], [<message note_on channel=0 note=60 velocity=123 time=0>, 44160], [<message note_on channel=0 note=64 velocity=123 time=0>, 44160], [<message note_on channel=0 note=67 velocity=123 time=0>, 44160], [<message note_on channel=2 note=60 velocity=120 time=46>, 44160], [<message note_on channel=2 note=64 velocity=119 time=0>, 44160], [<message note_on channel=2 note=67 velocity=119 time=0>, 44160], [<message note_on channel=2 note=72 velocity=120 time=0>, 44160], [<message note_on channel=2 note=76 velocity=118 time=0>, 44160], [<message note_on channel=10 note=36 velocity=122 time=43860>, 44160], [<message note_on channel=10 note=48 velocity=118 time=0>, 44160], [<message note_off channel=9 note=47 velocity=118 time=8>, 44166], [<message note_on channel=9 note=81 velocity=102 time=0>, 44166], [<message note_on channel=3 note=88 velocity=113 time=31220>, 44168], [<message note_off channel=3 note=88 velocity=113 time=4>, 44172], [<message note_on channel=3 note=76 velocity=113 time=0>, 44172], [<message note_off channel=9 note=45 velocity=123 time=8>, 44174], [<message note_off channel=9 note=35 velocity=123 time=0>, 44174], [<message note_off channel=0 note=64 velocity=123 time=16>, 44176], [<message note_off channel=0 note=60 velocity=123 time=0>, 44176], [<message note_off channel=2 note=72 velocity=120 time=16>, 44176], [<message note_off channel=2 note=67 velocity=119 time=0>, 44176], [<message note_off channel=2 note=60 velocity=120 time=0>, 44176], [<message note_off channel=10 note=36 velocity=122 time=16>, 44176], [<message note_off channel=0 note=67 velocity=123 time=2>, 44178], [<message note_off channel=2 note=76 velocity=118 time=2>, 44178], [<message note_off channel=2 note=64 velocity=119 time=0>, 44178], [<message note_off channel=10 note=48 velocity=118 time=2>, 44178], [<message note_off channel=0 note=48 velocity=120 time=2>, 44180], [<message note_off channel=0 note=55 velocity=123 time=2>, 44182], [<message note_off channel=9 note=81 velocity=102 time=12>, 44186], [<message note_off channel=1 note=36 velocity=125 time=30>, 44188], [<message note_off channel=3 note=76 velocity=113 time=22>, 44194], [<message note_on channel=0 note=55 velocity=119 time=18>, 44200], [<message note_on channel=0 note=48 velocity=118 time=2>, 44202], [<message note_on channel=0 note=60 velocity=123 time=0>, 44202], [<message note_on channel=0 note=67 velocity=123 time=0>, 44202], [<message note_on channel=0 note=64 velocity=123 time=2>, 44204], [<message note_on channel=1 note=36 velocity=120 time=18>, 44206], [<message note_on channel=9 note=35 velocity=123 time=20>, 44206], [<message note_on channel=9 note=45 velocity=123 time=0>, 44206], [<message note_on channel=2 note=60 velocity=116 time=30>, 44208], [<message note_on channel=2 note=64 velocity=108 time=0>, 44208], [<message note_on channel=2 note=67 velocity=116 time=0>, 44208], [<message note_on channel=2 note=72 velocity=114 time=0>, 44208], [<message note_on channel=2 note=76 velocity=116 time=0>, 44208], [<message note_on channel=10 note=36 velocity=122 time=30>, 44208], [<message note_on channel=10 note=48 velocity=117 time=0>, 44208], [<message note_on channel=3 note=76 velocity=113 time=20>, 44214], [<message note_on channel=3 note=88 velocity=113 time=0>, 44214], [<message note_on channel=9 note=81 velocity=99 time=8>, 44214], [<message note_off channel=0 note=60 velocity=123 time=20>, 44224], [<message note_off channel=2 note=72 velocity=114 time=18>, 44226], [<message note_off channel=10 note=48 velocity=117 time=18>, 44226], [<message note_off channel=0 note=64 velocity=123 time=4>, 44228], [<message note_off channel=0 note=48 velocity=118 time=0>, 44228], [<message note_off channel=2 note=67 velocity=116 time=2>, 44228], [<message note_off channel=9 note=35 velocity=123 time=14>, 44228], [<message note_off channel=0 note=67 velocity=123 time=2>, 44230], [<message note_off channel=2 note=76 velocity=116 time=2>, 44230], [<message note_off channel=9 note=45 velocity=123 time=2>, 44230], [<message note_off channel=10 note=36 velocity=122 time=4>, 44230], [<message note_off channel=0 note=55 velocity=119 time=2>, 44232], [<message note_off channel=2 note=60 velocity=116 time=2>, 44232], [<message note_off channel=3 note=88 velocity=113 time=18>, 44232], [<message note_off channel=9 note=81 velocity=99 time=2>, 44232], [<message note_off channel=2 note=64 velocity=108 time=2>, 44234], [<message note_off channel=1 note=36 velocity=120 time=30>, 44236], [<message note_off channel=3 note=76 velocity=113 time=4>, 44236], [<message note_on channel=0 note=60 velocity=122 time=18>, 44250], [<message note_on channel=0 note=48 velocity=123 time=2>, 44252], [<message note_on channel=0 note=55 velocity=121 time=0>, 44252], [<message note_on channel=0 note=67 velocity=123 time=0>, 44252], [<message note_on channel=0 note=64 velocity=123 time=2>, 44254], [<message note_on channel=1 note=36 velocity=116 time=18>, 44254], [<message note_on channel=9 note=35 velocity=123 time=22>, 44254], [<message note_on channel=9 note=45 velocity=124 time=0>, 44254], [<message note_on channel=9 note=81 velocity=104 time=0>, 44254], [<message note_on channel=2 note=60 velocity=115 time=22>, 44256], [<message note_on channel=2 note=64 velocity=117 time=0>, 44256], [<message note_on channel=2 note=67 velocity=113 time=0>, 44256], [<message note_on channel=2 note=72 velocity=116 time=0>, 44256], [<message note_on channel=2 note=76 velocity=113 time=0>, 44256], [<message note_on channel=3 note=88 velocity=113 time=20>, 44256], [<message note_on channel=10 note=36 velocity=120 time=26>, 44256], [<message note_on channel=10 note=48 velocity=117 time=0>, 44256], [<message note_off channel=3 note=88 velocity=113 time=2>, 44258], [<message note_on channel=3 note=76 velocity=113 time=2>, 44260], [<message note_off channel=0 note=60 velocity=122 time=20>, 44274], [<message note_off channel=2 note=72 velocity=116 time=18>, 44274], [<message note_off channel=10 note=48 velocity=117 time=18>, 44274], [<message note_off channel=10 note=36 velocity=120 time=0>, 44274], [<message note_off channel=0 note=64 velocity=123 time=2>, 44276], [<message note_off channel=2 note=67 velocity=113 time=2>, 44276], [<message note_off channel=9 note=81 velocity=104 time=22>, 44276], [<message note_off channel=9 note=45 velocity=124 time=0>, 44276], [<message note_off channel=9 note=35 velocity=123 time=0>, 44276], [<message note_off channel=0 note=67 velocity=123 time=2>, 44278], [<message note_off channel=2 note=76 velocity=113 time=2>, 44278], [<message note_off channel=3 note=76 velocity=113 time=18>, 44278], [<message note_off channel=0 note=48 velocity=123 time=2>, 44280], [<message note_off channel=0 note=55 velocity=121 time=2>, 44282], [<message note_off channel=2 note=64 velocity=117 time=6>, 44284], [<message note_off channel=2 note=60 velocity=115 time=0>, 44284], [<message note_off channel=1 note=36 velocity=116 time=40>, 44294], [<message note_on channel=0 note=48 velocity=109 time=14>, 44296], [<message note_on channel=0 note=55 velocity=122 time=2>, 44298], [<message note_on channel=0 note=60 velocity=122 time=0>, 44298], [<message note_on channel=0 note=67 velocity=123 time=0>, 44298], [<message note_on channel=9 note=81 velocity=110 time=22>, 44298], [<message note_on channel=0 note=64 velocity=122 time=2>, 44300], [<message note_on channel=3 note=76 velocity=113 time=22>, 44300], [<message note_on channel=3 note=88 velocity=113 time=0>, 44300], [<message note_on channel=1 note=31 velocity=125 time=8>, 44302], [<message note_on channel=9 note=35 velocity=123 time=4>, 44302], [<message note_on channel=9 note=45 velocity=122 time=0>, 44302], [<message note_on channel=2 note=60 velocity=115 time=20>, 44304], [<message note_on channel=2 note=64 velocity=118 time=0>, 44304], [<message note_on channel=2 note=67 velocity=119 time=0>, 44304], [<message note_on channel=2 note=72 velocity=120 time=0>, 44304], [<message note_on channel=2 note=76 velocity=117 time=0>, 44304], [<message note_on channel=10 note=36 velocity=120 time=30>, 44304], [<message note_on channel=10 note=48 velocity=118 time=0>, 44304], [<message note_off channel=9 note=81 velocity=110 time=18>, 44320], [<message note_off channel=10 note=48 velocity=118 time=18>, 44322], [<message note_off channel=10 note=36 velocity=120 time=0>, 44322], [<message note_off channel=0 note=60 velocity=122 time=24>, 44324], [<message note_off channel=3 note=88 velocity=113 time=24>, 44324], [<message note_off channel=3 note=76 velocity=113 time=0>, 44324], [<message note_off channel=0 note=67 velocity=123 time=2>, 44326], [<message note_off channel=9 note=35 velocity=123 time=6>, 44326], [<message note_off channel=0 note=55 velocity=122 time=2>, 44328], [<message note_off channel=2 note=67 velocity=119 time=26>, 44330], [<message note_off channel=0 note=64 velocity=122 time=4>, 44332], [<message note_off channel=0 note=48 velocity=109 time=2>, 44334], [<message note_off channel=9 note=45 velocity=122 time=8>, 44334], [<message note_off channel=2 note=72 velocity=120 time=6>, 44336], [<message note_off channel=1 note=31 velocity=125 time=36>, 44338], [<message note_off channel=2 note=76 velocity=117 time=2>, 44338], [<message note_off channel=2 note=64 velocity=118 time=0>, 44338], [<message note_off channel=2 note=60 velocity=115 time=4>, 44342], [<message note_on channel=0 note=47 velocity=120 time=16>, 44350], [<message note_on channel=1 note=35 velocity=125 time=12>, 44350], [<message note_on channel=9 note=35 velocity=124 time=16>, 44350], [<message note_on channel=9 note=43 velocity=124 time=0>, 44350], [<message note_on channel=0 note=55 velocity=123 time=2>, 44352], [<message note_on channel=0 note=59 velocity=123 time=0>, 44352], [<message note_on channel=0 note=62 velocity=123 time=0>, 44352], [<message note_on channel=0 note=67 velocity=123 time=0>, 44352], [<message note_on channel=2 note=59 velocity=118 time=10>, 44352], [<message note_on channel=2 note=62 velocity=119 time=0>, 44352], [<message note_on channel=2 note=67 velocity=119 time=0>, 44352], [<message note_on channel=2 note=71 velocity=121 time=0>, 44352], [<message note_on channel=2 note=74 velocity=119 time=0>, 44352], [<message note_on channel=9 note=81 velocity=114 time=2>, 44352], [<message note_on channel=10 note=36 velocity=119 time=30>, 44352], [<message note_on channel=10 note=48 velocity=120 time=0>, 44352], [<message note_on channel=3 note=74 velocity=113 time=30>, 44354], [<message note_on channel=3 note=86 velocity=113 time=0>, 44354], [<message note_off channel=10 note=48 velocity=120 time=20>, 44372], [<message note_off channel=10 note=36 velocity=119 time=0>, 44372], [<message note_off channel=9 note=81 velocity=114 time=22>, 44374], [<message note_off channel=3 note=86 velocity=113 time=28>, 44382], [<message note_off channel=3 note=74 velocity=113 time=0>, 44382], [<message note_off channel=0 note=47 velocity=120 time=34>, 44386], [<message note_off channel=2 note=67 velocity=119 time=34>, 44386], [<message note_off channel=0 note=55 velocity=123 time=2>, 44388], [<message note_off channel=2 note=71 velocity=121 time=2>, 44388], [<message note_off channel=0 note=59 velocity=123 time=2>, 44390], [<message note_off channel=0 note=67 velocity=123 time=2>, 44392], [<message note_off channel=0 note=62 velocity=123 time=0>, 44392], [<message note_off channel=9 note=35 velocity=124 time=18>, 44392], [<message note_off channel=2 note=74 velocity=119 time=6>, 44394], [<message note_off channel=2 note=62 velocity=119 time=2>, 44396], [<message note_off channel=9 note=43 velocity=124 time=4>, 44396], [<message note_off channel=2 note=59 velocity=118 time=2>, 44398], [<message note_off channel=1 note=35 velocity=125 time=50>, 44400], [<message note_on channel=0 note=47 velocity=120 time=52>, 44444], [<message note_on channel=0 note=55 velocity=123 time=2>, 44446], [<message note_on channel=0 note=67 velocity=123 time=0>, 44446], [<message note_on channel=1 note=35 velocity=125 time=46>, 44446], [<message note_on channel=9 note=35 velocity=124 time=50>, 44446], [<message note_on channel=9 note=43 velocity=123 time=0>, 44446], [<message note_on channel=9 note=45 velocity=121 time=0>, 44446], [<message note_on channel=0 note=59 velocity=123 time=2>, 44448], [<message note_on channel=0 note=62 velocity=123 time=0>, 44448], [<message note_on channel=2 note=59 velocity=115 time=50>, 44448], [<message note_on channel=2 note=62 velocity=119 time=0>, 44448], [<message note_on channel=2 note=67 velocity=117 time=0>, 44448], [<message note_on channel=2 note=71 velocity=121 time=0>, 44448], [<message note_on channel=2 note=74 velocity=119 time=0>, 44448], [<message note_on channel=9 note=81 velocity=109 time=2>, 44448], [<message note_on channel=10 note=36 velocity=122 time=76>, 44448], [<message note_on channel=10 note=48 velocity=122 time=0>, 44448], [<message note_on channel=3 note=74 velocity=113 time=68>, 44450], [<message note_on channel=3 note=86 velocity=113 time=0>, 44450], [<message note_off channel=9 note=45 velocity=121 time=12>, 44460], [<message note_off channel=10 note=48 velocity=122 time=18>, 44466], [<message note_off channel=10 note=36 velocity=122 time=2>, 44468], [<message note_off channel=2 note=71 velocity=121 time=24>, 44472], [<message note_off channel=9 note=81 velocity=109 time=12>, 44472], [<message note_off channel=0 note=59 velocity=123 time=30>, 44478], [<message note_off channel=2 note=62 velocity=119 time=8>, 44480], [<message note_off channel=3 note=86 velocity=113 time=32>, 44482], [<message note_off channel=0 note=67 velocity=123 time=6>, 44484], [<message note_off channel=2 note=67 velocity=117 time=4>, 44484], [<message note_off channel=2 note=59 velocity=115 time=0>, 44484], [<message note_off channel=0 note=55 velocity=123 time=2>, 44486], [<message note_off channel=3 note=74 velocity=113 time=4>, 44486], [<message note_off channel=9 note=35 velocity=124 time=18>, 44490], [<message note_off channel=0 note=62 velocity=123 time=6>, 44492], [<message note_off channel=0 note=47 velocity=120 time=0>, 44492], [<message note_off channel=2 note=74 velocity=119 time=8>, 44492], [<message note_off channel=9 note=43 velocity=123 time=2>, 44492], [<message note_off channel=1 note=35 velocity=125 time=48>, 44494], [<message note_on channel=0 note=53 velocity=123 time=48>, 44540], [<message note_on channel=1 note=34 velocity=125 time=48>, 44542], [<message note_on channel=9 note=35 velocity=124 time=50>, 44542], [<message note_on channel=9 note=43 velocity=123 time=0>, 44542], [<message note_on channel=9 note=81 velocity=108 time=0>, 44542], [<message note_on channel=0 note=46 velocity=122 time=4>, 44544], [<message note_on channel=0 note=58 velocity=123 time=0>, 44544], [<message note_on channel=0 note=62 velocity=123 time=0>, 44544], [<message note_on channel=2 note=58 velocity=121 time=52>, 44544], [<message note_on channel=2 note=65 velocity=114 time=0>, 44544], [<message note_on channel=2 note=70 velocity=118 time=0>, 44544], [<message note_on channel=2 note=74 velocity=122 time=0>, 44544], [<message note_on channel=2 note=77 velocity=116 time=0>, 44544], [<message note_on channel=3 note=86 velocity=113 time=58>, 44544], [<message note_on channel=10 note=36 velocity=119 time=76>, 44544], [<message note_on channel=10 note=48 velocity=120 time=0>, 44544], [<message note_on channel=0 note=65 velocity=123 time=2>, 44546], [<message note_off channel=3 note=86 velocity=113 time=2>, 44546], [<message note_on channel=3 note=74 velocity=113 time=2>, 44548], [<message note_off channel=9 note=35 velocity=124 time=16>, 44558], [<message note_off channel=9 note=81 velocity=108 time=2>, 44560], [<message note_off channel=10 note=48 velocity=120 time=18>, 44562], [<message note_off channel=9 note=43 velocity=123 time=4>, 44564], [<message note_off channel=10 note=36 velocity=119 time=2>, 44564], [<message note_off channel=2 note=70 velocity=118 time=22>, 44566], [<message note_off channel=0 note=62 velocity=123 time=22>, 44568], [<message note_off channel=2 note=77 velocity=116 time=2>, 44568], [<message note_off channel=3 note=74 velocity=113 time=20>, 44568], [<message note_off channel=0 note=58 velocity=123 time=2>, 44570], [<message note_off channel=2 note=74 velocity=122 time=2>, 44570], [<message note_off channel=2 note=65 velocity=114 time=0>, 44570], [<message note_off channel=0 note=53 velocity=123 time=2>, 44572], [<message note_off channel=0 note=65 velocity=123 time=2>, 44574], [<message note_off channel=0 note=46 velocity=122 time=0>, 44574], [<message note_off channel=2 note=58 velocity=121 time=6>, 44576], [<message note_on channel=0 note=62 velocity=115 time=10>, 44584], [<message note_on channel=0 note=53 velocity=122 time=2>, 44586], [<message note_on channel=0 note=58 velocity=120 time=0>, 44586], [<message note_on channel=9 note=81 velocity=106 time=22>, 44586], [<message note_on channel=0 note=46 velocity=121 time=2>, 44588], [<message note_on channel=0 note=65 velocity=123 time=0>, 44588], [<message note_off channel=1 note=34 velocity=125 time=48>, 44590], [<message note_on channel=1 note=33 velocity=125 time=0>, 44590], [<message note_on channel=9 note=35 velocity=123 time=4>, 44590], [<message note_on channel=9 note=43 velocity=123 time=0>, 44590], [<message note_on channel=2 note=58 velocity=115 time=16>, 44592], [<message note_on channel=2 note=65 velocity=114 time=0>, 44592], [<message note_on channel=2 note=70 velocity=120 time=0>, 44592], [<message note_on channel=2 note=74 velocity=104 time=0>, 44592], [<message note_on channel=2 note=77 velocity=117 time=0>, 44592], [<message note_on channel=3 note=74 velocity=113 time=24>, 44592], [<message note_on channel=3 note=86 velocity=113 time=0>, 44592], [<message note_on channel=10 note=36 velocity=121 time=28>, 44592], [<message note_on channel=10 note=48 velocity=118 time=0>, 44592], [<message note_off channel=9 note=81 velocity=106 time=16>, 44606], [<message note_off channel=3 note=86 velocity=113 time=18>, 44610], [<message note_off channel=9 note=35 velocity=123 time=4>, 44610], [<message note_off channel=10 note=48 velocity=118 time=18>, 44610], [<message note_off channel=10 note=36 velocity=121 time=0>, 44610], [<message note_off channel=0 note=62 velocity=115 time=24>, 44612], [<message note_off channel=2 note=74 velocity=104 time=20>, 44612], [<message note_off channel=3 note=74 velocity=113 time=2>, 44612], [<message note_off channel=9 note=43 velocity=123 time=2>, 44612], [<message note_off channel=0 note=65 velocity=123 time=4>, 44616], [<message note_off channel=0 note=46 velocity=121 time=0>, 44616], [<message note_off channel=0 note=58 velocity=120 time=0>, 44616], [<message note_off channel=2 note=70 velocity=120 time=4>, 44616], [<message note_off channel=0 note=53 velocity=122 time=2>, 44618], [<message note_off channel=1 note=33 velocity=125 time=32>, 44622], [<message note_off channel=2 note=77 velocity=117 time=6>, 44622], [<message note_off channel=2 note=65 velocity=114 time=2>, 44624], [<message note_off channel=2 note=58 velocity=115 time=2>, 44626], [<message note_on channel=9 note=81 velocity=108 time=18>, 44630], [<message note_on channel=0 note=62 velocity=123 time=14>, 44632], [<message note_on channel=0 note=53 velocity=122 time=2>, 44634], [<message note_on channel=0 note=58 velocity=123 time=0>, 44634], [<message note_on channel=0 note=65 velocity=113 time=0>, 44634], [<message note_on channel=3 note=86 velocity=113 time=24>, 44636], [<message note_on channel=0 note=46 velocity=120 time=4>, 44638], [<message note_on channel=1 note=32 velocity=125 time=16>, 44638], [<message note_on channel=9 note=35 velocity=123 time=8>, 44638], [<message note_on channel=9 note=43 velocity=123 time=0>, 44638], [<message note_on channel=2 note=65 velocity=105 time=14>, 44640], [<message note_on channel=2 note=70 velocity=105 time=0>, 44640], [<message note_on channel=2 note=74 velocity=105 time=0>, 44640], [<message note_on channel=2 note=77 velocity=105 time=0>, 44640], [<message note_off channel=3 note=86 velocity=113 time=4>, 44640], [<message note_on channel=3 note=74 velocity=113 time=0>, 44640], [<message note_on channel=10 note=36 velocity=122 time=30>, 44640], [<message note_on channel=10 note=48 velocity=119 time=0>, 44640], [<message note_off channel=9 note=81 velocity=108 time=14>, 44652], [<message note_off channel=10 note=48 velocity=119 time=14>, 44654], [<message note_off channel=3 note=74 velocity=113 time=18>, 44658], [<message note_off channel=10 note=36 velocity=122 time=4>, 44658], [<message note_off channel=0 note=62 velocity=123 time=22>, 44660], [<message note_off channel=2 note=74 velocity=105 time=20>, 44660], [<message note_off channel=9 note=43 velocity=123 time=8>, 44660], [<message note_off channel=9 note=35 velocity=123 time=0>, 44660], [<message note_off channel=0 note=46 velocity=120 time=4>, 44664], [<message note_off channel=0 note=58 velocity=123 time=0>, 44664], [<message note_off channel=2 note=70 velocity=105 time=4>, 44664], [<message note_off channel=0 note=65 velocity=113 time=2>, 44666], [<message note_off channel=2 note=77 velocity=105 time=2>, 44666], [<message note_on channel=9 note=81 velocity=111 time=18>, 44678], [<message note_on channel=0 note=58 velocity=122 time=14>, 44680], [<message note_on channel=0 note=62 velocity=123 time=0>, 44680], [<message note_off channel=2 note=65 velocity=105 time=14>, 44680], [<message note_on channel=0 note=65 velocity=117 time=2>, 44682], [<message note_off channel=1 note=32 velocity=125 time=44>, 44682], [<message note_on channel=0 note=46 velocity=121 time=2>, 44684], [<message note_on channel=0 note=66 velocity=120 time=0>, 44684], [<message note_on channel=3 note=74 velocity=113 time=26>, 44684], [<message note_on channel=3 note=86 velocity=113 time=0>, 44684], [<message note_on channel=1 note=31 velocity=125 time=4>, 44686], [<message note_on channel=9 note=35 velocity=122 time=8>, 44686], [<message note_on channel=9 note=43 velocity=123 time=0>, 44686], [<message note_on channel=2 note=58 velocity=119 time=8>, 44688], [<message note_on channel=2 note=70 velocity=116 time=0>, 44688], [<message note_on channel=2 note=74 velocity=111 time=0>, 44688], [<message note_on channel=2 note=77 velocity=118 time=0>, 44688], [<message note_on channel=10 note=36 velocity=122 time=30>, 44688], [<message note_on channel=10 note=48 velocity=119 time=0>, 44688], [<message note_off channel=9 note=81 velocity=111 time=14>, 44700], [<message note_off channel=3 note=74 velocity=113 time=18>, 44702], [<message note_off channel=0 note=53 velocity=122 time=20>, 44704], [<message note_off channel=0 note=62 velocity=123 time=2>, 44706], [<message note_off channel=3 note=86 velocity=113 time=4>, 44706], [<message note_off channel=10 note=48 velocity=119 time=18>, 44706], [<message note_off channel=0 note=66 velocity=120 time=2>, 44708], [<message note_off channel=2 note=74 velocity=111 time=20>, 44708], [<message note_off channel=10 note=36 velocity=122 time=2>, 44708], [<message note_off channel=0 note=65 velocity=117 time=4>, 44712], [<message note_off channel=0 note=58 velocity=122 time=0>, 44712], [<message note_off channel=9 note=35 velocity=122 time=12>, 44712], [<message note_off channel=2 note=70 velocity=116 time=6>, 44714], [<message note_off channel=9 note=43 velocity=123 time=2>, 44714], [<message note_off channel=0 note=46 velocity=121 time=10>, 44722], [<message note_off channel=1 note=31 velocity=125 time=36>, 44722], [<message note_off channel=2 note=77 velocity=118 time=8>, 44722], [<message note_off channel=2 note=58 velocity=119 time=2>, 44724], [<message note_on channel=9 note=81 velocity=112 time=14>, 44728], [<message note_on channel=0 note=66 velocity=123 time=10>, 44732], [<message note_on channel=0 note=50 velocity=122 time=2>, 44734], [<message note_on channel=0 note=54 velocity=123 time=0>, 44734], [<message note_on channel=0 note=60 velocity=123 time=0>, 44734], [<message note_on channel=0 note=62 velocity=123 time=0>, 44734], [<message note_on channel=1 note=30 velocity=125 time=12>, 44734], [<message note_on channel=9 note=35 velocity=123 time=6>, 44734], [<message note_on channel=9 note=45 velocity=124 time=0>, 44734], [<message note_on channel=2 note=50 velocity=122 time=12>, 44736], [<message note_on channel=2 note=62 velocity=123 time=0>, 44736], [<message note_on channel=2 note=72 velocity=117 time=0>, 44736], [<message note_on channel=2 note=74 velocity=117 time=0>, 44736], [<message note_on channel=2 note=78 velocity=118 time=0>, 44736], [<message note_on channel=3 note=78 velocity=113 time=30>, 44736], [<message note_on channel=10 note=36 velocity=122 time=28>, 44736], [<message note_on channel=10 note=48 velocity=120 time=0>, 44736], [<message note_off channel=3 note=78 velocity=113 time=2>, 44738], [<message note_on channel=3 note=90 velocity=113 time=2>, 44740], [<message note_off channel=9 note=81 velocity=112 time=20>, 44754], [<message note_off channel=10 note=48 velocity=120 time=20>, 44756], [<message note_off channel=10 note=36 velocity=122 time=2>, 44758], [<message note_off channel=3 note=90 velocity=113 time=24>, 44764], [<message note_off channel=2 note=74 velocity=117 time=40>, 44776], [<message note_off channel=9 note=35 velocity=123 time=22>, 44776], [<message note_off channel=0 note=60 velocity=123 time=46>, 44780], [<message note_off channel=2 note=50 velocity=122 time=4>, 44780], [<message note_off channel=2 note=78 velocity=118 time=2>, 44782], [<message note_off channel=9 note=45 velocity=124 time=6>, 44782], [<message note_off channel=0 note=54 velocity=123 time=4>, 44784], [<message note_off channel=0 note=66 velocity=123 time=0>, 44784], [<message note_off channel=2 note=72 velocity=117 time=4>, 44786], [<message note_off channel=0 note=50 velocity=122 time=4>, 44788], [<message note_off channel=0 note=62 velocity=123 time=2>, 44790], [<message note_off channel=2 note=62 velocity=123 time=6>, 44792], [<message note_off channel=1 note=30 velocity=125 time=64>, 44798], [<message note_on channel=9 note=81 velocity=112 time=42>, 44824], [<message note_on channel=1 note=26 velocity=125 time=32>, 44830], [<message note_on channel=1 note=28 velocity=125 time=0>, 44830], [<message note_on channel=9 note=35 velocity=124 time=6>, 44830], [<message note_on channel=9 note=43 velocity=124 time=0>, 44830], [<message note_on channel=2 note=50 velocity=122 time=40>, 44832], [<message note_on channel=2 note=62 velocity=120 time=0>, 44832], [<message note_on channel=2 note=72 velocity=121 time=0>, 44832], [<message note_on channel=2 note=74 velocity=122 time=0>, 44832], [<message note_on channel=2 note=78 velocity=119 time=0>, 44832], [<message note_on channel=10 note=36 velocity=120 time=74>, 44832], [<message note_on channel=10 note=48 velocity=120 time=0>, 44832], [<message note_on channel=3 note=78 velocity=113 time=70>, 44834], [<message note_on channel=3 note=90 velocity=113 time=0>, 44834], [<message note_on channel=0 note=50 velocity=122 time=46>, 44836], [<message note_on channel=0 note=54 velocity=123 time=0>, 44836], [<message note_on channel=0 note=60 velocity=123 time=2>, 44838], [<message note_on channel=0 note=62 velocity=123 time=0>, 44838], [<message note_on channel=0 note=66 velocity=123 time=0>, 44838], [<message note_off channel=1 note=28 velocity=125 time=14>, 44844], [<message note_off channel=9 note=81 velocity=112 time=20>, 44850], [<message note_off channel=10 note=48 velocity=120 time=20>, 44852], [<message note_off channel=10 note=36 velocity=120 time=4>, 44856], [<message note_off channel=3 note=90 velocity=113 time=28>, 44862], [<message note_off channel=3 note=78 velocity=113 time=0>, 44862], [<message note_off channel=2 note=62 velocity=120 time=36>, 44868], [<message note_off channel=2 note=72 velocity=121 time=4>, 44872], [<message note_off channel=9 note=43 velocity=124 time=22>, 44872], [<message note_off channel=9 note=35 velocity=124 time=0>, 44872], [<message note_off channel=2 note=74 velocity=122 time=2>, 44874], [<message note_off channel=2 note=78 velocity=119 time=2>, 44876], [<message note_off channel=0 note=60 velocity=123 time=42>, 44880], [<message note_off channel=2 note=50 velocity=122 time=4>, 44880], [<message note_off channel=0 note=54 velocity=123 time=2>, 44882], [<message note_off channel=0 note=62 velocity=123 time=4>, 44886], [<message note_off channel=1 note=26 velocity=125 time=44>, 44888], [<message note_off channel=0 note=50 velocity=122 time=4>, 44890], [<message note_off channel=0 note=66 velocity=123 time=2>, 44892], [<message note_on channel=1 note=31 velocity=125 time=38>, 44926], [<message note_on channel=9 note=35 velocity=124 time=54>, 44926], [<message note_on channel=9 note=40 velocity=124 time=0>, 44926], [<message note_on channel=2 note=43 velocity=121 time=48>, 44928], [<message note_on channel=2 note=55 velocity=122 time=0>, 44928], [<message note_on channel=2 note=71 velocity=122 time=0>, 44928], [<message note_on channel=2 note=74 velocity=121 time=0>, 44928], [<message note_on channel=2 note=79 velocity=119 time=0>, 44928], [<message note_on channel=9 note=81 velocity=117 time=2>, 44928], [<message note_on channel=10 note=36 velocity=122 time=72>, 44928], [<message note_on channel=10 note=48 velocity=120 time=0>, 44928], [<message note_on channel=0 note=50 velocity=123 time=38>, 44930], [<message note_on channel=0 note=67 velocity=123 time=0>, 44930], [<message note_on channel=3 note=79 velocity=113 time=68>, 44930], [<message note_on channel=3 note=91 velocity=113 time=0>, 44930], [<message note_on channel=0 note=43 velocity=123 time=2>, 44932], [<message note_on channel=0 note=55 velocity=123 time=0>, 44932], [<message note_on channel=0 note=59 velocity=123 time=0>, 44932], [<message note_on channel=0 note=62 velocity=123 time=0>, 44932], [<message note_off channel=3 note=79 velocity=113 time=2>, 44932], [<message note_on channel=0 note=66 velocity=101 time=8>, 44940], [<message note_off channel=0 note=66 velocity=101 time=6>, 44946], [<message note_off channel=9 note=81 velocity=117 time=18>, 44946], [<message note_off channel=10 note=36 velocity=122 time=20>, 44948], [<message note_off channel=10 note=48 velocity=120 time=2>, 44950], [<message note_off channel=3 note=91 velocity=113 time=30>, 44962], [<message note_off channel=2 note=71 velocity=122 time=42>, 44970], [<message note_off channel=2 note=74 velocity=121 time=6>, 44976], [<message note_off channel=2 note=43 velocity=121 time=0>, 44976], [<message note_off channel=2 note=79 velocity=119 time=2>, 44978], [<message note_off channel=2 note=55 velocity=122 time=0>, 44978], [<message note_off channel=0 note=62 velocity=123 time=48>, 44994], [<message note_off channel=1 note=31 velocity=125 time=68>, 44994], [<message note_off channel=0 note=59 velocity=123 time=2>, 44996], [<message note_off channel=0 note=67 velocity=123 time=2>, 44998], [<message note_off channel=0 note=55 velocity=123 time=2>, 45000], [<message note_off channel=0 note=43 velocity=123 time=0>, 45000], [<message note_off channel=0 note=50 velocity=123 time=2>, 45002], [<message note_off channel=9 note=40 velocity=124 time=60>, 45006], [<message note_off channel=9 note=35 velocity=124 time=0>, 45006], [<message note_on channel=7 note=59 velocity=119 time=1748>, 45024], [<message note_on channel=7 note=67 velocity=119 time=0>, 45024], [<message note_off channel=7 note=67 velocity=119 time=24>, 45048], [<message note_off channel=7 note=59 velocity=119 time=4>, 45052], [<message note_on channel=7 note=59 velocity=119 time=20>, 45072], [<message note_on channel=7 note=67 velocity=119 time=0>, 45072], [<message note_off channel=7 note=67 velocity=119 time=22>, 45094], [<message note_off channel=7 note=59 velocity=119 time=26>, 45120], [<message note_on channel=7 note=60 velocity=120 time=0>, 45120], [<message note_on channel=7 note=67 velocity=120 time=0>, 45120], [<message note_on channel=7 note=59 velocity=120 time=48>, 45168], [<message note_off channel=7 note=60 velocity=120 time=10>, 45178], [<message note_off channel=7 note=67 velocity=120 time=10>, 45188], [<message note_off channel=7 note=59 velocity=120 time=14>, 45202], [<message note_on channel=2 note=50 velocity=116 time=238>, 45216], [<message note_on channel=2 note=62 velocity=114 time=0>, 45216], [<message note_on channel=3 note=62 velocity=113 time=254>, 45216], [<message note_on channel=3 note=74 velocity=113 time=0>, 45216], [<message note_off channel=2 note=62 velocity=114 time=18>, 45234], [<message note_off channel=2 note=50 velocity=116 time=0>, 45234], [<message note_off channel=3 note=62 velocity=113 time=18>, 45234], [<message note_off channel=3 note=74 velocity=113 time=6>, 45240], [<message note_on channel=2 note=50 velocity=113 time=30>, 45264], [<message note_on channel=2 note=62 velocity=114 time=0>, 45264], [<message note_on channel=3 note=62 velocity=113 time=24>, 45264], [<message note_on channel=3 note=74 velocity=113 time=0>, 45264], [<message note_off channel=2 note=50 velocity=113 time=12>, 45276], [<message note_off channel=2 note=62 velocity=114 time=2>, 45278], [<message note_off channel=3 note=74 velocity=113 time=26>, 45290], [<message note_off channel=3 note=62 velocity=113 time=0>, 45290], [<message note_on channel=2 note=52 velocity=119 time=34>, 45312], [<message note_on channel=2 note=64 velocity=119 time=0>, 45312], [<message note_on channel=3 note=64 velocity=113 time=22>, 45312], [<message note_on channel=3 note=76 velocity=113 time=0>, 45312], [<message note_off channel=2 note=52 velocity=119 time=42>, 45354], [<message note_off channel=2 note=64 velocity=119 time=4>, 45358], [<message note_off channel=3 note=76 velocity=113 time=46>, 45358], [<message note_off channel=3 note=64 velocity=113 time=0>, 45358], [<message note_on channel=2 note=50 velocity=115 time=2>, 45360], [<message note_on channel=2 note=62 velocity=114 time=0>, 45360], [<message note_on channel=3 note=62 velocity=113 time=2>, 45360], [<message note_on channel=3 note=74 velocity=113 time=0>, 45360], [<message note_off channel=2 note=62 velocity=114 time=20>, 45380], [<message note_off channel=2 note=50 velocity=115 time=2>, 45382], [<message note_off channel=3 note=74 velocity=113 time=42>, 45402], [<message note_off channel=3 note=62 velocity=113 time=6>, 45408], [<message note_on channel=7 note=59 velocity=120 time=206>, 45408], [<message note_on channel=7 note=67 velocity=120 time=0>, 45408], [<message note_off channel=7 note=67 velocity=120 time=20>, 45428], [<message note_off channel=7 note=59 velocity=120 time=4>, 45432], [<message note_on channel=7 note=59 velocity=120 time=24>, 45456], [<message note_on channel=7 note=67 velocity=120 time=0>, 45456], [<message note_off channel=7 note=67 velocity=120 time=20>, 45476], [<message note_off channel=7 note=59 velocity=120 time=28>, 45504], [<message note_on channel=7 note=60 velocity=120 time=0>, 45504], [<message note_on channel=7 note=67 velocity=120 time=0>, 45504], [<message note_off channel=7 note=60 velocity=120 time=46>, 45550], [<message note_off channel=7 note=67 velocity=120 time=2>, 45552], [<message note_on channel=7 note=59 velocity=120 time=0>, 45552], [<message note_off channel=7 note=59 velocity=120 time=28>, 45580], [<message note_on channel=2 note=50 velocity=116 time=218>, 45600], [<message note_on channel=2 note=62 velocity=118 time=0>, 45600], [<message note_on channel=3 note=60 velocity=113 time=192>, 45600], [<message note_on channel=3 note=74 velocity=113 time=0>, 45600], [<message note_off channel=2 note=50 velocity=116 time=14>, 45614], [<message note_off channel=2 note=62 velocity=118 time=2>, 45616], [<message note_off channel=3 note=74 velocity=113 time=22>, 45622], [<message note_off channel=3 note=60 velocity=113 time=6>, 45628], [<message note_on channel=2 note=50 velocity=116 time=32>, 45648], [<message note_on channel=2 note=62 velocity=116 time=0>, 45648], [<message note_on channel=3 note=74 velocity=113 time=20>, 45648], [<message note_off channel=2 note=50 velocity=116 time=16>, 45664], [<message note_off channel=2 note=62 velocity=116 time=2>, 45666], [<message note_off channel=3 note=74 velocity=113 time=26>, 45674], [<message note_on channel=2 note=52 velocity=119 time=30>, 45696], [<message note_on channel=2 note=64 velocity=119 time=0>, 45696], [<message note_on channel=3 note=64 velocity=113 time=22>, 45696], [<message note_on channel=3 note=76 velocity=113 time=0>, 45696], [<message note_off channel=2 note=52 velocity=119 time=32>, 45728], [<message note_off channel=2 note=64 velocity=119 time=4>, 45732], [<message note_off channel=3 note=76 velocity=113 time=46>, 45742], [<message note_off channel=3 note=64 velocity=113 time=0>, 45742], [<message note_on channel=2 note=50 velocity=116 time=12>, 45744], [<message note_on channel=2 note=62 velocity=119 time=0>, 45744], [<message note_on channel=3 note=62 velocity=113 time=2>, 45744], [<message note_on channel=3 note=74 velocity=113 time=0>, 45744], [<message note_off channel=2 note=62 velocity=119 time=18>, 45762], [<message note_off channel=2 note=50 velocity=116 time=2>, 45764], [<message note_off channel=3 note=74 velocity=113 time=32>, 45776], [<message note_off channel=3 note=62 velocity=113 time=0>, 45776], [<message note_on channel=2 note=62 velocity=119 time=28>, 45792], [<message note_on channel=2 note=74 velocity=119 time=0>, 45792], [<message note_on channel=7 note=55 velocity=120 time=212>, 45792], [<message note_on channel=7 note=59 velocity=120 time=0>, 45792], [<message note_on channel=7 note=67 velocity=120 time=0>, 45792], [<message note_off channel=2 note=62 velocity=119 time=10>, 45802], [<message note_off channel=2 note=74 velocity=119 time=8>, 45810], [<message note_off channel=7 note=67 velocity=120 time=24>, 45816], [<message note_off channel=7 note=59 velocity=120 time=2>, 45818], [<message note_off channel=7 note=55 velocity=120 time=0>, 45818], [<message note_on channel=2 note=62 velocity=119 time=30>, 45840], [<message note_on channel=2 note=74 velocity=121 time=0>, 45840], [<message note_on channel=7 note=55 velocity=120 time=22>, 45840], [<message note_on channel=7 note=59 velocity=119 time=0>, 45840], [<message note_on channel=7 note=67 velocity=120 time=0>, 45840], [<message note_off channel=2 note=62 velocity=119 time=22>, 45862], [<message note_off channel=7 note=67 velocity=120 time=28>, 45868], [<message note_off channel=2 note=74 velocity=121 time=12>, 45874], [<message note_off channel=7 note=55 velocity=120 time=8>, 45876], [<message note_off channel=7 note=59 velocity=119 time=10>, 45886], [<message note_on channel=2 note=64 velocity=121 time=14>, 45888], [<message note_on channel=2 note=76 velocity=116 time=0>, 45888], [<message note_on channel=7 note=57 velocity=120 time=2>, 45888], [<message note_on channel=7 note=60 velocity=119 time=0>, 45888], [<message note_on channel=7 note=67 velocity=120 time=0>, 45888], [<message note_off channel=2 note=76 velocity=116 time=42>, 45930], [<message note_off channel=7 note=60 velocity=119 time=46>, 45934], [<message note_on channel=2 note=62 velocity=119 time=6>, 45936], [<message note_on channel=2 note=74 velocity=117 time=0>, 45936], [<message note_off channel=7 note=57 velocity=120 time=2>, 45936], [<message note_on channel=7 note=55 velocity=119 time=0>, 45936], [<message note_on channel=7 note=59 velocity=111 time=0>, 45936], [<message note_off channel=2 note=64 velocity=121 time=4>, 45940], [<message note_off channel=2 note=62 velocity=119 time=34>, 45974], [<message note_off channel=2 note=74 velocity=117 time=4>, 45978], [<message note_off channel=7 note=55 velocity=119 time=42>, 45978], [<message note_on channel=2 note=60 velocity=119 time=6>, 45984], [<message note_on channel=2 note=72 velocity=120 time=0>, 45984], [<message note_on channel=7 note=54 velocity=119 time=6>, 45984], [<message note_on channel=7 note=57 velocity=119 time=0>, 45984], [<message note_off channel=7 note=59 velocity=111 time=6>, 45990], [<message note_off channel=7 note=54 velocity=119 time=22>, 46012], [<message note_off channel=2 note=72 velocity=120 time=34>, 46018], [<message note_off channel=2 note=60 velocity=119 time=0>, 46018], [<message note_on channel=2 note=59 velocity=119 time=14>, 46032], [<message note_on channel=2 note=71 velocity=119 time=0>, 46032], [<message note_on channel=7 note=52 velocity=120 time=20>, 46032], [<message note_on channel=7 note=55 velocity=120 time=0>, 46032], [<message note_off channel=7 note=57 velocity=119 time=6>, 46038], [<message note_off channel=2 note=71 velocity=119 time=30>, 46062], [<message note_off channel=2 note=59 velocity=119 time=6>, 46068], [<message note_off channel=7 note=55 velocity=120 time=34>, 46072], [<message note_off channel=7 note=67 velocity=120 time=0>, 46072], [<message note_on channel=2 note=57 velocity=119 time=12>, 46080], [<message note_on channel=2 note=69 velocity=120 time=0>, 46080], [<message note_off channel=7 note=52 velocity=120 time=8>, 46080], [<message note_on channel=7 note=50 velocity=120 time=0>, 46080], [<message note_on channel=7 note=54 velocity=120 time=0>, 46080], [<message note_on channel=7 note=62 velocity=120 time=0>, 46080], [<message note_on channel=7 note=66 velocity=120 time=0>, 46080], [<message note_off channel=2 note=69 velocity=120 time=30>, 46110], [<message note_off channel=7 note=50 velocity=120 time=42>, 46122], [<message note_off channel=2 note=57 velocity=119 time=14>, 46124], [<message note_off channel=7 note=54 velocity=120 time=6>, 46128], [<message note_off channel=7 note=66 velocity=120 time=4>, 46132], [<message note_off channel=7 note=62 velocity=120 time=6>, 46138], [<message note_on channel=5 note=84 velocity=119 time=2072>, 46176], [<message note_on channel=3 note=72 velocity=113 time=400>, 46176], [<message note_on channel=6 note=72 velocity=117 time=2072>, 46176], [<message note_on channel=7 note=72 velocity=118 time=38>, 46176], [<message note_off channel=5 note=84 velocity=119 time=30>, 46206], [<message note_off channel=6 note=72 velocity=117 time=30>, 46206], [<message note_off channel=7 note=72 velocity=118 time=30>, 46206], [<message note_off channel=3 note=72 velocity=113 time=32>, 46208], [<message note_on channel=5 note=84 velocity=119 time=18>, 46224], [<message note_on channel=3 note=72 velocity=113 time=16>, 46224], [<message note_on channel=6 note=72 velocity=117 time=18>, 46224], [<message note_on channel=7 note=72 velocity=118 time=18>, 46224], [<message note_off channel=5 note=84 velocity=119 time=24>, 46248], [<message note_off channel=6 note=72 velocity=117 time=24>, 46248], [<message note_off channel=7 note=72 velocity=118 time=24>, 46248], [<message note_off channel=3 note=72 velocity=113 time=36>, 46260], [<message note_on channel=5 note=84 velocity=119 time=24>, 46272], [<message note_on channel=3 note=72 velocity=113 time=12>, 46272], [<message note_on channel=6 note=72 velocity=117 time=24>, 46272], [<message note_on channel=7 note=72 velocity=118 time=24>, 46272], [<message note_off channel=3 note=72 velocity=113 time=46>, 46318], [<message note_on channel=5 note=81 velocity=119 time=48>, 46320], [<message note_on channel=3 note=69 velocity=113 time=2>, 46320], [<message note_on channel=6 note=69 velocity=117 time=48>, 46320], [<message note_on channel=7 note=69 velocity=118 time=48>, 46320], [<message note_off channel=3 note=69 velocity=113 time=94>, 46414], [<message note_on channel=5 note=77 velocity=119 time=96>, 46416], [<message note_on channel=3 note=65 velocity=113 time=2>, 46416], [<message note_on channel=6 note=65 velocity=117 time=96>, 46416], [<message note_on channel=7 note=65 velocity=118 time=96>, 46416], [<message note_off channel=3 note=65 velocity=113 time=94>, 46510], [<message note_on channel=5 note=74 velocity=120 time=96>, 46512], [<message note_on channel=3 note=62 velocity=113 time=2>, 46512], [<message note_on channel=6 note=62 velocity=119 time=96>, 46512], [<message note_on channel=7 note=62 velocity=119 time=96>, 46512], [<message note_off channel=5 note=84 velocity=119 time=62>, 46574], [<message note_off channel=6 note=72 velocity=117 time=62>, 46574], [<message note_off channel=7 note=72 velocity=118 time=62>, 46574], [<message note_off channel=3 note=62 velocity=113 time=94>, 46606], [<message note_on channel=5 note=72 velocity=120 time=34>, 46608], [<message note_on channel=3 note=60 velocity=113 time=2>, 46608], [<message note_on channel=6 note=60 velocity=118 time=34>, 46608], [<message note_on channel=7 note=60 velocity=119 time=34>, 46608], [<message note_off channel=5 note=81 velocity=119 time=96>, 46704], [<message note_off channel=6 note=69 velocity=117 time=96>, 46704], [<message note_off channel=7 note=69 velocity=118 time=96>, 46704], [<message note_off channel=3 note=60 velocity=113 time=98>, 46706], [<message note_off channel=5 note=77 velocity=119 time=10>, 46714], [<message note_off channel=6 note=65 velocity=117 time=10>, 46714], [<message note_off channel=7 note=65 velocity=118 time=10>, 46714], [<message note_off channel=5 note=74 velocity=120 time=4>, 46718], [<message note_off channel=6 note=62 velocity=119 time=4>, 46718], [<message note_off channel=7 note=62 velocity=119 time=4>, 46718], [<message note_off channel=5 note=72 velocity=120 time=16>, 46734], [<message note_off channel=6 note=60 velocity=118 time=16>, 46734], [<message note_off channel=7 note=60 velocity=119 time=16>, 46734], [<message note_on channel=0 note=61 velocity=113 time=1750>, 46752], [<message note_on channel=0 note=65 velocity=113 time=0>, 46752], [<message note_on channel=0 note=68 velocity=113 time=0>, 46752], [<message note_on channel=0 note=73 velocity=113 time=0>, 46752], [<message note_on channel=2 note=49 velocity=116 time=628>, 46752], [<message note_on channel=2 note=56 velocity=113 time=0>, 46752], [<message note_on channel=2 note=61 velocity=113 time=0>, 46752], [<message note_off channel=2 note=49 velocity=116 time=18>, 46770], [<message note_off channel=2 note=61 velocity=113 time=2>, 46772], [<message note_off channel=0 note=68 velocity=113 time=22>, 46774], [<message note_off channel=2 note=56 velocity=113 time=2>, 46774], [<message note_off channel=0 note=73 velocity=113 time=2>, 46776], [<message note_off channel=0 note=65 velocity=113 time=0>, 46776], [<message note_off channel=0 note=61 velocity=113 time=6>, 46782], [<message note_on channel=0 note=60 velocity=114 time=66>, 46848], [<message note_on channel=0 note=64 velocity=114 time=0>, 46848], [<message note_on channel=0 note=67 velocity=114 time=0>, 46848], [<message note_on channel=0 note=72 velocity=114 time=0>, 46848], [<message note_on channel=2 note=48 velocity=103 time=74>, 46848], [<message note_on channel=2 note=55 velocity=107 time=0>, 46848], [<message note_on channel=2 note=60 velocity=111 time=0>, 46848], [<message note_off channel=0 note=67 velocity=114 time=16>, 46864], [<message note_off channel=0 note=64 velocity=114 time=0>, 46864], [<message note_off channel=2 note=55 velocity=107 time=16>, 46864], [<message note_off channel=2 note=48 velocity=103 time=0>, 46864], [<message note_off channel=2 note=60 velocity=111 time=2>, 46866], [<message note_off channel=0 note=72 velocity=114 time=4>, 46868], [<message note_off channel=0 note=60 velocity=114 time=0>, 46868], [<message note_on channel=0 note=60 velocity=114 time=28>, 46896], [<message note_on channel=0 note=64 velocity=114 time=0>, 46896], [<message note_on channel=0 note=67 velocity=114 time=0>, 46896], [<message note_on channel=0 note=72 velocity=114 time=0>, 46896], [<message note_on channel=2 note=48 velocity=113 time=30>, 46896], [<message note_on channel=2 note=55 velocity=111 time=0>, 46896], [<message note_on channel=2 note=60 velocity=108 time=0>, 46896], [<message note_off channel=2 note=55 velocity=111 time=14>, 46910], [<message note_off channel=0 note=64 velocity=114 time=16>, 46912], [<message note_off channel=0 note=72 velocity=114 time=2>, 46914], [<message note_off channel=0 note=67 velocity=114 time=0>, 46914], [<message note_off channel=2 note=60 velocity=108 time=4>, 46914], [<message note_off channel=2 note=48 velocity=113 time=0>, 46914], [<message note_off channel=0 note=60 velocity=114 time=2>, 46916], [<message note_on channel=0 note=59 velocity=114 time=28>, 46944], [<message note_on channel=0 note=63 velocity=114 time=0>, 46944], [<message note_on channel=0 note=66 velocity=114 time=0>, 46944], [<message note_on channel=0 note=71 velocity=114 time=0>, 46944], [<message note_on channel=2 note=47 velocity=117 time=30>, 46944], [<message note_on channel=2 note=54 velocity=117 time=0>, 46944], [<message note_on channel=2 note=59 velocity=118 time=0>, 46944], [<message note_off channel=2 note=59 velocity=118 time=16>, 46960], [<message note_off channel=2 note=54 velocity=117 time=0>, 46960], [<message note_off channel=0 note=63 velocity=114 time=18>, 46962], [<message note_off channel=2 note=47 velocity=117 time=2>, 46962], [<message note_off channel=0 note=59 velocity=114 time=10>, 46972], [<message note_off channel=0 note=71 velocity=114 time=2>, 46974], [<message note_off channel=0 note=66 velocity=114 time=2>, 46976], [<message note_on channel=0 note=60 velocity=114 time=64>, 47040], [<message note_on channel=0 note=64 velocity=114 time=0>, 47040], [<message note_on channel=0 note=67 velocity=114 time=0>, 47040], [<message note_on channel=0 note=72 velocity=114 time=0>, 47040], [<message note_on channel=2 note=48 velocity=114 time=78>, 47040], [<message note_on channel=2 note=55 velocity=116 time=0>, 47040], [<message note_on channel=2 note=60 velocity=119 time=0>, 47040], [<message note_off channel=2 note=55 velocity=116 time=18>, 47058], [<message note_off channel=0 note=64 velocity=114 time=20>, 47060], [<message note_off channel=2 note=60 velocity=119 time=2>, 47060], [<message note_off channel=2 note=48 velocity=114 time=2>, 47062], [<message note_off channel=0 note=72 velocity=114 time=10>, 47070], [<message note_off channel=0 note=67 velocity=114 time=2>, 47072], [<message note_off channel=0 note=60 velocity=114 time=8>, 47080], [<message note_on channel=0 note=61 velocity=114 time=56>, 47136], [<message note_on channel=0 note=65 velocity=114 time=0>, 47136], [<message note_on channel=0 note=68 velocity=114 time=0>, 47136], [<message note_on channel=0 note=73 velocity=114 time=0>, 47136], [<message note_on channel=2 note=49 velocity=116 time=74>, 47136], [<message note_on channel=2 note=56 velocity=117 time=0>, 47136], [<message note_on channel=2 note=61 velocity=118 time=0>, 47136], [<message note_off channel=2 note=61 velocity=118 time=20>, 47156], [<message note_off channel=2 note=56 velocity=117 time=0>, 47156], [<message note_off channel=2 note=49 velocity=116 time=2>, 47158], [<message note_off channel=0 note=68 velocity=114 time=26>, 47162], [<message note_off channel=0 note=65 velocity=114 time=0>, 47162], [<message note_off channel=0 note=73 velocity=114 time=4>, 47166], [<message note_off channel=0 note=61 velocity=114 time=8>, 47174], [<message note_on channel=0 note=60 velocity=114 time=58>, 47232], [<message note_on channel=0 note=64 velocity=114 time=0>, 47232], [<message note_on channel=0 note=67 velocity=114 time=0>, 47232], [<message note_on channel=0 note=72 velocity=114 time=0>, 47232], [<message note_on channel=2 note=48 velocity=113 time=74>, 47232], [<message note_on channel=2 note=55 velocity=113 time=0>, 47232], [<message note_on channel=2 note=60 velocity=114 time=0>, 47232], [<message note_off channel=0 note=64 velocity=114 time=14>, 47246], [<message note_off channel=0 note=67 velocity=114 time=4>, 47250], [<message note_off channel=2 note=55 velocity=113 time=18>, 47250], [<message note_off channel=2 note=48 velocity=113 time=0>, 47250], [<message note_off channel=0 note=60 velocity=114 time=2>, 47252], [<message note_off channel=2 note=60 velocity=114 time=2>, 47252], [<message note_off channel=0 note=72 velocity=114 time=4>, 47256], [<message note_on channel=0 note=60 velocity=114 time=24>, 47280], [<message note_on channel=0 note=64 velocity=114 time=0>, 47280], [<message note_on channel=0 note=67 velocity=114 time=0>, 47280], [<message note_on channel=0 note=72 velocity=114 time=0>, 47280], [<message note_on channel=2 note=48 velocity=104 time=28>, 47280], [<message note_on channel=2 note=55 velocity=100 time=0>, 47280], [<message note_on channel=2 note=60 velocity=110 time=0>, 47280], [<message note_off channel=0 note=64 velocity=114 time=10>, 47290], [<message note_off channel=2 note=55 velocity=100 time=12>, 47292], [<message note_off channel=2 note=60 velocity=110 time=4>, 47296], [<message note_off channel=2 note=48 velocity=104 time=2>, 47298], [<message note_off channel=0 note=72 velocity=114 time=12>, 47302], [<message note_off channel=0 note=67 velocity=114 time=0>, 47302], [<message note_off channel=0 note=60 velocity=114 time=0>, 47302], [<message note_on channel=0 note=59 velocity=114 time=26>, 47328], [<message note_on channel=0 note=63 velocity=114 time=0>, 47328], [<message note_on channel=0 note=66 velocity=114 time=0>, 47328], [<message note_on channel=0 note=71 velocity=114 time=0>, 47328], [<message note_on channel=2 note=47 velocity=118 time=30>, 47328], [<message note_on channel=2 note=54 velocity=116 time=0>, 47328], [<message note_on channel=2 note=59 velocity=114 time=0>, 47328], [<message note_off channel=0 note=63 velocity=114 time=48>, 47376], [<message note_off channel=0 note=71 velocity=114 time=8>, 47384], [<message note_off channel=0 note=66 velocity=114 time=0>, 47384], [<message note_off channel=2 note=54 velocity=116 time=82>, 47410], [<message note_off channel=2 note=59 velocity=114 time=2>, 47412], [<message note_off channel=0 note=59 velocity=114 time=30>, 47414], [<message note_off channel=2 note=47 velocity=118 time=6>, 47418], [<message note_on channel=0 note=60 velocity=122 time=10>, 47424], [<message note_on channel=0 note=64 velocity=122 time=0>, 47424], [<message note_on channel=0 note=67 velocity=120 time=0>, 47424], [<message note_on channel=0 note=72 velocity=120 time=0>, 47424], [<message note_on channel=2 note=48 velocity=118 time=6>, 47424], [<message note_on channel=2 note=55 velocity=115 time=0>, 47424], [<message note_on channel=2 note=60 velocity=117 time=0>, 47424], [<message note_off channel=0 note=60 velocity=122 time=38>, 47462], [<message note_off channel=2 note=55 velocity=115 time=46>, 47470], [<message note_off channel=2 note=60 velocity=117 time=12>, 47482], [<message note_off channel=0 note=64 velocity=122 time=24>, 47486], [<message note_off channel=0 note=72 velocity=120 time=2>, 47488], [<message note_off channel=2 note=48 velocity=118 time=28>, 47510], [<message note_on channel=1 note=29 velocity=125 time=2524>, 47518], [<message note_on channel=9 note=35 velocity=123 time=2512>, 47518], [<message note_on channel=9 note=43 velocity=123 time=0>, 47518], [<message note_off channel=0 note=67 velocity=120 time=32>, 47520], [<message note_on channel=0 note=41 velocity=117 time=0>, 47520], [<message note_on channel=0 note=53 velocity=123 time=0>, 47520], [<message note_on channel=0 note=65 velocity=123 time=0>, 47520], [<message note_on channel=0 note=70 velocity=123 time=0>, 47520], [<message note_on channel=0 note=74 velocity=121 time=0>, 47520], [<message note_on channel=2 note=53 velocity=119 time=10>, 47520], [<message note_on channel=2 note=65 velocity=117 time=0>, 47520], [<message note_on channel=2 note=70 velocity=118 time=0>, 47520], [<message note_on channel=2 note=74 velocity=120 time=0>, 47520], [<message note_on channel=3 note=74 velocity=113 time=814>, 47520], [<message note_on channel=3 note=86 velocity=113 time=0>, 47520], [<message note_on channel=12 note=74 velocity=123 time=47200>, 47520], [<message note_on channel=10 note=36 velocity=121 time=2570>, 47520], [<message note_on channel=10 note=48 velocity=122 time=0>, 47520], [<message note_on channel=9 note=81 velocity=114 time=12>, 47530], [<message note_off channel=10 note=48 velocity=122 time=14>, 47534], [<message note_off channel=10 note=36 velocity=121 time=4>, 47538], [<message note_off channel=9 note=81 velocity=114 time=24>, 47554], [<message note_off channel=0 note=53 velocity=123 time=44>, 47564], [<message note_off channel=9 note=35 velocity=123 time=14>, 47568], [<message note_off channel=9 note=43 velocity=123 time=4>, 47572], [<message note_off channel=0 note=41 velocity=117 time=10>, 47574], [<message note_off channel=0 note=65 velocity=123 time=2>, 47576], [<message note_off channel=1 note=29 velocity=125 time=64>, 47582], [<message note_off channel=2 note=65 velocity=117 time=62>, 47582], [<message note_off channel=2 note=53 velocity=119 time=2>, 47584], [<message note_off channel=2 note=74 velocity=120 time=2>, 47586], [<message note_off channel=2 note=70 velocity=118 time=6>, 47592], [<message note_off channel=0 note=70 velocity=123 time=18>, 47594], [<message note_off channel=0 note=74 velocity=121 time=2>, 47596], [<message note_off channel=12 note=74 velocity=123 time=78>, 47598], [<message note_off channel=3 note=86 velocity=113 time=90>, 47610], [<message note_on channel=1 note=29 velocity=125 time=32>, 47614], [<message note_off channel=3 note=74 velocity=113 time=4>, 47614], [<message note_on channel=9 note=35 velocity=122 time=42>, 47614], [<message note_on channel=9 note=43 velocity=122 time=0>, 47614], [<message note_on channel=0 note=41 velocity=122 time=20>, 47616], [<message note_on channel=0 note=53 velocity=114 time=0>, 47616], [<message note_on channel=0 note=65 velocity=123 time=0>, 47616], [<message note_on channel=0 note=69 velocity=123 time=0>, 47616], [<message note_on channel=0 note=72 velocity=123 time=0>, 47616], [<message note_on channel=2 note=53 velocity=117 time=24>, 47616], [<message note_on channel=2 note=65 velocity=117 time=0>, 47616], [<message note_on channel=2 note=69 velocity=119 time=0>, 47616], [<message note_on channel=2 note=72 velocity=119 time=0>, 47616], [<message note_on channel=3 note=72 velocity=113 time=2>, 47616], [<message note_on channel=3 note=84 velocity=113 time=0>, 47616], [<message note_on channel=12 note=72 velocity=123 time=18>, 47616], [<message note_on channel=10 note=36 velocity=122 time=78>, 47616], [<message note_on channel=10 note=48 velocity=121 time=0>, 47616], [<message note_on channel=9 note=81 velocity=108 time=8>, 47622], [<message note_off channel=2 note=69 velocity=119 time=14>, 47630], [<message note_off channel=2 note=72 velocity=119 time=2>, 47632], [<message note_off channel=2 note=65 velocity=117 time=0>, 47632], [<message note_off channel=10 note=48 velocity=121 time=16>, 47632], [<message note_off channel=0 note=53 velocity=114 time=18>, 47634], [<message note_off channel=2 note=53 velocity=117 time=2>, 47634], [<message note_off channel=3 note=84 velocity=113 time=18>, 47634], [<message note_off channel=12 note=72 velocity=123 time=18>, 47634], [<message note_off channel=9 note=43 velocity=122 time=12>, 47634], [<message note_off channel=9 note=35 velocity=122 time=0>, 47634], [<message note_off channel=10 note=36 velocity=122 time=2>, 47634], [<message note_off channel=0 note=69 velocity=123 time=2>, 47636], [<message note_off channel=0 note=65 velocity=123 time=0>, 47636], [<message note_off channel=1 note=29 velocity=125 time=22>, 47636], [<message note_off channel=0 note=41 velocity=122 time=2>, 47638], [<message note_off channel=3 note=72 velocity=113 time=4>, 47638], [<message note_off channel=0 note=72 velocity=123 time=2>, 47640], [<message note_off channel=9 note=81 velocity=108 time=10>, 47644], [<message note_on channel=1 note=29 velocity=124 time=26>, 47662], [<message note_on channel=9 note=35 velocity=121 time=18>, 47662], [<message note_on channel=9 note=43 velocity=121 time=0>, 47662], [<message note_on channel=0 note=41 velocity=116 time=24>, 47664], [<message note_on channel=0 note=53 velocity=118 time=0>, 47664], [<message note_on channel=0 note=65 velocity=117 time=0>, 47664], [<message note_on channel=0 note=69 velocity=121 time=0>, 47664], [<message note_on channel=0 note=72 velocity=116 time=0>, 47664], [<message note_on channel=2 note=53 velocity=116 time=30>, 47664], [<message note_on channel=2 note=65 velocity=114 time=0>, 47664], [<message note_on channel=2 note=69 velocity=118 time=0>, 47664], [<message note_on channel=2 note=72 velocity=113 time=0>, 47664], [<message note_on channel=3 note=72 velocity=113 time=26>, 47664], [<message note_on channel=3 note=84 velocity=113 time=0>, 47664], [<message note_on channel=12 note=72 velocity=122 time=30>, 47664], [<message note_on channel=9 note=81 velocity=108 time=8>, 47670], [<message note_off channel=0 note=65 velocity=117 time=12>, 47676], [<message note_off channel=2 note=65 velocity=114 time=12>, 47676], [<message note_off channel=0 note=69 velocity=121 time=2>, 47678], [<message note_off channel=2 note=69 velocity=118 time=2>, 47678], [<message note_off channel=2 note=53 velocity=116 time=0>, 47678], [<message note_off channel=9 note=43 velocity=121 time=8>, 47678], [<message note_off channel=9 note=35 velocity=121 time=2>, 47680], [<message note_off channel=0 note=41 velocity=116 time=4>, 47682], [<message note_off channel=1 note=29 velocity=124 time=20>, 47682], [<message note_off channel=12 note=72 velocity=122 time=18>, 47682], [<message note_off channel=3 note=84 velocity=113 time=20>, 47684], [<message note_off channel=0 note=53 velocity=118 time=4>, 47686], [<message note_off channel=2 note=72 velocity=113 time=8>, 47686], [<message note_off channel=3 note=72 velocity=113 time=4>, 47688], [<message note_off channel=0 note=72 velocity=116 time=4>, 47690], [<message note_off channel=9 note=81 velocity=108 time=10>, 47690], [<message note_on channel=1 note=29 velocity=125 time=28>, 47710], [<message note_on channel=9 note=35 velocity=122 time=20>, 47710], [<message note_on channel=9 note=43 velocity=121 time=0>, 47710], [<message note_on channel=0 note=41 velocity=118 time=22>, 47712], [<message note_on channel=0 note=53 velocity=123 time=0>, 47712], [<message note_on channel=0 note=65 velocity=120 time=0>, 47712], [<message note_on channel=0 note=68 velocity=122 time=0>, 47712], [<message note_on channel=0 note=71 velocity=117 time=0>, 47712], [<message note_on channel=2 note=53 velocity=117 time=26>, 47712], [<message note_on channel=2 note=65 velocity=119 time=0>, 47712], [<message note_on channel=2 note=68 velocity=117 time=0>, 47712], [<message note_on channel=2 note=71 velocity=119 time=0>, 47712], [<message note_on channel=3 note=71 velocity=113 time=24>, 47712], [<message note_on channel=3 note=83 velocity=113 time=0>, 47712], [<message note_on channel=12 note=71 velocity=123 time=30>, 47712], [<message note_on channel=10 note=36 velocity=121 time=78>, 47712], [<message note_on channel=10 note=48 velocity=121 time=0>, 47712], [<message note_on channel=9 note=81 velocity=111 time=10>, 47720], [<message note_off channel=10 note=48 velocity=121 time=14>, 47726], [<message note_off channel=10 note=36 velocity=121 time=0>, 47726], [<message note_off channel=12 note=71 velocity=123 time=32>, 47744], [<message note_off channel=9 note=81 velocity=111 time=24>, 47744], [<message note_off channel=9 note=35 velocity=122 time=16>, 47760], [<message note_off channel=9 note=43 velocity=121 time=6>, 47766], [<message note_off channel=0 note=65 velocity=120 time=58>, 47770], [<message note_off channel=0 note=41 velocity=118 time=2>, 47772], [<message note_off channel=0 note=68 velocity=122 time=2>, 47774], [<message note_off channel=0 note=53 velocity=123 time=0>, 47774], [<message note_off channel=2 note=65 velocity=119 time=62>, 47774], [<message note_off channel=2 note=53 velocity=117 time=0>, 47774], [<message note_off channel=2 note=68 velocity=117 time=2>, 47776], [<message note_off channel=2 note=71 velocity=119 time=6>, 47782], [<message note_off channel=0 note=71 velocity=117 time=10>, 47784], [<message note_off channel=1 note=29 velocity=125 time=74>, 47784], [<message note_off channel=3 note=71 velocity=113 time=72>, 47784], [<message note_off channel=3 note=83 velocity=113 time=4>, 47788], [<message note_on channel=1 note=29 velocity=125 time=22>, 47806], [<message note_on channel=9 note=35 velocity=123 time=40>, 47806], [<message note_on channel=9 note=43 velocity=123 time=0>, 47806], [<message note_on channel=0 note=41 velocity=117 time=24>, 47808], [<message note_on channel=0 note=53 velocity=123 time=0>, 47808], [<message note_on channel=0 note=65 velocity=123 time=0>, 47808], [<message note_on channel=0 note=69 velocity=123 time=0>, 47808], [<message note_on channel=0 note=72 velocity=123 time=0>, 47808], [<message note_on channel=2 note=53 velocity=117 time=26>, 47808], [<message note_on channel=2 note=65 velocity=114 time=0>, 47808], [<message note_on channel=2 note=69 velocity=118 time=0>, 47808], [<message note_on channel=2 note=72 velocity=115 time=0>, 47808], [<message note_on channel=3 note=72 velocity=113 time=20>, 47808], [<message note_on channel=3 note=84 velocity=113 time=0>, 47808], [<message note_on channel=12 note=72 velocity=123 time=64>, 47808], [<message note_on channel=10 note=36 velocity=120 time=82>, 47808], [<message note_on channel=10 note=48 velocity=121 time=0>, 47808], [<message note_on channel=9 note=81 velocity=113 time=10>, 47816], [<message note_off channel=10 note=48 velocity=121 time=18>, 47826], [<message note_off channel=10 note=36 velocity=120 time=0>, 47826], [<message note_off channel=9 note=81 velocity=113 time=22>, 47838], [<message note_off channel=12 note=72 velocity=123 time=50>, 47858], [<message note_off channel=9 note=43 velocity=123 time=30>, 47868], [<message note_off channel=9 note=35 velocity=123 time=0>, 47868], [<message note_off channel=0 note=65 velocity=123 time=64>, 47872], [<message note_off channel=0 note=41 velocity=117 time=2>, 47874], [<message note_off channel=2 note=65 velocity=114 time=66>, 47874], [<message note_off channel=0 note=53 velocity=123 time=2>, 47876], [<message note_off channel=1 note=29 velocity=125 time=70>, 47876], [<message note_off channel=0 note=69 velocity=123 time=2>, 47878], [<message note_off channel=2 note=69 velocity=118 time=8>, 47882], [<message note_off channel=2 note=53 velocity=117 time=0>, 47882], [<message note_off channel=0 note=72 velocity=123 time=6>, 47884], [<message note_off channel=2 note=72 velocity=115 time=2>, 47884], [<message note_off channel=3 note=84 velocity=113 time=82>, 47890], [<message note_off channel=3 note=72 velocity=113 time=4>, 47894], [<message note_on channel=1 note=29 velocity=125 time=26>, 47902], [<message note_on channel=9 note=35 velocity=123 time=34>, 47902], [<message note_on channel=9 note=45 velocity=122 time=0>, 47902], [<message note_on channel=0 note=41 velocity=105 time=20>, 47904], [<message note_on channel=0 note=53 velocity=119 time=0>, 47904], [<message note_on channel=0 note=65 velocity=123 time=0>, 47904], [<message note_on channel=0 note=70 velocity=123 time=0>, 47904], [<message note_on channel=0 note=74 velocity=118 time=0>, 47904], [<message note_on channel=2 note=53 velocity=120 time=20>, 47904], [<message note_on channel=2 note=65 velocity=115 time=0>, 47904], [<message note_on channel=2 note=70 velocity=119 time=0>, 47904], [<message note_on channel=2 note=74 velocity=112 time=0>, 47904], [<message note_on channel=3 note=74 velocity=113 time=10>, 47904], [<message note_on channel=3 note=86 velocity=113 time=0>, 47904], [<message note_on channel=12 note=74 velocity=123 time=46>, 47904], [<message note_on channel=10 note=36 velocity=120 time=78>, 47904], [<message note_on channel=10 note=48 velocity=121 time=0>, 47904], [<message note_on channel=9 note=81 velocity=111 time=8>, 47910], [<message note_off channel=0 note=70 velocity=123 time=14>, 47918], [<message note_off channel=2 note=70 velocity=119 time=14>, 47918], [<message note_off channel=2 note=65 velocity=115 time=0>, 47918], [<message note_off channel=10 note=48 velocity=121 time=14>, 47918], [<message note_off channel=0 note=74 velocity=118 time=2>, 47920], [<message note_off channel=0 note=65 velocity=123 time=0>, 47920], [<message note_off channel=0 note=41 velocity=105 time=0>, 47920], [<message note_off channel=2 note=74 velocity=112 time=2>, 47920], [<message note_off channel=2 note=53 velocity=120 time=0>, 47920], [<message note_off channel=0 note=53 velocity=119 time=2>, 47922], [<message note_off channel=10 note=36 velocity=120 time=4>, 47922], [<message note_off channel=1 note=29 velocity=125 time=22>, 47924], [<message note_off channel=3 note=86 velocity=113 time=20>, 47924], [<message note_off channel=9 note=45 velocity=122 time=14>, 47924], [<message note_off channel=9 note=35 velocity=123 time=0>, 47924], [<message note_off channel=3 note=74 velocity=113 time=2>, 47926], [<message note_off channel=12 note=74 velocity=123 time=22>, 47926], [<message note_off channel=9 note=81 velocity=111 time=2>, 47926], [<message note_on channel=1 note=29 velocity=123 time=26>, 47950], [<message note_on channel=9 note=35 velocity=121 time=24>, 47950], [<message note_on channel=9 note=45 velocity=120 time=0>, 47950], [<message note_on channel=0 note=41 velocity=117 time=30>, 47952], [<message note_on channel=0 note=53 velocity=120 time=0>, 47952], [<message note_on channel=0 note=65 velocity=120 time=0>, 47952], [<message note_on channel=0 note=70 velocity=120 time=0>, 47952], [<message note_on channel=0 note=74 velocity=120 time=0>, 47952], [<message note_on channel=2 note=53 velocity=118 time=32>, 47952], [<message note_on channel=2 note=65 velocity=113 time=0>, 47952], [<message note_on channel=2 note=70 velocity=118 time=0>, 47952], [<message note_on channel=2 note=74 velocity=117 time=0>, 47952], [<message note_on channel=3 note=74 velocity=113 time=26>, 47952], [<message note_on channel=3 note=86 velocity=113 time=0>, 47952], [<message note_on channel=12 note=74 velocity=121 time=26>, 47952], [<message note_on channel=9 note=81 velocity=109 time=6>, 47956], [<message note_off channel=0 note=74 velocity=120 time=10>, 47962], [<message note_off channel=2 note=65 velocity=113 time=10>, 47962], [<message note_off channel=0 note=65 velocity=120 time=2>, 47964], [<message note_off channel=0 note=41 velocity=117 time=2>, 47966], [<message note_off channel=2 note=74 velocity=117 time=6>, 47968], [<message note_off channel=2 note=53 velocity=118 time=0>, 47968], [<message note_off channel=0 note=53 velocity=120 time=4>, 47970], [<message note_off channel=2 note=70 velocity=118 time=2>, 47970], [<message note_off channel=9 note=45 velocity=120 time=16>, 47972], [<message note_off channel=0 note=70 velocity=120 time=4>, 47974], [<message note_off channel=1 note=29 velocity=123 time=24>, 47974], [<message note_off channel=12 note=74 velocity=121 time=22>, 47974], [<message note_off channel=3 note=86 velocity=113 time=24>, 47976], [<message note_off channel=3 note=74 velocity=113 time=0>, 47976], [<message note_off channel=9 note=35 velocity=121 time=4>, 47976], [<message note_off channel=9 note=81 velocity=109 time=2>, 47978], [<message note_on channel=1 note=29 velocity=125 time=24>, 47998], [<message note_on channel=9 note=35 velocity=124 time=20>, 47998], [<message note_on channel=9 note=43 velocity=123 time=0>, 47998], [<message note_on channel=0 note=41 velocity=120 time=26>, 48000], [<message note_on channel=0 note=53 velocity=120 time=0>, 48000], [<message note_on channel=0 note=65 velocity=122 time=0>, 48000], [<message note_on channel=0 note=69 velocity=122 time=0>, 48000], [<message note_on channel=0 note=72 velocity=117 time=0>, 48000], [<message note_on channel=2 note=53 velocity=121 time=30>, 48000], [<message note_on channel=2 note=65 velocity=117 time=0>, 48000], [<message note_on channel=2 note=69 velocity=121 time=0>, 48000], [<message note_on channel=2 note=72 velocity=116 time=0>, 48000], [<message note_on channel=3 note=72 velocity=113 time=24>, 48000], [<message note_on channel=3 note=84 velocity=113 time=0>, 48000], [<message note_on channel=12 note=72 velocity=124 time=26>, 48000], [<message note_on channel=10 note=36 velocity=121 time=78>, 48000], [<message note_on channel=10 note=48 velocity=119 time=0>, 48000], [<message note_on channel=9 note=81 velocity=110 time=6>, 48004], [<message note_off channel=10 note=48 velocity=119 time=14>, 48014], [<message note_off channel=10 note=36 velocity=121 time=0>, 48014], [<message note_off channel=9 note=81 velocity=110 time=24>, 48028], [<message note_off channel=12 note=72 velocity=124 time=40>, 48040], [<message note_off channel=0 note=69 velocity=122 time=56>, 48056], [<message note_off channel=0 note=41 velocity=120 time=4>, 48060], [<message note_off channel=0 note=65 velocity=122 time=6>, 48066], [<message note_off channel=2 note=69 velocity=121 time=66>, 48066], [<message note_off channel=9 note=43 velocity=123 time=38>, 48066], [<message note_off channel=0 note=72 velocity=117 time=2>, 48068], [<message note_off channel=0 note=53 velocity=120 time=0>, 48068], [<message note_off channel=2 note=65 velocity=117 time=2>, 48068], [<message note_off channel=9 note=35 velocity=124 time=2>, 48068], [<message note_off channel=1 note=29 velocity=125 time=74>, 48072], [<message note_off channel=2 note=53 velocity=121 time=4>, 48072], [<message note_off channel=2 note=72 velocity=116 time=6>, 48078], [<message note_off channel=3 note=72 velocity=113 time=86>, 48086], [<message note_off channel=3 note=84 velocity=113 time=4>, 48090], [<message note_on channel=1 note=29 velocity=125 time=22>, 48094], [<message note_on channel=9 note=35 velocity=122 time=26>, 48094], [<message note_on channel=9 note=41 velocity=123 time=0>, 48094], [<message note_on channel=9 note=81 velocity=113 time=0>, 48094], [<message note_on channel=0 note=41 velocity=117 time=28>, 48096], [<message note_on channel=0 note=53 velocity=120 time=0>, 48096], [<message note_on channel=0 note=65 velocity=114 time=0>, 48096], [<message note_on channel=0 note=68 velocity=122 time=0>, 48096], [<message note_on channel=0 note=71 velocity=117 time=0>, 48096], [<message note_on channel=2 note=53 velocity=119 time=18>, 48096], [<message note_on channel=2 note=65 velocity=104 time=0>, 48096], [<message note_on channel=2 note=68 velocity=117 time=0>, 48096], [<message note_on channel=2 note=71 velocity=114 time=0>, 48096], [<message note_on channel=3 note=71 velocity=113 time=6>, 48096], [<message note_on channel=3 note=83 velocity=113 time=0>, 48096], [<message note_on channel=12 note=71 velocity=124 time=56>, 48096], [<message note_on channel=10 note=36 velocity=120 time=82>, 48096], [<message note_on channel=10 note=48 velocity=121 time=0>, 48096], [<message note_off channel=0 note=71 velocity=117 time=12>, 48108], [<message note_off channel=10 note=48 velocity=121 time=14>, 48110], [<message note_off channel=10 note=36 velocity=120 time=0>, 48110], [<message note_off channel=2 note=71 velocity=114 time=16>, 48112], [<message note_off channel=0 note=65 velocity=114 time=6>, 48114], [<message note_off channel=0 note=41 velocity=117 time=0>, 48114], [<message note_off channel=2 note=65 velocity=104 time=2>, 48114], [<message note_off channel=3 note=83 velocity=113 time=18>, 48114], [<message note_off channel=3 note=71 velocity=113 time=0>, 48114], [<message note_off channel=12 note=71 velocity=124 time=18>, 48114], [<message note_off channel=9 note=81 velocity=113 time=20>, 48114], [<message note_off channel=0 note=53 velocity=120 time=4>, 48118], [<message note_off channel=2 note=53 velocity=119 time=4>, 48118], [<message note_off channel=9 note=41 velocity=123 time=4>, 48118], [<message note_off channel=9 note=35 velocity=122 time=0>, 48118], [<message note_off channel=0 note=68 velocity=122 time=2>, 48120], [<message note_off channel=1 note=29 velocity=125 time=26>, 48120], [<message note_off channel=2 note=68 velocity=117 time=2>, 48120], [<message note_on channel=1 note=29 velocity=122 time=22>, 48142], [<message note_on channel=9 note=35 velocity=122 time=24>, 48142], [<message note_on channel=9 note=41 velocity=121 time=0>, 48142], [<message note_on channel=9 note=81 velocity=107 time=0>, 48142], [<message note_on channel=0 note=41 velocity=114 time=24>, 48144], [<message note_on channel=0 note=53 velocity=122 time=0>, 48144], [<message note_on channel=0 note=65 velocity=93 time=0>, 48144], [<message note_on channel=0 note=68 velocity=110 time=0>, 48144], [<message note_on channel=0 note=71 velocity=115 time=0>, 48144], [<message note_on channel=2 note=53 velocity=118 time=24>, 48144], [<message note_on channel=2 note=65 velocity=113 time=0>, 48144], [<message note_on channel=2 note=68 velocity=114 time=0>, 48144], [<message note_on channel=2 note=71 velocity=116 time=0>, 48144], [<message note_on channel=3 note=71 velocity=113 time=30>, 48144], [<message note_on channel=3 note=83 velocity=113 time=0>, 48144], [<message note_on channel=12 note=71 velocity=124 time=30>, 48144], [<message note_off channel=9 note=81 velocity=107 time=20>, 48162], [<message note_off channel=3 note=83 velocity=113 time=20>, 48164], [<message note_off channel=0 note=65 velocity=93 time=22>, 48166], [<message note_off channel=0 note=41 velocity=114 time=0>, 48166], [<message note_off channel=2 note=65 velocity=113 time=22>, 48166], [<message note_off channel=3 note=71 velocity=113 time=2>, 48166], [<message note_off channel=12 note=71 velocity=124 time=22>, 48166], [<message note_off channel=9 note=41 velocity=121 time=4>, 48166], [<message note_off channel=2 note=53 velocity=118 time=2>, 48168], [<message note_off channel=0 note=53 velocity=122 time=4>, 48170], [<message note_off channel=9 note=35 velocity=122 time=4>, 48170], [<message note_off channel=0 note=68 velocity=110 time=2>, 48172], [<message note_off channel=0 note=71 velocity=115 time=2>, 48174], [<message note_off channel=1 note=29 velocity=122 time=32>, 48174], [<message note_off channel=2 note=68 velocity=114 time=6>, 48174], [<message note_off channel=2 note=71 velocity=116 time=4>, 48178], [<message note_on channel=1 note=29 velocity=125 time=16>, 48190], [<message note_on channel=9 note=35 velocity=124 time=20>, 48190], [<message note_on channel=9 note=43 velocity=123 time=0>, 48190], [<message note_on channel=0 note=41 velocity=119 time=18>, 48192], [<message note_on channel=0 note=53 velocity=123 time=0>, 48192], [<message note_on channel=0 note=65 velocity=123 time=0>, 48192], [<message note_on channel=0 note=69 velocity=123 time=0>, 48192], [<message note_on channel=0 note=72 velocity=123 time=0>, 48192], [<message note_on channel=2 note=53 velocity=119 time=14>, 48192], [<message note_on channel=2 note=65 velocity=117 time=0>, 48192], [<message note_on channel=2 note=69 velocity=121 time=0>, 48192], [<message note_on channel=2 note=72 velocity=119 time=0>, 48192], [<message note_on channel=3 note=72 velocity=113 time=26>, 48192], [<message note_on channel=3 note=84 velocity=113 time=0>, 48192], [<message note_on channel=12 note=72 velocity=123 time=26>, 48192], [<message note_on channel=9 note=81 velocity=109 time=2>, 48192], [<message note_on channel=10 note=36 velocity=121 time=82>, 48192], [<message note_on channel=10 note=48 velocity=122 time=0>, 48192], [<message note_off channel=10 note=48 velocity=122 time=18>, 48210], [<message note_off channel=10 note=36 velocity=121 time=0>, 48210], [<message note_off channel=9 note=81 velocity=109 time=24>, 48216], [<message note_off channel=0 note=69 velocity=123 time=36>, 48228], [<message note_off channel=0 note=72 velocity=123 time=2>, 48230], [<message note_off channel=0 note=41 velocity=119 time=0>, 48230], [<message note_off channel=12 note=72 velocity=123 time=40>, 48232], [<message note_off channel=0 note=53 velocity=123 time=10>, 48240], [<message note_off channel=0 note=65 velocity=123 time=4>, 48244], [<message note_off channel=9 note=43 velocity=123 time=34>, 48250], [<message note_off channel=3 note=84 velocity=113 time=60>, 48252], [<message note_off channel=3 note=72 velocity=113 time=4>, 48256], [<message note_off channel=2 note=53 velocity=119 time=66>, 48258], [<message note_off channel=9 note=35 velocity=124 time=8>, 48258], [<message note_off channel=2 note=69 velocity=121 time=4>, 48262], [<message note_off channel=2 note=65 velocity=117 time=0>, 48262], [<message note_off channel=2 note=72 velocity=119 time=4>, 48266], [<message note_off channel=1 note=29 velocity=125 time=90>, 48280], [<message note_on channel=1 note=34 velocity=125 time=6>, 48286], [<message note_on channel=9 note=35 velocity=124 time=28>, 48286], [<message note_on channel=9 note=49 velocity=123 time=0>, 48286], [<message note_on channel=0 note=46 velocity=121 time=44>, 48288], [<message note_on channel=0 note=58 velocity=122 time=0>, 48288], [<message note_on channel=0 note=65 velocity=123 time=0>, 48288], [<message note_on channel=0 note=70 velocity=123 time=0>, 48288], [<message note_on channel=0 note=74 velocity=121 time=0>, 48288], [<message note_on channel=2 note=58 velocity=118 time=22>, 48288], [<message note_on channel=2 note=65 velocity=111 time=0>, 48288], [<message note_on channel=2 note=70 velocity=118 time=0>, 48288], [<message note_on channel=2 note=74 velocity=117 time=0>, 48288], [<message note_on channel=3 note=74 velocity=113 time=32>, 48288], [<message note_on channel=3 note=86 velocity=113 time=0>, 48288], [<message note_on channel=12 note=74 velocity=122 time=56>, 48288], [<message note_on channel=9 note=81 velocity=114 time=2>, 48288], [<message note_on channel=10 note=36 velocity=122 time=78>, 48288], [<message note_on channel=10 note=48 velocity=122 time=0>, 48288], [<message note_off channel=10 note=36 velocity=122 time=14>, 48302], [<message note_off channel=10 note=48 velocity=122 time=4>, 48306], [<message note_off channel=9 note=81 velocity=114 time=24>, 48312], [<message note_off channel=12 note=74 velocity=122 time=32>, 48320], [<message note_off channel=0 note=65 velocity=123 time=54>, 48342], [<message note_off channel=0 note=74 velocity=121 time=4>, 48346], [<message note_off channel=3 note=74 velocity=113 time=60>, 48348], [<message note_off channel=0 note=70 velocity=123 time=4>, 48350], [<message note_off channel=3 note=86 velocity=113 time=4>, 48352], [<message note_off channel=0 note=46 velocity=121 time=4>, 48354], [<message note_off channel=2 note=65 velocity=111 time=66>, 48354], [<message note_off channel=1 note=34 velocity=125 time=72>, 48358], [<message note_off channel=2 note=70 velocity=118 time=4>, 48358], [<message note_off channel=0 note=58 velocity=122 time=6>, 48360], [<message note_off channel=2 note=74 velocity=117 time=2>, 48360], [<message note_off channel=2 note=58 velocity=118 time=4>, 48364], [<message note_on channel=1 note=34 velocity=125 time=24>, 48382], [<message note_off channel=9 note=35 velocity=121 time=70>, 48382], [<message note_on channel=9 note=35 velocity=121 time=0>, 48382], [<message note_on channel=9 note=43 velocity=121 time=0>, 48382], [<message note_on channel=0 note=46 velocity=119 time=24>, 48384], [<message note_on channel=0 note=58 velocity=123 time=0>, 48384], [<message note_on channel=0 note=65 velocity=123 time=0>, 48384], [<message note_on channel=0 note=70 velocity=122 time=0>, 48384], [<message note_on channel=0 note=74 velocity=122 time=0>, 48384], [<message note_on channel=2 note=58 velocity=119 time=20>, 48384], [<message note_on channel=2 note=65 velocity=112 time=0>, 48384], [<message note_on channel=2 note=70 velocity=117 time=0>, 48384], [<message note_on channel=2 note=74 velocity=119 time=0>, 48384], [<message note_on channel=3 note=74 velocity=113 time=32>, 48384], [<message note_on channel=3 note=86 velocity=113 time=0>, 48384], [<message note_on channel=12 note=74 velocity=123 time=64>, 48384], [<message note_on channel=9 note=81 velocity=108 time=6>, 48388], [<message note_off channel=9 note=81 velocity=108 time=14>, 48402], [<message note_off channel=12 note=74 velocity=123 time=22>, 48406], [<message note_off channel=2 note=65 velocity=112 time=24>, 48408], [<message note_off channel=1 note=34 velocity=125 time=32>, 48414], [<message note_off channel=2 note=58 velocity=119 time=6>, 48414], [<message note_off channel=3 note=86 velocity=113 time=30>, 48414], [<message note_off channel=2 note=74 velocity=119 time=4>, 48418], [<message note_off channel=2 note=70 velocity=117 time=2>, 48420], [<message note_off channel=3 note=74 velocity=113 time=14>, 48428], [<message note_on channel=1 note=34 velocity=119 time=16>, 48430], [<message note_off channel=9 note=43 velocity=124 time=28>, 48430], [<message note_off channel=9 note=35 velocity=124 time=0>, 48430], [<message note_on channel=9 note=35 velocity=124 time=0>, 48430], [<message note_on channel=9 note=43 velocity=124 time=0>, 48430], [<message note_on channel=9 note=81 velocity=106 time=0>, 48430], [<message note_on channel=0 note=76 velocity=117 time=48>, 48432], [<message note_on channel=2 note=58 velocity=117 time=12>, 48432], [<message note_on channel=2 note=65 velocity=107 time=0>, 48432], [<message note_on channel=2 note=76 velocity=104 time=0>, 48432], [<message note_on channel=3 note=76 velocity=113 time=4>, 48432], [<message note_on channel=3 note=88 velocity=113 time=0>, 48432], [<message note_on channel=12 note=76 velocity=122 time=26>, 48432], [<message note_off channel=9 note=49 velocity=123 time=10>, 48440], [<message note_off channel=0 note=74 velocity=122 time=12>, 48444], [<message note_off channel=0 note=70 velocity=122 time=2>, 48446], [<message note_off channel=0 note=65 velocity=123 time=4>, 48450], [<message note_off channel=2 note=65 velocity=107 time=18>, 48450], [<message note_off channel=9 note=81 velocity=106 time=10>, 48450], [<message note_off channel=0 note=58 velocity=123 time=2>, 48452], [<message note_off channel=0 note=46 velocity=119 time=2>, 48454], [<message note_off channel=2 note=76 velocity=104 time=4>, 48454], [<message note_off channel=12 note=76 velocity=122 time=24>, 48456], [<message note_off channel=0 note=76 velocity=117 time=8>, 48462], [<message note_off channel=2 note=58 velocity=117 time=12>, 48466], [<message note_off channel=3 note=76 velocity=113 time=34>, 48466], [<message note_off channel=3 note=88 velocity=113 time=2>, 48468], [<message note_off channel=1 note=34 velocity=119 time=40>, 48470], [<message note_on channel=1 note=33 velocity=125 time=8>, 48478], [<message note_off channel=9 note=43 velocity=121 time=28>, 48478], [<message note_off channel=9 note=35 velocity=124 time=0>, 48478], [<message note_on channel=9 note=35 velocity=124 time=0>, 48478], [<message note_on channel=9 note=57 velocity=123 time=0>, 48478], [<message note_on channel=0 note=45 velocity=123 time=18>, 48480], [<message note_on channel=0 note=57 velocity=122 time=0>, 48480], [<message note_on channel=0 note=65 velocity=122 time=0>, 48480], [<message note_on channel=0 note=69 velocity=123 time=0>, 48480], [<message note_on channel=0 note=72 velocity=123 time=0>, 48480], [<message note_on channel=2 note=57 velocity=119 time=14>, 48480], [<message note_on channel=2 note=65 velocity=121 time=0>, 48480], [<message note_on channel=2 note=69 velocity=120 time=0>, 48480], [<message note_on channel=2 note=72 velocity=117 time=0>, 48480], [<message note_on channel=3 note=72 velocity=113 time=12>, 48480], [<message note_on channel=3 note=84 velocity=113 time=0>, 48480], [<message note_on channel=12 note=72 velocity=124 time=24>, 48480], [<message note_on channel=9 note=81 velocity=113 time=2>, 48480], [<message note_on channel=10 note=36 velocity=122 time=174>, 48480], [<message note_on channel=10 note=48 velocity=122 time=0>, 48480], [<message note_off channel=10 note=48 velocity=122 time=18>, 48498], [<message note_off channel=10 note=36 velocity=122 time=0>, 48498], [<message note_off channel=9 note=81 velocity=113 time=24>, 48504], [<message note_off channel=2 note=65 velocity=121 time=26>, 48506], [<message note_off channel=2 note=69 velocity=120 time=2>, 48508], [<message note_off channel=0 note=72 velocity=123 time=30>, 48510], [<message note_off channel=0 note=69 velocity=123 time=2>, 48512], [<message note_off channel=0 note=57 velocity=122 time=0>, 48512], [<message note_off channel=0 note=45 velocity=123 time=0>, 48512], [<message note_off channel=2 note=57 velocity=119 time=4>, 48512], [<message note_off channel=12 note=72 velocity=124 time=32>, 48512], [<message note_off channel=0 note=65 velocity=122 time=2>, 48514], [<message note_off channel=2 note=72 velocity=117 time=2>, 48514], [<message note_off channel=3 note=84 velocity=113 time=52>, 48532], [<message note_off channel=3 note=72 velocity=113 time=2>, 48534], [<message note_off channel=1 note=33 velocity=125 time=64>, 48542], [<message note_on channel=1 note=33 velocity=125 time=32>, 48574], [<message note_off channel=9 note=35 velocity=120 time=70>, 48574], [<message note_on channel=9 note=35 velocity=120 time=0>, 48574], [<message note_on channel=9 note=43 velocity=120 time=0>, 48574], [<message note_on channel=0 note=45 velocity=123 time=62>, 48576], [<message note_on channel=0 note=57 velocity=123 time=0>, 48576], [<message note_on channel=0 note=65 velocity=123 time=0>, 48576], [<message note_on channel=0 note=69 velocity=123 time=0>, 48576], [<message note_on channel=0 note=72 velocity=123 time=0>, 48576], [<message note_on channel=2 note=57 velocity=119 time=62>, 48576], [<message note_on channel=2 note=69 velocity=119 time=0>, 48576], [<message note_on channel=2 note=72 velocity=119 time=0>, 48576], [<message note_on channel=3 note=72 velocity=113 time=42>, 48576], [<message note_on channel=3 note=84 velocity=113 time=0>, 48576], [<message note_on channel=12 note=72 velocity=123 time=64>, 48576], [<message note_on channel=9 note=81 velocity=114 time=8>, 48582], [<message note_off channel=3 note=84 velocity=113 time=18>, 48594], [<message note_off channel=12 note=72 velocity=123 time=18>, 48594], [<message note_off channel=0 note=65 velocity=123 time=22>, 48598], [<message note_off channel=2 note=57 velocity=119 time=22>, 48598], [<message note_off channel=3 note=72 velocity=113 time=4>, 48598], [<message note_off channel=9 note=81 velocity=114 time=18>, 48600], [<message note_off channel=1 note=33 velocity=125 time=28>, 48602], [<message note_off channel=9 note=57 velocity=123 time=2>, 48602], [<message note_off channel=2 note=72 velocity=119 time=14>, 48612], [<message note_off channel=2 note=69 velocity=119 time=2>, 48614], [<message note_off channel=0 note=72 velocity=123 time=20>, 48618], [<message note_off channel=0 note=69 velocity=123 time=4>, 48622], [<message note_on channel=1 note=33 velocity=123 time=20>, 48622], [<message note_off channel=9 note=43 velocity=123 time=20>, 48622], [<message note_off channel=9 note=35 velocity=123 time=0>, 48622], [<message note_on channel=9 note=35 velocity=123 time=0>, 48622], [<message note_on channel=9 note=43 velocity=123 time=0>, 48622], [<message note_on channel=0 note=65 velocity=122 time=2>, 48624], [<message note_on channel=2 note=57 velocity=119 time=10>, 48624], [<message note_on channel=2 note=65 velocity=118 time=0>, 48624], [<message note_on channel=3 note=72 velocity=113 time=26>, 48624], [<message note_on channel=3 note=84 velocity=113 time=0>, 48624], [<message note_on channel=12 note=72 velocity=121 time=30>, 48624], [<message note_on channel=9 note=81 velocity=111 time=2>, 48624], [<message note_off channel=0 note=57 velocity=123 time=12>, 48636], [<message note_off channel=12 note=72 velocity=121 time=22>, 48646], [<message note_off channel=0 note=45 velocity=123 time=12>, 48648], [<message note_off channel=3 note=84 velocity=113 time=24>, 48648], [<message note_off channel=9 note=81 velocity=111 time=24>, 48648], [<message note_off channel=3 note=72 velocity=113 time=4>, 48652], [<message note_off channel=2 note=65 velocity=118 time=30>, 48654], [<message note_off channel=1 note=33 velocity=123 time=38>, 48660], [<message note_off channel=2 note=57 velocity=119 time=8>, 48662], [<message note_on channel=1 note=31 velocity=125 time=10>, 48670], [<message note_off channel=9 note=43 velocity=120 time=22>, 48670], [<message note_off channel=9 note=35 velocity=124 time=0>, 48670], [<message note_on channel=9 note=35 velocity=124 time=0>, 48670], [<message note_on channel=9 note=49 velocity=124 time=0>, 48670], [<message note_on channel=0 note=43 velocity=123 time=24>, 48672], [<message note_on channel=0 note=55 velocity=120 time=0>, 48672], [<message note_on channel=0 note=67 velocity=122 time=0>, 48672], [<message note_on channel=0 note=71 velocity=123 time=0>, 48672], [<message note_on channel=2 note=55 velocity=121 time=10>, 48672], [<message note_on channel=2 note=65 velocity=116 time=0>, 48672], [<message note_on channel=2 note=67 velocity=118 time=0>, 48672], [<message note_on channel=2 note=71 velocity=119 time=0>, 48672], [<message note_on channel=3 note=71 velocity=113 time=20>, 48672], [<message note_on channel=3 note=83 velocity=113 time=0>, 48672], [<message note_on channel=12 note=71 velocity=123 time=26>, 48672], [<message note_on channel=10 note=36 velocity=122 time=174>, 48672], [<message note_on channel=10 note=48 velocity=122 time=0>, 48672], [<message note_on channel=9 note=81 velocity=116 time=4>, 48674], [<message note_off channel=10 note=48 velocity=122 time=18>, 48690], [<message note_off channel=10 note=36 velocity=122 time=0>, 48690], [<message note_off channel=9 note=81 velocity=116 time=20>, 48694], [<message note_off channel=2 note=65 velocity=116 time=28>, 48700], [<message note_off channel=12 note=71 velocity=123 time=28>, 48700], [<message note_off channel=2 note=67 velocity=118 time=2>, 48702], [<message note_off channel=2 note=71 velocity=119 time=2>, 48704], [<message note_off channel=0 note=71 velocity=123 time=36>, 48708], [<message note_off channel=0 note=55 velocity=120 time=2>, 48710], [<message note_off channel=0 note=43 velocity=123 time=0>, 48710], [<message note_off channel=0 note=65 velocity=122 time=0>, 48710], [<message note_off channel=2 note=55 velocity=121 time=6>, 48710], [<message note_off channel=0 note=67 velocity=122 time=2>, 48712], [<message note_off channel=3 note=83 velocity=113 time=46>, 48718], [<message note_off channel=3 note=71 velocity=113 time=4>, 48722], [<message note_off channel=9 note=35 velocity=124 time=36>, 48730], [<message note_off channel=1 note=31 velocity=125 time=78>, 48748], [<message note_on channel=1 note=31 velocity=123 time=18>, 48766], [<message note_on channel=9 note=35 velocity=123 time=36>, 48766], [<message note_on channel=9 note=43 velocity=123 time=0>, 48766], [<message note_on channel=0 note=43 velocity=123 time=56>, 48768], [<message note_on channel=0 note=55 velocity=123 time=0>, 48768], [<message note_on channel=0 note=65 velocity=123 time=0>, 48768], [<message note_on channel=0 note=67 velocity=123 time=0>, 48768], [<message note_on channel=0 note=71 velocity=118 time=0>, 48768], [<message note_on channel=2 note=55 velocity=117 time=58>, 48768], [<message note_on channel=2 note=65 velocity=117 time=0>, 48768], [<message note_on channel=2 note=67 velocity=119 time=0>, 48768], [<message note_on channel=2 note=71 velocity=121 time=0>, 48768], [<message note_on channel=3 note=71 velocity=113 time=46>, 48768], [<message note_on channel=3 note=83 velocity=113 time=0>, 48768], [<message note_on channel=12 note=71 velocity=123 time=68>, 48768], [<message note_on channel=10 note=36 velocity=122 time=78>, 48768], [<message note_on channel=10 note=48 velocity=121 time=0>, 48768], [<message note_on channel=9 note=81 velocity=115 time=10>, 48776], [<message note_off channel=9 note=49 velocity=124 time=2>, 48778], [<message note_off channel=9 note=35 velocity=123 time=6>, 48784], [<message note_off channel=10 note=48 velocity=121 time=16>, 48784], [<message note_off channel=12 note=71 velocity=123 time=18>, 48786], [<message note_off channel=9 note=43 velocity=123 time=2>, 48786], [<message note_off channel=0 note=67 velocity=123 time=20>, 48788], [<message note_off channel=1 note=31 velocity=123 time=22>, 48788], [<message note_off channel=3 note=83 velocity=113 time=20>, 48788], [<message note_off channel=3 note=71 velocity=113 time=0>, 48788], [<message note_off channel=10 note=36 velocity=122 time=4>, 48788], [<message note_off channel=0 note=43 velocity=123 time=2>, 48790], [<message note_off channel=0 note=65 velocity=123 time=2>, 48792], [<message note_off channel=2 note=65 velocity=117 time=24>, 48792], [<message note_off channel=0 note=71 velocity=118 time=2>, 48794], [<message note_off channel=0 note=55 velocity=123 time=2>, 48796], [<message note_off channel=2 note=67 velocity=119 time=4>, 48796], [<message note_off channel=2 note=71 velocity=121 time=2>, 48798], [<message note_off channel=9 note=81 velocity=115 time=12>, 48798], [<message note_off channel=2 note=55 velocity=117 time=2>, 48800], [<message note_on channel=1 note=31 velocity=123 time=26>, 48814], [<message note_on channel=9 note=35 velocity=124 time=16>, 48814], [<message note_on channel=9 note=43 velocity=123 time=0>, 48814], [<message note_on channel=0 note=43 velocity=113 time=20>, 48816], [<message note_on channel=0 note=55 velocity=123 time=0>, 48816], [<message note_on channel=0 note=65 velocity=121 time=0>, 48816], [<message note_on channel=0 note=67 velocity=122 time=0>, 48816], [<message note_on channel=0 note=71 velocity=115 time=0>, 48816], [<message note_on channel=2 note=55 velocity=115 time=16>, 48816], [<message note_on channel=2 note=65 velocity=115 time=0>, 48816], [<message note_on channel=2 note=67 velocity=115 time=0>, 48816], [<message note_on channel=2 note=71 velocity=116 time=0>, 48816], [<message note_on channel=3 note=71 velocity=113 time=28>, 48816], [<message note_on channel=3 note=83 velocity=113 time=0>, 48816], [<message note_on channel=12 note=71 velocity=124 time=30>, 48816], [<message note_on channel=9 note=81 velocity=112 time=8>, 48822], [<message note_off channel=9 note=43 velocity=123 time=10>, 48832], [<message note_off channel=0 note=65 velocity=121 time=20>, 48836], [<message note_off channel=12 note=71 velocity=124 time=22>, 48838], [<message note_off channel=9 note=35 velocity=124 time=6>, 48838], [<message note_off channel=0 note=67 velocity=122 time=4>, 48840], [<message note_off channel=3 note=83 velocity=113 time=26>, 48842], [<message note_off channel=9 note=81 velocity=112 time=4>, 48842], [<message note_off channel=2 note=67 velocity=115 time=32>, 48848], [<message note_off channel=2 note=65 velocity=115 time=0>, 48848], [<message note_off channel=3 note=71 velocity=113 time=6>, 48848], [<message note_off channel=0 note=71 velocity=115 time=10>, 48850], [<message note_off channel=0 note=43 velocity=113 time=12>, 48862], [<message note_on channel=1 note=36 velocity=125 time=48>, 48862], [<message note_off channel=2 note=71 velocity=116 time=14>, 48862], [<message note_on channel=9 note=35 velocity=124 time=20>, 48862], [<message note_on channel=9 note=46 velocity=123 time=0>, 48862], [<message note_off channel=0 note=55 velocity=123 time=2>, 48864], [<message note_on channel=0 note=48 velocity=122 time=0>, 48864], [<message note_on channel=0 note=60 velocity=122 time=0>, 48864], [<message note_on channel=0 note=67 velocity=123 time=0>, 48864], [<message note_on channel=0 note=72 velocity=122 time=0>, 48864], [<message note_off channel=1 note=31 velocity=123 time=2>, 48864], [<message note_on channel=2 note=48 velocity=119 time=2>, 48864], [<message note_on channel=2 note=60 velocity=121 time=0>, 48864], [<message note_on channel=2 note=64 velocity=119 time=0>, 48864], [<message note_on channel=2 note=67 velocity=121 time=0>, 48864], [<message note_on channel=2 note=72 velocity=119 time=0>, 48864], [<message note_on channel=3 note=72 velocity=113 time=16>, 48864], [<message note_on channel=3 note=84 velocity=113 time=0>, 48864], [<message note_on channel=12 note=72 velocity=123 time=26>, 48864], [<message note_on channel=10 note=36 velocity=122 time=76>, 48864], [<message note_on channel=10 note=48 velocity=122 time=0>, 48864], [<message note_on channel=9 note=81 velocity=117 time=4>, 48866], [<message note_off channel=2 note=55 velocity=115 time=8>, 48872], [<message note_off channel=10 note=48 velocity=122 time=18>, 48882], [<message note_off channel=10 note=36 velocity=122 time=6>, 48888], [<message note_off channel=0 note=60 velocity=122 time=26>, 48890], [<message note_off channel=12 note=72 velocity=123 time=26>, 48890], [<message note_off channel=9 note=81 velocity=117 time=24>, 48890], [<message note_off channel=3 note=84 velocity=113 time=36>, 48900], [<message note_off channel=0 note=67 velocity=123 time=14>, 48904], [<message note_off channel=2 note=48 velocity=119 time=38>, 48910], [<message note_off channel=2 note=60 velocity=121 time=2>, 48912], [<message note_off channel=3 note=72 velocity=113 time=12>, 48912], [<message note_off channel=0 note=72 velocity=122 time=10>, 48914], [<message note_off channel=2 note=64 velocity=119 time=2>, 48914], [<message note_off channel=2 note=67 velocity=121 time=2>, 48916], [<message note_off channel=2 note=72 velocity=119 time=6>, 48922], [<message note_off channel=1 note=36 velocity=125 time=70>, 48934], [<message note_off channel=0 note=48 velocity=122 time=22>, 48936], [<message note_off channel=9 note=46 velocity=123 time=68>, 48958], [<message note_on channel=0 note=72 velocity=123 time=24>, 48960], [<message note_off channel=0 note=72 velocity=123 time=20>, 48980], [<message note_on channel=0 note=72 velocity=121 time=28>, 49008], [<message note_off channel=9 note=35 velocity=124 time=58>, 49016], [<message note_off channel=0 note=72 velocity=121 time=40>, 49048], [<message note_on channel=0 note=70 velocity=122 time=8>, 49056], [<message note_on channel=0 note=74 velocity=119 time=0>, 49056], [<message note_off channel=0 note=74 velocity=119 time=36>, 49092], [<message note_on channel=0 note=77 velocity=117 time=12>, 49104], [<message note_off channel=0 note=77 velocity=117 time=46>, 49150], [<message note_off channel=0 note=70 velocity=122 time=2>, 49152], [<message note_on channel=0 note=69 velocity=123 time=0>, 49152], [<message note_on channel=0 note=72 velocity=121 time=0>, 49152], [<message note_off channel=0 note=72 velocity=121 time=48>, 49200], [<message note_on channel=0 note=77 velocity=121 time=0>, 49200], [<message note_off channel=0 note=69 velocity=123 time=32>, 49232], [<message note_on channel=0 note=68 velocity=118 time=16>, 49248], [<message note_on channel=0 note=71 velocity=118 time=0>, 49248], [<message note_off channel=0 note=77 velocity=121 time=2>, 49250], [<message note_off channel=0 note=71 velocity=118 time=42>, 49292], [<message note_on channel=0 note=77 velocity=118 time=4>, 49296], [<message note_off channel=0 note=68 velocity=118 time=48>, 49344], [<message note_on channel=0 note=67 velocity=122 time=0>, 49344], [<message note_on channel=0 note=70 velocity=123 time=0>, 49344], [<message note_off channel=0 note=77 velocity=118 time=4>, 49348], [<message note_off channel=0 note=67 velocity=122 time=40>, 49388], [<message note_on channel=0 note=77 velocity=120 time=4>, 49392], [<message note_off channel=0 note=70 velocity=123 time=6>, 49398], [<message note_off channel=0 note=77 velocity=120 time=12>, 49410], [<message note_on channel=1 note=37 velocity=118 time=504>, 49438], [<message note_on channel=0 note=61 velocity=123 time=30>, 49440], [<message note_on channel=0 note=65 velocity=120 time=0>, 49440], [<message note_on channel=0 note=68 velocity=122 time=0>, 49440], [<message note_on channel=0 note=73 velocity=120 time=0>, 49440], [<message note_on channel=2 note=49 velocity=113 time=518>, 49440], [<message note_on channel=2 note=56 velocity=113 time=0>, 49440], [<message note_on channel=2 note=61 velocity=113 time=0>, 49440], [<message note_off channel=2 note=49 velocity=113 time=6>, 49446], [<message note_off channel=2 note=61 velocity=113 time=6>, 49452], [<message note_off channel=2 note=56 velocity=113 time=0>, 49452], [<message note_off channel=0 note=65 velocity=120 time=14>, 49454], [<message note_off channel=0 note=68 velocity=122 time=4>, 49458], [<message note_off channel=0 note=73 velocity=120 time=4>, 49462], [<message note_off channel=1 note=37 velocity=118 time=30>, 49468], [<message note_off channel=0 note=61 velocity=123 time=12>, 49474], [<message note_on channel=1 note=37 velocity=106 time=18>, 49486], [<message note_on channel=0 note=61 velocity=123 time=14>, 49488], [<message note_on channel=0 note=65 velocity=120 time=0>, 49488], [<message note_on channel=0 note=68 velocity=122 time=0>, 49488], [<message note_on channel=0 note=73 velocity=120 time=0>, 49488], [<message note_on channel=2 note=49 velocity=113 time=36>, 49488], [<message note_on channel=2 note=56 velocity=115 time=0>, 49488], [<message note_off channel=0 note=65 velocity=120 time=14>, 49502], [<message note_off channel=2 note=56 velocity=115 time=14>, 49502], [<message note_off channel=2 note=49 velocity=113 time=2>, 49504], [<message note_off channel=0 note=68 velocity=122 time=4>, 49506], [<message note_off channel=0 note=73 velocity=120 time=4>, 49510], [<message note_off channel=0 note=61 velocity=123 time=12>, 49522], [<message note_off channel=1 note=37 velocity=106 time=42>, 49528], [<message note_on channel=1 note=36 velocity=121 time=6>, 49534], [<message note_on channel=0 note=60 velocity=123 time=14>, 49536], [<message note_on channel=0 note=64 velocity=119 time=0>, 49536], [<message note_on channel=0 note=67 velocity=119 time=0>, 49536], [<message note_on channel=0 note=72 velocity=112 time=0>, 49536], [<message note_on channel=2 note=36 velocity=114 time=32>, 49536], [<message note_on channel=2 note=43 velocity=116 time=0>, 49536], [<message note_on channel=2 note=48 velocity=118 time=0>, 49536], [<message note_off channel=2 note=36 velocity=114 time=12>, 49548], [<message note_off channel=2 note=48 velocity=118 time=2>, 49550], [<message note_off channel=2 note=43 velocity=116 time=0>, 49550], [<message note_off channel=0 note=64 velocity=119 time=16>, 49552], [<message note_off channel=0 note=72 velocity=112 time=2>, 49554], [<message note_off channel=0 note=67 velocity=119 time=0>, 49554], [<message note_off channel=0 note=60 velocity=123 time=2>, 49556], [<message note_off channel=1 note=36 velocity=121 time=36>, 49570], [<message note_on channel=1 note=35 velocity=116 time=60>, 49630], [<message note_on channel=0 note=59 velocity=117 time=76>, 49632], [<message note_on channel=0 note=63 velocity=117 time=0>, 49632], [<message note_on channel=0 note=66 velocity=117 time=0>, 49632], [<message note_on channel=0 note=71 velocity=112 time=0>, 49632], [<message note_on channel=2 note=35 velocity=103 time=82>, 49632], [<message note_on channel=2 note=42 velocity=113 time=0>, 49632], [<message note_on channel=2 note=47 velocity=112 time=0>, 49632], [<message note_off channel=2 note=35 velocity=103 time=8>, 49640], [<message note_off channel=2 note=47 velocity=112 time=2>, 49642], [<message note_off channel=2 note=42 velocity=113 time=2>, 49644], [<message note_off channel=0 note=63 velocity=117 time=14>, 49646], [<message note_off channel=0 note=59 velocity=117 time=4>, 49650], [<message note_off channel=0 note=71 velocity=112 time=2>, 49652], [<message note_off channel=1 note=35 velocity=116 time=24>, 49654], [<message note_off channel=0 note=66 velocity=117 time=4>, 49656], [<message note_on channel=1 note=35 velocity=111 time=24>, 49678], [<message note_on channel=0 note=59 velocity=117 time=24>, 49680], [<message note_on channel=0 note=63 velocity=95 time=0>, 49680], [<message note_on channel=0 note=66 velocity=109 time=0>, 49680], [<message note_on channel=0 note=71 velocity=102 time=0>, 49680], [<message note_on channel=2 note=35 velocity=108 time=36>, 49680], [<message note_on channel=2 note=42 velocity=112 time=0>, 49680], [<message note_on channel=2 note=47 velocity=100 time=0>, 49680], [<message note_off channel=2 note=47 velocity=100 time=10>, 49690], [<message note_off channel=2 note=35 velocity=108 time=0>, 49690], [<message note_off channel=2 note=42 velocity=112 time=2>, 49692], [<message note_off channel=0 note=63 velocity=95 time=24>, 49704], [<message note_off channel=0 note=71 velocity=102 time=2>, 49706], [<message note_off channel=0 note=66 velocity=109 time=0>, 49706], [<message note_off channel=1 note=35 velocity=111 time=42>, 49720], [<message note_on channel=1 note=36 velocity=118 time=6>, 49726], [<message note_off channel=0 note=59 velocity=117 time=22>, 49728], [<message note_on channel=0 note=60 velocity=122 time=0>, 49728], [<message note_on channel=0 note=64 velocity=118 time=0>, 49728], [<message note_on channel=0 note=67 velocity=113 time=0>, 49728], [<message note_on channel=0 note=72 velocity=116 time=0>, 49728], [<message note_on channel=2 note=36 velocity=118 time=36>, 49728], [<message note_on channel=2 note=43 velocity=112 time=0>, 49728], [<message note_on channel=2 note=48 velocity=113 time=0>, 49728], [<message note_off channel=2 note=43 velocity=112 time=18>, 49746], [<message note_off channel=0 note=64 velocity=118 time=20>, 49748], [<message note_off channel=2 note=48 velocity=113 time=2>, 49748], [<message note_off channel=2 note=36 velocity=118 time=0>, 49748], [<message note_off channel=0 note=67 velocity=113 time=2>, 49750], [<message note_off channel=0 note=72 velocity=116 time=2>, 49752], [<message note_off channel=0 note=60 velocity=122 time=6>, 49758], [<message note_off channel=1 note=36 velocity=118 time=48>, 49774], [<message note_on channel=1 note=37 velocity=118 time=48>, 49822], [<message note_on channel=0 note=61 velocity=119 time=66>, 49824], [<message note_on channel=0 note=65 velocity=115 time=0>, 49824], [<message note_on channel=0 note=68 velocity=120 time=0>, 49824], [<message note_on channel=0 note=73 velocity=118 time=0>, 49824], [<message note_on channel=2 note=37 velocity=115 time=76>, 49824], [<message note_on channel=2 note=44 velocity=117 time=0>, 49824], [<message note_on channel=2 note=49 velocity=112 time=0>, 49824], [<message note_off channel=2 note=44 velocity=117 time=12>, 49836], [<message note_off channel=1 note=37 velocity=118 time=18>, 49840], [<message note_off channel=2 note=49 velocity=112 time=4>, 49840], [<message note_off channel=2 note=37 velocity=115 time=0>, 49840], [<message note_off channel=0 note=65 velocity=115 time=18>, 49842], [<message note_off channel=0 note=68 velocity=120 time=2>, 49844], [<message note_off channel=0 note=61 velocity=119 time=4>, 49848], [<message note_off channel=0 note=73 velocity=118 time=2>, 49850], [<message note_on channel=1 note=37 velocity=118 time=30>, 49870], [<message note_on channel=0 note=61 velocity=117 time=22>, 49872], [<message note_on channel=0 note=65 velocity=107 time=0>, 49872], [<message note_on channel=0 note=68 velocity=120 time=0>, 49872], [<message note_on channel=0 note=73 velocity=120 time=0>, 49872], [<message note_on channel=2 note=37 velocity=115 time=32>, 49872], [<message note_on channel=2 note=44 velocity=112 time=0>, 49872], [<message note_on channel=2 note=49 velocity=104 time=0>, 49872], [<message note_off channel=0 note=65 velocity=107 time=10>, 49882], [<message note_off channel=2 note=49 velocity=104 time=16>, 49888], [<message note_off channel=2 note=44 velocity=112 time=0>, 49888], [<message note_off channel=2 note=37 velocity=115 time=0>, 49888], [<message note_off channel=0 note=73 velocity=120 time=8>, 49890], [<message note_off channel=0 note=68 velocity=120 time=2>, 49892], [<message note_off channel=1 note=37 velocity=118 time=30>, 49900], [<message note_off channel=0 note=61 velocity=117 time=14>, 49906], [<message note_on channel=1 note=36 velocity=117 time=18>, 49918], [<message note_on channel=0 note=60 velocity=118 time=14>, 49920], [<message note_on channel=0 note=64 velocity=121 time=0>, 49920], [<message note_on channel=0 note=67 velocity=117 time=0>, 49920], [<message note_on channel=0 note=72 velocity=117 time=0>, 49920], [<message note_on channel=2 note=36 velocity=111 time=32>, 49920], [<message note_on channel=2 note=43 velocity=112 time=0>, 49920], [<message note_on channel=2 note=48 velocity=111 time=0>, 49920], [<message note_off channel=0 note=67 velocity=117 time=14>, 49934], [<message note_off channel=2 note=43 velocity=112 time=14>, 49934], [<message note_off channel=0 note=64 velocity=121 time=2>, 49936], [<message note_off channel=2 note=48 velocity=111 time=2>, 49936], [<message note_off channel=0 note=72 velocity=117 time=2>, 49938], [<message note_off channel=0 note=60 velocity=118 time=0>, 49938], [<message note_off channel=2 note=36 velocity=111 time=2>, 49938], [<message note_off channel=1 note=36 velocity=117 time=30>, 49948], [<message note_on channel=1 note=36 velocity=114 time=18>, 49966], [<message note_on channel=0 note=60 velocity=112 time=30>, 49968], [<message note_on channel=0 note=67 velocity=108 time=0>, 49968], [<message note_on channel=0 note=72 velocity=105 time=0>, 49968], [<message note_on channel=2 note=36 velocity=104 time=30>, 49968], [<message note_on channel=2 note=48 velocity=100 time=0>, 49968], [<message note_off channel=0 note=72 velocity=105 time=18>, 49986], [<message note_off channel=2 note=48 velocity=100 time=18>, 49986], [<message note_off channel=0 note=67 velocity=108 time=2>, 49988], [<message note_off channel=2 note=36 velocity=104 time=4>, 49990], [<message note_off channel=0 note=60 velocity=112 time=20>, 50008], [<message note_off channel=1 note=36 velocity=114 time=48>, 50014], [<message note_on channel=1 note=35 velocity=120 time=0>, 50014], [<message note_on channel=0 note=59 velocity=120 time=8>, 50016], [<message note_on channel=0 note=63 velocity=123 time=0>, 50016], [<message note_on channel=0 note=66 velocity=113 time=0>, 50016], [<message note_on channel=0 note=71 velocity=119 time=0>, 50016], [<message note_on channel=2 note=35 velocity=115 time=26>, 50016], [<message note_on channel=2 note=42 velocity=114 time=0>, 50016], [<message note_on channel=2 note=47 velocity=115 time=0>, 50016], [<message note_off channel=2 note=42 velocity=114 time=16>, 50032], [<message note_off channel=0 note=66 velocity=113 time=20>, 50036], [<message note_off channel=2 note=47 velocity=115 time=6>, 50038], [<message note_off channel=2 note=35 velocity=115 time=18>, 50056], [<message note_off channel=0 note=63 velocity=123 time=24>, 50060], [<message note_off channel=0 note=71 velocity=119 time=6>, 50066], [<message note_off channel=1 note=35 velocity=120 time=84>, 50098], [<message note_off channel=0 note=59 velocity=120 time=34>, 50100], [<message note_on channel=1 note=36 velocity=125 time=12>, 50110], [<message note_on channel=9 note=35 velocity=124 time=1094>, 50110], [<message note_on channel=9 note=49 velocity=123 time=0>, 50110], [<message note_on channel=0 note=48 velocity=123 time=12>, 50112], [<message note_on channel=0 note=60 velocity=123 time=0>, 50112], [<message note_on channel=0 note=64 velocity=123 time=0>, 50112], [<message note_on channel=0 note=67 velocity=123 time=0>, 50112], [<message note_on channel=0 note=72 velocity=123 time=0>, 50112], [<message note_on channel=2 note=48 velocity=116 time=56>, 50112], [<message note_on channel=2 note=60 velocity=116 time=0>, 50112], [<message note_on channel=2 note=64 velocity=116 time=0>, 50112], [<message note_on channel=2 note=67 velocity=116 time=0>, 50112], [<message note_on channel=2 note=72 velocity=116 time=0>, 50112], [<message note_on channel=12 note=60 velocity=122 time=1222>, 50112], [<message note_on channel=12 note=72 velocity=124 time=0>, 50112], [<message note_on channel=10 note=36 velocity=122 time=1224>, 50112], [<message note_on channel=10 note=48 velocity=121 time=0>, 50112], [<message note_on channel=9 note=81 velocity=111 time=4>, 50114], [<message note_off channel=10 note=48 velocity=121 time=18>, 50130], [<message note_off channel=10 note=36 velocity=122 time=0>, 50130], [<message note_off channel=0 note=67 velocity=123 time=20>, 50132], [<message note_off channel=0 note=64 velocity=123 time=0>, 50132], [<message note_off channel=9 note=81 velocity=111 time=20>, 50134], [<message note_off channel=0 note=60 velocity=123 time=4>, 50136], [<message note_off channel=2 note=60 velocity=116 time=26>, 50138], [<message note_off channel=9 note=35 velocity=124 time=4>, 50138], [<message note_off channel=2 note=48 velocity=116 time=2>, 50140], [<message note_off channel=0 note=72 velocity=123 time=6>, 50142], [<message note_off channel=2 note=64 velocity=116 time=4>, 50144], [<message note_off channel=2 note=67 velocity=116 time=2>, 50146], [<message note_off channel=1 note=36 velocity=125 time=40>, 50150], [<message note_off channel=9 note=49 velocity=123 time=12>, 50150], [<message note_off channel=0 note=48 velocity=123 time=18>, 50160], [<message note_off channel=2 note=72 velocity=116 time=14>, 50160], [<message note_off channel=12 note=72 velocity=124 time=66>, 50178], [<message note_off channel=12 note=60 velocity=122 time=0>, 50178], [<message note_on channel=1 note=29 velocity=125 time=56>, 50206], [<message note_on channel=9 note=35 velocity=124 time=56>, 50206], [<message note_on channel=9 note=52 velocity=123 time=0>, 50206], [<message note_on channel=0 note=41 velocity=123 time=48>, 50208], [<message note_on channel=0 note=53 velocity=123 time=0>, 50208], [<message note_on channel=0 note=65 velocity=123 time=0>, 50208], [<message note_on channel=0 note=69 velocity=123 time=0>, 50208], [<message note_on channel=0 note=72 velocity=123 time=0>, 50208], [<message note_on channel=0 note=77 velocity=123 time=0>, 50208], [<message note_on channel=2 note=41 velocity=116 time=48>, 50208], [<message note_on channel=2 note=60 velocity=116 time=0>, 50208], [<message note_on channel=2 note=65 velocity=116 time=0>, 50208], [<message note_on channel=2 note=69 velocity=116 time=0>, 50208], [<message note_on channel=2 note=72 velocity=116 time=0>, 50208], [<message note_on channel=2 note=77 velocity=116 time=0>, 50208], [<message note_on channel=10 note=36 velocity=123 time=78>, 50208], [<message note_on channel=10 note=48 velocity=121 time=0>, 50208], [<message note_on channel=12 note=65 velocity=124 time=32>, 50210], [<message note_on channel=12 note=77 velocity=122 time=0>, 50210], [<message note_on channel=9 note=81 velocity=117 time=6>, 50212], [<message note_off channel=10 note=48 velocity=121 time=18>, 50226], [<message note_off channel=10 note=36 velocity=123 time=0>, 50226], [<message note_off channel=0 note=69 velocity=123 time=22>, 50230], [<message note_off channel=0 note=53 velocity=123 time=2>, 50232], [<message note_off channel=2 note=60 velocity=116 time=24>, 50232], [<message note_off channel=9 note=81 velocity=117 time=22>, 50234], [<message note_off channel=0 note=77 velocity=123 time=4>, 50236], [<message note_off channel=0 note=72 velocity=123 time=0>, 50236], [<message note_off channel=0 note=65 velocity=123 time=2>, 50238], [<message note_off channel=2 note=65 velocity=116 time=6>, 50238], [<message note_off channel=2 note=41 velocity=116 time=0>, 50238], [<message note_off channel=2 note=72 velocity=116 time=2>, 50240], [<message note_off channel=2 note=69 velocity=116 time=0>, 50240], [<message note_off channel=0 note=41 velocity=123 time=4>, 50242], [<message note_off channel=1 note=29 velocity=125 time=42>, 50248], [<message note_off channel=9 note=35 velocity=124 time=16>, 50250], [<message note_off channel=9 note=52 velocity=123 time=2>, 50252], [<message note_off channel=2 note=77 velocity=116 time=16>, 50256], [<message note_off channel=12 note=77 velocity=122 time=62>, 50272], [<message note_off channel=12 note=65 velocity=124 time=8>, 50280], [<message note_on channel=1 note=36 velocity=125 time=54>, 50302], [<message note_on channel=9 note=35 velocity=124 time=50>, 50302], [<message note_on channel=9 note=49 velocity=122 time=0>, 50302], [<message note_on channel=0 note=36 velocity=123 time=62>, 50304], [<message note_on channel=0 note=48 velocity=123 time=0>, 50304], [<message note_on channel=0 note=64 velocity=123 time=0>, 50304], [<message note_on channel=0 note=67 velocity=123 time=0>, 50304], [<message note_on channel=0 note=72 velocity=123 time=0>, 50304], [<message note_on channel=2 note=48 velocity=117 time=48>, 50304], [<message note_on channel=2 note=60 velocity=119 time=0>, 50304], [<message note_on channel=2 note=64 velocity=118 time=0>, 50304], [<message note_on channel=2 note=67 velocity=120 time=0>, 50304], [<message note_on channel=10 note=36 velocity=122 time=78>, 50304], [<message note_on channel=10 note=48 velocity=121 time=0>, 50304], [<message note_on channel=12 note=60 velocity=120 time=28>, 50308], [<message note_on channel=12 note=72 velocity=121 time=4>, 50312], [<message note_on channel=9 note=81 velocity=117 time=10>, 50312], [<message note_off channel=0 note=64 velocity=123 time=14>, 50318], [<message note_off channel=0 note=67 velocity=123 time=4>, 50322], [<message note_off channel=10 note=48 velocity=121 time=18>, 50322], [<message note_off channel=10 note=36 velocity=122 time=0>, 50322], [<message note_off channel=2 note=60 velocity=119 time=20>, 50324], [<message note_off channel=0 note=48 velocity=123 time=4>, 50326], [<message note_off channel=9 note=35 velocity=124 time=18>, 50330], [<message note_off channel=0 note=72 velocity=123 time=6>, 50332], [<message note_off channel=2 note=64 velocity=118 time=8>, 50332], [<message note_off channel=9 note=81 velocity=117 time=2>, 50332], [<message note_off channel=2 note=67 velocity=120 time=4>, 50336], [<message note_off channel=0 note=36 velocity=123 time=6>, 50338], [<message note_off channel=2 note=48 velocity=117 time=4>, 50340], [<message note_off channel=9 note=49 velocity=122 time=16>, 50348], [<message note_off channel=1 note=36 velocity=125 time=50>, 50352], [<message note_off channel=12 note=72 velocity=121 time=52>, 50364], [<message note_off channel=12 note=60 velocity=120 time=4>, 50368], [<message note_on channel=1 note=29 velocity=125 time=46>, 50398], [<message note_on channel=1 note=41 velocity=125 time=0>, 50398], [<message note_on channel=9 note=35 velocity=124 time=50>, 50398], [<message note_on channel=9 note=57 velocity=123 time=0>, 50398], [<message note_on channel=0 note=29 velocity=123 time=62>, 50400], [<message note_on channel=0 note=41 velocity=123 time=0>, 50400], [<message note_on channel=0 note=65 velocity=123 time=0>, 50400], [<message note_on channel=0 note=69 velocity=123 time=0>, 50400], [<message note_on channel=0 note=72 velocity=123 time=0>, 50400], [<message note_on channel=0 note=77 velocity=123 time=0>, 50400], [<message note_on channel=2 note=41 velocity=114 time=60>, 50400], [<message note_on channel=2 note=65 velocity=119 time=0>, 50400], [<message note_on channel=2 note=69 velocity=121 time=0>, 50400], [<message note_on channel=2 note=72 velocity=119 time=0>, 50400], [<message note_on channel=2 note=77 velocity=122 time=0>, 50400], [<message note_on channel=10 note=36 velocity=122 time=78>, 50400], [<message note_on channel=10 note=48 velocity=122 time=0>, 50400], [<message note_on channel=12 note=65 velocity=124 time=40>, 50408], [<message note_on channel=12 note=77 velocity=123 time=0>, 50408], [<message note_on channel=9 note=81 velocity=119 time=10>, 50408], [<message note_off channel=10 note=48 velocity=122 time=20>, 50420], [<message note_off channel=10 note=36 velocity=122 time=0>, 50420], [<message note_off channel=9 note=81 velocity=119 time=24>, 50432], [<message note_off channel=2 note=65 velocity=119 time=90>, 50490], [<message note_off channel=9 note=35 velocity=124 time=62>, 50494], [<message note_off channel=2 note=77 velocity=122 time=6>, 50496], [<message note_off channel=2 note=72 velocity=119 time=2>, 50498], [<message note_off channel=2 note=69 velocity=121 time=0>, 50498], [<message note_off channel=2 note=41 velocity=114 time=0>, 50498], [<message note_off channel=0 note=77 velocity=123 time=104>, 50504], [<message note_off channel=0 note=72 velocity=123 time=2>, 50506], [<message note_off channel=0 note=69 velocity=123 time=4>, 50510], [<message note_off channel=0 note=65 velocity=123 time=2>, 50512], [<message note_off channel=9 note=57 velocity=123 time=22>, 50516], [<message note_off channel=1 note=41 velocity=125 time=128>, 50526], [<message note_off channel=0 note=29 velocity=123 time=24>, 50536], [<message note_off channel=1 note=29 velocity=125 time=10>, 50536], [<message note_off channel=12 note=65 velocity=124 time=130>, 50538], [<message note_off channel=0 note=41 velocity=123 time=6>, 50542], [<message note_on channel=0 note=60 velocity=117 time=2>, 50544], [<message note_on channel=0 note=64 velocity=117 time=0>, 50544], [<message note_on channel=0 note=67 velocity=117 time=0>, 50544], [<message note_on channel=6 note=60 velocity=121 time=3810>, 50544], [<message note_on channel=6 note=64 velocity=119 time=0>, 50544], [<message note_on channel=6 note=67 velocity=121 time=0>, 50544], [<message note_off channel=12 note=77 velocity=123 time=6>, 50544], [<message note_on channel=10 note=36 velocity=114 time=124>, 50544], [<message note_on channel=10 note=48 velocity=111 time=0>, 50544], [<message note_on channel=9 note=81 velocity=104 time=30>, 50546], [<message note_off channel=0 note=64 velocity=117 time=14>, 50558], [<message note_off channel=0 note=60 velocity=117 time=0>, 50558], [<message note_off channel=10 note=48 velocity=111 time=14>, 50558], [<message note_off channel=0 note=67 velocity=117 time=4>, 50562], [<message note_off channel=10 note=36 velocity=114 time=4>, 50562], [<message note_off channel=6 note=67 velocity=121 time=20>, 50564], [<message note_off channel=6 note=60 velocity=121 time=0>, 50564], [<message note_off channel=6 note=64 velocity=119 time=2>, 50566], [<message note_off channel=9 note=81 velocity=104 time=20>, 50566], [<message note_on channel=9 note=81 velocity=108 time=24>, 50590], [<message note_on channel=0 note=60 velocity=118 time=30>, 50592], [<message note_on channel=0 note=64 velocity=118 time=0>, 50592], [<message note_on channel=0 note=67 velocity=118 time=0>, 50592], [<message note_on channel=6 note=60 velocity=120 time=26>, 50592], [<message note_on channel=6 note=64 velocity=119 time=0>, 50592], [<message note_on channel=6 note=67 velocity=120 time=0>, 50592], [<message note_on channel=10 note=36 velocity=116 time=30>, 50592], [<message note_on channel=10 note=48 velocity=112 time=0>, 50592], [<message note_off channel=0 note=60 velocity=118 time=10>, 50602], [<message note_off channel=10 note=48 velocity=112 time=14>, 50606], [<message note_off channel=10 note=36 velocity=116 time=0>, 50606], [<message note_off channel=6 note=64 velocity=119 time=18>, 50610], [<message note_off channel=6 note=60 velocity=120 time=0>, 50610], [<message note_off channel=9 note=81 velocity=108 time=20>, 50610], [<message note_off channel=6 note=67 velocity=120 time=4>, 50614], [<message note_off channel=0 note=67 velocity=118 time=30>, 50632], [<message note_off channel=0 note=64 velocity=118 time=8>, 50640], [<message note_on channel=0 note=60 velocity=116 time=0>, 50640], [<message note_on channel=0 note=65 velocity=116 time=0>, 50640], [<message note_on channel=0 note=69 velocity=116 time=0>, 50640], [<message note_on channel=6 note=60 velocity=119 time=26>, 50640], [<message note_on channel=6 note=65 velocity=118 time=0>, 50640], [<message note_on channel=6 note=69 velocity=119 time=0>, 50640], [<message note_on channel=9 note=81 velocity=113 time=30>, 50640], [<message note_on channel=10 note=36 velocity=122 time=34>, 50640], [<message note_on channel=10 note=48 velocity=118 time=0>, 50640], [<message note_off channel=6 note=65 velocity=118 time=14>, 50654], [<message note_off channel=10 note=48 velocity=118 time=14>, 50654], [<message note_off channel=6 note=69 velocity=119 time=2>, 50656], [<message note_off channel=6 note=60 velocity=119 time=0>, 50656], [<message note_off channel=0 note=60 velocity=116 time=18>, 50658], [<message note_off channel=9 note=81 velocity=113 time=18>, 50658], [<message note_off channel=10 note=36 velocity=122 time=4>, 50658], [<message note_on channel=9 note=81 velocity=116 time=28>, 50686], [<message note_off channel=0 note=65 velocity=116 time=30>, 50688], [<message note_on channel=0 note=60 velocity=117 time=0>, 50688], [<message note_on channel=0 note=67 velocity=117 time=0>, 50688], [<message note_on channel=0 note=70 velocity=117 time=0>, 50688], [<message note_on channel=6 note=60 velocity=117 time=32>, 50688], [<message note_on channel=6 note=67 velocity=119 time=0>, 50688], [<message note_on channel=6 note=70 velocity=120 time=0>, 50688], [<message note_on channel=10 note=36 velocity=120 time=30>, 50688], [<message note_on channel=10 note=48 velocity=117 time=0>, 50688], [<message note_off channel=0 note=69 velocity=116 time=10>, 50698], [<message note_off channel=0 note=70 velocity=117 time=4>, 50702], [<message note_off channel=6 note=67 velocity=119 time=14>, 50702], [<message note_off channel=6 note=60 velocity=117 time=2>, 50704], [<message note_off channel=9 note=81 velocity=116 time=20>, 50706], [<message note_off channel=10 note=48 velocity=117 time=18>, 50706], [<message note_off channel=10 note=36 velocity=120 time=0>, 50706], [<message note_off channel=6 note=70 velocity=120 time=8>, 50712], [<message note_off channel=0 note=60 velocity=117 time=28>, 50730], [<message note_on channel=9 note=81 velocity=118 time=26>, 50732], [<message note_off channel=0 note=67 velocity=117 time=6>, 50736], [<message note_on channel=0 note=65 velocity=118 time=0>, 50736], [<message note_on channel=0 note=69 velocity=118 time=0>, 50736], [<message note_on channel=6 note=60 velocity=119 time=24>, 50736], [<message note_on channel=6 note=65 velocity=120 time=0>, 50736], [<message note_on channel=6 note=69 velocity=119 time=0>, 50736], [<message note_on channel=10 note=36 velocity=122 time=30>, 50736], [<message note_on channel=10 note=48 velocity=119 time=0>, 50736], [<message note_off channel=6 note=69 velocity=119 time=18>, 50754], [<message note_off channel=6 note=65 velocity=120 time=0>, 50754], [<message note_off channel=9 note=81 velocity=118 time=22>, 50754], [<message note_off channel=10 note=48 velocity=119 time=18>, 50754], [<message note_off channel=10 note=36 velocity=122 time=0>, 50754], [<message note_off channel=6 note=60 velocity=119 time=2>, 50756], [<message note_off channel=0 note=65 velocity=118 time=48>, 50784], [<message note_on channel=0 note=64 velocity=123 time=0>, 50784], [<message note_on channel=0 note=67 velocity=123 time=0>, 50784], [<message note_on channel=6 note=60 velocity=121 time=28>, 50784], [<message note_on channel=6 note=64 velocity=121 time=0>, 50784], [<message note_on channel=6 note=67 velocity=122 time=0>, 50784], [<message note_on channel=9 note=81 velocity=120 time=30>, 50784], [<message note_on channel=10 note=36 velocity=120 time=30>, 50784], [<message note_on channel=10 note=48 velocity=121 time=0>, 50784], [<message note_off channel=0 note=67 velocity=123 time=8>, 50792], [<message note_off channel=0 note=69 velocity=118 time=8>, 50800], [<message note_off channel=10 note=48 velocity=121 time=18>, 50802], [<message note_off channel=10 note=36 velocity=120 time=2>, 50804], [<message note_off channel=9 note=81 velocity=120 time=24>, 50808], [<message note_off channel=6 note=67 velocity=122 time=26>, 50810], [<message note_off channel=6 note=64 velocity=121 time=0>, 50810], [<message note_off channel=6 note=60 velocity=121 time=2>, 50812], [<message note_on channel=1 note=29 velocity=125 time=294>, 50830], [<message note_on channel=1 note=41 velocity=125 time=0>, 50830], [<message note_on channel=9 note=35 velocity=122 time=22>, 50830], [<message note_on channel=9 note=49 velocity=123 time=0>, 50830], [<message note_off channel=0 note=64 velocity=123 time=32>, 50832], [<message note_on channel=0 note=41 velocity=123 time=0>, 50832], [<message note_on channel=0 note=53 velocity=123 time=0>, 50832], [<message note_on channel=0 note=65 velocity=123 time=0>, 50832], [<message note_on channel=0 note=69 velocity=123 time=0>, 50832], [<message note_on channel=0 note=72 velocity=123 time=0>, 50832], [<message note_on channel=0 note=77 velocity=123 time=0>, 50832], [<message note_on channel=2 note=29 velocity=118 time=334>, 50832], [<message note_on channel=2 note=41 velocity=123 time=0>, 50832], [<message note_on channel=2 note=65 velocity=119 time=0>, 50832], [<message note_on channel=2 note=72 velocity=119 time=0>, 50832], [<message note_on channel=2 note=77 velocity=118 time=0>, 50832], [<message note_on channel=12 note=65 velocity=123 time=294>, 50838], [<message note_on channel=12 note=77 velocity=120 time=0>, 50838], [<message note_off channel=0 note=65 velocity=123 time=16>, 50848], [<message note_off channel=9 note=49 velocity=123 time=18>, 50848], [<message note_off channel=9 note=35 velocity=122 time=2>, 50850], [<message note_off channel=0 note=69 velocity=123 time=4>, 50852], [<message note_off channel=2 note=41 velocity=123 time=22>, 50854], [<message note_off channel=0 note=77 velocity=123 time=4>, 50856], [<message note_off channel=0 note=72 velocity=123 time=0>, 50856], [<message note_off channel=1 note=41 velocity=125 time=26>, 50856], [<message note_off channel=1 note=29 velocity=125 time=0>, 50856], [<message note_off channel=2 note=65 velocity=119 time=4>, 50858], [<message note_off channel=2 note=29 velocity=118 time=2>, 50860], [<message note_off channel=0 note=53 velocity=123 time=6>, 50862], [<message note_off channel=0 note=41 velocity=123 time=2>, 50864], [<message note_off channel=2 note=77 velocity=118 time=4>, 50864], [<message note_off channel=2 note=72 velocity=119 time=0>, 50864], [<message note_off channel=12 note=77 velocity=120 time=26>, 50864], [<message note_off channel=12 note=65 velocity=123 time=2>, 50866], [<message note_on channel=1 note=29 velocity=124 time=22>, 50878], [<message note_on channel=1 note=41 velocity=125 time=0>, 50878], [<message note_on channel=9 note=35 velocity=124 time=28>, 50878], [<message note_on channel=9 note=57 velocity=122 time=0>, 50878], [<message note_on channel=0 note=41 velocity=120 time=16>, 50880], [<message note_on channel=0 note=53 velocity=123 time=0>, 50880], [<message note_on channel=0 note=65 velocity=123 time=0>, 50880], [<message note_on channel=0 note=69 velocity=123 time=0>, 50880], [<message note_on channel=0 note=72 velocity=123 time=0>, 50880], [<message note_on channel=0 note=77 velocity=123 time=0>, 50880], [<message note_on channel=2 note=29 velocity=116 time=16>, 50880], [<message note_on channel=2 note=41 velocity=116 time=0>, 50880], [<message note_on channel=2 note=65 velocity=119 time=0>, 50880], [<message note_on channel=2 note=72 velocity=119 time=0>, 50880], [<message note_on channel=2 note=77 velocity=117 time=0>, 50880], [<message note_on channel=12 note=77 velocity=120 time=20>, 50886], [<message note_on channel=12 note=65 velocity=121 time=2>, 50888], [<message note_off channel=0 note=65 velocity=123 time=18>, 50898], [<message note_off channel=0 note=69 velocity=123 time=2>, 50900], [<message note_off channel=9 note=57 velocity=122 time=22>, 50900], [<message note_off channel=9 note=35 velocity=124 time=0>, 50900], [<message note_off channel=0 note=77 velocity=123 time=2>, 50902], [<message note_off channel=1 note=41 velocity=125 time=24>, 50902], [<message note_off channel=0 note=72 velocity=123 time=2>, 50904], [<message note_off channel=1 note=29 velocity=124 time=2>, 50904], [<message note_off channel=0 note=41 velocity=120 time=4>, 50908], [<message note_off channel=2 note=65 velocity=119 time=28>, 50908], [<message note_off channel=0 note=53 velocity=123 time=2>, 50910], [<message note_off channel=2 note=77 velocity=117 time=2>, 50910], [<message note_off channel=2 note=41 velocity=116 time=2>, 50912], [<message note_off channel=2 note=29 velocity=116 time=0>, 50912], [<message note_off channel=2 note=72 velocity=119 time=2>, 50914], [<message note_off channel=12 note=65 velocity=121 time=26>, 50914], [<message note_off channel=12 note=77 velocity=120 time=0>, 50914], [<message note_on channel=1 note=29 velocity=125 time=22>, 50926], [<message note_on channel=1 note=41 velocity=125 time=0>, 50926], [<message note_on channel=9 note=35 velocity=124 time=26>, 50926], [<message note_on channel=9 note=49 velocity=123 time=0>, 50926], [<message note_on channel=0 note=41 velocity=123 time=18>, 50928], [<message note_on channel=0 note=53 velocity=123 time=0>, 50928], [<message note_on channel=0 note=65 velocity=123 time=0>, 50928], [<message note_on channel=0 note=69 velocity=123 time=0>, 50928], [<message note_on channel=0 note=72 velocity=123 time=0>, 50928], [<message note_on channel=0 note=77 velocity=123 time=0>, 50928], [<message note_on channel=2 note=29 velocity=113 time=14>, 50928], [<message note_on channel=2 note=41 velocity=122 time=0>, 50928], [<message note_on channel=2 note=65 velocity=123 time=0>, 50928], [<message note_on channel=2 note=72 velocity=116 time=0>, 50928], [<message note_on channel=2 note=77 velocity=119 time=0>, 50928], [<message note_on channel=12 note=77 velocity=123 time=22>, 50936], [<message note_on channel=12 note=65 velocity=123 time=6>, 50942], [<message note_off channel=0 note=77 velocity=123 time=70>, 50998], [<message note_off channel=0 note=72 velocity=123 time=2>, 51000], [<message note_off channel=0 note=69 velocity=123 time=6>, 51006], [<message note_off channel=0 note=65 velocity=123 time=0>, 51006], [<message note_off channel=0 note=53 velocity=123 time=0>, 51006], [<message note_off channel=0 note=41 velocity=123 time=14>, 51020], [<message note_off channel=9 note=49 velocity=123 time=98>, 51024], [<message note_off channel=9 note=35 velocity=124 time=0>, 51024], [<message note_off channel=2 note=77 velocity=119 time=104>, 51032], [<message note_off channel=2 note=72 velocity=116 time=4>, 51036], [<message note_off channel=2 note=65 velocity=123 time=0>, 51036], [<message note_off channel=1 note=41 velocity=125 time=116>, 51042], [<message note_off channel=12 note=65 velocity=123 time=104>, 51046], [<message note_off channel=12 note=77 velocity=123 time=0>, 51046], [<message note_off channel=2 note=41 velocity=122 time=28>, 51064], [<message note_off channel=2 note=29 velocity=113 time=0>, 51064], [<message note_on channel=1 note=36 velocity=125 time=28>, 51070], [<message note_on channel=9 note=35 velocity=124 time=46>, 51070], [<message note_on channel=9 note=43 velocity=124 time=0>, 51070], [<message note_on channel=0 note=36 velocity=123 time=52>, 51072], [<message note_on channel=0 note=48 velocity=123 time=0>, 51072], [<message note_on channel=0 note=60 velocity=123 time=0>, 51072], [<message note_on channel=0 note=64 velocity=123 time=0>, 51072], [<message note_on channel=0 note=67 velocity=123 time=0>, 51072], [<message note_on channel=0 note=72 velocity=123 time=0>, 51072], [<message note_on channel=2 note=36 velocity=120 time=8>, 51072], [<message note_on channel=2 note=60 velocity=119 time=0>, 51072], [<message note_on channel=2 note=72 velocity=120 time=0>, 51072], [<message note_on channel=12 note=60 velocity=121 time=26>, 51072], [<message note_on channel=10 note=36 velocity=123 time=268>, 51072], [<message note_on channel=10 note=48 velocity=121 time=0>, 51072], [<message note_off channel=1 note=29 velocity=125 time=4>, 51074], [<message note_on channel=9 note=81 velocity=122 time=6>, 51076], [<message note_on channel=12 note=72 velocity=123 time=6>, 51078], [<message note_off channel=2 note=60 velocity=119 time=18>, 51090], [<message note_off channel=10 note=48 velocity=121 time=18>, 51090], [<message note_off channel=10 note=36 velocity=123 time=0>, 51090], [<message note_off channel=0 note=60 velocity=123 time=20>, 51092], [<message note_off channel=0 note=64 velocity=123 time=4>, 51096], [<message note_off channel=0 note=67 velocity=123 time=4>, 51100], [<message note_off channel=9 note=81 velocity=122 time=26>, 51102], [<message note_off channel=0 note=48 velocity=123 time=4>, 51104], [<message note_off channel=0 note=72 velocity=123 time=4>, 51108], [<message note_off channel=2 note=72 velocity=120 time=20>, 51110], [<message note_off channel=0 note=36 velocity=123 time=4>, 51112], [<message note_off channel=9 note=35 velocity=124 time=10>, 51112], [<message note_off channel=9 note=43 velocity=124 time=4>, 51116], [<message note_off channel=1 note=36 velocity=125 time=44>, 51118], [<message note_off channel=2 note=36 velocity=120 time=12>, 51122], [<message note_off channel=12 note=72 velocity=123 time=54>, 51132], [<message note_off channel=12 note=60 velocity=121 time=8>, 51140], [<message note_on channel=1 note=29 velocity=125 time=48>, 51166], [<message note_on channel=1 note=41 velocity=125 time=0>, 51166], [<message note_on channel=9 note=35 velocity=124 time=50>, 51166], [<message note_on channel=9 note=43 velocity=124 time=0>, 51166], [<message note_on channel=0 note=29 velocity=123 time=56>, 51168], [<message note_on channel=0 note=41 velocity=123 time=0>, 51168], [<message note_on channel=0 note=65 velocity=123 time=0>, 51168], [<message note_on channel=0 note=69 velocity=123 time=0>, 51168], [<message note_on channel=0 note=72 velocity=123 time=0>, 51168], [<message note_on channel=0 note=77 velocity=123 time=0>, 51168], [<message note_on channel=2 note=29 velocity=119 time=46>, 51168], [<message note_on channel=2 note=41 velocity=120 time=0>, 51168], [<message note_on channel=2 note=65 velocity=120 time=0>, 51168], [<message note_on channel=2 note=69 velocity=120 time=0>, 51168], [<message note_on channel=2 note=72 velocity=118 time=0>, 51168], [<message note_on channel=2 note=77 velocity=122 time=0>, 51168], [<message note_on channel=10 note=36 velocity=122 time=78>, 51168], [<message note_on channel=10 note=48 velocity=122 time=0>, 51168], [<message note_on channel=9 note=81 velocity=118 time=8>, 51174], [<message note_on channel=12 note=65 velocity=124 time=38>, 51178], [<message note_on channel=12 note=77 velocity=123 time=0>, 51178], [<message note_off channel=0 note=41 velocity=123 time=16>, 51184], [<message note_off channel=10 note=48 velocity=122 time=18>, 51186], [<message note_off channel=10 note=36 velocity=122 time=0>, 51186], [<message note_off channel=0 note=29 velocity=123 time=8>, 51192], [<message note_off channel=0 note=65 velocity=123 time=2>, 51194], [<message note_off channel=0 note=77 velocity=123 time=2>, 51196], [<message note_off channel=0 note=72 velocity=123 time=0>, 51196], [<message note_off channel=2 note=65 velocity=120 time=30>, 51198], [<message note_off channel=9 note=81 velocity=118 time=24>, 51198], [<message note_off channel=0 note=69 velocity=123 time=4>, 51200], [<message note_off channel=2 note=77 velocity=122 time=4>, 51202], [<message note_off channel=9 note=35 velocity=124 time=4>, 51202], [<message note_off channel=2 note=72 velocity=118 time=2>, 51204], [<message note_off channel=2 note=69 velocity=120 time=0>, 51204], [<message note_off channel=9 note=43 velocity=124 time=6>, 51208], [<message note_off channel=2 note=41 velocity=120 time=6>, 51210], [<message note_off channel=2 note=29 velocity=119 time=0>, 51210], [<message note_off channel=1 note=29 velocity=125 time=48>, 51214], [<message note_off channel=1 note=41 velocity=125 time=12>, 51226], [<message note_off channel=12 note=77 velocity=123 time=50>, 51228], [<message note_off channel=12 note=65 velocity=124 time=8>, 51236], [<message note_on channel=1 note=36 velocity=125 time=36>, 51262], [<message note_on channel=9 note=35 velocity=124 time=54>, 51262], [<message note_on channel=9 note=43 velocity=124 time=0>, 51262], [<message note_on channel=0 note=36 velocity=123 time=64>, 51264], [<message note_on channel=0 note=48 velocity=123 time=0>, 51264], [<message note_on channel=0 note=60 velocity=123 time=0>, 51264], [<message note_on channel=0 note=64 velocity=123 time=0>, 51264], [<message note_on channel=0 note=67 velocity=123 time=0>, 51264], [<message note_on channel=0 note=72 velocity=123 time=0>, 51264], [<message note_on channel=2 note=36 velocity=118 time=54>, 51264], [<message note_on channel=2 note=60 velocity=121 time=0>, 51264], [<message note_on channel=2 note=64 velocity=119 time=0>, 51264], [<message note_on channel=2 note=67 velocity=122 time=0>, 51264], [<message note_on channel=2 note=72 velocity=121 time=0>, 51264], [<message note_on channel=10 note=36 velocity=122 time=78>, 51264], [<message note_on channel=10 note=48 velocity=121 time=0>, 51264], [<message note_on channel=12 note=60 velocity=122 time=32>, 51268], [<message note_on channel=12 note=72 velocity=124 time=0>, 51268], [<message note_on channel=9 note=81 velocity=116 time=6>, 51268], [<message note_off channel=0 note=64 velocity=123 time=14>, 51278], [<message note_off channel=0 note=60 velocity=123 time=0>, 51278], [<message note_off channel=0 note=67 velocity=123 time=4>, 51282], [<message note_off channel=10 note=36 velocity=122 time=18>, 51282], [<message note_off channel=10 note=48 velocity=121 time=2>, 51284], [<message note_off channel=0 note=48 velocity=123 time=4>, 51286], [<message note_off channel=2 note=60 velocity=121 time=22>, 51286], [<message note_off channel=0 note=36 velocity=123 time=4>, 51290], [<message note_off channel=2 note=64 velocity=119 time=4>, 51290], [<message note_off channel=2 note=67 velocity=122 time=2>, 51292], [<message note_off channel=0 note=72 velocity=123 time=4>, 51294], [<message note_off channel=9 note=81 velocity=116 time=26>, 51294], [<message note_off channel=2 note=72 velocity=121 time=6>, 51298], [<message note_off channel=9 note=43 velocity=124 time=6>, 51300], [<message note_off channel=9 note=35 velocity=124 time=2>, 51302], [<message note_off channel=1 note=36 velocity=125 time=44>, 51306], [<message note_off channel=2 note=36 velocity=118 time=18>, 51316], [<message note_off channel=12 note=72 velocity=124 time=54>, 51322], [<message note_off channel=12 note=60 velocity=122 time=8>, 51330], [<message note_on channel=1 note=29 velocity=125 time=52>, 51358], [<message note_on channel=1 note=41 velocity=125 time=0>, 51358], [<message note_on channel=9 note=35 velocity=124 time=56>, 51358], [<message note_on channel=9 note=49 velocity=123 time=0>, 51358], [<message note_on channel=0 note=29 velocity=123 time=66>, 51360], [<message note_on channel=0 note=41 velocity=123 time=0>, 51360], [<message note_on channel=0 note=65 velocity=123 time=0>, 51360], [<message note_on channel=0 note=69 velocity=123 time=0>, 51360], [<message note_on channel=0 note=72 velocity=123 time=0>, 51360], [<message note_on channel=0 note=77 velocity=123 time=0>, 51360], [<message note_on channel=2 note=29 velocity=117 time=44>, 51360], [<message note_on channel=2 note=41 velocity=123 time=0>, 51360], [<message note_on channel=2 note=65 velocity=119 time=0>, 51360], [<message note_on channel=2 note=69 velocity=121 time=0>, 51360], [<message note_on channel=2 note=72 velocity=122 time=0>, 51360], [<message note_on channel=2 note=77 velocity=123 time=0>, 51360], [<message note_on channel=10 note=36 velocity=121 time=76>, 51360], [<message note_on channel=10 note=48 velocity=120 time=0>, 51360], [<message note_on channel=12 note=65 velocity=123 time=36>, 51366], [<message note_on channel=12 note=77 velocity=123 time=0>, 51366], [<message note_on channel=9 note=81 velocity=118 time=8>, 51366], [<message note_off channel=10 note=48 velocity=120 time=18>, 51378], [<message note_off channel=10 note=36 velocity=121 time=4>, 51382], [<message note_off channel=9 note=81 velocity=118 time=24>, 51390], [<message note_off channel=0 note=77 velocity=123 time=88>, 51448], [<message note_off channel=0 note=72 velocity=123 time=6>, 51454], [<message note_off channel=0 note=69 velocity=123 time=6>, 51460], [<message note_off channel=0 note=65 velocity=123 time=2>, 51462], [<message note_off channel=12 note=77 velocity=123 time=112>, 51478], [<message note_off channel=0 note=41 velocity=123 time=18>, 51480], [<message note_off channel=0 note=29 velocity=123 time=2>, 51482], [<message note_off channel=12 note=65 velocity=123 time=4>, 51482], [<message note_off channel=2 note=72 velocity=122 time=126>, 51486], [<message note_off channel=2 note=65 velocity=119 time=0>, 51486], [<message note_off channel=2 note=77 velocity=123 time=2>, 51488], [<message note_off channel=2 note=69 velocity=121 time=0>, 51488], [<message note_off channel=1 note=41 velocity=125 time=132>, 51490], [<message note_off channel=1 note=29 velocity=125 time=2>, 51492], [<message note_off channel=2 note=41 velocity=123 time=4>, 51492], [<message note_off channel=2 note=29 velocity=117 time=0>, 51492], [<message note_on channel=9 note=81 velocity=100 time=106>, 51496], [<message note_on channel=0 note=60 velocity=113 time=22>, 51504], [<message note_on channel=0 note=64 velocity=113 time=0>, 51504], [<message note_on channel=0 note=67 velocity=113 time=0>, 51504], [<message note_on channel=6 note=60 velocity=116 time=692>, 51504], [<message note_on channel=6 note=64 velocity=115 time=0>, 51504], [<message note_on channel=6 note=67 velocity=117 time=0>, 51504], [<message note_on channel=10 note=36 velocity=111 time=122>, 51504], [<message note_on channel=10 note=48 velocity=105 time=0>, 51504], [<message note_off channel=9 note=81 velocity=100 time=22>, 51518], [<message note_off channel=10 note=36 velocity=111 time=14>, 51518], [<message note_off channel=10 note=48 velocity=105 time=4>, 51522], [<message note_off channel=0 note=60 velocity=113 time=20>, 51524], [<message note_off channel=0 note=64 velocity=113 time=2>, 51526], [<message note_off channel=6 note=60 velocity=116 time=22>, 51526], [<message note_off channel=6 note=67 velocity=117 time=2>, 51528], [<message note_off channel=6 note=64 velocity=115 time=0>, 51528], [<message note_off channel=0 note=67 velocity=113 time=8>, 51534], [<message note_on channel=9 note=81 velocity=107 time=30>, 51548], [<message note_on channel=0 note=64 velocity=113 time=18>, 51552], [<message note_on channel=0 note=67 velocity=113 time=0>, 51552], [<message note_on channel=6 note=60 velocity=115 time=24>, 51552], [<message note_on channel=6 note=64 velocity=113 time=0>, 51552], [<message note_on channel=6 note=67 velocity=116 time=0>, 51552], [<message note_on channel=10 note=36 velocity=113 time=30>, 51552], [<message note_on channel=10 note=48 velocity=110 time=0>, 51552], [<message note_off channel=9 note=49 velocity=123 time=12>, 51560], [<message note_off channel=9 note=81 velocity=107 time=8>, 51568], [<message note_off channel=9 note=35 velocity=124 time=0>, 51568], [<message note_off channel=10 note=48 velocity=110 time=16>, 51568], [<message note_off channel=10 note=36 velocity=113 time=2>, 51570], [<message note_off channel=6 note=64 velocity=113 time=22>, 51574], [<message note_off channel=6 note=60 velocity=115 time=4>, 51578], [<message note_off channel=0 note=64 velocity=113 time=30>, 51582], [<message note_off channel=6 note=67 velocity=116 time=10>, 51588], [<message note_off channel=0 note=67 velocity=113 time=12>, 51594], [<message note_on channel=9 note=81 velocity=114 time=26>, 51594], [<message note_on channel=0 note=65 velocity=113 time=6>, 51600], [<message note_on channel=0 note=69 velocity=113 time=0>, 51600], [<message note_on channel=6 note=60 velocity=119 time=12>, 51600], [<message note_on channel=6 note=65 velocity=117 time=0>, 51600], [<message note_on channel=6 note=69 velocity=117 time=0>, 51600], [<message note_on channel=10 note=36 velocity=122 time=30>, 51600], [<message note_on channel=10 note=48 velocity=120 time=0>, 51600], [<message note_off channel=9 note=81 velocity=114 time=18>, 51612], [<message note_off channel=10 note=48 velocity=120 time=18>, 51618], [<message note_off channel=6 note=65 velocity=117 time=20>, 51620], [<message note_off channel=10 note=36 velocity=122 time=2>, 51620], [<message note_off channel=6 note=60 velocity=119 time=2>, 51622], [<message note_off channel=6 note=69 velocity=117 time=8>, 51630], [<message note_off channel=0 note=65 velocity=113 time=34>, 51634], [<message note_off channel=0 note=69 velocity=113 time=4>, 51638], [<message note_on channel=9 note=81 velocity=118 time=30>, 51642], [<message note_on channel=0 note=60 velocity=113 time=10>, 51648], [<message note_on channel=0 note=67 velocity=113 time=0>, 51648], [<message note_on channel=0 note=70 velocity=113 time=0>, 51648], [<message note_on channel=6 note=60 velocity=114 time=18>, 51648], [<message note_on channel=6 note=67 velocity=119 time=0>, 51648], [<message note_on channel=6 note=70 velocity=119 time=0>, 51648], [<message note_on channel=10 note=36 velocity=122 time=28>, 51648], [<message note_on channel=10 note=48 velocity=120 time=0>, 51648], [<message note_off channel=0 note=60 velocity=113 time=12>, 51660], [<message note_off channel=9 note=81 velocity=118 time=18>, 51660], [<message note_off channel=10 note=48 velocity=120 time=14>, 51662], [<message note_off channel=10 note=36 velocity=122 time=4>, 51666], [<message note_off channel=0 note=70 velocity=113 time=10>, 51670], [<message note_off channel=6 note=60 velocity=114 time=26>, 51674], [<message note_off channel=0 note=67 velocity=113 time=6>, 51676], [<message note_off channel=6 note=67 velocity=119 time=6>, 51680], [<message note_off channel=6 note=70 velocity=119 time=4>, 51684], [<message note_on channel=9 note=81 velocity=118 time=30>, 51690], [<message note_on channel=0 note=65 velocity=113 time=20>, 51696], [<message note_on channel=0 note=69 velocity=113 time=0>, 51696], [<message note_on channel=6 note=60 velocity=119 time=12>, 51696], [<message note_on channel=6 note=65 velocity=117 time=0>, 51696], [<message note_on channel=6 note=69 velocity=119 time=0>, 51696], [<message note_on channel=10 note=36 velocity=120 time=30>, 51696], [<message note_on channel=10 note=48 velocity=118 time=0>, 51696], [<message note_off channel=9 note=81 velocity=118 time=20>, 51710], [<message note_off channel=10 note=48 velocity=118 time=18>, 51714], [<message note_off channel=6 note=65 velocity=117 time=22>, 51718], [<message note_off channel=10 note=36 velocity=120 time=4>, 51718], [<message note_off channel=6 note=60 velocity=119 time=2>, 51720], [<message note_off channel=6 note=69 velocity=119 time=4>, 51724], [<message note_off channel=0 note=65 velocity=113 time=44>, 51740], [<message note_on channel=9 note=81 velocity=119 time=30>, 51740], [<message note_on channel=0 note=64 velocity=113 time=4>, 51744], [<message note_on channel=0 note=67 velocity=113 time=0>, 51744], [<message note_on channel=6 note=60 velocity=119 time=20>, 51744], [<message note_on channel=6 note=64 velocity=119 time=0>, 51744], [<message note_on channel=6 note=67 velocity=119 time=0>, 51744], [<message note_on channel=10 note=36 velocity=120 time=26>, 51744], [<message note_on channel=10 note=48 velocity=122 time=0>, 51744], [<message note_off channel=0 note=67 velocity=113 time=14>, 51758], [<message note_off channel=0 note=69 velocity=113 time=0>, 51758], [<message note_off channel=9 note=81 velocity=119 time=24>, 51764], [<message note_off channel=10 note=48 velocity=122 time=22>, 51766], [<message note_off channel=10 note=36 velocity=120 time=0>, 51766], [<message note_off channel=6 note=60 velocity=119 time=28>, 51772], [<message note_off channel=6 note=64 velocity=119 time=2>, 51774], [<message note_off channel=6 note=67 velocity=119 time=6>, 51780], [<message note_on channel=1 note=29 velocity=123 time=298>, 51790], [<message note_on channel=1 note=41 velocity=125 time=0>, 51790], [<message note_on channel=9 note=35 velocity=124 time=26>, 51790], [<message note_on channel=9 note=43 velocity=123 time=0>, 51790], [<message note_off channel=0 note=64 velocity=113 time=34>, 51792], [<message note_on channel=0 note=29 velocity=123 time=0>, 51792], [<message note_on channel=0 note=41 velocity=123 time=0>, 51792], [<message note_on channel=0 note=65 velocity=123 time=0>, 51792], [<message note_on channel=0 note=69 velocity=123 time=0>, 51792], [<message note_on channel=0 note=72 velocity=123 time=0>, 51792], [<message note_on channel=0 note=77 velocity=123 time=0>, 51792], [<message note_on channel=2 note=65 velocity=119 time=300>, 51792], [<message note_on channel=2 note=72 velocity=118 time=0>, 51792], [<message note_on channel=2 note=77 velocity=111 time=0>, 51792], [<message note_on channel=12 note=65 velocity=124 time=312>, 51794], [<message note_on channel=12 note=77 velocity=123 time=6>, 51800], [<message note_off channel=0 note=65 velocity=123 time=14>, 51806], [<message note_off channel=0 note=69 velocity=123 time=2>, 51808], [<message note_off channel=0 note=72 velocity=123 time=4>, 51812], [<message note_off channel=9 note=43 velocity=123 time=22>, 51812], [<message note_off channel=9 note=35 velocity=124 time=0>, 51812], [<message note_off channel=1 note=41 velocity=125 time=24>, 51814], [<message note_off channel=1 note=29 velocity=123 time=0>, 51814], [<message note_off channel=0 note=41 velocity=123 time=6>, 51818], [<message note_off channel=12 note=77 velocity=123 time=18>, 51818], [<message note_off channel=0 note=77 velocity=123 time=2>, 51820], [<message note_off channel=12 note=65 velocity=124 time=4>, 51822], [<message note_off channel=2 note=77 velocity=111 time=32>, 51824], [<message note_off channel=2 note=72 velocity=118 time=0>, 51824], [<message note_off channel=2 note=65 velocity=119 time=0>, 51824], [<message note_off channel=0 note=29 velocity=123 time=6>, 51826], [<message note_on channel=1 note=29 velocity=124 time=24>, 51838], [<message note_on channel=1 note=41 velocity=125 time=0>, 51838], [<message note_on channel=9 note=35 velocity=124 time=26>, 51838], [<message note_on channel=9 note=43 velocity=124 time=0>, 51838], [<message note_on channel=0 note=29 velocity=123 time=14>, 51840], [<message note_on channel=0 note=41 velocity=123 time=0>, 51840], [<message note_on channel=0 note=65 velocity=123 time=0>, 51840], [<message note_on channel=0 note=69 velocity=123 time=0>, 51840], [<message note_on channel=0 note=72 velocity=123 time=0>, 51840], [<message note_on channel=0 note=77 velocity=123 time=0>, 51840], [<message note_on channel=2 note=65 velocity=117 time=16>, 51840], [<message note_on channel=2 note=72 velocity=117 time=0>, 51840], [<message note_on channel=2 note=77 velocity=117 time=0>, 51840], [<message note_on channel=12 note=65 velocity=123 time=26>, 51848], [<message note_on channel=12 note=77 velocity=123 time=0>, 51848], [<message note_off channel=0 note=77 velocity=123 time=18>, 51858], [<message note_off channel=0 note=72 velocity=123 time=0>, 51858], [<message note_off channel=0 note=69 velocity=123 time=0>, 51858], [<message note_off channel=0 note=65 velocity=123 time=2>, 51860], [<message note_off channel=1 note=41 velocity=125 time=24>, 51862], [<message note_off channel=1 note=29 velocity=124 time=0>, 51862], [<message note_off channel=9 note=43 velocity=124 time=24>, 51862], [<message note_off channel=9 note=35 velocity=124 time=0>, 51862], [<message note_off channel=12 note=77 velocity=123 time=20>, 51868], [<message note_off channel=12 note=65 velocity=123 time=4>, 51872], [<message note_off channel=2 note=65 velocity=117 time=34>, 51874], [<message note_off channel=2 note=77 velocity=117 time=4>, 51878], [<message note_off channel=0 note=29 velocity=123 time=20>, 51880], [<message note_off channel=2 note=72 velocity=117 time=2>, 51880], [<message note_off channel=0 note=41 velocity=123 time=4>, 51884], [<message note_on channel=1 note=29 velocity=125 time=24>, 51886], [<message note_on channel=1 note=41 velocity=125 time=0>, 51886], [<message note_on channel=9 note=35 velocity=124 time=24>, 51886], [<message note_on channel=9 note=43 velocity=124 time=0>, 51886], [<message note_on channel=0 note=60 velocity=112 time=4>, 51888], [<message note_on channel=0 note=64 velocity=112 time=0>, 51888], [<message note_on channel=0 note=67 velocity=112 time=0>, 51888], [<message note_on channel=2 note=65 velocity=117 time=8>, 51888], [<message note_on channel=2 note=72 velocity=117 time=0>, 51888], [<message note_on channel=2 note=77 velocity=117 time=0>, 51888], [<message note_on channel=6 note=60 velocity=119 time=108>, 51888], [<message note_on channel=6 note=64 velocity=117 time=0>, 51888], [<message note_on channel=6 note=67 velocity=118 time=0>, 51888], [<message note_on channel=12 note=65 velocity=122 time=22>, 51894], [<message note_on channel=12 note=77 velocity=124 time=0>, 51894], [<message note_off channel=0 note=60 velocity=112 time=20>, 51908], [<message note_off channel=6 note=67 velocity=118 time=20>, 51908], [<message note_off channel=0 note=64 velocity=112 time=2>, 51910], [<message note_off channel=2 note=77 velocity=117 time=24>, 51912], [<message note_off channel=6 note=60 velocity=119 time=4>, 51912], [<message note_off channel=6 note=64 velocity=117 time=2>, 51914], [<message note_off channel=0 note=67 velocity=112 time=8>, 51918], [<message note_on channel=0 note=64 velocity=112 time=18>, 51936], [<message note_on channel=0 note=67 velocity=112 time=0>, 51936], [<message note_off channel=2 note=72 velocity=117 time=24>, 51936], [<message note_off channel=2 note=65 velocity=117 time=0>, 51936], [<message note_on channel=2 note=77 velocity=98 time=0>, 51936], [<message note_on channel=6 note=60 velocity=116 time=22>, 51936], [<message note_on channel=6 note=64 velocity=115 time=0>, 51936], [<message note_on channel=6 note=67 velocity=119 time=0>, 51936], [<message note_on channel=10 note=36 velocity=119 time=170>, 51936], [<message note_on channel=10 note=48 velocity=114 time=0>, 51936], [<message note_off channel=9 note=43 velocity=124 time=60>, 51946], [<message note_off channel=9 note=35 velocity=124 time=0>, 51946], [<message note_on channel=9 note=81 velocity=102 time=4>, 51950], [<message note_off channel=1 note=29 velocity=125 time=66>, 51952], [<message note_off channel=10 note=36 velocity=119 time=16>, 51952], [<message note_off channel=6 note=64 velocity=115 time=20>, 51956], [<message note_off channel=10 note=48 velocity=114 time=4>, 51956], [<message note_off channel=1 note=41 velocity=125 time=6>, 51958], [<message note_off channel=6 note=60 velocity=116 time=2>, 51958], [<message note_off channel=0 note=64 velocity=112 time=30>, 51966], [<message note_off channel=6 note=67 velocity=119 time=8>, 51966], [<message note_off channel=9 note=81 velocity=102 time=24>, 51974], [<message note_off channel=0 note=67 velocity=112 time=12>, 51978], [<message note_off channel=12 note=77 velocity=124 time=88>, 51982], [<message note_off channel=12 note=65 velocity=122 time=0>, 51982], [<message note_on channel=0 note=65 velocity=112 time=6>, 51984], [<message note_on channel=0 note=69 velocity=112 time=0>, 51984], [<message note_on channel=6 note=60 velocity=121 time=18>, 51984], [<message note_on channel=6 note=65 velocity=118 time=0>, 51984], [<message note_on channel=6 note=69 velocity=120 time=0>, 51984], [<message note_on channel=10 note=36 velocity=121 time=28>, 51984], [<message note_on channel=10 note=48 velocity=116 time=0>, 51984], [<message note_on channel=9 note=81 velocity=106 time=18>, 51992], [<message note_off channel=10 note=48 velocity=116 time=14>, 51998], [<message note_off channel=10 note=36 velocity=121 time=0>, 51998], [<message note_off channel=6 note=65 velocity=118 time=18>, 52002], [<message note_off channel=6 note=60 velocity=121 time=4>, 52006], [<message note_off channel=6 note=69 velocity=120 time=4>, 52010], [<message note_off channel=9 note=81 velocity=106 time=20>, 52012], [<message note_off channel=0 note=65 velocity=112 time=34>, 52018], [<message note_off channel=0 note=69 velocity=112 time=4>, 52022], [<message note_on channel=0 note=60 velocity=112 time=10>, 52032], [<message note_on channel=0 note=67 velocity=112 time=0>, 52032], [<message note_on channel=0 note=70 velocity=112 time=0>, 52032], [<message note_on channel=6 note=60 velocity=121 time=22>, 52032], [<message note_on channel=6 note=67 velocity=120 time=0>, 52032], [<message note_on channel=6 note=70 velocity=119 time=0>, 52032], [<message note_on channel=10 note=36 velocity=122 time=34>, 52032], [<message note_on channel=10 note=48 velocity=118 time=0>, 52032], [<message note_on channel=9 note=81 velocity=117 time=26>, 52038], [<message note_off channel=0 note=60 velocity=112 time=12>, 52044], [<message note_off channel=10 note=36 velocity=122 time=16>, 52048], [<message note_off channel=10 note=48 velocity=118 time=2>, 52050], [<message note_off channel=6 note=60 velocity=121 time=20>, 52052], [<message note_off channel=0 note=70 velocity=112 time=10>, 52054], [<message note_off channel=0 note=67 velocity=112 time=6>, 52060], [<message note_off channel=9 note=81 velocity=117 time=22>, 52060], [<message note_off channel=6 note=67 velocity=120 time=10>, 52062], [<message note_off channel=6 note=70 velocity=119 time=6>, 52068], [<message note_on channel=0 note=65 velocity=112 time=20>, 52080], [<message note_on channel=0 note=69 velocity=112 time=0>, 52080], [<message note_on channel=6 note=60 velocity=117 time=12>, 52080], [<message note_on channel=6 note=65 velocity=120 time=0>, 52080], [<message note_on channel=6 note=69 velocity=119 time=0>, 52080], [<message note_on channel=10 note=36 velocity=119 time=30>, 52080], [<message note_on channel=10 note=48 velocity=120 time=0>, 52080], [<message note_on channel=9 note=81 velocity=118 time=26>, 52086], [<message note_off channel=10 note=48 velocity=120 time=18>, 52098], [<message note_off channel=6 note=65 velocity=120 time=22>, 52102], [<message note_off channel=10 note=36 velocity=119 time=4>, 52102], [<message note_off channel=6 note=60 velocity=117 time=4>, 52106], [<message note_off channel=9 note=81 velocity=118 time=20>, 52106], [<message note_off channel=6 note=69 velocity=119 time=4>, 52110], [<message note_off channel=0 note=65 velocity=112 time=44>, 52124], [<message note_on channel=0 note=64 velocity=112 time=4>, 52128], [<message note_on channel=0 note=67 velocity=112 time=0>, 52128], [<message note_on channel=6 note=60 velocity=121 time=18>, 52128], [<message note_on channel=6 note=64 velocity=120 time=0>, 52128], [<message note_on channel=6 note=67 velocity=121 time=0>, 52128], [<message note_on channel=10 note=36 velocity=121 time=26>, 52128], [<message note_on channel=10 note=48 velocity=122 time=0>, 52128], [<message note_on channel=9 note=81 velocity=121 time=28>, 52134], [<message note_off channel=0 note=67 velocity=112 time=14>, 52142], [<message note_off channel=0 note=69 velocity=112 time=0>, 52142], [<message note_off channel=10 note=48 velocity=122 time=18>, 52146], [<message note_off channel=10 note=36 velocity=121 time=4>, 52150], [<message note_off channel=9 note=81 velocity=121 time=20>, 52154], [<message note_off channel=6 note=67 velocity=121 time=32>, 52160], [<message note_off channel=6 note=64 velocity=120 time=0>, 52160], [<message note_off channel=6 note=60 velocity=121 time=0>, 52160], [<message note_off channel=2 note=77 velocity=98 time=230>, 52166], [<message note_on channel=1 note=29 velocity=125 time=216>, 52174], [<message note_on channel=1 note=41 velocity=125 time=0>, 52174], [<message note_on channel=9 note=35 velocity=123 time=20>, 52174], [<message note_on channel=9 note=43 velocity=124 time=0>, 52174], [<message note_off channel=0 note=64 velocity=112 time=34>, 52176], [<message note_on channel=0 note=29 velocity=123 time=0>, 52176], [<message note_on channel=0 note=41 velocity=123 time=0>, 52176], [<message note_on channel=0 note=65 velocity=123 time=0>, 52176], [<message note_on channel=0 note=69 velocity=123 time=0>, 52176], [<message note_on channel=0 note=77 velocity=123 time=0>, 52176], [<message note_on channel=2 note=65 velocity=119 time=10>, 52176], [<message note_on channel=2 note=72 velocity=119 time=0>, 52176], [<message note_on channel=2 note=77 velocity=114 time=0>, 52176], [<message note_on channel=12 note=65 velocity=124 time=200>, 52182], [<message note_on channel=12 note=77 velocity=123 time=4>, 52186], [<message note_off channel=0 note=65 velocity=123 time=16>, 52192], [<message note_off channel=9 note=35 velocity=123 time=20>, 52194], [<message note_off channel=9 note=43 velocity=124 time=2>, 52196], [<message note_off channel=0 note=69 velocity=123 time=6>, 52198], [<message note_off channel=0 note=77 velocity=123 time=2>, 52200], [<message note_off channel=1 note=29 velocity=125 time=26>, 52200], [<message note_off channel=1 note=41 velocity=125 time=2>, 52202], [<message note_off channel=0 note=41 velocity=123 time=4>, 52204], [<message note_off channel=2 note=65 velocity=119 time=28>, 52204], [<message note_off channel=0 note=29 velocity=123 time=2>, 52206], [<message note_off channel=12 note=77 velocity=123 time=20>, 52206], [<message note_off channel=12 note=65 velocity=124 time=0>, 52206], [<message note_off channel=2 note=77 velocity=114 time=4>, 52208], [<message note_off channel=2 note=72 velocity=119 time=0>, 52208], [<message note_on channel=1 note=29 velocity=125 time=20>, 52222], [<message note_on channel=1 note=41 velocity=125 time=0>, 52222], [<message note_on channel=9 note=35 velocity=124 time=26>, 52222], [<message note_on channel=9 note=43 velocity=124 time=0>, 52222], [<message note_on channel=0 note=29 velocity=123 time=18>, 52224], [<message note_on channel=0 note=41 velocity=123 time=0>, 52224], [<message note_on channel=0 note=65 velocity=123 time=0>, 52224], [<message note_on channel=0 note=69 velocity=123 time=0>, 52224], [<message note_on channel=0 note=77 velocity=123 time=0>, 52224], [<message note_on channel=2 note=65 velocity=118 time=16>, 52224], [<message note_on channel=2 note=72 velocity=118 time=0>, 52224], [<message note_on channel=2 note=77 velocity=117 time=0>, 52224], [<message note_on channel=12 note=65 velocity=124 time=28>, 52234], [<message note_on channel=12 note=77 velocity=124 time=2>, 52236], [<message note_off channel=0 note=65 velocity=123 time=20>, 52244], [<message note_off channel=1 note=41 velocity=125 time=24>, 52246], [<message note_off channel=9 note=43 velocity=124 time=24>, 52246], [<message note_off channel=9 note=35 velocity=124 time=0>, 52246], [<message note_off channel=1 note=29 velocity=125 time=2>, 52248], [<message note_off channel=0 note=69 velocity=123 time=6>, 52250], [<message note_off channel=0 note=77 velocity=123 time=2>, 52252], [<message note_off channel=12 note=77 velocity=124 time=20>, 52256], [<message note_off channel=12 note=65 velocity=124 time=0>, 52256], [<message note_off channel=0 note=41 velocity=123 time=6>, 52258], [<message note_off channel=0 note=29 velocity=123 time=0>, 52258], [<message note_on channel=1 note=29 velocity=125 time=22>, 52270], [<message note_on channel=1 note=41 velocity=125 time=0>, 52270], [<message note_off channel=2 note=77 velocity=117 time=46>, 52270], [<message note_on channel=9 note=35 velocity=124 time=24>, 52270], [<message note_on channel=9 note=43 velocity=124 time=0>, 52270], [<message note_on channel=0 note=60 velocity=112 time=14>, 52272], [<message note_on channel=0 note=64 velocity=112 time=0>, 52272], [<message note_on channel=0 note=67 velocity=112 time=0>, 52272], [<message note_off channel=2 note=72 velocity=117 time=2>, 52272], [<message note_off channel=2 note=65 velocity=117 time=0>, 52272], [<message note_on channel=2 note=65 velocity=117 time=0>, 52272], [<message note_on channel=2 note=72 velocity=117 time=0>, 52272], [<message note_on channel=2 note=77 velocity=117 time=0>, 52272], [<message note_on channel=6 note=60 velocity=120 time=112>, 52272], [<message note_on channel=6 note=64 velocity=121 time=0>, 52272], [<message note_on channel=6 note=67 velocity=121 time=0>, 52272], [<message note_on channel=12 note=65 velocity=123 time=26>, 52282], [<message note_on channel=12 note=77 velocity=124 time=0>, 52282], [<message note_off channel=0 note=60 velocity=112 time=20>, 52292], [<message note_off channel=0 note=64 velocity=112 time=2>, 52294], [<message note_off channel=6 note=67 velocity=121 time=22>, 52294], [<message note_off channel=6 note=64 velocity=121 time=0>, 52294], [<message note_off channel=2 note=77 velocity=117 time=24>, 52296], [<message note_off channel=6 note=60 velocity=120 time=2>, 52296], [<message note_off channel=0 note=67 velocity=112 time=8>, 52302], [<message note_off channel=9 note=35 velocity=124 time=40>, 52310], [<message note_off channel=9 note=43 velocity=124 time=2>, 52312], [<message note_off channel=12 note=77 velocity=124 time=36>, 52318], [<message note_off channel=12 note=65 velocity=123 time=0>, 52318], [<message note_on channel=0 note=64 velocity=112 time=18>, 52320], [<message note_on channel=0 note=67 velocity=112 time=0>, 52320], [<message note_off channel=2 note=72 velocity=118 time=24>, 52320], [<message note_off channel=2 note=65 velocity=118 time=0>, 52320], [<message note_on channel=2 note=77 velocity=94 time=0>, 52320], [<message note_on channel=6 note=60 velocity=117 time=24>, 52320], [<message note_on channel=6 note=64 velocity=119 time=0>, 52320], [<message note_on channel=6 note=67 velocity=120 time=0>, 52320], [<message note_on channel=10 note=36 velocity=116 time=170>, 52320], [<message note_on channel=10 note=48 velocity=118 time=0>, 52320], [<message note_on channel=9 note=81 velocity=104 time=18>, 52330], [<message note_off channel=10 note=36 velocity=116 time=14>, 52334], [<message note_off channel=10 note=48 velocity=118 time=4>, 52338], [<message note_off channel=6 note=64 velocity=119 time=20>, 52340], [<message note_off channel=6 note=60 velocity=117 time=6>, 52346], [<message note_off channel=1 note=41 velocity=125 time=78>, 52348], [<message note_off channel=0 note=64 velocity=112 time=30>, 52350], [<message note_off channel=1 note=29 velocity=125 time=4>, 52352], [<message note_off channel=6 note=67 velocity=120 time=6>, 52352], [<message note_off channel=9 note=81 velocity=104 time=22>, 52352], [<message note_off channel=0 note=67 velocity=112 time=12>, 52362], [<message note_on channel=0 note=65 velocity=112 time=6>, 52368], [<message note_on channel=0 note=69 velocity=112 time=0>, 52368], [<message note_on channel=6 note=60 velocity=119 time=16>, 52368], [<message note_on channel=6 note=65 velocity=120 time=0>, 52368], [<message note_on channel=6 note=69 velocity=120 time=0>, 52368], [<message note_on channel=10 note=36 velocity=121 time=30>, 52368], [<message note_on channel=10 note=48 velocity=119 time=0>, 52368], [<message note_on channel=9 note=81 velocity=110 time=22>, 52374], [<message note_off channel=10 note=48 velocity=119 time=14>, 52382], [<message note_off channel=10 note=36 velocity=121 time=0>, 52382], [<message note_off channel=6 note=65 velocity=120 time=20>, 52388], [<message note_off channel=6 note=60 velocity=119 time=2>, 52390], [<message note_off channel=6 note=69 velocity=120 time=6>, 52396], [<message note_off channel=9 note=81 velocity=110 time=22>, 52396], [<message note_off channel=0 note=65 velocity=112 time=34>, 52402], [<message note_off channel=0 note=69 velocity=112 time=4>, 52406], [<message note_on channel=0 note=60 velocity=112 time=10>, 52416], [<message note_on channel=0 note=67 velocity=112 time=0>, 52416], [<message note_on channel=0 note=70 velocity=112 time=0>, 52416], [<message note_on channel=6 note=60 velocity=120 time=20>, 52416], [<message note_on channel=6 note=67 velocity=120 time=0>, 52416], [<message note_on channel=6 note=70 velocity=119 time=0>, 52416], [<message note_on channel=10 note=36 velocity=122 time=34>, 52416], [<message note_on channel=10 note=48 velocity=118 time=0>, 52416], [<message note_on channel=9 note=81 velocity=118 time=26>, 52422], [<message note_off channel=0 note=60 velocity=112 time=12>, 52428], [<message note_off channel=10 note=48 velocity=118 time=14>, 52430], [<message note_off channel=10 note=36 velocity=122 time=4>, 52434], [<message note_off channel=0 note=70 velocity=112 time=10>, 52438], [<message note_off channel=6 note=60 velocity=120 time=24>, 52440], [<message note_off channel=9 note=81 velocity=118 time=18>, 52440], [<message note_off channel=0 note=67 velocity=112 time=6>, 52444], [<message note_off channel=6 note=67 velocity=120 time=6>, 52446], [<message note_off channel=6 note=70 velocity=119 time=6>, 52452], [<message note_on channel=0 note=65 velocity=112 time=20>, 52464], [<message note_on channel=0 note=69 velocity=112 time=0>, 52464], [<message note_on channel=6 note=60 velocity=121 time=12>, 52464], [<message note_on channel=6 note=65 velocity=120 time=0>, 52464], [<message note_on channel=6 note=69 velocity=120 time=0>, 52464], [<message note_on channel=10 note=36 velocity=119 time=30>, 52464], [<message note_on channel=10 note=48 velocity=120 time=0>, 52464], [<message note_on channel=9 note=81 velocity=118 time=26>, 52466], [<message note_off channel=10 note=48 velocity=120 time=16>, 52480], [<message note_off channel=6 note=65 velocity=120 time=18>, 52482], [<message note_off channel=9 note=81 velocity=118 time=18>, 52484], [<message note_off channel=10 note=36 velocity=119 time=6>, 52486], [<message note_off channel=6 note=60 velocity=121 time=6>, 52488], [<message note_off channel=6 note=69 velocity=120 time=4>, 52492], [<message note_off channel=0 note=65 velocity=112 time=44>, 52508], [<message note_on channel=0 note=64 velocity=112 time=4>, 52512], [<message note_on channel=0 note=67 velocity=112 time=0>, 52512], [<message note_on channel=6 note=60 velocity=122 time=20>, 52512], [<message note_on channel=6 note=64 velocity=119 time=0>, 52512], [<message note_on channel=6 note=67 velocity=121 time=0>, 52512], [<message note_on channel=10 note=36 velocity=120 time=26>, 52512], [<message note_on channel=10 note=48 velocity=122 time=0>, 52512], [<message note_on channel=9 note=81 velocity=121 time=30>, 52514], [<message note_off channel=0 note=67 velocity=112 time=14>, 52526], [<message note_off channel=0 note=69 velocity=112 time=0>, 52526], [<message note_off channel=10 note=36 velocity=120 time=18>, 52530], [<message note_off channel=10 note=48 velocity=122 time=4>, 52534], [<message note_off channel=9 note=81 velocity=121 time=24>, 52538], [<message note_off channel=6 note=64 velocity=119 time=32>, 52544], [<message note_off channel=6 note=67 velocity=121 time=2>, 52546], [<message note_off channel=6 note=60 velocity=122 time=0>, 52546], [<message note_off channel=0 note=64 velocity=112 time=34>, 52560], [<message note_on channel=0 note=65 velocity=123 time=0>, 52560], [<message note_off channel=2 note=77 velocity=94 time=240>, 52560], [<message note_on channel=12 note=65 velocity=124 time=248>, 52566], [<message note_on channel=12 note=77 velocity=123 time=0>, 52566], [<message note_off channel=12 note=65 velocity=124 time=22>, 52588], [<message note_off channel=12 note=77 velocity=123 time=2>, 52590], [<message note_off channel=0 note=65 velocity=123 time=48>, 52608], [<message note_on channel=0 note=77 velocity=123 time=0>, 52608], [<message note_on channel=2 note=77 velocity=116 time=48>, 52608], [<message note_on channel=12 note=77 velocity=122 time=24>, 52614], [<message note_on channel=12 note=65 velocity=124 time=2>, 52616], [<message note_off channel=12 note=65 velocity=124 time=20>, 52636], [<message note_off channel=12 note=77 velocity=122 time=0>, 52636], [<message note_off channel=2 note=77 velocity=116 time=30>, 52638], [<message note_off channel=0 note=77 velocity=123 time=32>, 52640], [<message note_on channel=0 note=77 velocity=121 time=16>, 52656], [<message note_on channel=2 note=77 velocity=116 time=18>, 52656], [<message note_on channel=12 note=65 velocity=124 time=26>, 52662], [<message note_on channel=12 note=77 velocity=124 time=0>, 52662], [<message note_off channel=12 note=65 velocity=124 time=36>, 52698], [<message note_off channel=12 note=77 velocity=124 time=4>, 52702], [<message note_on channel=0 note=75 velocity=122 time=48>, 52704], [<message note_on channel=2 note=75 velocity=116 time=48>, 52704], [<message note_on channel=5 note=84 velocity=121 time=6018>, 52752], [<message note_on channel=0 note=72 velocity=123 time=48>, 52752], [<message note_on channel=2 note=72 velocity=107 time=48>, 52752], [<message note_on channel=6 note=72 velocity=119 time=206>, 52752], [<message note_on channel=7 note=72 velocity=119 time=6018>, 52752], [<message note_off channel=0 note=77 velocity=121 time=32>, 52784], [<message note_on channel=5 note=80 velocity=120 time=96>, 52848], [<message note_on channel=0 note=68 velocity=123 time=64>, 52848], [<message note_on channel=2 note=68 velocity=118 time=96>, 52848], [<message note_on channel=6 note=68 velocity=119 time=96>, 52848], [<message note_on channel=7 note=68 velocity=119 time=96>, 52848], [<message note_off channel=2 note=77 velocity=116 time=2>, 52850], [<message note_on channel=5 note=77 velocity=120 time=96>, 52944], [<message note_on channel=0 note=65 velocity=123 time=96>, 52944], [<message note_on channel=2 note=65 velocity=118 time=94>, 52944], [<message note_on channel=6 note=65 velocity=119 time=96>, 52944], [<message note_on channel=7 note=65 velocity=119 time=96>, 52944], [<message note_on channel=5 note=75 velocity=121 time=96>, 53040], [<message note_on channel=0 note=63 velocity=123 time=96>, 53040], [<message note_on channel=2 note=63 velocity=117 time=96>, 53040], [<message note_on channel=6 note=63 velocity=119 time=96>, 53040], [<message note_on channel=7 note=63 velocity=119 time=96>, 53040], [<message note_off channel=2 note=63 velocity=117 time=6>, 53046], [<message note_off channel=2 note=72 velocity=107 time=2>, 53048], [<message note_off channel=5 note=84 velocity=121 time=104>, 53144], [<message note_off channel=6 note=72 velocity=119 time=104>, 53144], [<message note_off channel=7 note=72 velocity=119 time=104>, 53144], [<message note_off channel=5 note=80 velocity=120 time=6>, 53150], [<message note_off channel=6 note=68 velocity=119 time=6>, 53150], [<message note_off channel=7 note=68 velocity=119 time=6>, 53150], [<message note_off channel=5 note=77 velocity=120 time=10>, 53160], [<message note_off channel=2 note=68 velocity=118 time=112>, 53160], [<message note_off channel=6 note=65 velocity=119 time=10>, 53160], [<message note_off channel=7 note=65 velocity=119 time=10>, 53160], [<message note_off channel=2 note=75 velocity=116 time=2>, 53162], [<message note_off channel=2 note=65 velocity=118 time=4>, 53166], [<message note_off channel=5 note=75 velocity=121 time=10>, 53170], [<message note_off channel=6 note=63 velocity=119 time=10>, 53170], [<message note_off channel=7 note=63 velocity=119 time=10>, 53170], [<message note_off channel=0 note=65 velocity=123 time=170>, 53210], [<message note_off channel=0 note=68 velocity=123 time=4>, 53214], [<message note_off channel=0 note=72 velocity=123 time=6>, 53220], [<message note_off channel=0 note=63 velocity=123 time=6>, 53226], [<message note_off channel=0 note=75 velocity=122 time=2>, 53228], [<message note_on channel=1 note=43 velocity=125 time=878>, 53230], [<message note_on channel=9 note=35 velocity=123 time=692>, 53230], [<message note_on channel=9 note=43 velocity=124 time=0>, 53230], [<message note_on channel=9 note=81 velocity=118 time=0>, 53230], [<message note_on channel=5 note=60 velocity=122 time=62>, 53232], [<message note_on channel=0 note=48 velocity=123 time=4>, 53232], [<message note_on channel=0 note=60 velocity=123 time=0>, 53232], [<message note_on channel=0 note=72 velocity=123 time=0>, 53232], [<message note_on channel=0 note=84 velocity=123 time=0>, 53232], [<message note_on channel=2 note=60 velocity=116 time=66>, 53232], [<message note_on channel=2 note=67 velocity=116 time=0>, 53232], [<message note_on channel=2 note=72 velocity=116 time=0>, 53232], [<message note_on channel=6 note=48 velocity=120 time=62>, 53232], [<message note_on channel=7 note=48 velocity=120 time=62>, 53232], [<message note_on channel=12 note=60 velocity=123 time=530>, 53232], [<message note_on channel=10 note=36 velocity=108 time=698>, 53232], [<message note_off channel=10 note=36 velocity=108 time=20>, 53252], [<message note_off channel=9 note=81 velocity=118 time=24>, 53254], [<message note_off channel=2 note=60 velocity=116 time=40>, 53272], [<message note_off channel=0 note=60 velocity=123 time=44>, 53276], [<message note_off channel=2 note=72 velocity=116 time=6>, 53278], [<message note_off channel=0 note=72 velocity=123 time=4>, 53280], [<message note_off channel=0 note=48 velocity=123 time=0>, 53280], [<message note_off channel=2 note=67 velocity=116 time=2>, 53280], [<message note_off channel=0 note=84 velocity=123 time=2>, 53282], [<message note_off channel=9 note=43 velocity=124 time=32>, 53286], [<message note_off channel=9 note=35 velocity=123 time=0>, 53286], [<message note_off channel=12 note=60 velocity=123 time=60>, 53292], [<message note_off channel=5 note=60 velocity=122 time=66>, 53298], [<message note_off channel=6 note=48 velocity=120 time=66>, 53298], [<message note_off channel=7 note=48 velocity=120 time=66>, 53298], [<message note_off channel=1 note=43 velocity=125 time=76>, 53306], [<message note_on channel=9 note=35 velocity=124 time=40>, 53326], [<message note_on channel=9 note=43 velocity=124 time=0>, 53326], [<message note_on channel=9 note=45 velocity=124 time=0>, 53326], [<message note_on channel=5 note=59 velocity=122 time=30>, 53328], [<message note_on channel=0 note=47 velocity=123 time=46>, 53328], [<message note_on channel=0 note=59 velocity=123 time=0>, 53328], [<message note_on channel=0 note=71 velocity=123 time=0>, 53328], [<message note_on channel=0 note=83 velocity=123 time=0>, 53328], [<message note_on channel=2 note=59 velocity=114 time=48>, 53328], [<message note_on channel=2 note=65 velocity=114 time=0>, 53328], [<message note_on channel=2 note=71 velocity=114 time=0>, 53328], [<message note_on channel=2 note=74 velocity=114 time=0>, 53328], [<message note_on channel=6 note=47 velocity=121 time=30>, 53328], [<message note_on channel=7 note=47 velocity=120 time=30>, 53328], [<message note_on channel=12 note=59 velocity=121 time=36>, 53328], [<message note_on channel=9 note=81 velocity=121 time=2>, 53328], [<message note_on channel=10 note=36 velocity=105 time=76>, 53328], [<message note_on channel=1 note=41 velocity=125 time=24>, 53330], [<message note_off channel=9 note=81 velocity=121 time=26>, 53354], [<message note_off channel=10 note=36 velocity=105 time=26>, 53354], [<message note_off channel=0 note=71 velocity=123 time=28>, 53356], [<message note_off channel=2 note=59 velocity=114 time=36>, 53364], [<message note_off channel=0 note=59 velocity=123 time=14>, 53370], [<message note_off channel=0 note=83 velocity=123 time=6>, 53376], [<message note_off channel=0 note=47 velocity=123 time=0>, 53376], [<message note_off channel=2 note=74 velocity=114 time=12>, 53376], [<message note_off channel=2 note=71 velocity=114 time=0>, 53376], [<message note_off channel=2 note=65 velocity=114 time=0>, 53376], [<message note_off channel=9 note=43 velocity=124 time=22>, 53376], [<message note_off channel=9 note=45 velocity=124 time=8>, 53384], [<message note_off channel=9 note=35 velocity=124 time=2>, 53386], [<message note_off channel=5 note=59 velocity=122 time=60>, 53388], [<message note_off channel=6 note=47 velocity=121 time=60>, 53388], [<message note_off channel=7 note=47 velocity=120 time=60>, 53388], [<message note_off channel=12 note=59 velocity=121 time=60>, 53388], [<message note_off channel=1 note=41 velocity=125 time=78>, 53408], [<message note_on channel=1 note=38 velocity=125 time=14>, 53422], [<message note_on channel=9 note=35 velocity=124 time=36>, 53422], [<message note_on channel=9 note=45 velocity=124 time=0>, 53422], [<message note_on channel=5 note=56 velocity=123 time=36>, 53424], [<message note_on channel=5 note=65 velocity=123 time=0>, 53424], [<message note_on channel=0 note=51 velocity=123 time=48>, 53424], [<message note_on channel=0 note=63 velocity=123 time=0>, 53424], [<message note_on channel=0 note=75 velocity=123 time=0>, 53424], [<message note_on channel=0 note=87 velocity=123 time=0>, 53424], [<message note_on channel=2 note=63 velocity=115 time=48>, 53424], [<message note_on channel=2 note=71 velocity=115 time=0>, 53424], [<message note_on channel=2 note=75 velocity=115 time=0>, 53424], [<message note_on channel=6 note=44 velocity=122 time=36>, 53424], [<message note_on channel=6 note=53 velocity=122 time=0>, 53424], [<message note_on channel=7 note=44 velocity=120 time=36>, 53424], [<message note_on channel=7 note=53 velocity=120 time=0>, 53424], [<message note_on channel=12 note=63 velocity=122 time=36>, 53424], [<message note_on channel=10 note=36 velocity=117 time=70>, 53424], [<message note_on channel=9 note=81 velocity=121 time=4>, 53426], [<message note_off channel=9 note=81 velocity=121 time=26>, 53452], [<message note_off channel=10 note=36 velocity=117 time=32>, 53456], [<message note_off channel=0 note=75 velocity=123 time=46>, 53470], [<message note_off channel=2 note=75 velocity=115 time=46>, 53470], [<message note_off channel=2 note=63 velocity=115 time=0>, 53470], [<message note_off channel=5 note=65 velocity=123 time=48>, 53472], [<message note_off channel=0 note=51 velocity=123 time=2>, 53472], [<message note_off channel=2 note=71 velocity=115 time=2>, 53472], [<message note_off channel=6 note=53 velocity=122 time=48>, 53472], [<message note_off channel=7 note=53 velocity=120 time=48>, 53472], [<message note_off channel=0 note=87 velocity=123 time=2>, 53474], [<message note_off channel=9 note=35 velocity=124 time=24>, 53476], [<message note_off channel=12 note=63 velocity=122 time=54>, 53478], [<message note_off channel=9 note=45 velocity=124 time=2>, 53478], [<message note_off channel=1 note=38 velocity=125 time=60>, 53482], [<message note_off channel=0 note=63 velocity=123 time=14>, 53488], [<message note_off channel=5 note=56 velocity=123 time=24>, 53496], [<message note_off channel=6 note=44 velocity=122 time=24>, 53496], [<message note_off channel=7 note=44 velocity=120 time=24>, 53496], [<message note_on channel=1 note=35 velocity=125 time=36>, 53518], [<message note_on channel=9 note=35 velocity=124 time=40>, 53518], [<message note_on channel=9 note=43 velocity=124 time=0>, 53518], [<message note_on channel=9 note=81 velocity=119 time=0>, 53518], [<message note_on channel=5 note=55 velocity=123 time=24>, 53520], [<message note_on channel=5 note=62 velocity=123 time=0>, 53520], [<message note_on channel=0 note=50 velocity=123 time=32>, 53520], [<message note_on channel=0 note=62 velocity=123 time=0>, 53520], [<message note_on channel=0 note=74 velocity=123 time=0>, 53520], [<message note_on channel=0 note=86 velocity=123 time=0>, 53520], [<message note_on channel=2 note=62 velocity=116 time=48>, 53520], [<message note_on channel=2 note=67 velocity=116 time=0>, 53520], [<message note_on channel=2 note=74 velocity=116 time=0>, 53520], [<message note_on channel=2 note=77 velocity=116 time=0>, 53520], [<message note_on channel=6 note=43 velocity=122 time=24>, 53520], [<message note_on channel=6 note=50 velocity=122 time=0>, 53520], [<message note_on channel=7 note=43 velocity=121 time=24>, 53520], [<message note_on channel=7 note=50 velocity=121 time=0>, 53520], [<message note_on channel=12 note=62 velocity=123 time=42>, 53520], [<message note_on channel=10 note=36 velocity=122 time=64>, 53520], [<message note_off channel=0 note=74 velocity=123 time=24>, 53544], [<message note_off channel=9 note=81 velocity=119 time=28>, 53546], [<message note_off channel=10 note=36 velocity=122 time=30>, 53550], [<message note_off channel=2 note=62 velocity=116 time=38>, 53558], [<message note_off channel=0 note=86 velocity=123 time=18>, 53562], [<message note_off channel=0 note=62 velocity=123 time=0>, 53562], [<message note_off channel=9 note=35 velocity=124 time=20>, 53566], [<message note_off channel=0 note=50 velocity=123 time=6>, 53568], [<message note_off channel=2 note=77 velocity=116 time=10>, 53568], [<message note_off channel=2 note=74 velocity=116 time=0>, 53568], [<message note_off channel=2 note=67 velocity=116 time=0>, 53568], [<message note_off channel=9 note=43 velocity=124 time=2>, 53568], [<message note_off channel=12 note=62 velocity=123 time=50>, 53570], [<message note_off channel=5 note=55 velocity=123 time=62>, 53582], [<message note_off channel=6 note=43 velocity=122 time=62>, 53582], [<message note_off channel=7 note=43 velocity=121 time=62>, 53582], [<message note_off channel=1 note=35 velocity=125 time=72>, 53590], [<message note_on channel=1 note=32 velocity=125 time=24>, 53614], [<message note_on channel=9 note=35 velocity=124 time=46>, 53614], [<message note_on channel=9 note=45 velocity=124 time=0>, 53614], [<message note_on channel=9 note=81 velocity=120 time=0>, 53614], [<message note_off channel=5 note=62 velocity=123 time=34>, 53616], [<message note_on channel=5 note=53 velocity=123 time=0>, 53616], [<message note_on channel=5 note=68 velocity=123 time=0>, 53616], [<message note_on channel=0 note=56 velocity=123 time=48>, 53616], [<message note_on channel=0 note=68 velocity=123 time=0>, 53616], [<message note_on channel=0 note=80 velocity=123 time=0>, 53616], [<message note_on channel=0 note=92 velocity=123 time=0>, 53616], [<message note_on channel=2 note=59 velocity=120 time=48>, 53616], [<message note_on channel=2 note=68 velocity=120 time=0>, 53616], [<message note_on channel=2 note=74 velocity=120 time=0>, 53616], [<message note_on channel=2 note=80 velocity=120 time=0>, 53616], [<message note_off channel=6 note=50 velocity=122 time=34>, 53616], [<message note_on channel=6 note=41 velocity=122 time=0>, 53616], [<message note_on channel=6 note=56 velocity=122 time=0>, 53616], [<message note_off channel=7 note=50 velocity=121 time=34>, 53616], [<message note_on channel=7 note=41 velocity=121 time=0>, 53616], [<message note_on channel=7 note=56 velocity=121 time=0>, 53616], [<message note_on channel=12 note=68 velocity=121 time=46>, 53616], [<message note_on channel=10 note=36 velocity=121 time=66>, 53616], [<message note_off channel=0 note=80 velocity=123 time=28>, 53644], [<message note_off channel=9 note=81 velocity=120 time=30>, 53644], [<message note_off channel=10 note=36 velocity=121 time=30>, 53646], [<message note_off channel=0 note=68 velocity=123 time=4>, 53648], [<message note_off channel=2 note=80 velocity=120 time=42>, 53658], [<message note_off channel=2 note=68 velocity=120 time=0>, 53658], [<message note_off channel=0 note=92 velocity=123 time=14>, 53662], [<message note_off channel=9 note=35 velocity=124 time=18>, 53662], [<message note_off channel=5 note=68 velocity=123 time=48>, 53664], [<message note_off channel=0 note=56 velocity=123 time=2>, 53664], [<message note_off channel=2 note=74 velocity=120 time=6>, 53664], [<message note_off channel=2 note=59 velocity=120 time=0>, 53664], [<message note_off channel=6 note=56 velocity=122 time=48>, 53664], [<message note_off channel=7 note=56 velocity=121 time=48>, 53664], [<message note_off channel=9 note=45 velocity=124 time=2>, 53664], [<message note_off channel=12 note=68 velocity=121 time=50>, 53666], [<message note_off channel=5 note=53 velocity=123 time=12>, 53676], [<message note_off channel=6 note=41 velocity=122 time=12>, 53676], [<message note_off channel=7 note=41 velocity=121 time=12>, 53676], [<message note_off channel=1 note=32 velocity=125 time=66>, 53680], [<message note_on channel=1 note=31 velocity=125 time=28>, 53708], [<message note_on channel=9 note=35 velocity=124 time=46>, 53710], [<message note_on channel=9 note=43 velocity=124 time=0>, 53710], [<message note_on channel=5 note=50 velocity=123 time=36>, 53712], [<message note_on channel=5 note=67 velocity=123 time=0>, 53712], [<message note_on channel=0 note=55 velocity=123 time=48>, 53712], [<message note_on channel=0 note=67 velocity=123 time=0>, 53712], [<message note_on channel=0 note=79 velocity=123 time=0>, 53712], [<message note_on channel=0 note=91 velocity=123 time=0>, 53712], [<message note_on channel=2 note=55 velocity=120 time=48>, 53712], [<message note_on channel=2 note=67 velocity=120 time=0>, 53712], [<message note_on channel=2 note=77 velocity=120 time=0>, 53712], [<message note_on channel=2 note=83 velocity=120 time=0>, 53712], [<message note_on channel=6 note=38 velocity=122 time=36>, 53712], [<message note_on channel=6 note=55 velocity=122 time=0>, 53712], [<message note_on channel=7 note=38 velocity=121 time=36>, 53712], [<message note_on channel=7 note=55 velocity=121 time=0>, 53712], [<message note_on channel=12 note=67 velocity=123 time=46>, 53712], [<message note_on channel=10 note=36 velocity=122 time=66>, 53712], [<message note_on channel=9 note=81 velocity=120 time=4>, 53714], [<message note_off channel=0 note=79 velocity=123 time=26>, 53738], [<message note_off channel=10 note=36 velocity=122 time=30>, 53742], [<message note_off channel=9 note=81 velocity=120 time=30>, 53744], [<message note_off channel=9 note=43 velocity=124 time=6>, 53750], [<message note_off channel=0 note=91 velocity=123 time=14>, 53752], [<message note_off channel=2 note=67 velocity=120 time=42>, 53754], [<message note_off channel=0 note=67 velocity=123 time=4>, 53756], [<message note_off channel=5 note=67 velocity=123 time=48>, 53760], [<message note_off channel=0 note=55 velocity=123 time=4>, 53760], [<message note_off channel=2 note=83 velocity=120 time=6>, 53760], [<message note_off channel=2 note=77 velocity=120 time=0>, 53760], [<message note_off channel=2 note=55 velocity=120 time=0>, 53760], [<message note_off channel=6 note=55 velocity=122 time=48>, 53760], [<message note_off channel=7 note=55 velocity=121 time=48>, 53760], [<message note_off channel=12 note=67 velocity=123 time=52>, 53764], [<message note_off channel=9 note=35 velocity=124 time=16>, 53766], [<message note_off channel=1 note=31 velocity=125 time=62>, 53770], [<message note_off channel=5 note=50 velocity=123 time=14>, 53774], [<message note_off channel=6 note=38 velocity=122 time=14>, 53774], [<message note_off channel=7 note=38 velocity=121 time=14>, 53774], [<message note_on channel=9 note=81 velocity=120 time=38>, 53804], [<message note_on channel=1 note=36 velocity=98 time=36>, 53806], [<message note_on channel=9 note=35 velocity=124 time=2>, 53806], [<message note_on channel=9 note=49 velocity=123 time=0>, 53806], [<message note_on channel=5 note=48 velocity=122 time=34>, 53808], [<message note_on channel=5 note=72 velocity=123 time=0>, 53808], [<message note_on channel=0 note=48 velocity=123 time=48>, 53808], [<message note_on channel=0 note=60 velocity=123 time=0>, 53808], [<message note_on channel=0 note=72 velocity=123 time=0>, 53808], [<message note_on channel=0 note=84 velocity=123 time=0>, 53808], [<message note_on channel=0 note=96 velocity=123 time=0>, 53808], [<message note_on channel=2 note=24 velocity=120 time=48>, 53808], [<message note_on channel=2 note=48 velocity=120 time=0>, 53808], [<message note_on channel=2 note=60 velocity=120 time=0>, 53808], [<message note_on channel=2 note=72 velocity=120 time=0>, 53808], [<message note_on channel=6 note=12 velocity=121 time=34>, 53808], [<message note_on channel=6 note=36 velocity=122 time=0>, 53808], [<message note_on channel=7 note=36 velocity=120 time=34>, 53808], [<message note_on channel=7 note=60 velocity=121 time=0>, 53808], [<message note_on channel=12 note=72 velocity=123 time=44>, 53808], [<message note_on channel=10 note=36 velocity=123 time=66>, 53808], [<message note_on channel=1 note=24 velocity=125 time=4>, 53810], [<message note_off channel=10 note=36 velocity=123 time=26>, 53834], [<message note_off channel=9 note=81 velocity=120 time=34>, 53840], [<message note_off channel=1 note=24 velocity=125 time=44>, 53854], [<message note_off channel=0 note=48 velocity=123 time=48>, 53856], [<message note_off channel=2 note=48 velocity=120 time=48>, 53856], [<message note_off channel=2 note=60 velocity=120 time=2>, 53858], [<message note_off channel=0 note=84 velocity=123 time=6>, 53862], [<message note_off channel=2 note=72 velocity=120 time=4>, 53862], [<message note_off channel=2 note=24 velocity=120 time=0>, 53862], [<message note_off channel=0 note=60 velocity=123 time=2>, 53864], [<message note_off channel=12 note=72 velocity=123 time=56>, 53864], [<message note_off channel=9 note=35 velocity=124 time=26>, 53866], [<message note_off channel=0 note=96 velocity=123 time=4>, 53868], [<message note_off channel=9 note=49 velocity=123 time=2>, 53868], [<message note_off channel=0 note=72 velocity=123 time=2>, 53870], [<message note_off channel=1 note=36 velocity=98 time=44>, 53898], [<message note_off channel=5 note=72 velocity=123 time=96>, 53904], [<message note_off channel=6 note=36 velocity=122 time=96>, 53904], [<message note_off channel=7 note=60 velocity=121 time=96>, 53904], [<message note_on channel=7 note=79 velocity=119 time=0>, 53904], [<message note_off channel=5 note=48 velocity=122 time=2>, 53906], [<message note_off channel=6 note=12 velocity=121 time=2>, 53906], [<message note_off channel=7 note=36 velocity=120 time=2>, 53906], [<message note_off channel=7 note=79 velocity=119 time=26>, 53932], [<message note_on channel=7 note=79 velocity=120 time=20>, 53952], [<message note_off channel=7 note=79 velocity=120 time=38>, 53990], [<message note_on channel=7 note=81 velocity=120 time=10>, 54000], [<message note_off channel=7 note=81 velocity=120 time=42>, 54042], [<message note_on channel=7 note=79 velocity=120 time=6>, 54048], [<message note_on channel=2 note=67 velocity=113 time=234>, 54096], [<message note_on channel=6 note=43 velocity=112 time=190>, 54096], [<message note_on channel=6 note=55 velocity=111 time=0>, 54096], [<message note_off channel=6 note=43 velocity=112 time=16>, 54112], [<message note_off channel=2 note=67 velocity=113 time=20>, 54116], [<message note_off channel=6 note=55 velocity=111 time=4>, 54116], [<message note_on channel=2 note=67 velocity=108 time=28>, 54144], [<message note_on channel=6 note=43 velocity=113 time=28>, 54144], [<message note_on channel=6 note=55 velocity=113 time=0>, 54144], [<message note_off channel=6 note=55 velocity=113 time=20>, 54164], [<message note_off channel=6 note=43 velocity=113 time=0>, 54164], [<message note_off channel=2 note=67 velocity=108 time=46>, 54190], [<message note_on channel=2 note=69 velocity=118 time=2>, 54192], [<message note_on channel=6 note=45 velocity=117 time=28>, 54192], [<message note_on channel=6 note=57 velocity=116 time=0>, 54192], [<message note_off channel=2 note=69 velocity=118 time=42>, 54234], [<message note_off channel=6 note=57 velocity=116 time=46>, 54238], [<message note_on channel=2 note=67 velocity=118 time=6>, 54240], [<message note_on channel=6 note=43 velocity=116 time=2>, 54240], [<message note_on channel=6 note=55 velocity=115 time=0>, 54240], [<message note_off channel=6 note=45 velocity=117 time=2>, 54242], [<message note_off channel=7 note=79 velocity=120 time=222>, 54270], [<message note_on channel=1 note=43 velocity=121 time=388>, 54286], [<message note_off channel=6 note=55 velocity=115 time=44>, 54286], [<message note_on channel=0 note=72 velocity=123 time=418>, 54288], [<message note_on channel=0 note=76 velocity=121 time=0>, 54288], [<message note_on channel=2 note=48 velocity=120 time=48>, 54288], [<message note_on channel=2 note=55 velocity=120 time=0>, 54288], [<message note_on channel=2 note=64 velocity=119 time=0>, 54288], [<message note_on channel=6 note=52 velocity=121 time=2>, 54288], [<message note_on channel=6 note=55 velocity=120 time=0>, 54288], [<message note_on channel=7 note=76 velocity=120 time=18>, 54288], [<message note_on channel=7 note=79 velocity=120 time=0>, 54288], [<message note_on channel=12 note=76 velocity=122 time=424>, 54288], [<message note_on channel=10 note=36 velocity=115 time=454>, 54288], [<message note_on channel=10 note=48 velocity=110 time=0>, 54288], [<message note_on channel=9 note=81 velocity=103 time=428>, 54296], [<message note_off channel=10 note=48 velocity=110 time=14>, 54302], [<message note_off channel=12 note=76 velocity=122 time=18>, 54306], [<message note_off channel=10 note=36 velocity=115 time=4>, 54306], [<message note_off channel=1 note=43 velocity=121 time=22>, 54308], [<message note_off channel=2 note=55 velocity=120 time=20>, 54308], [<message note_off channel=0 note=72 velocity=123 time=22>, 54310], [<message note_off channel=6 note=55 velocity=120 time=22>, 54310], [<message note_off channel=2 note=48 velocity=120 time=4>, 54312], [<message note_off channel=6 note=43 velocity=116 time=2>, 54312], [<message note_off channel=7 note=79 velocity=120 time=24>, 54312], [<message note_off channel=0 note=76 velocity=121 time=6>, 54316], [<message note_off channel=2 note=64 velocity=119 time=6>, 54318], [<message note_off channel=6 note=52 velocity=121 time=6>, 54318], [<message note_off channel=7 note=76 velocity=120 time=6>, 54318], [<message note_off channel=9 note=81 velocity=103 time=24>, 54320], [<message note_on channel=1 note=43 velocity=123 time=26>, 54334], [<message note_on channel=0 note=72 velocity=123 time=20>, 54336], [<message note_on channel=0 note=76 velocity=116 time=0>, 54336], [<message note_on channel=2 note=48 velocity=113 time=18>, 54336], [<message note_on channel=2 note=55 velocity=116 time=0>, 54336], [<message note_on channel=2 note=64 velocity=118 time=0>, 54336], [<message note_on channel=6 note=43 velocity=101 time=18>, 54336], [<message note_on channel=6 note=52 velocity=118 time=0>, 54336], [<message note_on channel=6 note=55 velocity=119 time=0>, 54336], [<message note_on channel=7 note=76 velocity=118 time=18>, 54336], [<message note_on channel=7 note=79 velocity=119 time=0>, 54336], [<message note_on channel=12 note=76 velocity=123 time=30>, 54336], [<message note_on channel=10 note=36 velocity=111 time=30>, 54336], [<message note_on channel=10 note=48 velocity=110 time=0>, 54336], [<message note_off channel=6 note=43 velocity=101 time=4>, 54340], [<message note_on channel=9 note=81 velocity=103 time=20>, 54340], [<message note_off channel=2 note=67 velocity=118 time=6>, 54342], [<message note_off channel=10 note=48 velocity=110 time=14>, 54350], [<message note_off channel=10 note=36 velocity=111 time=2>, 54352], [<message note_off channel=12 note=76 velocity=123 time=18>, 54354], [<message note_off channel=2 note=64 velocity=118 time=14>, 54356], [<message note_off channel=2 note=55 velocity=116 time=0>, 54356], [<message note_off channel=2 note=48 velocity=113 time=0>, 54356], [<message note_off channel=1 note=43 velocity=123 time=26>, 54360], [<message note_off channel=9 note=81 velocity=103 time=22>, 54362], [<message note_off channel=0 note=72 velocity=123 time=28>, 54364], [<message note_off channel=0 note=76 velocity=116 time=2>, 54366], [<message note_off channel=6 note=52 velocity=118 time=34>, 54374], [<message note_off channel=7 note=76 velocity=118 time=38>, 54374], [<message note_on channel=1 note=45 velocity=121 time=22>, 54382], [<message note_on channel=0 note=74 velocity=123 time=18>, 54384], [<message note_on channel=0 note=77 velocity=122 time=0>, 54384], [<message note_on channel=2 note=50 velocity=122 time=28>, 54384], [<message note_on channel=2 note=57 velocity=119 time=0>, 54384], [<message note_on channel=2 note=65 velocity=115 time=0>, 54384], [<message note_on channel=6 note=53 velocity=119 time=10>, 54384], [<message note_on channel=7 note=77 velocity=119 time=10>, 54384], [<message note_on channel=12 note=77 velocity=124 time=30>, 54384], [<message note_on channel=10 note=36 velocity=121 time=32>, 54384], [<message note_on channel=10 note=48 velocity=119 time=0>, 54384], [<message note_on channel=9 note=81 velocity=114 time=28>, 54390], [<message note_off channel=10 note=48 velocity=119 time=18>, 54402], [<message note_off channel=10 note=36 velocity=121 time=0>, 54402], [<message note_off channel=2 note=65 velocity=115 time=20>, 54404], [<message note_off channel=2 note=57 velocity=119 time=0>, 54404], [<message note_off channel=2 note=50 velocity=122 time=0>, 54404], [<message note_off channel=0 note=74 velocity=123 time=22>, 54406], [<message note_off channel=1 note=45 velocity=121 time=26>, 54408], [<message note_off channel=12 note=77 velocity=124 time=26>, 54410], [<message note_off channel=9 note=81 velocity=114 time=22>, 54412], [<message note_off channel=0 note=77 velocity=122 time=14>, 54420], [<message note_off channel=6 note=55 velocity=119 time=36>, 54420], [<message note_off channel=7 note=79 velocity=119 time=36>, 54420], [<message note_off channel=6 note=53 velocity=119 time=2>, 54422], [<message note_off channel=7 note=77 velocity=119 time=2>, 54422], [<message note_on channel=1 note=43 velocity=122 time=22>, 54430], [<message note_on channel=0 note=72 velocity=118 time=12>, 54432], [<message note_on channel=0 note=76 velocity=122 time=0>, 54432], [<message note_on channel=2 note=48 velocity=108 time=28>, 54432], [<message note_on channel=2 note=55 velocity=121 time=0>, 54432], [<message note_on channel=2 note=64 velocity=120 time=0>, 54432], [<message note_on channel=6 note=52 velocity=119 time=10>, 54432], [<message note_on channel=6 note=55 velocity=119 time=0>, 54432], [<message note_on channel=7 note=76 velocity=119 time=10>, 54432], [<message note_on channel=7 note=79 velocity=119 time=0>, 54432], [<message note_on channel=12 note=76 velocity=122 time=22>, 54432], [<message note_on channel=10 note=36 velocity=117 time=30>, 54432], [<message note_on channel=10 note=48 velocity=107 time=0>, 54432], [<message note_on channel=9 note=81 velocity=117 time=26>, 54438], [<message note_off channel=10 note=48 velocity=107 time=10>, 54442], [<message note_off channel=10 note=36 velocity=117 time=2>, 54444], [<message note_off channel=1 note=43 velocity=122 time=22>, 54452], [<message note_off channel=2 note=64 velocity=120 time=20>, 54452], [<message note_off channel=2 note=55 velocity=121 time=0>, 54452], [<message note_off channel=2 note=48 velocity=108 time=0>, 54452], [<message note_off channel=12 note=76 velocity=122 time=22>, 54454], [<message note_off channel=0 note=72 velocity=118 time=28>, 54460], [<message note_off channel=9 note=81 velocity=117 time=22>, 54460], [<message note_off channel=6 note=55 velocity=119 time=32>, 54464], [<message note_off channel=6 note=52 velocity=119 time=0>, 54464], [<message note_off channel=7 note=79 velocity=119 time=32>, 54464], [<message note_off channel=7 note=76 velocity=119 time=0>, 54464], [<message note_off channel=0 note=76 velocity=122 time=6>, 54466], [<message note_on channel=1 note=41 velocity=125 time=26>, 54478], [<message note_on channel=0 note=71 velocity=123 time=14>, 54480], [<message note_on channel=0 note=74 velocity=120 time=0>, 54480], [<message note_on channel=2 note=47 velocity=119 time=28>, 54480], [<message note_on channel=2 note=53 velocity=118 time=0>, 54480], [<message note_on channel=2 note=62 velocity=119 time=0>, 54480], [<message note_on channel=6 note=50 velocity=120 time=16>, 54480], [<message note_on channel=6 note=55 velocity=119 time=0>, 54480], [<message note_on channel=7 note=74 velocity=120 time=16>, 54480], [<message note_on channel=7 note=79 velocity=119 time=0>, 54480], [<message note_on channel=12 note=74 velocity=123 time=26>, 54480], [<message note_on channel=10 note=36 velocity=122 time=36>, 54480], [<message note_on channel=10 note=48 velocity=119 time=0>, 54480], [<message note_on channel=9 note=81 velocity=117 time=26>, 54486], [<message note_off channel=10 note=48 velocity=119 time=18>, 54498], [<message note_off channel=0 note=74 velocity=120 time=20>, 54500], [<message note_off channel=0 note=71 velocity=123 time=0>, 54500], [<message note_off channel=1 note=41 velocity=125 time=22>, 54500], [<message note_off channel=2 note=62 velocity=119 time=20>, 54500], [<message note_off channel=2 note=53 velocity=118 time=0>, 54500], [<message note_off channel=2 note=47 velocity=119 time=0>, 54500], [<message note_off channel=10 note=36 velocity=122 time=4>, 54502], [<message note_off channel=12 note=74 velocity=123 time=26>, 54506], [<message note_off channel=9 note=81 velocity=117 time=20>, 54506], [<message note_off channel=6 note=50 velocity=120 time=30>, 54510], [<message note_off channel=7 note=74 velocity=120 time=30>, 54510], [<message note_off channel=6 note=55 velocity=119 time=2>, 54512], [<message note_off channel=7 note=79 velocity=119 time=2>, 54512], [<message note_on channel=1 note=40 velocity=122 time=26>, 54526], [<message note_on channel=0 note=69 velocity=123 time=28>, 54528], [<message note_on channel=0 note=72 velocity=123 time=0>, 54528], [<message note_on channel=2 note=45 velocity=119 time=28>, 54528], [<message note_on channel=2 note=52 velocity=121 time=0>, 54528], [<message note_on channel=2 note=60 velocity=119 time=0>, 54528], [<message note_on channel=6 note=48 velocity=120 time=16>, 54528], [<message note_on channel=6 note=55 velocity=119 time=0>, 54528], [<message note_on channel=7 note=72 velocity=120 time=16>, 54528], [<message note_on channel=7 note=79 velocity=119 time=0>, 54528], [<message note_on channel=12 note=72 velocity=122 time=22>, 54528], [<message note_on channel=10 note=36 velocity=121 time=26>, 54528], [<message note_on channel=10 note=48 velocity=119 time=0>, 54528], [<message note_on channel=9 note=81 velocity=118 time=28>, 54534], [<message note_off channel=2 note=60 velocity=119 time=18>, 54546], [<message note_off channel=10 note=48 velocity=119 time=18>, 54546], [<message note_off channel=10 note=36 velocity=121 time=0>, 54546], [<message note_off channel=2 note=52 velocity=121 time=2>, 54548], [<message note_off channel=2 note=45 velocity=119 time=0>, 54548], [<message note_off channel=0 note=72 velocity=123 time=22>, 54550], [<message note_off channel=0 note=69 velocity=123 time=0>, 54550], [<message note_off channel=12 note=72 velocity=122 time=22>, 54550], [<message note_off channel=1 note=40 velocity=122 time=26>, 54552], [<message note_off channel=6 note=48 velocity=120 time=26>, 54554], [<message note_off channel=7 note=72 velocity=120 time=26>, 54554], [<message note_off channel=6 note=55 velocity=119 time=4>, 54558], [<message note_off channel=7 note=79 velocity=119 time=4>, 54558], [<message note_off channel=9 note=81 velocity=118 time=24>, 54558], [<message note_on channel=1 note=38 velocity=121 time=22>, 54574], [<message note_on channel=0 note=67 velocity=123 time=26>, 54576], [<message note_on channel=0 note=71 velocity=123 time=0>, 54576], [<message note_on channel=2 note=43 velocity=123 time=28>, 54576], [<message note_on channel=2 note=50 velocity=123 time=0>, 54576], [<message note_on channel=2 note=59 velocity=122 time=0>, 54576], [<message note_on channel=6 note=47 velocity=121 time=18>, 54576], [<message note_on channel=6 note=55 velocity=121 time=0>, 54576], [<message note_on channel=7 note=71 velocity=120 time=18>, 54576], [<message note_on channel=7 note=79 velocity=120 time=0>, 54576], [<message note_on channel=12 note=71 velocity=122 time=26>, 54576], [<message note_on channel=10 note=36 velocity=121 time=30>, 54576], [<message note_on channel=10 note=48 velocity=121 time=0>, 54576], [<message note_on channel=9 note=81 velocity=120 time=26>, 54584], [<message note_off channel=10 note=36 velocity=121 time=20>, 54596], [<message note_off channel=10 note=48 velocity=121 time=2>, 54598], [<message note_off channel=9 note=81 velocity=120 time=24>, 54608], [<message note_off channel=0 note=71 velocity=123 time=34>, 54610], [<message note_off channel=0 note=67 velocity=123 time=0>, 54610], [<message note_off channel=6 note=47 velocity=121 time=50>, 54626], [<message note_off channel=7 note=71 velocity=120 time=50>, 54626], [<message note_off channel=12 note=71 velocity=122 time=52>, 54628], [<message note_off channel=6 note=55 velocity=121 time=4>, 54630], [<message note_off channel=7 note=79 velocity=120 time=4>, 54630], [<message note_off channel=2 note=50 velocity=123 time=56>, 54632], [<message note_off channel=2 note=59 velocity=122 time=4>, 54636], [<message note_off channel=2 note=43 velocity=123 time=0>, 54636], [<message note_off channel=1 note=38 velocity=121 time=76>, 54650], [<message note_on channel=0 note=62 velocity=123 time=62>, 54672], [<message note_on channel=0 note=67 velocity=123 time=0>, 54672], [<message note_on channel=0 note=71 velocity=123 time=0>, 54672], [<message note_on channel=3 note=55 velocity=113 time=5760>, 54672], [<message note_on channel=6 note=55 velocity=119 time=42>, 54672], [<message note_on channel=7 note=79 velocity=119 time=44>, 54674], [<message note_off channel=0 note=62 velocity=123 time=36>, 54708], [<message note_off channel=0 note=67 velocity=123 time=34>, 54742], [<message note_off channel=6 note=55 velocity=119 time=72>, 54744], [<message note_off channel=7 note=79 velocity=119 time=72>, 54746], [<message note_off channel=0 note=71 velocity=123 time=14>, 54756], [<message note_on channel=1 note=36 velocity=123 time=116>, 54766], [<message note_on channel=1 note=38 velocity=110 time=0>, 54766], [<message note_off channel=3 note=55 velocity=113 time=94>, 54766], [<message note_on channel=9 note=35 velocity=123 time=158>, 54766], [<message note_on channel=9 note=49 velocity=123 time=0>, 54766], [<message note_on channel=0 note=48 velocity=119 time=12>, 54768], [<message note_on channel=0 note=55 velocity=123 time=0>, 54768], [<message note_on channel=0 note=60 velocity=123 time=0>, 54768], [<message note_on channel=0 note=64 velocity=123 time=0>, 54768], [<message note_on channel=0 note=67 velocity=123 time=0>, 54768], [<message note_on channel=0 note=72 velocity=122 time=0>, 54768], [<message note_on channel=2 note=55 velocity=119 time=132>, 54768], [<message note_on channel=2 note=60 velocity=119 time=0>, 54768], [<message note_on channel=3 note=48 velocity=113 time=2>, 54768], [<message note_on channel=3 note=52 velocity=113 time=0>, 54768], [<message note_on channel=3 note=60 velocity=113 time=0>, 54768], [<message note_on channel=6 note=59 velocity=121 time=24>, 54768], [<message note_on channel=6 note=60 velocity=118 time=0>, 54768], [<message note_off channel=6 note=59 velocity=121 time=4>, 54772], [<message note_on channel=7 note=84 velocity=119 time=26>, 54772], [<message note_on channel=7 note=83 velocity=120 time=2>, 54774], [<message note_on channel=9 note=81 velocity=120 time=8>, 54774], [<message note_off channel=7 note=83 velocity=120 time=4>, 54778], [<message note_off channel=1 note=38 velocity=110 time=22>, 54788], [<message note_off channel=9 note=81 velocity=120 time=24>, 54798], [<message note_on channel=9 note=81 velocity=106 time=66>, 54864], [<message note_off channel=0 note=64 velocity=123 time=104>, 54872], [<message note_off channel=0 note=72 velocity=122 time=8>, 54880], [<message note_off channel=0 note=67 velocity=123 time=0>, 54880], [<message note_off channel=2 note=55 velocity=119 time=112>, 54880], [<message note_off channel=6 note=60 velocity=118 time=108>, 54880], [<message note_off channel=0 note=60 velocity=123 time=2>, 54882], [<message note_off channel=0 note=48 velocity=119 time=0>, 54882], [<message note_off channel=2 note=60 velocity=119 time=2>, 54882], [<message note_off channel=1 note=36 velocity=123 time=96>, 54884], [<message note_off channel=7 note=84 velocity=119 time=106>, 54884], [<message note_off channel=0 note=55 velocity=123 time=6>, 54888], [<message note_off channel=9 note=81 velocity=106 time=28>, 54892], [<message note_off channel=9 note=49 velocity=123 time=10>, 54902], [<message note_off channel=9 note=35 velocity=123 time=0>, 54902], [<message note_on channel=7 note=84 velocity=120 time=22>, 54906], [<message note_on channel=1 note=36 velocity=122 time=26>, 54910], [<message note_on channel=9 note=35 velocity=119 time=8>, 54910], [<message note_on channel=9 note=57 velocity=119 time=0>, 54910], [<message note_on channel=0 note=48 velocity=121 time=24>, 54912], [<message note_on channel=0 note=55 velocity=117 time=0>, 54912], [<message note_on channel=0 note=60 velocity=123 time=0>, 54912], [<message note_on channel=0 note=64 velocity=123 time=0>, 54912], [<message note_on channel=0 note=67 velocity=123 time=0>, 54912], [<message note_on channel=0 note=72 velocity=122 time=0>, 54912], [<message note_on channel=2 note=55 velocity=117 time=30>, 54912], [<message note_on channel=2 note=60 velocity=110 time=0>, 54912], [<message note_on channel=6 note=60 velocity=120 time=32>, 54912], [<message note_on channel=10 note=36 velocity=117 time=314>, 54912], [<message note_on channel=10 note=48 velocity=110 time=0>, 54912], [<message note_off channel=10 note=48 velocity=110 time=20>, 54932], [<message note_off channel=10 note=36 velocity=117 time=0>, 54932], [<message note_off channel=0 note=64 velocity=123 time=22>, 54934], [<message note_off channel=0 note=48 velocity=121 time=0>, 54934], [<message note_off channel=2 note=55 velocity=117 time=24>, 54936], [<message note_off channel=7 note=84 velocity=120 time=30>, 54936], [<message note_off channel=2 note=60 velocity=110 time=4>, 54940], [<message note_off channel=3 note=52 velocity=113 time=172>, 54940], [<message note_off channel=6 note=60 velocity=120 time=28>, 54940], [<message note_off channel=0 note=60 velocity=123 time=14>, 54948], [<message note_off channel=0 note=72 velocity=122 time=2>, 54950], [<message note_off channel=0 note=67 velocity=123 time=2>, 54952], [<message note_off channel=1 note=36 velocity=122 time=44>, 54954], [<message note_off channel=0 note=55 velocity=117 time=6>, 54958], [<message note_on channel=1 note=33 velocity=121 time=4>, 54958], [<message note_off channel=3 note=60 velocity=113 time=18>, 54958], [<message note_off channel=3 note=48 velocity=113 time=0>, 54958], [<message note_off channel=9 note=35 velocity=122 time=48>, 54958], [<message note_off channel=9 note=57 velocity=119 time=0>, 54958], [<message note_on channel=9 note=35 velocity=122 time=0>, 54958], [<message note_on channel=9 note=52 velocity=124 time=0>, 54958], [<message note_on channel=0 note=53 velocity=122 time=2>, 54960], [<message note_on channel=0 note=60 velocity=121 time=0>, 54960], [<message note_on channel=0 note=65 velocity=123 time=0>, 54960], [<message note_on channel=0 note=69 velocity=123 time=0>, 54960], [<message note_on channel=0 note=72 velocity=122 time=0>, 54960], [<message note_on channel=2 note=53 velocity=119 time=20>, 54960], [<message note_on channel=2 note=57 velocity=119 time=0>, 54960], [<message note_on channel=2 note=60 velocity=117 time=0>, 54960], [<message note_on channel=3 note=53 velocity=113 time=2>, 54960], [<message note_on channel=3 note=57 velocity=113 time=0>, 54960], [<message note_on channel=6 note=60 velocity=121 time=20>, 54960], [<message note_on channel=7 note=84 velocity=120 time=24>, 54960], [<message note_on channel=9 note=81 velocity=117 time=2>, 54960], [<message note_on channel=10 note=36 velocity=122 time=28>, 54960], [<message note_on channel=10 note=48 velocity=122 time=0>, 54960], [<message note_off channel=10 note=36 velocity=122 time=18>, 54978], [<message note_off channel=2 note=53 velocity=119 time=20>, 54980], [<message note_off channel=2 note=57 velocity=119 time=2>, 54982], [<message note_off channel=10 note=48 velocity=122 time=4>, 54982], [<message note_off channel=9 note=81 velocity=117 time=24>, 54984], [<message note_off channel=0 note=65 velocity=123 time=32>, 54992], [<message note_off channel=2 note=60 velocity=117 time=10>, 54992], [<message note_off channel=0 note=72 velocity=122 time=4>, 54996], [<message note_off channel=6 note=60 velocity=121 time=36>, 54996], [<message note_off channel=7 note=84 velocity=120 time=36>, 54996], [<message note_off channel=0 note=69 velocity=123 time=4>, 55000], [<message note_off channel=0 note=53 velocity=122 time=2>, 55002], [<message note_off channel=0 note=60 velocity=121 time=2>, 55004], [<message note_off channel=9 note=35 velocity=119 time=22>, 55006], [<message note_off channel=1 note=33 velocity=121 time=94>, 55052], [<message note_on channel=1 note=33 velocity=120 time=2>, 55054], [<message note_on channel=7 note=84 velocity=119 time=58>, 55054], [<message note_on channel=0 note=53 velocity=119 time=52>, 55056], [<message note_on channel=0 note=60 velocity=122 time=0>, 55056], [<message note_on channel=0 note=65 velocity=123 time=0>, 55056], [<message note_on channel=0 note=69 velocity=123 time=0>, 55056], [<message note_on channel=0 note=72 velocity=123 time=0>, 55056], [<message note_on channel=2 note=53 velocity=119 time=64>, 55056], [<message note_on channel=2 note=57 velocity=119 time=0>, 55056], [<message note_on channel=2 note=60 velocity=119 time=0>, 55056], [<message note_on channel=6 note=60 velocity=119 time=60>, 55056], [<message note_on channel=9 note=81 velocity=116 time=60>, 55066], [<message note_off channel=2 note=53 velocity=119 time=18>, 55074], [<message note_off channel=0 note=65 velocity=123 time=20>, 55076], [<message note_off channel=1 note=33 velocity=120 time=22>, 55076], [<message note_off channel=0 note=69 velocity=123 time=2>, 55078], [<message note_off channel=2 note=57 velocity=119 time=4>, 55078], [<message note_off channel=0 note=60 velocity=122 time=4>, 55082], [<message note_off channel=2 note=60 velocity=119 time=4>, 55082], [<message note_off channel=7 note=84 velocity=119 time=28>, 55082], [<message note_off channel=0 note=53 velocity=119 time=2>, 55084], [<message note_off channel=6 note=60 velocity=119 time=28>, 55084], [<message note_off channel=0 note=72 velocity=123 time=2>, 55086], [<message note_off channel=9 note=81 velocity=116 time=20>, 55086], [<message note_on channel=7 note=84 velocity=118 time=16>, 55098], [<message note_on channel=1 note=33 velocity=118 time=26>, 55102], [<message note_off channel=9 note=52 velocity=124 time=16>, 55102], [<message note_on channel=0 note=53 velocity=119 time=18>, 55104], [<message note_on channel=0 note=60 velocity=119 time=0>, 55104], [<message note_on channel=0 note=65 velocity=122 time=0>, 55104], [<message note_on channel=0 note=69 velocity=123 time=0>, 55104], [<message note_on channel=0 note=72 velocity=122 time=0>, 55104], [<message note_on channel=2 note=53 velocity=114 time=22>, 55104], [<message note_on channel=2 note=57 velocity=114 time=0>, 55104], [<message note_on channel=2 note=60 velocity=111 time=0>, 55104], [<message note_on channel=6 note=60 velocity=117 time=20>, 55104], [<message note_off channel=2 note=57 velocity=114 time=16>, 55120], [<message note_off channel=0 note=65 velocity=122 time=20>, 55124], [<message note_off channel=2 note=53 velocity=114 time=4>, 55124], [<message note_off channel=1 note=33 velocity=118 time=26>, 55128], [<message note_off channel=0 note=60 velocity=119 time=8>, 55132], [<message note_off channel=2 note=60 velocity=111 time=8>, 55132], [<message note_off channel=0 note=69 velocity=123 time=2>, 55134], [<message note_off channel=7 note=84 velocity=118 time=38>, 55136], [<message note_off channel=0 note=72 velocity=122 time=6>, 55140], [<message note_off channel=6 note=60 velocity=117 time=36>, 55140], [<message note_off channel=0 note=53 velocity=119 time=4>, 55144], [<message note_off channel=3 note=53 velocity=113 time=188>, 55148], [<message note_on channel=7 note=83 velocity=119 time=12>, 55148], [<message note_on channel=1 note=35 velocity=124 time=22>, 55150], [<message note_off channel=3 note=57 velocity=113 time=2>, 55150], [<message note_on channel=9 note=35 velocity=124 time=48>, 55150], [<message note_on channel=9 note=55 velocity=127 time=0>, 55150], [<message note_on channel=0 note=52 velocity=123 time=8>, 55152], [<message note_on channel=0 note=59 velocity=123 time=0>, 55152], [<message note_on channel=0 note=64 velocity=123 time=0>, 55152], [<message note_on channel=0 note=68 velocity=122 time=0>, 55152], [<message note_on channel=0 note=71 velocity=123 time=0>, 55152], [<message note_on channel=2 note=52 velocity=118 time=20>, 55152], [<message note_on channel=2 note=56 velocity=118 time=0>, 55152], [<message note_on channel=2 note=59 velocity=118 time=0>, 55152], [<message note_on channel=3 note=52 velocity=113 time=2>, 55152], [<message note_on channel=3 note=56 velocity=113 time=0>, 55152], [<message note_on channel=3 note=59 velocity=113 time=0>, 55152], [<message note_on channel=6 note=59 velocity=118 time=12>, 55152], [<message note_on channel=10 note=36 velocity=122 time=170>, 55152], [<message note_on channel=10 note=48 velocity=122 time=0>, 55152], [<message note_on channel=9 note=81 velocity=118 time=8>, 55158], [<message note_off channel=10 note=48 velocity=122 time=16>, 55168], [<message note_off channel=2 note=52 velocity=118 time=18>, 55170], [<message note_off channel=0 note=64 velocity=123 time=22>, 55174], [<message note_off channel=2 note=56 velocity=118 time=4>, 55174], [<message note_off channel=10 note=36 velocity=122 time=8>, 55176], [<message note_off channel=0 note=68 velocity=122 time=6>, 55180], [<message note_off channel=0 note=59 velocity=123 time=0>, 55180], [<message note_off channel=0 note=52 velocity=123 time=0>, 55180], [<message note_off channel=2 note=59 velocity=118 time=6>, 55180], [<message note_off channel=7 note=83 velocity=119 time=32>, 55180], [<message note_off channel=9 note=81 velocity=118 time=24>, 55182], [<message note_off channel=0 note=71 velocity=123 time=4>, 55184], [<message note_off channel=6 note=59 velocity=118 time=32>, 55184], [<message note_on channel=7 note=83 velocity=118 time=18>, 55198], [<message note_on channel=0 note=52 velocity=113 time=16>, 55200], [<message note_on channel=0 note=59 velocity=123 time=0>, 55200], [<message note_on channel=0 note=64 velocity=121 time=0>, 55200], [<message note_on channel=0 note=68 velocity=123 time=0>, 55200], [<message note_on channel=0 note=71 velocity=120 time=0>, 55200], [<message note_on channel=2 note=52 velocity=106 time=20>, 55200], [<message note_on channel=2 note=56 velocity=107 time=0>, 55200], [<message note_on channel=2 note=59 velocity=110 time=0>, 55200], [<message note_on channel=6 note=59 velocity=116 time=16>, 55200], [<message note_off channel=2 note=52 velocity=106 time=16>, 55216], [<message note_off channel=0 note=64 velocity=121 time=24>, 55224], [<message note_off channel=2 note=59 velocity=110 time=8>, 55224], [<message note_off channel=2 note=56 velocity=107 time=0>, 55224], [<message note_off channel=9 note=55 velocity=127 time=42>, 55224], [<message note_off channel=9 note=35 velocity=124 time=0>, 55224], [<message note_off channel=0 note=59 velocity=123 time=2>, 55226], [<message note_off channel=0 note=52 velocity=113 time=0>, 55226], [<message note_off channel=0 note=71 velocity=120 time=2>, 55228], [<message note_off channel=7 note=83 velocity=118 time=30>, 55228], [<message note_off channel=0 note=68 velocity=123 time=2>, 55230], [<message note_off channel=6 note=59 velocity=116 time=30>, 55230], [<message note_on channel=9 note=35 velocity=123 time=22>, 55246], [<message note_on channel=9 note=49 velocity=123 time=0>, 55246], [<message note_on channel=0 note=52 velocity=112 time=18>, 55248], [<message note_on channel=0 note=59 velocity=122 time=0>, 55248], [<message note_on channel=0 note=64 velocity=123 time=0>, 55248], [<message note_on channel=0 note=68 velocity=122 time=0>, 55248], [<message note_on channel=0 note=71 velocity=122 time=0>, 55248], [<message note_on channel=2 note=52 velocity=116 time=24>, 55248], [<message note_on channel=2 note=56 velocity=116 time=0>, 55248], [<message note_on channel=2 note=59 velocity=117 time=0>, 55248], [<message note_on channel=6 note=59 velocity=119 time=18>, 55248], [<message note_on channel=7 note=83 velocity=119 time=20>, 55248], [<message note_on channel=9 note=81 velocity=116 time=6>, 55252], [<message note_off channel=1 note=35 velocity=124 time=112>, 55262], [<message note_off channel=0 note=64 velocity=123 time=20>, 55268], [<message note_off channel=2 note=52 velocity=116 time=20>, 55268], [<message note_off channel=0 note=59 velocity=122 time=2>, 55270], [<message note_off channel=0 note=52 velocity=112 time=0>, 55270], [<message note_off channel=0 note=71 velocity=122 time=2>, 55272], [<message note_off channel=0 note=68 velocity=122 time=0>, 55272], [<message note_off channel=2 note=56 velocity=116 time=4>, 55272], [<message note_off channel=2 note=59 velocity=117 time=2>, 55274], [<message note_off channel=9 note=81 velocity=116 time=24>, 55276], [<message note_off channel=6 note=59 velocity=119 time=30>, 55278], [<message note_off channel=7 note=83 velocity=119 time=30>, 55278], [<message note_on channel=1 note=35 velocity=124 time=32>, 55294], [<message note_on channel=0 note=52 velocity=122 time=24>, 55296], [<message note_on channel=0 note=59 velocity=123 time=0>, 55296], [<message note_on channel=0 note=64 velocity=123 time=0>, 55296], [<message note_on channel=0 note=68 velocity=123 time=0>, 55296], [<message note_on channel=0 note=71 velocity=121 time=0>, 55296], [<message note_on channel=2 note=52 velocity=116 time=22>, 55296], [<message note_on channel=2 note=56 velocity=116 time=0>, 55296], [<message note_on channel=2 note=59 velocity=115 time=0>, 55296], [<message note_on channel=6 note=59 velocity=117 time=18>, 55296], [<message note_on channel=7 note=83 velocity=118 time=18>, 55296], [<message note_on channel=10 note=36 velocity=118 time=120>, 55296], [<message note_on channel=10 note=48 velocity=115 time=0>, 55296], [<message note_off channel=9 note=49 velocity=123 time=26>, 55302], [<message note_off channel=9 note=35 velocity=123 time=8>, 55310], [<message note_off channel=10 note=48 velocity=115 time=18>, 55314], [<message note_off channel=10 note=36 velocity=118 time=0>, 55314], [<message note_off channel=0 note=59 velocity=123 time=20>, 55316], [<message note_off channel=2 note=52 velocity=116 time=20>, 55316], [<message note_off channel=0 note=64 velocity=123 time=4>, 55320], [<message note_off channel=0 note=52 velocity=122 time=4>, 55324], [<message note_off channel=2 note=56 velocity=116 time=10>, 55326], [<message note_off channel=1 note=35 velocity=124 time=34>, 55328], [<message note_off channel=2 note=59 velocity=115 time=2>, 55328], [<message note_off channel=0 note=71 velocity=121 time=6>, 55330], [<message note_off channel=0 note=68 velocity=123 time=0>, 55330], [<message note_off channel=6 note=59 velocity=117 time=38>, 55334], [<message note_off channel=7 note=83 velocity=118 time=38>, 55334], [<message note_on channel=1 note=40 velocity=123 time=14>, 55342], [<message note_off channel=3 note=59 velocity=113 time=190>, 55342], [<message note_off channel=3 note=56 velocity=113 time=0>, 55342], [<message note_off channel=3 note=52 velocity=113 time=0>, 55342], [<message note_on channel=9 note=35 velocity=124 time=32>, 55342], [<message note_on channel=9 note=57 velocity=123 time=0>, 55342], [<message note_on channel=0 note=45 velocity=123 time=14>, 55344], [<message note_on channel=0 note=57 velocity=123 time=0>, 55344], [<message note_on channel=0 note=64 velocity=123 time=0>, 55344], [<message note_on channel=0 note=69 velocity=123 time=0>, 55344], [<message note_on channel=0 note=72 velocity=122 time=0>, 55344], [<message note_on channel=2 note=52 velocity=118 time=16>, 55344], [<message note_on channel=2 note=57 velocity=119 time=0>, 55344], [<message note_on channel=2 note=60 velocity=116 time=0>, 55344], [<message note_on channel=3 note=57 velocity=113 time=2>, 55344], [<message note_on channel=3 note=60 velocity=113 time=0>, 55344], [<message note_on channel=6 note=52 velocity=121 time=10>, 55344], [<message note_on channel=10 note=36 velocity=121 time=30>, 55344], [<message note_on channel=10 note=48 velocity=122 time=0>, 55344], [<message note_on channel=7 note=76 velocity=120 time=12>, 55346], [<message note_on channel=9 note=81 velocity=119 time=6>, 55348], [<message note_off channel=10 note=48 velocity=122 time=18>, 55362], [<message note_off channel=10 note=36 velocity=121 time=0>, 55362], [<message note_off channel=9 note=81 velocity=119 time=24>, 55372], [<message note_off channel=2 note=52 velocity=118 time=34>, 55378], [<message note_off channel=0 note=69 velocity=123 time=38>, 55382], [<message note_off channel=2 note=57 velocity=119 time=4>, 55382], [<message note_off channel=0 note=72 velocity=122 time=2>, 55384], [<message note_off channel=2 note=60 velocity=116 time=4>, 55386], [<message note_off channel=0 note=64 velocity=123 time=4>, 55388], [<message note_off channel=0 note=45 velocity=123 time=0>, 55388], [<message note_off channel=0 note=57 velocity=123 time=4>, 55392], [<message note_off channel=6 note=52 velocity=121 time=54>, 55398], [<message note_off channel=7 note=76 velocity=120 time=54>, 55400], [<message note_on channel=0 note=45 velocity=122 time=48>, 55440], [<message note_on channel=0 note=57 velocity=123 time=0>, 55440], [<message note_on channel=0 note=64 velocity=123 time=0>, 55440], [<message note_on channel=0 note=69 velocity=123 time=0>, 55440], [<message note_on channel=0 note=72 velocity=123 time=0>, 55440], [<message note_on channel=2 note=52 velocity=120 time=54>, 55440], [<message note_on channel=2 note=57 velocity=122 time=0>, 55440], [<message note_on channel=2 note=60 velocity=118 time=0>, 55440], [<message note_on channel=6 note=52 velocity=121 time=42>, 55440], [<message note_on channel=7 note=76 velocity=120 time=42>, 55442], [<message note_on channel=9 note=81 velocity=118 time=78>, 55450], [<message note_off channel=1 note=40 velocity=123 time=114>, 55456], [<message note_off channel=0 note=45 velocity=122 time=22>, 55462], [<message note_off channel=0 note=69 velocity=123 time=8>, 55470], [<message note_off channel=0 note=64 velocity=123 time=0>, 55470], [<message note_off channel=0 note=57 velocity=123 time=2>, 55472], [<message note_off channel=0 note=72 velocity=123 time=4>, 55476], [<message note_off channel=2 note=52 velocity=120 time=38>, 55478], [<message note_off channel=9 note=81 velocity=118 time=28>, 55478], [<message note_off channel=2 note=60 velocity=118 time=4>, 55482], [<message note_off channel=2 note=57 velocity=122 time=2>, 55484], [<message note_on channel=1 note=40 velocity=123 time=30>, 55486], [<message note_off channel=9 note=57 velocity=123 time=20>, 55498], [<message note_off channel=3 note=57 velocity=113 time=156>, 55500], [<message note_off channel=9 note=35 velocity=124 time=8>, 55506], [<message note_off channel=6 note=52 velocity=121 time=72>, 55512], [<message note_off channel=7 note=76 velocity=120 time=72>, 55514], [<message note_off channel=1 note=40 velocity=123 time=44>, 55530], [<message note_on channel=1 note=36 velocity=123 time=4>, 55534], [<message note_off channel=3 note=60 velocity=113 time=34>, 55534], [<message note_on channel=9 note=35 velocity=124 time=28>, 55534], [<message note_on channel=9 note=49 velocity=123 time=0>, 55534], [<message note_on channel=0 note=48 velocity=121 time=60>, 55536], [<message note_on channel=0 note=58 velocity=123 time=0>, 55536], [<message note_on channel=0 note=60 velocity=123 time=0>, 55536], [<message note_on channel=0 note=64 velocity=123 time=0>, 55536], [<message note_on channel=0 note=67 velocity=123 time=0>, 55536], [<message note_on channel=0 note=70 velocity=123 time=0>, 55536], [<message note_on channel=2 note=52 velocity=118 time=52>, 55536], [<message note_on channel=2 note=55 velocity=119 time=0>, 55536], [<message note_on channel=2 note=58 velocity=103 time=0>, 55536], [<message note_on channel=3 note=48 velocity=113 time=2>, 55536], [<message note_on channel=3 note=55 velocity=113 time=0>, 55536], [<message note_on channel=3 note=58 velocity=113 time=0>, 55536], [<message note_on channel=6 note=50 velocity=120 time=24>, 55536], [<message note_on channel=10 note=36 velocity=122 time=174>, 55536], [<message note_on channel=10 note=48 velocity=119 time=0>, 55536], [<message note_on channel=7 note=74 velocity=120 time=24>, 55538], [<message note_off channel=3 note=55 velocity=113 time=6>, 55542], [<message note_on channel=9 note=81 velocity=117 time=12>, 55546], [<message note_off channel=10 note=48 velocity=119 time=24>, 55560], [<message note_off channel=10 note=36 velocity=122 time=4>, 55564], [<message note_off channel=9 note=81 velocity=117 time=24>, 55570], [<message note_off channel=9 note=35 velocity=124 time=34>, 55604], [<message note_on channel=9 note=35 velocity=123 time=26>, 55630], [<message note_on channel=10 note=36 velocity=107 time=68>, 55632], [<message note_on channel=10 note=48 velocity=107 time=0>, 55632], [<message note_on channel=9 note=81 velocity=115 time=6>, 55636], [<message note_off channel=10 note=36 velocity=107 time=16>, 55648], [<message note_off channel=10 note=48 velocity=107 time=2>, 55650], [<message note_off channel=9 note=81 velocity=115 time=28>, 55664], [<message note_off channel=9 note=35 velocity=123 time=24>, 55688], [<message note_on channel=9 note=35 velocity=123 time=38>, 55726], [<message note_off channel=6 note=50 velocity=120 time=192>, 55728], [<message note_on channel=9 note=81 velocity=117 time=2>, 55728], [<message note_on channel=10 note=36 velocity=108 time=78>, 55728], [<message note_off channel=10 note=36 velocity=108 time=12>, 55740], [<message note_off channel=9 note=81 velocity=117 time=28>, 55756], [<message note_on channel=10 note=48 velocity=80 time=36>, 55776], [<message note_off channel=10 note=48 velocity=80 time=8>, 55784], [<message note_off channel=1 note=36 velocity=123 time=254>, 55788], [<message note_off channel=9 note=35 velocity=123 time=42>, 55798], [<message note_off channel=0 note=48 velocity=121 time=286>, 55822], [<message note_on channel=1 note=36 velocity=123 time=34>, 55822], [<message note_on channel=9 note=35 velocity=123 time=24>, 55822], [<message note_on channel=9 note=81 velocity=116 time=0>, 55822], [<message note_on channel=10 note=36 velocity=110 time=40>, 55824], [<message note_on channel=10 note=48 velocity=110 time=0>, 55824], [<message note_off channel=0 note=58 velocity=123 time=18>, 55840], [<message note_off channel=10 note=36 velocity=110 time=16>, 55840], [<message note_off channel=10 note=48 velocity=110 time=2>, 55842], [<message note_off channel=9 note=81 velocity=116 time=26>, 55848], [<message note_off channel=7 note=74 velocity=120 time=332>, 55870], [<message note_on channel=6 note=48 velocity=119 time=144>, 55872], [<message note_on channel=7 note=72 velocity=119 time=2>, 55872], [<message note_off channel=9 note=49 velocity=123 time=30>, 55878], [<message note_off channel=9 note=35 velocity=123 time=6>, 55884], [<message note_off channel=1 note=36 velocity=123 time=64>, 55886], [<message note_off channel=0 note=60 velocity=123 time=48>, 55888], [<message note_off channel=0 note=67 velocity=123 time=4>, 55892], [<message note_off channel=6 note=48 velocity=119 time=24>, 55896], [<message note_off channel=7 note=72 velocity=119 time=24>, 55896], [<message note_off channel=0 note=64 velocity=123 time=6>, 55898], [<message note_on channel=7 note=74 velocity=118 time=2>, 55898], [<message note_off channel=0 note=70 velocity=123 time=10>, 55908], [<message note_off channel=2 note=52 velocity=118 time=374>, 55910], [<message note_off channel=3 note=48 velocity=113 time=372>, 55914], [<message note_on channel=9 note=81 velocity=107 time=30>, 55914], [<message note_on channel=1 note=36 velocity=122 time=32>, 55918], [<message note_off channel=3 note=58 velocity=113 time=4>, 55918], [<message note_on channel=9 note=35 velocity=124 time=4>, 55918], [<message note_on channel=9 note=57 velocity=123 time=0>, 55918], [<message note_on channel=0 note=52 velocity=123 time=12>, 55920], [<message note_on channel=0 note=58 velocity=123 time=0>, 55920], [<message note_on channel=0 note=60 velocity=123 time=0>, 55920], [<message note_on channel=0 note=64 velocity=123 time=0>, 55920], [<message note_on channel=0 note=67 velocity=123 time=0>, 55920], [<message note_on channel=0 note=70 velocity=123 time=0>, 55920], [<message note_on channel=0 note=72 velocity=123 time=0>, 55920], [<message note_on channel=2 note=60 velocity=107 time=10>, 55920], [<message note_on channel=2 note=64 velocity=116 time=0>, 55920], [<message note_on channel=3 note=52 velocity=113 time=2>, 55920], [<message note_on channel=3 note=64 velocity=113 time=0>, 55920], [<message note_on channel=3 note=67 velocity=113 time=0>, 55920], [<message note_off channel=7 note=74 velocity=118 time=22>, 55920], [<message note_on channel=7 note=72 velocity=118 time=0>, 55920], [<message note_on channel=10 note=36 velocity=110 time=78>, 55920], [<message note_on channel=10 note=48 velocity=108 time=0>, 55920], [<message note_off channel=10 note=48 velocity=108 time=18>, 55938], [<message note_off channel=10 note=36 velocity=110 time=0>, 55938], [<message note_off channel=7 note=72 velocity=118 time=20>, 55940], [<message note_off channel=9 note=81 velocity=107 time=24>, 55942], [<message note_on channel=7 note=74 velocity=119 time=4>, 55944], [<message note_off channel=7 note=74 velocity=119 time=18>, 55962], [<message note_on channel=7 note=72 velocity=118 time=2>, 55964], [<message note_off channel=9 note=35 velocity=124 time=38>, 55980], [<message note_on channel=7 note=74 velocity=119 time=22>, 55986], [<message note_off channel=7 note=74 velocity=119 time=2>, 55988], [<message note_off channel=7 note=72 velocity=118 time=0>, 55988], [<message note_on channel=7 note=72 velocity=117 time=20>, 56008], [<message note_on channel=9 note=35 velocity=123 time=34>, 56014], [<message note_on channel=9 note=81 velocity=110 time=0>, 56014], [<message note_on channel=10 note=36 velocity=110 time=78>, 56016], [<message note_on channel=10 note=48 velocity=105 time=0>, 56016], [<message note_on channel=7 note=74 velocity=119 time=22>, 56030], [<message note_off channel=7 note=72 velocity=117 time=2>, 56032], [<message note_off channel=10 note=48 velocity=105 time=18>, 56034], [<message note_off channel=10 note=36 velocity=110 time=0>, 56034], [<message note_off channel=9 note=81 velocity=110 time=24>, 56038], [<message note_off channel=7 note=74 velocity=119 time=14>, 56046], [<message note_on channel=7 note=72 velocity=117 time=6>, 56052], [<message note_on channel=7 note=74 velocity=119 time=20>, 56072], [<message note_off channel=9 note=35 velocity=123 time=34>, 56072], [<message note_off channel=7 note=72 velocity=117 time=2>, 56074], [<message note_off channel=7 note=74 velocity=119 time=18>, 56092], [<message note_on channel=7 note=72 velocity=118 time=4>, 56096], [<message note_on channel=9 note=35 velocity=124 time=38>, 56110], [<message note_on channel=9 note=81 velocity=111 time=0>, 56110], [<message note_on channel=10 note=36 velocity=112 time=78>, 56112], [<message note_on channel=10 note=48 velocity=112 time=0>, 56112], [<message note_off channel=7 note=72 velocity=118 time=22>, 56118], [<message note_on channel=7 note=74 velocity=119 time=0>, 56118], [<message note_off channel=10 note=48 velocity=112 time=18>, 56130], [<message note_off channel=10 note=36 velocity=112 time=2>, 56132], [<message note_off channel=9 note=81 velocity=111 time=24>, 56134], [<message note_off channel=7 note=74 velocity=119 time=20>, 56138], [<message note_on channel=7 note=72 velocity=118 time=4>, 56142], [<message note_on channel=7 note=74 velocity=119 time=20>, 56162], [<message note_off channel=7 note=72 velocity=118 time=2>, 56164], [<message note_off channel=9 note=35 velocity=124 time=44>, 56178], [<message note_off channel=7 note=74 velocity=119 time=18>, 56182], [<message note_on channel=7 note=72 velocity=119 time=6>, 56188], [<message note_on channel=9 note=35 velocity=123 time=28>, 56206], [<message note_on channel=9 note=81 velocity=112 time=0>, 56206], [<message note_off channel=0 note=64 velocity=123 time=288>, 56208], [<message note_on channel=7 note=74 velocity=118 time=20>, 56208], [<message note_on channel=10 note=36 velocity=116 time=76>, 56208], [<message note_on channel=10 note=48 velocity=119 time=0>, 56208], [<message note_off channel=7 note=72 velocity=119 time=2>, 56210], [<message note_off channel=0 note=67 velocity=123 time=4>, 56212], [<message note_off channel=0 note=52 velocity=123 time=4>, 56216], [<message note_off channel=0 note=72 velocity=123 time=6>, 56222], [<message note_off channel=0 note=60 velocity=123 time=0>, 56222], [<message note_off channel=10 note=36 velocity=116 time=14>, 56222], [<message note_off channel=0 note=70 velocity=123 time=2>, 56224], [<message note_off channel=7 note=74 velocity=118 time=14>, 56224], [<message note_off channel=10 note=48 velocity=119 time=2>, 56224], [<message note_off channel=0 note=58 velocity=123 time=2>, 56226], [<message note_off channel=1 note=36 velocity=122 time=312>, 56230], [<message note_on channel=7 note=72 velocity=118 time=6>, 56230], [<message note_off channel=9 note=81 velocity=112 time=24>, 56230], [<message note_off channel=7 note=72 velocity=118 time=22>, 56252], [<message note_on channel=7 note=74 velocity=119 time=0>, 56252], [<message note_on channel=1 note=36 velocity=122 time=24>, 56254], [<message note_off channel=9 note=57 velocity=123 time=34>, 56264], [<message note_off channel=3 note=64 velocity=113 time=348>, 56268], [<message note_off channel=7 note=74 velocity=119 time=20>, 56272], [<message note_off channel=9 note=35 velocity=123 time=8>, 56272], [<message note_on channel=7 note=72 velocity=119 time=6>, 56278], [<message note_off channel=1 note=36 velocity=122 time=26>, 56280], [<message note_off channel=3 note=67 velocity=113 time=24>, 56292], [<message note_on channel=9 note=81 velocity=113 time=26>, 56298], [<message note_on channel=7 note=74 velocity=119 time=22>, 56300], [<message note_on channel=1 note=36 velocity=123 time=22>, 56302], [<message note_off channel=3 note=52 velocity=113 time=10>, 56302], [<message note_off channel=7 note=72 velocity=119 time=2>, 56302], [<message note_on channel=9 note=35 velocity=123 time=4>, 56302], [<message note_on channel=9 note=49 velocity=123 time=0>, 56302], [<message note_on channel=0 note=55 velocity=123 time=78>, 56304], [<message note_on channel=0 note=58 velocity=123 time=0>, 56304], [<message note_on channel=0 note=60 velocity=123 time=0>, 56304], [<message note_on channel=0 note=64 velocity=123 time=0>, 56304], [<message note_on channel=0 note=67 velocity=123 time=0>, 56304], [<message note_on channel=0 note=70 velocity=123 time=0>, 56304], [<message note_on channel=0 note=72 velocity=123 time=0>, 56304], [<message note_on channel=0 note=76 velocity=123 time=0>, 56304], [<message note_on channel=2 note=67 velocity=113 time=384>, 56304], [<message note_on channel=3 note=55 velocity=113 time=2>, 56304], [<message note_on channel=3 note=67 velocity=113 time=0>, 56304], [<message note_off channel=2 note=64 velocity=116 time=4>, 56308], [<message note_off channel=7 note=74 velocity=119 time=16>, 56318], [<message note_off channel=9 note=81 velocity=113 time=20>, 56322], [<message note_on channel=7 note=72 velocity=118 time=6>, 56324], [<message note_off channel=7 note=72 velocity=118 time=20>, 56344], [<message note_on channel=7 note=74 velocity=119 time=0>, 56344], [<message note_off channel=1 note=36 velocity=123 time=48>, 56350], [<message note_on channel=10 note=47 velocity=74 time=128>, 56352], [<message note_on channel=10 note=48 velocity=107 time=0>, 56352], [<message note_off channel=10 note=47 velocity=74 time=4>, 56356], [<message note_off channel=7 note=74 velocity=119 time=16>, 56360], [<message note_off channel=10 note=48 velocity=107 time=10>, 56366], [<message note_on channel=7 note=72 velocity=118 time=8>, 56368], [<message note_off channel=9 note=35 velocity=123 time=48>, 56370], [<message note_off channel=7 note=72 velocity=118 time=20>, 56388], [<message note_on channel=7 note=74 velocity=119 time=0>, 56388], [<message note_on channel=9 note=35 velocity=122 time=28>, 56398], [<message note_on channel=9 note=81 velocity=112 time=0>, 56398], [<message note_on channel=10 note=48 velocity=98 time=34>, 56400], [<message note_off channel=10 note=48 velocity=98 time=2>, 56402], [<message note_off channel=7 note=74 velocity=119 time=20>, 56408], [<message note_on channel=7 note=72 velocity=118 time=6>, 56414], [<message note_off channel=9 note=81 velocity=112 time=24>, 56422], [<message note_off channel=7 note=72 velocity=118 time=20>, 56434], [<message note_on channel=7 note=74 velocity=119 time=0>, 56434], [<message note_on channel=10 note=48 velocity=100 time=46>, 56448], [<message note_off channel=7 note=74 velocity=119 time=20>, 56454], [<message note_on channel=7 note=72 velocity=118 time=6>, 56460], [<message note_off channel=10 note=48 velocity=100 time=12>, 56460], [<message note_off channel=7 note=72 velocity=118 time=2>, 56462], [<message note_off channel=9 note=35 velocity=122 time=44>, 56466], [<message note_on channel=7 note=74 velocity=119 time=18>, 56480], [<message note_on channel=9 note=35 velocity=123 time=28>, 56494], [<message note_on channel=9 note=81 velocity=111 time=0>, 56494], [<message note_on channel=10 note=48 velocity=91 time=36>, 56496], [<message note_off channel=7 note=74 velocity=119 time=20>, 56500], [<message note_on channel=7 note=72 velocity=119 time=6>, 56506], [<message note_off channel=10 note=48 velocity=91 time=14>, 56510], [<message note_off channel=9 note=81 velocity=111 time=24>, 56518], [<message note_off channel=7 note=72 velocity=119 time=20>, 56526], [<message note_on channel=7 note=74 velocity=118 time=2>, 56528], [<message note_on channel=10 note=48 velocity=122 time=34>, 56544], [<message note_off channel=7 note=74 velocity=118 time=18>, 56546], [<message note_on channel=7 note=72 velocity=119 time=4>, 56550], [<message note_off channel=10 note=48 velocity=122 time=14>, 56558], [<message note_off channel=9 note=35 velocity=123 time=44>, 56562], [<message note_off channel=7 note=72 velocity=119 time=24>, 56574], [<message note_on channel=7 note=74 velocity=118 time=0>, 56574], [<message note_off channel=2 note=58 velocity=103 time=282>, 56590], [<message note_off channel=7 note=74 velocity=118 time=16>, 56590], [<message note_on channel=7 note=72 velocity=117 time=0>, 56590], [<message note_on channel=9 note=35 velocity=123 time=28>, 56590], [<message note_on channel=9 note=81 velocity=111 time=0>, 56590], [<message note_on channel=10 note=48 velocity=118 time=34>, 56592], [<message note_off channel=0 note=67 velocity=123 time=292>, 56596], [<message note_off channel=0 note=60 velocity=123 time=0>, 56596], [<message note_off channel=0 note=55 velocity=123 time=2>, 56598], [<message note_off channel=0 note=70 velocity=123 time=2>, 56600], [<message note_off channel=2 note=55 velocity=119 time=12>, 56602], [<message note_off channel=0 note=72 velocity=123 time=6>, 56606], [<message note_off channel=10 note=48 velocity=118 time=14>, 56606], [<message note_off channel=0 note=64 velocity=123 time=4>, 56610], [<message note_off channel=0 note=76 velocity=123 time=2>, 56612], [<message note_off channel=0 note=58 velocity=123 time=0>, 56612], [<message note_off channel=2 note=60 velocity=107 time=10>, 56612], [<message note_off channel=7 note=72 velocity=117 time=22>, 56612], [<message note_on channel=7 note=74 velocity=117 time=0>, 56612], [<message note_off channel=9 note=81 velocity=111 time=24>, 56614], [<message note_on channel=7 note=72 velocity=117 time=14>, 56626], [<message note_off channel=7 note=74 velocity=117 time=4>, 56630], [<message note_on channel=10 note=48 velocity=117 time=34>, 56640], [<message note_off channel=7 note=72 velocity=117 time=20>, 56650], [<message note_on channel=7 note=71 velocity=111 time=4>, 56654], [<message note_off channel=10 note=48 velocity=117 time=14>, 56654], [<message note_off channel=9 note=35 velocity=123 time=48>, 56662], [<message note_off channel=9 note=49 velocity=123 time=0>, 56662], [<message note_on channel=7 note=72 velocity=119 time=20>, 56674], [<message note_off channel=7 note=71 velocity=111 time=2>, 56676], [<message note_on channel=9 note=81 velocity=115 time=14>, 56676], [<message note_off channel=3 note=67 velocity=113 time=382>, 56686], [<message note_off channel=3 note=55 velocity=113 time=0>, 56686], [<message note_on channel=9 note=35 velocity=124 time=10>, 56686], [<message note_on channel=9 note=49 velocity=124 time=0>, 56686], [<message note_on channel=0 note=60 velocity=123 time=76>, 56688], [<message note_on channel=0 note=67 velocity=123 time=0>, 56688], [<message note_on channel=0 note=70 velocity=123 time=0>, 56688], [<message note_on channel=0 note=72 velocity=123 time=0>, 56688], [<message note_on channel=0 note=76 velocity=123 time=0>, 56688], [<message note_on channel=0 note=82 velocity=123 time=0>, 56688], [<message note_on channel=0 note=84 velocity=123 time=0>, 56688], [<message note_on channel=2 note=60 velocity=119 time=76>, 56688], [<message note_on channel=2 note=72 velocity=113 time=0>, 56688], [<message note_on channel=2 note=84 velocity=115 time=0>, 56688], [<message note_on channel=3 note=64 velocity=113 time=2>, 56688], [<message note_on channel=3 note=70 velocity=113 time=0>, 56688], [<message note_on channel=3 note=72 velocity=113 time=0>, 56688], [<message note_off channel=2 note=67 velocity=113 time=10>, 56698], [<message note_off channel=9 note=81 velocity=115 time=14>, 56700], [<message note_on channel=9 note=81 velocity=102 time=14>, 56714], [<message note_off channel=9 note=81 velocity=102 time=2>, 56716], [<message note_on channel=10 note=48 velocity=90 time=82>, 56736], [<message note_off channel=10 note=48 velocity=90 time=2>, 56738], [<message note_on channel=9 note=81 velocity=112 time=24>, 56740], [<message note_off channel=9 note=35 velocity=124 time=10>, 56750], [<message note_off channel=9 note=81 velocity=112 time=6>, 56756], [<message note_on channel=9 note=81 velocity=105 time=18>, 56774], [<message note_off channel=9 note=81 velocity=105 time=2>, 56776], [<message note_on channel=10 note=48 velocity=89 time=46>, 56784], [<message note_off channel=10 note=48 velocity=89 time=2>, 56786], [<message note_on channel=9 note=81 velocity=115 time=28>, 56804], [<message note_off channel=9 note=81 velocity=115 time=8>, 56812], [<message note_on channel=10 note=48 velocity=86 time=46>, 56832], [<meta message set_tempo tempo=389610 time=56832>, 56832], [<message note_off channel=10 note=48 velocity=86 time=14>, 56846], [<message note_on channel=10 note=48 velocity=123 time=34>, 56880], [<message note_off channel=10 note=48 velocity=123 time=26>, 56906], [<message note_on channel=10 note=48 velocity=86 time=22>, 56928], [<message note_off channel=10 note=48 velocity=86 time=26>, 56954], [<message note_on channel=10 note=48 velocity=91 time=22>, 56976], [<message note_off channel=10 note=48 velocity=91 time=24>, 57000], [<message note_off channel=2 note=84 velocity=115 time=304>, 57002], [<message note_off channel=2 note=72 velocity=113 time=10>, 57012], [<message note_off channel=2 note=60 velocity=119 time=0>, 57012], [<message note_on channel=9 note=40 velocity=119 time=210>, 57022], [<message note_on channel=10 note=48 velocity=123 time=24>, 57024], [<message note_off channel=9 note=40 velocity=119 time=24>, 57046], [<message note_off channel=10 note=48 velocity=123 time=28>, 57052], [<message note_off channel=3 note=72 velocity=113 time=384>, 57072], [<message note_off channel=3 note=64 velocity=113 time=0>, 57072], [<message note_on channel=10 note=48 velocity=97 time=20>, 57072], [<message note_off channel=3 note=70 velocity=113 time=4>, 57076], [<message note_on channel=9 note=40 velocity=122 time=40>, 57086], [<message note_off channel=9 note=49 velocity=124 time=6>, 57092], [<message note_off channel=10 note=48 velocity=97 time=20>, 57092], [<message note_off channel=7 note=72 velocity=119 time=420>, 57096], [<message note_off channel=9 note=40 velocity=122 time=18>, 57110], [<message note_on channel=10 note=48 velocity=123 time=28>, 57120], [<message note_off channel=10 note=48 velocity=123 time=24>, 57144], [<message note_on channel=9 note=45 velocity=122 time=40>, 57150], [<message note_on channel=10 note=48 velocity=122 time=24>, 57168], [<message note_off channel=9 note=45 velocity=122 time=24>, 57174], [<message note_off channel=0 note=72 velocity=123 time=498>, 57186], [<message note_off channel=0 note=82 velocity=123 time=2>, 57188], [<message note_off channel=0 note=76 velocity=123 time=0>, 57188], [<message note_off channel=0 note=84 velocity=123 time=2>, 57190], [<message note_off channel=0 note=67 velocity=123 time=2>, 57192], [<message note_off channel=0 note=70 velocity=123 time=2>, 57194], [<message note_off channel=10 note=48 velocity=122 time=26>, 57194], [<message note_off channel=0 note=60 velocity=123 time=2>, 57196], [<message note_on channel=1 note=41 velocity=125 time=864>, 57214], [<message note_on channel=9 note=35 velocity=121 time=40>, 57214], [<message note_on channel=9 note=49 velocity=122 time=0>, 57214], [<message note_on channel=0 note=65 velocity=123 time=20>, 57216], [<message note_on channel=8 note=53 velocity=122 time=15414>, 57216], [<message note_on channel=10 note=48 velocity=123 time=70>, 57264], [<message note_off channel=10 note=48 velocity=123 time=26>, 57290], [<message note_off channel=9 note=35 velocity=121 time=80>, 57294], [<message note_on channel=11 note=53 velocity=117 time=15414>, 57312], [<message note_off channel=1 note=41 velocity=125 time=126>, 57340], [<message note_on channel=1 note=33 velocity=124 time=2>, 57342], [<message note_on channel=9 note=35 velocity=120 time=48>, 57342], [<message note_on channel=0 note=57 velocity=123 time=128>, 57344], [<message note_on channel=8 note=45 velocity=122 time=128>, 57344], [<message note_off channel=0 note=65 velocity=123 time=4>, 57348], [<message note_off channel=8 note=53 velocity=122 time=10>, 57354], [<message note_on channel=9 note=40 velocity=121 time=64>, 57406], [<message note_on channel=9 note=42 velocity=121 time=0>, 57406], [<message note_on channel=9 note=51 velocity=122 time=0>, 57406], [<message note_on channel=11 note=45 velocity=117 time=128>, 57440], [<message note_off channel=11 note=53 velocity=117 time=10>, 57450], [<message note_off channel=1 note=33 velocity=124 time=114>, 57456], [<message note_on channel=1 note=34 velocity=124 time=14>, 57470], [<message note_on channel=0 note=58 velocity=122 time=124>, 57472], [<message note_off channel=8 note=45 velocity=122 time=118>, 57472], [<message note_on channel=8 note=46 velocity=121 time=0>, 57472], [<message note_off channel=0 note=57 velocity=123 time=6>, 57478], [<message note_off channel=9 note=51 velocity=122 time=98>, 57504], [<message note_off channel=9 note=35 velocity=120 time=36>, 57540], [<message control_change channel=0 control=91 value=60 time=90>, 57568], [<message note_off channel=11 note=45 velocity=117 time=118>, 57568], [<message note_on channel=11 note=46 velocity=115 time=0>, 57568], [<message note_off channel=0 note=58 velocity=122 time=16>, 57584], [<message note_off channel=1 note=34 velocity=124 time=120>, 57590], [<message note_off channel=8 note=46 velocity=121 time=122>, 57594], [<message note_on channel=1 note=35 velocity=125 time=8>, 57598], [<message note_on channel=9 note=35 velocity=121 time=58>, 57598], [<message note_on channel=9 note=51 velocity=122 time=0>, 57598], [<message note_on channel=0 note=59 velocity=123 time=16>, 57600], [<message note_on channel=8 note=47 velocity=121 time=6>, 57600], [<message note_off channel=9 note=42 velocity=121 time=38>, 57636], [<message note_off channel=9 note=35 velocity=121 time=52>, 57688], [<message note_off channel=11 note=46 velocity=115 time=122>, 57690], [<message note_off channel=9 note=51 velocity=122 time=4>, 57692], [<message note_on channel=11 note=47 velocity=116 time=6>, 57696], [<message note_off channel=0 note=59 velocity=123 time=104>, 57704], [<message note_off channel=8 note=47 velocity=121 time=124>, 57724], [<message note_on channel=1 note=36 velocity=124 time=128>, 57726], [<message note_on channel=9 note=35 velocity=120 time=34>, 57726], [<message note_on channel=0 note=60 velocity=122 time=24>, 57728], [<message note_on channel=8 note=48 velocity=121 time=4>, 57728], [<message note_off channel=1 note=35 velocity=125 time=4>, 57730], [<message note_off channel=9 note=40 velocity=121 time=6>, 57732], [<message note_off channel=0 note=60 velocity=122 time=52>, 57780], [<message note_on channel=1 note=38 velocity=119 time=60>, 57790], [<message note_on channel=9 note=40 velocity=121 time=58>, 57790], [<message note_on channel=9 note=42 velocity=121 time=0>, 57790], [<message note_on channel=9 note=51 velocity=121 time=0>, 57790], [<message note_on channel=0 note=62 velocity=123 time=12>, 57792], [<message note_on channel=8 note=50 velocity=119 time=64>, 57792], [<message note_off channel=1 note=36 velocity=124 time=10>, 57800], [<message note_off channel=8 note=48 velocity=121 time=12>, 57804], [<message note_off channel=11 note=47 velocity=116 time=124>, 57820], [<message note_on channel=11 note=48 velocity=115 time=4>, 57824], [<message note_off channel=0 note=62 velocity=123 time=52>, 57844], [<message note_off channel=1 note=38 velocity=119 time=48>, 57848], [<message note_on channel=1 note=40 velocity=120 time=6>, 57854], [<message note_on channel=0 note=64 velocity=123 time=12>, 57856], [<message note_on channel=8 note=52 velocity=121 time=52>, 57856], [<message note_off channel=8 note=50 velocity=119 time=2>, 57858], [<message note_on channel=11 note=50 velocity=113 time=64>, 57888], [<message note_off channel=9 note=51 velocity=121 time=98>, 57888], [<message note_off channel=11 note=48 velocity=115 time=12>, 57900], [<message note_off channel=1 note=40 velocity=120 time=50>, 57904], [<message note_off channel=0 note=64 velocity=123 time=60>, 57916], [<message note_on channel=1 note=41 velocity=123 time=14>, 57918], [<message note_on channel=0 note=65 velocity=122 time=4>, 57920], [<message note_on channel=8 note=53 velocity=121 time=62>, 57920], [<message note_off channel=9 note=35 velocity=120 time=46>, 57934], [<message note_off channel=8 note=52 velocity=121 time=24>, 57944], [<message note_off channel=1 note=41 velocity=123 time=34>, 57952], [<message note_on channel=11 note=52 velocity=116 time=52>, 57952], [<message note_off channel=11 note=50 velocity=113 time=2>, 57954], [<message note_off channel=8 note=53 velocity=121 time=18>, 57962], [<message note_off channel=0 note=65 velocity=122 time=48>, 57968], [<message note_on channel=1 note=41 velocity=124 time=30>, 57982], [<message note_on channel=9 note=35 velocity=120 time=48>, 57982], [<message note_on channel=9 note=51 velocity=122 time=0>, 57982], [<message note_on channel=0 note=65 velocity=122 time=16>, 57984], [<message note_on channel=8 note=53 velocity=121 time=22>, 57984], [<message note_on channel=11 note=53 velocity=115 time=62>, 58016], [<message note_off channel=11 note=52 velocity=116 time=24>, 58040], [<message note_off channel=9 note=42 velocity=121 time=68>, 58050], [<message note_off channel=11 note=53 velocity=115 time=18>, 58058], [<message note_off channel=9 note=35 velocity=120 time=20>, 58070], [<message note_on channel=11 note=53 velocity=115 time=22>, 58080], [<message note_off channel=9 note=51 velocity=122 time=24>, 58094], [<message note_on channel=1 note=33 velocity=124 time=128>, 58110], [<message note_on channel=9 note=35 velocity=121 time=16>, 58110], [<message note_on channel=0 note=57 velocity=123 time=128>, 58112], [<message note_on channel=8 note=45 velocity=121 time=128>, 58112], [<message note_off channel=0 note=65 velocity=122 time=4>, 58116], [<message note_off channel=8 note=53 velocity=121 time=8>, 58120], [<message note_off channel=1 note=41 velocity=124 time=12>, 58122], [<message note_off channel=9 note=40 velocity=121 time=18>, 58128], [<message note_on channel=9 note=40 velocity=123 time=46>, 58174], [<message note_on channel=9 note=42 velocity=121 time=0>, 58174], [<message note_on channel=9 note=51 velocity=122 time=0>, 58174], [<message note_on channel=11 note=45 velocity=115 time=128>, 58208], [<message note_off channel=11 note=53 velocity=115 time=8>, 58216], [<message note_on channel=1 note=34 velocity=121 time=116>, 58238], [<message note_on channel=0 note=58 velocity=122 time=124>, 58240], [<message note_on channel=8 note=46 velocity=121 time=120>, 58240], [<message note_off channel=0 note=57 velocity=123 time=8>, 58248], [<message note_off channel=1 note=33 velocity=124 time=22>, 58260], [<message note_off channel=8 note=45 velocity=121 time=22>, 58262], [<message note_off channel=9 note=51 velocity=122 time=110>, 58284], [<message note_off channel=9 note=35 velocity=121 time=36>, 58320], [<message note_off channel=1 note=34 velocity=121 time=76>, 58336], [<message note_on channel=11 note=46 velocity=115 time=120>, 58336], [<message note_off channel=11 note=45 velocity=115 time=22>, 58358], [<message note_off channel=0 note=58 velocity=122 time=114>, 58362], [<message note_off channel=8 note=46 velocity=121 time=100>, 58362], [<message note_on channel=1 note=35 velocity=121 time=30>, 58366], [<message note_on channel=9 note=35 velocity=121 time=46>, 58366], [<message note_on channel=9 note=51 velocity=121 time=0>, 58366], [<message note_on channel=0 note=59 velocity=123 time=6>, 58368], [<message note_on channel=8 note=47 velocity=120 time=6>, 58368], [<message note_off channel=1 note=35 velocity=121 time=60>, 58426], [<message note_on channel=1 note=36 velocity=118 time=4>, 58430], [<message note_on channel=0 note=60 velocity=123 time=64>, 58432], [<message note_on channel=8 note=48 velocity=117 time=64>, 58432], [<message note_off channel=9 note=35 velocity=121 time=78>, 58444], [<message note_off channel=0 note=59 velocity=123 time=18>, 58450], [<message note_off channel=8 note=47 velocity=120 time=18>, 58450], [<message note_off channel=9 note=42 velocity=121 time=10>, 58454], [<message note_off channel=11 note=46 velocity=115 time=100>, 58458], [<message note_on channel=11 note=47 velocity=114 time=6>, 58464], [<message note_off channel=9 note=51 velocity=121 time=16>, 58470], [<message note_off channel=0 note=60 velocity=123 time=28>, 58478], [<message note_off channel=1 note=36 velocity=118 time=52>, 58482], [<message note_off channel=8 note=48 velocity=117 time=34>, 58484], [<message note_on channel=1 note=38 velocity=118 time=12>, 58494], [<message note_on channel=9 note=35 velocity=121 time=24>, 58494], [<message note_on channel=0 note=62 velocity=123 time=18>, 58496], [<message note_on channel=8 note=50 velocity=121 time=12>, 58496], [<message note_off channel=9 note=40 velocity=123 time=10>, 58504], [<message note_on channel=11 note=48 velocity=110 time=64>, 58528], [<message note_off channel=11 note=47 velocity=114 time=18>, 58546], [<message note_off channel=1 note=38 velocity=118 time=62>, 58556], [<message note_on channel=1 note=36 velocity=124 time=2>, 58558], [<message note_on channel=9 note=40 velocity=123 time=54>, 58558], [<message note_on channel=9 note=42 velocity=121 time=0>, 58558], [<message note_on channel=9 note=51 velocity=122 time=0>, 58558], [<message note_on channel=0 note=60 velocity=123 time=64>, 58560], [<message note_on channel=8 note=48 velocity=123 time=64>, 58560], [<message note_off channel=8 note=50 velocity=121 time=4>, 58564], [<message note_off channel=0 note=62 velocity=123 time=20>, 58580], [<message note_off channel=11 note=48 velocity=110 time=34>, 58580], [<message note_off channel=9 note=35 velocity=121 time=28>, 58586], [<message note_on channel=11 note=50 velocity=116 time=12>, 58592], [<message note_on channel=11 note=48 velocity=117 time=64>, 58656], [<message note_off channel=11 note=50 velocity=116 time=4>, 58660], [<message note_off channel=9 note=51 velocity=122 time=92>, 58678], [<message note_on channel=9 note=35 velocity=120 time=8>, 58686], [<message note_off channel=9 note=35 velocity=120 time=34>, 58720], [<message note_off channel=0 note=60 velocity=123 time=144>, 58724], [<message note_off channel=8 note=48 velocity=123 time=160>, 58724], [<message note_on channel=1 note=41 velocity=125 time=192>, 58750], [<message note_on channel=9 note=35 velocity=122 time=30>, 58750], [<message note_on channel=9 note=51 velocity=122 time=0>, 58750], [<message note_on channel=0 note=65 velocity=123 time=28>, 58752], [<message note_on channel=8 note=53 velocity=120 time=28>, 58752], [<message note_off channel=1 note=36 velocity=124 time=10>, 58760], [<message note_off channel=11 note=48 velocity=117 time=160>, 58820], [<message note_off channel=9 note=42 velocity=121 time=76>, 58826], [<message note_on channel=11 note=53 velocity=114 time=28>, 58848], [<message note_off channel=9 note=35 velocity=122 time=26>, 58852], [<message note_off channel=9 note=51 velocity=122 time=6>, 58858], [<message note_on channel=1 note=33 velocity=123 time=118>, 58878], [<message note_on channel=9 note=35 velocity=122 time=20>, 58878], [<message note_on channel=0 note=57 velocity=123 time=128>, 58880], [<message note_off channel=1 note=41 velocity=125 time=2>, 58880], [<message note_on channel=8 note=45 velocity=120 time=128>, 58880], [<message note_off channel=9 note=40 velocity=123 time=10>, 58888], [<message note_off channel=0 note=65 velocity=123 time=10>, 58890], [<message note_off channel=8 note=53 velocity=120 time=10>, 58890], [<message note_on channel=9 note=40 velocity=124 time=54>, 58942], [<message note_on channel=9 note=42 velocity=122 time=0>, 58942], [<message note_on channel=9 note=51 velocity=122 time=0>, 58942], [<message note_on channel=11 note=45 velocity=114 time=128>, 58976], [<message note_off channel=11 note=53 velocity=114 time=10>, 58986], [<message note_off channel=8 note=45 velocity=120 time=108>, 58998], [<message note_on channel=1 note=34 velocity=124 time=126>, 59006], [<message note_on channel=0 note=58 velocity=122 time=118>, 59008], [<message note_on channel=8 note=46 velocity=121 time=10>, 59008], [<message note_off channel=0 note=57 velocity=123 time=2>, 59010], [<message note_off channel=1 note=33 velocity=123 time=4>, 59010], [<message note_off channel=9 note=51 velocity=122 time=108>, 59050], [<message note_off channel=9 note=35 velocity=122 time=38>, 59088], [<message note_off channel=11 note=45 velocity=114 time=108>, 59094], [<message note_on channel=11 note=46 velocity=115 time=10>, 59104], [<message note_off channel=0 note=58 velocity=122 time=108>, 59118], [<message note_off channel=1 note=34 velocity=124 time=120>, 59130], [<message note_on channel=1 note=35 velocity=125 time=4>, 59134], [<message note_on channel=9 note=35 velocity=121 time=46>, 59134], [<message note_on channel=9 note=51 velocity=122 time=0>, 59134], [<message note_on channel=0 note=59 velocity=123 time=18>, 59136], [<message note_on channel=8 note=47 velocity=121 time=128>, 59136], [<message note_off channel=8 note=46 velocity=121 time=4>, 59140], [<message note_off channel=9 note=49 velocity=122 time=26>, 59160], [<message note_off channel=9 note=35 velocity=121 time=46>, 59206], [<message note_on channel=11 note=47 velocity=115 time=128>, 59232], [<message note_off channel=11 note=46 velocity=115 time=4>, 59236], [<message note_off channel=9 note=42 velocity=122 time=42>, 59248], [<message note_off channel=0 note=59 velocity=123 time=116>, 59252], [<message note_off channel=1 note=35 velocity=125 time=118>, 59252], [<message note_off channel=9 note=51 velocity=122 time=6>, 59254], [<message note_on channel=1 note=36 velocity=122 time=10>, 59262], [<message note_on channel=9 note=35 velocity=123 time=8>, 59262], [<message note_on channel=0 note=60 velocity=123 time=12>, 59264], [<message note_on channel=8 note=48 velocity=119 time=124>, 59264], [<message note_off channel=8 note=47 velocity=121 time=10>, 59274], [<message note_off channel=9 note=40 velocity=124 time=16>, 59278], [<message note_off channel=0 note=60 velocity=123 time=54>, 59318], [<message note_on channel=1 note=38 velocity=122 time=64>, 59326], [<message note_on channel=9 note=40 velocity=123 time=48>, 59326], [<message note_on channel=9 note=42 velocity=121 time=0>, 59326], [<message note_on channel=9 note=51 velocity=122 time=0>, 59326], [<message note_on channel=0 note=62 velocity=123 time=10>, 59328], [<message note_on channel=8 note=50 velocity=120 time=54>, 59328], [<message note_off channel=1 note=36 velocity=122 time=6>, 59332], [<message note_off channel=8 note=48 velocity=119 time=22>, 59350], [<message note_on channel=11 note=48 velocity=113 time=124>, 59360], [<message note_off channel=11 note=47 velocity=115 time=10>, 59370], [<message note_off channel=1 note=38 velocity=122 time=48>, 59380], [<message note_off channel=0 note=62 velocity=123 time=58>, 59386], [<message note_on channel=1 note=40 velocity=122 time=10>, 59390], [<message note_on channel=0 note=64 velocity=122 time=6>, 59392], [<message note_on channel=8 note=52 velocity=119 time=42>, 59392], [<message note_off channel=8 note=50 velocity=120 time=2>, 59394], [<message note_on channel=11 note=50 velocity=114 time=54>, 59424], [<message note_off channel=1 note=40 velocity=122 time=46>, 59436], [<message note_off channel=9 note=51 velocity=122 time=114>, 59440], [<message note_off channel=11 note=48 velocity=113 time=22>, 59446], [<message note_on channel=1 note=41 velocity=119 time=18>, 59454], [<message note_on channel=0 note=65 velocity=122 time=64>, 59456], [<message note_on channel=8 note=53 velocity=118 time=62>, 59456], [<message note_off channel=9 note=35 velocity=123 time=28>, 59468], [<message note_off channel=0 note=64 velocity=122 time=20>, 59476], [<message note_off channel=8 note=52 velocity=119 time=26>, 59482], [<message note_on channel=11 note=52 velocity=113 time=42>, 59488], [<message note_off channel=11 note=50 velocity=114 time=2>, 59490], [<message note_off channel=1 note=41 velocity=119 time=38>, 59492], [<message note_off channel=0 note=65 velocity=122 time=26>, 59502], [<message note_off channel=8 note=53 velocity=118 time=22>, 59504], [<message note_on channel=1 note=43 velocity=125 time=26>, 59518], [<message note_on channel=9 note=35 velocity=121 time=50>, 59518], [<message note_on channel=9 note=51 velocity=122 time=0>, 59518], [<message note_on channel=0 note=67 velocity=123 time=18>, 59520], [<message note_on channel=8 note=55 velocity=122 time=16>, 59520], [<message note_on channel=11 note=53 velocity=112 time=62>, 59552], [<message note_off channel=11 note=52 velocity=113 time=26>, 59578], [<message note_off channel=9 note=35 velocity=121 time=74>, 59592], [<message note_off channel=11 note=53 velocity=112 time=22>, 59600], [<message note_off channel=9 note=42 velocity=121 time=12>, 59604], [<message note_on channel=11 note=55 velocity=117 time=16>, 59616], [<message note_off channel=9 note=51 velocity=122 time=34>, 59638], [<message note_off channel=1 note=43 velocity=125 time=128>, 59646], [<message note_on channel=1 note=35 velocity=125 time=0>, 59646], [<message note_off channel=8 note=55 velocity=122 time=126>, 59646], [<message note_on channel=9 note=35 velocity=123 time=8>, 59646], [<message note_off channel=0 note=67 velocity=123 time=128>, 59648], [<message note_on channel=0 note=59 velocity=123 time=0>, 59648], [<message note_on channel=8 note=47 velocity=121 time=2>, 59648], [<message note_off channel=9 note=40 velocity=123 time=18>, 59664], [<message note_on channel=9 note=40 velocity=123 time=46>, 59710], [<message note_on channel=9 note=42 velocity=121 time=0>, 59710], [<message note_on channel=9 note=51 velocity=122 time=0>, 59710], [<message note_off channel=11 note=55 velocity=117 time=126>, 59742], [<message note_on channel=11 note=47 velocity=115 time=2>, 59744], [<message note_on channel=1 note=36 velocity=121 time=128>, 59774], [<message note_on channel=0 note=60 velocity=123 time=128>, 59776], [<message note_on channel=8 note=48 velocity=116 time=128>, 59776], [<message note_off channel=0 note=59 velocity=123 time=8>, 59784], [<message note_off channel=8 note=47 velocity=121 time=30>, 59806], [<message note_off channel=1 note=35 velocity=125 time=36>, 59810], [<message note_off channel=9 note=51 velocity=122 time=116>, 59826], [<message note_off channel=9 note=35 velocity=123 time=2>, 59828], [<message note_off channel=1 note=36 velocity=121 time=58>, 59868], [<message note_on channel=11 note=48 velocity=109 time=128>, 59872], [<message note_off channel=8 note=48 velocity=116 time=78>, 59884], [<message note_off channel=0 note=60 velocity=123 time=102>, 59886], [<message note_on channel=1 note=37 velocity=119 time=34>, 59902], [<message note_off channel=11 note=47 velocity=115 time=30>, 59902], [<message note_on channel=9 note=35 velocity=121 time=74>, 59902], [<message note_on channel=9 note=51 velocity=122 time=0>, 59902], [<message note_on channel=0 note=61 velocity=122 time=18>, 59904], [<message note_on channel=8 note=49 velocity=117 time=20>, 59904], [<message note_off channel=9 note=40 velocity=123 time=12>, 59914], [<message note_off channel=9 note=35 velocity=121 time=30>, 59944], [<message note_off channel=0 note=61 velocity=122 time=50>, 59954], [<message note_off channel=1 note=37 velocity=119 time=58>, 59960], [<message note_on channel=1 note=38 velocity=122 time=6>, 59966], [<message note_on channel=9 note=40 velocity=122 time=22>, 59966], [<message note_on channel=0 note=62 velocity=123 time=14>, 59968], [<message note_off channel=8 note=49 velocity=117 time=76>, 59980], [<message note_off channel=11 note=48 velocity=109 time=78>, 59980], [<message note_on channel=8 note=50 velocity=121 time=20>, 60000], [<message note_on channel=11 note=49 velocity=110 time=20>, 60000], [<message note_off channel=9 note=40 velocity=122 time=44>, 60010], [<message note_off channel=9 note=42 velocity=121 time=2>, 60012], [<message note_off channel=9 note=51 velocity=122 time=2>, 60014], [<message note_off channel=1 note=38 velocity=122 time=50>, 60016], [<message note_off channel=0 note=62 velocity=123 time=58>, 60026], [<message note_on channel=1 note=40 velocity=122 time=14>, 60030], [<message note_on channel=9 note=40 velocity=121 time=16>, 60030], [<message note_on channel=0 note=64 velocity=123 time=6>, 60032], [<message note_off channel=9 note=40 velocity=121 time=28>, 60058], [<message note_on channel=8 note=52 velocity=118 time=64>, 60064], [<message note_off channel=11 note=49 velocity=110 time=76>, 60076], [<message note_off channel=0 note=64 velocity=123 time=52>, 60084], [<message note_off channel=8 note=50 velocity=121 time=20>, 60084], [<message note_on channel=1 note=38 velocity=125 time=64>, 60094], [<message note_on channel=9 note=42 velocity=121 time=36>, 60094], [<message note_on channel=9 note=43 velocity=122 time=0>, 60094], [<message note_on channel=9 note=51 velocity=123 time=0>, 60094], [<message note_on channel=0 note=62 velocity=123 time=12>, 60096], [<message note_off channel=1 note=40 velocity=122 time=2>, 60096], [<message note_on channel=8 note=50 velocity=114 time=12>, 60096], [<message note_on channel=11 note=50 velocity=116 time=20>, 60096], [<message note_off channel=8 note=52 velocity=118 time=16>, 60112], [<message note_off channel=9 note=43 velocity=122 time=38>, 60132], [<message note_on channel=9 note=40 velocity=121 time=26>, 60158], [<message note_on channel=11 note=52 velocity=112 time=64>, 60160], [<message note_off channel=0 note=62 velocity=123 time=80>, 60176], [<message note_off channel=11 note=50 velocity=116 time=20>, 60180], [<message note_off channel=9 note=40 velocity=121 time=24>, 60182], [<message note_on channel=11 note=50 velocity=107 time=12>, 60192], [<message note_off channel=11 note=52 velocity=112 time=16>, 60208], [<message note_on channel=9 note=45 velocity=123 time=40>, 60222], [<message note_off channel=9 note=51 velocity=123 time=46>, 60268], [<message note_off channel=9 note=42 velocity=121 time=4>, 60272], [<message note_off channel=1 note=38 velocity=125 time=178>, 60274], [<message note_off channel=8 note=50 velocity=114 time=164>, 60276], [<message note_on channel=1 note=36 velocity=125 time=12>, 60286], [<message note_on channel=9 note=35 velocity=124 time=14>, 60286], [<message note_on channel=9 note=49 velocity=123 time=0>, 60286], [<message note_on channel=0 note=60 velocity=123 time=112>, 60288], [<message note_on channel=0 note=67 velocity=123 time=0>, 60288], [<message note_on channel=0 note=72 velocity=123 time=0>, 60288], [<message note_on channel=8 note=43 velocity=123 time=12>, 60288], [<message note_on channel=8 note=48 velocity=121 time=0>, 60288], [<message note_off channel=9 note=45 velocity=123 time=4>, 60290], [<message note_off channel=1 note=36 velocity=125 time=82>, 60368], [<message note_off channel=11 note=50 velocity=107 time=164>, 60372], [<message note_off channel=9 note=35 velocity=124 time=84>, 60374], [<message note_on channel=11 note=43 velocity=117 time=12>, 60384], [<message note_on channel=11 note=48 velocity=115 time=0>, 60384], [<message pitchwheel channel=4 pitch=-768 time=23534>, 60390], [<message pitchwheel channel=4 pitch=-2048 time=8>, 60398], [<message pitchwheel channel=4 pitch=-3584 time=8>, 60406], [<message note_on channel=4 note=70 velocity=122 time=4>, 60410], [<message pitchwheel channel=4 pitch=-5120 time=4>, 60414], [<message note_on channel=1 note=36 velocity=119 time=46>, 60414], [<message note_on channel=9 note=35 velocity=119 time=40>, 60414], [<message pitchwheel channel=4 pitch=-4992 time=8>, 60422], [<message pitchwheel channel=4 pitch=-3712 time=10>, 60432], [<message pitchwheel channel=4 pitch=-1152 time=10>, 60442], [<message note_off channel=1 note=36 velocity=119 time=34>, 60448], [<message pitchwheel channel=4 pitch=0 time=8>, 60450], [<message note_on channel=1 note=36 velocity=120 time=30>, 60478], [<message note_on channel=9 note=40 velocity=123 time=64>, 60478], [<message note_on channel=9 note=42 velocity=122 time=0>, 60478], [<message note_on channel=9 note=46 velocity=122 time=0>, 60478], [<message note_off channel=9 note=49 velocity=123 time=10>, 60488], [<message note_off channel=4 note=70 velocity=122 time=72>, 60522], [<message note_on channel=4 note=70 velocity=122 time=34>, 60556], [<message note_off channel=1 note=36 velocity=120 time=100>, 60578], [<message note_off channel=9 note=46 velocity=122 time=96>, 60584], [<message note_off channel=9 note=35 velocity=119 time=2>, 60586], [<message note_on channel=1 note=36 velocity=104 time=28>, 60606], [<message note_off channel=1 note=36 velocity=104 time=24>, 60630], [<message note_off channel=4 note=70 velocity=122 time=86>, 60642], [<message note_on channel=1 note=36 velocity=114 time=40>, 60670], [<message note_on channel=9 note=35 velocity=122 time=84>, 60670], [<message note_on channel=9 note=46 velocity=122 time=0>, 60670], [<message note_on channel=4 note=70 velocity=123 time=50>, 60692], [<message pitchwheel channel=4 pitch=-2048 time=2>, 60694], [<message note_off channel=9 note=42 velocity=122 time=24>, 60694], [<message pitchwheel channel=4 pitch=-4608 time=8>, 60702], [<message pitchwheel channel=4 pitch=-5888 time=8>, 60710], [<message pitchwheel channel=4 pitch=-4864 time=12>, 60722], [<message pitchwheel channel=4 pitch=0 time=10>, 60732], [<message pitchwheel channel=4 pitch=0 time=8>, 60740], [<message note_off channel=9 note=35 velocity=122 time=46>, 60740], [<message note_off channel=1 note=36 velocity=114 time=96>, 60766], [<message note_on channel=1 note=36 velocity=119 time=32>, 60798], [<message note_on channel=9 note=35 velocity=120 time=58>, 60798], [<message note_off channel=9 note=40 velocity=123 time=12>, 60810], [<message note_on channel=4 note=69 velocity=119 time=76>, 60816], [<message note_off channel=4 note=70 velocity=123 time=6>, 60822], [<message note_off channel=1 note=36 velocity=119 time=24>, 60822], [<message note_off channel=9 note=46 velocity=122 time=24>, 60834], [<message note_on channel=1 note=36 velocity=122 time=40>, 60862], [<message note_on channel=9 note=40 velocity=123 time=28>, 60862], [<message note_on channel=9 note=42 velocity=122 time=0>, 60862], [<message note_on channel=9 note=46 velocity=122 time=0>, 60862], [<message note_off channel=4 note=69 velocity=119 time=86>, 60908], [<message note_on channel=4 note=69 velocity=118 time=34>, 60942], [<message note_off channel=1 note=36 velocity=122 time=102>, 60964], [<message note_off channel=9 note=46 velocity=122 time=104>, 60966], [<message note_off channel=9 note=35 velocity=120 time=20>, 60986], [<message note_on channel=1 note=36 velocity=110 time=26>, 60990], [<message note_off channel=1 note=36 velocity=110 time=28>, 61018], [<message note_off channel=4 note=69 velocity=118 time=80>, 61022], [<message pitchwheel channel=4 pitch=-640 time=24>, 61046], [<message note_off channel=9 note=42 velocity=122 time=64>, 61050], [<message pitchwheel channel=4 pitch=-2560 time=8>, 61054], [<message note_on channel=1 note=36 velocity=116 time=36>, 61054], [<message note_on channel=9 note=35 velocity=118 time=4>, 61054], [<message note_on channel=9 note=46 velocity=122 time=0>, 61054], [<message pitchwheel channel=4 pitch=-4608 time=8>, 61062], [<message note_on channel=4 note=69 velocity=122 time=2>, 61064], [<message pitchwheel channel=4 pitch=-4608 time=8>, 61072], [<message pitchwheel channel=4 pitch=-2816 time=10>, 61082], [<message pitchwheel channel=4 pitch=0 time=8>, 61090], [<message note_off channel=9 note=35 velocity=118 time=68>, 61122], [<message note_off channel=1 note=36 velocity=116 time=90>, 61144], [<message note_off channel=9 note=46 velocity=122 time=34>, 61156], [<message note_on channel=1 note=36 velocity=120 time=38>, 61182], [<message note_on channel=9 note=35 velocity=121 time=26>, 61182], [<message note_off channel=4 note=69 velocity=122 time=98>, 61188], [<message note_off channel=9 note=40 velocity=123 time=10>, 61192], [<message note_on channel=4 note=67 velocity=123 time=10>, 61198], [<message note_off channel=1 note=36 velocity=120 time=34>, 61216], [<message note_off channel=0 note=72 velocity=123 time=942>, 61230], [<message note_on channel=1 note=36 velocity=121 time=30>, 61246], [<message note_on channel=9 note=40 velocity=123 time=54>, 61246], [<message note_on channel=9 note=46 velocity=123 time=0>, 61246], [<message note_off channel=0 note=67 velocity=123 time=46>, 61276], [<message note_off channel=4 note=67 velocity=123 time=86>, 61284], [<message note_off channel=1 note=36 velocity=121 time=70>, 61316], [<message note_on channel=4 note=67 velocity=122 time=38>, 61322], [<message note_off channel=9 note=35 velocity=121 time=122>, 61368], [<message note_on channel=1 note=36 velocity=116 time=58>, 61374], [<message note_off channel=0 note=60 velocity=123 time=100>, 61376], [<message note_off channel=9 note=46 velocity=123 time=12>, 61380], [<message note_off channel=4 note=67 velocity=122 time=68>, 61390], [<message pitchwheel channel=4 pitch=-2304 time=30>, 61420], [<message note_on channel=4 note=67 velocity=120 time=10>, 61430], [<message pitchwheel channel=4 pitch=-5632 time=0>, 61430], [<message note_off channel=1 note=36 velocity=116 time=60>, 61434], [<message pitchwheel channel=4 pitch=-8192 time=8>, 61438], [<message note_on channel=1 note=29 velocity=125 time=4>, 61438], [<message note_on channel=9 note=35 velocity=123 time=58>, 61438], [<message note_on channel=9 note=46 velocity=123 time=0>, 61438], [<message note_on channel=0 note=60 velocity=123 time=64>, 61440], [<message note_on channel=0 note=65 velocity=123 time=0>, 61440], [<message note_on channel=0 note=69 velocity=123 time=0>, 61440], [<message note_on channel=0 note=72 velocity=123 time=0>, 61440], [<message note_on channel=8 note=41 velocity=121 time=1152>, 61440], [<message pitchwheel channel=4 pitch=-8064 time=10>, 61448], [<message note_off channel=8 note=43 velocity=123 time=14>, 61454], [<message pitchwheel channel=4 pitch=-5632 time=8>, 61456], [<message pitchwheel channel=4 pitch=-1408 time=8>, 61464], [<message pitchwheel channel=4 pitch=0 time=8>, 61472], [<message pitchwheel channel=4 pitch=0 time=8>, 61480], [<message note_off channel=9 note=35 velocity=123 time=50>, 61488], [<message note_on channel=11 note=41 velocity=115 time=1152>, 61536], [<message note_off channel=11 note=43 velocity=117 time=14>, 61550], [<message note_off channel=9 note=40 velocity=123 time=74>, 61562], [<message note_on channel=9 note=35 velocity=122 time=4>, 61566], [<message note_off channel=9 note=46 velocity=123 time=8>, 61574], [<message note_off channel=1 note=29 velocity=125 time=166>, 61604], [<message note_off channel=4 note=67 velocity=120 time=136>, 61616], [<message note_on channel=4 note=65 velocity=123 time=10>, 61626], [<message note_on channel=1 note=29 velocity=125 time=26>, 61630], [<message note_on channel=9 note=40 velocity=123 time=56>, 61630], [<message note_on channel=9 note=46 velocity=123 time=0>, 61630], [<message note_off channel=0 note=72 velocity=123 time=316>, 61756], [<message note_off channel=9 note=35 velocity=122 time=130>, 61760], [<message note_off channel=9 note=46 velocity=123 time=10>, 61770], [<message note_off channel=0 note=65 velocity=123 time=22>, 61778], [<message note_off channel=0 note=69 velocity=123 time=12>, 61790], [<message note_off channel=0 note=60 velocity=123 time=12>, 61802], [<message pitchwheel channel=4 pitch=-2816 time=178>, 61804], [<message note_off channel=4 note=65 velocity=123 time=6>, 61810], [<message note_off channel=1 note=29 velocity=125 time=180>, 61810], [<message note_off channel=8 note=41 velocity=121 time=356>, 61810], [<message pitchwheel channel=4 pitch=-5888 time=2>, 61812], [<message note_on channel=4 note=64 velocity=123 time=4>, 61816], [<message pitchwheel channel=4 pitch=-8192 time=4>, 61820], [<message note_on channel=1 note=36 velocity=123 time=12>, 61822], [<message note_off channel=8 note=48 velocity=121 time=12>, 61822], [<message note_on channel=9 note=35 velocity=123 time=52>, 61822], [<message note_on channel=9 note=46 velocity=123 time=0>, 61822], [<message note_on channel=0 note=60 velocity=123 time=22>, 61824], [<message note_on channel=0 note=64 velocity=123 time=0>, 61824], [<message note_on channel=0 note=67 velocity=123 time=0>, 61824], [<message note_on channel=0 note=72 velocity=123 time=0>, 61824], [<message note_on channel=8 note=43 velocity=117 time=2>, 61824], [<message note_on channel=8 note=48 velocity=122 time=0>, 61824], [<message note_off channel=8 note=48 velocity=122 time=10>, 61834], [<message pitchwheel channel=4 pitch=-7808 time=34>, 61854], [<message pitchwheel channel=4 pitch=-3200 time=8>, 61862], [<message pitchwheel channel=4 pitch=1560 time=10>, 61872], [<message pitchwheel channel=4 pitch=-1920 time=8>, 61880], [<message pitchwheel channel=4 pitch=650 time=8>, 61888], [<message note_off channel=9 note=35 velocity=123 time=66>, 61888], [<message pitchwheel channel=4 pitch=0 time=8>, 61896], [<message note_off channel=1 note=36 velocity=123 time=80>, 61902], [<message note_off channel=11 note=41 velocity=115 time=356>, 61906], [<message note_off channel=11 note=48 velocity=115 time=12>, 61918], [<message note_on channel=11 note=43 velocity=110 time=2>, 61920], [<message note_on channel=11 note=48 velocity=117 time=0>, 61920], [<message note_off channel=11 note=48 velocity=117 time=10>, 61930], [<message note_off channel=9 note=40 velocity=123 time=50>, 61938], [<message note_on channel=1 note=36 velocity=111 time=48>, 61950], [<message note_on channel=9 note=35 velocity=121 time=12>, 61950], [<message note_off channel=4 note=64 velocity=123 time=60>, 61956], [<message note_off channel=9 note=46 velocity=123 time=14>, 61964], [<message note_on channel=4 note=65 velocity=123 time=10>, 61966], [<message note_off channel=1 note=36 velocity=111 time=36>, 61986], [<message note_on channel=1 note=36 velocity=112 time=28>, 62014], [<message note_on channel=9 note=40 velocity=123 time=50>, 62014], [<message note_on channel=9 note=46 velocity=122 time=0>, 62014], [<message note_off channel=4 note=65 velocity=123 time=50>, 62016], [<message note_on channel=4 note=67 velocity=122 time=16>, 62032], [<message note_on channel=4 note=65 velocity=113 time=2>, 62034], [<message note_off channel=4 note=65 velocity=113 time=14>, 62048], [<message note_off channel=1 note=36 velocity=112 time=64>, 62078], [<message note_off channel=9 note=35 velocity=121 time=120>, 62134], [<message note_on channel=1 note=36 velocity=121 time=64>, 62142], [<message note_off channel=9 note=46 velocity=122 time=32>, 62166], [<message note_off channel=1 note=36 velocity=121 time=42>, 62184], [<message note_on channel=1 note=36 velocity=115 time=22>, 62206], [<message note_on channel=9 note=35 velocity=123 time=40>, 62206], [<message note_on channel=9 note=46 velocity=122 time=0>, 62206], [<message control_change channel=4 control=1 value=11 time=186>, 62234], [<message control_change channel=4 control=1 value=35 time=18>, 62252], [<message control_change channel=4 control=1 value=53 time=16>, 62268], [<message note_off channel=9 note=35 velocity=123 time=62>, 62268], [<message control_change channel=4 control=1 value=75 time=16>, 62284], [<message note_off channel=1 note=36 velocity=115 time=92>, 62298], [<message control_change channel=4 control=1 value=96 time=16>, 62300], [<message control_change channel=4 control=1 value=110 time=16>, 62316], [<message control_change channel=4 control=1 value=124 time=18>, 62334], [<message note_on channel=1 note=36 velocity=114 time=36>, 62334], [<message note_on channel=9 note=35 velocity=123 time=66>, 62334], [<message control_change channel=4 control=1 value=127 time=22>, 62356], [<message note_off channel=9 note=40 velocity=123 time=24>, 62358], [<message note_off channel=9 note=46 velocity=122 time=2>, 62360], [<message note_off channel=1 note=36 velocity=114 time=34>, 62368], [<message note_on channel=1 note=36 velocity=119 time=30>, 62398], [<message note_on channel=9 note=40 velocity=123 time=38>, 62398], [<message note_on channel=9 note=46 velocity=122 time=0>, 62398], [<message note_off channel=9 note=35 velocity=123 time=68>, 62466], [<message note_off channel=1 note=36 velocity=119 time=92>, 62490], [<message note_off channel=0 note=67 velocity=123 time=684>, 62508], [<message note_off channel=0 note=64 velocity=123 time=16>, 62524], [<message control_change channel=4 control=1 value=121 time=170>, 62526], [<message note_on channel=1 note=36 velocity=110 time=36>, 62526], [<message note_on channel=9 note=35 velocity=123 time=60>, 62526], [<message control_change channel=4 control=1 value=108 time=18>, 62544], [<message note_off channel=0 note=60 velocity=123 time=28>, 62552], [<message note_off channel=9 note=35 velocity=123 time=32>, 62558], [<message control_change channel=4 control=1 value=89 time=16>, 62560], [<message note_off channel=9 note=46 velocity=122 time=4>, 62562], [<message note_off channel=0 note=72 velocity=123 time=12>, 62564], [<message note_off channel=4 note=67 velocity=122 time=8>, 62568], [<message note_off channel=8 note=43 velocity=117 time=736>, 62570], [<message control_change channel=4 control=1 value=51 time=8>, 62576], [<message note_on channel=1 note=31 velocity=120 time=64>, 62590], [<message note_on channel=9 note=35 velocity=123 time=28>, 62590], [<message note_on channel=9 note=46 velocity=122 time=0>, 62590], [<message control_change channel=4 control=1 value=0 time=16>, 62592], [<message note_on channel=0 note=55 velocity=122 time=28>, 62592], [<message note_on channel=0 note=67 velocity=123 time=0>, 62592], [<message note_on channel=8 note=43 velocity=118 time=22>, 62592], [<message note_off channel=9 note=40 velocity=123 time=4>, 62594], [<message note_off channel=1 note=36 velocity=110 time=6>, 62596], [<message note_off channel=9 note=35 velocity=123 time=36>, 62630], [<message note_off channel=1 note=31 velocity=120 time=42>, 62638], [<message note_on channel=1 note=34 velocity=120 time=16>, 62654], [<message note_on channel=9 note=40 velocity=123 time=24>, 62654], [<message note_on channel=0 note=58 velocity=122 time=64>, 62656], [<message note_on channel=0 note=70 velocity=122 time=0>, 62656], [<message note_on channel=8 note=46 velocity=120 time=64>, 62656], [<message note_off channel=0 note=67 velocity=123 time=8>, 62664], [<message note_off channel=11 note=43 velocity=110 time=736>, 62666], [<message note_off channel=0 note=55 velocity=122 time=6>, 62670], [<message note_off channel=8 note=43 velocity=118 time=18>, 62674], [<message note_off channel=9 note=40 velocity=123 time=32>, 62686], [<message note_on channel=11 note=43 velocity=112 time=22>, 62688], [<message note_off channel=1 note=34 velocity=120 time=48>, 62702], [<message note_off channel=0 note=70 velocity=122 time=40>, 62710], [<message note_off channel=8 note=46 velocity=120 time=38>, 62712], [<message note_on channel=1 note=36 velocity=114 time=16>, 62718], [<message note_on channel=9 note=40 velocity=122 time=32>, 62718], [<message note_on channel=0 note=60 velocity=122 time=10>, 62720], [<message note_on channel=0 note=72 velocity=122 time=0>, 62720], [<message note_on channel=8 note=48 velocity=121 time=8>, 62720], [<message note_off channel=0 note=58 velocity=122 time=8>, 62728], [<message note_off channel=9 note=46 velocity=122 time=22>, 62740], [<message note_off channel=1 note=36 velocity=114 time=32>, 62750], [<message note_on channel=11 note=46 velocity=114 time=64>, 62752], [<message note_off channel=9 note=40 velocity=122 time=14>, 62754], [<message note_off channel=0 note=72 velocity=122 time=28>, 62756], [<message note_off channel=0 note=60 velocity=122 time=6>, 62762], [<message note_off channel=8 note=48 velocity=121 time=48>, 62768], [<message note_off channel=11 note=43 velocity=112 time=18>, 62770], [<message note_on channel=1 note=36 velocity=124 time=32>, 62782], [<message note_on channel=9 note=40 velocity=122 time=28>, 62782], [<message note_on channel=9 note=46 velocity=122 time=0>, 62782], [<message note_on channel=0 note=60 velocity=117 time=22>, 62784], [<message note_on channel=0 note=72 velocity=123 time=0>, 62784], [<message note_on channel=8 note=48 velocity=121 time=16>, 62784], [<message note_off channel=11 note=46 velocity=114 time=38>, 62808], [<message note_on channel=11 note=48 velocity=115 time=8>, 62816], [<message note_off channel=9 note=40 velocity=122 time=50>, 62832], [<message note_off channel=1 note=36 velocity=124 time=62>, 62844], [<message note_on channel=1 note=34 velocity=123 time=2>, 62846], [<message note_on channel=9 note=35 velocity=123 time=14>, 62846], [<message note_on channel=0 note=58 velocity=123 time=64>, 62848], [<message note_on channel=0 note=70 velocity=123 time=0>, 62848], [<message note_on channel=8 note=46 velocity=119 time=64>, 62848], [<message note_off channel=0 note=72 velocity=123 time=6>, 62854], [<message note_off channel=8 note=48 velocity=121 time=8>, 62856], [<message note_off channel=0 note=60 velocity=117 time=10>, 62864], [<message note_off channel=11 note=48 velocity=115 time=48>, 62864], [<message note_on channel=11 note=48 velocity=115 time=16>, 62880], [<message note_off channel=9 note=46 velocity=122 time=40>, 62886], [<message note_off channel=1 note=34 velocity=123 time=42>, 62888], [<message note_off channel=0 note=70 velocity=123 time=30>, 62894], [<message note_off channel=8 note=46 velocity=119 time=44>, 62900], [<message note_on channel=1 note=39 velocity=125 time=22>, 62910], [<message note_on channel=9 note=40 velocity=124 time=24>, 62910], [<message note_on channel=9 note=49 velocity=124 time=0>, 62910], [<message note_on channel=0 note=63 velocity=123 time=18>, 62912], [<message note_on channel=0 note=67 velocity=123 time=0>, 62912], [<message note_on channel=0 note=70 velocity=123 time=0>, 62912], [<message note_on channel=0 note=75 velocity=122 time=0>, 62912], [<message note_on channel=8 note=51 velocity=121 time=12>, 62912], [<message note_off channel=0 note=58 velocity=123 time=4>, 62916], [<message note_off channel=9 note=35 velocity=123 time=32>, 62942], [<message note_on channel=11 note=46 velocity=113 time=64>, 62944], [<message note_off channel=11 note=48 velocity=115 time=8>, 62952], [<message note_off channel=9 note=40 velocity=124 time=32>, 62974], [<message note_off channel=11 note=46 velocity=113 time=44>, 62996], [<message note_on channel=11 note=51 velocity=115 time=12>, 63008], [<message control_change channel=4 control=1 value=2 time=466>, 63058], [<message control_change channel=4 control=1 value=0 time=40>, 63098], [<message note_on channel=1 note=34 velocity=123 time=320>, 63230], [<message note_on channel=9 note=40 velocity=123 time=256>, 63230], [<message note_off channel=1 note=39 velocity=125 time=10>, 63240], [<message note_off channel=9 note=40 velocity=123 time=40>, 63270], [<message note_off channel=1 note=34 velocity=123 time=34>, 63274], [<message note_off channel=0 note=67 velocity=123 time=372>, 63288], [<message note_on channel=1 note=35 velocity=121 time=20>, 63294], [<message note_on channel=9 note=40 velocity=123 time=24>, 63294], [<message note_off channel=0 note=70 velocity=123 time=32>, 63320], [<message note_off channel=0 note=63 velocity=123 time=0>, 63320], [<message note_off channel=0 note=75 velocity=122 time=4>, 63324], [<message note_off channel=9 note=49 velocity=124 time=34>, 63328], [<message note_off channel=9 note=40 velocity=123 time=8>, 63336], [<message note_off channel=1 note=35 velocity=121 time=44>, 63338], [<message note_on channel=1 note=36 velocity=120 time=20>, 63358], [<message note_on channel=9 note=35 velocity=124 time=22>, 63358], [<message note_on channel=9 note=49 velocity=122 time=0>, 63358], [<message note_on channel=0 note=60 velocity=123 time=36>, 63360], [<message note_on channel=0 note=67 velocity=123 time=0>, 63360], [<message note_on channel=0 note=72 velocity=123 time=0>, 63360], [<message note_on channel=8 note=43 velocity=124 time=448>, 63360], [<message note_on channel=8 note=48 velocity=122 time=0>, 63360], [<message note_off channel=8 note=51 velocity=121 time=10>, 63370], [<message pitchwheel channel=4 pitch=-640 time=318>, 63416], [<message pitchwheel channel=4 pitch=-1280 time=8>, 63424], [<message pitchwheel channel=4 pitch=-2432 time=10>, 63434], [<message pitchwheel channel=4 pitch=-2944 time=8>, 63442], [<message note_off channel=1 note=36 velocity=120 time=94>, 63452], [<message pitchwheel channel=4 pitch=-2432 time=14>, 63456], [<message note_on channel=11 note=43 velocity=119 time=448>, 63456], [<message note_on channel=11 note=48 velocity=117 time=0>, 63456], [<message note_off channel=9 note=35 velocity=124 time=104>, 63462], [<message pitchwheel channel=4 pitch=0 time=8>, 63464], [<message note_off channel=11 note=51 velocity=115 time=10>, 63466], [<message note_on channel=4 note=70 velocity=123 time=6>, 63470], [<message note_on channel=1 note=36 velocity=116 time=34>, 63486], [<message note_on channel=9 note=35 velocity=122 time=24>, 63486], [<message note_off channel=1 note=36 velocity=116 time=22>, 63508], [<message note_on channel=1 note=36 velocity=119 time=42>, 63550], [<message note_on channel=9 note=40 velocity=124 time=64>, 63550], [<message note_on channel=9 note=46 velocity=122 time=0>, 63550], [<message note_off channel=4 note=70 velocity=123 time=88>, 63558], [<message note_off channel=9 note=49 velocity=122 time=8>, 63558], [<message note_on channel=4 note=70 velocity=120 time=48>, 63606], [<message note_off channel=1 note=36 velocity=119 time=92>, 63642], [<message note_off channel=9 note=35 velocity=122 time=88>, 63646], [<message note_on channel=1 note=36 velocity=111 time=36>, 63678], [<message note_on channel=9 note=35 velocity=121 time=32>, 63678], [<message note_off channel=4 note=70 velocity=120 time=82>, 63688], [<message note_off channel=9 note=46 velocity=122 time=28>, 63706], [<message note_off channel=9 note=35 velocity=121 time=2>, 63708], [<message note_off channel=1 note=36 velocity=111 time=40>, 63718], [<message pitchwheel channel=4 pitch=-384 time=34>, 63722], [<message pitchwheel channel=4 pitch=-1536 time=8>, 63730], [<message pitchwheel channel=4 pitch=-2944 time=8>, 63738], [<message note_on channel=1 note=36 velocity=113 time=24>, 63742], [<message note_on channel=9 note=35 velocity=120 time=34>, 63742], [<message note_on channel=9 note=46 velocity=122 time=0>, 63742], [<message pitchwheel channel=4 pitch=-3712 time=8>, 63746], [<message note_on channel=4 note=70 velocity=122 time=2>, 63748], [<message pitchwheel channel=4 pitch=-3712 time=6>, 63754], [<message pitchwheel channel=4 pitch=-640 time=8>, 63762], [<message pitchwheel channel=4 pitch=0 time=8>, 63770], [<message note_off channel=1 note=36 velocity=113 time=90>, 63832], [<message note_off channel=9 note=35 velocity=120 time=100>, 63842], [<message note_on channel=1 note=36 velocity=115 time=38>, 63870], [<message note_on channel=9 note=35 velocity=121 time=28>, 63870], [<message note_on channel=4 note=69 velocity=119 time=112>, 63882], [<message note_off channel=4 note=70 velocity=122 time=6>, 63888], [<message note_off channel=9 note=40 velocity=124 time=26>, 63896], [<message note_off channel=9 note=46 velocity=122 time=8>, 63904], [<message note_off channel=1 note=36 velocity=115 time=36>, 63906], [<message note_on channel=1 note=36 velocity=114 time=28>, 63934], [<message note_on channel=9 note=40 velocity=123 time=30>, 63934], [<message note_on channel=9 note=46 velocity=122 time=0>, 63934], [<message note_off channel=4 note=69 velocity=119 time=90>, 63978], [<message note_off channel=1 note=36 velocity=114 time=50>, 63984], [<message note_on channel=1 note=34 velocity=119 time=14>, 63998], [<message note_off channel=9 note=35 velocity=121 time=74>, 64008], [<message note_on channel=4 note=69 velocity=123 time=54>, 64032], [<message note_off channel=1 note=34 velocity=119 time=36>, 64034], [<message note_on channel=4 note=67 velocity=81 time=18>, 64050], [<message note_on channel=1 note=35 velocity=112 time=28>, 64062], [<message note_on channel=9 note=35 velocity=116 time=54>, 64062], [<message note_off channel=4 note=67 velocity=81 time=20>, 64070], [<message note_off channel=1 note=35 velocity=112 time=28>, 64090], [<message note_off channel=9 note=35 velocity=116 time=38>, 64100], [<message note_off channel=9 note=46 velocity=122 time=0>, 64100], [<message note_off channel=4 note=69 velocity=123 time=36>, 64106], [<message pitchwheel channel=4 pitch=-384 time=18>, 64124], [<message note_on channel=1 note=36 velocity=123 time=36>, 64126], [<message note_on channel=9 note=35 velocity=123 time=26>, 64126], [<message note_on channel=9 note=46 velocity=122 time=0>, 64126], [<message pitchwheel channel=4 pitch=-1408 time=8>, 64132], [<message pitchwheel channel=4 pitch=-2560 time=8>, 64140], [<message pitchwheel channel=4 pitch=-3712 time=8>, 64148], [<message note_on channel=4 note=69 velocity=120 time=2>, 64150], [<message pitchwheel channel=4 pitch=-3840 time=6>, 64156], [<message pitchwheel channel=4 pitch=-640 time=8>, 64164], [<message pitchwheel channel=4 pitch=0 time=8>, 64172], [<message pitchwheel channel=4 pitch=0 time=8>, 64180], [<message note_off channel=1 note=36 velocity=123 time=92>, 64218], [<message note_off channel=9 note=35 velocity=123 time=100>, 64226], [<message note_on channel=1 note=36 velocity=112 time=36>, 64254], [<message note_on channel=9 note=35 velocity=121 time=28>, 64254], [<message note_off channel=9 note=40 velocity=123 time=8>, 64262], [<message note_on channel=4 note=67 velocity=122 time=96>, 64276], [<message note_off channel=4 note=69 velocity=120 time=10>, 64286], [<message note_off channel=9 note=46 velocity=122 time=28>, 64290], [<message note_off channel=1 note=36 velocity=112 time=38>, 64292], [<message note_on channel=1 note=36 velocity=116 time=26>, 64318], [<message note_on channel=9 note=40 velocity=123 time=28>, 64318], [<message note_on channel=9 note=46 velocity=122 time=0>, 64318], [<message note_off channel=4 note=67 velocity=122 time=72>, 64358], [<message note_on channel=4 note=67 velocity=120 time=32>, 64390], [<message note_off channel=9 note=35 velocity=121 time=82>, 64400], [<message note_off channel=1 note=36 velocity=116 time=92>, 64410], [<message note_on channel=1 note=36 velocity=122 time=36>, 64446], [<message note_on channel=9 note=35 velocity=121 time=46>, 64446], [<message note_off channel=0 note=72 velocity=123 time=1096>, 64456], [<message note_off channel=0 note=67 velocity=123 time=8>, 64464], [<message note_off channel=0 note=60 velocity=123 time=12>, 64476], [<message note_off channel=8 note=43 velocity=124 time=1110>, 64480], [<message note_off channel=9 note=46 velocity=122 time=34>, 64480], [<message note_off channel=9 note=35 velocity=121 time=2>, 64482], [<message note_off channel=4 note=67 velocity=120 time=96>, 64486], [<message pitchwheel channel=4 pitch=-768 time=16>, 64502], [<message note_off channel=1 note=36 velocity=122 time=56>, 64502], [<message pitchwheel channel=4 pitch=-2560 time=8>, 64510], [<message note_on channel=1 note=29 velocity=123 time=8>, 64510], [<message note_on channel=9 note=35 velocity=121 time=28>, 64510], [<message note_on channel=9 note=46 velocity=122 time=0>, 64510], [<message note_on channel=0 note=53 velocity=122 time=36>, 64512], [<message note_on channel=0 note=60 velocity=123 time=0>, 64512], [<message note_on channel=0 note=65 velocity=123 time=0>, 64512], [<message note_on channel=0 note=69 velocity=123 time=0>, 64512], [<message note_on channel=0 note=72 velocity=123 time=0>, 64512], [<message note_on channel=8 note=41 velocity=121 time=32>, 64512], [<message pitchwheel channel=4 pitch=-4096 time=10>, 64520], [<message note_on channel=4 note=67 velocity=122 time=6>, 64526], [<message pitchwheel channel=4 pitch=-4992 time=2>, 64528], [<message pitchwheel channel=4 pitch=-4864 time=12>, 64540], [<message pitchwheel channel=4 pitch=-1664 time=8>, 64548], [<message pitchwheel channel=4 pitch=650 time=8>, 64556], [<message pitchwheel channel=4 pitch=0 time=8>, 64564], [<message note_off channel=11 note=43 velocity=119 time=1110>, 64576], [<message note_off channel=9 note=35 velocity=121 time=78>, 64588], [<message note_off channel=1 note=29 velocity=123 time=98>, 64608], [<message note_on channel=11 note=41 velocity=115 time=32>, 64608], [<message note_on channel=1 note=29 velocity=119 time=30>, 64638], [<message note_on channel=9 note=35 velocity=122 time=50>, 64638], [<message note_off channel=9 note=40 velocity=123 time=12>, 64650], [<message note_off channel=9 note=46 velocity=122 time=20>, 64670], [<message note_off channel=1 note=29 velocity=119 time=48>, 64686], [<message note_off channel=9 note=35 velocity=122 time=30>, 64700], [<message note_on channel=1 note=29 velocity=123 time=16>, 64702], [<message note_on channel=9 note=40 velocity=123 time=2>, 64702], [<message note_on channel=9 note=46 velocity=122 time=0>, 64702], [<message note_off channel=4 note=67 velocity=122 time=140>, 64704], [<message note_on channel=4 note=65 velocity=123 time=10>, 64714], [<message note_off channel=9 note=40 velocity=123 time=48>, 64750], [<message note_on channel=9 note=40 velocity=122 time=16>, 64766], [<message note_off channel=0 note=53 velocity=122 time=270>, 64782], [<message note_off channel=1 note=29 velocity=123 time=88>, 64790], [<message note_off channel=9 note=40 velocity=122 time=46>, 64812], [<message note_off channel=0 note=65 velocity=123 time=32>, 64814], [<message note_on channel=1 note=29 velocity=112 time=40>, 64830], [<message note_on channel=9 note=40 velocity=121 time=18>, 64830], [<message note_off channel=0 note=72 velocity=123 time=26>, 64840], [<message note_off channel=0 note=69 velocity=123 time=4>, 64844], [<message note_off channel=0 note=60 velocity=123 time=4>, 64848], [<message note_off channel=8 note=41 velocity=121 time=360>, 64872], [<message pitchwheel channel=4 pitch=-640 time=162>, 64876], [<message note_off channel=1 note=29 velocity=112 time=46>, 64876], [<message note_off channel=4 note=65 velocity=123 time=2>, 64878], [<message note_off channel=9 note=46 velocity=122 time=48>, 64878], [<message pitchwheel channel=4 pitch=-3072 time=6>, 64884], [<message pitchwheel channel=4 pitch=-5888 time=8>, 64892], [<message note_on channel=4 note=70 velocity=123 time=2>, 64894], [<message note_on channel=1 note=34 velocity=122 time=18>, 64894], [<message note_on channel=9 note=35 velocity=123 time=16>, 64894], [<message note_on channel=9 note=49 velocity=122 time=0>, 64894], [<message note_on channel=0 note=58 velocity=123 time=48>, 64896], [<message note_on channel=0 note=62 velocity=123 time=0>, 64896], [<message note_on channel=0 note=65 velocity=123 time=0>, 64896], [<message note_on channel=0 note=70 velocity=123 time=0>, 64896], [<message note_on channel=0 note=74 velocity=123 time=0>, 64896], [<message note_on channel=8 note=46 velocity=121 time=24>, 64896], [<message note_on channel=8 note=53 velocity=121 time=0>, 64896], [<message pitchwheel channel=4 pitch=-8192 time=8>, 64902], [<message pitchwheel channel=4 pitch=-3840 time=14>, 64916], [<message pitchwheel channel=4 pitch=650 time=8>, 64924], [<message note_off channel=8 note=48 velocity=122 time=34>, 64930], [<message pitchwheel channel=4 pitch=0 time=10>, 64934], [<message note_off channel=1 note=34 velocity=122 time=74>, 64968], [<message note_off channel=11 note=41 velocity=115 time=360>, 64968], [<message note_on channel=11 note=46 velocity=116 time=24>, 64992], [<message note_on channel=11 note=53 velocity=116 time=0>, 64992], [<message note_off channel=9 note=35 velocity=123 time=106>, 65000], [<message note_on channel=1 note=34 velocity=118 time=54>, 65022], [<message note_on channel=9 note=35 velocity=121 time=22>, 65022], [<message note_off channel=11 note=48 velocity=117 time=34>, 65026], [<message note_off channel=9 note=40 velocity=121 time=16>, 65038], [<message note_off channel=4 note=70 velocity=123 time=124>, 65058], [<message note_on channel=4 note=67 velocity=122 time=4>, 65062], [<message note_off channel=9 note=49 velocity=122 time=28>, 65066], [<message note_off channel=1 note=34 velocity=118 time=50>, 65072], [<message note_on channel=1 note=34 velocity=121 time=14>, 65086], [<message note_on channel=9 note=40 velocity=124 time=20>, 65086], [<message note_on channel=9 note=46 velocity=123 time=0>, 65086], [<message note_off channel=4 note=67 velocity=122 time=48>, 65110], [<message note_on channel=4 note=65 velocity=123 time=4>, 65114], [<message note_off channel=9 note=35 velocity=121 time=74>, 65160], [<message note_off channel=1 note=34 velocity=121 time=82>, 65168], [<message note_on channel=1 note=34 velocity=121 time=46>, 65214], [<message note_on channel=9 note=35 velocity=120 time=54>, 65214], [<message note_off channel=9 note=35 velocity=120 time=34>, 65248], [<message note_off channel=9 note=46 velocity=123 time=2>, 65250], [<message note_off channel=1 note=34 velocity=121 time=50>, 65264], [<message note_on channel=1 note=34 velocity=121 time=14>, 65278], [<message note_on channel=9 note=35 velocity=121 time=28>, 65278], [<message note_on channel=9 note=46 velocity=122 time=0>, 65278], [<message pitchwheel channel=4 pitch=-768 time=188>, 65302], [<message pitchwheel channel=4 pitch=-1792 time=8>, 65310], [<message pitchwheel channel=4 pitch=-2560 time=8>, 65318], [<message pitchwheel channel=4 pitch=-2688 time=8>, 65326], [<message pitchwheel channel=4 pitch=-2432 time=8>, 65334], [<message note_off channel=1 note=34 velocity=121 time=62>, 65340], [<message pitchwheel channel=4 pitch=-1920 time=8>, 65342], [<message pitchwheel channel=4 pitch=0 time=8>, 65350], [<message note_off channel=9 note=35 velocity=121 time=78>, 65356], [<message note_on channel=1 note=34 velocity=121 time=66>, 65406], [<message note_on channel=9 note=35 velocity=123 time=50>, 65406], [<message note_off channel=9 note=40 velocity=124 time=18>, 65424], [<message note_off channel=9 note=46 velocity=122 time=14>, 65438], [<message note_off channel=1 note=34 velocity=121 time=42>, 65448], [<message note_on channel=1 note=34 velocity=124 time=22>, 65470], [<message note_on channel=9 note=40 velocity=123 time=32>, 65470], [<message note_on channel=9 note=46 velocity=123 time=0>, 65470], [<message note_off channel=9 note=35 velocity=123 time=38>, 65508], [<message note_off channel=1 note=34 velocity=124 time=46>, 65516], [<message note_on channel=1 note=34 velocity=122 time=18>, 65534], [<message note_on channel=9 note=43 velocity=121 time=26>, 65534], [<message note_off channel=9 note=40 velocity=123 time=6>, 65540], [<message note_off channel=1 note=34 velocity=122 time=44>, 65578], [<message note_off channel=0 note=65 velocity=123 time=684>, 65580], [<message note_off channel=0 note=62 velocity=123 time=18>, 65598], [<message note_on channel=1 note=33 velocity=120 time=20>, 65598], [<message note_on channel=9 note=45 velocity=121 time=58>, 65598], [<message note_off channel=0 note=74 velocity=123 time=6>, 65604], [<message note_off channel=9 note=43 velocity=121 time=10>, 65608], [<message note_off channel=0 note=70 velocity=123 time=30>, 65634], [<message note_off channel=9 note=46 velocity=123 time=28>, 65636], [<message note_off channel=8 note=46 velocity=121 time=724>, 65654], [<message note_off channel=1 note=33 velocity=120 time=62>, 65660], [<message note_off channel=8 note=53 velocity=121 time=6>, 65660], [<message note_off channel=4 note=65 velocity=123 time=312>, 65662], [<message pitchwheel channel=4 pitch=-3968 time=0>, 65662], [<message note_on channel=1 note=31 velocity=123 time=2>, 65662], [<message note_on channel=9 note=35 velocity=124 time=26>, 65662], [<message note_on channel=9 note=49 velocity=122 time=0>, 65662], [<message note_on channel=0 note=55 velocity=122 time=30>, 65664], [<message note_on channel=0 note=62 velocity=123 time=0>, 65664], [<message note_on channel=0 note=67 velocity=123 time=0>, 65664], [<message note_on channel=0 note=70 velocity=123 time=0>, 65664], [<message note_on channel=0 note=74 velocity=123 time=0>, 65664], [<message note_on channel=8 note=43 velocity=120 time=4>, 65664], [<message note_on channel=8 note=50 velocity=122 time=0>, 65664], [<message pitchwheel channel=4 pitch=-5888 time=8>, 65670], [<message note_off channel=0 note=58 velocity=123 time=10>, 65674], [<message pitchwheel channel=4 pitch=-7680 time=8>, 65678], [<message note_on channel=4 note=70 velocity=122 time=4>, 65682], [<message note_on channel=4 note=69 velocity=115 time=6>, 65688], [<message pitchwheel channel=4 pitch=-7424 time=2>, 65690], [<message pitchwheel channel=4 pitch=-4224 time=10>, 65700], [<message pitchwheel channel=4 pitch=910 time=10>, 65710], [<message note_off channel=4 note=69 velocity=115 time=8>, 65718], [<message pitchwheel channel=4 pitch=0 time=2>, 65720], [<message pitchwheel channel=4 pitch=0 time=8>, 65728], [<message note_off channel=9 note=45 velocity=121 time=76>, 65738], [<message note_off channel=11 note=46 velocity=116 time=724>, 65750], [<message note_off channel=9 note=35 velocity=124 time=16>, 65754], [<message note_off channel=11 note=53 velocity=116 time=6>, 65756], [<message note_on channel=11 note=43 velocity=114 time=4>, 65760], [<message note_on channel=11 note=50 velocity=117 time=0>, 65760], [<message note_off channel=1 note=31 velocity=123 time=102>, 65764], [<message note_on channel=1 note=31 velocity=121 time=26>, 65790], [<message note_on channel=9 note=35 velocity=123 time=36>, 65790], [<message note_off channel=1 note=31 velocity=121 time=32>, 65822], [<message note_off channel=9 note=49 velocity=122 time=56>, 65846], [<message note_on channel=1 note=31 velocity=119 time=32>, 65854], [<message note_on channel=9 note=40 velocity=124 time=8>, 65854], [<message note_on channel=9 note=46 velocity=123 time=0>, 65854], [<message note_off channel=9 note=35 velocity=123 time=30>, 65884], [<message note_off channel=1 note=31 velocity=119 time=88>, 65942], [<message note_on channel=1 note=31 velocity=117 time=40>, 65982], [<message note_on channel=9 note=35 velocity=121 time=98>, 65982], [<message note_off channel=9 note=46 velocity=123 time=36>, 66018], [<message note_off channel=9 note=35 velocity=121 time=2>, 66020], [<message note_off channel=1 note=31 velocity=117 time=42>, 66024], [<message note_on channel=1 note=31 velocity=119 time=22>, 66046], [<message note_on channel=9 note=35 velocity=121 time=26>, 66046], [<message note_on channel=9 note=46 velocity=122 time=0>, 66046], [<message note_off channel=1 note=31 velocity=119 time=84>, 66130], [<message note_off channel=9 note=35 velocity=121 time=92>, 66138], [<message note_on channel=1 note=31 velocity=116 time=44>, 66174], [<message note_on channel=9 note=35 velocity=123 time=36>, 66174], [<message note_off channel=9 note=46 velocity=122 time=6>, 66180], [<message note_off channel=9 note=40 velocity=124 time=28>, 66208], [<message note_off channel=1 note=31 velocity=116 time=42>, 66216], [<message note_on channel=1 note=31 velocity=115 time=22>, 66238], [<message note_on channel=9 note=40 velocity=124 time=30>, 66238], [<message note_on channel=9 note=46 velocity=122 time=0>, 66238], [<message note_off channel=9 note=35 velocity=123 time=24>, 66262], [<message note_off channel=1 note=31 velocity=115 time=50>, 66288], [<message note_on channel=1 note=34 velocity=115 time=14>, 66302], [<message note_off channel=0 note=74 velocity=123 time=638>, 66312], [<message note_off channel=1 note=34 velocity=115 time=50>, 66352], [<message note_off channel=0 note=67 velocity=123 time=52>, 66364], [<message note_on channel=1 note=35 velocity=112 time=14>, 66366], [<message note_on channel=9 note=35 velocity=121 time=104>, 66366], [<message note_off channel=0 note=70 velocity=123 time=6>, 66370], [<message note_off channel=0 note=55 velocity=122 time=12>, 66382], [<message note_off channel=0 note=62 velocity=123 time=6>, 66388], [<message note_off channel=9 note=46 velocity=122 time=30>, 66396], [<message note_off channel=8 note=43 velocity=120 time=738>, 66402], [<message note_off channel=9 note=35 velocity=121 time=10>, 66406], [<message note_off channel=1 note=35 velocity=112 time=52>, 66418], [<message note_on channel=1 note=36 velocity=119 time=12>, 66430], [<message note_on channel=9 note=35 velocity=122 time=24>, 66430], [<message note_on channel=9 note=49 velocity=123 time=0>, 66430], [<message note_on channel=0 note=60 velocity=123 time=44>, 66432], [<message note_on channel=0 note=64 velocity=123 time=0>, 66432], [<message note_on channel=0 note=67 velocity=123 time=0>, 66432], [<message note_on channel=0 note=72 velocity=123 time=0>, 66432], [<message note_on channel=0 note=76 velocity=123 time=0>, 66432], [<message note_on channel=8 note=48 velocity=120 time=30>, 66432], [<message note_on channel=4 note=69 velocity=116 time=708>, 66436], [<message note_off channel=8 note=50 velocity=122 time=20>, 66452], [<message note_off channel=4 note=70 velocity=122 time=20>, 66456], [<message note_off channel=11 note=43 velocity=114 time=738>, 66498], [<message note_on channel=11 note=48 velocity=114 time=30>, 66528], [<message note_off channel=9 note=35 velocity=122 time=98>, 66528], [<message note_off channel=1 note=36 velocity=119 time=102>, 66532], [<message note_off channel=11 note=50 velocity=117 time=20>, 66548], [<message note_on channel=1 note=36 velocity=120 time=26>, 66558], [<message note_on channel=9 note=35 velocity=121 time=30>, 66558], [<message note_off channel=9 note=40 velocity=124 time=2>, 66560], [<message note_off channel=1 note=36 velocity=120 time=28>, 66586], [<message note_off channel=9 note=49 velocity=123 time=48>, 66608], [<message note_off channel=4 note=69 velocity=116 time=158>, 66614], [<message note_on channel=4 note=67 velocity=123 time=0>, 66614], [<message note_on channel=1 note=36 velocity=113 time=36>, 66622], [<message note_on channel=9 note=40 velocity=123 time=14>, 66622], [<message note_on channel=9 note=46 velocity=122 time=0>, 66622], [<message note_off channel=9 note=35 velocity=121 time=28>, 66650], [<message note_off channel=1 note=36 velocity=113 time=90>, 66712], [<message note_on channel=1 note=36 velocity=114 time=38>, 66750], [<message note_on channel=9 note=35 velocity=121 time=100>, 66750], [<message note_off channel=9 note=46 velocity=122 time=4>, 66754], [<message note_off channel=1 note=36 velocity=114 time=36>, 66786], [<message note_off channel=9 note=35 velocity=121 time=36>, 66790], [<message note_on channel=1 note=36 velocity=118 time=28>, 66814], [<message note_on channel=9 note=35 velocity=121 time=24>, 66814], [<message note_on channel=9 note=46 velocity=122 time=0>, 66814], [<message note_off channel=1 note=36 velocity=118 time=84>, 66898], [<message note_off channel=9 note=35 velocity=121 time=84>, 66898], [<message pitchwheel channel=4 pitch=0 time=314>, 66928], [<message pitchwheel channel=4 pitch=2470 time=8>, 66936], [<message note_on channel=1 note=36 velocity=104 time=44>, 66942], [<message note_on channel=9 note=35 velocity=121 time=44>, 66942], [<message pitchwheel channel=4 pitch=3900 time=8>, 66944], [<message note_off channel=9 note=46 velocity=122 time=8>, 66950], [<message pitchwheel channel=4 pitch=5590 time=8>, 66952], [<message pitchwheel channel=4 pitch=7410 time=10>, 66962], [<message pitchwheel channel=4 pitch=8190 time=8>, 66970], [<message note_off channel=1 note=36 velocity=104 time=28>, 66970], [<message note_off channel=9 note=40 velocity=123 time=20>, 66970], [<message note_on channel=1 note=36 velocity=112 time=36>, 67006], [<message note_on channel=9 note=40 velocity=124 time=36>, 67006], [<message note_on channel=9 note=46 velocity=122 time=0>, 67006], [<message pitchwheel channel=4 pitch=7410 time=44>, 67014], [<message pitchwheel channel=4 pitch=4680 time=8>, 67022], [<message pitchwheel channel=4 pitch=0 time=8>, 67030], [<message note_off channel=9 note=35 velocity=121 time=74>, 67080], [<message note_off channel=0 note=64 velocity=123 time=676>, 67108], [<message note_off channel=1 note=36 velocity=112 time=104>, 67110], [<message note_on channel=1 note=36 velocity=121 time=24>, 67134], [<message note_on channel=9 note=35 velocity=122 time=54>, 67134], [<message note_off channel=4 note=67 velocity=123 time=106>, 67136], [<message note_off channel=0 note=67 velocity=123 time=30>, 67138], [<message note_off channel=9 note=46 velocity=122 time=28>, 67162], [<message note_off channel=0 note=76 velocity=123 time=30>, 67168], [<message note_off channel=9 note=35 velocity=122 time=10>, 67172], [<message note_off channel=0 note=72 velocity=123 time=6>, 67174], [<message note_off channel=1 note=36 velocity=121 time=64>, 67198], [<message note_on channel=1 note=31 velocity=123 time=0>, 67198], [<message note_on channel=9 note=35 velocity=121 time=26>, 67198], [<message note_on channel=9 note=46 velocity=122 time=0>, 67198], [<message note_off channel=0 note=60 velocity=123 time=26>, 67200], [<message note_on channel=0 note=55 velocity=123 time=0>, 67200], [<message note_on channel=0 note=62 velocity=123 time=0>, 67200], [<message note_on channel=0 note=65 velocity=123 time=0>, 67200], [<message note_on channel=0 note=70 velocity=123 time=0>, 67200], [<message note_on channel=0 note=74 velocity=123 time=0>, 67200], [<message note_on channel=8 note=43 velocity=122 time=748>, 67200], [<message note_on channel=8 note=46 velocity=120 time=0>, 67200], [<message note_off channel=8 note=48 velocity=120 time=22>, 67222], [<message note_off channel=1 note=31 velocity=123 time=76>, 67274], [<message note_off channel=9 note=35 velocity=121 time=96>, 67294], [<message note_on channel=11 note=43 velocity=117 time=748>, 67296], [<message note_on channel=11 note=46 velocity=114 time=0>, 67296], [<message pitchwheel channel=4 pitch=-384 time=166>, 67302], [<message pitchwheel channel=4 pitch=-3200 time=10>, 67312], [<message note_off channel=11 note=48 velocity=114 time=22>, 67318], [<message pitchwheel channel=4 pitch=-5632 time=8>, 67320], [<message note_on channel=4 note=70 velocity=122 time=6>, 67326], [<message note_on channel=1 note=31 velocity=92 time=52>, 67326], [<message note_on channel=9 note=35 velocity=121 time=32>, 67326], [<message pitchwheel channel=4 pitch=-8192 time=2>, 67328], [<message note_off channel=9 note=46 velocity=122 time=2>, 67328], [<message pitchwheel channel=4 pitch=-7680 time=12>, 67340], [<message note_off channel=9 note=40 velocity=124 time=14>, 67342], [<message pitchwheel channel=4 pitch=-1920 time=8>, 67348], [<message pitchwheel channel=4 pitch=2210 time=8>, 67356], [<message note_off channel=1 note=31 velocity=92 time=34>, 67360], [<message pitchwheel channel=4 pitch=-1920 time=8>, 67364], [<message pitchwheel channel=4 pitch=260 time=8>, 67372], [<message pitchwheel channel=4 pitch=0 time=8>, 67380], [<message note_on channel=1 note=31 velocity=122 time=30>, 67390], [<message note_on channel=9 note=40 velocity=123 time=48>, 67390], [<message note_on channel=9 note=46 velocity=122 time=0>, 67390], [<message note_off channel=4 note=70 velocity=122 time=50>, 67430], [<message note_on channel=4 note=70 velocity=123 time=32>, 67462], [<message note_off channel=9 note=35 velocity=121 time=72>, 67462], [<message note_off channel=1 note=31 velocity=122 time=78>, 67468], [<message note_on channel=1 note=31 velocity=115 time=50>, 67518], [<message note_on channel=9 note=35 velocity=120 time=56>, 67518], [<message note_off channel=9 note=46 velocity=122 time=12>, 67530], [<message note_off channel=1 note=31 velocity=115 time=40>, 67558], [<message note_off channel=9 note=35 velocity=120 time=28>, 67558], [<message note_off channel=4 note=70 velocity=123 time=106>, 67568], [<message pitchwheel channel=4 pitch=-384 time=8>, 67576], [<message note_on channel=1 note=31 velocity=118 time=24>, 67582], [<message note_on channel=9 note=35 velocity=121 time=24>, 67582], [<message note_on channel=9 note=46 velocity=122 time=0>, 67582], [<message pitchwheel channel=4 pitch=-2048 time=8>, 67584], [<message pitchwheel channel=4 pitch=-3456 time=8>, 67592], [<message note_on channel=4 note=70 velocity=123 time=8>, 67600], [<message pitchwheel channel=4 pitch=-4480 time=0>, 67600], [<message pitchwheel channel=4 pitch=-1152 time=18>, 67618], [<message pitchwheel channel=4 pitch=0 time=8>, 67626], [<message pitchwheel channel=4 pitch=0 time=8>, 67634], [<message note_off channel=1 note=31 velocity=118 time=78>, 67660], [<message note_off channel=9 note=35 velocity=121 time=82>, 67664], [<message note_off channel=4 note=70 velocity=123 time=52>, 67686], [<message note_on channel=1 note=31 velocity=114 time=50>, 67710], [<message note_on channel=9 note=35 velocity=121 time=46>, 67710], [<message note_off channel=9 note=46 velocity=122 time=10>, 67720], [<message note_on channel=4 note=70 velocity=119 time=36>, 67722], [<message note_off channel=9 note=40 velocity=123 time=10>, 67730], [<message note_off channel=1 note=31 velocity=114 time=36>, 67746], [<message note_on channel=1 note=31 velocity=120 time=28>, 67774], [<message note_on channel=9 note=40 velocity=124 time=44>, 67774], [<message note_on channel=9 note=46 velocity=122 time=0>, 67774], [<message note_off channel=4 note=70 velocity=119 time=92>, 67814], [<message note_off channel=1 note=31 velocity=120 time=52>, 67826], [<message note_on channel=1 note=34 velocity=119 time=12>, 67838], [<message note_on channel=4 note=70 velocity=122 time=36>, 67850], [<message note_off channel=9 note=35 velocity=121 time=78>, 67852], [<message note_off channel=0 note=65 velocity=123 time=676>, 67876], [<message note_off channel=1 note=34 velocity=119 time=48>, 67886], [<message note_on channel=1 note=35 velocity=106 time=16>, 67902], [<message note_on channel=9 note=35 velocity=121 time=50>, 67902], [<message note_off channel=9 note=46 velocity=122 time=20>, 67922], [<message note_off channel=8 note=43 velocity=122 time=706>, 67928], [<message note_off channel=0 note=55 velocity=123 time=54>, 67930], [<message note_off channel=0 note=74 velocity=123 time=2>, 67932], [<message note_off channel=0 note=70 velocity=123 time=8>, 67940], [<message note_off channel=9 note=35 velocity=121 time=20>, 67942], [<message note_off channel=0 note=62 velocity=123 time=8>, 67948], [<message note_off channel=1 note=35 velocity=106 time=48>, 67950], [<message note_off channel=8 note=46 velocity=120 time=24>, 67952], [<message note_on channel=1 note=36 velocity=120 time=16>, 67966], [<message note_on channel=9 note=35 velocity=123 time=24>, 67966], [<message note_on channel=9 note=46 velocity=122 time=0>, 67966], [<message note_on channel=0 note=60 velocity=123 time=20>, 67968], [<message note_on channel=0 note=64 velocity=123 time=0>, 67968], [<message note_on channel=0 note=67 velocity=123 time=0>, 67968], [<message note_on channel=0 note=72 velocity=123 time=0>, 67968], [<message note_on channel=0 note=76 velocity=123 time=0>, 67968], [<message note_on channel=8 note=43 velocity=120 time=16>, 67968], [<message note_on channel=8 note=48 velocity=118 time=0>, 67968], [<message note_on channel=4 note=69 velocity=120 time=130>, 67980], [<message note_off channel=4 note=70 velocity=122 time=4>, 67984], [<message note_off channel=11 note=43 velocity=117 time=706>, 68024], [<message note_off channel=11 note=46 velocity=114 time=24>, 68048], [<message note_off channel=1 note=36 velocity=120 time=86>, 68052], [<message note_off channel=9 note=35 velocity=123 time=86>, 68052], [<message note_on channel=11 note=43 velocity=114 time=16>, 68064], [<message note_on channel=11 note=48 velocity=112 time=0>, 68064], [<message note_on channel=1 note=36 velocity=112 time=42>, 68094], [<message note_on channel=9 note=35 velocity=121 time=42>, 68094], [<message note_off channel=9 note=46 velocity=122 time=10>, 68104], [<message note_off channel=9 note=40 velocity=124 time=4>, 68108], [<message note_off channel=1 note=36 velocity=112 time=34>, 68128], [<message pitchwheel channel=4 pitch=-384 time=168>, 68152], [<message note_on channel=1 note=36 velocity=118 time=30>, 68158], [<message note_on channel=9 note=40 velocity=123 time=50>, 68158], [<message note_on channel=9 note=46 velocity=122 time=0>, 68158], [<message pitchwheel channel=4 pitch=-1664 time=8>, 68160], [<message note_off channel=4 note=69 velocity=120 time=8>, 68168], [<message pitchwheel channel=4 pitch=-2304 time=0>, 68168], [<message note_on channel=4 note=67 velocity=123 time=2>, 68170], [<message pitchwheel channel=4 pitch=-2176 time=6>, 68176], [<message pitchwheel channel=4 pitch=0 time=8>, 68184], [<message note_off channel=9 note=35 velocity=121 time=68>, 68226], [<message note_off channel=1 note=36 velocity=118 time=82>, 68240], [<message note_on channel=1 note=36 velocity=115 time=46>, 68286], [<message note_on channel=9 note=35 velocity=123 time=60>, 68286], [<message note_off channel=9 note=46 velocity=122 time=14>, 68300], [<message note_off channel=1 note=36 velocity=115 time=34>, 68320], [<message note_off channel=9 note=35 velocity=123 time=26>, 68326], [<message note_on channel=1 note=36 velocity=116 time=30>, 68350], [<message note_on channel=9 note=35 velocity=122 time=24>, 68350], [<message note_on channel=9 note=46 velocity=121 time=0>, 68350], [<message note_off channel=9 note=35 velocity=122 time=78>, 68428], [<message note_off channel=1 note=36 velocity=116 time=80>, 68430], [<message pitchwheel channel=4 pitch=2210 time=292>, 68476], [<message note_on channel=1 note=36 velocity=114 time=48>, 68478], [<message note_on channel=9 note=35 velocity=123 time=50>, 68478], [<message note_off channel=9 note=46 velocity=121 time=4>, 68482], [<message pitchwheel channel=4 pitch=3640 time=8>, 68484], [<message pitchwheel channel=4 pitch=4680 time=8>, 68492], [<message pitchwheel channel=4 pitch=4680 time=8>, 68500], [<message note_off channel=9 note=40 velocity=123 time=18>, 68500], [<message pitchwheel channel=4 pitch=3120 time=8>, 68508], [<message note_off channel=4 note=67 velocity=123 time=2>, 68510], [<message pitchwheel channel=4 pitch=0 time=6>, 68516], [<message pitchwheel channel=4 pitch=0 time=8>, 68524], [<message note_off channel=1 note=36 velocity=114 time=48>, 68526], [<message note_on channel=1 note=36 velocity=118 time=16>, 68542], [<message note_on channel=9 note=40 velocity=123 time=42>, 68542], [<message note_on channel=9 note=46 velocity=121 time=0>, 68542], [<message note_off channel=9 note=35 velocity=123 time=30>, 68572], [<message note_off channel=1 note=36 velocity=118 time=66>, 68608], [<message note_on channel=1 note=36 velocity=113 time=62>, 68670], [<message note_on channel=9 note=35 velocity=123 time=98>, 68670], [<message note_off channel=0 note=67 velocity=123 time=706>, 68674], [<message note_off channel=0 note=76 velocity=123 time=18>, 68692], [<message note_off channel=0 note=64 velocity=123 time=4>, 68696], [<message note_off channel=0 note=72 velocity=123 time=6>, 68702], [<message note_off channel=9 note=35 velocity=123 time=40>, 68710], [<message note_off channel=9 note=46 velocity=121 time=2>, 68712], [<message note_off channel=8 note=43 velocity=120 time=748>, 68716], [<message note_on channel=4 note=65 velocity=123 time=202>, 68726], [<message note_off channel=0 note=60 velocity=123 time=24>, 68726], [<message note_off channel=1 note=36 velocity=113 time=56>, 68726], [<message note_on channel=1 note=31 velocity=125 time=8>, 68734], [<message note_on channel=9 note=35 velocity=124 time=22>, 68734], [<message note_on channel=9 note=49 velocity=123 time=0>, 68734], [<message note_on channel=0 note=55 velocity=121 time=10>, 68736], [<message note_on channel=0 note=62 velocity=123 time=0>, 68736], [<message note_on channel=0 note=65 velocity=123 time=0>, 68736], [<message note_on channel=0 note=70 velocity=123 time=0>, 68736], [<message note_on channel=0 note=74 velocity=123 time=0>, 68736], [<message note_on channel=8 note=43 velocity=118 time=20>, 68736], [<message note_on channel=8 note=46 velocity=121 time=0>, 68736], [<message note_off channel=8 note=48 velocity=118 time=6>, 68742], [<message note_off channel=11 note=43 velocity=114 time=748>, 68812], [<message note_on channel=11 note=43 velocity=112 time=20>, 68832], [<message note_on channel=11 note=46 velocity=115 time=0>, 68832], [<message note_off channel=11 note=48 velocity=112 time=6>, 68838], [<message note_off channel=4 note=65 velocity=123 time=114>, 68840], [<message note_off channel=9 note=35 velocity=124 time=114>, 68848], [<message note_on channel=4 note=65 velocity=120 time=22>, 68862], [<message note_on channel=9 note=35 velocity=123 time=14>, 68862], [<message note_off channel=9 note=40 velocity=123 time=30>, 68892], [<message note_on channel=9 note=40 velocity=123 time=34>, 68926], [<message note_on channel=9 note=46 velocity=122 time=0>, 68926], [<message note_off channel=4 note=65 velocity=120 time=76>, 68938], [<message note_off channel=9 note=35 velocity=123 time=20>, 68946], [<message note_on channel=4 note=65 velocity=122 time=56>, 68994], [<message note_off channel=0 note=65 velocity=123 time=274>, 69010], [<message note_off channel=4 note=65 velocity=122 time=40>, 69034], [<message note_on channel=9 note=35 velocity=124 time=108>, 69054], [<message note_on channel=4 note=65 velocity=122 time=28>, 69062], [<message note_off channel=9 note=46 velocity=122 time=14>, 69068], [<message note_off channel=9 note=49 velocity=123 time=6>, 69074], [<message note_on channel=4 note=64 velocity=81 time=20>, 69082], [<message note_off channel=4 note=64 velocity=81 time=4>, 69086], [<message note_off channel=0 note=70 velocity=123 time=78>, 69088], [<message note_off channel=0 note=74 velocity=123 time=8>, 69096], [<message note_off channel=8 note=43 velocity=118 time=356>, 69098], [<message note_off channel=4 note=65 velocity=122 time=16>, 69102], [<message note_off channel=0 note=55 velocity=121 time=12>, 69108], [<message note_off channel=0 note=62 velocity=123 time=6>, 69114], [<message note_off channel=1 note=31 velocity=125 time=384>, 69118], [<message note_on channel=1 note=36 velocity=123 time=0>, 69118], [<message note_on channel=9 note=49 velocity=123 time=44>, 69118], [<message note_on channel=0 note=60 velocity=123 time=6>, 69120], [<message note_on channel=0 note=64 velocity=123 time=0>, 69120], [<message note_on channel=0 note=67 velocity=123 time=0>, 69120], [<message note_on channel=0 note=72 velocity=123 time=0>, 69120], [<message note_on channel=0 note=76 velocity=122 time=0>, 69120], [<message note_off channel=8 note=46 velocity=121 time=22>, 69120], [<message note_on channel=8 note=43 velocity=122 time=0>, 69120], [<message note_on channel=8 note=48 velocity=118 time=0>, 69120], [<message note_on channel=4 note=67 velocity=122 time=26>, 69128], [<message pitchwheel channel=4 pitch=-1280 time=8>, 69136], [<message pitchwheel channel=4 pitch=-4864 time=8>, 69144], [<message pitchwheel channel=4 pitch=-8192 time=10>, 69154], [<message pitchwheel channel=4 pitch=-6272 time=10>, 69164], [<message pitchwheel channel=4 pitch=5460 time=8>, 69172], [<message pitchwheel channel=4 pitch=-768 time=8>, 69180], [<message pitchwheel channel=4 pitch=0 time=8>, 69188], [<message note_off channel=11 note=43 velocity=112 time=356>, 69194], [<message pitchwheel channel=4 pitch=1040 time=8>, 69196], [<message pitchwheel channel=4 pitch=-1024 time=8>, 69204], [<message pitchwheel channel=4 pitch=0 time=8>, 69212], [<message note_off channel=11 note=46 velocity=115 time=22>, 69216], [<message note_on channel=11 note=43 velocity=117 time=0>, 69216], [<message note_on channel=11 note=48 velocity=112 time=0>, 69216], [<message pitchwheel channel=4 pitch=0 time=8>, 69220], [<message note_off channel=9 note=35 velocity=124 time=126>, 69244], [<message note_on channel=9 note=35 velocity=123 time=2>, 69246], [<message note_off channel=9 note=40 velocity=123 time=34>, 69280], [<message note_on channel=9 note=40 velocity=123 time=30>, 69310], [<message note_on channel=9 note=46 velocity=122 time=0>, 69310], [<message note_off channel=9 note=35 velocity=123 time=92>, 69402], [<message note_off channel=9 note=46 velocity=122 time=24>, 69426], [<message note_off channel=9 note=49 velocity=123 time=6>, 69432], [<message note_on channel=9 note=35 velocity=121 time=6>, 69438], [<message note_off channel=0 note=67 velocity=123 time=324>, 69444], [<message note_off channel=0 note=76 velocity=122 time=20>, 69464], [<message note_off channel=8 note=43 velocity=122 time=350>, 69470], [<message note_off channel=0 note=64 velocity=123 time=14>, 69478], [<message note_off channel=9 note=35 velocity=121 time=40>, 69478], [<message note_off channel=0 note=72 velocity=123 time=10>, 69488], [<message note_off channel=1 note=36 velocity=123 time=384>, 69502], [<message note_on channel=1 note=31 velocity=125 time=0>, 69502], [<message note_on channel=9 note=35 velocity=122 time=24>, 69502], [<message note_on channel=9 note=49 velocity=123 time=0>, 69502], [<message note_off channel=0 note=60 velocity=123 time=16>, 69504], [<message note_on channel=0 note=55 velocity=123 time=0>, 69504], [<message note_on channel=0 note=62 velocity=123 time=0>, 69504], [<message note_on channel=0 note=65 velocity=123 time=0>, 69504], [<message note_on channel=0 note=70 velocity=123 time=0>, 69504], [<message note_on channel=0 note=74 velocity=123 time=0>, 69504], [<message note_on channel=8 note=43 velocity=119 time=34>, 69504], [<message note_on channel=8 note=46 velocity=121 time=0>, 69504], [<message note_off channel=8 note=48 velocity=118 time=10>, 69514], [<message note_off channel=4 note=67 velocity=122 time=296>, 69516], [<message note_on channel=4 note=65 velocity=118 time=2>, 69518], [<message note_off channel=11 note=43 velocity=117 time=350>, 69566], [<message note_on channel=11 note=43 velocity=113 time=34>, 69600], [<message note_on channel=11 note=46 velocity=115 time=0>, 69600], [<message note_off channel=11 note=48 velocity=112 time=10>, 69610], [<message note_off channel=4 note=65 velocity=118 time=96>, 69614], [<message note_off channel=9 note=35 velocity=122 time=116>, 69618], [<message note_on channel=9 note=35 velocity=124 time=12>, 69630], [<message note_on channel=4 note=65 velocity=119 time=28>, 69642], [<message note_off channel=9 note=40 velocity=123 time=44>, 69674], [<message note_off channel=9 note=35 velocity=124 time=20>, 69694], [<message note_on channel=9 note=40 velocity=124 time=0>, 69694], [<message note_on channel=9 note=46 velocity=122 time=0>, 69694], [<message note_off channel=4 note=65 velocity=119 time=54>, 69696], [<message note_on channel=4 note=65 velocity=122 time=38>, 69734], [<message note_off channel=4 note=65 velocity=122 time=44>, 69778], [<message note_off channel=9 note=40 velocity=124 time=96>, 69790], [<message note_on channel=4 note=65 velocity=122 time=26>, 69804], [<message note_off channel=0 note=65 velocity=123 time=300>, 69804], [<message note_off channel=9 note=46 velocity=122 time=20>, 69810], [<message note_off channel=9 note=49 velocity=123 time=16>, 69826], [<message note_off channel=0 note=74 velocity=123 time=48>, 69852], [<message note_off channel=0 note=70 velocity=123 time=6>, 69858], [<message note_off channel=0 note=62 velocity=123 time=8>, 69866], [<message note_off channel=0 note=55 velocity=123 time=2>, 69868], [<message note_off channel=4 note=65 velocity=122 time=78>, 69882], [<message note_off channel=1 note=31 velocity=125 time=384>, 69886], [<message note_on channel=1 note=36 velocity=121 time=0>, 69886], [<message note_on channel=9 note=35 velocity=123 time=60>, 69886], [<message note_on channel=9 note=49 velocity=123 time=0>, 69886], [<message note_on channel=0 note=60 velocity=123 time=20>, 69888], [<message note_on channel=0 note=64 velocity=123 time=0>, 69888], [<message note_on channel=0 note=67 velocity=123 time=0>, 69888], [<message note_on channel=0 note=72 velocity=123 time=0>, 69888], [<message note_on channel=0 note=76 velocity=121 time=0>, 69888], [<message note_on channel=8 note=48 velocity=116 time=374>, 69888], [<message note_off channel=8 note=46 velocity=121 time=2>, 69890], [<message pitchwheel channel=4 pitch=-1792 time=22>, 69904], [<message pitchwheel channel=4 pitch=-4480 time=8>, 69912], [<message note_on channel=4 note=67 velocity=123 time=4>, 69916], [<message pitchwheel channel=4 pitch=-1280 time=8>, 69924], [<message pitchwheel channel=4 pitch=0 time=8>, 69932], [<message note_off channel=9 note=35 velocity=123 time=64>, 69950], [<message note_on channel=11 note=48 velocity=109 time=374>, 69984], [<message note_off channel=11 note=46 velocity=115 time=2>, 69986], [<message note_on channel=9 note=35 velocity=123 time=64>, 70014], [<message note_on channel=4 note=65 velocity=123 time=108>, 70040], [<message note_off channel=4 note=67 velocity=123 time=14>, 70054], [<message note_off channel=9 note=35 velocity=123 time=44>, 70058], [<message note_on channel=9 note=40 velocity=124 time=20>, 70078], [<message note_on channel=9 note=46 velocity=122 time=0>, 70078], [<message note_off channel=9 note=49 velocity=123 time=4>, 70082], [<message note_off channel=9 note=46 velocity=122 time=50>, 70132], [<message note_off channel=1 note=36 velocity=121 time=256>, 70142], [<message note_on channel=9 note=35 velocity=124 time=10>, 70142], [<message note_on channel=9 note=49 velocity=123 time=0>, 70142], [<message note_off channel=4 note=65 velocity=123 time=98>, 70152], [<message note_on channel=4 note=64 velocity=123 time=8>, 70160], [<message note_on channel=1 note=31 velocity=118 time=32>, 70174], [<message note_off channel=9 note=40 velocity=124 time=32>, 70174], [<message note_off channel=0 note=64 velocity=123 time=306>, 70194], [<message note_off channel=9 note=49 velocity=123 time=28>, 70202], [<message note_off channel=9 note=35 velocity=124 time=4>, 70206], [<message note_on channel=9 note=40 velocity=123 time=0>, 70206], [<message note_on channel=9 note=46 velocity=123 time=0>, 70206], [<message note_off channel=0 note=76 velocity=121 time=20>, 70214], [<message note_off channel=0 note=67 velocity=123 time=6>, 70220], [<message note_off channel=1 note=31 velocity=118 time=56>, 70230], [<message note_off channel=0 note=72 velocity=123 time=26>, 70246], [<message note_off channel=4 note=64 velocity=123 time=102>, 70262], [<message note_off channel=0 note=60 velocity=123 time=22>, 70268], [<message note_on channel=1 note=41 velocity=124 time=40>, 70270], [<message note_off channel=8 note=43 velocity=119 time=380>, 70270], [<message note_on channel=9 note=35 velocity=123 time=64>, 70270], [<message note_on channel=9 note=49 velocity=123 time=0>, 70270], [<message note_on channel=0 note=65 velocity=123 time=4>, 70272], [<message note_on channel=0 note=77 velocity=123 time=0>, 70272], [<message note_on channel=8 note=53 velocity=121 time=2>, 70272], [<message note_on channel=4 note=65 velocity=122 time=18>, 70280], [<message note_off channel=8 note=48 velocity=116 time=10>, 70282], [<message note_off channel=9 note=46 velocity=123 time=62>, 70332], [<message note_off channel=11 note=43 velocity=113 time=380>, 70366], [<message note_off channel=9 note=35 velocity=123 time=34>, 70366], [<message note_on channel=11 note=53 velocity=115 time=2>, 70368], [<message note_off channel=11 note=48 velocity=109 time=10>, 70378], [<message note_off channel=1 note=41 velocity=124 time=124>, 70394], [<message note_off channel=0 note=77 velocity=123 time=124>, 70396], [<message note_off channel=0 note=65 velocity=123 time=0>, 70396], [<message note_off channel=8 note=53 velocity=121 time=114>, 70396], [<message note_on channel=1 note=33 velocity=124 time=4>, 70398], [<message note_on channel=9 note=35 velocity=121 time=32>, 70398], [<message note_on channel=0 note=57 velocity=123 time=4>, 70400], [<message note_on channel=0 note=69 velocity=123 time=0>, 70400], [<message note_on channel=8 note=45 velocity=121 time=4>, 70400], [<message note_off channel=4 note=65 velocity=122 time=132>, 70412], [<message note_on channel=4 note=62 velocity=120 time=0>, 70412], [<message note_off channel=9 note=40 velocity=123 time=14>, 70412], [<message note_on channel=4 note=60 velocity=119 time=46>, 70458], [<message note_on channel=9 note=40 velocity=123 time=50>, 70462], [<message note_on channel=9 note=46 velocity=122 time=0>, 70462], [<message note_off channel=4 note=62 velocity=120 time=20>, 70478], [<message note_off channel=11 note=53 velocity=115 time=114>, 70492], [<message note_on channel=11 note=45 velocity=116 time=4>, 70496], [<message note_off channel=0 note=69 velocity=123 time=124>, 70524], [<message note_off channel=0 note=57 velocity=123 time=0>, 70524], [<message note_off channel=1 note=33 velocity=124 time=126>, 70524], [<message note_off channel=8 note=45 velocity=121 time=124>, 70524], [<message note_on channel=1 note=34 velocity=123 time=2>, 70526], [<message note_on channel=0 note=58 velocity=122 time=4>, 70528], [<message note_on channel=0 note=70 velocity=122 time=0>, 70528], [<message note_on channel=8 note=46 velocity=120 time=4>, 70528], [<message note_off channel=9 note=35 velocity=121 time=120>, 70582], [<message note_off channel=11 note=45 velocity=116 time=124>, 70620], [<message note_on channel=11 note=46 velocity=114 time=4>, 70624], [<message note_off channel=9 note=46 velocity=122 time=46>, 70628], [<message note_off channel=1 note=34 velocity=123 time=116>, 70642], [<message note_off channel=0 note=70 velocity=122 time=124>, 70652], [<message note_off channel=0 note=58 velocity=122 time=0>, 70652], [<message note_off channel=8 note=46 velocity=120 time=124>, 70652], [<message note_on channel=1 note=35 velocity=125 time=12>, 70654], [<message note_on channel=9 note=35 velocity=123 time=26>, 70654], [<message note_on channel=9 note=46 velocity=122 time=0>, 70654], [<message note_on channel=0 note=59 velocity=123 time=4>, 70656], [<message note_on channel=0 note=71 velocity=123 time=0>, 70656], [<message note_on channel=8 note=47 velocity=122 time=4>, 70656], [<message pitchwheel channel=4 pitch=-384 time=192>, 70670], [<message pitchwheel channel=4 pitch=-768 time=8>, 70678], [<message pitchwheel channel=4 pitch=0 time=16>, 70694], [<message note_off channel=9 note=35 velocity=123 time=74>, 70728], [<message note_off channel=11 note=46 velocity=114 time=124>, 70748], [<message note_on channel=11 note=47 velocity=117 time=4>, 70752], [<message note_off channel=1 note=35 velocity=125 time=118>, 70772], [<message note_on channel=1 note=36 velocity=122 time=10>, 70782], [<message note_on channel=9 note=35 velocity=121 time=54>, 70782], [<message note_on channel=0 note=60 velocity=120 time=128>, 70784], [<message note_on channel=0 note=72 velocity=120 time=0>, 70784], [<message note_on channel=8 note=48 velocity=117 time=128>, 70784], [<message note_off channel=9 note=40 velocity=123 time=4>, 70786], [<message note_off channel=9 note=46 velocity=122 time=4>, 70790], [<message note_off channel=0 note=71 velocity=123 time=16>, 70800], [<message note_off channel=0 note=59 velocity=123 time=0>, 70800], [<message note_off channel=8 note=47 velocity=122 time=16>, 70800], [<message pitchwheel channel=4 pitch=-896 time=138>, 70832], [<message pitchwheel channel=4 pitch=-640 time=12>, 70844], [<message note_on channel=1 note=38 velocity=119 time=64>, 70846], [<message note_on channel=9 note=40 velocity=123 time=56>, 70846], [<message note_on channel=9 note=46 velocity=122 time=0>, 70846], [<message note_on channel=0 note=62 velocity=121 time=48>, 70848], [<message note_on channel=0 note=74 velocity=121 time=0>, 70848], [<message note_on channel=8 note=50 velocity=118 time=48>, 70848], [<message note_off channel=1 note=36 velocity=122 time=6>, 70852], [<message pitchwheel channel=4 pitch=0 time=10>, 70854], [<message note_off channel=0 note=72 velocity=120 time=16>, 70864], [<message note_off channel=0 note=60 velocity=120 time=0>, 70864], [<message note_off channel=8 note=48 velocity=117 time=16>, 70864], [<message note_on channel=11 note=48 velocity=110 time=128>, 70880], [<message note_off channel=11 note=47 velocity=117 time=16>, 70896], [<message note_off channel=1 note=38 velocity=119 time=54>, 70906], [<message note_on channel=1 note=40 velocity=120 time=4>, 70910], [<message note_on channel=0 note=64 velocity=122 time=48>, 70912], [<message note_on channel=0 note=76 velocity=122 time=0>, 70912], [<message note_on channel=8 note=52 velocity=120 time=48>, 70912], [<message note_off channel=0 note=74 velocity=121 time=2>, 70914], [<message note_off channel=0 note=62 velocity=121 time=0>, 70914], [<message note_off channel=8 note=50 velocity=118 time=2>, 70914], [<message pitchwheel channel=4 pitch=-1792 time=90>, 70944], [<message note_on channel=11 note=50 velocity=112 time=48>, 70944], [<message pitchwheel channel=4 pitch=-3584 time=8>, 70952], [<message pitchwheel channel=4 pitch=-4736 time=8>, 70960], [<message note_off channel=11 note=48 velocity=110 time=16>, 70960], [<message pitchwheel channel=4 pitch=-768 time=10>, 70970], [<message note_on channel=1 note=41 velocity=123 time=64>, 70974], [<message note_on channel=0 note=65 velocity=123 time=62>, 70976], [<message note_on channel=0 note=77 velocity=123 time=0>, 70976], [<message note_on channel=8 note=53 velocity=121 time=62>, 70976], [<message pitchwheel channel=4 pitch=0 time=8>, 70978], [<message note_off channel=9 note=35 velocity=121 time=134>, 70980], [<message note_off channel=1 note=40 velocity=120 time=12>, 70986], [<message note_off channel=9 note=46 velocity=122 time=6>, 70986], [<message note_off channel=0 note=76 velocity=122 time=22>, 70998], [<message note_off channel=0 note=64 velocity=122 time=0>, 70998], [<message note_off channel=8 note=52 velocity=120 time=22>, 70998], [<message note_on channel=11 note=52 velocity=114 time=48>, 71008], [<message note_off channel=11 note=50 velocity=112 time=2>, 71010], [<message note_off channel=1 note=41 velocity=123 time=26>, 71012], [<message note_off channel=0 note=77 velocity=123 time=24>, 71022], [<message note_off channel=0 note=65 velocity=123 time=0>, 71022], [<message note_off channel=8 note=53 velocity=121 time=24>, 71022], [<message note_on channel=1 note=41 velocity=125 time=26>, 71038], [<message note_on channel=9 note=35 velocity=123 time=52>, 71038], [<message note_on channel=9 note=46 velocity=123 time=0>, 71038], [<message note_on channel=0 note=65 velocity=123 time=18>, 71040], [<message note_on channel=0 note=77 velocity=123 time=0>, 71040], [<message note_on channel=8 note=53 velocity=121 time=18>, 71040], [<message note_on channel=11 note=53 velocity=115 time=62>, 71072], [<message note_on channel=4 note=59 velocity=109 time=98>, 71076], [<message note_off channel=4 note=60 velocity=119 time=16>, 71092], [<message note_off channel=11 note=52 velocity=114 time=22>, 71094], [<message note_on channel=4 note=57 velocity=110 time=8>, 71100], [<message note_off channel=4 note=59 velocity=109 time=4>, 71104], [<message note_off channel=4 note=57 velocity=110 time=12>, 71116], [<message note_off channel=11 note=53 velocity=115 time=24>, 71118], [<message note_off channel=9 note=35 velocity=123 time=80>, 71118], [<message note_on channel=4 note=55 velocity=104 time=6>, 71122], [<message note_off channel=4 note=55 velocity=104 time=12>, 71134], [<message note_on channel=11 note=53 velocity=115 time=18>, 71136], [<message note_off channel=0 note=77 velocity=123 time=124>, 71164], [<message note_off channel=0 note=65 velocity=123 time=0>, 71164], [<message note_off channel=8 note=53 velocity=121 time=124>, 71164], [<message note_on channel=1 note=33 velocity=125 time=128>, 71166], [<message note_on channel=9 note=35 velocity=120 time=48>, 71166], [<message note_on channel=0 note=57 velocity=123 time=4>, 71168], [<message note_on channel=0 note=69 velocity=123 time=0>, 71168], [<message note_on channel=8 note=45 velocity=121 time=4>, 71168], [<message note_off channel=9 note=40 velocity=123 time=8>, 71174], [<message note_off channel=1 note=41 velocity=125 time=10>, 71176], [<message note_off channel=9 note=46 velocity=123 time=4>, 71178], [<message note_on channel=9 note=40 velocity=123 time=52>, 71230], [<message note_on channel=9 note=46 velocity=123 time=0>, 71230], [<message note_off channel=11 note=53 velocity=115 time=124>, 71260], [<message note_on channel=11 note=45 velocity=116 time=4>, 71264], [<message note_on channel=0 note=58 velocity=122 time=128>, 71296], [<message note_on channel=0 note=70 velocity=122 time=0>, 71296], [<message note_on channel=8 note=46 velocity=120 time=128>, 71296], [<message note_off channel=0 note=69 velocity=123 time=6>, 71302], [<message note_off channel=0 note=57 velocity=123 time=0>, 71302], [<message note_off channel=8 note=45 velocity=121 time=6>, 71302], [<message note_off channel=1 note=33 velocity=125 time=132>, 71308], [<message note_on channel=1 note=34 velocity=123 time=2>, 71310], [<message note_off channel=9 note=35 velocity=120 time=114>, 71344], [<message note_off channel=9 note=46 velocity=123 time=32>, 71376], [<message note_on channel=11 note=46 velocity=114 time=128>, 71392], [<message note_off channel=11 note=45 velocity=116 time=6>, 71398], [<message note_off channel=0 note=70 velocity=122 time=112>, 71414], [<message note_off channel=0 note=58 velocity=122 time=0>, 71414], [<message note_off channel=8 note=46 velocity=120 time=112>, 71414], [<message note_off channel=1 note=34 velocity=123 time=112>, 71422], [<message note_on channel=1 note=35 velocity=123 time=0>, 71422], [<message note_off channel=9 note=49 velocity=123 time=46>, 71422], [<message note_on channel=9 note=35 velocity=121 time=0>, 71422], [<message note_on channel=9 note=46 velocity=123 time=0>, 71422], [<message note_on channel=0 note=59 velocity=122 time=10>, 71424], [<message note_on channel=0 note=71 velocity=122 time=0>, 71424], [<message note_on channel=8 note=47 velocity=120 time=10>, 71424], [<message note_off channel=9 note=35 velocity=121 time=56>, 71478], [<message note_on channel=1 note=36 velocity=119 time=64>, 71486], [<message note_on channel=0 note=60 velocity=120 time=64>, 71488], [<message note_on channel=0 note=72 velocity=120 time=0>, 71488], [<message note_on channel=8 note=48 velocity=117 time=64>, 71488], [<message note_off channel=1 note=35 velocity=123 time=6>, 71492], [<message note_off channel=0 note=71 velocity=122 time=6>, 71494], [<message note_off channel=0 note=59 velocity=122 time=0>, 71494], [<message note_off channel=8 note=47 velocity=120 time=6>, 71494], [<message note_off channel=11 note=46 velocity=114 time=112>, 71510], [<message note_on channel=11 note=47 velocity=114 time=10>, 71520], [<message note_off channel=1 note=36 velocity=119 time=48>, 71540], [<message note_off channel=0 note=72 velocity=120 time=48>, 71542], [<message note_off channel=0 note=60 velocity=120 time=0>, 71542], [<message note_off channel=8 note=48 velocity=117 time=48>, 71542], [<message note_on channel=1 note=38 velocity=124 time=10>, 71550], [<message note_on channel=9 note=35 velocity=122 time=72>, 71550], [<message note_on channel=0 note=62 velocity=123 time=10>, 71552], [<message note_on channel=0 note=74 velocity=123 time=0>, 71552], [<message note_on channel=8 note=50 velocity=122 time=10>, 71552], [<message note_off channel=9 note=46 velocity=123 time=8>, 71558], [<message note_off channel=9 note=40 velocity=123 time=10>, 71568], [<message note_on channel=11 note=48 velocity=110 time=64>, 71584], [<message note_off channel=11 note=47 velocity=114 time=6>, 71590], [<message note_on channel=1 note=36 velocity=124 time=64>, 71614], [<message note_on channel=9 note=40 velocity=123 time=46>, 71614], [<message note_on channel=9 note=46 velocity=122 time=0>, 71614], [<message note_on channel=0 note=60 velocity=123 time=64>, 71616], [<message note_on channel=0 note=72 velocity=123 time=0>, 71616], [<message note_on channel=8 note=48 velocity=122 time=64>, 71616], [<message note_off channel=0 note=74 velocity=123 time=4>, 71620], [<message note_off channel=0 note=62 velocity=123 time=0>, 71620], [<message note_off channel=8 note=50 velocity=122 time=4>, 71620], [<message note_off channel=1 note=38 velocity=124 time=16>, 71630], [<message note_off channel=11 note=48 velocity=110 time=48>, 71638], [<message note_on channel=11 note=50 velocity=117 time=10>, 71648], [<message note_on channel=11 note=48 velocity=117 time=64>, 71712], [<message note_off channel=11 note=50 velocity=117 time=4>, 71716], [<message note_off channel=9 note=35 velocity=122 time=112>, 71726], [<message note_off channel=9 note=46 velocity=122 time=28>, 71754], [<message note_off channel=0 note=72 velocity=123 time=174>, 71794], [<message note_off channel=0 note=60 velocity=123 time=0>, 71794], [<message note_off channel=1 note=36 velocity=124 time=164>, 71794], [<message note_off channel=8 note=48 velocity=122 time=174>, 71794], [<message note_on channel=1 note=41 velocity=125 time=12>, 71806], [<message note_on channel=9 note=35 velocity=123 time=52>, 71806], [<message note_on channel=9 note=46 velocity=122 time=0>, 71806], [<message note_on channel=0 note=65 velocity=123 time=14>, 71808], [<message note_on channel=0 note=77 velocity=123 time=0>, 71808], [<message note_on channel=8 note=53 velocity=122 time=14>, 71808], [<message note_off channel=9 note=35 velocity=123 time=56>, 71862], [<message note_off channel=11 note=48 velocity=117 time=174>, 71890], [<message note_on channel=11 note=53 velocity=117 time=14>, 71904], [<message note_on channel=1 note=33 velocity=125 time=128>, 71934], [<message note_on channel=9 note=35 velocity=122 time=72>, 71934], [<message note_on channel=0 note=57 velocity=123 time=128>, 71936], [<message note_on channel=0 note=69 velocity=123 time=0>, 71936], [<message note_on channel=8 note=45 velocity=122 time=128>, 71936], [<message note_off channel=1 note=41 velocity=125 time=8>, 71942], [<message note_off channel=9 note=40 velocity=123 time=8>, 71942], [<message note_off channel=0 note=77 velocity=123 time=8>, 71944], [<message note_off channel=0 note=65 velocity=123 time=0>, 71944], [<message note_off channel=8 note=53 velocity=122 time=8>, 71944], [<message note_off channel=9 note=46 velocity=122 time=2>, 71944], [<message note_on channel=9 note=40 velocity=123 time=54>, 71998], [<message note_on channel=9 note=46 velocity=122 time=0>, 71998], [<message note_on channel=11 note=45 velocity=117 time=128>, 72032], [<message note_off channel=11 note=53 velocity=117 time=8>, 72040], [<message note_on channel=1 note=34 velocity=120 time=120>, 72062], [<message note_on channel=0 note=58 velocity=123 time=120>, 72064], [<message note_on channel=0 note=70 velocity=123 time=0>, 72064], [<message note_on channel=8 note=46 velocity=121 time=120>, 72064], [<message note_off channel=0 note=69 velocity=123 time=4>, 72068], [<message note_off channel=0 note=57 velocity=123 time=0>, 72068], [<message note_off channel=8 note=45 velocity=122 time=4>, 72068], [<message note_off channel=1 note=33 velocity=125 time=14>, 72076], [<message note_off channel=9 note=35 velocity=122 time=106>, 72104], [<message note_off channel=9 note=46 velocity=122 time=34>, 72138], [<message note_on channel=11 note=46 velocity=115 time=120>, 72160], [<message note_off channel=11 note=45 velocity=117 time=4>, 72164], [<message note_off channel=1 note=34 velocity=120 time=102>, 72178], [<message note_off channel=0 note=70 velocity=123 time=118>, 72186], [<message note_off channel=0 note=58 velocity=123 time=0>, 72186], [<message note_off channel=8 note=46 velocity=121 time=118>, 72186], [<message note_on channel=1 note=35 velocity=125 time=12>, 72190], [<message note_on channel=9 note=35 velocity=123 time=52>, 72190], [<message note_on channel=9 note=46 velocity=122 time=0>, 72190], [<message note_on channel=0 note=59 velocity=123 time=6>, 72192], [<message note_on channel=0 note=71 velocity=123 time=0>, 72192], [<message note_on channel=8 note=47 velocity=121 time=6>, 72192], [<message note_off channel=9 note=35 velocity=123 time=60>, 72250], [<message note_off channel=11 note=46 velocity=115 time=118>, 72282], [<message note_on channel=11 note=47 velocity=115 time=6>, 72288], [<message note_off channel=1 note=35 velocity=125 time=124>, 72314], [<message note_on channel=1 note=36 velocity=124 time=4>, 72318], [<message note_on channel=9 note=35 velocity=123 time=68>, 72318], [<message note_on channel=0 note=60 velocity=119 time=128>, 72320], [<message note_on channel=0 note=72 velocity=119 time=0>, 72320], [<message note_on channel=8 note=48 velocity=116 time=128>, 72320], [<message note_off channel=0 note=71 velocity=123 time=6>, 72326], [<message note_off channel=0 note=59 velocity=123 time=0>, 72326], [<message note_off channel=8 note=47 velocity=121 time=6>, 72326], [<message note_off channel=9 note=46 velocity=122 time=16>, 72334], [<message note_off channel=9 note=40 velocity=123 time=10>, 72344], [<message note_on channel=1 note=38 velocity=119 time=64>, 72382], [<message note_on channel=9 note=40 velocity=123 time=38>, 72382], [<message note_on channel=9 note=46 velocity=123 time=0>, 72382], [<message note_on channel=0 note=62 velocity=120 time=58>, 72384], [<message note_on channel=0 note=74 velocity=120 time=0>, 72384], [<message note_on channel=8 note=50 velocity=117 time=58>, 72384], [<message note_off channel=0 note=72 velocity=119 time=2>, 72386], [<message note_off channel=0 note=60 velocity=119 time=0>, 72386], [<message note_off channel=8 note=48 velocity=116 time=2>, 72386], [<message note_off channel=1 note=36 velocity=124 time=6>, 72388], [<message note_on channel=11 note=48 velocity=109 time=128>, 72416], [<message note_off channel=11 note=47 velocity=115 time=6>, 72422], [<message note_off channel=1 note=38 velocity=119 time=50>, 72438], [<message note_off channel=0 note=74 velocity=120 time=54>, 72440], [<message note_off channel=0 note=62 velocity=120 time=0>, 72440], [<message note_off channel=8 note=50 velocity=117 time=54>, 72440], [<message note_on channel=1 note=40 velocity=114 time=8>, 72446], [<message note_on channel=0 note=64 velocity=121 time=8>, 72448], [<message note_on channel=0 note=76 velocity=121 time=0>, 72448], [<message note_on channel=8 note=52 velocity=118 time=8>, 72448], [<message note_on channel=11 note=50 velocity=110 time=58>, 72480], [<message note_off channel=11 note=48 velocity=109 time=2>, 72482], [<message note_off channel=9 note=35 velocity=123 time=112>, 72494], [<message note_off channel=1 note=40 velocity=114 time=56>, 72502], [<message note_on channel=1 note=41 velocity=121 time=8>, 72510], [<message note_on channel=0 note=65 velocity=121 time=64>, 72512], [<message note_on channel=0 note=77 velocity=121 time=0>, 72512], [<message note_on channel=8 note=53 velocity=118 time=64>, 72512], [<message note_off channel=11 note=50 velocity=110 time=54>, 72536], [<message note_off channel=9 note=46 velocity=123 time=44>, 72538], [<message note_off channel=1 note=41 velocity=121 time=34>, 72544], [<message note_on channel=11 note=52 velocity=112 time=8>, 72544], [<message note_off channel=0 note=76 velocity=121 time=34>, 72546], [<message note_off channel=0 note=64 velocity=121 time=0>, 72546], [<message note_off channel=8 note=52 velocity=118 time=34>, 72546], [<message note_off channel=0 note=77 velocity=121 time=10>, 72556], [<message note_off channel=0 note=65 velocity=121 time=0>, 72556], [<message note_off channel=8 note=53 velocity=118 time=10>, 72556], [<message note_on channel=1 note=43 velocity=125 time=30>, 72574], [<message note_on channel=9 note=35 velocity=123 time=36>, 72574], [<message note_on channel=9 note=49 velocity=123 time=0>, 72574], [<message note_on channel=0 note=67 velocity=123 time=20>, 72576], [<message note_on channel=0 note=79 velocity=123 time=0>, 72576], [<message note_on channel=8 note=55 velocity=121 time=20>, 72576], [<message note_on channel=11 note=53 velocity=112 time=64>, 72608], [<message note_off channel=11 note=52 velocity=112 time=34>, 72642], [<message note_off channel=9 note=35 velocity=123 time=68>, 72642], [<message note_off channel=11 note=53 velocity=112 time=10>, 72652], [<message note_on channel=11 note=55 velocity=116 time=20>, 72672], [<message note_off channel=9 note=49 velocity=123 time=46>, 72688], [<message note_off channel=1 note=43 velocity=125 time=120>, 72694], [<message note_off channel=0 note=79 velocity=123 time=124>, 72700], [<message note_off channel=0 note=67 velocity=123 time=0>, 72700], [<message note_off channel=8 note=55 velocity=121 time=124>, 72700], [<message note_on channel=1 note=35 velocity=124 time=8>, 72702], [<message note_on channel=9 note=35 velocity=123 time=14>, 72702], [<message note_on channel=0 note=59 velocity=123 time=4>, 72704], [<message note_on channel=0 note=71 velocity=123 time=0>, 72704], [<message note_on channel=8 note=47 velocity=121 time=4>, 72704], [<message note_off channel=9 note=40 velocity=123 time=6>, 72708], [<message note_on channel=9 note=40 velocity=123 time=58>, 72766], [<message note_on channel=9 note=46 velocity=122 time=0>, 72766], [<message note_off channel=11 note=55 velocity=116 time=124>, 72796], [<message note_on channel=11 note=47 velocity=116 time=4>, 72800], [<message note_on channel=1 note=36 velocity=123 time=128>, 72830], [<message note_on channel=0 note=60 velocity=122 time=128>, 72832], [<message note_on channel=0 note=72 velocity=122 time=0>, 72832], [<message note_on channel=8 note=48 velocity=119 time=128>, 72832], [<message note_off channel=0 note=71 velocity=123 time=34>, 72866], [<message note_off channel=0 note=59 velocity=123 time=0>, 72866], [<message note_off channel=8 note=47 velocity=121 time=34>, 72866], [<message note_off channel=9 note=35 velocity=123 time=100>, 72866], [<message note_off channel=1 note=35 velocity=124 time=42>, 72872], [<message note_off channel=9 note=46 velocity=122 time=36>, 72902], [<message note_on channel=11 note=48 velocity=113 time=128>, 72928], [<message note_off channel=1 note=36 velocity=123 time=66>, 72938], [<message note_off channel=0 note=72 velocity=122 time=90>, 72956], [<message note_off channel=0 note=60 velocity=122 time=0>, 72956], [<message note_off channel=8 note=48 velocity=119 time=90>, 72956], [<message note_on channel=1 note=38 velocity=123 time=20>, 72958], [<message note_on channel=9 note=35 velocity=122 time=56>, 72958], [<message note_on channel=9 note=46 velocity=122 time=0>, 72958], [<message note_on channel=0 note=62 velocity=122 time=4>, 72960], [<message note_on channel=0 note=74 velocity=122 time=0>, 72960], [<message note_on channel=8 note=50 velocity=120 time=4>, 72960], [<message note_off channel=11 note=47 velocity=116 time=34>, 72962], [<message note_off channel=9 note=35 velocity=122 time=72>, 73030], [<message note_off channel=11 note=48 velocity=113 time=90>, 73052], [<message note_on channel=11 note=50 velocity=114 time=4>, 73056], [<message note_off channel=1 note=38 velocity=123 time=108>, 73066], [<message note_off channel=0 note=74 velocity=122 time=114>, 73074], [<message note_off channel=0 note=62 velocity=122 time=0>, 73074], [<message note_off channel=8 note=50 velocity=120 time=114>, 73074], [<message note_on channel=1 note=39 velocity=123 time=20>, 73086], [<message note_on channel=9 note=35 velocity=123 time=56>, 73086], [<message note_on channel=0 note=63 velocity=120 time=14>, 73088], [<message note_on channel=0 note=75 velocity=120 time=0>, 73088], [<message note_on channel=8 note=51 velocity=117 time=14>, 73088], [<message note_off channel=9 note=46 velocity=122 time=20>, 73106], [<message note_off channel=9 note=40 velocity=123 time=2>, 73108], [<message note_off channel=0 note=75 velocity=120 time=60>, 73148], [<message note_off channel=0 note=63 velocity=120 time=0>, 73148], [<message note_off channel=8 note=51 velocity=117 time=60>, 73148], [<message note_on channel=1 note=40 velocity=120 time=64>, 73150], [<message note_on channel=9 note=40 velocity=123 time=42>, 73150], [<message note_on channel=9 note=46 velocity=123 time=0>, 73150], [<message note_on channel=0 note=64 velocity=123 time=4>, 73152], [<message note_on channel=0 note=76 velocity=123 time=0>, 73152], [<message note_on channel=8 note=52 velocity=121 time=4>, 73152], [<message note_off channel=9 note=35 velocity=123 time=4>, 73154], [<message note_off channel=1 note=39 velocity=123 time=14>, 73164], [<message note_off channel=11 note=50 velocity=114 time=114>, 73170], [<message note_on channel=11 note=51 velocity=110 time=14>, 73184], [<message note_off channel=1 note=40 velocity=120 time=46>, 73210], [<message note_on channel=1 note=41 velocity=125 time=4>, 73214], [<message note_on channel=9 note=43 velocity=121 time=60>, 73214], [<message note_off channel=0 note=76 velocity=123 time=64>, 73216], [<message note_off channel=0 note=64 velocity=123 time=0>, 73216], [<message note_on channel=0 note=65 velocity=119 time=0>, 73216], [<message note_on channel=0 note=77 velocity=119 time=0>, 73216], [<message note_off channel=8 note=52 velocity=121 time=64>, 73216], [<message note_on channel=8 note=53 velocity=116 time=0>, 73216], [<message note_off channel=9 note=40 velocity=123 time=10>, 73224], [<message note_off channel=11 note=51 velocity=110 time=60>, 73244], [<message note_on channel=11 note=52 velocity=115 time=4>, 73248], [<message note_off channel=0 note=77 velocity=119 time=46>, 73262], [<message note_off channel=0 note=65 velocity=119 time=0>, 73262], [<message note_off channel=8 note=53 velocity=116 time=46>, 73262], [<message note_on channel=1 note=43 velocity=120 time=64>, 73278], [<message note_on channel=9 note=45 velocity=122 time=54>, 73278], [<message note_on channel=0 note=67 velocity=122 time=18>, 73280], [<message note_on channel=0 note=79 velocity=122 time=0>, 73280], [<message note_on channel=8 note=55 velocity=120 time=18>, 73280], [<message note_off channel=1 note=41 velocity=125 time=10>, 73288], [<message note_off channel=9 note=43 velocity=121 time=12>, 73290], [<message note_off channel=11 note=52 velocity=115 time=64>, 73312], [<message note_on channel=11 note=53 velocity=109 time=0>, 73312], [<message note_off channel=1 note=43 velocity=120 time=48>, 73336], [<message note_off channel=0 note=79 velocity=122 time=60>, 73340], [<message note_off channel=0 note=67 velocity=122 time=0>, 73340], [<message note_off channel=8 note=55 velocity=120 time=60>, 73340], [<message note_off channel=9 note=45 velocity=122 time=50>, 73340], [<message note_on channel=4 note=66 velocity=122 time=2208>, 73342], [<message note_on channel=1 note=42 velocity=125 time=6>, 73342], [<message note_on channel=9 note=35 velocity=122 time=2>, 73342], [<message note_on channel=9 note=49 velocity=122 time=0>, 73342], [<message note_on channel=0 note=66 velocity=122 time=4>, 73344], [<message note_on channel=0 note=78 velocity=122 time=0>, 73344], [<message note_on channel=8 note=54 velocity=120 time=4>, 73344], [<message note_off channel=9 note=46 velocity=123 time=6>, 73348], [<message note_off channel=11 note=53 velocity=109 time=46>, 73358], [<message note_on channel=11 note=55 velocity=114 time=18>, 73376], [<message note_off channel=4 note=66 velocity=122 time=64>, 73406], [<message note_on channel=1 note=44 velocity=125 time=64>, 73406], [<message note_on channel=0 note=68 velocity=122 time=64>, 73408], [<message note_on channel=0 note=80 velocity=122 time=0>, 73408], [<message note_off channel=1 note=42 velocity=125 time=2>, 73408], [<message note_on channel=8 note=56 velocity=119 time=64>, 73408], [<message note_off channel=0 note=78 velocity=122 time=20>, 73428], [<message note_off channel=0 note=66 velocity=122 time=0>, 73428], [<message note_off channel=8 note=54 velocity=120 time=20>, 73428], [<message note_off channel=11 note=55 velocity=114 time=60>, 73436], [<message note_on channel=11 note=54 velocity=114 time=4>, 73440], [<message note_on channel=1 note=46 velocity=125 time=62>, 73470], [<message note_on channel=0 note=70 velocity=123 time=44>, 73472], [<message note_on channel=0 note=82 velocity=123 time=0>, 73472], [<message note_on channel=8 note=58 velocity=121 time=44>, 73472], [<message note_off channel=0 note=80 velocity=122 time=2>, 73474], [<message note_off channel=0 note=68 velocity=122 time=0>, 73474], [<message note_off channel=8 note=56 velocity=119 time=2>, 73474], [<message note_off channel=1 note=44 velocity=125 time=10>, 73480], [<message note_on channel=11 note=56 velocity=113 time=64>, 73504], [<message note_off channel=11 note=54 velocity=114 time=20>, 73524], [<message note_off channel=0 note=82 velocity=123 time=52>, 73526], [<message note_off channel=0 note=70 velocity=123 time=0>, 73526], [<message note_off channel=8 note=58 velocity=121 time=52>, 73526], [<message note_off channel=1 note=46 velocity=125 time=48>, 73528], [<message note_on channel=9 note=40 velocity=124 time=186>, 73534], [<message note_off channel=9 note=49 velocity=122 time=18>, 73552], [<message note_on channel=11 note=58 velocity=115 time=44>, 73568], [<message note_off channel=11 note=56 velocity=113 time=2>, 73570], [<message note_off channel=9 note=35 velocity=122 time=36>, 73588], [<message note_off channel=9 note=40 velocity=124 time=8>, 73596], [<message note_on channel=1 note=44 velocity=125 time=70>, 73598], [<message note_on channel=9 note=40 velocity=123 time=2>, 73598], [<message note_on channel=0 note=68 velocity=122 time=74>, 73600], [<message note_on channel=0 note=80 velocity=122 time=0>, 73600], [<message note_on channel=8 note=56 velocity=120 time=74>, 73600], [<message note_off channel=11 note=58 velocity=115 time=52>, 73622], [<message note_off channel=9 note=40 velocity=123 time=54>, 73652], [<message note_off channel=1 note=44 velocity=125 time=60>, 73658], [<message note_on channel=1 note=46 velocity=125 time=4>, 73662], [<message note_on channel=9 note=43 velocity=121 time=10>, 73662], [<message note_on channel=0 note=70 velocity=121 time=64>, 73664], [<message note_on channel=0 note=82 velocity=121 time=0>, 73664], [<message note_on channel=8 note=58 velocity=118 time=64>, 73664], [<message note_off channel=0 note=80 velocity=122 time=4>, 73668], [<message note_off channel=0 note=68 velocity=122 time=0>, 73668], [<message note_off channel=8 note=56 velocity=120 time=4>, 73668], [<message note_on channel=11 note=56 velocity=114 time=74>, 73696], [<message note_off channel=1 note=46 velocity=125 time=60>, 73722], [<message note_on channel=1 note=48 velocity=123 time=4>, 73726], [<message note_on channel=9 note=35 velocity=121 time=64>, 73726], [<message note_on channel=9 note=49 velocity=121 time=0>, 73726], [<message note_on channel=0 note=72 velocity=123 time=60>, 73728], [<message note_on channel=0 note=84 velocity=123 time=0>, 73728], [<message note_on channel=8 note=60 velocity=121 time=60>, 73728], [<message note_off channel=0 note=82 velocity=121 time=6>, 73734], [<message note_off channel=0 note=70 velocity=121 time=0>, 73734], [<message note_off channel=8 note=58 velocity=118 time=6>, 73734], [<message note_off channel=9 note=43 velocity=121 time=26>, 73752], [<message note_on channel=11 note=58 velocity=112 time=64>, 73760], [<message note_off channel=11 note=56 velocity=114 time=4>, 73764], [<message note_off channel=1 note=48 velocity=123 time=76>, 73802], [<message note_off channel=0 note=84 velocity=123 time=70>, 73804], [<message note_off channel=0 note=72 velocity=123 time=0>, 73804], [<message note_off channel=8 note=60 velocity=121 time=70>, 73804], [<message note_on channel=11 note=60 velocity=116 time=60>, 73824], [<message note_off channel=11 note=58 velocity=112 time=6>, 73830], [<message note_off channel=9 note=35 velocity=121 time=114>, 73866], [<message note_off channel=11 note=60 velocity=116 time=70>, 73900], [<message note_on channel=1 note=46 velocity=125 time=116>, 73918], [<message note_off channel=9 note=49 velocity=121 time=52>, 73918], [<message note_on channel=9 note=40 velocity=122 time=0>, 73918], [<message note_on channel=0 note=70 velocity=122 time=116>, 73920], [<message note_on channel=0 note=82 velocity=122 time=0>, 73920], [<message note_on channel=8 note=58 velocity=120 time=116>, 73920], [<message note_off channel=9 note=40 velocity=122 time=56>, 73974], [<message note_off channel=1 note=46 velocity=125 time=58>, 73976], [<message note_off channel=0 note=82 velocity=122 time=58>, 73978], [<message note_off channel=0 note=70 velocity=122 time=0>, 73978], [<message note_off channel=8 note=58 velocity=120 time=58>, 73978], [<message note_on channel=1 note=48 velocity=121 time=6>, 73982], [<message note_on channel=9 note=43 velocity=121 time=8>, 73982], [<message note_on channel=0 note=72 velocity=122 time=6>, 73984], [<message note_on channel=0 note=84 velocity=122 time=0>, 73984], [<message note_on channel=8 note=60 velocity=119 time=6>, 73984], [<message note_on channel=11 note=58 velocity=114 time=116>, 74016], [<message note_on channel=1 note=50 velocity=125 time=64>, 74046], [<message note_on channel=9 note=35 velocity=122 time=64>, 74046], [<message note_on channel=9 note=57 velocity=122 time=0>, 74046], [<message note_on channel=0 note=74 velocity=121 time=64>, 74048], [<message note_on channel=0 note=86 velocity=121 time=0>, 74048], [<message note_on channel=8 note=62 velocity=118 time=64>, 74048], [<message note_off channel=9 note=43 velocity=121 time=2>, 74048], [<message note_off channel=1 note=48 velocity=121 time=6>, 74052], [<message control_change channel=0 control=91 value=127 time=16>, 74064], [<message note_off channel=0 note=84 velocity=122 time=2>, 74066], [<message note_off channel=0 note=72 velocity=122 time=0>, 74066], [<message note_off channel=8 note=60 velocity=119 time=18>, 74066], [<message note_off channel=11 note=58 velocity=114 time=58>, 74074], [<message note_off channel=9 note=35 velocity=122 time=30>, 74078], [<message note_off channel=1 note=50 velocity=125 time=28>, 74080], [<message note_on channel=11 note=60 velocity=113 time=6>, 74080], [<message note_off channel=0 note=86 velocity=121 time=20>, 74086], [<message note_off channel=0 note=74 velocity=121 time=0>, 74086], [<message note_off channel=8 note=62 velocity=118 time=20>, 74086], [<message note_off channel=9 note=57 velocity=122 time=8>, 74086], [<message note_on channel=1 note=35 velocity=125 time=30>, 74110], [<message note_on channel=9 note=35 velocity=122 time=24>, 74110], [<message note_on channel=9 note=49 velocity=122 time=0>, 74110], [<message note_on channel=0 note=47 velocity=123 time=26>, 74112], [<message note_on channel=0 note=59 velocity=123 time=0>, 74112], [<message note_on channel=0 note=66 velocity=123 time=0>, 74112], [<message note_on channel=0 note=71 velocity=123 time=0>, 74112], [<message note_on channel=0 note=75 velocity=123 time=0>, 74112], [<message note_on channel=0 note=78 velocity=123 time=0>, 74112], [<message note_on channel=8 note=47 velocity=121 time=26>, 74112], [<message note_off channel=8 note=47 velocity=121 time=32>, 74144], [<message note_on channel=8 note=49 velocity=116 time=0>, 74144], [<message note_on channel=11 note=62 velocity=112 time=64>, 74144], [<message note_off channel=11 note=60 velocity=113 time=18>, 74162], [<message note_off channel=8 note=49 velocity=116 time=32>, 74176], [<message note_on channel=8 note=51 velocity=116 time=0>, 74176], [<message note_off channel=11 note=62 velocity=112 time=20>, 74182], [<message note_off channel=8 note=51 velocity=116 time=32>, 74208], [<message note_on channel=8 note=49 velocity=117 time=0>, 74208], [<message note_on channel=11 note=47 velocity=115 time=26>, 74208], [<message note_off channel=8 note=49 velocity=117 time=32>, 74240], [<message note_on channel=8 note=51 velocity=117 time=0>, 74240], [<message note_off channel=11 note=47 velocity=115 time=32>, 74240], [<message note_on channel=11 note=49 velocity=109 time=0>, 74240], [<message note_off channel=8 note=51 velocity=117 time=32>, 74272], [<message note_on channel=8 note=54 velocity=118 time=0>, 74272], [<message note_off channel=11 note=49 velocity=109 time=32>, 74272], [<message note_on channel=11 note=51 velocity=109 time=0>, 74272], [<message note_on channel=9 note=46 velocity=122 time=192>, 74302], [<message note_off channel=8 note=54 velocity=118 time=32>, 74304], [<message note_on channel=8 note=51 velocity=118 time=0>, 74304], [<message note_off channel=11 note=51 velocity=109 time=32>, 74304], [<message note_on channel=11 note=49 velocity=110 time=0>, 74304], [<message note_off channel=8 note=51 velocity=118 time=32>, 74336], [<message note_on channel=8 note=54 velocity=118 time=0>, 74336], [<message note_off channel=11 note=49 velocity=110 time=32>, 74336], [<message note_on channel=11 note=51 velocity=111 time=0>, 74336], [<message note_off channel=8 note=54 velocity=118 time=32>, 74368], [<message note_on channel=8 note=52 velocity=121 time=0>, 74368], [<message note_off channel=11 note=51 velocity=111 time=32>, 74368], [<message note_on channel=11 note=54 velocity=112 time=0>, 74368], [<message note_off channel=8 note=52 velocity=121 time=32>, 74400], [<message note_on channel=8 note=54 velocity=118 time=0>, 74400], [<message note_off channel=11 note=54 velocity=112 time=32>, 74400], [<message note_on channel=11 note=51 velocity=112 time=0>, 74400], [<message note_off channel=8 note=54 velocity=119 time=32>, 74432], [<message note_on channel=8 note=54 velocity=119 time=0>, 74432], [<message note_off channel=11 note=51 velocity=112 time=32>, 74432], [<message note_on channel=11 note=54 velocity=112 time=0>, 74432], [<message note_off channel=8 note=54 velocity=118 time=32>, 74464], [<message note_on channel=8 note=56 velocity=121 time=0>, 74464], [<message note_off channel=11 note=54 velocity=112 time=32>, 74464], [<message note_on channel=11 note=52 velocity=115 time=0>, 74464], [<message note_on channel=8 note=58 velocity=120 time=32>, 74496], [<message note_off channel=11 note=52 velocity=115 time=32>, 74496], [<message note_on channel=11 note=54 velocity=112 time=0>, 74496], [<message note_off channel=8 note=56 velocity=121 time=16>, 74512], [<message note_off channel=8 note=58 velocity=119 time=16>, 74528], [<message note_on channel=8 note=58 velocity=119 time=0>, 74528], [<message note_off channel=11 note=54 velocity=113 time=32>, 74528], [<message note_on channel=11 note=54 velocity=113 time=0>, 74528], [<message note_off channel=8 note=58 velocity=120 time=32>, 74560], [<message note_on channel=8 note=56 velocity=119 time=0>, 74560], [<message note_off channel=11 note=54 velocity=112 time=32>, 74560], [<message note_on channel=11 note=56 velocity=115 time=0>, 74560], [<message note_on channel=8 note=54 velocity=119 time=32>, 74592], [<message note_on channel=11 note=58 velocity=114 time=32>, 74592], [<message note_off channel=8 note=56 velocity=119 time=10>, 74602], [<message note_off channel=11 note=56 velocity=115 time=16>, 74608], [<message note_off channel=8 note=54 velocity=119 time=22>, 74624], [<message note_on channel=8 note=53 velocity=119 time=0>, 74624], [<message note_off channel=11 note=58 velocity=113 time=16>, 74624], [<message note_on channel=11 note=58 velocity=113 time=0>, 74624], [<message note_off channel=9 note=46 velocity=122 time=348>, 74650], [<message note_off channel=0 note=75 velocity=123 time=542>, 74654], [<message note_off channel=8 note=53 velocity=119 time=32>, 74656], [<message note_on channel=8 note=56 velocity=119 time=0>, 74656], [<message note_off channel=11 note=58 velocity=114 time=32>, 74656], [<message note_on channel=11 note=56 velocity=113 time=0>, 74656], [<message note_off channel=0 note=71 velocity=123 time=10>, 74664], [<message note_off channel=0 note=78 velocity=123 time=8>, 74672], [<message note_on channel=9 note=46 velocity=123 time=36>, 74686], [<message note_on channel=8 note=58 velocity=120 time=32>, 74688], [<message note_on channel=11 note=54 velocity=113 time=32>, 74688], [<message note_off channel=0 note=66 velocity=123 time=26>, 74698], [<message note_off channel=11 note=56 velocity=113 time=10>, 74698], [<message note_off channel=8 note=56 velocity=119 time=14>, 74702], [<message note_off channel=0 note=47 velocity=123 time=10>, 74708], [<message note_off channel=0 note=59 velocity=123 time=6>, 74714], [<message note_off channel=8 note=58 velocity=120 time=18>, 74720], [<message note_on channel=8 note=59 velocity=121 time=0>, 74720], [<message note_off channel=11 note=54 velocity=113 time=22>, 74720], [<message note_on channel=11 note=53 velocity=113 time=0>, 74720], [<message note_off channel=9 note=35 velocity=122 time=52>, 74738], [<message note_on channel=8 note=61 velocity=121 time=32>, 74752], [<message note_off channel=11 note=53 velocity=113 time=32>, 74752], [<message note_on channel=11 note=56 velocity=113 time=0>, 74752], [<message note_off channel=8 note=59 velocity=121 time=4>, 74756], [<message note_off channel=9 note=49 velocity=122 time=44>, 74782], [<message note_on channel=8 note=62 velocity=120 time=28>, 74784], [<message note_on channel=11 note=58 velocity=114 time=32>, 74784], [<message note_off channel=8 note=61 velocity=121 time=6>, 74790], [<message note_off channel=11 note=56 velocity=113 time=14>, 74798], [<message note_off channel=8 note=62 velocity=120 time=26>, 74816], [<message note_on channel=8 note=63 velocity=118 time=0>, 74816], [<message note_off channel=11 note=58 velocity=114 time=18>, 74816], [<message note_on channel=11 note=59 velocity=115 time=0>, 74816], [<message note_on channel=11 note=61 velocity=115 time=32>, 74848], [<message note_off channel=11 note=59 velocity=115 time=4>, 74852], [<message note_off channel=1 note=35 velocity=125 time=756>, 74866], [<message note_on channel=1 note=32 velocity=125 time=12>, 74878], [<message note_on channel=9 note=35 velocity=124 time=96>, 74878], [<message note_on channel=9 note=43 velocity=123 time=0>, 74878], [<message note_on channel=0 note=44 velocity=123 time=166>, 74880], [<message note_on channel=0 note=56 velocity=123 time=0>, 74880], [<message note_on channel=0 note=63 velocity=123 time=0>, 74880], [<message note_on channel=0 note=68 velocity=123 time=0>, 74880], [<message note_on channel=0 note=72 velocity=123 time=0>, 74880], [<message note_on channel=0 note=75 velocity=123 time=0>, 74880], [<message note_off channel=8 note=63 velocity=118 time=64>, 74880], [<message note_on channel=8 note=44 velocity=120 time=0>, 74880], [<message note_on channel=11 note=62 velocity=114 time=28>, 74880], [<message note_off channel=11 note=61 velocity=115 time=6>, 74886], [<message note_off channel=8 note=44 velocity=120 time=32>, 74912], [<message note_on channel=8 note=46 velocity=124 time=0>, 74912], [<message note_off channel=11 note=62 velocity=114 time=26>, 74912], [<message note_on channel=11 note=63 velocity=112 time=0>, 74912], [<message note_off channel=9 note=46 velocity=123 time=42>, 74920], [<message note_off channel=8 note=46 velocity=124 time=32>, 74944], [<message note_on channel=8 note=48 velocity=125 time=0>, 74944], [<message note_off channel=8 note=48 velocity=125 time=32>, 74976], [<message note_on channel=8 note=46 velocity=125 time=0>, 74976], [<message note_off channel=11 note=63 velocity=112 time=64>, 74976], [<message note_on channel=11 note=44 velocity=114 time=0>, 74976], [<message note_off channel=8 note=46 velocity=125 time=32>, 75008], [<message note_on channel=8 note=44 velocity=125 time=0>, 75008], [<message note_off channel=11 note=44 velocity=114 time=32>, 75008], [<message note_on channel=11 note=46 velocity=119 time=0>, 75008], [<message note_off channel=8 note=44 velocity=125 time=32>, 75040], [<message note_on channel=8 note=46 velocity=125 time=0>, 75040], [<message note_off channel=11 note=46 velocity=119 time=32>, 75040], [<message note_on channel=11 note=48 velocity=120 time=0>, 75040], [<message note_on channel=9 note=46 velocity=122 time=150>, 75070], [<message note_off channel=8 note=46 velocity=125 time=32>, 75072], [<message note_on channel=8 note=48 velocity=125 time=0>, 75072], [<message note_off channel=11 note=48 velocity=120 time=32>, 75072], [<message note_on channel=11 note=46 velocity=120 time=0>, 75072], [<message note_off channel=8 note=48 velocity=125 time=32>, 75104], [<message note_on channel=8 note=50 velocity=125 time=0>, 75104], [<message note_off channel=11 note=46 velocity=120 time=32>, 75104], [<message note_on channel=11 note=44 velocity=120 time=0>, 75104], [<message note_off channel=8 note=50 velocity=125 time=32>, 75136], [<message note_on channel=8 note=51 velocity=125 time=0>, 75136], [<message note_off channel=11 note=44 velocity=120 time=32>, 75136], [<message note_on channel=11 note=46 velocity=120 time=0>, 75136], [<message note_off channel=8 note=51 velocity=125 time=32>, 75168], [<message note_on channel=8 note=53 velocity=125 time=0>, 75168], [<message note_off channel=11 note=46 velocity=120 time=32>, 75168], [<message note_on channel=11 note=48 velocity=120 time=0>, 75168], [<message note_off channel=8 note=53 velocity=125 time=32>, 75200], [<message note_on channel=8 note=56 velocity=125 time=0>, 75200], [<message note_off channel=11 note=48 velocity=120 time=32>, 75200], [<message note_on channel=11 note=50 velocity=120 time=0>, 75200], [<message note_off channel=8 note=56 velocity=125 time=32>, 75232], [<message note_on channel=8 note=55 velocity=125 time=0>, 75232], [<message note_off channel=11 note=50 velocity=120 time=32>, 75232], [<message note_on channel=11 note=51 velocity=120 time=0>, 75232], [<message note_off channel=8 note=55 velocity=125 time=32>, 75264], [<message note_on channel=8 note=56 velocity=125 time=0>, 75264], [<message note_off channel=11 note=51 velocity=120 time=32>, 75264], [<message note_on channel=11 note=53 velocity=120 time=0>, 75264], [<message note_off channel=8 note=56 velocity=125 time=32>, 75296], [<message note_on channel=8 note=58 velocity=125 time=0>, 75296], [<message note_off channel=11 note=53 velocity=120 time=32>, 75296], [<message note_on channel=11 note=56 velocity=120 time=0>, 75296], [<message note_off channel=8 note=58 velocity=125 time=32>, 75328], [<message note_on channel=8 note=60 velocity=125 time=0>, 75328], [<message note_off channel=11 note=56 velocity=120 time=32>, 75328], [<message note_on channel=11 note=55 velocity=120 time=0>, 75328], [<message note_off channel=8 note=60 velocity=125 time=32>, 75360], [<message note_on channel=8 note=62 velocity=125 time=0>, 75360], [<message note_off channel=11 note=55 velocity=120 time=32>, 75360], [<message note_on channel=11 note=56 velocity=120 time=0>, 75360], [<message note_off channel=8 note=62 velocity=125 time=32>, 75392], [<message note_on channel=8 note=63 velocity=125 time=0>, 75392], [<message note_off channel=11 note=56 velocity=120 time=32>, 75392], [<message note_on channel=11 note=58 velocity=120 time=0>, 75392], [<message note_off channel=9 note=46 velocity=122 time=322>, 75392], [<message note_off channel=0 note=72 velocity=123 time=542>, 75422], [<message note_off channel=8 note=63 velocity=125 time=32>, 75424], [<message note_on channel=8 note=60 velocity=122 time=0>, 75424], [<message note_off channel=11 note=58 velocity=120 time=32>, 75424], [<message note_on channel=11 note=60 velocity=120 time=0>, 75424], [<message note_off channel=0 note=63 velocity=123 time=6>, 75428], [<message note_off channel=0 note=68 velocity=123 time=6>, 75434], [<message note_on channel=9 note=46 velocity=122 time=62>, 75454], [<message note_off channel=8 note=60 velocity=122 time=32>, 75456], [<message note_on channel=8 note=63 velocity=125 time=0>, 75456], [<message note_off channel=11 note=60 velocity=120 time=32>, 75456], [<message note_on channel=11 note=62 velocity=120 time=0>, 75456], [<message note_off channel=0 note=75 velocity=123 time=30>, 75464], [<message note_off channel=11 note=62 velocity=120 time=32>, 75488], [<message note_on channel=11 note=63 velocity=120 time=0>, 75488], [<message note_off channel=0 note=56 velocity=123 time=26>, 75490], [<message note_off channel=0 note=44 velocity=123 time=2>, 75492], [<message note_off channel=11 note=63 velocity=120 time=32>, 75520], [<message note_on channel=11 note=60 velocity=116 time=0>, 75520], [<message note_off channel=9 note=35 velocity=124 time=86>, 75540], [<message note_off channel=11 note=60 velocity=116 time=32>, 75552], [<message note_on channel=11 note=63 velocity=120 time=0>, 75552], [<message note_off channel=9 note=43 velocity=123 time=90>, 75630], [<message note_off channel=1 note=32 velocity=125 time=756>, 75634], [<message note_off channel=9 note=46 velocity=122 time=12>, 75642], [<message note_on channel=1 note=34 velocity=125 time=12>, 75646], [<message note_on channel=9 note=35 velocity=124 time=4>, 75646], [<message note_on channel=9 note=49 velocity=123 time=0>, 75646], [<message note_on channel=0 note=46 velocity=123 time=156>, 75648], [<message note_on channel=0 note=58 velocity=123 time=0>, 75648], [<message note_on channel=0 note=65 velocity=123 time=0>, 75648], [<message note_on channel=0 note=70 velocity=123 time=0>, 75648], [<message note_on channel=0 note=74 velocity=123 time=0>, 75648], [<message note_on channel=0 note=77 velocity=123 time=0>, 75648], [<message note_off channel=8 note=63 velocity=125 time=192>, 75648], [<message note_on channel=8 note=46 velocity=118 time=0>, 75648], [<message note_on channel=8 note=48 velocity=119 time=32>, 75680], [<message note_off channel=8 note=46 velocity=118 time=6>, 75686], [<message note_off channel=8 note=48 velocity=119 time=26>, 75712], [<message note_on channel=8 note=50 velocity=119 time=0>, 75712], [<message note_on channel=8 note=48 velocity=119 time=32>, 75744], [<message note_off channel=11 note=63 velocity=120 time=192>, 75744], [<message note_on channel=11 note=46 velocity=112 time=0>, 75744], [<message note_off channel=8 note=50 velocity=119 time=12>, 75756], [<message note_on channel=8 note=50 velocity=119 time=20>, 75776], [<message note_on channel=11 note=48 velocity=112 time=32>, 75776], [<message note_off channel=11 note=46 velocity=112 time=6>, 75782], [<message note_off channel=8 note=48 velocity=119 time=16>, 75792], [<message note_on channel=8 note=51 velocity=119 time=16>, 75808], [<message note_off channel=11 note=48 velocity=112 time=26>, 75808], [<message note_on channel=11 note=50 velocity=112 time=0>, 75808], [<message note_off channel=8 note=50 velocity=119 time=4>, 75812], [<message note_off channel=8 note=51 velocity=119 time=28>, 75840], [<message note_on channel=8 note=50 velocity=119 time=0>, 75840], [<message note_on channel=11 note=48 velocity=113 time=32>, 75840], [<message note_off channel=11 note=50 velocity=112 time=12>, 75852], [<message note_off channel=8 note=50 velocity=119 time=32>, 75872], [<message note_on channel=8 note=51 velocity=119 time=0>, 75872], [<message note_on channel=11 note=50 velocity=113 time=20>, 75872], [<message note_off channel=11 note=48 velocity=113 time=16>, 75888], [<message note_off channel=8 note=51 velocity=119 time=32>, 75904], [<message note_on channel=8 note=53 velocity=120 time=0>, 75904], [<message note_on channel=11 note=51 velocity=113 time=16>, 75904], [<message note_off channel=11 note=50 velocity=113 time=4>, 75908], [<message note_off channel=8 note=53 velocity=120 time=32>, 75936], [<message note_on channel=8 note=52 velocity=120 time=0>, 75936], [<message note_off channel=11 note=51 velocity=113 time=28>, 75936], [<message note_on channel=11 note=50 velocity=113 time=0>, 75936], [<message note_off channel=8 note=52 velocity=120 time=32>, 75968], [<message note_on channel=8 note=53 velocity=120 time=0>, 75968], [<message note_off channel=11 note=50 velocity=113 time=32>, 75968], [<message note_on channel=11 note=51 velocity=113 time=0>, 75968], [<message note_on channel=8 note=55 velocity=120 time=32>, 76000], [<message note_off channel=11 note=51 velocity=113 time=32>, 76000], [<message note_on channel=11 note=53 velocity=114 time=0>, 76000], [<message note_off channel=8 note=53 velocity=120 time=6>, 76006], [<message note_off channel=8 note=55 velocity=120 time=26>, 76032], [<message note_on channel=8 note=53 velocity=120 time=0>, 76032], [<message note_off channel=11 note=53 velocity=114 time=32>, 76032], [<message note_on channel=11 note=52 velocity=114 time=0>, 76032], [<message note_off channel=8 note=53 velocity=120 time=32>, 76064], [<message note_on channel=8 note=56 velocity=121 time=0>, 76064], [<message note_off channel=11 note=52 velocity=114 time=32>, 76064], [<message note_on channel=11 note=53 velocity=114 time=0>, 76064], [<message note_on channel=8 note=55 velocity=121 time=32>, 76096], [<message note_on channel=11 note=55 velocity=114 time=32>, 76096], [<message note_off channel=11 note=53 velocity=114 time=6>, 76102], [<message note_off channel=8 note=56 velocity=121 time=8>, 76104], [<message note_on channel=8 note=53 velocity=121 time=24>, 76128], [<message note_off channel=11 note=55 velocity=114 time=26>, 76128], [<message note_on channel=11 note=53 velocity=114 time=0>, 76128], [<message note_off channel=8 note=55 velocity=121 time=2>, 76130], [<message note_on channel=8 note=55 velocity=121 time=30>, 76160], [<message note_off channel=11 note=53 velocity=114 time=32>, 76160], [<message note_on channel=11 note=56 velocity=115 time=0>, 76160], [<message note_off channel=8 note=53 velocity=121 time=2>, 76162], [<message note_off channel=8 note=55 velocity=121 time=28>, 76190], [<message note_on channel=8 note=56 velocity=121 time=2>, 76192], [<message note_on channel=11 note=55 velocity=115 time=32>, 76192], [<message note_off channel=11 note=56 velocity=115 time=8>, 76200], [<message note_on channel=8 note=58 velocity=121 time=32>, 76224], [<message note_on channel=11 note=53 velocity=115 time=24>, 76224], [<message note_off channel=11 note=55 velocity=115 time=2>, 76226], [<message note_off channel=8 note=56 velocity=121 time=8>, 76232], [<message note_off channel=8 note=58 velocity=121 time=12>, 76244], [<message note_on channel=8 note=60 velocity=121 time=12>, 76256], [<message note_on channel=11 note=55 velocity=115 time=30>, 76256], [<message note_off channel=11 note=53 velocity=115 time=2>, 76258], [<message note_off channel=8 note=60 velocity=121 time=26>, 76282], [<message note_off channel=11 note=55 velocity=115 time=28>, 76286], [<message note_on channel=8 note=62 velocity=122 time=6>, 76288], [<message note_on channel=11 note=56 velocity=115 time=2>, 76288], [<message note_on channel=8 note=63 velocity=122 time=32>, 76320], [<message note_on channel=11 note=58 velocity=115 time=32>, 76320], [<message note_off channel=8 note=62 velocity=122 time=2>, 76322], [<message note_off channel=11 note=56 velocity=115 time=8>, 76328], [<message note_off channel=11 note=58 velocity=115 time=12>, 76340], [<message note_on channel=8 note=62 velocity=122 time=30>, 76352], [<message note_on channel=11 note=60 velocity=116 time=12>, 76352], [<message note_off channel=8 note=63 velocity=122 time=2>, 76354], [<message note_off channel=8 note=62 velocity=122 time=20>, 76374], [<message note_off channel=11 note=60 velocity=116 time=26>, 76378], [<message note_on channel=8 note=60 velocity=122 time=10>, 76384], [<message note_on channel=11 note=62 velocity=116 time=6>, 76384], [<message note_off channel=8 note=60 velocity=122 time=32>, 76416], [<message note_on channel=8 note=62 velocity=122 time=0>, 76416], [<message note_on channel=11 note=63 velocity=116 time=32>, 76416], [<message note_off channel=11 note=62 velocity=116 time=2>, 76418], [<message note_off channel=8 note=62 velocity=122 time=32>, 76448], [<message note_on channel=8 note=63 velocity=122 time=0>, 76448], [<message note_on channel=11 note=62 velocity=116 time=30>, 76448], [<message note_off channel=11 note=63 velocity=116 time=2>, 76450], [<message note_off channel=11 note=62 velocity=116 time=20>, 76470], [<message note_off channel=8 note=63 velocity=122 time=30>, 76478], [<message note_on channel=8 note=65 velocity=122 time=2>, 76480], [<message note_on channel=11 note=60 velocity=116 time=10>, 76480], [<message note_off channel=8 note=65 velocity=122 time=28>, 76508], [<message note_on channel=8 note=67 velocity=123 time=4>, 76512], [<message note_off channel=11 note=60 velocity=116 time=32>, 76512], [<message note_on channel=11 note=62 velocity=117 time=0>, 76512], [<message note_on channel=8 note=68 velocity=123 time=32>, 76544], [<message note_off channel=11 note=62 velocity=117 time=32>, 76544], [<message note_on channel=11 note=63 velocity=117 time=0>, 76544], [<message note_off channel=8 note=67 velocity=123 time=6>, 76550], [<message note_off channel=11 note=63 velocity=117 time=30>, 76574], [<message note_on channel=8 note=70 velocity=123 time=26>, 76576], [<message note_on channel=11 note=65 velocity=117 time=2>, 76576], [<message note_off channel=8 note=68 velocity=123 time=4>, 76580], [<message note_off channel=11 note=65 velocity=117 time=28>, 76604], [<message note_on channel=8 note=68 velocity=123 time=28>, 76608], [<message note_on channel=11 note=67 velocity=117 time=4>, 76608], [<message note_off channel=8 note=70 velocity=123 time=10>, 76618], [<message note_off channel=8 note=68 velocity=123 time=14>, 76632], [<message note_on channel=8 note=65 velocity=123 time=8>, 76640], [<message note_on channel=11 note=68 velocity=117 time=32>, 76640], [<message note_off channel=11 note=67 velocity=117 time=6>, 76646], [<message note_off channel=8 note=65 velocity=123 time=28>, 76668], [<message note_on channel=8 note=67 velocity=123 time=4>, 76672], [<message note_on channel=11 note=70 velocity=117 time=26>, 76672], [<message note_off channel=11 note=68 velocity=117 time=4>, 76676], [<message note_off channel=8 note=67 velocity=123 time=28>, 76700], [<message note_on channel=8 note=70 velocity=123 time=4>, 76704], [<message note_on channel=11 note=68 velocity=117 time=28>, 76704], [<message note_off channel=11 note=70 velocity=117 time=10>, 76714], [<message note_off channel=8 note=70 velocity=123 time=18>, 76722], [<message note_off channel=11 note=68 velocity=117 time=14>, 76728], [<message note_on channel=8 note=72 velocity=124 time=14>, 76736], [<message note_on channel=11 note=65 velocity=118 time=8>, 76736], [<message note_off channel=11 note=65 velocity=118 time=28>, 76764], [<message note_off channel=8 note=72 velocity=124 time=32>, 76768], [<message note_on channel=8 note=74 velocity=124 time=0>, 76768], [<message note_on channel=11 note=67 velocity=118 time=4>, 76768], [<message note_off channel=11 note=67 velocity=118 time=28>, 76796], [<message note_on channel=8 note=75 velocity=124 time=32>, 76800], [<message note_on channel=11 note=70 velocity=118 time=4>, 76800], [<message note_off channel=8 note=74 velocity=124 time=4>, 76804], [<message note_off channel=11 note=70 velocity=118 time=18>, 76818], [<message pitchwheel channel=8 pitch=1489 time=28>, 76832], [<message note_on channel=11 note=72 velocity=118 time=14>, 76832], [<message pitchwheel channel=8 pitch=2754 time=32>, 76864], [<message note_off channel=11 note=72 velocity=118 time=32>, 76864], [<message note_on channel=11 note=74 velocity=118 time=0>, 76864], [<message pitchwheel channel=8 pitch=4020 time=32>, 76896], [<message note_on channel=11 note=75 velocity=119 time=32>, 76896], [<message note_off channel=11 note=74 velocity=118 time=4>, 76900], [<message note_off channel=9 note=49 velocity=123 time=1266>, 76912], [<message pitchwheel channel=8 pitch=5286 time=32>, 76928], [<message pitchwheel channel=11 pitch=1489 time=28>, 76928], [<message pitchwheel channel=8 pitch=8191 time=32>, 76960], [<message pitchwheel channel=11 pitch=2754 time=32>, 76960], [<message pitchwheel channel=11 pitch=4020 time=32>, 76992], [<message pitchwheel channel=11 pitch=5286 time=32>, 77024], [<message pitchwheel channel=11 pitch=8191 time=32>, 77056], [<message note_off channel=1 note=34 velocity=125 time=1452>, 77098], [<message note_off channel=9 note=35 velocity=124 time=254>, 77166], [<message note_off channel=0 note=77 velocity=123 time=1920>, 77568], [<message note_off channel=0 note=74 velocity=123 time=0>, 77568], [<message note_off channel=0 note=70 velocity=123 time=0>, 77568], [<message note_off channel=0 note=65 velocity=123 time=0>, 77568], [<message note_off channel=0 note=58 velocity=123 time=0>, 77568], [<message note_off channel=0 note=46 velocity=123 time=0>, 77568], [<message note_on channel=0 note=46 velocity=115 time=96>, 77664], [<message note_on channel=0 note=58 velocity=115 time=0>, 77664], [<message note_off channel=0 note=58 velocity=115 time=96>, 77760], [<message note_off channel=0 note=46 velocity=115 time=0>, 77760], [<message note_on channel=0 note=45 velocity=117 time=0>, 77760], [<message note_on channel=0 note=57 velocity=117 time=0>, 77760], [<message note_off channel=0 note=57 velocity=117 time=96>, 77856], [<message note_off channel=0 note=45 velocity=117 time=0>, 77856], [<message note_on channel=0 note=46 velocity=118 time=0>, 77856], [<message note_on channel=0 note=58 velocity=118 time=0>, 77856], [<message note_off channel=0 note=58 velocity=118 time=96>, 77952], [<message note_off channel=0 note=46 velocity=118 time=0>, 77952], [<message note_on channel=0 note=48 velocity=119 time=0>, 77952], [<message note_on channel=0 note=60 velocity=119 time=0>, 77952], [<message note_off channel=0 note=60 velocity=119 time=96>, 78048], [<message note_off channel=0 note=48 velocity=119 time=0>, 78048], [<message note_on channel=0 note=46 velocity=120 time=0>, 78048], [<message note_on channel=0 note=58 velocity=120 time=0>, 78048], [<message note_off channel=0 note=58 velocity=120 time=96>, 78144], [<message note_off channel=0 note=46 velocity=120 time=0>, 78144], [<message note_on channel=0 note=50 velocity=122 time=0>, 78144], [<message note_on channel=0 note=62 velocity=122 time=0>, 78144], [<message note_off channel=0 note=62 velocity=122 time=96>, 78240], [<message note_off channel=0 note=50 velocity=122 time=0>, 78240], [<message note_on channel=0 note=46 velocity=123 time=0>, 78240], [<message note_on channel=0 note=58 velocity=123 time=0>, 78240], [<message note_off channel=8 note=75 velocity=124 time=1374>, 78334], [<message note_off channel=0 note=58 velocity=123 time=96>, 78336], [<message note_off channel=0 note=46 velocity=123 time=0>, 78336], [<message note_on channel=0 note=51 velocity=123 time=0>, 78336], [<message note_on channel=0 note=63 velocity=123 time=0>, 78336], [<message pitchwheel channel=8 pitch=0 time=34>, 78368], [<message note_off channel=11 note=75 velocity=119 time=1374>, 78430], [<message note_off channel=0 note=63 velocity=123 time=96>, 78432], [<message note_off channel=0 note=51 velocity=123 time=0>, 78432], [<message note_on channel=0 note=46 velocity=123 time=0>, 78432], [<message note_on channel=0 note=58 velocity=123 time=0>, 78432], [<message pitchwheel channel=11 pitch=0 time=34>, 78464], [<message note_off channel=0 note=58 velocity=123 time=96>, 78528], [<message note_off channel=0 note=46 velocity=123 time=0>, 78528], [<message note_on channel=0 note=53 velocity=123 time=0>, 78528], [<message note_on channel=0 note=65 velocity=123 time=0>, 78528], [<message note_off channel=0 note=65 velocity=123 time=96>, 78624], [<message note_off channel=0 note=53 velocity=123 time=0>, 78624], [<message note_on channel=0 note=46 velocity=123 time=0>, 78624], [<message note_on channel=0 note=58 velocity=123 time=0>, 78624], [<message note_on channel=1 note=39 velocity=125 time=1620>, 78718], [<message note_on channel=9 note=35 velocity=124 time=1552>, 78718], [<message note_on channel=9 note=52 velocity=123 time=0>, 78718], [<message note_off channel=0 note=58 velocity=123 time=96>, 78720], [<message note_off channel=0 note=46 velocity=123 time=0>, 78720], [<message note_on channel=0 note=51 velocity=123 time=0>, 78720], [<message note_on channel=0 note=55 velocity=123 time=0>, 78720], [<message note_on channel=0 note=58 velocity=123 time=0>, 78720], [<message note_on channel=0 note=63 velocity=123 time=0>, 78720], [<message note_on channel=0 note=67 velocity=123 time=0>, 78720], [<meta message set_tempo tempo=769230 time=21888>, 78720], [<message note_off channel=0 note=67 velocity=123 time=6>, 78726], [<message note_off channel=0 note=63 velocity=123 time=0>, 78726], [<message note_on channel=0 note=75 velocity=122 time=0>, 78726], [<message note_off channel=0 note=51 velocity=123 time=2>, 78728], [<message note_on channel=0 note=63 velocity=123 time=0>, 78728], [<message note_on channel=0 note=67 velocity=123 time=0>, 78728], [<message note_on channel=0 note=51 velocity=123 time=2>, 78730], [<message note_on channel=0 note=58 velocity=123 time=0>, 78730], [<message note_on channel=0 note=70 velocity=123 time=0>, 78730], [<message note_on channel=4 note=51 velocity=115 time=5362>, 78768], [<message note_on channel=8 note=55 velocity=111 time=400>, 78768], [<message note_on channel=8 note=58 velocity=115 time=0>, 78768], [<message note_off channel=8 note=58 velocity=115 time=46>, 78814], [<message note_on channel=9 note=46 velocity=120 time=96>, 78814], [<message note_on channel=4 note=55 velocity=116 time=48>, 78816], [<message note_off channel=0 note=58 velocity=123 time=86>, 78816], [<message note_on channel=8 note=58 velocity=108 time=2>, 78816], [<message note_on channel=8 note=63 velocity=110 time=6>, 78822], [<message note_off channel=4 note=51 velocity=115 time=26>, 78842], [<message note_off channel=9 note=46 velocity=120 time=28>, 78842], [<message note_off channel=8 note=55 velocity=111 time=22>, 78844], [<message note_off channel=8 note=58 velocity=108 time=2>, 78846], [<message note_off channel=8 note=63 velocity=110 time=16>, 78862], [<message note_on channel=4 note=58 velocity=115 time=22>, 78864], [<message note_on channel=8 note=63 velocity=105 time=2>, 78864], [<message note_on channel=11 note=55 velocity=102 time=400>, 78864], [<message note_on channel=11 note=58 velocity=108 time=0>, 78864], [<message note_on channel=8 note=67 velocity=113 time=2>, 78866], [<message note_off channel=4 note=55 velocity=116 time=4>, 78868], [<message note_off channel=8 note=63 velocity=105 time=8>, 78874], [<message note_off channel=0 note=58 velocity=123 time=60>, 78876], [<message note_off channel=0 note=55 velocity=123 time=30>, 78906], [<message note_off channel=8 note=67 velocity=113 time=36>, 78910], [<message note_off channel=11 note=58 velocity=108 time=46>, 78910], [<message note_on channel=9 note=40 velocity=124 time=68>, 78910], [<message note_on channel=9 note=46 velocity=122 time=0>, 78910], [<message note_on channel=4 note=63 velocity=114 time=44>, 78912], [<message note_on channel=0 note=58 velocity=123 time=6>, 78912], [<message note_on channel=8 note=67 velocity=112 time=2>, 78912], [<message note_on channel=11 note=58 velocity=98 time=2>, 78912], [<message note_off channel=4 note=58 velocity=115 time=4>, 78916], [<message note_on channel=8 note=70 velocity=114 time=4>, 78916], [<message note_on channel=11 note=63 velocity=100 time=6>, 78918], [<message pitchwheel channel=8 pitch=-3456 time=6>, 78922], [<message note_off channel=8 note=67 velocity=112 time=4>, 78926], [<message pitchwheel channel=8 pitch=0 time=4>, 78930], [<message pitchwheel channel=8 pitch=0 time=8>, 78938], [<message note_off channel=11 note=55 velocity=102 time=22>, 78940], [<message note_off channel=11 note=58 velocity=98 time=2>, 78942], [<message note_off channel=0 note=75 velocity=122 time=32>, 78944], [<message note_off channel=1 note=39 velocity=125 time=226>, 78944], [<message note_off channel=0 note=63 velocity=123 time=2>, 78946], [<message note_off channel=0 note=67 velocity=123 time=2>, 78948], [<message note_off channel=0 note=70 velocity=123 time=2>, 78950], [<message note_off channel=0 note=58 velocity=123 time=4>, 78954], [<message note_off channel=0 note=51 velocity=123 time=4>, 78958], [<message note_off channel=11 note=63 velocity=100 time=16>, 78958], [<message note_on channel=0 note=63 velocity=123 time=2>, 78960], [<message note_on channel=0 note=67 velocity=123 time=0>, 78960], [<message note_on channel=0 note=70 velocity=121 time=0>, 78960], [<message note_on channel=0 note=75 velocity=122 time=0>, 78960], [<message note_on channel=11 note=63 velocity=94 time=2>, 78960], [<message note_on channel=11 note=67 velocity=105 time=2>, 78962], [<message note_off channel=11 note=63 velocity=94 time=8>, 78970], [<message note_off channel=9 note=35 velocity=124 time=62>, 78972], [<message note_off channel=9 note=46 velocity=122 time=14>, 78986], [<message note_on channel=1 note=39 velocity=125 time=62>, 79006], [<message note_off channel=11 note=67 velocity=105 time=36>, 79006], [<message note_on channel=9 note=35 velocity=121 time=20>, 79006], [<message note_on channel=9 note=46 velocity=119 time=0>, 79006], [<message note_off channel=0 note=63 velocity=123 time=48>, 79008], [<message note_on channel=0 note=51 velocity=122 time=0>, 79008], [<message note_on channel=11 note=67 velocity=104 time=2>, 79008], [<message note_off channel=0 note=67 velocity=123 time=2>, 79010], [<message note_on channel=11 note=70 velocity=106 time=4>, 79012], [<message pitchwheel channel=11 pitch=-3456 time=6>, 79018], [<message note_off channel=11 note=67 velocity=104 time=4>, 79022], [<message pitchwheel channel=11 pitch=0 time=4>, 79026], [<message note_off channel=0 note=75 velocity=122 time=18>, 79028], [<message pitchwheel channel=11 pitch=0 time=8>, 79034], [<message note_off channel=0 note=70 velocity=121 time=10>, 79038], [<message note_off channel=9 note=35 velocity=121 time=44>, 79050], [<message note_off channel=9 note=52 velocity=123 time=10>, 79060], [<message note_off channel=0 note=51 velocity=122 time=58>, 79096], [<message note_on channel=1 note=38 velocity=125 time=96>, 79102], [<message note_on channel=9 note=35 velocity=124 time=42>, 79102], [<message note_on channel=9 note=49 velocity=123 time=0>, 79102], [<message note_on channel=0 note=50 velocity=123 time=8>, 79104], [<message note_on channel=0 note=58 velocity=123 time=0>, 79104], [<message note_on channel=0 note=62 velocity=123 time=0>, 79104], [<message note_on channel=0 note=65 velocity=123 time=0>, 79104], [<message note_on channel=0 note=70 velocity=123 time=0>, 79104], [<message note_on channel=0 note=74 velocity=122 time=0>, 79104], [<message note_off channel=1 note=39 velocity=125 time=2>, 79104], [<message note_off channel=9 note=46 velocity=119 time=22>, 79124], [<message note_off channel=4 note=63 velocity=114 time=218>, 79134], [<message note_on channel=4 note=50 velocity=112 time=18>, 79152], [<message note_on channel=8 note=53 velocity=111 time=214>, 79152], [<message note_on channel=8 note=58 velocity=114 time=4>, 79156], [<message note_off channel=8 note=70 velocity=114 time=34>, 79190], [<message note_off channel=8 note=58 velocity=114 time=8>, 79198], [<message note_on channel=9 note=46 velocity=119 time=74>, 79198], [<message note_on channel=4 note=53 velocity=115 time=48>, 79200], [<message note_on channel=8 note=58 velocity=110 time=2>, 79200], [<message note_on channel=8 note=62 velocity=113 time=8>, 79208], [<message note_off channel=4 note=50 velocity=112 time=16>, 79216], [<message note_off channel=8 note=53 velocity=111 time=8>, 79216], [<message note_off channel=0 note=58 velocity=123 time=116>, 79220], [<message note_off channel=9 note=40 velocity=124 time=24>, 79222], [<message note_off channel=8 note=58 velocity=110 time=14>, 79230], [<message note_off channel=8 note=62 velocity=113 time=16>, 79246], [<message note_on channel=4 note=58 velocity=113 time=32>, 79248], [<message note_on channel=8 note=62 velocity=110 time=2>, 79248], [<message note_on channel=11 note=53 velocity=102 time=214>, 79248], [<message note_off channel=9 note=46 velocity=119 time=26>, 79248], [<message note_on channel=8 note=65 velocity=112 time=4>, 79252], [<message note_on channel=11 note=58 velocity=107 time=4>, 79252], [<message note_off channel=8 note=62 velocity=110 time=8>, 79260], [<message note_off channel=4 note=53 velocity=115 time=14>, 79262], [<message note_off channel=11 note=70 velocity=106 time=34>, 79286], [<message note_off channel=8 note=65 velocity=112 time=34>, 79294], [<message pitchwheel channel=8 pitch=-1792 time=0>, 79294], [<message note_off channel=11 note=58 velocity=107 time=8>, 79294], [<message note_on channel=9 note=40 velocity=124 time=46>, 79294], [<message note_on channel=9 note=46 velocity=122 time=0>, 79294], [<message note_on channel=4 note=62 velocity=114 time=34>, 79296], [<message note_on channel=0 note=58 velocity=122 time=76>, 79296], [<message note_on channel=8 note=65 velocity=113 time=2>, 79296], [<message note_on channel=8 note=70 velocity=112 time=0>, 79296], [<message note_on channel=11 note=58 velocity=101 time=2>, 79296], [<message pitchwheel channel=8 pitch=-3712 time=6>, 79302], [<message note_off channel=4 note=58 velocity=113 time=8>, 79304], [<message note_off channel=0 note=62 velocity=123 time=8>, 79304], [<message note_on channel=11 note=62 velocity=105 time=8>, 79304], [<message note_off channel=8 note=65 velocity=113 time=4>, 79306], [<message note_off channel=0 note=74 velocity=122 time=6>, 79310], [<message pitchwheel channel=8 pitch=-1408 time=4>, 79310], [<message note_off channel=11 note=53 velocity=102 time=8>, 79312], [<message note_off channel=0 note=65 velocity=123 time=4>, 79314], [<message pitchwheel channel=8 pitch=0 time=8>, 79318], [<message note_off channel=0 note=70 velocity=123 time=6>, 79320], [<message note_off channel=11 note=58 velocity=101 time=14>, 79326], [<message note_off channel=1 note=38 velocity=125 time=228>, 79332], [<message note_off channel=9 note=35 velocity=124 time=42>, 79336], [<message note_off channel=0 note=50 velocity=123 time=22>, 79342], [<message note_off channel=11 note=62 velocity=105 time=16>, 79342], [<message note_on channel=0 note=62 velocity=123 time=2>, 79344], [<message note_on channel=0 note=65 velocity=123 time=0>, 79344], [<message note_on channel=0 note=70 velocity=122 time=0>, 79344], [<message note_on channel=0 note=74 velocity=120 time=0>, 79344], [<message note_on channel=11 note=62 velocity=101 time=2>, 79344], [<message note_on channel=11 note=65 velocity=104 time=4>, 79348], [<message note_off channel=11 note=62 velocity=101 time=8>, 79356], [<message note_off channel=9 note=46 velocity=122 time=26>, 79362], [<message note_on channel=1 note=38 velocity=125 time=58>, 79390], [<message note_off channel=11 note=65 velocity=104 time=34>, 79390], [<message pitchwheel channel=11 pitch=-1792 time=0>, 79390], [<message note_on channel=9 note=35 velocity=120 time=28>, 79390], [<message note_on channel=9 note=46 velocity=120 time=0>, 79390], [<message note_on channel=0 note=50 velocity=117 time=48>, 79392], [<message note_on channel=11 note=65 velocity=105 time=2>, 79392], [<message note_on channel=11 note=70 velocity=104 time=0>, 79392], [<message note_off channel=0 note=74 velocity=120 time=6>, 79398], [<message note_off channel=0 note=65 velocity=123 time=0>, 79398], [<message pitchwheel channel=11 pitch=-3712 time=6>, 79398], [<message note_off channel=0 note=70 velocity=122 time=4>, 79402], [<message note_off channel=11 note=65 velocity=105 time=4>, 79402], [<message pitchwheel channel=11 pitch=-1408 time=4>, 79406], [<message pitchwheel channel=11 pitch=0 time=8>, 79414], [<message note_off channel=0 note=62 velocity=123 time=22>, 79424], [<message note_off channel=9 note=35 velocity=120 time=36>, 79426], [<message note_off channel=9 note=49 velocity=123 time=10>, 79436], [<message note_off channel=0 note=58 velocity=122 time=24>, 79448], [<message note_off channel=0 note=50 velocity=117 time=4>, 79452], [<message note_off channel=1 note=38 velocity=125 time=96>, 79486], [<message note_on channel=1 note=36 velocity=125 time=0>, 79486], [<message note_on channel=9 note=35 velocity=124 time=50>, 79486], [<message note_on channel=9 note=57 velocity=123 time=0>, 79486], [<message note_on channel=0 note=48 velocity=122 time=36>, 79488], [<message note_on channel=0 note=55 velocity=123 time=0>, 79488], [<message note_on channel=0 note=60 velocity=123 time=0>, 79488], [<message note_on channel=0 note=63 velocity=123 time=0>, 79488], [<message note_on channel=0 note=67 velocity=123 time=0>, 79488], [<message note_on channel=0 note=72 velocity=122 time=0>, 79488], [<message note_off channel=4 note=62 velocity=114 time=212>, 79516], [<message note_on channel=8 note=60 velocity=112 time=212>, 79530], [<message note_off channel=8 note=70 velocity=112 time=2>, 79532], [<message note_off channel=9 note=46 velocity=120 time=46>, 79532], [<message note_on channel=4 note=48 velocity=113 time=20>, 79536], [<message note_on channel=8 note=55 velocity=111 time=4>, 79536], [<message note_off channel=9 note=40 velocity=124 time=46>, 79578], [<message note_on channel=8 note=63 velocity=109 time=44>, 79580], [<message note_off channel=8 note=60 velocity=112 time=2>, 79582], [<message note_on channel=9 note=46 velocity=119 time=4>, 79582], [<message note_on channel=4 note=51 velocity=113 time=48>, 79584], [<message note_on channel=8 note=60 velocity=114 time=2>, 79584], [<message note_off channel=4 note=48 velocity=113 time=8>, 79592], [<message note_off channel=8 note=60 velocity=114 time=18>, 79602], [<message note_off channel=8 note=55 velocity=111 time=10>, 79612], [<message note_off channel=9 note=46 velocity=119 time=32>, 79614], [<message note_off channel=0 note=55 velocity=123 time=128>, 79616], [<message note_on channel=11 note=60 velocity=104 time=212>, 79626], [<message note_off channel=11 note=70 velocity=104 time=2>, 79628], [<message note_off channel=8 note=63 velocity=109 time=18>, 79630], [<message note_off channel=4 note=51 velocity=113 time=40>, 79632], [<message note_on channel=4 note=55 velocity=114 time=0>, 79632], [<message note_on channel=8 note=63 velocity=108 time=2>, 79632], [<message note_on channel=8 note=67 velocity=111 time=0>, 79632], [<message note_on channel=11 note=55 velocity=102 time=4>, 79632], [<message note_off channel=8 note=63 velocity=108 time=6>, 79638], [<message note_on channel=11 note=63 velocity=99 time=44>, 79676], [<message note_off channel=8 note=67 velocity=111 time=40>, 79678], [<message note_on channel=8 note=70 velocity=114 time=0>, 79678], [<message note_off channel=11 note=60 velocity=104 time=2>, 79678], [<message note_on channel=9 note=40 velocity=124 time=64>, 79678], [<message note_on channel=9 note=46 velocity=122 time=0>, 79678], [<message note_on channel=4 note=58 velocity=113 time=48>, 79680], [<message note_on channel=0 note=55 velocity=123 time=64>, 79680], [<message note_on channel=8 note=65 velocity=117 time=2>, 79680], [<message note_on channel=11 note=60 velocity=106 time=2>, 79680], [<message note_off channel=0 note=60 velocity=123 time=4>, 79684], [<message note_off channel=4 note=55 velocity=114 time=6>, 79686], [<message pitchwheel channel=8 pitch=650 time=8>, 79688], [<message note_off channel=0 note=48 velocity=122 time=6>, 79690], [<message pitchwheel channel=4 pitch=1300 time=6>, 79692], [<message pitchwheel channel=8 pitch=3770 time=8>, 79696], [<message note_off channel=11 note=60 velocity=106 time=18>, 79698], [<message pitchwheel channel=4 pitch=3640 time=8>, 79700], [<message pitchwheel channel=8 pitch=1300 time=8>, 79704], [<message pitchwheel channel=4 pitch=6110 time=8>, 79708], [<message note_off channel=11 note=55 velocity=102 time=10>, 79708], [<message pitchwheel channel=8 pitch=3900 time=8>, 79712], [<message pitchwheel channel=4 pitch=8190 time=8>, 79716], [<message pitchwheel channel=8 pitch=6630 time=8>, 79720], [<message note_off channel=11 note=63 velocity=99 time=18>, 79726], [<message note_off channel=9 note=35 velocity=124 time=48>, 79726], [<message note_on channel=0 note=60 velocity=120 time=38>, 79728], [<message pitchwheel channel=8 pitch=8190 time=8>, 79728], [<message note_on channel=11 note=63 velocity=97 time=2>, 79728], [<message note_on channel=11 note=67 velocity=102 time=0>, 79728], [<message note_off channel=1 note=36 velocity=125 time=246>, 79732], [<message note_off channel=11 note=63 velocity=97 time=6>, 79734], [<message note_off channel=9 note=46 velocity=122 time=24>, 79750], [<message note_on channel=1 note=36 velocity=125 time=42>, 79774], [<message note_off channel=11 note=67 velocity=102 time=40>, 79774], [<message note_on channel=11 note=70 velocity=107 time=0>, 79774], [<message note_on channel=9 note=35 velocity=120 time=24>, 79774], [<message note_on channel=9 note=46 velocity=122 time=0>, 79774], [<message note_on channel=0 note=48 velocity=118 time=48>, 79776], [<message note_on channel=11 note=65 velocity=110 time=2>, 79776], [<message pitchwheel channel=11 pitch=650 time=8>, 79784], [<message note_off channel=0 note=72 velocity=122 time=12>, 79788], [<message pitchwheel channel=11 pitch=3770 time=8>, 79792], [<message note_off channel=0 note=67 velocity=123 time=6>, 79794], [<message pitchwheel channel=11 pitch=1300 time=8>, 79800], [<message note_off channel=9 note=57 velocity=123 time=26>, 79800], [<message note_off channel=0 note=63 velocity=123 time=8>, 79802], [<message note_off channel=9 note=35 velocity=120 time=6>, 79806], [<message pitchwheel channel=11 pitch=3900 time=8>, 79808], [<message note_off channel=0 note=60 velocity=120 time=10>, 79812], [<message pitchwheel channel=11 pitch=6630 time=8>, 79816], [<message note_off channel=0 note=48 velocity=118 time=6>, 79818], [<message note_off channel=0 note=55 velocity=123 time=4>, 79822], [<message pitchwheel channel=11 pitch=8190 time=8>, 79824], [<message note_off channel=9 note=40 velocity=124 time=18>, 79824], [<message note_off channel=4 note=58 velocity=113 time=146>, 79862], [<message note_off channel=1 note=36 velocity=125 time=90>, 79864], [<message note_on channel=1 note=31 velocity=125 time=6>, 79870], [<message note_on channel=9 note=35 velocity=123 time=46>, 79870], [<message note_on channel=9 note=49 velocity=122 time=0>, 79870], [<message note_on channel=0 note=43 velocity=123 time=50>, 79872], [<message note_on channel=0 note=55 velocity=123 time=0>, 79872], [<message note_on channel=0 note=59 velocity=123 time=0>, 79872], [<message note_on channel=0 note=62 velocity=123 time=0>, 79872], [<message note_on channel=0 note=67 velocity=123 time=0>, 79872], [<message note_on channel=2 note=43 velocity=116 time=22860>, 79872], [<message note_on channel=2 note=55 velocity=115 time=0>, 79872], [<message note_on channel=2 note=67 velocity=104 time=0>, 79872], [<message note_on channel=2 note=71 velocity=103 time=0>, 79872], [<message note_on channel=2 note=74 velocity=101 time=0>, 79872], [<message note_on channel=2 note=79 velocity=113 time=0>, 79872], [<message note_off channel=9 note=46 velocity=122 time=2>, 79872], [<message pitchwheel channel=4 pitch=4680 time=36>, 79898], [<message pitchwheel channel=4 pitch=0 time=8>, 79906], [<message note_off channel=8 note=70 velocity=114 time=252>, 79980], [<message note_off channel=9 note=35 velocity=123 time=130>, 80002], [<message note_off channel=8 note=65 velocity=117 time=36>, 80016], [<message note_off channel=9 note=49 velocity=122 time=34>, 80036], [<message note_off channel=0 note=59 velocity=123 time=172>, 80044], [<message note_off channel=2 note=71 velocity=103 time=174>, 80046], [<message note_off channel=0 note=55 velocity=123 time=8>, 80052], [<message note_off channel=1 note=31 velocity=125 time=182>, 80052], [<message note_off channel=0 note=67 velocity=123 time=2>, 80054], [<message note_off channel=0 note=43 velocity=123 time=6>, 80060], [<message note_on channel=1 note=36 velocity=125 time=10>, 80062], [<message note_on channel=9 note=35 velocity=124 time=26>, 80062], [<message note_on channel=9 note=52 velocity=123 time=0>, 80062], [<message note_on channel=0 note=48 velocity=123 time=4>, 80064], [<message note_on channel=0 note=55 velocity=123 time=0>, 80064], [<message note_on channel=0 note=60 velocity=123 time=0>, 80064], [<message note_on channel=0 note=63 velocity=123 time=0>, 80064], [<message note_on channel=0 note=67 velocity=123 time=0>, 80064], [<message note_off channel=2 note=43 velocity=116 time=18>, 80064], [<message note_on channel=2 note=48 velocity=117 time=0>, 80064], [<message note_on channel=2 note=72 velocity=116 time=0>, 80064], [<message note_on channel=2 note=75 velocity=101 time=0>, 80064], [<message note_off channel=2 note=74 velocity=101 time=2>, 80066], [<message pitchwheel channel=8 pitch=7410 time=52>, 80068], [<message note_off channel=2 note=55 velocity=115 time=4>, 80070], [<message note_off channel=0 note=62 velocity=123 time=12>, 80076], [<message pitchwheel channel=8 pitch=4550 time=8>, 80076], [<message note_off channel=11 note=70 velocity=107 time=252>, 80076], [<message pitchwheel channel=8 pitch=2080 time=8>, 80084], [<message pitchwheel channel=8 pitch=0 time=8>, 80092], [<message note_off channel=11 note=65 velocity=110 time=36>, 80112], [<message note_off channel=0 note=67 velocity=123 time=62>, 80138], [<message note_off channel=2 note=48 velocity=117 time=72>, 80142], [<message note_off channel=2 note=79 velocity=113 time=2>, 80144], [<message note_off channel=9 note=35 velocity=124 time=82>, 80144], [<message note_off channel=0 note=55 velocity=123 time=10>, 80148], [<message note_off channel=0 note=48 velocity=123 time=2>, 80150], [<message note_off channel=2 note=67 velocity=104 time=6>, 80150], [<message note_off channel=0 note=63 velocity=123 time=2>, 80152], [<message note_off channel=0 note=60 velocity=123 time=0>, 80152], [<message note_off channel=2 note=75 velocity=101 time=2>, 80152], [<message note_off channel=2 note=72 velocity=116 time=2>, 80154], [<message pitchwheel channel=11 pitch=7410 time=52>, 80164], [<message note_off channel=1 note=36 velocity=125 time=106>, 80168], [<message pitchwheel channel=11 pitch=4550 time=8>, 80172], [<message note_off channel=9 note=52 velocity=123 time=30>, 80174], [<message pitchwheel channel=8 pitch=7800 time=86>, 80178], [<message pitchwheel channel=11 pitch=2080 time=8>, 80180], [<message pitchwheel channel=8 pitch=6370 time=8>, 80186], [<message pitchwheel channel=11 pitch=0 time=8>, 80188], [<message pitchwheel channel=8 pitch=3900 time=8>, 80194], [<message pitchwheel channel=8 pitch=1560 time=8>, 80202], [<message pitchwheel channel=8 pitch=0 time=8>, 80210], [<message note_on channel=1 note=35 velocity=125 time=86>, 80254], [<message note_on channel=9 note=35 velocity=124 time=80>, 80254], [<message note_on channel=9 note=55 velocity=127 time=0>, 80254], [<message note_on channel=0 note=43 velocity=123 time=104>, 80256], [<message note_on channel=0 note=55 velocity=123 time=0>, 80256], [<message note_on channel=0 note=59 velocity=123 time=0>, 80256], [<message note_on channel=0 note=62 velocity=123 time=0>, 80256], [<message note_on channel=0 note=67 velocity=122 time=0>, 80256], [<message note_on channel=2 note=43 velocity=116 time=102>, 80256], [<message note_on channel=2 note=55 velocity=118 time=0>, 80256], [<message note_on channel=2 note=67 velocity=111 time=0>, 80256], [<message note_on channel=2 note=71 velocity=111 time=0>, 80256], [<message note_on channel=2 note=74 velocity=112 time=0>, 80256], [<message note_on channel=2 note=79 velocity=115 time=0>, 80256], [<message pitchwheel channel=11 pitch=7800 time=86>, 80274], [<message pitchwheel channel=11 pitch=6370 time=8>, 80282], [<message pitchwheel channel=11 pitch=3900 time=8>, 80290], [<message pitchwheel channel=11 pitch=1560 time=8>, 80298], [<message pitchwheel channel=11 pitch=0 time=8>, 80306], [<message note_off channel=9 note=35 velocity=124 time=140>, 80394], [<message note_off channel=0 note=59 velocity=123 time=150>, 80406], [<message note_off channel=2 note=71 velocity=111 time=158>, 80414], [<message note_off channel=9 note=55 velocity=127 time=28>, 80422], [<message note_off channel=2 note=43 velocity=116 time=24>, 80438], [<message note_off channel=0 note=55 velocity=123 time=34>, 80440], [<message note_off channel=0 note=67 velocity=122 time=2>, 80442], [<message note_off channel=1 note=35 velocity=125 time=188>, 80442], [<message note_off channel=2 note=74 velocity=112 time=6>, 80444], [<message note_on channel=1 note=36 velocity=125 time=4>, 80446], [<message note_off channel=2 note=55 velocity=118 time=2>, 80446], [<message note_on channel=9 note=35 velocity=124 time=24>, 80446], [<message note_on channel=9 note=57 velocity=123 time=0>, 80446], [<message note_on channel=0 note=48 velocity=123 time=6>, 80448], [<message note_on channel=0 note=55 velocity=123 time=0>, 80448], [<message note_on channel=0 note=60 velocity=123 time=0>, 80448], [<message note_on channel=0 note=63 velocity=123 time=0>, 80448], [<message note_on channel=0 note=67 velocity=123 time=0>, 80448], [<message note_on channel=2 note=48 velocity=119 time=2>, 80448], [<message note_on channel=2 note=72 velocity=115 time=0>, 80448], [<message note_on channel=2 note=75 velocity=114 time=0>, 80448], [<message note_off channel=0 note=62 velocity=123 time=6>, 80454], [<message note_off channel=0 note=43 velocity=123 time=2>, 80456], [<message note_off channel=2 note=79 velocity=115 time=62>, 80510], [<message note_off channel=9 note=57 velocity=123 time=64>, 80510], [<message note_off channel=0 note=48 velocity=123 time=64>, 80520], [<message note_off channel=9 note=35 velocity=124 time=12>, 80522], [<message note_off channel=2 note=48 velocity=119 time=14>, 80524], [<message note_off channel=0 note=55 velocity=123 time=6>, 80526], [<message note_off channel=0 note=60 velocity=123 time=6>, 80532], [<message note_off channel=0 note=63 velocity=123 time=10>, 80542], [<message note_off channel=2 note=67 velocity=111 time=24>, 80548], [<message note_off channel=0 note=67 velocity=123 time=8>, 80550], [<message note_off channel=2 note=72 velocity=115 time=4>, 80552], [<message note_off channel=2 note=75 velocity=114 time=18>, 80570], [<message note_off channel=1 note=36 velocity=125 time=190>, 80636], [<message note_on channel=1 note=34 velocity=125 time=2>, 80638], [<message note_on channel=9 note=35 velocity=124 time=116>, 80638], [<message note_on channel=9 note=52 velocity=123 time=0>, 80638], [<message note_on channel=4 note=62 velocity=122 time=734>, 80640], [<message note_on channel=0 note=46 velocity=120 time=90>, 80640], [<message note_on channel=0 note=53 velocity=123 time=0>, 80640], [<message note_on channel=0 note=56 velocity=123 time=0>, 80640], [<message note_on channel=0 note=58 velocity=123 time=0>, 80640], [<message note_on channel=0 note=62 velocity=123 time=0>, 80640], [<message note_on channel=0 note=65 velocity=123 time=0>, 80640], [<message note_on channel=2 note=46 velocity=110 time=70>, 80640], [<message note_on channel=2 note=58 velocity=118 time=0>, 80640], [<message note_on channel=2 note=65 velocity=118 time=0>, 80640], [<message note_on channel=2 note=70 velocity=115 time=0>, 80640], [<message note_on channel=2 note=74 velocity=116 time=0>, 80640], [<message note_on channel=2 note=77 velocity=119 time=0>, 80640], [<message note_off channel=2 note=46 velocity=110 time=108>, 80748], [<message note_off channel=9 note=35 velocity=124 time=114>, 80752], [<message note_off channel=2 note=58 velocity=118 time=20>, 80768], [<message note_off channel=9 note=52 velocity=123 time=24>, 80776], [<message note_off channel=0 note=58 velocity=123 time=150>, 80790], [<message note_off channel=2 note=65 velocity=118 time=36>, 80804], [<message note_off channel=0 note=56 velocity=123 time=20>, 80810], [<message note_off channel=1 note=34 velocity=125 time=176>, 80814], [<message note_off channel=0 note=65 velocity=123 time=10>, 80820], [<message note_off channel=0 note=62 velocity=123 time=4>, 80824], [<message note_off channel=4 note=62 velocity=122 time=186>, 80826], [<message note_off channel=0 note=53 velocity=123 time=2>, 80826], [<message note_off channel=0 note=46 velocity=120 time=4>, 80830], [<message note_on channel=1 note=39 velocity=125 time=16>, 80830], [<message note_on channel=9 note=35 velocity=123 time=54>, 80830], [<message note_on channel=9 note=49 velocity=123 time=0>, 80830], [<message note_on channel=4 note=63 velocity=115 time=6>, 80832], [<message note_on channel=0 note=51 velocity=123 time=2>, 80832], [<message note_on channel=0 note=55 velocity=123 time=0>, 80832], [<message note_on channel=0 note=58 velocity=123 time=0>, 80832], [<message note_on channel=0 note=63 velocity=122 time=0>, 80832], [<message note_on channel=0 note=67 velocity=123 time=0>, 80832], [<message note_off channel=2 note=74 velocity=116 time=28>, 80832], [<message note_on channel=2 note=51 velocity=116 time=0>, 80832], [<message note_on channel=2 note=58 velocity=115 time=0>, 80832], [<message note_on channel=2 note=63 velocity=117 time=0>, 80832], [<message note_on channel=2 note=67 velocity=114 time=0>, 80832], [<message note_on channel=2 note=75 velocity=112 time=0>, 80832], [<message note_off channel=2 note=77 velocity=119 time=12>, 80844], [<message note_off channel=4 note=63 velocity=115 time=90>, 80922], [<message note_on channel=4 note=67 velocity=115 time=6>, 80928], [<message note_on channel=2 note=79 velocity=112 time=84>, 80928], [<message note_off channel=9 note=49 velocity=123 time=110>, 80940], [<message note_off channel=9 note=35 velocity=123 time=10>, 80950], [<message note_off channel=2 note=58 velocity=115 time=46>, 80974], [<message note_off channel=2 note=67 velocity=114 time=4>, 80978], [<message note_off channel=2 note=70 velocity=115 time=12>, 80990], [<message note_off channel=0 note=58 velocity=123 time=174>, 81006], [<message note_off channel=0 note=67 velocity=123 time=6>, 81012], [<message note_off channel=2 note=63 velocity=117 time=28>, 81018], [<message note_off channel=0 note=63 velocity=122 time=8>, 81020], [<message note_off channel=0 note=55 velocity=123 time=0>, 81020], [<message note_off channel=0 note=51 velocity=123 time=0>, 81020], [<message note_off channel=1 note=39 velocity=125 time=190>, 81020], [<message note_on channel=1 note=38 velocity=125 time=2>, 81022], [<message note_on channel=9 note=35 velocity=124 time=72>, 81022], [<message note_on channel=9 note=57 velocity=123 time=0>, 81022], [<message note_off channel=4 note=67 velocity=115 time=96>, 81024], [<message note_on channel=4 note=66 velocity=123 time=0>, 81024], [<message note_on channel=0 note=50 velocity=122 time=4>, 81024], [<message note_on channel=0 note=60 velocity=123 time=0>, 81024], [<message note_on channel=0 note=62 velocity=123 time=0>, 81024], [<message note_on channel=0 note=66 velocity=122 time=0>, 81024], [<message note_on channel=2 note=62 velocity=114 time=6>, 81024], [<message note_on channel=2 note=72 velocity=114 time=0>, 81024], [<message note_on channel=2 note=74 velocity=114 time=0>, 81024], [<message note_on channel=2 note=78 velocity=110 time=0>, 81024], [<message note_off channel=2 note=75 velocity=112 time=2>, 81026], [<message note_off channel=2 note=51 velocity=116 time=2>, 81028], [<message note_off channel=2 note=79 velocity=112 time=14>, 81042], [<message note_on channel=1 note=34 velocity=125 time=192>, 81214], [<message note_on channel=9 note=40 velocity=124 time=192>, 81214], [<message note_on channel=9 note=46 velocity=122 time=0>, 81214], [<message note_on channel=4 note=67 velocity=123 time=192>, 81216], [<message note_on channel=0 note=67 velocity=122 time=192>, 81216], [<message note_on channel=2 note=79 velocity=111 time=174>, 81216], [<message note_off channel=2 note=78 velocity=110 time=8>, 81224], [<message note_off channel=4 note=66 velocity=123 time=10>, 81226], [<message note_off channel=1 note=38 velocity=125 time=20>, 81234], [<message note_off channel=0 note=66 velocity=122 time=22>, 81238], [<message note_off channel=9 note=35 velocity=124 time=26>, 81240], [<message note_off channel=9 note=46 velocity=122 time=36>, 81276], [<message note_off channel=0 note=67 velocity=122 time=52>, 81290], [<message note_on channel=1 note=33 velocity=125 time=76>, 81310], [<message note_on channel=9 note=35 velocity=123 time=34>, 81310], [<message note_on channel=9 note=46 velocity=112 time=0>, 81310], [<message note_on channel=4 note=69 velocity=122 time=86>, 81312], [<message note_on channel=0 note=69 velocity=123 time=22>, 81312], [<message note_on channel=2 note=81 velocity=112 time=88>, 81312], [<message note_off channel=4 note=67 velocity=123 time=4>, 81316], [<message note_off channel=1 note=34 velocity=125 time=6>, 81316], [<message note_off channel=2 note=72 velocity=114 time=10>, 81322], [<message note_off channel=9 note=46 velocity=112 time=34>, 81344], [<message note_off channel=9 note=35 velocity=123 time=10>, 81354], [<message note_off channel=2 note=81 velocity=112 time=38>, 81360], [<message note_off channel=0 note=60 velocity=123 time=54>, 81366], [<message note_off channel=0 note=69 velocity=123 time=10>, 81376], [<message note_on channel=1 note=31 velocity=125 time=90>, 81406], [<message note_on channel=9 note=35 velocity=124 time=52>, 81406], [<message note_on channel=9 note=46 velocity=122 time=0>, 81406], [<message note_on channel=4 note=70 velocity=122 time=92>, 81408], [<message note_on channel=0 note=43 velocity=122 time=32>, 81408], [<message note_on channel=0 note=58 velocity=122 time=0>, 81408], [<message note_on channel=0 note=67 velocity=121 time=0>, 81408], [<message note_on channel=0 note=70 velocity=121 time=0>, 81408], [<message note_on channel=2 note=82 velocity=116 time=48>, 81408], [<message note_off channel=1 note=33 velocity=125 time=4>, 81410], [<message note_off channel=4 note=69 velocity=122 time=12>, 81420], [<message note_off channel=0 note=50 velocity=122 time=18>, 81426], [<message note_off channel=9 note=46 velocity=122 time=52>, 81458], [<message note_on channel=1 note=38 velocity=122 time=92>, 81502], [<message note_on channel=9 note=46 velocity=112 time=44>, 81502], [<message note_on channel=0 note=50 velocity=122 time=78>, 81504], [<message note_off channel=1 note=31 velocity=125 time=14>, 81516], [<message note_off channel=9 note=46 velocity=112 time=26>, 81528], [<message note_off channel=9 note=40 velocity=124 time=14>, 81542], [<message note_on channel=1 note=43 velocity=125 time=82>, 81598], [<message note_on channel=9 note=40 velocity=123 time=56>, 81598], [<message note_on channel=9 note=46 velocity=122 time=0>, 81598], [<message note_on channel=0 note=55 velocity=123 time=96>, 81600], [<message note_off channel=1 note=38 velocity=122 time=8>, 81606], [<message note_off channel=9 note=35 velocity=124 time=12>, 81610], [<message note_off channel=0 note=58 velocity=122 time=22>, 81622], [<message note_on channel=9 note=43 velocity=122 time=36>, 81646], [<message note_off channel=9 note=46 velocity=122 time=6>, 81652], [<message note_off channel=9 note=40 velocity=123 time=2>, 81654], [<message note_off channel=1 note=43 velocity=125 time=80>, 81686], [<message note_on channel=1 note=31 velocity=125 time=8>, 81694], [<message note_on channel=9 note=35 velocity=124 time=40>, 81694], [<message note_on channel=9 note=45 velocity=122 time=0>, 81694], [<message note_on channel=0 note=58 velocity=110 time=74>, 81696], [<message note_off channel=9 note=43 velocity=122 time=4>, 81698], [<message note_off channel=0 note=43 velocity=122 time=12>, 81708], [<message note_off channel=9 note=57 velocity=123 time=24>, 81722], [<message note_off channel=9 note=35 velocity=124 time=12>, 81734], [<message note_off channel=9 note=45 velocity=122 time=46>, 81780], [<message note_off channel=0 note=58 velocity=110 time=74>, 81782], [<message note_off channel=1 note=31 velocity=125 time=92>, 81786], [<message note_on channel=1 note=32 velocity=125 time=4>, 81790], [<message note_on channel=9 note=35 velocity=124 time=10>, 81790], [<message note_on channel=9 note=49 velocity=123 time=0>, 81790], [<message note_on channel=4 note=60 velocity=122 time=372>, 81792], [<message note_off channel=0 note=50 velocity=122 time=10>, 81792], [<message note_on channel=0 note=44 velocity=123 time=0>, 81792], [<message note_off channel=2 note=82 velocity=116 time=384>, 81792], [<message note_off channel=2 note=79 velocity=111 time=0>, 81792], [<message note_off channel=2 note=74 velocity=114 time=0>, 81792], [<message note_off channel=2 note=62 velocity=114 time=0>, 81792], [<message note_on channel=2 note=60 velocity=112 time=0>, 81792], [<message note_on channel=2 note=63 velocity=112 time=0>, 81792], [<message note_on channel=2 note=68 velocity=112 time=0>, 81792], [<message note_on channel=2 note=72 velocity=112 time=0>, 81792], [<message note_off channel=4 note=70 velocity=122 time=2>, 81794], [<message note_off channel=0 note=67 velocity=121 time=2>, 81794], [<message note_off channel=0 note=55 velocity=123 time=2>, 81796], [<message note_off channel=0 note=62 velocity=123 time=2>, 81798], [<message note_off channel=0 note=70 velocity=121 time=2>, 81800], [<message note_on channel=9 note=46 velocity=111 time=96>, 81886], [<message note_on channel=0 note=51 velocity=121 time=88>, 81888], [<message note_off channel=9 note=46 velocity=111 time=48>, 81934], [<message note_on channel=9 note=40 velocity=122 time=48>, 81982], [<message note_on channel=9 note=46 velocity=122 time=0>, 81982], [<message note_on channel=0 note=56 velocity=123 time=96>, 81984], [<message note_on channel=0 note=60 velocity=123 time=0>, 81984], [<message note_on channel=0 note=63 velocity=123 time=0>, 81984], [<message note_on channel=0 note=68 velocity=120 time=0>, 81984], [<message note_off channel=2 note=72 velocity=113 time=192>, 81984], [<message note_on channel=2 note=72 velocity=113 time=0>, 81984], [<message note_off channel=9 note=35 velocity=124 time=22>, 82004], [<message note_off channel=9 note=46 velocity=122 time=28>, 82032], [<message note_off channel=1 note=32 velocity=125 time=272>, 82062], [<message note_off channel=4 note=60 velocity=122 time=272>, 82066], [<message note_on channel=1 note=32 velocity=125 time=16>, 82078], [<message note_on channel=9 note=35 velocity=123 time=46>, 82078], [<message note_on channel=9 note=46 velocity=114 time=0>, 82078], [<message note_on channel=4 note=60 velocity=117 time=14>, 82080], [<message note_on channel=2 note=74 velocity=110 time=96>, 82080], [<message note_off channel=2 note=63 velocity=112 time=16>, 82096], [<message note_off channel=9 note=46 velocity=114 time=22>, 82100], [<message note_off channel=2 note=60 velocity=112 time=18>, 82114], [<message note_off channel=9 note=35 velocity=123 time=22>, 82122], [<message note_on channel=4 note=62 velocity=114 time=48>, 82128], [<message note_off channel=4 note=60 velocity=117 time=8>, 82136], [<message note_off channel=0 note=60 velocity=123 time=152>, 82136], [<message note_off channel=0 note=51 velocity=121 time=18>, 82154], [<message note_off channel=1 note=32 velocity=125 time=84>, 82162], [<message note_off channel=0 note=63 velocity=123 time=16>, 82170], [<message note_off channel=2 note=74 velocity=110 time=58>, 82172], [<message note_on channel=1 note=39 velocity=125 time=12>, 82174], [<message note_on channel=9 note=35 velocity=123 time=52>, 82174], [<message note_on channel=9 note=46 velocity=122 time=0>, 82174], [<message note_on channel=4 note=58 velocity=116 time=40>, 82176], [<message note_on channel=0 note=51 velocity=122 time=6>, 82176], [<message note_on channel=0 note=58 velocity=117 time=0>, 82176], [<message note_on channel=0 note=63 velocity=115 time=0>, 82176], [<message note_on channel=0 note=67 velocity=119 time=0>, 82176], [<message note_off channel=2 note=72 velocity=112 time=4>, 82176], [<message note_on channel=2 note=63 velocity=114 time=0>, 82176], [<message note_on channel=2 note=67 velocity=114 time=0>, 82176], [<message note_on channel=2 note=70 velocity=114 time=0>, 82176], [<message note_off channel=0 note=56 velocity=123 time=2>, 82178], [<message note_off channel=2 note=68 velocity=112 time=6>, 82182], [<message note_off channel=4 note=62 velocity=114 time=12>, 82188], [<message note_off channel=0 note=68 velocity=120 time=12>, 82190], [<message note_off channel=0 note=44 velocity=123 time=0>, 82190], [<message note_off channel=9 note=46 velocity=122 time=28>, 82202], [<message note_off channel=0 note=51 velocity=122 time=76>, 82266], [<message note_on channel=9 note=46 velocity=111 time=68>, 82270], [<message note_on channel=0 note=51 velocity=109 time=6>, 82272], [<message note_off channel=9 note=40 velocity=122 time=30>, 82300], [<message note_off channel=9 note=46 velocity=111 time=18>, 82318], [<message note_off channel=0 note=67 velocity=119 time=90>, 82362], [<message note_off channel=0 note=58 velocity=117 time=2>, 82364], [<message note_on channel=9 note=40 velocity=124 time=48>, 82366], [<message note_on channel=9 note=46 velocity=123 time=0>, 82366], [<message note_on channel=0 note=58 velocity=115 time=4>, 82368], [<message note_off channel=9 note=46 velocity=123 time=34>, 82400], [<message note_off channel=9 note=35 velocity=123 time=24>, 82424], [<message note_off channel=0 note=58 velocity=115 time=70>, 82438], [<message note_off channel=0 note=63 velocity=115 time=14>, 82452], [<message note_off channel=0 note=51 velocity=109 time=8>, 82460], [<message note_on channel=9 note=35 velocity=123 time=38>, 82462], [<message note_on channel=9 note=46 velocity=120 time=0>, 82462], [<message note_off channel=9 note=40 velocity=124 time=18>, 82480], [<message note_off channel=9 note=46 velocity=120 time=8>, 82488], [<message note_off channel=9 note=49 velocity=123 time=6>, 82494], [<message note_off channel=4 note=58 velocity=116 time=308>, 82496], [<message note_off channel=1 note=39 velocity=125 time=338>, 82512], [<message note_off channel=9 note=35 velocity=123 time=56>, 82550], [<message note_on channel=1 note=36 velocity=123 time=46>, 82558], [<message note_on channel=9 note=35 velocity=123 time=8>, 82558], [<message note_on channel=9 note=49 velocity=122 time=0>, 82558], [<message note_on channel=5 note=80 velocity=121 time=28654>, 82560], [<message note_on channel=0 note=48 velocity=122 time=100>, 82560], [<message note_on channel=0 note=67 velocity=123 time=0>, 82560], [<message note_on channel=0 note=72 velocity=122 time=0>, 82560], [<message note_off channel=2 note=70 velocity=114 time=378>, 82560], [<message note_off channel=2 note=67 velocity=114 time=0>, 82560], [<message note_off channel=2 note=63 velocity=114 time=0>, 82560], [<message note_off channel=5 note=80 velocity=121 time=88>, 82648], [<message note_on channel=5 note=79 velocity=122 time=8>, 82656], [<message note_on channel=0 note=55 velocity=117 time=96>, 82656], [<message note_on channel=0 note=63 velocity=120 time=0>, 82656], [<message note_off channel=0 note=72 velocity=122 time=10>, 82666], [<message note_off channel=0 note=67 velocity=123 time=16>, 82682], [<message note_off channel=9 note=49 velocity=122 time=180>, 82738], [<message note_on channel=9 note=40 velocity=123 time=12>, 82750], [<message note_on channel=9 note=42 velocity=122 time=0>, 82750], [<message note_on channel=5 note=75 velocity=120 time=96>, 82752], [<message note_on channel=0 note=60 velocity=123 time=70>, 82752], [<message note_on channel=0 note=67 velocity=123 time=0>, 82752], [<message note_on channel=0 note=72 velocity=122 time=0>, 82752], [<message note_off channel=0 note=55 velocity=117 time=2>, 82754], [<message note_off channel=5 note=79 velocity=122 time=10>, 82762], [<message note_off channel=0 note=63 velocity=120 time=10>, 82764], [<message note_off channel=9 note=35 velocity=123 time=36>, 82786], [<message note_off channel=1 note=36 velocity=123 time=248>, 82806], [<message note_off channel=9 note=42 velocity=122 time=38>, 82824], [<message note_off channel=5 note=75 velocity=120 time=84>, 82846], [<message note_off channel=0 note=60 velocity=123 time=82>, 82846], [<message note_on channel=1 note=36 velocity=119 time=40>, 82846], [<message note_on channel=9 note=35 velocity=118 time=22>, 82846], [<message note_on channel=9 note=42 velocity=117 time=0>, 82846], [<message note_on channel=5 note=67 velocity=121 time=2>, 82848], [<message note_on channel=0 note=55 velocity=122 time=2>, 82848], [<message note_on channel=0 note=63 velocity=121 time=0>, 82848], [<message note_off channel=0 note=48 velocity=122 time=2>, 82850], [<message note_off channel=0 note=67 velocity=123 time=6>, 82856], [<message note_off channel=9 note=42 velocity=117 time=40>, 82886], [<message note_off channel=9 note=35 velocity=118 time=8>, 82894], [<message note_on channel=5 note=70 velocity=119 time=48>, 82896], [<message note_off channel=5 note=67 velocity=121 time=12>, 82908], [<message note_off channel=1 note=36 velocity=119 time=90>, 82936], [<message note_off channel=0 note=55 velocity=122 time=82>, 82938], [<message note_off channel=0 note=63 velocity=121 time=2>, 82940], [<message note_on channel=1 note=31 velocity=123 time=6>, 82942], [<message note_on channel=9 note=35 velocity=122 time=48>, 82942], [<message note_on channel=9 note=42 velocity=121 time=0>, 82942], [<message note_on channel=0 note=43 velocity=121 time=4>, 82944], [<message note_on channel=0 note=67 velocity=121 time=0>, 82944], [<message note_on channel=0 note=70 velocity=122 time=0>, 82944], [<message note_off channel=0 note=72 velocity=122 time=12>, 82956], [<message note_off channel=9 note=42 velocity=121 time=54>, 82996], [<message note_on channel=9 note=42 velocity=111 time=42>, 83038], [<message note_on channel=0 note=50 velocity=114 time=84>, 83040], [<message note_on channel=0 note=62 velocity=116 time=0>, 83040], [<message note_off channel=0 note=67 velocity=121 time=18>, 83058], [<message note_off channel=9 note=40 velocity=123 time=26>, 83064], [<message note_off channel=9 note=42 velocity=111 time=4>, 83068], [<message note_off channel=0 note=70 velocity=122 time=34>, 83092], [<message note_on channel=9 note=40 velocity=124 time=66>, 83134], [<message note_on channel=9 note=42 velocity=123 time=0>, 83134], [<message note_on channel=0 note=55 velocity=122 time=44>, 83136], [<message note_on channel=0 note=67 velocity=123 time=0>, 83136], [<message note_on channel=0 note=70 velocity=122 time=0>, 83136], [<message note_off channel=0 note=50 velocity=114 time=12>, 83148], [<message note_off channel=9 note=42 velocity=123 time=64>, 83198], [<message note_off channel=0 note=62 velocity=116 time=66>, 83214], [<message note_on channel=1 note=34 velocity=120 time=288>, 83230], [<message note_on channel=9 note=42 velocity=113 time=32>, 83230], [<message note_on channel=0 note=50 velocity=114 time=18>, 83232], [<message note_on channel=0 note=62 velocity=122 time=0>, 83232], [<message note_off channel=0 note=43 velocity=121 time=4>, 83236], [<message note_off channel=1 note=31 velocity=123 time=6>, 83236], [<message note_off channel=9 note=35 velocity=122 time=28>, 83258], [<message note_off channel=9 note=42 velocity=113 time=10>, 83268], [<message note_off channel=0 note=50 velocity=114 time=34>, 83270], [<message note_off channel=0 note=62 velocity=122 time=24>, 83294], [<message note_off channel=5 note=70 velocity=119 time=406>, 83314], [<message note_off channel=0 note=55 velocity=122 time=28>, 83322], [<message note_on channel=1 note=36 velocity=125 time=90>, 83326], [<message note_on channel=9 note=35 velocity=123 time=58>, 83326], [<message note_on channel=9 note=42 velocity=122 time=0>, 83326], [<message note_on channel=5 note=79 velocity=121 time=14>, 83328], [<message note_on channel=0 note=48 velocity=121 time=6>, 83328], [<message note_on channel=0 note=63 velocity=123 time=0>, 83328], [<message note_on channel=0 note=72 velocity=122 time=0>, 83328], [<message note_off channel=1 note=34 velocity=120 time=4>, 83330], [<message note_off channel=0 note=70 velocity=122 time=6>, 83334], [<message note_off channel=9 note=42 velocity=122 time=54>, 83380], [<message note_on channel=9 note=42 velocity=114 time=42>, 83422], [<message note_on channel=5 note=77 velocity=120 time=96>, 83424], [<message note_on channel=0 note=55 velocity=119 time=90>, 83424], [<message note_off channel=5 note=79 velocity=121 time=10>, 83434], [<message note_off channel=9 note=40 velocity=124 time=14>, 83436], [<message note_off channel=0 note=72 velocity=122 time=34>, 83458], [<message note_off channel=9 note=42 velocity=114 time=22>, 83458], [<message note_off channel=0 note=67 velocity=123 time=18>, 83476], [<message note_on channel=9 note=40 velocity=124 time=60>, 83518], [<message note_on channel=9 note=42 velocity=122 time=0>, 83518], [<message note_on channel=5 note=75 velocity=119 time=86>, 83520], [<message note_on channel=0 note=60 velocity=123 time=44>, 83520], [<message note_on channel=0 note=67 velocity=123 time=0>, 83520], [<message note_on channel=0 note=72 velocity=122 time=0>, 83520], [<message note_off channel=0 note=55 velocity=119 time=6>, 83526], [<message note_off channel=0 note=63 velocity=123 time=0>, 83526], [<message note_off channel=5 note=77 velocity=120 time=10>, 83530], [<message note_off channel=9 note=35 velocity=123 time=36>, 83554], [<message note_off channel=9 note=42 velocity=122 time=26>, 83580], [<message note_off channel=1 note=36 velocity=125 time=272>, 83602], [<message note_off channel=0 note=60 velocity=123 time=88>, 83614], [<message note_on channel=1 note=36 velocity=123 time=12>, 83614], [<message note_on channel=9 note=35 velocity=123 time=34>, 83614], [<message note_on channel=9 note=42 velocity=117 time=0>, 83614], [<message note_on channel=5 note=74 velocity=119 time=86>, 83616], [<message note_on channel=0 note=55 velocity=121 time=2>, 83616], [<message note_on channel=0 note=63 velocity=121 time=0>, 83616], [<message note_off channel=0 note=48 velocity=121 time=4>, 83620], [<message note_off channel=0 note=67 velocity=123 time=10>, 83630], [<message note_off channel=5 note=75 velocity=119 time=16>, 83632], [<message note_off channel=9 note=42 velocity=117 time=34>, 83648], [<message note_off channel=0 note=55 velocity=121 time=20>, 83650], [<message note_off channel=9 note=35 velocity=123 time=14>, 83662], [<message note_on channel=5 note=70 velocity=120 time=32>, 83664], [<message note_off channel=5 note=74 velocity=119 time=10>, 83674], [<message note_off channel=0 note=63 velocity=121 time=46>, 83696], [<message note_off channel=1 note=36 velocity=123 time=84>, 83698], [<message note_on channel=1 note=31 velocity=125 time=12>, 83710], [<message note_on channel=9 note=35 velocity=123 time=48>, 83710], [<message note_on channel=9 note=42 velocity=122 time=0>, 83710], [<message note_on channel=0 note=43 velocity=123 time=16>, 83712], [<message note_on channel=0 note=62 velocity=118 time=0>, 83712], [<message note_on channel=0 note=67 velocity=122 time=0>, 83712], [<message note_on channel=0 note=70 velocity=122 time=0>, 83712], [<message note_off channel=0 note=72 velocity=122 time=18>, 83730], [<message note_off channel=9 note=42 velocity=122 time=82>, 83792], [<message note_on channel=9 note=46 velocity=121 time=14>, 83806], [<message note_off channel=9 note=40 velocity=124 time=20>, 83826], [<message note_on channel=9 note=40 velocity=124 time=76>, 83902], [<message note_on channel=9 note=42 velocity=122 time=0>, 83902], [<message note_off channel=9 note=46 velocity=121 time=2>, 83904], [<message note_off channel=9 note=35 velocity=123 time=42>, 83946], [<message note_off channel=9 note=42 velocity=122 time=40>, 83986], [<message note_off channel=0 note=43 velocity=123 time=264>, 83994], [<message note_on channel=1 note=34 velocity=117 time=288>, 83998], [<message note_on channel=9 note=35 velocity=123 time=12>, 83998], [<message note_on channel=9 note=46 velocity=122 time=0>, 83998], [<message note_off channel=1 note=31 velocity=125 time=18>, 84016], [<message note_off channel=0 note=62 velocity=118 time=46>, 84040], [<message note_off channel=9 note=35 velocity=123 time=42>, 84040], [<message note_off channel=0 note=67 velocity=122 time=30>, 84070], [<message note_off channel=5 note=70 velocity=120 time=418>, 84092], [<message note_on channel=1 note=36 velocity=125 time=78>, 84094], [<message note_off channel=9 note=46 velocity=122 time=54>, 84094], [<message note_on channel=9 note=35 velocity=124 time=0>, 84094], [<message note_on channel=9 note=49 velocity=122 time=0>, 84094], [<message note_on channel=5 note=79 velocity=120 time=4>, 84096], [<message note_on channel=0 note=48 velocity=121 time=26>, 84096], [<message note_on channel=0 note=63 velocity=123 time=0>, 84096], [<message note_on channel=0 note=67 velocity=120 time=0>, 84096], [<message note_on channel=0 note=72 velocity=123 time=0>, 84096], [<message note_off channel=1 note=34 velocity=117 time=4>, 84098], [<message note_off channel=0 note=70 velocity=122 time=10>, 84106], [<message note_off channel=5 note=79 velocity=120 time=92>, 84188], [<message note_on channel=5 note=75 velocity=118 time=4>, 84192], [<message note_off channel=0 note=67 velocity=120 time=140>, 84246], [<message note_on channel=5 note=77 velocity=119 time=96>, 84288], [<message note_on channel=0 note=67 velocity=18 time=42>, 84288], [<message note_off channel=5 note=75 velocity=118 time=2>, 84290], [<message note_off channel=0 note=72 velocity=123 time=44>, 84332], [<message note_off channel=9 note=49 velocity=122 time=264>, 84358], [<message note_on channel=5 note=79 velocity=119 time=94>, 84384], [<message note_on channel=0 note=72 velocity=18 time=52>, 84384], [<message note_off channel=9 note=35 velocity=124 time=38>, 84396], [<message note_off channel=5 note=77 velocity=119 time=16>, 84400], [<message note_off channel=0 note=72 velocity=18 time=32>, 84416], [<message note_on channel=5 note=75 velocity=118 time=32>, 84432], [<message note_off channel=5 note=79 velocity=119 time=6>, 84438], [<message note_off channel=0 note=63 velocity=123 time=34>, 84450], [<message note_off channel=0 note=67 velocity=18 time=8>, 84458], [<message note_off channel=1 note=36 velocity=125 time=366>, 84464], [<message note_on channel=1 note=32 velocity=123 time=14>, 84478], [<message note_on channel=9 note=35 velocity=124 time=82>, 84478], [<message note_on channel=9 note=57 velocity=123 time=0>, 84478], [<message note_on channel=0 note=44 velocity=122 time=22>, 84480], [<message note_on channel=0 note=56 velocity=120 time=0>, 84480], [<message note_on channel=0 note=59 velocity=123 time=0>, 84480], [<message note_on channel=0 note=63 velocity=122 time=0>, 84480], [<message note_on channel=0 note=68 velocity=122 time=0>, 84480], [<message note_off channel=0 note=48 velocity=121 time=24>, 84504], [<message note_off channel=5 note=75 velocity=118 time=90>, 84528], [<message note_on channel=5 note=71 velocity=117 time=0>, 84528], [<message note_on channel=9 note=51 velocity=120 time=384>, 84862], [<message note_off channel=9 note=51 velocity=120 time=52>, 84914], [<message note_on channel=9 note=51 velocity=119 time=44>, 84958], [<message note_off channel=9 note=51 velocity=119 time=112>, 85070], [<message note_on channel=9 note=51 velocity=120 time=32>, 85102], [<message note_off channel=0 note=59 velocity=123 time=652>, 85156], [<message note_off channel=9 note=57 velocity=123 time=78>, 85180], [<message note_off channel=9 note=35 velocity=124 time=6>, 85186], [<message note_off channel=0 note=63 velocity=122 time=46>, 85202], [<message note_off channel=0 note=68 velocity=122 time=6>, 85208], [<message note_off channel=5 note=71 velocity=117 time=696>, 85224], [<message note_off channel=0 note=56 velocity=120 time=36>, 85244], [<message note_on channel=1 note=34 velocity=125 time=768>, 85246], [<message note_on channel=9 note=35 velocity=124 time=60>, 85246], [<message note_on channel=9 note=49 velocity=123 time=0>, 85246], [<message note_on channel=5 note=78 velocity=117 time=24>, 85248], [<message note_on channel=5 note=79 velocity=121 time=0>, 85248], [<message note_on channel=0 note=46 velocity=123 time=4>, 85248], [<message note_on channel=0 note=60 velocity=123 time=0>, 85248], [<message note_on channel=0 note=63 velocity=122 time=0>, 85248], [<message note_on channel=0 note=68 velocity=123 time=0>, 85248], [<message note_on channel=2 note=79 velocity=104 time=2688>, 85248], [<message note_on channel=6 note=66 velocity=115 time=29352>, 85248], [<message note_on channel=6 note=67 velocity=120 time=0>, 85248], [<message note_off channel=0 note=44 velocity=122 time=14>, 85262], [<message note_off channel=1 note=32 velocity=123 time=18>, 85264], [<message note_off channel=5 note=78 velocity=117 time=26>, 85274], [<message note_off channel=6 note=66 velocity=115 time=26>, 85274], [<message note_off channel=5 note=79 velocity=121 time=70>, 85344], [<message note_on channel=5 note=77 velocity=120 time=0>, 85344], [<message note_on channel=2 note=77 velocity=110 time=96>, 85344], [<message note_off channel=6 note=67 velocity=120 time=70>, 85344], [<message note_on channel=6 note=65 velocity=119 time=0>, 85344], [<message note_off channel=2 note=79 velocity=104 time=12>, 85356], [<message note_off channel=0 note=68 velocity=123 time=158>, 85420], [<message note_off channel=2 note=77 velocity=110 time=70>, 85426], [<message note_off channel=5 note=77 velocity=120 time=86>, 85430], [<message note_off channel=6 note=65 velocity=119 time=86>, 85430], [<message note_off channel=0 note=63 velocity=122 time=14>, 85434], [<message note_on channel=5 note=77 velocity=121 time=10>, 85440], [<message note_on channel=0 note=63 velocity=117 time=6>, 85440], [<message note_on channel=0 note=68 velocity=120 time=0>, 85440], [<message note_on channel=2 note=77 velocity=116 time=14>, 85440], [<message note_on channel=6 note=65 velocity=120 time=10>, 85440], [<message note_off channel=0 note=60 velocity=123 time=38>, 85478], [<message note_on channel=5 note=75 velocity=118 time=96>, 85536], [<message note_on channel=0 note=58 velocity=118 time=58>, 85536], [<message note_on channel=2 note=75 velocity=112 time=96>, 85536], [<message note_on channel=6 note=63 velocity=117 time=96>, 85536], [<message note_off channel=0 note=63 velocity=117 time=4>, 85540], [<message note_off channel=5 note=77 velocity=121 time=16>, 85552], [<message note_off channel=2 note=77 velocity=116 time=16>, 85552], [<message note_off channel=6 note=65 velocity=120 time=16>, 85552], [<message note_off channel=0 note=68 velocity=120 time=22>, 85562], [<message note_off channel=5 note=75 velocity=118 time=66>, 85618], [<message note_off channel=6 note=63 velocity=117 time=66>, 85618], [<message note_off channel=2 note=75 velocity=112 time=78>, 85630], [<message note_on channel=5 note=75 velocity=119 time=14>, 85632], [<message note_on channel=0 note=60 velocity=119 time=70>, 85632], [<message note_on channel=0 note=63 velocity=118 time=0>, 85632], [<message note_on channel=0 note=68 velocity=118 time=0>, 85632], [<message note_on channel=2 note=75 velocity=111 time=2>, 85632], [<message note_on channel=6 note=63 velocity=118 time=14>, 85632], [<message note_off channel=0 note=58 velocity=118 time=18>, 85650], [<message note_off channel=5 note=75 velocity=119 time=96>, 85728], [<message note_on channel=5 note=72 velocity=118 time=0>, 85728], [<message note_on channel=2 note=72 velocity=114 time=96>, 85728], [<message note_off channel=6 note=63 velocity=118 time=96>, 85728], [<message note_on channel=6 note=60 velocity=116 time=0>, 85728], [<message note_off channel=2 note=75 velocity=111 time=4>, 85732], [<message note_on channel=0 note=58 velocity=18 time=126>, 85776], [<message note_on channel=5 note=74 velocity=120 time=192>, 85920], [<message note_on channel=2 note=74 velocity=112 time=188>, 85920], [<message note_on channel=6 note=62 velocity=119 time=192>, 85920], [<message note_off channel=2 note=72 velocity=114 time=4>, 85924], [<message note_off channel=5 note=72 velocity=118 time=14>, 85934], [<message note_off channel=6 note=60 velocity=116 time=14>, 85934], [<message note_off channel=0 note=58 velocity=18 time=162>, 85938], [<message note_off channel=0 note=68 velocity=118 time=2>, 85940], [<message note_off channel=0 note=63 velocity=118 time=24>, 85964], [<message note_off channel=9 note=35 velocity=124 time=734>, 85980], [<message note_off channel=0 note=60 velocity=119 time=24>, 85988], [<message note_off channel=9 note=49 velocity=123 time=26>, 86006], [<message note_off channel=0 note=46 velocity=123 time=22>, 86010], [<message note_off channel=5 note=74 velocity=120 time=80>, 86014], [<message note_off channel=1 note=34 velocity=125 time=750>, 86014], [<message note_on channel=1 note=39 velocity=124 time=0>, 86014], [<message note_off channel=2 note=74 velocity=112 time=90>, 86014], [<message note_off channel=6 note=62 velocity=119 time=80>, 86014], [<message note_on channel=9 note=35 velocity=122 time=8>, 86014], [<message note_on channel=9 note=52 velocity=119 time=0>, 86014], [<message note_on channel=5 note=75 velocity=120 time=2>, 86016], [<message note_on channel=0 note=39 velocity=117 time=6>, 86016], [<message note_on channel=0 note=58 velocity=119 time=0>, 86016], [<message note_on channel=0 note=63 velocity=121 time=0>, 86016], [<message note_on channel=0 note=67 velocity=122 time=0>, 86016], [<message note_on channel=2 note=63 velocity=96 time=2>, 86016], [<message note_on channel=2 note=67 velocity=65 time=0>, 86016], [<message note_on channel=2 note=75 velocity=103 time=0>, 86016], [<message note_on channel=6 note=63 velocity=119 time=2>, 86016], [<message note_off channel=9 note=51 velocity=120 time=34>, 86048], [<message note_off channel=0 note=58 velocity=119 time=96>, 86112], [<message note_on channel=0 note=46 velocity=119 time=0>, 86112], [<message note_off channel=0 note=63 velocity=121 time=56>, 86168], [<message note_off channel=0 note=67 velocity=122 time=8>, 86176], [<message note_on channel=9 note=51 velocity=119 time=158>, 86206], [<message note_on channel=0 note=51 velocity=122 time=32>, 86208], [<message note_on channel=0 note=67 velocity=123 time=0>, 86208], [<message note_off channel=0 note=46 velocity=119 time=6>, 86214], [<message note_off channel=0 note=39 velocity=117 time=2>, 86216], [<message note_off channel=9 note=35 velocity=122 time=80>, 86286], [<message note_off channel=9 note=51 velocity=119 time=16>, 86302], [<message note_on channel=9 note=35 velocity=121 time=0>, 86302], [<message note_on channel=0 note=70 velocity=122 time=88>, 86304], [<message note_off channel=0 note=67 velocity=123 time=4>, 86308], [<message note_off channel=2 note=67 velocity=65 time=334>, 86350], [<message note_off channel=0 note=51 velocity=122 time=54>, 86362], [<message note_off channel=9 note=35 velocity=121 time=70>, 86372], [<message note_off channel=2 note=75 velocity=103 time=44>, 86394], [<message note_on channel=9 note=35 velocity=123 time=26>, 86398], [<message note_on channel=9 note=51 velocity=119 time=0>, 86398], [<message note_on channel=0 note=56 velocity=122 time=38>, 86400], [<message note_on channel=0 note=63 velocity=117 time=0>, 86400], [<message note_on channel=0 note=68 velocity=122 time=0>, 86400], [<message note_on channel=0 note=72 velocity=120 time=0>, 86400], [<message note_on channel=2 note=68 velocity=111 time=6>, 86400], [<message note_on channel=2 note=72 velocity=111 time=0>, 86400], [<message note_off channel=0 note=70 velocity=122 time=12>, 86412], [<message note_off channel=9 note=51 velocity=119 time=96>, 86494], [<message note_on channel=0 note=70 velocity=123 time=84>, 86496], [<message note_on channel=0 note=74 velocity=118 time=0>, 86496], [<message note_on channel=2 note=74 velocity=110 time=96>, 86496], [<message note_off channel=0 note=72 velocity=120 time=14>, 86510], [<message note_off channel=2 note=72 velocity=111 time=20>, 86516], [<message note_off channel=0 note=68 velocity=122 time=10>, 86520], [<message note_on channel=9 note=51 velocity=119 time=96>, 86590], [<message note_on channel=0 note=68 velocity=120 time=72>, 86592], [<message note_on channel=0 note=72 velocity=121 time=0>, 86592], [<message note_on channel=2 note=72 velocity=110 time=76>, 86592], [<message note_off channel=0 note=74 velocity=118 time=2>, 86594], [<message note_off channel=0 note=70 velocity=123 time=12>, 86606], [<message note_off channel=2 note=74 velocity=110 time=50>, 86642], [<message note_off channel=9 note=51 velocity=119 time=96>, 86686], [<message note_on channel=0 note=74 velocity=118 time=82>, 86688], [<message note_on channel=2 note=74 velocity=89 time=46>, 86688], [<message note_off channel=2 note=72 velocity=110 time=6>, 86694], [<message note_off channel=0 note=68 velocity=120 time=64>, 86752], [<message note_off channel=9 note=35 velocity=123 time=74>, 86760], [<message note_off channel=2 note=68 velocity=111 time=74>, 86768], [<message note_off channel=0 note=72 velocity=121 time=30>, 86782], [<message note_off channel=2 note=74 velocity=89 time=14>, 86782], [<message note_on channel=9 note=35 velocity=122 time=22>, 86782], [<message note_on channel=9 note=51 velocity=119 time=0>, 86782], [<message note_on channel=0 note=55 velocity=117 time=2>, 86784], [<message note_on channel=0 note=67 velocity=122 time=0>, 86784], [<message note_on channel=0 note=70 velocity=121 time=0>, 86784], [<message note_on channel=2 note=67 velocity=96 time=2>, 86784], [<message note_on channel=2 note=70 velocity=101 time=0>, 86784], [<message note_off channel=0 note=74 velocity=118 time=8>, 86792], [<message note_off channel=0 note=63 velocity=117 time=14>, 86806], [<message note_off channel=0 note=56 velocity=122 time=10>, 86816], [<message note_off channel=9 note=51 velocity=119 time=96>, 86878], [<message note_on channel=0 note=63 velocity=121 time=64>, 86880], [<message note_off channel=0 note=67 velocity=122 time=28>, 86908], [<message note_off channel=0 note=70 velocity=121 time=6>, 86914], [<message note_on channel=9 note=51 velocity=119 time=96>, 86974], [<message note_on channel=0 note=67 velocity=121 time=62>, 86976], [<message note_off channel=9 note=35 velocity=122 time=90>, 87064], [<message note_off channel=0 note=67 velocity=121 time=92>, 87068], [<message note_on channel=9 note=35 velocity=117 time=6>, 87070], [<message note_on channel=0 note=70 velocity=120 time=4>, 87072], [<message note_off channel=9 note=51 velocity=119 time=16>, 87086], [<message note_off channel=0 note=63 velocity=121 time=60>, 87132], [<message note_off channel=9 note=35 velocity=117 time=54>, 87140], [<message note_on channel=9 note=35 velocity=122 time=26>, 87166], [<message note_on channel=9 note=51 velocity=120 time=0>, 87166], [<message note_off channel=0 note=70 velocity=120 time=36>, 87168], [<message note_off channel=0 note=55 velocity=117 time=0>, 87168], [<message note_on channel=0 note=54 velocity=121 time=0>, 87168], [<message note_on channel=0 note=66 velocity=122 time=0>, 87168], [<message note_on channel=0 note=69 velocity=122 time=0>, 87168], [<message note_on channel=0 note=72 velocity=119 time=0>, 87168], [<message note_off channel=2 note=70 velocity=101 time=384>, 87168], [<message note_on channel=2 note=66 velocity=110 time=0>, 87168], [<message note_on channel=2 note=72 velocity=103 time=0>, 87168], [<message note_off channel=2 note=67 velocity=96 time=12>, 87180], [<message note_off channel=5 note=75 velocity=120 time=1170>, 87186], [<message note_off channel=6 note=63 velocity=119 time=1170>, 87186], [<message note_on channel=0 note=74 velocity=117 time=96>, 87264], [<message note_on channel=2 note=74 velocity=112 time=84>, 87264], [<message note_off channel=0 note=72 velocity=119 time=14>, 87278], [<message note_off channel=2 note=72 velocity=103 time=22>, 87286], [<message note_off channel=9 note=51 velocity=120 time=122>, 87288], [<message note_off channel=2 note=74 velocity=112 time=66>, 87352], [<message note_off channel=0 note=74 velocity=117 time=80>, 87358], [<message note_on channel=9 note=51 velocity=119 time=70>, 87358], [<message note_on channel=0 note=72 velocity=117 time=2>, 87360], [<message note_on channel=2 note=72 velocity=108 time=8>, 87360], [<message note_off channel=1 note=39 velocity=124 time=1352>, 87366], [<message note_on channel=0 note=74 velocity=118 time=96>, 87456], [<message note_on channel=2 note=74 velocity=100 time=96>, 87456], [<message note_off channel=0 note=69 velocity=122 time=10>, 87466], [<message note_off channel=0 note=72 velocity=117 time=2>, 87468], [<message note_off channel=0 note=66 velocity=122 time=8>, 87476], [<message note_off channel=2 note=72 velocity=108 time=34>, 87490], [<message note_off channel=9 note=51 velocity=119 time=150>, 87508], [<message note_off channel=9 note=35 velocity=122 time=10>, 87518], [<message note_off channel=2 note=63 velocity=96 time=60>, 87550], [<message note_on channel=9 note=35 velocity=121 time=32>, 87550], [<message note_on channel=9 note=51 velocity=119 time=0>, 87550], [<message note_on channel=0 note=53 velocity=120 time=76>, 87552], [<message note_on channel=0 note=65 velocity=121 time=0>, 87552], [<message note_on channel=0 note=70 velocity=122 time=0>, 87552], [<message note_on channel=2 note=62 velocity=113 time=2>, 87552], [<message note_on channel=2 note=65 velocity=71 time=0>, 87552], [<message note_on channel=2 note=70 velocity=106 time=0>, 87552], [<message note_off channel=0 note=74 velocity=118 time=4>, 87556], [<message note_off channel=2 note=62 velocity=113 time=10>, 87562], [<message note_off channel=0 note=54 velocity=121 time=10>, 87566], [<message note_off channel=2 note=66 velocity=110 time=12>, 87574], [<message note_on channel=0 note=62 velocity=122 time=82>, 87648], [<message note_off channel=0 note=65 velocity=121 time=10>, 87658], [<message note_off channel=9 note=51 velocity=119 time=132>, 87682], [<message note_on channel=9 note=51 velocity=119 time=60>, 87742], [<message note_on channel=0 note=65 velocity=116 time=86>, 87744], [<message note_off channel=0 note=70 velocity=122 time=22>, 87766], [<message note_off channel=0 note=62 velocity=122 time=58>, 87824], [<message note_on channel=0 note=70 velocity=120 time=16>, 87840], [<message note_off channel=9 note=51 velocity=119 time=124>, 87866], [<message note_off channel=0 note=65 velocity=116 time=58>, 87898], [<message note_off channel=0 note=70 velocity=120 time=12>, 87910], [<message note_off channel=2 note=70 velocity=106 time=344>, 87918], [<message note_off channel=9 note=35 velocity=121 time=58>, 87924], [<message note_on channel=9 note=35 velocity=120 time=10>, 87934], [<message note_on channel=9 note=51 velocity=120 time=0>, 87934], [<message note_on channel=0 note=61 velocity=121 time=26>, 87936], [<message note_on channel=0 note=65 velocity=122 time=0>, 87936], [<message note_on channel=0 note=70 velocity=123 time=0>, 87936], [<message note_on channel=2 note=61 velocity=116 time=18>, 87936], [<message note_on channel=2 note=70 velocity=110 time=0>, 87936], [<message note_off channel=2 note=74 velocity=100 time=10>, 87946], [<message note_on channel=0 note=68 velocity=118 time=96>, 88032], [<message note_on channel=2 note=68 velocity=112 time=86>, 88032], [<message note_off channel=2 note=70 velocity=110 time=14>, 88046], [<message note_off channel=0 note=70 velocity=123 time=22>, 88054], [<message note_off channel=9 note=51 velocity=120 time=126>, 88060], [<message note_off channel=0 note=68 velocity=118 time=46>, 88100], [<message note_off channel=2 note=68 velocity=112 time=74>, 88120], [<message note_on channel=9 note=51 velocity=118 time=66>, 88126], [<message note_on channel=0 note=68 velocity=121 time=28>, 88128], [<message note_on channel=2 note=68 velocity=116 time=8>, 88128], [<message note_off channel=9 note=35 velocity=120 time=52>, 88178], [<message note_off channel=2 note=68 velocity=116 time=78>, 88206], [<message note_on channel=9 note=35 velocity=118 time=44>, 88222], [<message note_off channel=0 note=65 velocity=122 time=96>, 88224], [<message note_on channel=0 note=67 velocity=117 time=0>, 88224], [<message note_on channel=2 note=67 velocity=114 time=18>, 88224], [<message note_off channel=0 note=68 velocity=121 time=2>, 88226], [<message note_off channel=9 note=51 velocity=118 time=16>, 88238], [<message note_off channel=0 note=61 velocity=121 time=28>, 88254], [<message note_off channel=2 note=65 velocity=71 time=50>, 88274], [<message note_off channel=0 note=67 velocity=117 time=22>, 88276], [<message note_off channel=9 note=35 velocity=118 time=56>, 88294], [<message note_on channel=9 note=35 velocity=121 time=24>, 88318], [<message note_on channel=9 note=51 velocity=118 time=0>, 88318], [<message note_on channel=0 note=52 velocity=115 time=44>, 88320], [<message note_on channel=0 note=60 velocity=117 time=0>, 88320], [<message note_on channel=0 note=64 velocity=115 time=0>, 88320], [<message note_on channel=0 note=67 velocity=121 time=0>, 88320], [<message note_on channel=2 note=60 velocity=111 time=46>, 88320], [<message note_on channel=2 note=64 velocity=106 time=0>, 88320], [<message note_off channel=2 note=61 velocity=116 time=14>, 88334], [<message note_off channel=0 note=53 velocity=120 time=16>, 88336], [<message note_off channel=0 note=60 velocity=117 time=58>, 88394], [<message note_on channel=0 note=60 velocity=114 time=22>, 88416], [<message note_off channel=9 note=51 velocity=118 time=124>, 88442], [<message note_off channel=0 note=64 velocity=115 time=30>, 88446], [<message note_on channel=9 note=51 velocity=118 time=68>, 88510], [<message note_on channel=0 note=64 velocity=122 time=66>, 88512], [<message note_off channel=0 note=67 velocity=121 time=18>, 88530], [<message note_on channel=1 note=46 velocity=112 time=1240>, 88606], [<message note_on channel=0 note=70 velocity=117 time=78>, 88608], [<message note_off channel=9 note=51 velocity=118 time=120>, 88630], [<message note_off channel=0 note=70 velocity=117 time=54>, 88662], [<message note_off channel=1 note=46 velocity=112 time=64>, 88670], [<message note_on channel=1 note=46 velocity=114 time=32>, 88702], [<message note_on channel=9 note=51 velocity=118 time=72>, 88702], [<message note_on channel=0 note=70 velocity=120 time=42>, 88704], [<message note_on channel=2 note=70 velocity=101 time=370>, 88704], [<message note_off channel=2 note=64 velocity=106 time=14>, 88718], [<message note_on channel=1 note=44 velocity=118 time=96>, 88798], [<message note_on channel=0 note=68 velocity=118 time=96>, 88800], [<message note_on channel=2 note=68 velocity=113 time=82>, 88800], [<message note_off channel=2 note=67 velocity=114 time=4>, 88804], [<message note_off channel=9 note=51 velocity=118 time=108>, 88810], [<message note_off channel=1 note=46 velocity=114 time=14>, 88812], [<message note_off channel=2 note=70 velocity=101 time=8>, 88812], [<message note_off channel=0 note=70 velocity=120 time=20>, 88820], [<message note_off channel=0 note=68 velocity=118 time=44>, 88864], [<message note_off channel=2 note=68 velocity=113 time=80>, 88892], [<message note_on channel=9 note=51 velocity=119 time=84>, 88894], [<message note_on channel=0 note=68 velocity=115 time=32>, 88896], [<message note_on channel=2 note=68 velocity=117 time=4>, 88896], [<message note_off channel=9 note=52 velocity=119 time=10>, 88904], [<message note_off channel=0 note=68 velocity=115 time=70>, 88966], [<message note_off channel=0 note=52 velocity=115 time=4>, 88970], [<message note_on channel=1 note=43 velocity=119 time=178>, 88990], [<message note_off channel=2 note=68 velocity=117 time=94>, 88990], [<message note_on channel=0 note=67 velocity=115 time=22>, 88992], [<message note_on channel=2 note=67 velocity=117 time=2>, 88992], [<message note_off channel=1 note=44 velocity=118 time=18>, 89008], [<message note_off channel=0 note=60 velocity=114 time=40>, 89032], [<message note_off channel=9 note=51 velocity=119 time=132>, 89036], [<message note_off channel=1 note=43 velocity=119 time=50>, 89058], [<message note_off channel=0 note=67 velocity=115 time=28>, 89060], [<message note_off channel=2 note=67 velocity=117 time=80>, 89072], [<message note_on channel=1 note=43 velocity=120 time=28>, 89086], [<message note_on channel=9 note=51 velocity=118 time=50>, 89086], [<message note_on channel=0 note=36 velocity=123 time=28>, 89088], [<message note_on channel=0 note=48 velocity=120 time=0>, 89088], [<message note_on channel=0 note=60 velocity=121 time=0>, 89088], [<message note_on channel=0 note=67 velocity=123 time=0>, 89088], [<message note_on channel=2 note=67 velocity=116 time=16>, 89088], [<message note_off channel=0 note=64 velocity=122 time=8>, 89096], [<message note_off channel=1 note=43 velocity=120 time=96>, 89182], [<message note_on channel=1 note=40 velocity=119 time=0>, 89182], [<message note_off channel=0 note=60 velocity=121 time=88>, 89184], [<message note_on channel=0 note=64 velocity=122 time=0>, 89184], [<message note_on channel=2 note=64 velocity=114 time=96>, 89184], [<message note_off channel=0 note=36 velocity=123 time=4>, 89188], [<message note_off channel=2 note=60 velocity=111 time=10>, 89194], [<message note_off channel=9 note=51 velocity=118 time=156>, 89242], [<message note_off channel=1 note=40 velocity=119 time=78>, 89260], [<message note_on channel=1 note=36 velocity=120 time=18>, 89278], [<message note_on channel=9 note=51 velocity=108 time=36>, 89278], [<message note_on channel=0 note=60 velocity=101 time=92>, 89280], [<message note_on channel=2 note=60 velocity=108 time=86>, 89280], [<message note_off channel=0 note=64 velocity=122 time=8>, 89288], [<message note_off channel=2 note=64 velocity=114 time=20>, 89300], [<message note_on channel=1 note=34 velocity=120 time=96>, 89374], [<message note_on channel=0 note=58 velocity=122 time=88>, 89376], [<message note_on channel=2 note=58 velocity=108 time=76>, 89376], [<message note_off channel=1 note=36 velocity=120 time=4>, 89378], [<message note_off channel=0 note=60 velocity=101 time=74>, 89450], [<message note_off channel=0 note=58 velocity=122 time=12>, 89462], [<message note_on channel=1 note=33 velocity=120 time=92>, 89470], [<message note_on channel=9 note=49 velocity=117 time=192>, 89470], [<message note_off channel=0 note=48 velocity=120 time=10>, 89472], [<message note_on channel=0 note=53 velocity=123 time=0>, 89472], [<message note_on channel=0 note=57 velocity=123 time=0>, 89472], [<message note_on channel=0 note=60 velocity=123 time=0>, 89472], [<message note_on channel=0 note=65 velocity=123 time=0>, 89472], [<message note_on channel=2 note=57 velocity=111 time=96>, 89472], [<message note_on channel=2 note=65 velocity=106 time=0>, 89472], [<message note_off channel=1 note=34 velocity=120 time=8>, 89478], [<message note_off channel=2 note=58 velocity=108 time=8>, 89480], [<message note_off channel=2 note=67 velocity=116 time=4>, 89484], [<message note_off channel=9 note=51 velocity=108 time=18>, 89488], [<message note_on channel=0 note=48 velocity=115 time=88>, 89560], [<message note_off channel=0 note=65 velocity=123 time=8>, 89568], [<message note_off channel=0 note=60 velocity=123 time=0>, 89568], [<message note_off channel=0 note=57 velocity=123 time=0>, 89568], [<message note_off channel=0 note=53 velocity=123 time=0>, 89568], [<message note_off channel=0 note=48 velocity=115 time=92>, 89660], [<message note_on channel=0 note=53 velocity=120 time=0>, 89660], [<message note_off channel=0 note=67 velocity=123 time=2>, 89662], [<message note_off channel=9 note=40 velocity=124 time=174>, 89662], [<message note_on channel=0 note=65 velocity=120 time=2>, 89664], [<message note_on channel=0 note=48 velocity=102 time=106>, 89770], [<message note_off channel=9 note=35 velocity=121 time=122>, 89784], [<message note_off channel=0 note=53 velocity=120 time=20>, 89790], [<message note_off channel=1 note=33 velocity=120 time=360>, 89838], [<message note_off channel=2 note=60 velocity=108 time=370>, 89854], [<message note_on channel=2 note=58 velocity=107 time=2>, 89856], [<message note_on channel=2 note=60 velocity=18 time=0>, 89856], [<message note_on channel=0 note=62 velocity=118 time=72>, 89862], [<message note_on channel=0 note=46 velocity=119 time=2>, 89864], [<message note_on channel=0 note=53 velocity=117 time=0>, 89864], [<message note_on channel=0 note=58 velocity=122 time=0>, 89864], [<message note_off channel=0 note=65 velocity=120 time=2>, 89866], [<message note_off channel=9 note=49 velocity=117 time=88>, 89872], [<message note_off channel=0 note=48 velocity=102 time=10>, 89876], [<message note_off channel=2 note=57 velocity=111 time=24>, 89880], [<message note_off channel=2 note=60 velocity=18 time=2>, 89882], [<message note_off channel=0 note=62 velocity=118 time=106>, 89982], [<message note_on channel=0 note=62 velocity=105 time=10>, 89992], [<message note_off channel=2 note=58 velocity=107 time=146>, 90028], [<message note_on channel=2 note=57 velocity=110 time=20>, 90048], [<message note_on channel=0 note=57 velocity=109 time=86>, 90078], [<message note_on channel=0 note=60 velocity=121 time=2>, 90080], [<message note_on channel=0 note=45 velocity=120 time=2>, 90082], [<message note_off channel=0 note=62 velocity=105 time=4>, 90086], [<message note_off channel=0 note=58 velocity=122 time=4>, 90090], [<message note_off channel=0 note=46 velocity=119 time=2>, 90092], [<message note_off channel=0 note=57 velocity=109 time=76>, 90168], [<message note_off channel=0 note=60 velocity=121 time=18>, 90186], [<message note_on channel=0 note=60 velocity=119 time=20>, 90206], [<message note_on channel=0 note=57 velocity=119 time=2>, 90208], [<message note_on channel=2 note=56 velocity=106 time=240>, 90288], [<message note_off channel=0 note=57 velocity=119 time=88>, 90296], [<message note_off channel=2 note=57 velocity=110 time=10>, 90298], [<message note_off channel=0 note=60 velocity=119 time=24>, 90320], [<message note_on channel=0 note=59 velocity=114 time=8>, 90328], [<message note_on channel=0 note=44 velocity=117 time=2>, 90330], [<message note_on channel=0 note=56 velocity=122 time=2>, 90332], [<message note_off channel=0 note=45 velocity=120 time=10>, 90342], [<message note_on channel=0 note=65 velocity=119 time=152>, 90494], [<message note_on channel=2 note=55 velocity=89 time=326>, 90624], [<message note_on channel=2 note=62 velocity=76 time=0>, 90624], [<message note_off channel=2 note=56 velocity=106 time=4>, 90628], [<message note_off channel=0 note=59 velocity=114 time=160>, 90654], [<message note_off channel=0 note=56 velocity=122 time=22>, 90676], [<message note_on channel=0 note=55 velocity=115 time=4>, 90680], [<message note_on channel=0 note=43 velocity=122 time=2>, 90682], [<message note_on channel=0 note=58 velocity=122 time=0>, 90682], [<message note_off channel=0 note=44 velocity=117 time=24>, 90706], [<message note_off channel=0 note=65 velocity=119 time=22>, 90728], [<message note_on channel=0 note=65 velocity=119 time=178>, 90906], [<message note_off channel=2 note=55 velocity=89 time=552>, 91180], [<message note_on channel=2 note=41 velocity=18 time=68>, 91248], [<message note_on channel=2 note=53 velocity=18 time=0>, 91248], [<message note_on channel=2 note=57 velocity=18 time=0>, 91248], [<message note_off channel=0 note=65 velocity=119 time=436>, 91342], [<message note_off channel=0 note=53 velocity=117 time=0>, 91342], [<message note_off channel=2 note=62 velocity=76 time=94>, 91342], [<message note_off channel=0 note=55 velocity=115 time=2>, 91344], [<message note_on channel=0 note=41 velocity=122 time=0>, 91344], [<message note_off channel=0 note=58 velocity=122 time=4>, 91348], [<message note_off channel=0 note=43 velocity=122 time=6>, 91354], [<message note_on channel=0 note=53 velocity=122 time=2>, 91356], [<message note_on channel=0 note=57 velocity=122 time=12>, 91368], [<message note_on channel=0 note=60 velocity=122 time=12>, 91380], [<message note_on channel=0 note=65 velocity=123 time=12>, 91392], [<message note_off channel=2 note=41 velocity=18 time=940>, 92282], [<message note_off channel=2 note=53 velocity=18 time=16>, 92298], [<message note_off channel=2 note=65 velocity=106 time=2>, 92300], [<message note_off channel=2 note=57 velocity=18 time=8>, 92308], [<message note_off channel=0 note=41 velocity=122 time=1104>, 92496], [<message note_off channel=0 note=60 velocity=122 time=36>, 92532], [<message note_off channel=0 note=53 velocity=122 time=24>, 92556], [<message note_off channel=0 note=57 velocity=122 time=12>, 92568], [<message note_off channel=0 note=65 velocity=123 time=72>, 92640], [<message control_change channel=5 control=120 value=0 time=5742>, 92928], [<message control_change channel=4 control=120 value=0 time=10432>, 92928], [<message control_change channel=0 control=120 value=0 time=288>, 92928], [<message control_change channel=1 control=120 value=0 time=3090>, 92928], [<message control_change channel=2 control=120 value=0 time=620>, 92928], [<message control_change channel=3 control=120 value=0 time=35852>, 92928], [<message control_change channel=6 control=120 value=0 time=5742>, 92928], [<message control_change channel=7 control=120 value=0 time=35832>, 92928], [<message control_change channel=8 control=120 value=0 time=12718>, 92928], [<message control_change channel=11 control=120 value=0 time=12622>, 92928], [<message control_change channel=12 control=120 value=0 time=38300>, 92928], [<message control_change channel=9 control=120 value=0 time=3056>, 92928], [<message control_change channel=10 control=120 value=0 time=35638>, 92928], [<message control_change channel=5 control=123 value=0 time=2>, 92930], [<message control_change channel=4 control=123 value=0 time=2>, 92930], [<message control_change channel=0 control=123 value=0 time=2>, 92930], [<message control_change channel=1 control=123 value=0 time=2>, 92930], [<message control_change channel=2 control=123 value=0 time=2>, 92930], [<message control_change channel=3 control=123 value=0 time=2>, 92930], [<message control_change channel=6 control=123 value=0 time=2>, 92930], [<message control_change channel=11 control=123 value=0 time=2>, 92930], [<message control_change channel=12 control=123 value=0 time=2>, 92930], [<message control_change channel=10 control=123 value=0 time=2>, 92930]]